<svg width="41" height="40" viewBox="0 0 41 40" fill="none" xmlns="http://www.w3.org/2000/svg">
<rect x="0.863098" width="40" height="40" rx="20" fill="url(#paint0_linear_1_8267)"/>
<path d="M30.5803 26.2391L27.4687 11.4453C27.4285 11.2518 27.3504 11.0682 27.239 10.905C27.1276 10.7418 26.985 10.6023 26.8195 10.4943C26.654 10.3864 26.4688 10.3122 26.2745 10.2761C26.0802 10.24 25.8807 10.2426 25.6875 10.2837L21.299 11.2269C20.9109 11.3119 20.5719 11.5467 20.356 11.8803C20.1401 12.2138 20.0646 12.6192 20.1459 13.0081L23.2575 27.8019C23.3268 28.1394 23.5102 28.4427 23.7769 28.6609C24.0436 28.8791 24.3773 28.9989 24.7218 29C24.8284 28.9999 24.9346 28.9885 25.0387 28.9662L29.4272 28.0231C29.8158 27.9379 30.155 27.7026 30.371 27.3685C30.587 27.0343 30.6622 26.6284 30.5803 26.2391ZM21.6131 12.7016C21.6131 12.6959 21.6131 12.6931 21.6131 12.6931L26.0006 11.7556L26.3128 13.2434L21.9253 14.1875L21.6131 12.7016ZM22.5506 17.1434L22.2365 15.6528L26.6259 14.7097L26.939 16.2003L22.5506 17.1434ZM29.1131 26.5569L24.7256 27.4944L24.4134 26.0066L28.8009 25.0625L29.1131 26.5484C29.1131 26.5541 29.1131 26.5569 29.1131 26.5569ZM18.6131 11H14.1131C13.7153 11 13.3337 11.158 13.0524 11.4393C12.7711 11.7206 12.6131 12.1022 12.6131 12.5V27.5C12.6131 27.8978 12.7711 28.2794 13.0524 28.5607C13.3337 28.842 13.7153 29 14.1131 29H18.6131C19.0109 29 19.3925 28.842 19.6738 28.5607C19.9551 28.2794 20.1131 27.8978 20.1131 27.5V12.5C20.1131 12.1022 19.9551 11.7206 19.6738 11.4393C19.3925 11.158 19.0109 11 18.6131 11ZM14.1131 12.5H18.6131V14H14.1131V12.5ZM18.6131 27.5H14.1131V26H18.6131V27.5Z" fill="white"/>
<defs>
<linearGradient id="paint0_linear_1_8267" x1="5.90983" y1="2.85715" x2="43.7854" y2="13.6482" gradientUnits="userSpaceOnUse">
<stop stop-color="#EE269D"/>
<stop offset="1" stop-color="#9743A6"/>
</linearGradient>
</defs>
</svg>
