<svg width="380" height="238" viewBox="0 0 380 238" fill="none" xmlns="http://www.w3.org/2000/svg">
<path fill-rule="evenodd" clip-rule="evenodd" d="M14.9276 43.5835H365.073C373.292 43.5835 380 50.8383 380 59.7311V221.329C380 230.22 373.293 237.477 365.073 237.477H14.9276C6.70832 237.477 0 230.22 0 221.329V59.7311C0 50.8401 6.70669 43.5835 14.9276 43.5835Z" fill="white"/>
<path d="M353.365 49.061H26.6346C14.7222 49.061 5.06537 50.1516 5.06537 51.4969V229.559C5.06537 230.905 14.7222 231.995 26.6346 231.995H353.365C365.278 231.995 374.935 230.905 374.935 229.559V51.4969C374.935 50.1516 365.278 49.061 353.365 49.061Z" fill="#735974"/>
<path fill-rule="evenodd" clip-rule="evenodd" d="M21.1035 125.665V71.176C21.1035 68.5534 23.085 66.4099 25.5095 66.4099H160.632C161.097 66.4099 161.477 66.8203 161.477 67.324C161.477 67.8278 161.097 68.2364 160.632 68.2364H25.5095C24.0164 68.2364 22.7919 69.5609 22.7919 71.176V125.665C22.7919 126.169 22.4126 126.578 21.9485 126.578C21.4828 126.578 21.1051 126.167 21.1051 125.665H21.1035ZM176.113 66.4099H185.329C185.794 66.4099 186.174 66.8203 186.174 67.324C186.174 67.8278 185.794 68.2364 185.329 68.2364H176.113C175.647 68.2364 175.269 67.826 175.269 67.324C175.269 66.8203 175.649 66.4099 176.113 66.4099ZM116.975 214.646H25.5078C23.0834 214.646 21.1018 212.505 21.1018 209.88V200.292C21.1018 199.788 21.4812 199.379 21.9453 199.379C22.4109 199.379 22.7887 199.79 22.7887 200.292V209.88C22.7887 211.495 24.0131 212.82 25.5062 212.82H116.974C117.439 212.82 117.817 213.23 117.817 213.732C117.817 214.236 117.438 214.645 116.974 214.645L116.975 214.646Z" fill="white"/>
<path d="M21.7792 172.613V154.209H27.8899C30.0799 154.209 31.7472 154.641 32.887 155.507C34.0284 156.374 34.5982 157.635 34.5982 159.282C34.5982 160.231 34.3947 161.046 33.9925 161.719C33.5855 162.392 32.9912 162.889 32.2064 163.208C33.0921 163.458 33.7744 163.933 34.2482 164.622C34.722 165.316 34.963 166.158 34.963 167.155C34.963 168.962 34.4371 170.316 33.3787 171.227C32.322 172.132 30.7589 172.595 28.6878 172.611H21.7808L21.7792 172.613ZM25.8791 164.77V169.196H28.5673C29.3097 169.196 29.8747 169.011 30.2737 168.645C30.6726 168.278 30.868 167.761 30.868 167.091C30.868 165.552 30.1662 164.779 28.7545 164.77H25.8791ZM25.8791 161.871H28.0202C28.9141 161.862 29.5524 161.686 29.935 161.341C30.3176 160.995 30.5098 160.486 30.5098 159.814C30.5098 159.037 30.303 158.48 29.8878 158.14C29.4775 157.8 28.8115 157.628 27.8899 157.628H25.8791V161.873V161.871Z" fill="#4B4669"/>
<path d="M44.563 171.141C43.7294 172.292 42.6043 172.87 41.1893 172.87C39.8021 172.87 38.7535 172.435 38.0387 171.563C37.3239 170.691 36.9706 169.436 36.9706 167.801V158.943H40.9076V167.826C40.9076 168.995 41.4336 169.582 42.487 169.582C43.3891 169.582 44.0306 169.233 44.4132 168.534V158.943H48.3731V172.611H44.6803L44.5647 171.141H44.563Z" fill="#4B4669"/>
<path d="M50.0388 165.679C50.0388 163.509 50.4703 161.804 51.3349 160.559C52.2011 159.312 53.4092 158.686 54.956 158.686C56.0844 158.686 57.0386 159.165 57.8071 160.127V153.198H61.7555V172.611H58.2174L58.0187 171.144C57.2095 172.296 56.1805 172.87 54.9316 172.87C53.4288 172.87 52.2402 172.245 51.3577 170.998C50.4768 169.751 50.0372 167.977 50.0372 165.679H50.0388ZM53.9758 165.941C53.9758 168.37 54.6304 169.582 55.9379 169.582C56.8106 169.582 57.4342 169.185 57.8087 168.395V163.183C57.4489 162.376 56.835 161.971 55.9623 161.971C54.746 161.971 54.0882 163.033 53.9872 165.156L53.9758 165.941Z" fill="#4B4669"/>
<path d="M71.113 172.613C70.9697 172.336 70.846 171.931 70.7385 171.396C70.0123 172.379 68.9995 172.872 67.7002 172.872C66.5067 172.872 65.494 172.484 64.6619 171.702C63.8283 170.922 63.4131 169.938 63.4131 168.756C63.4131 167.271 63.9195 166.151 64.9322 165.39C65.945 164.631 67.4169 164.25 69.3464 164.25H70.5627V163.525C70.5627 162.265 70.0595 161.635 69.0549 161.635C68.1219 161.635 67.6514 162.135 67.6514 163.132H63.7143C63.7143 161.813 64.2321 160.742 65.2742 159.918C66.3146 159.093 67.6383 158.683 69.2552 158.683C70.8655 158.683 72.1388 159.111 73.075 159.96C74.008 160.809 74.4867 161.978 74.5111 163.458V169.511C74.5274 170.767 74.7065 171.729 75.0501 172.393V172.608H71.113V172.613ZM68.6446 169.844C69.1347 169.844 69.5417 169.732 69.869 169.503C70.1914 169.274 70.4226 169.015 70.5627 168.726V166.529H69.418C68.0454 166.529 67.3599 167.199 67.3599 168.536C67.3599 168.925 67.4788 169.238 67.723 169.48C67.9624 169.721 68.2734 169.842 68.6446 169.842V169.844Z" fill="#4B4669"/>
<path d="M81.5695 166.646L83.6716 158.945H87.8903L82.737 174.894L82.5139 175.472C81.7844 177.24 80.4884 178.126 78.6338 178.126C78.1225 178.126 77.5803 178.043 77.0105 177.876V174.839H77.525C78.0786 174.839 78.5019 174.753 78.7934 174.58C79.0848 174.408 79.2998 174.098 79.443 173.652L79.7589 172.742L75.3643 158.945H79.5717L81.5695 166.646Z" fill="#4B4669"/>
<path d="M95.8589 172.613C95.7156 172.336 95.5918 171.931 95.4844 171.396C94.7582 172.379 93.7454 172.872 92.4461 172.872C91.2526 172.872 90.2398 172.484 89.4078 171.702C88.5742 170.922 88.159 169.938 88.159 168.756C88.159 167.271 88.6653 166.151 89.6781 165.39C90.6909 164.631 92.1628 164.25 94.0922 164.25H95.3085V163.525C95.3085 162.265 94.8054 161.635 93.8008 161.635C92.8678 161.635 92.3972 162.135 92.3972 163.132H88.4602C88.4602 161.813 88.978 160.742 90.02 159.918C91.0605 159.093 92.3842 158.683 94.0011 158.683C95.6114 158.683 96.8847 159.111 97.8209 159.96C98.7539 160.809 99.2326 161.978 99.257 163.458V169.511C99.2733 170.767 99.4524 171.729 99.7959 172.393V172.608H95.8589V172.613ZM93.3905 169.844C93.8806 169.844 94.2876 169.732 94.6149 169.503C94.9373 169.274 95.1685 169.015 95.3085 168.726V166.529H94.1639C92.7913 166.529 92.1058 167.199 92.1058 168.536C92.1058 168.925 92.2247 169.238 92.4689 169.48C92.7082 169.721 93.0192 169.842 93.3905 169.842V169.844Z" fill="#4B4669"/>
<path d="M59.0038 182.274H21.1035V189.624H59.0038V182.274Z" fill="#4B4669"/>
<path d="M20.5124 170.787V152.383H26.6232C28.8131 152.383 30.4805 152.814 31.6202 153.681C32.7616 154.547 33.3315 155.808 33.3315 157.455C33.3315 158.405 33.128 159.22 32.7258 159.893C32.3187 160.566 31.7244 161.062 30.9396 161.381C31.8254 161.631 32.5076 162.107 32.9814 162.796C33.4552 163.489 33.6962 164.331 33.6962 165.328C33.6962 167.135 33.1703 168.49 32.1119 169.4C31.0552 170.306 29.4921 170.769 27.421 170.785H20.514L20.5124 170.787ZM24.6123 162.943V167.37H27.3005C28.043 167.37 28.608 167.185 29.0069 166.818C29.4058 166.452 29.6012 165.934 29.6012 165.265C29.6012 163.725 28.8994 162.952 27.4878 162.943H24.6123ZM24.6123 160.044H26.7534C27.6473 160.036 28.2856 159.859 28.6682 159.514C29.0509 159.169 29.243 158.66 29.243 157.987C29.243 157.21 29.0362 156.654 28.621 156.314C28.2107 155.974 27.5447 155.801 26.6232 155.801H24.6123V160.046V160.044Z" fill="white"/>
<path d="M43.2979 169.316C42.4642 170.468 41.3391 171.045 39.9242 171.045C38.5369 171.045 37.4884 170.61 36.7736 169.739C36.0588 168.867 35.7054 167.611 35.7054 165.976V157.119H39.6425V166.001C39.6425 167.171 40.1684 167.757 41.2219 167.757C42.1239 167.757 42.7655 167.408 43.1481 166.709V157.119H47.108V170.786H43.4151L43.2995 169.316H43.2979Z" fill="white"/>
<path d="M48.772 163.854C48.772 161.684 49.2035 159.979 50.0681 158.734C50.9343 157.487 52.1425 156.862 53.6893 156.862C54.8176 156.862 55.7718 157.341 56.5403 158.302V151.373H60.4888V170.786H56.9506L56.752 169.319C55.9427 170.471 54.9137 171.045 53.6649 171.045C52.162 171.045 50.9734 170.42 50.0909 169.173C49.21 167.926 48.7704 166.153 48.7704 163.854H48.772ZM52.7091 164.116C52.7091 166.545 53.3636 167.757 54.6711 167.757C55.5438 167.757 56.1674 167.361 56.5419 166.57V161.358C56.1821 160.552 55.5683 160.146 54.6955 160.146C53.4792 160.146 52.8214 161.209 52.7205 163.331L52.7091 164.116Z" fill="white"/>
<path d="M69.8462 170.786C69.7029 170.51 69.5792 170.105 69.4717 169.569C68.7455 170.552 67.7328 171.045 66.4335 171.045C65.24 171.045 64.2272 170.658 63.3952 169.876C62.5615 169.096 62.1463 168.111 62.1463 166.929C62.1463 165.444 62.6527 164.324 63.6655 163.563C64.6782 162.804 66.1501 162.424 68.0796 162.424H69.2959V161.698C69.2959 160.439 68.7928 159.808 67.7881 159.808C66.8552 159.808 66.3846 160.308 66.3846 161.305H62.4475C62.4475 159.986 62.9653 158.915 64.0074 158.091C65.0478 157.267 66.3716 156.856 67.9884 156.856C69.5987 156.856 70.872 157.284 71.8083 158.133C72.7412 158.982 73.2199 160.152 73.2444 161.631V167.685C73.2606 168.941 73.4397 169.902 73.7833 170.566V170.781H69.8462V170.786ZM67.3778 168.018C67.8679 168.018 68.275 167.905 68.6023 167.676C68.9247 167.447 69.1559 167.188 69.2959 166.899V164.703H68.1512C66.7786 164.703 66.0932 165.372 66.0932 166.709C66.0932 167.098 66.212 167.412 66.4563 167.653C66.6956 167.894 67.0066 168.016 67.3778 168.016V168.018Z" fill="white"/>
<path d="M80.3044 164.819L82.4064 157.119H86.6252L81.4718 173.067L81.2487 173.645C80.5193 175.413 79.2232 176.299 77.3687 176.299C76.8574 176.299 76.3152 176.217 75.7453 176.049V173.013H76.2598C76.8134 173.013 77.2368 172.926 77.5282 172.754C77.8197 172.581 78.0346 172.271 78.1779 171.826L78.4938 170.915L74.0992 157.119H78.3065L80.3044 164.819Z" fill="white"/>
<path d="M94.5937 170.786C94.4504 170.51 94.3267 170.105 94.2192 169.569C93.493 170.552 92.4803 171.045 91.181 171.045C89.9875 171.045 88.9747 170.658 88.1427 169.876C87.309 169.096 86.8938 168.111 86.8938 166.929C86.8938 165.444 87.4002 164.324 88.413 163.563C89.4257 162.804 90.8976 162.424 92.8271 162.424H94.0434V161.698C94.0434 160.439 93.5403 159.808 92.5356 159.808C91.6027 159.808 91.1321 160.308 91.1321 161.305H87.195C87.195 159.986 87.7128 158.915 88.7549 158.091C89.7953 157.267 91.1191 156.856 92.7359 156.856C94.3462 156.856 95.6195 157.284 96.5557 158.133C97.4887 158.982 97.9674 160.152 97.9919 161.631V167.685C98.0081 168.941 98.1872 169.902 98.5308 170.566V170.781H94.5937V170.786ZM92.1253 168.018C92.6154 168.018 93.0225 167.905 93.3498 167.676C93.6721 167.447 93.9034 167.188 94.0434 166.899V164.703H92.8987C91.5261 164.703 90.8406 165.372 90.8406 166.709C90.8406 167.098 90.9595 167.412 91.2038 167.653C91.4431 167.894 91.7541 168.016 92.1253 168.016V168.018Z" fill="white"/>
<path d="M57.7371 180.447H19.8367V187.797H57.7371V180.447Z" fill="white"/>
<path d="M266.349 5.47241H262.846C261.628 5.47241 260.608 6.4517 260.488 7.73745L255.307 62.4224H273.89L268.709 7.73745C268.587 6.4517 267.569 5.47241 266.351 5.47241H266.349Z" fill="#7F8487"/>
<path d="M270.601 57.9117L266.126 10.6577C266.003 9.37199 264.985 8.39623 263.765 8.39623H261.777L261.833 7.8009C261.883 7.25842 262.318 6.85156 262.842 6.85156H266.346C266.872 6.85156 267.305 7.25666 267.359 7.8009L272.151 58.2992L270.598 57.9135L270.601 57.9117Z" fill="#A4A4A5"/>
<path d="M211.255 156.046C211.255 156.046 219.059 149.561 223.555 128.651C228.05 107.741 223.017 79.5352 262.398 79.5352H266.231C305.609 79.5352 301.457 107.741 305.953 128.651C310.45 149.561 318.254 156.046 318.254 156.046H211.255Z" fill="#7F8487"/>
<path d="M361.787 216.108H167.115C165.257 216.108 163.751 217.738 163.751 219.749V229.755C163.751 230.991 164.678 231.995 165.821 231.995H363.081C364.226 231.995 365.152 230.993 365.152 229.755V219.749C365.152 217.739 363.646 216.108 361.788 216.108H361.787Z" fill="#7F8487"/>
<path d="M348.637 202.816H180.265C176.359 202.816 173.192 206.242 173.192 210.469V216.108H355.712V210.469C355.712 206.242 352.545 202.816 348.637 202.816Z" fill="#7F8487"/>
<path d="M337.218 185.717H191.685C187.779 185.717 184.612 189.141 184.612 193.368V202.818H344.291V193.368C344.291 189.141 341.124 185.717 337.218 185.717Z" fill="#7F8487"/>
<path d="M320.809 155.727H208.093C204.187 155.727 201.02 159.153 201.02 163.379V172.83H327.882V163.379C327.882 159.153 324.715 155.727 320.809 155.727Z" fill="#7F8487"/>
<path d="M329.551 172.83H199.351C197.101 172.83 195.77 174.882 197.039 176.396L204.841 185.715H324.061L331.861 176.396C333.13 174.882 331.8 172.83 329.551 172.83Z" fill="#7F8487"/>
<path d="M234.132 89.4548C234.132 89.4548 238.715 81.233 242.818 68.8176C245.928 59.4105 264.098 59.4158 264.098 59.4158H264.806C264.806 59.4158 282.974 59.4087 286.084 68.8176C290.187 81.2348 294.77 89.4548 294.77 89.4548H234.132Z" fill="#7F8487"/>
<path d="M283.319 72.5164C280.046 64.7896 264.765 64.7966 264.765 64.7966H264.142C264.142 64.7966 248.854 64.7896 245.585 72.5199C245.889 71.6604 246.194 70.7709 246.496 69.8586C247.726 66.1387 252.345 64.3122 256.004 63.4369C260.178 62.4365 264.101 62.4224 264.142 62.4224H264.764C264.804 62.4224 268.727 62.4365 272.901 63.4369C276.56 64.3122 281.179 66.1387 282.41 69.8586C282.712 70.7727 283.014 71.6586 283.319 72.5164Z" fill="#A4A4A5"/>
<path d="M218.442 217.574H195.601V220.216H218.442V230.53H221.119V217.574H218.442Z" fill="#4B4669"/>
<path d="M246.488 217.574H223.647V220.216H246.488V230.53H249.163V217.574H246.488Z" fill="#4B4669"/>
<path d="M274.535 217.574H251.694V220.216H274.535V230.53H277.208V217.574H274.535Z" fill="#4B4669"/>
<path d="M302.581 217.574H279.74V220.216H302.581V230.53H305.256V217.574H302.581Z" fill="#4B4669"/>
<path d="M330.626 217.574H307.785V220.216H330.626V230.53H333.301V217.574H330.626Z" fill="#4B4669"/>
<path d="M235.141 204.283H209.623V214.643H211.493V206.176H235.141V204.283Z" fill="#413F42"/>
<path d="M263.187 204.283H237.67V214.643H239.539V206.176H263.187V204.283Z" fill="#413F42"/>
<path d="M291.234 204.283H265.716V214.643H267.585V206.176H291.234V204.283Z" fill="#413F42"/>
<path d="M319.278 204.283H293.762V214.643H295.63V206.176H319.278V204.283Z" fill="#413F42"/>
<path d="M204.553 214.643H207.092V204.283H204.553V214.643Z" fill="#413F42"/>
<path d="M321.807 214.643H324.345V204.283H321.807V214.643Z" fill="#413F42"/>
<path d="M335.829 230.53H338.252V217.574H335.829V230.53Z" fill="#4B4669"/>
<path d="M190.65 230.53H193.072V217.574H190.65V230.53Z" fill="#4B4669"/>
<path d="M185.967 201.35H342.935V198.244H185.967V201.35Z" fill="#4B4669"/>
<path d="M290.46 83.8662C284.488 79.9755 276.464 78.068 266.205 78.068H262.373C252.218 78.068 244.302 79.9403 238.443 83.7588C238.753 83.0789 239.073 82.3497 239.409 81.5748C244.873 77.8408 252.466 76.009 262.373 76.009H266.205C276.212 76.009 283.91 77.876 289.493 81.6804C289.829 82.4554 290.154 83.1846 290.462 83.8644L290.46 83.8662Z" fill="#4B4669"/>
<path d="M211.434 157.193C208.251 158.23 205.94 161.339 205.94 165.008V171.363H202.375V163.91C202.375 160.206 205.257 157.193 208.798 157.193H211.434Z" fill="#A4A4A5"/>
<path d="M245.101 107.311L243.686 105.78C242.286 104.266 242.286 101.81 243.686 100.296L245.101 98.7651C246.501 97.2503 248.771 97.2503 250.171 98.7651L251.586 100.296C252.987 101.81 252.987 104.266 251.586 105.78L250.171 107.311C248.771 108.826 246.501 108.826 245.101 107.311Z" fill="#4B4669"/>
<path d="M251.383 104.114C251.331 103.633 251.134 103.168 250.792 102.798L248.064 99.8483C247.61 99.3569 246.998 99.142 246.405 99.2037L246.581 99.0134C246.853 98.7193 247.213 98.5573 247.597 98.5573C247.981 98.5573 248.343 98.7193 248.613 99.0134L251.34 101.964C251.886 102.554 251.901 103.503 251.383 104.114Z" fill="#A4A4A5"/>
<path d="M261.917 107.311L260.502 105.78C259.102 104.266 259.102 101.81 260.502 100.296L261.917 98.7651C263.318 97.2503 265.587 97.2503 266.988 98.7651L268.403 100.296C269.801 101.81 269.801 104.266 268.403 105.78L266.988 107.311C265.587 108.826 263.318 108.826 261.917 107.311Z" fill="#4B4669"/>
<path d="M268.199 104.114C268.147 103.633 267.95 103.168 267.608 102.798L264.881 99.8483C264.427 99.3569 263.814 99.142 263.222 99.2037L263.397 99.0134C263.669 98.7193 264.029 98.5573 264.413 98.5573C264.796 98.5573 265.158 98.7193 265.43 99.0134L268.157 101.964C268.702 102.554 268.715 103.503 268.199 104.114Z" fill="#A4A4A5"/>
<path d="M278.732 107.311L277.319 105.78C275.919 104.266 275.919 101.81 277.319 100.296L278.732 98.7651C280.132 97.2503 282.404 97.2503 283.802 98.7651L285.217 100.296C286.618 101.81 286.618 104.266 285.217 105.78L283.802 107.311C282.404 108.826 280.132 108.826 278.732 107.311Z" fill="#4B4669"/>
<path d="M285.014 104.114C284.962 103.633 284.765 103.168 284.424 102.798L281.696 99.8483C281.243 99.3569 280.629 99.142 280.036 99.2037L280.212 99.0134C280.484 98.7193 280.844 98.5573 281.23 98.5573C281.613 98.5573 281.974 98.7193 282.244 99.0134L284.972 101.964C285.517 102.554 285.533 103.503 285.014 104.114Z" fill="#A4A4A5"/>
<path d="M236.693 124.741L235.278 123.212C233.878 121.697 233.878 119.242 235.278 117.726L236.693 116.197C238.093 114.682 240.363 114.682 241.763 116.197L243.178 117.726C244.578 119.24 244.578 121.697 243.178 123.212L241.763 124.741C240.363 126.256 238.093 126.256 236.693 124.741Z" fill="#4B4669"/>
<path d="M242.975 121.546C242.922 121.065 242.725 120.6 242.385 120.232L239.658 117.28C239.204 116.79 238.591 116.574 237.999 116.635L238.175 116.445C238.446 116.151 238.806 115.989 239.191 115.989C239.575 115.989 239.936 116.151 240.207 116.445L242.932 119.395C243.478 119.985 243.492 120.935 242.975 121.544V121.546Z" fill="#A4A4A5"/>
<path d="M253.509 124.741L252.094 123.212C250.694 121.697 250.694 119.242 252.094 117.726L253.509 116.197C254.909 114.682 257.179 114.682 258.58 116.197L259.994 117.726C261.395 119.24 261.395 121.697 259.994 123.212L258.58 124.741C257.179 126.256 254.909 126.256 253.509 124.741Z" fill="#4B4669"/>
<path d="M259.791 121.546C259.739 121.065 259.542 120.6 259.2 120.232L256.473 117.28C256.018 116.79 255.406 116.574 254.813 116.635L254.989 116.445C255.261 116.151 255.621 115.989 256.005 115.989C256.39 115.989 256.749 116.151 257.021 116.445L259.747 119.395C260.292 119.985 260.307 120.935 259.789 121.544L259.791 121.546Z" fill="#A4A4A5"/>
<path d="M270.326 124.741L268.909 123.212C267.51 121.697 267.51 119.242 268.909 117.726L270.326 116.197C271.726 114.682 273.994 114.682 275.394 116.197L276.811 117.726C278.209 119.24 278.209 121.697 276.811 123.212L275.394 124.741C273.994 126.256 271.726 126.256 270.326 124.741Z" fill="#4B4669"/>
<path d="M276.606 121.546C276.554 121.065 276.357 120.6 276.016 120.232L273.289 117.28C272.835 116.79 272.222 116.574 271.63 116.635L271.806 116.445C272.076 116.151 272.437 115.989 272.822 115.989C273.204 115.989 273.566 116.151 273.839 116.445L276.565 119.395C277.11 119.985 277.125 120.935 276.607 121.544L276.606 121.546Z" fill="#A4A4A5"/>
<path d="M287.14 124.741L285.727 123.212C284.327 121.697 284.327 119.242 285.727 117.726L287.14 116.197C288.541 114.682 290.812 114.682 292.212 116.197L293.626 117.726C295.026 119.24 295.026 121.697 293.626 123.212L292.212 124.741C290.812 126.256 288.541 126.256 287.14 124.741Z" fill="#4B4669"/>
<path d="M293.422 121.546C293.368 121.065 293.173 120.6 292.831 120.232L290.104 117.28C289.649 116.79 289.036 116.574 288.443 116.635L288.619 116.445C288.891 116.151 289.251 115.989 289.635 115.989C290.019 115.989 290.381 116.151 290.651 116.445L293.378 119.395C293.924 119.985 293.938 120.935 293.422 121.544V121.546Z" fill="#A4A4A5"/>
<path d="M228.286 142.97L226.871 141.44C225.471 139.925 225.471 137.47 226.871 135.955L228.286 134.426C229.687 132.911 231.956 132.911 233.357 134.426L234.772 135.955C236.172 137.47 236.172 139.927 234.772 141.44L233.357 142.97C231.956 144.485 229.687 144.485 228.286 142.97Z" fill="#4B4669"/>
<path d="M234.566 139.773C234.514 139.293 234.317 138.826 233.975 138.46L231.248 135.509C230.794 135.02 230.182 134.803 229.589 134.865L229.765 134.675C230.037 134.382 230.396 134.22 230.781 134.22C231.165 134.22 231.526 134.382 231.797 134.675L234.524 137.625C235.069 138.215 235.084 139.164 234.566 139.773Z" fill="#A4A4A5"/>
<path d="M245.101 142.97L243.686 141.44C242.286 139.925 242.286 137.47 243.686 135.955L245.101 134.426C246.501 132.911 248.771 132.911 250.171 134.426L251.586 135.955C252.987 137.47 252.987 139.927 251.586 141.44L250.171 142.97C248.771 144.485 246.501 144.485 245.101 142.97Z" fill="#4B4669"/>
<path d="M251.383 139.773C251.331 139.293 251.134 138.826 250.792 138.46L248.064 135.509C247.61 135.02 246.998 134.803 246.405 134.865L246.581 134.675C246.853 134.382 247.213 134.22 247.597 134.22C247.981 134.22 248.343 134.382 248.613 134.675L251.34 137.625C251.886 138.215 251.901 139.164 251.383 139.773Z" fill="#A4A4A5"/>
<path d="M261.917 142.97L260.502 141.44C259.102 139.925 259.102 137.47 260.502 135.955L261.917 134.426C263.318 132.911 265.587 132.911 266.988 134.426L268.403 135.955C269.801 137.47 269.801 139.927 268.403 141.44L266.988 142.97C265.587 144.485 263.318 144.485 261.917 142.97Z" fill="#4B4669"/>
<path d="M268.199 139.773C268.147 139.293 267.95 138.826 267.608 138.46L264.881 135.509C264.427 135.02 263.814 134.803 263.222 134.865L263.397 134.675C263.669 134.382 264.029 134.22 264.413 134.22C264.796 134.22 265.158 134.382 265.43 134.675L268.157 137.625C268.702 138.215 268.715 139.164 268.199 139.773Z" fill="#A4A4A5"/>
<path d="M278.732 142.97L277.319 141.44C275.919 139.925 275.919 137.47 277.319 135.955L278.732 134.426C280.132 132.911 282.404 132.911 283.802 134.426L285.217 135.955C286.618 137.47 286.618 139.927 285.217 141.44L283.802 142.97C282.404 144.485 280.132 144.485 278.732 142.97Z" fill="#4B4669"/>
<path d="M285.014 139.773C284.962 139.293 284.765 138.826 284.424 138.46L281.696 135.509C281.243 135.02 280.629 134.803 280.036 134.865L280.212 134.675C280.484 134.382 280.844 134.22 281.23 134.22C281.613 134.22 281.974 134.382 282.244 134.675L284.972 137.625C285.517 138.215 285.533 139.164 285.014 139.773Z" fill="#A4A4A5"/>
<path d="M295.55 142.97L294.134 141.44C292.733 139.925 292.733 137.47 294.134 135.955L295.55 134.426C296.949 132.911 299.22 132.911 300.621 134.426L302.034 135.955C303.434 137.47 303.434 139.927 302.034 141.44L300.621 142.97C299.22 144.485 296.949 144.485 295.55 142.97Z" fill="#4B4669"/>
<path d="M301.83 139.773C301.778 139.293 301.58 138.826 301.239 138.46L298.514 135.509C298.059 135.02 297.445 134.803 296.853 134.865L297.029 134.675C297.301 134.382 297.66 134.22 298.046 134.22C298.431 134.22 298.792 134.382 299.062 134.675L301.79 137.625C302.335 138.215 302.35 139.164 301.834 139.773H301.83Z" fill="#A4A4A5"/>
<path fill-rule="evenodd" clip-rule="evenodd" d="M255.958 59.8491C257.778 59.4863 259.63 59.2415 261.475 59.0988C262.339 59.0319 263.23 58.9773 264.098 58.9773H264.806C265.387 58.9773 265.977 59.0072 266.556 59.0407C267.989 59.1252 269.424 59.275 270.845 59.4863C271.361 59.5638 271.876 59.6484 272.389 59.7435C272.674 59.7963 272.958 59.8527 273.242 59.9108L273.214 59.6114C273.081 59.5779 272.947 59.5444 272.812 59.5127C272.582 59.4581 272.353 59.4053 272.123 59.356C271.618 59.2468 271.112 59.1499 270.604 59.0636C269.244 58.8329 267.869 58.6744 266.494 58.5828C265.923 58.544 265.335 58.5106 264.762 58.5088H264.14C263.318 58.5088 262.463 58.5704 261.645 58.6391C259.784 58.7976 257.912 59.0742 256.09 59.511C256.056 59.5198 256.02 59.5268 255.986 59.5356L255.956 59.8491H255.958Z" fill="#4B4669"/>
<path fill-rule="evenodd" clip-rule="evenodd" d="M320.731 157.209H265.716V171.364H326.527V163.912C326.527 160.358 323.963 157.441 320.731 157.209Z" fill="#A4A4A5"/>
<path fill-rule="evenodd" clip-rule="evenodd" d="M329.551 174.295H199.351C198.519 174.295 198.045 174.711 197.931 174.989C197.9 175.066 197.851 175.183 198.043 175.413L199.235 176.837H329.667L330.858 175.413C331.049 175.183 331.002 175.066 330.969 174.989C330.857 174.709 330.385 174.295 329.551 174.295Z" fill="#4B4669"/>
<path fill-rule="evenodd" clip-rule="evenodd" d="M242.983 187.182H192.177H192.153C188.74 187.197 185.967 190.205 185.967 193.9V198.243H242.983V187.182Z" fill="#A4A4A5"/>
<path fill-rule="evenodd" clip-rule="evenodd" d="M334.734 187.182C337.614 187.994 339.706 190.422 339.706 193.287V198.243V198.251H342.935V198.243V193.9C342.935 190.196 340.151 187.182 336.727 187.182H334.735H334.734Z" fill="#A4A4A5"/>
<path fill-rule="evenodd" clip-rule="evenodd" d="M177.067 209.998C177.067 207.314 178.7 205.042 180.95 204.285H180.757C177.332 204.285 174.546 207.298 174.546 211.002V214.645H177.067V210V209.998Z" fill="#A4A4A5"/>
<path fill-rule="evenodd" clip-rule="evenodd" d="M204.553 204.283V214.643H207.092V204.283H204.553Z" fill="#4B4669"/>
<path fill-rule="evenodd" clip-rule="evenodd" d="M209.623 204.283V214.643H211.493V206.176H235.141V204.283H209.623Z" fill="#4B4669"/>
<path fill-rule="evenodd" clip-rule="evenodd" d="M237.67 204.283V214.643H239.539V206.176H263.187V204.283H237.67Z" fill="#4B4669"/>
<path fill-rule="evenodd" clip-rule="evenodd" d="M265.716 204.283V214.643H267.585V206.176H291.234V204.283H265.716Z" fill="#4B4669"/>
<path fill-rule="evenodd" clip-rule="evenodd" d="M295.63 206.176H319.278V204.283H293.762V214.643H295.63V206.176Z" fill="#4B4669"/>
<path fill-rule="evenodd" clip-rule="evenodd" d="M321.807 204.283V214.643H324.345V204.283H321.807Z" fill="#4B4669"/>
<path fill-rule="evenodd" clip-rule="evenodd" d="M346.447 204.283C349.226 205.042 351.244 207.312 351.244 209.997V214.641H354.357V210.999C354.357 207.295 351.568 204.281 348.145 204.281H346.445L346.447 204.283Z" fill="#A4A4A5"/>
<path fill-rule="evenodd" clip-rule="evenodd" d="M299.994 63.4368C301.765 68.7965 304.072 74.7444 306.702 79.8434C312.384 86.9097 315.338 95.3798 317.106 104.567C318.407 111.332 318.906 118.356 320.34 125.03C321.423 130.065 322.988 135.388 325.322 139.928C325.383 140.046 325.448 140.17 325.516 140.298C335.178 142.595 342.45 151.819 342.65 162.905C343.178 163.518 343.669 164.175 344.122 164.872C345.578 167.119 346.499 169.617 346.895 172.176C353.09 175.494 357.625 181.9 358.778 189.532C363.368 192.141 366.997 196.463 368.935 201.711C371.213 202.77 373.251 204.318 374.935 206.236V194.208C372.746 190.078 369.75 186.513 366.181 183.764C364.133 176.53 359.83 170.36 354.16 166.212C353.418 163.919 352.377 161.705 351.034 159.634C350.98 159.551 350.926 159.468 350.873 159.387C349.489 147.092 341.802 136.892 331.415 132.686C330.105 129.301 329.072 125.333 328.563 122.962C327.98 120.248 327.607 117.428 327.229 114.671C326.679 110.666 326.135 106.673 325.371 102.707C323.364 92.2729 319.943 82.7284 313.685 74.6282C311.448 70.1474 309.468 64.9727 307.944 60.3616C306.494 55.9707 304.348 52.2261 301.692 49.0593H288.007C293.368 52.1504 297.791 56.7615 299.995 63.4351L299.994 63.4368ZM140.954 214.646C140.679 216.302 140.536 218.007 140.536 219.749V229.755C140.536 230.509 140.564 231.256 140.619 231.995H149.102C149.019 231.261 148.977 230.514 148.977 229.755V219.749C148.977 217.984 149.193 216.274 149.597 214.646C149.752 214.025 149.934 213.415 150.141 212.82C151.885 207.83 155.454 203.809 159.967 201.711C161.905 196.463 165.534 192.141 170.123 189.532C171.275 181.9 175.808 175.496 182.004 172.176C182.399 169.615 183.321 167.116 184.78 164.869C185.231 164.171 185.723 163.516 186.25 162.903C186.457 151.557 194.067 142.162 204.068 140.147C204.107 140.071 204.146 139.997 204.182 139.927C206.517 135.388 208.08 130.063 209.163 125.03C210.568 118.492 210.973 111.494 212.139 104.84C213.756 95.6141 216.543 87.0735 222.156 79.9209C224.802 74.8025 227.122 68.8264 228.905 63.4351C231.111 56.7615 235.537 52.1504 240.897 49.0611H227.207C224.553 52.2244 222.408 55.9689 220.956 60.3616C219.416 65.0203 217.416 70.239 215.153 74.7479C208.944 82.9715 205.688 92.6199 203.845 103.14C203.159 107.057 202.681 110.996 202.179 114.943C201.842 117.604 201.502 120.345 200.94 122.962C200.445 125.267 199.455 129.084 198.193 132.408C187.449 136.429 179.439 146.812 178.026 159.386C177.972 159.467 177.92 159.546 177.866 159.627C176.523 161.7 175.481 163.917 174.737 166.212C169.069 170.36 164.766 176.53 162.717 183.764C158.915 186.693 155.765 190.547 153.549 195.022C147.528 198.897 143.04 205.271 141.311 212.82C141.173 213.421 141.054 214.03 140.951 214.646H140.954Z" fill="#725673"/>
<path fill-rule="evenodd" clip-rule="evenodd" d="M290.854 66.9718C292.932 73.2579 295.653 80.1605 298.776 86.008C308.654 97.5269 307.824 113.166 310.886 127.409C312.23 133.655 314.216 140.159 317.207 145.73C317.966 147.143 318.974 148.841 320.07 150.25H320.812C327.514 150.25 332.949 156.131 332.949 163.378V168.095C334.224 168.689 335.352 169.629 336.175 170.899C338.024 173.754 337.785 177.485 335.618 180.072L335.481 180.236H337.22C343.922 180.236 349.357 186.115 349.357 193.365V197.358C355.725 197.761 360.777 203.476 360.777 210.467V210.627H361.788C366.442 210.627 370.218 214.712 370.218 219.745V229.751C370.218 229.98 370.208 230.208 370.19 230.433C373.03 228.556 374.935 225.169 374.935 221.324V206.233C373.251 204.316 371.213 202.767 368.935 201.708C366.997 196.459 363.368 192.137 358.778 189.529C357.625 181.897 353.092 175.491 346.895 172.173C346.499 169.612 345.579 167.116 344.122 164.869C343.669 164.171 343.178 163.514 342.65 162.901C342.448 151.814 335.176 142.592 325.516 140.295C325.448 140.166 325.384 140.041 325.322 139.925C322.988 135.386 321.423 130.062 320.34 125.026C318.906 118.353 318.407 111.33 317.106 104.563C315.338 95.3764 312.384 86.9063 306.702 79.8399C304.074 74.7409 301.765 68.793 299.994 63.4334C297.789 56.7616 293.367 52.1505 288.005 49.0576H277.715L278.38 56.0835C283.721 57.8483 288.904 61.0662 290.854 66.9665V66.9718ZM149.6 214.646C149.197 216.274 148.98 217.984 148.98 219.749V229.755C148.98 230.514 149.022 231.261 149.105 231.995H158.992C158.793 231.286 158.686 230.533 158.686 229.755V219.749C158.686 217.859 159.218 216.103 160.128 214.646C160.553 213.967 161.061 213.352 161.636 212.82C163.11 211.455 165.025 210.629 167.115 210.629H168.126V210.469C168.126 203.48 173.179 197.763 179.547 197.359V193.366C179.547 186.115 184.982 180.238 191.685 180.238H193.423L193.286 180.074C191.119 177.485 190.879 173.754 192.731 170.899C193.553 169.631 194.681 168.689 195.956 168.097V163.38C195.956 156.131 201.393 150.252 208.095 150.252H209.441C210.535 148.842 211.545 147.145 212.302 145.732C215.293 140.161 217.278 133.657 218.621 127.411C221.658 113.285 220.446 97.615 230.115 86.0326C233.244 80.1763 235.967 73.272 238.049 66.9736C240.036 60.9623 245.37 57.7356 250.824 55.9919L251.48 49.0647H240.9C235.538 52.1558 231.113 56.7651 228.908 63.4387C227.125 68.8318 224.805 74.8061 222.159 79.9244C216.547 87.0771 213.759 95.6159 212.142 104.843C210.977 111.496 210.571 118.495 209.166 125.033C208.083 130.067 206.52 135.391 204.185 139.93C204.148 140.002 204.11 140.075 204.071 140.15C194.071 142.167 186.459 151.56 186.253 162.906C185.726 163.519 185.234 164.175 184.783 164.872C183.326 167.121 182.404 169.619 182.007 172.18C175.812 175.5 171.279 181.904 170.126 189.536C165.536 192.144 161.908 196.466 159.971 201.715C155.457 203.811 151.888 207.834 150.144 212.824C149.936 213.419 149.753 214.028 149.6 214.65V214.646Z" fill="#6F4F70"/>
<path fill-rule="evenodd" clip-rule="evenodd" d="M162.063 229.755V219.749C162.063 217.424 163.406 215.436 165.3 214.646C165.863 214.412 166.475 214.282 167.115 214.282H171.503V212.82V210.469C171.503 205.234 175.426 200.989 180.265 200.989H182.924V193.366C182.924 188.132 186.846 183.889 191.685 183.889H201.035L195.788 177.62C194.68 176.296 194.546 174.457 195.494 172.995C196.36 171.66 197.856 171.008 199.331 171.001V163.377C199.331 158.144 203.255 153.899 208.093 153.899H210.921C212.577 152.118 214.096 149.658 215.221 147.562C218.385 141.669 220.489 134.844 221.91 128.233C224.758 114.988 223.765 98.8161 232.852 88.2043C233.915 86.2334 234.895 84.1586 235.817 82.1137C237.855 77.5942 239.664 72.9338 241.227 68.1994C243.049 62.6883 248.914 60.1221 253.944 58.8786L254.874 49.0593L258.806 7.54894C259.018 5.31561 260.776 3.64414 262.844 3.64414H266.348C268.416 3.64414 270.174 5.31561 270.386 7.54894L274.318 49.0593L275.256 58.9543C280.191 60.2189 285.882 62.7834 287.671 68.1994C289.239 72.9444 291.053 77.6171 293.096 82.1454C294.015 84.1797 294.99 86.244 296.047 88.2025C305.377 98.8038 304.716 114.855 307.593 128.233C309.014 134.842 311.118 141.669 314.281 147.562C315.406 149.658 316.926 152.118 318.582 153.899H320.806C325.643 153.899 329.567 158.144 329.567 163.377V171.001C331.042 171.007 332.539 171.658 333.405 172.995C334.353 174.459 334.219 176.296 333.11 177.62L327.864 183.889H337.215C342.054 183.889 345.977 188.132 345.977 193.366V200.989H348.634C353.473 200.989 357.397 205.234 357.397 210.469V214.282H361.783C364.574 214.282 366.836 216.73 366.836 219.749V229.755C366.836 230.549 366.626 231.291 366.261 231.918C367.682 231.729 369.013 231.212 370.185 230.437C370.203 230.213 370.213 229.986 370.213 229.755V219.749C370.213 214.715 366.437 210.631 361.783 210.631H360.772V210.47C360.772 203.48 355.72 197.764 349.352 197.361V193.368C349.352 186.119 343.917 180.239 337.215 180.239H335.476L335.613 180.076C337.78 177.486 338.019 173.758 336.17 170.903C335.347 169.633 334.219 168.692 332.944 168.099V163.382C332.944 156.132 327.508 150.253 320.807 150.253H320.065C318.971 148.844 317.961 147.148 317.202 145.734C314.211 140.163 312.225 133.658 310.882 127.413C307.819 113.169 308.649 97.5304 298.771 86.0115C295.648 80.1639 292.927 73.2614 290.849 66.9753C288.899 61.0732 283.716 57.857 278.376 56.0922L277.71 49.0664L273.742 7.18435C273.354 3.09109 270.145 0 266.345 0H262.841C259.042 0 255.831 3.09109 255.444 7.18435L251.476 49.0664L250.819 55.9936C245.365 57.739 240.031 60.9657 238.044 66.9753C235.963 73.2737 233.239 80.178 230.11 86.0344C220.441 97.6167 221.653 113.287 218.616 127.413C217.273 133.658 215.288 140.163 212.297 145.734C211.538 147.146 210.53 148.844 209.436 150.253H208.09C201.388 150.253 195.951 156.132 195.951 163.382V168.099C194.676 168.692 193.548 169.633 192.726 170.901C190.874 173.756 191.114 177.486 193.281 180.076L193.418 180.239H191.68C184.979 180.239 179.542 186.119 179.542 193.368V197.361C173.174 197.763 168.121 203.482 168.121 210.47V210.631H167.11C165.02 210.631 163.105 211.455 161.631 212.822C161.057 213.354 160.55 213.968 160.124 214.648C159.213 216.105 158.681 217.861 158.681 219.751V229.757C158.681 230.535 158.788 231.287 158.987 231.997H162.68C162.288 231.354 162.058 230.584 162.058 229.757L162.063 229.755Z" fill="white"/>
<path fill-rule="evenodd" clip-rule="evenodd" d="M272.623 49.0611L273.703 60.4549C278.788 61.5822 284.468 63.9282 286.084 68.8158C289.858 80.2361 294.038 88.1074 294.684 89.298C303.721 99.3833 303.117 115.467 305.951 128.651C309.888 146.954 316.357 154.206 317.911 155.729H320.809C324.715 155.729 327.882 159.155 327.882 163.38V172.831H329.553C331.801 172.831 333.131 174.883 331.863 176.398L324.062 185.717H337.22C341.126 185.717 344.293 189.141 344.293 193.368V202.818H348.639C352.546 202.818 355.713 206.243 355.713 210.47V216.11H361.788C363.646 216.11 365.154 217.739 365.154 219.751V229.757C365.154 230.993 364.227 231.997 363.083 231.997H365.072C365.476 231.997 365.875 231.971 366.266 231.92C366.631 231.293 366.841 230.553 366.841 229.757V219.751C366.841 216.734 364.577 214.284 361.788 214.284H357.402V210.47C357.402 205.236 353.478 200.991 348.639 200.991H345.981V193.368C345.981 188.134 342.059 183.891 337.22 183.891H327.869L333.115 177.622C334.224 176.298 334.358 174.461 333.41 172.997C332.544 171.662 331.047 171.008 329.572 171.003V163.378C329.572 158.146 325.648 153.901 320.811 153.901H318.586C316.931 152.12 315.411 149.66 314.286 147.564C311.123 141.67 309.019 134.845 307.597 128.235C304.72 114.856 305.381 98.8038 296.052 88.2043C294.995 86.2457 294.02 84.1815 293.101 82.1471C291.058 77.6188 289.244 72.9461 287.676 68.2012C285.887 62.7851 280.196 60.2207 275.261 58.9561L274.323 49.0611L270.391 7.55068C270.179 5.31735 268.421 3.64587 266.353 3.64587H262.849C260.781 3.64587 259.022 5.31735 258.811 7.55068L254.879 49.0611L253.949 58.8803C248.919 60.1238 243.054 62.6883 241.232 68.2012C239.668 72.9355 237.859 77.5959 235.822 82.1154C234.899 84.1621 233.92 86.2369 232.857 88.206C223.77 98.8179 224.763 114.99 221.915 128.235C220.494 134.844 218.39 141.67 215.226 147.564C214.101 149.66 212.582 152.12 210.926 153.901H208.098C203.26 153.901 199.336 158.146 199.336 163.378V171.003C197.861 171.008 196.365 171.66 195.499 172.997C194.549 174.461 194.684 176.298 195.793 177.622L201.039 183.891H191.69C186.851 183.891 182.929 188.134 182.929 193.368V200.991H180.27C175.431 200.991 171.508 205.236 171.508 210.47V212.822V214.284H167.12C166.48 214.284 165.868 214.412 165.305 214.648C163.411 215.437 162.068 217.426 162.068 219.751V229.757C162.068 230.584 162.297 231.354 162.69 231.997H165.827C164.684 231.997 163.758 230.993 163.758 229.757V219.751C163.758 217.741 165.264 216.11 167.122 216.11H173.198V214.648V212.822V210.47C173.198 206.243 176.365 202.818 180.271 202.818H184.619V193.368C184.619 189.141 187.786 185.717 191.692 185.717H204.848L197.045 176.398C195.777 174.883 197.107 172.831 199.357 172.831H201.026V163.38C201.026 159.155 204.193 155.729 208.099 155.729H211.602C213.155 154.206 219.624 146.954 223.56 128.651C226.394 115.462 225.44 99.3709 234.229 89.2857C234.895 88.0581 239.062 80.2009 242.825 68.8158C244.473 63.8314 250.346 61.4906 255.505 60.3898L256.578 49.0611L260.493 7.73738C260.615 6.45163 261.634 5.47235 262.852 5.47235H266.356C267.574 5.47235 268.593 6.45163 268.714 7.73738L272.628 49.0611H272.623Z" fill="#725673"/>
</svg>
