<svg width="380" height="238" viewBox="0 0 380 238" fill="none" xmlns="http://www.w3.org/2000/svg">
<g clip-path="url(#clip0_214_14241)">
<path fill-rule="evenodd" clip-rule="evenodd" d="M14.9284 43.5887H365.073C373.293 43.5887 380.001 50.8436 380.001 59.7364V221.334C380.001 230.225 373.294 237.482 365.073 237.482H14.9284C6.70905 237.482 0.000732422 230.225 0.000732422 221.334V59.7364C0.000732422 50.8453 6.70742 43.5887 14.9284 43.5887Z" fill="white"/>
<path d="M353.366 49.0663H26.6354C14.723 49.0663 5.06616 50.1569 5.06616 51.5022V229.565C5.06616 230.91 14.723 232.001 26.6354 232.001H353.366C365.279 232.001 374.935 230.91 374.935 229.565V51.5022C374.935 50.1569 365.279 49.0663 353.366 49.0663Z" fill="#F35C6F"/>
<path fill-rule="evenodd" clip-rule="evenodd" d="M21.1042 125.671V71.1813C21.1042 68.5587 23.0857 66.4152 25.5102 66.4152H160.632C161.098 66.4152 161.477 66.8255 161.477 67.3293C161.477 67.833 161.098 68.2416 160.632 68.2416H25.5102C24.0171 68.2416 22.7926 69.5661 22.7926 71.1813V125.671C22.7926 126.174 22.4133 126.583 21.9492 126.583C21.4835 126.583 21.1058 126.173 21.1058 125.671H21.1042ZM176.114 66.4152H185.329C185.795 66.4152 186.174 66.8255 186.174 67.3293C186.174 67.833 185.795 68.2416 185.329 68.2416H176.114C175.648 68.2416 175.27 67.8312 175.27 67.3293C175.27 66.8255 175.649 66.4152 176.114 66.4152ZM116.976 214.652H25.5085C23.0841 214.652 21.1025 212.51 21.1025 209.886V200.297C21.1025 199.793 21.4819 199.385 21.946 199.385C22.4116 199.385 22.7894 199.795 22.7894 200.297V209.886C22.7894 211.501 24.0138 212.825 25.5069 212.825H116.974C117.44 212.825 117.818 213.236 117.818 213.738C117.818 214.241 117.439 214.65 116.974 214.65L116.976 214.652Z" fill="white"/>
<path d="M21.78 172.618V154.214H27.8908C30.0808 154.214 31.7481 154.646 32.8878 155.512C34.0292 156.379 34.5991 157.64 34.5991 159.287C34.5991 160.236 34.3956 161.052 33.9934 161.725C33.5863 162.397 32.992 162.894 32.2072 163.213C33.093 163.463 33.7752 163.939 34.249 164.627C34.7228 165.321 34.9638 166.163 34.9638 167.16C34.9638 168.967 34.4379 170.321 33.3796 171.232C32.3228 172.137 30.7597 172.601 28.6886 172.616H21.7817L21.78 172.618ZM25.8799 164.775V169.201H28.5681C29.3106 169.201 29.8756 169.016 30.2745 168.65C30.6734 168.284 30.8688 167.766 30.8688 167.097C30.8688 165.557 30.1671 164.784 28.7554 164.775H25.8799ZM25.8799 161.876H28.021C28.9149 161.867 29.5532 161.691 29.9358 161.346C30.3185 161.001 30.5106 160.492 30.5106 159.819C30.5106 159.042 30.3038 158.486 29.8886 158.146C29.4783 157.806 28.8124 157.633 27.8908 157.633H25.8799V161.878V161.876Z" fill="#F0485E"/>
<path d="M44.5636 171.146C43.73 172.298 42.6049 172.875 41.1899 172.875C39.8027 172.875 38.7541 172.44 38.0393 171.568C37.3245 170.697 36.9712 169.441 36.9712 167.806V158.949H40.9083V167.831C40.9083 169 41.4342 169.587 42.4876 169.587C43.3897 169.587 44.0312 169.238 44.4138 168.539V158.949H48.3737V172.616H44.6809L44.5653 171.146H44.5636Z" fill="#F0485E"/>
<path d="M50.0395 165.684C50.0395 163.514 50.471 161.809 51.3355 160.564C52.2018 159.317 53.4099 158.692 54.9567 158.692C56.0851 158.692 57.0392 159.171 57.8078 160.132V153.203H61.7562V172.616H58.2181L58.0194 171.149C57.2102 172.301 56.1812 172.875 54.9323 172.875C53.4294 172.875 52.2408 172.25 51.3583 171.003C50.4775 169.756 50.0378 167.982 50.0378 165.684H50.0395ZM53.9765 165.946C53.9765 168.375 54.6311 169.587 55.9386 169.587C56.8113 169.587 57.4349 169.191 57.8094 168.4V163.188C57.4496 162.382 56.8357 161.976 55.963 161.976C54.7467 161.976 54.0889 163.038 53.9879 165.161L53.9765 165.946Z" fill="#F0485E"/>
<path d="M71.1137 172.618C70.9704 172.342 70.8467 171.937 70.7392 171.401C70.013 172.384 69.0003 172.877 67.701 172.877C66.5075 172.877 65.4947 172.49 64.6627 171.708C63.829 170.927 63.4138 169.943 63.4138 168.761C63.4138 167.276 63.9202 166.156 64.933 165.395C65.9457 164.636 67.4176 164.256 69.3471 164.256H70.5634V163.53C70.5634 162.271 70.0603 161.64 69.0556 161.64C68.1227 161.64 67.6521 162.14 67.6521 163.137H63.715C63.715 161.818 64.2328 160.747 65.2749 159.923C66.3153 159.098 67.6391 158.688 69.2559 158.688C70.8662 158.688 72.1395 159.116 73.0757 159.965C74.0087 160.814 74.4874 161.984 74.5119 163.463V169.517C74.5281 170.772 74.7072 171.734 75.0508 172.398V172.613H71.1137V172.618ZM68.6453 169.849C69.1354 169.849 69.5425 169.737 69.8698 169.508C70.1921 169.279 70.4234 169.02 70.5634 168.731V166.535H69.4187C68.0461 166.535 67.3607 167.204 67.3607 168.541C67.3607 168.93 67.4795 169.244 67.7237 169.485C67.9631 169.726 68.2741 169.848 68.6453 169.848V169.849Z" fill="#F0485E"/>
<path d="M81.5702 166.651L83.6722 158.951H87.891L82.7376 174.899L82.5146 175.477C81.7851 177.245 80.489 178.131 78.6345 178.131C78.1232 178.131 77.581 178.048 77.0111 177.881V174.845H77.5257C78.0793 174.845 78.5026 174.758 78.7941 174.586C79.0855 174.413 79.3004 174.103 79.4437 173.657L79.7596 172.747L75.365 158.951H79.5723L81.5702 166.651Z" fill="#F0485E"/>
<path d="M95.8596 172.618C95.7163 172.342 95.5925 171.937 95.4851 171.401C94.7589 172.384 93.7461 172.877 92.4468 172.877C91.2533 172.877 90.2405 172.49 89.4085 171.708C88.5749 170.927 88.1597 169.943 88.1597 168.761C88.1597 167.276 88.6661 166.156 89.6788 165.395C90.6916 164.636 92.1635 164.256 94.0929 164.256H95.3092V163.53C95.3092 162.271 94.8061 161.64 93.8015 161.64C92.8685 161.64 92.398 162.14 92.398 163.137H88.4609C88.4609 161.818 88.9787 160.747 90.0207 159.923C91.0612 159.098 92.3849 158.688 94.0018 158.688C95.6121 158.688 96.8854 159.116 97.8216 159.965C98.7546 160.814 99.2333 161.984 99.2577 163.463V169.517C99.274 170.772 99.4531 171.734 99.7966 172.398V172.613H95.8596V172.618ZM93.3912 169.849C93.8813 169.849 94.2883 169.737 94.6156 169.508C94.938 169.279 95.1692 169.02 95.3092 168.731V166.535H94.1646C92.792 166.535 92.1065 167.204 92.1065 168.541C92.1065 168.93 92.2254 169.244 92.4696 169.485C92.7089 169.726 93.0199 169.848 93.3912 169.848V169.849Z" fill="#F0485E"/>
<path d="M59.0046 182.279H21.1042V189.629H59.0046V182.279Z" fill="#F0485E"/>
<path d="M20.5132 170.792V152.388H26.6239C28.8139 152.388 30.4812 152.819 31.621 153.686C32.7624 154.553 33.3323 155.814 33.3323 157.46C33.3323 158.41 33.1287 159.225 32.7266 159.898C32.3195 160.571 31.7252 161.068 30.9404 161.386C31.8261 161.637 32.5084 162.112 32.9822 162.801C33.456 163.495 33.697 164.337 33.697 165.334C33.697 167.141 33.1711 168.495 32.1127 169.406C31.056 170.311 29.4929 170.774 27.4218 170.79H20.5148L20.5132 170.792ZM24.6131 162.949V167.375H27.3013C28.0438 167.375 28.6088 167.19 29.0077 166.824C29.4066 166.457 29.602 165.939 29.602 165.27C29.602 163.731 28.9002 162.958 27.4885 162.949H24.6131ZM24.6131 160.05H26.7542C27.6481 160.041 28.2864 159.865 28.669 159.519C29.0516 159.174 29.2438 158.665 29.2438 157.992C29.2438 157.216 29.037 156.659 28.6218 156.319C28.2115 155.979 27.5455 155.807 26.6239 155.807H24.6131V160.051V160.05Z" fill="white"/>
<path d="M43.2987 169.321C42.4651 170.473 41.34 171.051 39.925 171.051C38.5378 171.051 37.4892 170.616 36.7744 169.744C36.0596 168.872 35.7063 167.616 35.7063 165.982V157.124H39.6434V166.006C39.6434 167.176 40.1693 167.762 41.2228 167.762C42.1248 167.762 42.7663 167.414 43.1489 166.714V157.124H47.1088V170.792H43.416L43.3004 169.321H43.2987Z" fill="white"/>
<path d="M48.7726 163.859C48.7726 161.689 49.2041 159.984 50.0687 158.739C50.9349 157.492 52.1431 156.867 53.6899 156.867C54.8182 156.867 55.7724 157.346 56.5409 158.308V151.379H60.4894V170.792H56.9512L56.7526 169.325C55.9434 170.476 54.9143 171.051 53.6655 171.051C52.1626 171.051 50.974 170.425 50.0915 169.178C49.2106 167.931 48.771 166.158 48.771 163.859H48.7726ZM52.7097 164.122C52.7097 166.551 53.3642 167.762 54.6717 167.762C55.5444 167.762 56.1681 167.366 56.5426 166.575V161.363C56.1827 160.557 55.5689 160.152 54.6961 160.152C53.4798 160.152 52.822 161.214 52.7211 163.336L52.7097 164.122Z" fill="white"/>
<path d="M69.8469 170.792C69.7036 170.515 69.5799 170.11 69.4724 169.575C68.7462 170.557 67.7334 171.051 66.4341 171.051C65.2406 171.051 64.2279 170.663 63.3958 169.881C62.5622 169.101 62.147 168.116 62.147 166.934C62.147 165.45 62.6534 164.329 63.6661 163.569C64.6789 162.809 66.1508 162.429 68.0803 162.429H69.2965V161.703C69.2965 160.444 68.7934 159.814 67.7888 159.814C66.8558 159.814 66.3853 160.314 66.3853 161.311H62.4482C62.4482 159.991 62.966 158.921 64.008 158.096C65.0485 157.272 66.3722 156.862 67.9891 156.862C69.5994 156.862 70.8727 157.29 71.8089 158.139C72.7419 158.987 73.2206 160.157 73.245 161.636V167.69C73.2613 168.946 73.4404 169.908 73.7839 170.572V170.786H69.8469V170.792ZM67.3785 168.023C67.8686 168.023 68.2756 167.91 68.6029 167.681C68.9253 167.452 69.1565 167.193 69.2965 166.905V164.708H68.1519C66.7793 164.708 66.0938 165.377 66.0938 166.714C66.0938 167.104 66.2127 167.417 66.4569 167.658C66.6963 167.9 67.0072 168.021 67.3785 168.021V168.023Z" fill="white"/>
<path d="M80.305 164.824L82.4071 157.124H86.6258L81.4725 173.073L81.2494 173.65C80.52 175.419 79.2239 176.305 77.3693 176.305C76.8581 176.305 76.3159 176.222 75.746 176.055V173.018H76.2605C76.8141 173.018 77.2375 172.932 77.5289 172.759C77.8204 172.586 78.0353 172.277 78.1786 171.831L78.4945 170.92L74.0999 157.124H78.3072L80.305 164.824Z" fill="white"/>
<path d="M94.5944 170.792C94.4512 170.515 94.3274 170.11 94.2199 169.575C93.4938 170.557 92.481 171.051 91.1817 171.051C89.9882 171.051 88.9754 170.663 88.1434 169.881C87.3097 169.101 86.8945 168.116 86.8945 166.934C86.8945 165.45 87.4009 164.329 88.4137 163.569C89.4264 162.809 90.8984 162.429 92.8278 162.429H94.0441V161.703C94.0441 160.444 93.541 159.814 92.5364 159.814C91.6034 159.814 91.1328 160.314 91.1328 161.311H87.1958C87.1958 159.991 87.7135 158.921 88.7556 158.096C89.796 157.272 91.1198 156.862 92.7366 156.862C94.347 156.862 95.6202 157.29 96.5565 158.139C97.4894 158.987 97.9681 160.157 97.9926 161.636V167.69C98.0089 168.946 98.188 169.908 98.5315 170.572V170.786H94.5944V170.792ZM92.126 168.023C92.6161 168.023 93.0232 167.91 93.3505 167.681C93.6729 167.452 93.9041 167.193 94.0441 166.905V164.708H92.8995C91.5269 164.708 90.8414 165.377 90.8414 166.714C90.8414 167.104 90.9602 167.417 91.2045 167.658C91.4438 167.9 91.7548 168.021 92.126 168.021V168.023Z" fill="white"/>
<path d="M57.7378 180.453H19.8374V187.802H57.7378V180.453Z" fill="white"/>
<path d="M266.35 5.47766H262.846C261.628 5.47766 260.609 6.45695 260.488 7.7427L255.307 62.4276H273.89L268.709 7.7427C268.587 6.45695 267.57 5.47766 266.352 5.47766H266.35Z" fill="#7F8487"/>
<path d="M270.601 57.917L266.127 10.663C266.003 9.37724 264.986 8.40147 263.766 8.40147H261.778L261.833 7.80615C261.884 7.26367 262.319 6.85681 262.843 6.85681H266.347C266.873 6.85681 267.306 7.26191 267.36 7.80615L272.152 58.3045L270.598 57.9187L270.601 57.917Z" fill="#A4A4A5"/>
<path d="M211.256 156.051C211.256 156.051 219.06 149.566 223.555 128.656C228.051 107.746 223.018 79.5404 262.398 79.5404H266.231C305.61 79.5404 301.458 107.746 305.954 128.656C310.451 149.566 318.255 156.051 318.255 156.051H211.256Z" fill="#7F8487"/>
<path d="M361.787 216.114H167.116C165.258 216.114 163.752 217.743 163.752 219.754V229.76C163.752 230.997 164.678 232.001 165.821 232.001H363.082C364.226 232.001 365.153 230.998 365.153 229.76V219.754C365.153 217.745 363.647 216.114 361.789 216.114H361.787Z" fill="#7F8487"/>
<path d="M348.638 202.821H180.265C176.359 202.821 173.192 206.247 173.192 210.474V216.114H355.712V210.474C355.712 206.247 352.545 202.821 348.638 202.821Z" fill="#7F8487"/>
<path d="M337.219 185.722H191.686C187.78 185.722 184.613 189.146 184.613 193.374V202.823H344.292V193.374C344.292 189.146 341.125 185.722 337.219 185.722Z" fill="#7F8487"/>
<path d="M320.81 155.733H208.094C204.187 155.733 201.021 159.158 201.021 163.384V172.835H327.883V163.384C327.883 159.158 324.716 155.733 320.81 155.733Z" fill="#7F8487"/>
<path d="M329.552 172.835H199.352C197.101 172.835 195.771 174.887 197.04 176.402L204.842 185.721H324.061L331.862 176.402C333.13 174.887 331.8 172.835 329.552 172.835Z" fill="#7F8487"/>
<path d="M234.132 89.4602C234.132 89.4602 238.716 81.2384 242.819 68.823C245.929 59.4159 264.098 59.4211 264.098 59.4211H264.807C264.807 59.4211 282.974 59.4141 286.084 68.823C290.187 81.2402 294.771 89.4602 294.771 89.4602H234.132Z" fill="#7F8487"/>
<path d="M283.319 72.5216C280.047 64.7948 264.766 64.8019 264.766 64.8019H264.142C264.142 64.8019 248.855 64.7948 245.585 72.5252C245.89 71.6656 246.194 70.7762 246.497 69.8638C247.726 66.144 252.346 64.3175 256.004 63.4421C260.179 62.4417 264.101 62.4276 264.142 62.4276H264.764C264.805 62.4276 268.727 62.4417 272.902 63.4421C276.561 64.3175 281.18 66.144 282.411 69.8638C282.712 70.7779 283.015 71.6639 283.319 72.5216Z" fill="#A4A4A5"/>
<path d="M218.443 217.579H195.602V220.221H218.443V230.535H221.119V217.579H218.443Z" fill="#B80E3C"/>
<path d="M246.489 217.579H223.648V220.221H246.489V230.535H249.164V217.579H246.489Z" fill="#B80E3C"/>
<path d="M274.535 217.579H251.694V220.221H274.535V230.535H277.209V217.579H274.535Z" fill="#B80E3C"/>
<path d="M302.582 217.579H279.741V220.221H302.582V230.535H305.257V217.579H302.582Z" fill="#B80E3C"/>
<path d="M330.626 217.579H307.785V220.221H330.626V230.535H333.301V217.579H330.626Z" fill="#B80E3C"/>
<path d="M235.142 204.288H209.624V214.648H211.493V206.182H235.142V204.288Z" fill="#413F42"/>
<path d="M263.188 204.288H237.67V214.648H239.54V206.182H263.188V204.288Z" fill="#413F42"/>
<path d="M291.234 204.288H265.717V214.648H267.586V206.182H291.234V204.288Z" fill="#413F42"/>
<path d="M319.279 204.288H293.763V214.648H295.631V206.182H319.279V204.288Z" fill="#413F42"/>
<path d="M204.554 214.648H207.092V204.288H204.554V214.648Z" fill="#413F42"/>
<path d="M321.808 214.648H324.346V204.288H321.808V214.648Z" fill="#413F42"/>
<path d="M335.83 230.535H338.253V217.579H335.83V230.535Z" fill="#B80E3C"/>
<path d="M190.65 230.535H193.073V217.579H190.65V230.535Z" fill="#B80E3C"/>
<path d="M185.968 201.356H342.936V198.249H185.968V201.356Z" fill="#B80E3C"/>
<path d="M290.461 83.8715C284.489 79.9807 276.465 78.0732 266.205 78.0732H262.374C252.219 78.0732 244.302 79.9455 238.444 83.764C238.753 83.0842 239.074 82.355 239.409 81.58C244.874 77.846 252.466 76.0143 262.374 76.0143H266.205C276.212 76.0143 283.911 77.8813 289.494 81.6857C289.829 82.4607 290.155 83.1898 290.463 83.8697L290.461 83.8715Z" fill="#B80E3C"/>
<path d="M211.435 157.198C208.252 158.235 205.941 161.344 205.941 165.013V171.368H202.375V163.916C202.375 160.212 205.257 157.198 208.799 157.198H211.435Z" fill="#A4A4A5"/>
<path d="M245.102 107.316L243.687 105.786C242.286 104.271 242.286 101.816 243.687 100.301L245.102 98.7703C246.502 97.2556 248.772 97.2556 250.172 98.7703L251.587 100.301C252.987 101.816 252.987 104.271 251.587 105.786L250.172 107.316C248.772 108.831 246.502 108.831 245.102 107.316Z" fill="#B80E3C"/>
<path d="M251.384 104.119C251.331 103.639 251.134 103.174 250.792 102.804L248.065 99.8535C247.611 99.3621 246.999 99.1473 246.406 99.2089L246.582 99.0187C246.854 98.7245 247.214 98.5625 247.598 98.5625C247.982 98.5625 248.344 98.7245 248.614 99.0187L251.341 101.969C251.887 102.559 251.901 103.508 251.384 104.119Z" fill="#A4A4A5"/>
<path d="M261.918 107.316L260.503 105.786C259.103 104.271 259.103 101.816 260.503 100.301L261.918 98.7703C263.318 97.2556 265.588 97.2556 266.988 98.7703L268.403 100.301C269.802 101.816 269.802 104.271 268.403 105.786L266.988 107.316C265.588 108.831 263.318 108.831 261.918 107.316Z" fill="#B80E3C"/>
<path d="M268.2 104.119C268.148 103.639 267.951 103.174 267.609 102.804L264.882 99.8535C264.427 99.3621 263.815 99.1473 263.222 99.2089L263.398 99.0187C263.67 98.7245 264.03 98.5625 264.414 98.5625C264.797 98.5625 265.158 98.7245 265.43 99.0187L268.158 101.969C268.703 102.559 268.716 103.508 268.2 104.119Z" fill="#A4A4A5"/>
<path d="M278.733 107.316L277.319 105.786C275.919 104.271 275.919 101.816 277.319 100.301L278.733 98.7703C280.133 97.2556 282.404 97.2556 283.803 98.7703L285.218 100.301C286.618 101.816 286.618 104.271 285.218 105.786L283.803 107.316C282.404 108.831 280.133 108.831 278.733 107.316Z" fill="#B80E3C"/>
<path d="M285.015 104.119C284.963 103.639 284.765 103.174 284.425 102.804L281.696 99.8535C281.244 99.3621 280.63 99.1473 280.037 99.2089L280.213 99.0187C280.485 98.7245 280.845 98.5625 281.231 98.5625C281.613 98.5625 281.975 98.7245 282.245 99.0187L284.972 101.969C285.518 102.559 285.534 103.508 285.015 104.119Z" fill="#A4A4A5"/>
<path d="M236.693 124.746L235.278 123.217C233.878 121.703 233.878 119.247 235.278 117.731L236.693 116.202C238.094 114.687 240.363 114.687 241.764 116.202L243.179 117.731C244.579 119.245 244.579 121.703 243.179 123.217L241.764 124.746C240.363 126.261 238.094 126.261 236.693 124.746Z" fill="#B80E3C"/>
<path d="M242.975 121.551C242.923 121.07 242.726 120.605 242.386 120.237L239.658 117.285C239.204 116.796 238.592 116.579 237.999 116.641L238.175 116.45C238.447 116.156 238.807 115.994 239.191 115.994C239.575 115.994 239.937 116.156 240.207 116.45L242.933 119.4C243.478 119.991 243.493 120.94 242.975 121.549V121.551Z" fill="#A4A4A5"/>
<path d="M253.51 124.746L252.095 123.217C250.695 121.703 250.695 119.247 252.095 117.731L253.51 116.202C254.91 114.687 257.18 114.687 258.58 116.202L259.995 117.731C261.395 119.245 261.395 121.703 259.995 123.217L258.58 124.746C257.18 126.261 254.91 126.261 253.51 124.746Z" fill="#B80E3C"/>
<path d="M259.792 121.551C259.74 121.07 259.543 120.605 259.201 120.237L256.473 117.285C256.019 116.796 255.407 116.579 254.814 116.641L254.99 116.45C255.262 116.156 255.622 115.994 256.006 115.994C256.39 115.994 256.75 116.156 257.022 116.45L259.748 119.4C260.293 119.991 260.308 120.94 259.79 121.549L259.792 121.551Z" fill="#A4A4A5"/>
<path d="M270.326 124.746L268.91 123.217C267.511 121.703 267.511 119.247 268.91 117.731L270.326 116.202C271.727 114.687 273.995 114.687 275.395 116.202L276.812 117.731C278.21 119.245 278.21 121.703 276.812 123.217L275.395 124.746C273.995 126.261 271.727 126.261 270.326 124.746Z" fill="#B80E3C"/>
<path d="M276.606 121.551C276.554 121.07 276.357 120.605 276.017 120.237L273.29 117.285C272.835 116.796 272.223 116.579 271.63 116.641L271.806 116.45C272.076 116.156 272.438 115.994 272.822 115.994C273.205 115.994 273.566 116.156 273.84 116.45L276.566 119.4C277.111 119.991 277.126 120.94 276.608 121.549L276.606 121.551Z" fill="#A4A4A5"/>
<path d="M287.141 124.746L285.728 123.217C284.327 121.703 284.327 119.247 285.728 117.731L287.141 116.202C288.541 114.687 290.813 114.687 292.213 116.202L293.626 117.731C295.027 119.245 295.027 121.703 293.626 123.217L292.213 124.746C290.813 126.261 288.541 126.261 287.141 124.746Z" fill="#B80E3C"/>
<path d="M293.423 121.551C293.369 121.07 293.174 120.605 292.832 120.237L290.104 117.285C289.65 116.796 289.036 116.579 288.444 116.641L288.619 116.45C288.891 116.156 289.251 115.994 289.635 115.994C290.02 115.994 290.381 116.156 290.651 116.45L293.379 119.4C293.924 119.991 293.939 120.94 293.423 121.549V121.551Z" fill="#A4A4A5"/>
<path d="M228.287 142.976L226.872 141.445C225.472 139.93 225.472 137.475 226.872 135.96L228.287 134.431C229.687 132.917 231.957 132.917 233.357 134.431L234.772 135.96C236.172 137.475 236.172 139.932 234.772 141.445L233.357 142.976C231.957 144.49 229.687 144.49 228.287 142.976Z" fill="#B80E3C"/>
<path d="M234.567 139.779C234.515 139.298 234.318 138.831 233.976 138.465L231.249 135.515C230.794 135.025 230.182 134.808 229.59 134.87L229.765 134.68C230.037 134.387 230.397 134.225 230.781 134.225C231.166 134.225 231.527 134.387 231.797 134.68L234.525 137.63C235.07 138.22 235.085 139.169 234.567 139.779Z" fill="#A4A4A5"/>
<path d="M245.102 142.976L243.687 141.445C242.286 139.93 242.286 137.475 243.687 135.96L245.102 134.431C246.502 132.917 248.772 132.917 250.172 134.431L251.587 135.96C252.987 137.475 252.987 139.932 251.587 141.445L250.172 142.976C248.772 144.49 246.502 144.49 245.102 142.976Z" fill="#B80E3C"/>
<path d="M251.384 139.779C251.331 139.298 251.134 138.831 250.792 138.465L248.065 135.515C247.611 135.025 246.999 134.808 246.406 134.87L246.582 134.68C246.854 134.387 247.214 134.225 247.598 134.225C247.982 134.225 248.344 134.387 248.614 134.68L251.341 137.63C251.887 138.22 251.901 139.169 251.384 139.779Z" fill="#A4A4A5"/>
<path d="M261.918 142.976L260.503 141.445C259.103 139.93 259.103 137.475 260.503 135.96L261.918 134.431C263.318 132.917 265.588 132.917 266.988 134.431L268.403 135.96C269.802 137.475 269.802 139.932 268.403 141.445L266.988 142.976C265.588 144.49 263.318 144.49 261.918 142.976Z" fill="#B80E3C"/>
<path d="M268.2 139.779C268.148 139.298 267.951 138.831 267.609 138.465L264.882 135.515C264.427 135.025 263.815 134.808 263.222 134.87L263.398 134.68C263.67 134.387 264.03 134.225 264.414 134.225C264.797 134.225 265.158 134.387 265.43 134.68L268.158 137.63C268.703 138.22 268.716 139.169 268.2 139.779Z" fill="#A4A4A5"/>
<path d="M278.733 142.976L277.319 141.445C275.919 139.93 275.919 137.475 277.319 135.96L278.733 134.431C280.133 132.917 282.404 132.917 283.803 134.431L285.218 135.96C286.618 137.475 286.618 139.932 285.218 141.445L283.803 142.976C282.404 144.49 280.133 144.49 278.733 142.976Z" fill="#B80E3C"/>
<path d="M285.015 139.779C284.963 139.298 284.765 138.831 284.425 138.465L281.696 135.515C281.244 135.025 280.63 134.808 280.037 134.87L280.213 134.68C280.485 134.387 280.845 134.225 281.231 134.225C281.613 134.225 281.975 134.387 282.245 134.68L284.972 137.63C285.518 138.22 285.534 139.169 285.015 139.779Z" fill="#A4A4A5"/>
<path d="M295.551 142.976L294.134 141.445C292.734 139.93 292.734 137.475 294.134 135.96L295.551 134.431C296.949 132.917 299.221 132.917 300.621 134.431L302.034 135.96C303.435 137.475 303.435 139.932 302.034 141.445L300.621 142.976C299.221 144.49 296.949 144.49 295.551 142.976Z" fill="#B80E3C"/>
<path d="M301.831 139.779C301.779 139.298 301.58 138.831 301.24 138.465L298.514 135.515C298.06 135.025 297.446 134.808 296.854 134.87L297.029 134.68C297.301 134.387 297.661 134.225 298.047 134.225C298.431 134.225 298.793 134.387 299.063 134.68L301.79 137.63C302.336 138.22 302.35 139.169 301.834 139.779H301.831Z" fill="#A4A4A5"/>
<path fill-rule="evenodd" clip-rule="evenodd" d="M255.959 59.8544C257.779 59.4916 259.63 59.2467 261.475 59.1041C262.34 59.0371 263.23 58.9825 264.098 58.9825H264.806C265.388 58.9825 265.977 59.0125 266.557 59.0459C267.99 59.1305 269.424 59.2802 270.846 59.4916C271.362 59.5691 271.876 59.6536 272.389 59.7487C272.674 59.8016 272.959 59.8579 273.242 59.916L273.215 59.6166C273.081 59.5832 272.948 59.5497 272.812 59.518C272.583 59.4634 272.353 59.4105 272.124 59.3612C271.619 59.252 271.113 59.1552 270.605 59.0688C269.245 58.8381 267.869 58.6796 266.495 58.588C265.923 58.5493 265.336 58.5158 264.763 58.514H264.141C263.318 58.514 262.463 58.5757 261.646 58.6444C259.785 58.8029 257.913 59.0794 256.091 59.5162C256.056 59.525 256.021 59.5321 255.986 59.5409L255.957 59.8544H255.959Z" fill="#B80E3C"/>
<path fill-rule="evenodd" clip-rule="evenodd" d="M320.732 157.214H265.717V171.369H326.528V163.917C326.528 160.363 323.964 157.446 320.732 157.214Z" fill="#A4A4A5"/>
<path fill-rule="evenodd" clip-rule="evenodd" d="M329.552 174.3H199.352C198.52 174.3 198.046 174.716 197.932 174.994C197.901 175.072 197.852 175.188 198.044 175.419L199.236 176.842H329.667L330.859 175.419C331.05 175.188 331.002 175.072 330.97 174.994C330.857 174.714 330.385 174.3 329.552 174.3Z" fill="#B80E3C"/>
<path fill-rule="evenodd" clip-rule="evenodd" d="M242.983 187.188H192.178H192.153C188.74 187.202 185.968 190.21 185.968 193.905V198.249H242.983V187.188Z" fill="#A4A4A5"/>
<path fill-rule="evenodd" clip-rule="evenodd" d="M334.734 187.188C337.615 188 339.707 190.427 339.707 193.292V198.249V198.256H342.936V198.249V193.905C342.936 190.201 340.152 187.188 336.727 187.188H334.736H334.734Z" fill="#A4A4A5"/>
<path fill-rule="evenodd" clip-rule="evenodd" d="M177.068 210.004C177.068 207.319 178.701 205.047 180.951 204.29H180.757C177.333 204.29 174.547 207.304 174.547 211.008V214.65H177.068V210.005V210.004Z" fill="#A4A4A5"/>
<path fill-rule="evenodd" clip-rule="evenodd" d="M204.554 204.288V214.648H207.092V204.288H204.554Z" fill="#B80E3C"/>
<path fill-rule="evenodd" clip-rule="evenodd" d="M209.624 204.288V214.648H211.493V206.182H235.142V204.288H209.624Z" fill="#B80E3C"/>
<path fill-rule="evenodd" clip-rule="evenodd" d="M237.67 204.288V214.648H239.54V206.182H263.188V204.288H237.67Z" fill="#B80E3C"/>
<path fill-rule="evenodd" clip-rule="evenodd" d="M265.717 204.288V214.648H267.586V206.182H291.234V204.288H265.717Z" fill="#B80E3C"/>
<path fill-rule="evenodd" clip-rule="evenodd" d="M295.631 206.182H319.279V204.288H293.763V214.648H295.631V206.182Z" fill="#B80E3C"/>
<path fill-rule="evenodd" clip-rule="evenodd" d="M321.808 204.288V214.648H324.346V204.288H321.808Z" fill="#B80E3C"/>
<path fill-rule="evenodd" clip-rule="evenodd" d="M346.448 204.288C349.227 205.047 351.244 207.318 351.244 210.002V214.646H354.358V211.004C354.358 207.3 351.568 204.286 348.146 204.286H346.446L346.448 204.288Z" fill="#A4A4A5"/>
<path fill-rule="evenodd" clip-rule="evenodd" d="M299.994 63.4421C301.766 68.8017 304.073 74.7497 306.703 79.8486C312.385 86.915 315.339 95.3851 317.107 104.572C318.408 111.337 318.906 118.361 320.341 125.035C321.423 130.07 322.988 135.393 325.323 139.934C325.383 140.052 325.448 140.175 325.517 140.304C335.179 142.6 342.45 151.824 342.651 162.91C343.178 163.523 343.67 164.18 344.123 164.877C345.578 167.125 346.5 169.622 346.896 172.181C353.091 175.5 357.626 181.906 358.778 189.537C363.368 192.146 366.998 196.468 368.935 201.717C371.213 202.775 373.252 204.323 374.935 206.242V194.214C372.747 190.083 369.751 186.518 366.182 183.769C364.134 176.535 359.83 170.366 354.161 166.218C353.418 163.924 352.378 161.71 351.035 159.639C350.981 159.556 350.927 159.474 350.873 159.393C349.489 147.097 341.802 136.897 331.416 132.691C330.105 129.306 329.073 125.338 328.563 122.967C327.98 120.253 327.607 117.433 327.23 114.677C326.679 110.671 326.136 106.679 325.372 102.712C323.364 92.2781 319.943 82.7336 313.686 74.6334C311.449 70.1527 309.469 64.9779 307.945 60.3669C306.494 55.9759 304.348 52.2314 301.693 49.0646H288.007C293.369 52.1557 297.791 56.7668 299.996 63.4403L299.994 63.4421ZM140.955 214.652C140.68 216.307 140.537 218.012 140.537 219.754V229.76C140.537 230.514 140.564 231.261 140.62 232.001H149.103C149.02 231.266 148.977 230.519 148.977 229.76V219.754C148.977 217.989 149.194 216.279 149.598 214.652C149.752 214.03 149.935 213.421 150.142 212.825C151.885 207.835 155.454 203.814 159.968 201.717C161.906 196.468 165.535 192.146 170.123 189.537C171.276 181.906 175.809 175.501 182.004 172.181C182.4 169.62 183.322 167.121 184.781 164.874C185.232 164.176 185.723 163.521 186.251 162.908C186.458 151.562 194.068 142.167 204.069 140.152C204.108 140.076 204.147 140.002 204.183 139.932C206.517 135.393 208.081 130.069 209.163 125.035C210.569 118.497 210.974 111.499 212.14 104.845C213.757 95.6193 216.544 87.0788 222.157 79.9261C224.803 74.8078 227.123 68.8317 228.906 63.4403C231.112 56.7668 235.537 52.1557 240.898 49.0663H227.207C224.553 52.2296 222.409 55.9742 220.957 60.3669C219.416 65.0255 217.417 70.2442 215.154 74.7532C208.945 82.9767 205.689 92.6251 203.846 103.145C203.16 107.063 202.681 111.001 202.18 114.948C201.843 117.609 201.503 120.35 200.941 122.967C200.446 125.273 199.456 129.089 198.194 132.413C187.449 136.434 179.44 146.817 178.027 159.391C177.973 159.472 177.921 159.551 177.867 159.632C176.524 161.705 175.482 163.923 174.738 166.218C169.07 170.366 164.766 176.535 162.718 183.769C158.916 186.698 155.765 190.552 153.549 195.027C147.528 198.902 143.041 205.276 141.312 212.825C141.173 213.426 141.054 214.035 140.952 214.652H140.955Z" fill="#F54F65"/>
<path fill-rule="evenodd" clip-rule="evenodd" d="M290.855 66.9771C292.933 73.2632 295.654 80.1657 298.776 86.0132C308.655 97.5322 307.825 113.171 310.887 127.414C312.231 133.66 314.217 140.164 317.208 145.735C317.967 147.148 318.975 148.846 320.07 150.255H320.813C327.515 150.255 332.95 156.136 332.95 163.384V168.101C334.225 168.694 335.353 169.635 336.175 170.905C338.025 173.76 337.786 177.49 335.618 180.077L335.482 180.241H337.221C343.922 180.241 349.358 186.12 349.358 193.37V197.363C355.726 197.766 360.778 203.482 360.778 210.472V210.632H361.789C366.443 210.632 370.218 214.717 370.218 219.751V229.757C370.218 229.986 370.209 230.213 370.191 230.438C373.03 228.561 374.935 225.174 374.935 221.329V206.238C373.252 204.322 371.213 202.772 368.935 201.713C366.998 196.465 363.368 192.142 358.778 189.534C357.626 181.902 353.093 175.496 346.896 172.178C346.5 169.617 345.58 167.121 344.123 164.874C343.67 164.176 343.178 163.519 342.651 162.906C342.449 151.819 335.177 142.597 325.517 140.3C325.449 140.172 325.385 140.046 325.323 139.93C322.988 135.391 321.424 130.067 320.341 125.031C318.906 118.358 318.408 111.335 317.107 104.569C315.339 95.3816 312.385 86.9115 306.703 79.8452C304.075 74.7462 301.766 68.7983 299.994 63.4386C297.79 56.7668 293.367 52.1557 288.006 49.0629H277.715L278.381 56.0887C283.722 57.8535 288.904 61.0714 290.855 66.9718V66.9771ZM149.601 214.652C149.197 216.279 148.981 217.989 148.981 219.754V229.76C148.981 230.519 149.023 231.266 149.106 232.001H158.993C158.794 231.291 158.687 230.539 158.687 229.76V219.754C158.687 217.864 159.219 216.108 160.129 214.652C160.554 213.972 161.062 213.357 161.637 212.825C163.111 211.46 165.025 210.634 167.116 210.634H168.127V210.474C168.127 203.485 173.179 197.768 179.548 197.365V193.372C179.548 186.12 184.983 180.243 191.686 180.243H193.423L193.287 180.079C191.119 177.49 190.88 173.76 192.731 170.905C193.554 169.636 194.682 168.694 195.957 168.102V163.386C195.957 156.136 201.394 150.257 208.095 150.257H209.442C210.536 148.848 211.546 147.15 212.303 145.737C215.294 140.166 217.279 133.662 218.622 127.416C221.658 113.291 220.447 97.6202 230.116 86.0379C233.245 80.1816 235.967 73.2773 238.05 66.9788C240.036 60.9675 245.37 57.7408 250.825 55.9971L251.481 49.0699H240.901C235.539 52.161 231.114 56.7703 228.909 63.4439C227.126 68.837 224.806 74.8114 222.16 79.9297C216.547 87.0823 213.76 95.6211 212.143 104.849C210.977 111.501 210.572 118.5 209.167 125.038C208.084 130.072 206.521 135.397 204.186 139.936C204.148 140.008 204.111 140.08 204.072 140.156C194.071 142.172 186.459 151.565 186.254 162.912C185.727 163.525 185.235 164.18 184.784 164.877C183.327 167.127 182.405 169.624 182.008 172.185C175.812 175.505 171.279 181.909 170.127 189.541C165.537 192.149 161.909 196.472 159.971 201.72C155.458 203.816 151.889 207.839 150.145 212.829C149.936 213.424 149.754 214.034 149.601 214.655V214.652Z" fill="#F0485E"/>
<path fill-rule="evenodd" clip-rule="evenodd" d="M162.063 229.76V219.754C162.063 217.429 163.407 215.441 165.3 214.652C165.864 214.417 166.476 214.287 167.116 214.287H171.504V212.825V210.474C171.504 205.239 175.426 200.995 180.265 200.995H182.924V193.372C182.924 188.137 186.847 183.894 191.686 183.894H201.035L195.789 177.626C194.68 176.301 194.547 174.462 195.494 173C196.361 171.665 197.857 171.014 199.332 171.007V163.382C199.332 158.149 203.256 153.904 208.094 153.904H210.922C212.578 152.124 214.097 149.663 215.222 147.567C218.386 141.674 220.489 134.849 221.911 128.239C224.759 114.994 223.765 98.8214 232.853 88.2095C233.916 86.2386 234.896 84.1638 235.818 82.1189C237.856 77.5994 239.665 72.939 241.228 68.2047C243.05 62.6935 248.915 60.1273 253.945 58.8838L254.874 49.0646L258.807 7.55419C259.018 5.32086 260.777 3.64938 262.845 3.64938H266.349C268.416 3.64938 270.175 5.32086 270.387 7.55419L274.319 49.0646L275.257 58.9596C280.192 60.2242 285.882 62.7887 287.672 68.2047C289.24 72.9496 291.054 77.6224 293.097 82.1507C294.015 84.185 294.991 86.2492 296.047 88.2078C305.377 98.8091 304.716 114.86 307.593 128.239C309.015 134.847 311.118 141.674 314.282 147.567C315.407 149.663 316.926 152.124 318.582 153.904H320.806C325.644 153.904 329.568 158.149 329.568 163.382V171.007C331.043 171.012 332.539 171.664 333.406 173C334.353 174.464 334.22 176.301 333.111 177.626L327.865 183.894H337.216C342.055 183.894 345.977 188.137 345.977 193.372V200.995H348.634C353.474 200.995 357.398 205.239 357.398 210.474V214.287H361.784C364.575 214.287 366.836 216.735 366.836 219.754V229.76C366.836 230.555 366.626 231.296 366.262 231.923C367.683 231.735 369.013 231.217 370.186 230.442C370.204 230.218 370.213 229.991 370.213 229.76V219.754C370.213 214.72 366.438 210.636 361.784 210.636H360.773V210.476C360.773 203.485 355.721 197.77 349.353 197.366V193.373C349.353 186.124 343.918 180.245 337.216 180.245H335.477L335.614 180.081C337.781 177.492 338.02 173.763 336.17 170.908C335.348 169.638 334.22 168.698 332.945 168.104V163.387C332.945 156.138 327.508 150.258 320.808 150.258H320.066C318.971 148.849 317.962 147.153 317.203 145.739C314.212 140.168 312.226 133.663 310.882 127.418C307.82 113.174 308.65 97.5356 298.771 86.0167C295.649 80.1692 292.928 73.2666 290.85 66.9806C288.9 61.0784 283.717 57.8623 278.376 56.0975L277.71 49.0716L273.742 7.1896C273.355 3.09634 270.146 0.00524902 266.345 0.00524902H262.841C259.043 0.00524902 255.832 3.09634 255.444 7.1896L251.476 49.0716L250.82 55.9988C245.365 57.7443 240.031 60.971 238.045 66.9806C235.964 73.279 233.24 80.1833 230.111 86.0396C220.442 97.6219 221.654 113.292 218.617 127.418C217.274 133.663 215.289 140.168 212.298 145.739C211.539 147.152 210.531 148.849 209.437 150.258H208.09C201.389 150.258 195.952 156.138 195.952 163.387V168.104C194.677 168.698 193.549 169.638 192.726 170.906C190.875 173.761 191.114 177.492 193.282 180.081L193.418 180.245H191.681C184.979 180.245 179.543 186.124 179.543 193.373V197.366C173.175 197.768 168.122 203.487 168.122 210.476V210.636H167.111C165.02 210.636 163.106 211.46 161.632 212.827C161.057 213.359 160.551 213.974 160.124 214.653C159.214 216.11 158.682 217.866 158.682 219.756V229.762C158.682 230.54 158.789 231.292 158.988 232.002H162.681C162.288 231.359 162.059 230.59 162.059 229.762L162.063 229.76Z" fill="white"/>
<path fill-rule="evenodd" clip-rule="evenodd" d="M272.624 49.0663L273.703 60.4602C278.788 61.5874 284.469 63.9335 286.084 68.8211C289.859 80.2414 294.038 88.1126 294.685 89.3033C303.721 99.3885 303.117 115.473 305.952 128.656C309.889 146.96 316.358 154.211 317.911 155.734H320.81C324.716 155.734 327.883 159.16 327.883 163.385V172.837H329.553C331.802 172.837 333.132 174.889 331.864 176.403L324.063 185.722H337.221C341.127 185.722 344.294 189.146 344.294 193.373V202.823H348.639C352.547 202.823 355.714 206.249 355.714 210.476V216.115H361.789C363.647 216.115 365.155 217.745 365.155 219.756V229.762C365.155 230.998 364.228 232.002 363.083 232.002H365.073C365.477 232.002 365.876 231.976 366.267 231.925C366.631 231.298 366.841 230.558 366.841 229.762V219.756C366.841 216.739 364.578 214.289 361.789 214.289H357.403V210.476C357.403 205.241 353.479 200.996 348.639 200.996H345.982V193.373C345.982 188.139 342.06 183.896 337.221 183.896H327.87L333.116 177.627C334.225 176.303 334.358 174.466 333.411 173.002C332.544 171.667 331.048 171.014 329.573 171.008V163.384C329.573 158.151 325.649 153.906 320.811 153.906H318.587C316.931 152.125 315.412 149.665 314.287 147.569C311.123 141.676 309.02 134.851 307.598 128.24C304.721 114.862 305.382 98.809 296.052 88.2095C294.996 86.251 294.02 84.1867 293.102 82.1524C291.059 77.6241 289.245 72.9514 287.677 68.2064C285.887 62.7904 280.197 60.2259 275.261 58.9613L274.324 49.0663L270.391 7.55593C270.18 5.3226 268.421 3.65112 266.353 3.65112H262.849C260.782 3.65112 259.023 5.3226 258.811 7.55593L254.879 49.0663L253.95 58.8856C248.92 60.1291 243.055 62.6935 241.233 68.2064C239.668 72.9408 237.859 77.6012 235.822 82.1207C234.899 84.1673 233.921 86.2421 232.857 88.2113C223.77 98.8231 224.763 114.995 221.916 128.24C220.494 134.849 218.391 141.676 215.227 147.569C214.102 149.665 212.583 152.125 210.927 153.906H208.099C203.261 153.906 199.337 158.151 199.337 163.384V171.008C197.862 171.014 196.365 171.665 195.499 173.002C194.55 174.466 194.685 176.303 195.794 177.627L201.04 183.896H191.691C186.852 183.896 182.929 188.139 182.929 193.373V200.996H180.27C175.431 200.996 171.509 205.241 171.509 210.476V212.827V214.289H167.121C166.481 214.289 165.869 214.417 165.305 214.653C163.412 215.443 162.068 217.431 162.068 219.756V229.762C162.068 230.59 162.298 231.359 162.69 232.002H165.828C164.685 232.002 163.758 230.998 163.758 229.762V219.756C163.758 217.746 165.265 216.115 167.122 216.115H173.199V214.653V212.827V210.476C173.199 206.249 176.366 202.823 180.272 202.823H184.619V193.373C184.619 189.146 187.786 185.722 191.692 185.722H204.849L197.046 176.403C195.778 174.889 197.108 172.837 199.358 172.837H201.027V163.385C201.027 159.16 204.194 155.734 208.1 155.734H211.602C213.156 154.211 219.625 146.96 223.56 128.656C226.395 115.467 225.441 99.3762 234.23 89.291C234.896 88.0633 239.063 80.2062 242.825 68.8211C244.473 63.8366 250.346 61.4958 255.506 60.395L256.579 49.0663L260.493 7.74263C260.616 6.45688 261.635 5.47759 262.853 5.47759H266.357C267.575 5.47759 268.594 6.45688 268.714 7.74263L272.629 49.0663H272.624Z" fill="#B80E3C"/>
</g>
<defs>
<clipPath id="clip0_214_14241">
<rect width="380" height="237.48" fill="white"/>
</clipPath>
</defs>
</svg>
