<svg width="24" height="24" viewBox="0 0 24 24" fill="none" xmlns="http://www.w3.org/2000/svg">
<path d="M21.75 12C21.7469 14.383 20.8726 16.6825 19.2917 18.4656C17.7109 20.2487 15.5326 21.3921 13.1671 21.6806C13.1145 21.6866 13.0611 21.6813 13.0107 21.6652C12.9602 21.649 12.9137 21.6223 12.8743 21.5869C12.8348 21.5515 12.8034 21.5081 12.782 21.4596C12.7605 21.4111 12.7496 21.3586 12.75 21.3056V14.25H15C15.1028 14.2502 15.2045 14.2293 15.2989 14.1886C15.3933 14.1478 15.4783 14.0881 15.5487 14.0131C15.619 13.9381 15.6732 13.8494 15.7078 13.7526C15.7424 13.6558 15.7568 13.5529 15.75 13.4503C15.7334 13.2575 15.6444 13.078 15.5009 12.9481C15.3574 12.8182 15.1701 12.7474 14.9765 12.75H12.75V10.5C12.75 10.1022 12.908 9.72065 13.1893 9.43935C13.4706 9.15804 13.8521 9.00001 14.25 9.00001H15.75C15.8528 9.00023 15.9545 8.97932 16.0489 8.93856C16.1433 8.8978 16.2283 8.83807 16.2987 8.76307C16.369 8.68808 16.4232 8.59942 16.4578 8.50261C16.4924 8.4058 16.5068 8.30291 16.5 8.20032C16.4834 8.00713 16.3941 7.82742 16.2502 7.69745C16.1063 7.56748 15.9185 7.49692 15.7246 7.50001H14.25C13.4543 7.50001 12.6912 7.81608 12.1286 8.37869C11.566 8.9413 11.25 9.70436 11.25 10.5V12.75H8.99996C8.89714 12.7498 8.79538 12.7707 8.70099 12.8115C8.60659 12.8522 8.52159 12.9119 8.45126 12.9869C8.38092 13.0619 8.32676 13.1506 8.29213 13.2474C8.2575 13.3442 8.24315 13.4471 8.24996 13.5497C8.26655 13.7429 8.35579 13.9226 8.49968 14.0526C8.64357 14.1825 8.8314 14.2531 9.02527 14.25H11.25V21.3075C11.2503 21.3604 11.2394 21.4128 11.218 21.4612C11.1967 21.5096 11.1653 21.553 11.126 21.5884C11.0866 21.6238 11.0403 21.6505 10.9899 21.6667C10.9395 21.683 10.8863 21.6883 10.8337 21.6825C8.40498 21.3867 6.1758 20.1899 4.5874 18.3289C2.99901 16.468 2.16716 14.0785 2.25652 11.6334C2.44402 6.57094 6.54464 2.45532 11.6109 2.25844C12.9225 2.20764 14.231 2.4219 15.4579 2.88841C16.6848 3.35492 17.8051 4.0641 18.7516 4.97353C19.6981 5.88296 20.4515 6.97396 20.9667 8.18126C21.4819 9.38857 21.7483 10.6874 21.75 12Z" fill="#D0D5DD"/>
</svg>
