<svg width="72" height="72" viewBox="0 0 72 72" fill="none" xmlns="http://www.w3.org/2000/svg">
<rect width="72" height="72" rx="36" fill="url(#paint0_linear_83_113)"/>
<path d="M51.3953 24.8141L36.3953 19.8141C36.1387 19.7285 35.8613 19.7285 35.6047 19.8141L20.6047 24.8141C20.3558 24.897 20.1393 25.0562 19.9859 25.2691C19.8325 25.4819 19.75 25.7376 19.75 26V38.5C19.75 38.8315 19.8817 39.1495 20.1161 39.3839C20.3505 39.6183 20.6685 39.75 21 39.75C21.3315 39.75 21.6495 39.6183 21.8839 39.3839C22.1183 39.1495 22.25 38.8315 22.25 38.5V27.7344L27.4984 29.4828C26.104 31.7356 25.6606 34.4497 26.2655 37.0292C26.8705 39.6087 28.4744 41.8427 30.725 43.2406C27.9125 44.3437 25.4812 46.3391 23.7031 49.0672C23.6106 49.2046 23.5464 49.3591 23.5142 49.5216C23.4819 49.6841 23.4823 49.8513 23.5152 50.0137C23.5482 50.176 23.6131 50.3302 23.7061 50.4672C23.7992 50.6043 23.9186 50.7215 24.0573 50.812C24.1961 50.9025 24.3515 50.9645 24.5144 50.9944C24.6773 51.0243 24.8446 51.0216 25.0064 50.9863C25.1683 50.951 25.3215 50.8839 25.4572 50.7889C25.5929 50.6939 25.7084 50.5728 25.7969 50.4328C28.1516 46.8203 31.8703 44.75 36 44.75C40.1297 44.75 43.8484 46.8203 46.2031 50.4328C46.3865 50.7053 46.6697 50.8947 46.9915 50.96C47.3134 51.0254 47.648 50.9614 47.9231 50.782C48.1982 50.6026 48.3916 50.3221 48.4616 50.0012C48.5315 49.6803 48.4723 49.3448 48.2969 49.0672C46.5187 46.3391 44.0781 44.3437 41.275 43.2406C43.5235 41.8427 45.1258 39.6102 45.7307 37.0326C46.3356 34.455 45.8935 31.7428 44.5016 29.4906L51.3953 27.1937C51.6443 27.1108 51.8608 26.9517 52.0143 26.7388C52.1677 26.526 52.2503 26.2702 52.2503 26.0078C52.2503 25.7454 52.1677 25.4897 52.0143 25.2768C51.8608 25.064 51.6443 24.9048 51.3953 24.8219V24.8141ZM43.5 34.75C43.5003 35.9357 43.2195 37.1046 42.6806 38.1608C42.1418 39.217 41.3601 40.1303 40.3999 40.8259C39.4397 41.5215 38.3282 41.9795 37.1567 42.1624C35.9851 42.3453 34.7869 42.2478 33.6604 41.8779C32.5338 41.508 31.5111 40.8763 30.6759 40.0346C29.8408 39.1929 29.2171 38.1651 28.8561 37.0357C28.4951 35.9063 28.407 34.7074 28.599 33.5373C28.7911 32.3673 29.2578 31.2594 29.9609 30.3047L35.6047 32.1797C35.8613 32.2652 36.1387 32.2652 36.3953 32.1797L42.0391 30.3047C42.9887 31.5922 43.5008 33.1502 43.5 34.75Z" fill="white"/>
<defs>
<linearGradient id="paint0_linear_83_113" x1="0" y1="0" x2="55.4518" y2="102.418" gradientUnits="userSpaceOnUse">
<stop stop-color="#BB020F"/>
<stop offset="1" stop-color="#FD2635"/>
</linearGradient>
</defs>
</svg>
