<svg width="72" height="72" viewBox="0 0 72 72" fill="none" xmlns="http://www.w3.org/2000/svg">
<rect width="72" height="72" rx="36" fill="url(#paint0_linear_316_10682)"/>
<path d="M52.1953 46.3984L47.0094 21.7422C46.9423 21.4198 46.8122 21.1137 46.6265 20.8418C46.4408 20.5698 46.2032 20.3371 45.9273 20.1572C45.6515 19.9773 45.3428 19.8537 45.019 19.7935C44.6952 19.7333 44.3627 19.7376 44.0406 19.8062L36.7266 21.3781C36.0796 21.5198 35.5148 21.9111 35.1548 22.4671C34.7949 23.0231 34.6691 23.6986 34.8047 24.3469L39.9906 49.0031C40.1062 49.5657 40.4119 50.0713 40.8564 50.4349C41.3009 50.7986 41.857 50.9981 42.4313 51C42.6088 50.9998 42.7858 50.9809 42.9594 50.9437L50.2734 49.3719C50.9212 49.2299 51.4866 48.8377 51.8465 48.2808C52.2065 47.7239 52.3319 47.0473 52.1953 46.3984ZM37.25 23.8359C37.25 23.8266 37.25 23.8219 37.25 23.8219L44.5625 22.2594L45.0828 24.7391L37.7703 26.3125L37.25 23.8359ZM38.8125 31.2391L38.2891 28.7547L45.6047 27.1828L46.1266 29.6672L38.8125 31.2391ZM49.75 46.9281L42.4375 48.4906L41.9172 46.0109L49.2297 44.4375L49.75 46.9141C49.75 46.9234 49.75 46.9281 49.75 46.9281ZM32.25 21H24.75C24.087 21 23.4511 21.2634 22.9822 21.7322C22.5134 22.2011 22.25 22.837 22.25 23.5V48.5C22.25 49.163 22.5134 49.7989 22.9822 50.2678C23.4511 50.7366 24.087 51 24.75 51H32.25C32.913 51 33.5489 50.7366 34.0178 50.2678C34.4866 49.7989 34.75 49.163 34.75 48.5V23.5C34.75 22.837 34.4866 22.2011 34.0178 21.7322C33.5489 21.2634 32.913 21 32.25 21ZM24.75 23.5H32.25V26H24.75V23.5ZM32.25 48.5H24.75V46H32.25V48.5Z" fill="white"/>
<defs>
<linearGradient id="paint0_linear_316_10682" x1="0" y1="0" x2="55.4518" y2="102.418" gradientUnits="userSpaceOnUse">
<stop stop-color="#BB020F"/>
<stop offset="1" stop-color="#FD2635"/>
</linearGradient>
</defs>
</svg>
