<svg width="72" height="72" viewBox="0 0 72 72" fill="none" xmlns="http://www.w3.org/2000/svg">
<rect width="72" height="72" rx="36" fill="url(#paint0_linear_83_123)"/>
<path d="M46.9578 46.4453C47.1112 46.6276 47.2092 46.8499 47.2405 47.086C47.2717 47.3221 47.2349 47.5623 47.1342 47.7781C47.0336 47.994 46.8734 48.1767 46.6724 48.3045C46.4715 48.4324 46.2382 48.5002 46 48.5H19.75C19.512 48.4999 19.2789 48.4319 19.0782 48.3039C18.8775 48.1759 18.7175 47.9933 18.617 47.7774C18.5166 47.5616 18.4799 47.3216 18.5112 47.0856C18.5425 46.8496 18.6405 46.6275 18.7938 46.4453C21.1281 43.6672 24.0313 41.6937 27.2578 40.6375C25.2983 39.417 23.7896 37.5916 22.9599 35.4373C22.1302 33.283 22.0248 30.9171 22.6595 28.6976C23.2942 26.478 24.6345 24.5256 26.4776 23.1356C28.3208 21.7456 30.5665 20.9938 32.875 20.9938C35.1835 20.9938 37.4292 21.7456 39.2724 23.1356C41.1156 24.5256 42.4559 26.478 43.0906 28.6976C43.7252 30.9171 43.6198 33.283 42.7901 35.4373C41.9604 37.5916 40.4517 39.417 38.4922 40.6375C41.7188 41.6937 44.6219 43.6672 46.9578 46.4453ZM54.6219 40.0625C54.512 40.2528 54.3539 40.4108 54.1636 40.5205C53.9732 40.6302 53.7572 40.6878 53.5375 40.6875C53.318 40.6882 53.1023 40.6305 52.9125 40.5203L52.1828 40.0984C51.8336 40.398 51.4321 40.6306 50.9985 40.7844V41.625C50.9985 41.9565 50.8668 42.2745 50.6323 42.5089C50.3979 42.7433 50.08 42.875 49.7485 42.875C49.4169 42.875 49.099 42.7433 48.8646 42.5089C48.6301 42.2745 48.4985 41.9565 48.4985 41.625V40.7844C48.0648 40.6306 47.6633 40.398 47.3141 40.0984L46.5844 40.5203C46.3946 40.6305 46.1789 40.6882 45.9594 40.6875C45.6841 40.6876 45.4165 40.5969 45.1981 40.4293C44.9797 40.2618 44.8227 40.0269 44.7515 39.761C44.6802 39.4951 44.6988 39.2132 44.8042 38.9589C44.9096 38.7046 45.0959 38.4922 45.3344 38.3547L46.0625 37.9344C45.9771 37.4821 45.9771 37.0179 46.0625 36.5656L45.3344 36.1453C45.1922 36.0632 45.0676 35.954 44.9676 35.8237C44.8676 35.6935 44.7943 35.5448 44.7518 35.3862C44.7093 35.2276 44.6984 35.0622 44.7198 34.8994C44.7412 34.7367 44.7945 34.5797 44.8766 34.4375C44.9587 34.2953 45.0679 34.1707 45.1982 34.0707C45.3284 33.9707 45.4771 33.8974 45.6357 33.8549C45.7943 33.8124 45.9597 33.8015 46.1224 33.8229C46.2852 33.8443 46.4422 33.8976 46.5844 33.9797L47.3141 34.4016C47.6633 34.102 48.0648 33.8694 48.4985 33.7156V32.875C48.4985 32.5435 48.6301 32.2255 48.8646 31.9911C49.099 31.7567 49.4169 31.625 49.7485 31.625C50.08 31.625 50.3979 31.7567 50.6323 31.9911C50.8668 32.2255 50.9985 32.5435 50.9985 32.875V33.7156C51.4321 33.8694 51.8336 34.102 52.1828 34.4016L52.9125 33.9797C53.0547 33.8976 53.2117 33.8443 53.3745 33.8229C53.5372 33.8015 53.7027 33.8124 53.8612 33.8549C54.0198 33.8974 54.1685 33.9707 54.2987 34.0707C54.429 34.1707 54.5382 34.2953 54.6203 34.4375C54.7024 34.5797 54.7557 34.7367 54.7771 34.8994C54.7985 35.0622 54.7876 35.2276 54.7451 35.3862C54.7026 35.5448 54.6293 35.6935 54.5293 35.8237C54.4293 35.954 54.3047 36.0632 54.1625 36.1453L53.4344 36.5656C53.5198 37.0179 53.5198 37.4821 53.4344 37.9344L54.1625 38.3547C54.3049 38.4366 54.4297 38.5458 54.5298 38.676C54.6299 38.8062 54.7034 38.9548 54.7461 39.1134C54.7888 39.272 54.7998 39.4375 54.7784 39.6003C54.7571 39.7632 54.7039 39.9202 54.6219 40.0625ZM49.75 38.5C49.9972 38.5 50.2389 38.4267 50.4445 38.2893C50.65 38.152 50.8103 37.9568 50.9049 37.7284C50.9995 37.4999 51.0242 37.2486 50.976 37.0061C50.9278 36.7637 50.8087 36.5409 50.6339 36.3661C50.4591 36.1913 50.2364 36.0723 49.9939 36.024C49.7514 35.9758 49.5001 36.0005 49.2717 36.0952C49.0433 36.1898 48.848 36.35 48.7107 36.5555C48.5733 36.7611 48.5 37.0028 48.5 37.25C48.5 37.5815 48.6317 37.8995 48.8661 38.1339C49.1005 38.3683 49.4185 38.5 49.75 38.5Z" fill="white"/>
<defs>
<linearGradient id="paint0_linear_83_123" x1="0" y1="0" x2="55.4518" y2="102.418" gradientUnits="userSpaceOnUse">
<stop stop-color="#BB020F"/>
<stop offset="1" stop-color="#FD2635"/>
</linearGradient>
</defs>
</svg>
