<svg width="72" height="72" viewBox="0 0 72 72" fill="none" xmlns="http://www.w3.org/2000/svg">
<rect width="72" height="72" rx="36" fill="white"/>
<path d="M46.9578 46.4453C47.1111 46.6276 47.2092 46.8499 47.2404 47.086C47.2717 47.3221 47.2348 47.5622 47.1342 47.7781C47.0335 47.994 46.8733 48.1766 46.6724 48.3045C46.4714 48.4324 46.2381 48.5002 46 48.5H19.7499C19.5119 48.4999 19.2788 48.4319 19.0781 48.3039C18.8774 48.1759 18.7174 47.9932 18.617 47.7774C18.5165 47.5616 18.4798 47.3216 18.5111 47.0856C18.5424 46.8496 18.6405 46.6275 18.7937 46.4453C21.1281 43.6672 24.0312 41.6937 27.2578 40.6375C25.2982 39.417 23.7895 37.5916 22.9598 35.4373C22.1302 33.283 22.0247 30.9171 22.6594 28.6976C23.2941 26.478 24.6344 24.5256 26.4776 23.1356C28.3207 21.7456 30.5664 20.9937 32.8749 20.9937C35.1835 20.9937 37.4292 21.7456 39.2723 23.1356C41.1155 24.5256 42.4558 26.478 43.0905 28.6976C43.7252 30.9171 43.6197 33.283 42.7901 35.4373C41.9604 37.5916 40.4517 39.417 38.4921 40.6375C41.7187 41.6937 44.6218 43.6672 46.9578 46.4453ZM54.6218 40.0625C54.512 40.2528 54.3539 40.4108 54.1635 40.5205C53.9731 40.6302 53.7572 40.6878 53.5375 40.6875C53.318 40.6882 53.1023 40.6305 52.9125 40.5203L52.1828 40.0984C51.8336 40.398 51.432 40.6306 50.9984 40.7844V41.625C50.9984 41.9565 50.8667 42.2745 50.6323 42.5089C50.3979 42.7433 50.0799 42.875 49.7484 42.875C49.4169 42.875 49.0989 42.7433 48.8645 42.5089C48.6301 42.2745 48.4984 41.9565 48.4984 41.625V40.7844C48.0647 40.6306 47.6632 40.398 47.314 40.0984L46.5843 40.5203C46.3945 40.6305 46.1788 40.6882 45.9593 40.6875C45.6841 40.6876 45.4165 40.5968 45.1981 40.4293C44.9797 40.2618 44.8227 40.0269 44.7514 39.761C44.6802 39.4951 44.6987 39.2131 44.8041 38.9589C44.9095 38.7046 45.0959 38.4922 45.3343 38.3547L46.0624 37.9344C45.977 37.4821 45.977 37.0179 46.0624 36.5656L45.3343 36.1453C45.1921 36.0632 45.0675 35.9539 44.9675 35.8237C44.8676 35.6935 44.7942 35.5448 44.7517 35.3862C44.7092 35.2276 44.6983 35.0622 44.7198 34.8994C44.7412 34.7367 44.7944 34.5797 44.8765 34.4375C44.9586 34.2953 45.0679 34.1707 45.1981 34.0707C45.3284 33.9707 45.477 33.8974 45.6356 33.8549C45.7942 33.8124 45.9596 33.8015 46.1224 33.8229C46.2852 33.8443 46.4421 33.8976 46.5843 33.9797L47.314 34.4016C47.6632 34.102 48.0647 33.8694 48.4984 33.7156V32.875C48.4984 32.5435 48.6301 32.2255 48.8645 31.9911C49.0989 31.7567 49.4169 31.625 49.7484 31.625C50.0799 31.625 50.3979 31.7567 50.6323 31.9911C50.8667 32.2255 50.9984 32.5435 50.9984 32.875V33.7156C51.432 33.8694 51.8336 34.102 52.1828 34.4016L52.9125 33.9797C53.0546 33.8976 53.2116 33.8443 53.3744 33.8229C53.5372 33.8015 53.7026 33.8124 53.8612 33.8549C54.0198 33.8974 54.1684 33.9707 54.2987 34.0707C54.4289 34.1707 54.5382 34.2953 54.6203 34.4375C54.7023 34.5797 54.7556 34.7367 54.777 34.8994C54.7984 35.0622 54.7876 35.2276 54.7451 35.3862C54.7025 35.5448 54.6292 35.6935 54.5292 35.8237C54.4293 35.9539 54.3046 36.0632 54.1625 36.1453L53.4343 36.5656C53.5197 37.0179 53.5197 37.4821 53.4343 37.9344L54.1625 38.3547C54.3048 38.4366 54.4296 38.5458 54.5297 38.676C54.6299 38.8061 54.7034 38.9548 54.7461 39.1134C54.7887 39.272 54.7997 39.4375 54.7784 39.6003C54.7571 39.7632 54.7039 39.9202 54.6218 40.0625ZM49.75 38.5C49.9972 38.5 50.2389 38.4267 50.4444 38.2893C50.65 38.152 50.8102 37.9568 50.9048 37.7283C50.9994 37.4999 51.0242 37.2486 50.9759 37.0061C50.9277 36.7637 50.8087 36.5409 50.6338 36.3661C50.459 36.1913 50.2363 36.0722 49.9938 36.024C49.7513 35.9758 49.5 36.0005 49.2716 36.0951C49.0432 36.1898 48.848 36.35 48.7106 36.5555C48.5733 36.7611 48.5 37.0028 48.5 37.25C48.5 37.5815 48.6316 37.8995 48.8661 38.1339C49.1005 38.3683 49.4184 38.5 49.75 38.5Z" fill="url(#paint0_linear_320_10719)"/>
<defs>
<linearGradient id="paint0_linear_320_10719" x1="19" y1="21" x2="55" y2="49" gradientUnits="userSpaceOnUse">
<stop stop-color="#BB020F"/>
<stop offset="1" stop-color="#FD2635"/>
</linearGradient>
</defs>
</svg>
