<svg width="72" height="72" viewBox="0 0 72 72" fill="none" xmlns="http://www.w3.org/2000/svg">
<rect width="72" height="72" rx="36" fill="white"/>
<path d="M52.25 21C52.25 20.6685 52.1183 20.3505 51.8839 20.1161C51.6495 19.8817 51.3315 19.75 51 19.75C44.1125 19.75 37.0453 27.5172 33.1203 32.6609C31.7186 32.2316 30.2356 32.1371 28.7907 32.3848C27.3458 32.6326 25.979 33.2157 24.8004 34.0875C23.6217 34.9592 22.6638 36.0952 22.0038 37.4043C21.3438 38.7134 21 40.159 21 41.625C21 46.45 17.9469 48.6141 17.8016 48.7141C17.5798 48.8638 17.412 49.0807 17.3227 49.3329C17.2335 49.5852 17.2275 49.8594 17.3057 50.1153C17.3838 50.3711 17.5421 50.5952 17.757 50.7544C17.972 50.9137 18.2325 50.9998 18.5 51H30.375C31.841 51 33.2866 50.6562 34.5957 49.9962C35.9048 49.3362 37.0408 48.3783 37.9125 47.1997C38.7843 46.021 39.3675 44.6543 39.6152 43.2093C39.863 41.7644 39.7684 40.2815 39.3391 38.8797C44.4844 34.9547 52.25 27.8875 52.25 21ZM35.4406 33.7422C35.9761 33.0484 36.5016 32.3948 37.0172 31.7812C38.2793 32.6339 39.3661 33.7207 40.2188 34.9828C39.6042 35.4974 38.9505 36.0229 38.2578 36.5594C37.5294 35.431 36.5691 34.4706 35.4406 33.7422ZM42.1125 33.3234C41.1688 31.9919 40.0066 30.8296 38.675 29.8859C43.6406 24.4906 47.386 22.8547 49.5969 22.4C49.1516 24.6125 47.5078 28.3578 42.1125 33.3234Z" fill="url(#paint0_linear_320_10699)"/>
<defs>
<linearGradient id="paint0_linear_320_10699" x1="17" y1="20" x2="52" y2="51" gradientUnits="userSpaceOnUse">
<stop stop-color="#BB020F"/>
<stop offset="1" stop-color="#FD2635"/>
</linearGradient>
</defs>
</svg>
