<svg width="140" height="160" viewBox="0 0 140 160" fill="none" xmlns="http://www.w3.org/2000/svg">
<g clip-path="url(#clip0_71_11262)">
<path d="M57.6983 140.171C89.5642 140.171 115.397 114.338 115.397 82.4725C115.397 50.6066 89.5642 24.7742 57.6983 24.7742C25.8325 24.7742 6.10352e-05 50.6066 6.10352e-05 82.4725C6.10352e-05 114.338 25.8325 140.171 57.6983 140.171Z" fill="url(#paint0_radial_71_11262)"/>
<path d="M57.6983 133.594C85.932 133.594 108.82 110.706 108.82 82.4725C108.82 54.2388 85.932 31.351 57.6983 31.351C29.4647 31.351 6.57684 54.2388 6.57684 82.4725C6.57684 110.706 29.4647 133.594 57.6983 133.594Z" fill="url(#paint1_linear_71_11262)"/>
<path d="M70.7685 96.6491C67.4183 96.0866 65.159 92.9156 65.7215 89.5623C66.284 86.2121 69.455 83.9529 72.8052 84.5154C76.1585 85.0779 78.4177 88.2488 77.8552 91.599C77.2927 94.9523 74.1217 97.2116 70.7685 96.6491ZM74.6101 48.8469C55.7945 45.6883 37.9773 58.3813 34.8187 77.2C33.533 84.8646 34.8743 92.3624 38.1936 98.7723C38.1998 98.7847 38.2091 98.7939 38.2152 98.8094C41.414 104.709 46.5598 104.904 50.5931 101.387C50.6023 101.384 50.6116 101.375 50.6178 101.368C51.4337 100.654 52.2033 99.7891 52.9017 98.7909C55.6307 95.249 60.4242 94.5722 64.1391 104.193C64.1422 104.199 64.1422 104.202 64.1453 104.209C64.2133 104.388 64.2844 104.567 64.3524 104.756C69.1459 116.71 80.5904 117.538 90.6781 109.735C96.986 104.62 101.517 97.2796 102.966 88.6444C106.125 69.8258 93.4318 52.0085 74.6132 48.85L74.6101 48.8469Z" fill="#FFC659"/>
<path d="M74.2701 113.468C71.0621 112.581 68.4072 110.405 66.488 107.108C68.1662 108.78 70.104 109.889 72.2056 110.47C73.1884 110.742 74.2083 110.897 75.2529 110.94C75.2498 111.802 75.1633 112.692 74.9933 113.641C74.7646 113.595 74.539 113.539 74.3134 113.477C74.2979 113.474 74.2855 113.468 74.2701 113.465V113.468ZM76.1523 113.83C76.3315 112.822 76.4211 111.867 76.4273 110.943C78.43 110.866 80.51 110.393 82.6023 109.543C82.6858 110.653 82.9392 111.774 83.3472 112.844C80.8654 113.74 78.4208 114.083 76.1523 113.83ZM84.4381 112.414C84.0209 111.317 83.786 110.167 83.7489 109.039C85.4642 108.23 87.1795 107.173 88.8577 105.875C88.867 105.868 88.8762 105.859 88.8855 105.853C89.3058 106.87 89.8189 107.856 90.4153 108.792C90.3195 108.872 90.2206 108.953 90.1217 109.033C88.2612 110.473 86.345 111.608 84.4381 112.417V112.414ZM91.3116 108.016C90.7213 107.077 90.2237 106.082 89.8281 105.056C91.5465 103.553 93.1196 101.881 94.5166 100.058C95.3201 100.553 96.1299 101.041 96.9427 101.52C95.3603 103.903 93.475 106.088 91.3147 108.016H91.3116ZM97.5732 100.531C96.7851 100.064 96 99.5913 95.2181 99.1123C96.612 97.159 97.8111 95.0451 98.7847 92.792C99.4646 93.0609 100.145 93.3174 100.824 93.5554C100.009 96.0062 98.9176 98.3458 97.5732 100.531ZM101.174 92.4335C100.528 92.2048 99.8787 91.9638 99.2297 91.7072C99.7984 90.2516 100.277 88.7464 100.651 87.1888C101.183 87.2537 101.718 87.3124 102.252 87.3588C102.203 87.7358 102.144 88.1129 102.082 88.4899C101.857 89.8282 101.554 91.1447 101.174 92.4335ZM100.908 86.0391C100.994 85.6249 101.072 85.2046 101.143 84.7843C101.371 83.4275 101.517 82.0769 101.582 80.7356C101.881 80.7016 102.181 80.6738 102.481 80.646C102.602 82.4818 102.571 84.3362 102.388 86.1936C101.894 86.1503 101.399 86.0978 100.908 86.0391ZM101.622 79.5519C101.643 78.2601 101.591 76.9806 101.467 75.7134C101.575 75.7227 101.684 75.732 101.792 75.7412C102.061 76.9713 102.258 78.2199 102.385 79.4778C102.132 79.4994 101.875 79.5241 101.622 79.5519ZM101.331 74.5297C101.273 74.0816 101.205 73.6365 101.127 73.1946C101.263 73.6396 101.387 74.0909 101.504 74.5421C101.446 74.5359 101.387 74.5328 101.331 74.5297Z" fill="#D29156"/>
<path d="M46.9956 102.487C46.702 101.572 46.3651 100.611 45.9788 99.5975C47.1162 99.2328 48.2319 98.5838 49.2734 97.6875C49.7802 98.4231 50.3366 99.1308 50.9392 99.8015C50.6673 100.095 50.3891 100.37 50.1017 100.624L49.9997 100.71C49.0354 101.551 48.0155 102.15 46.9925 102.487H46.9956ZM51.7057 98.899C51.1401 98.2562 50.6147 97.5824 50.1388 96.8778C50.6703 96.3276 51.1803 95.7095 51.6562 95.0296C53.0068 93.2803 54.8581 92.2295 56.8361 92.7766C58.5544 93.2525 60.3655 94.9338 62.0252 98.4076C60.6962 96.7325 59.3982 95.9722 58.3041 95.6694C58.097 95.6137 57.8992 95.5705 57.7107 95.5426C55.7451 95.2583 53.7331 96.2411 52.1909 98.2407L52.1662 98.2747C52.0147 98.488 51.8633 98.6981 51.7057 98.899Z" fill="#D29156"/>
<path d="M36.6421 80.5688C36.2682 79.9321 35.8911 79.2985 35.5079 78.668C35.5481 78.3652 35.5882 78.0654 35.6377 77.7625C36.1136 77.9479 36.5772 78.1674 37.0254 78.4177C36.9326 78.8689 36.8461 79.3233 36.7688 79.7807C36.7256 80.0434 36.6823 80.3061 36.6452 80.5688H36.6421ZM37.2911 77.2309C36.8214 76.9837 36.3362 76.7673 35.8386 76.5881C36.0796 75.3333 36.3856 74.1032 36.7596 72.901C37.0532 72.9412 37.3468 72.9999 37.6404 73.0803C37.9247 73.1575 38.2029 73.2564 38.481 73.3708C38.0143 74.6194 37.6157 75.9081 37.2911 77.2309Z" fill="#FFEBC5"/>
<path d="M38.9075 72.2797C38.5892 72.1468 38.2647 72.0356 37.9402 71.9459C37.6713 71.8718 37.3993 71.81 37.1304 71.7667C37.8814 69.6156 38.8426 67.5573 40.0016 65.6195C40.7062 65.8266 41.38 66.0985 42.0259 66.4138C40.8113 68.2434 39.7636 70.2059 38.9075 72.2766V72.2797Z" fill="#FFEBC5"/>
<path d="M42.6966 65.4402C42.0414 65.1095 41.3584 64.8221 40.6444 64.5903C42.165 62.2446 43.9854 60.0935 46.0715 58.1743C46.8504 58.5142 47.6199 58.8696 48.3833 59.2405C47.0512 60.3778 45.8026 61.6172 44.6529 62.9523C44.6035 62.9523 44.551 62.9554 44.5015 62.9554C44.177 62.9678 43.9267 63.2397 43.939 63.5642C43.9421 63.6322 43.9545 63.6971 43.9792 63.7559C43.5372 64.3029 43.1076 64.8623 42.6997 65.4371L42.6966 65.4402ZM49.3754 58.4246C48.6058 58.0414 47.827 57.6736 47.0389 57.3212C47.7837 56.6877 48.5564 56.085 49.363 55.5102C49.6813 55.2845 49.9997 55.0651 50.3242 54.8488C51.7366 55.847 53.149 56.8453 54.5614 57.8436C53.7455 57.9981 52.9635 58.0105 52.3145 57.8281C51.8417 57.6983 51.4368 57.4665 51.1339 57.1173C50.5343 57.5345 49.9502 57.9672 49.3785 58.4184L49.3754 58.4246ZM56.0047 57.4356C54.4656 56.3477 52.9295 55.2598 51.3904 54.1719C52.6112 53.4271 53.8722 52.7626 55.161 52.1847C56.5177 53.2664 57.8065 54.4099 59.0273 55.6152C58.2145 56.3693 57.1297 57.0122 56.0047 57.4387V57.4356ZM59.8061 54.7344C58.7182 53.6651 57.5778 52.639 56.3848 51.6655C59.5898 50.3767 62.9647 49.5979 66.4076 49.3475C66.695 49.8791 66.9639 50.423 67.2143 50.9701C67.239 51.0226 67.2637 51.0752 67.2884 51.1277C64.9056 51.3719 62.5815 51.8633 60.3439 52.5803C60.5231 53.3004 60.2944 54.0421 59.8092 54.7344H59.8061ZM68.5247 51.0226C68.4443 50.8403 68.364 50.661 68.2805 50.4787C68.0951 50.0769 67.9004 49.6751 67.6964 49.2764C69.934 49.2023 72.1994 49.3506 74.4586 49.7308C75.633 49.9286 76.7858 50.1851 77.9201 50.4972C78.291 50.5992 78.6618 50.7074 79.0265 50.8217C79.0852 51.1988 79.1254 51.5789 79.1532 51.9653C78.3002 51.7551 77.4318 51.5758 76.5509 51.4275C73.8405 50.9732 71.1486 50.8465 68.5216 51.0226H68.5247ZM90.3628 56.9906C89.55 56.4312 88.7063 55.9058 87.8409 55.4174C87.8811 55.3371 87.9212 55.2536 87.9614 55.1733C88.7866 55.742 89.5871 56.3477 90.3628 56.9906ZM86.8086 54.858C84.7781 53.798 82.6178 52.9326 80.3493 52.2836C80.3307 51.9343 80.3029 51.5851 80.2658 51.239C82.6301 52.0827 84.877 53.1829 86.9755 54.5212C86.9199 54.6324 86.8674 54.7468 86.8117 54.858H86.8086Z" fill="#FFEBC5"/>
<path d="M71.2444 98.9144C69.5291 98.4416 68.1136 97.3537 67.2019 95.9351C67.9807 96.6027 68.8955 97.091 69.8938 97.3691C70.1318 97.434 70.3729 97.4897 70.617 97.5299C74.4493 98.1727 78.0901 95.5797 78.7329 91.7473C79.0049 90.1372 78.7144 88.5208 77.9232 87.1207C77.9015 87.0342 77.8799 86.9508 77.8583 86.8673C79.589 88.4281 80.51 90.814 80.0959 93.2803C79.4499 97.1281 75.8092 99.7211 71.9645 99.0752C71.7204 99.035 71.4793 98.9793 71.2444 98.9144Z" fill="#FFEBC5"/>
<path d="M64.952 92.3037C64.7727 91.9916 64.6151 91.6671 64.4853 91.3302C64.5873 91.3796 64.6924 91.4291 64.7974 91.4755C64.8314 91.7536 64.884 92.0318 64.9551 92.3006L64.952 92.3037Z" fill="#D29156"/>
<path d="M64.7542 90.1558C64.5285 90.0414 64.3029 89.9178 64.0773 89.788C63.9166 88.6816 64.0155 87.5226 64.4142 86.3976C65.3383 83.8077 67.616 82.0924 70.1689 81.7648C70.481 82.3551 70.7777 82.9578 71.0497 83.5697C67.9838 83.8942 65.3754 86.2245 64.8407 89.4109C64.8005 89.6582 64.7696 89.9054 64.7542 90.1527V90.1558ZM77.8614 86.8643C77.7995 86.8087 77.7346 86.753 77.6697 86.6974C77.6234 86.6294 77.577 86.5583 77.5276 86.4903C76.5788 85.1614 75.2313 84.2188 73.6798 83.7922C73.4418 83.7273 73.2007 83.6717 72.9535 83.6315C72.7433 83.5975 72.5332 83.5697 72.323 83.5543C72.0572 82.9331 71.7698 82.3242 71.4669 81.7216C71.9583 81.7494 72.4497 81.8297 72.9411 81.9657C73.108 82.0121 73.2749 82.0646 73.4387 82.1233C75.6794 82.9238 77.2649 84.738 77.8614 86.8643Z" fill="#D29156"/>
<path d="M77.9263 87.1177C77.8459 86.9755 77.7594 86.8334 77.6697 86.6974C77.7346 86.753 77.7995 86.8087 77.8614 86.8643C77.8861 86.9477 77.9077 87.0312 77.9263 87.1177Z" fill="#D2ABA1"/>
<path d="M94.0066 76.8198C93.8366 76.7735 93.6883 76.6498 93.6172 76.4737C93.4967 76.1739 93.6419 75.8308 93.9448 75.7103C96.272 74.7769 98.8001 74.3752 101.331 74.5297C101.381 74.9222 101.427 75.3178 101.467 75.7165C99.0412 75.5341 96.612 75.905 94.3837 76.8013C94.2601 76.8507 94.1302 76.8569 94.0097 76.8229L94.0066 76.8198Z" fill="#F9B35E"/>
<path d="M101.464 75.7134C101.427 75.3178 101.381 74.9222 101.328 74.5266C101.387 74.5297 101.443 74.5328 101.501 74.539C101.603 74.9377 101.699 75.3363 101.786 75.7381C101.677 75.7289 101.569 75.7196 101.461 75.7103L101.464 75.7134Z" fill="#D98E5C"/>
<path d="M98.7816 92.792C97.7833 92.3964 96.7881 91.9699 95.7961 91.5094C96.1453 91.2528 96.4636 90.9623 96.7387 90.6502C97.567 91.0241 98.3983 91.3765 99.2297 91.7072C99.0876 92.0718 98.9361 92.4334 98.7816 92.792ZM84.537 84.9635C80.0433 81.8791 75.7721 78.464 71.5936 75.1261C69.9185 73.7879 68.194 72.4095 66.4694 71.0651C66.9423 70.9631 67.3935 70.8147 67.8169 70.6293C69.3375 71.8223 70.8488 73.0307 72.3261 74.2113C76.483 77.5337 80.7294 80.9272 85.1861 83.99C85.1737 84.0054 85.1582 84.0239 85.1459 84.0394C84.9017 84.3516 84.6977 84.6637 84.5339 84.9666L84.537 84.9635ZM57.5716 64.5687C54.7314 62.6803 51.6439 60.829 48.3802 59.2436C48.7078 58.9654 49.0385 58.6934 49.3754 58.4246C52.2094 59.8339 54.9044 61.4255 57.414 63.0605C57.4078 63.1377 57.4016 63.2119 57.4016 63.2892C57.3893 63.728 57.448 64.1607 57.5716 64.5687Z" fill="#F9B35E"/>
<path d="M100.821 93.5554C100.141 93.3175 99.4615 93.0609 98.7816 92.7921C98.9361 92.4336 99.0845 92.072 99.2297 91.7073C99.8787 91.9638 100.525 92.2079 101.174 92.4336C101.062 92.8075 100.945 93.1846 100.824 93.5554H100.821Z" fill="#D98E5C"/>
<path d="M48.3833 59.2406C47.623 58.8697 46.8504 58.5143 46.0715 58.1743C46.3868 57.8838 46.7113 57.5995 47.0389 57.3182C47.827 57.6706 48.6058 58.0383 49.3754 58.4216C49.0385 58.6874 48.7078 58.9593 48.3802 59.2406H48.3833Z" fill="#F9CDA9"/>
<path d="M86.1194 81.2517C85.9278 81.1992 85.7393 81.1435 85.5476 81.0817C80.4513 79.4499 76.0688 74.7955 73.21 67.9807C72.119 65.3815 71.2722 62.6556 70.4532 60.0162C69.5322 57.0493 68.5803 53.9834 67.2853 51.1246C67.6964 51.0813 68.1074 51.0473 68.5216 51.0195C69.7609 53.832 70.6819 56.7958 71.5751 59.667C72.3848 62.2786 73.2255 64.9797 74.2917 67.5264C75.8679 71.2876 79.4746 77.9046 85.9031 79.966C86.0823 80.0247 86.2647 80.0773 86.4439 80.1267C87.9398 80.5409 89.4603 80.6954 91.0087 80.6954C89.9857 80.8221 88.9411 81.1497 87.9923 81.6473C87.3618 81.5515 86.7375 81.4217 86.1163 81.2517H86.1194ZM95.1934 81.5824C95.0976 81.5113 94.9956 81.4433 94.8936 81.3784C94.8442 81.3475 94.7947 81.3197 94.7422 81.2919C94.4053 81.1034 94.0406 80.9581 93.6574 80.8499C93.2834 80.7449 92.8847 80.68 92.4768 80.6491C94.2662 80.5502 96.0958 80.2905 97.9687 80.0217C99.1648 79.8517 100.392 79.6786 101.613 79.5488C101.606 79.9413 101.594 80.3369 101.575 80.7325C100.423 80.8592 99.2668 81.023 98.1325 81.1837C97.1559 81.3228 96.1762 81.4619 95.1872 81.5793L95.1934 81.5824Z" fill="#F9B35E"/>
<path d="M101.582 80.7357C101.6 80.3401 101.616 79.9445 101.619 79.552C101.872 79.5241 102.129 79.4994 102.382 79.4778C102.422 79.8672 102.453 80.2566 102.481 80.646C102.181 80.6738 101.881 80.7017 101.582 80.7357Z" fill="#D98E5C"/>
<path d="M67.2884 51.1247C67.2637 51.0721 67.239 51.0196 67.2143 50.967C66.9639 50.42 66.695 49.8792 66.4076 49.3445C66.8372 49.3136 67.2668 49.2889 67.6964 49.2765C67.9004 49.6721 68.0951 50.0739 68.2805 50.4787C68.364 50.6611 68.4443 50.8403 68.5247 51.0227C68.1105 51.0505 67.6964 51.0845 67.2884 51.1278V51.1247Z" fill="#F9CDA9"/>
<path d="M91.2622 72.4869C91.5403 71.9986 91.7443 71.4886 91.8618 70.9725C92.1275 70.855 92.3995 70.7252 92.6715 70.5923C93.2865 70.2864 93.9108 69.9557 94.5135 69.6343C95.9104 68.8925 97.3445 68.126 98.8589 67.5945C99.0412 67.9468 99.2143 68.2991 99.3812 68.6545C97.9008 69.1583 96.4636 69.9248 95.0667 70.6665C94.4548 70.991 93.8243 71.3279 93.1938 71.64C92.5324 71.9677 91.8865 72.2489 91.2622 72.4838V72.4869ZM79.1471 66.7044C78.6711 64.9613 78.5166 63.0884 78.5969 61.3607C78.6526 60.2079 78.77 59.0366 78.8874 57.9024C79.0883 55.9306 79.2954 53.9093 79.1532 51.9653C79.4654 52.0426 79.7744 52.123 80.0804 52.2095C80.17 52.2342 80.2597 52.2589 80.3462 52.2837C80.442 54.1936 80.2442 56.1315 80.0526 58.0229C79.9382 59.1386 79.8208 60.2976 79.7683 61.4164C79.7065 62.7237 79.7868 64.1175 80.0495 65.4558C79.691 65.8483 79.3881 66.2686 79.144 66.7044H79.1471Z" fill="#F9B35E"/>
<path d="M79.1563 51.9653C79.1285 51.5821 79.0883 51.1988 79.0296 50.8218C79.4468 50.9516 79.8579 51.0907 80.2689 51.2359C80.3091 51.5821 80.3369 51.9313 80.3524 52.2805C80.2627 52.2558 80.1731 52.2311 80.0866 52.2064C79.7775 52.1229 79.4685 52.0395 79.1594 51.9622L79.1563 51.9653Z" fill="#F9CDA9"/>
<path d="M90.5359 65.842C90.335 65.7864 90.1341 65.7215 89.9332 65.6504C89.893 65.5577 89.8498 65.4681 89.8003 65.3784C89.4789 64.7758 89.0184 64.2813 88.4652 63.9073C88.0356 63.6168 87.5504 63.4005 87.0281 63.2552C86.8488 63.2058 86.6603 63.1625 86.4718 63.1316C85.6188 61.9788 85.1613 60.6035 85.2417 59.2467C85.3282 57.8065 85.9649 56.5394 86.5799 55.3155C86.6572 55.164 86.7345 55.0095 86.8086 54.855C87.1579 55.0342 87.5009 55.2228 87.8409 55.4144C87.7698 55.5565 87.6987 55.6987 87.6276 55.8409C87.0373 57.0122 86.4841 58.1156 86.413 59.3147C86.3018 61.166 87.5349 63.1532 89.414 64.1422C89.8838 64.3895 90.3628 64.5749 90.848 64.7078C92.5479 65.1776 94.2724 65.023 95.5396 64.7634C96.0124 64.6676 96.4915 64.544 96.989 64.3926C97.2116 64.7325 97.431 65.0725 97.6412 65.4186C97.0014 65.6257 96.3864 65.7895 95.7775 65.9131C94.3744 66.2005 92.4551 66.3674 90.539 65.8389L90.5359 65.842Z" fill="#F9B35E"/>
<path d="M87.844 55.4143C87.504 55.2227 87.161 55.0342 86.8117 54.8549C86.8674 54.7437 86.923 54.6293 86.9755 54.5181C87.3093 54.7282 87.6369 54.9477 87.9614 55.1702C87.9213 55.2536 87.8811 55.334 87.8409 55.4143H87.844Z" fill="#F9CDA9"/>
<path d="M61.8954 58.6996C60.9867 57.6303 60.0317 56.598 59.0273 55.6091C59.3302 55.3278 59.5929 55.0342 59.8061 54.7313C61.0362 55.9428 62.1951 57.2131 63.2861 58.5389C62.8071 58.5513 62.3404 58.6069 61.8923 58.6996H61.8954Z" fill="#F9B35E"/>
<path d="M59.0273 55.6091C57.8065 54.4037 56.5177 53.2602 55.1609 52.1785C55.5658 51.9962 55.9738 51.8231 56.3848 51.6593C57.5778 52.6359 58.7182 53.6589 59.8061 54.7283C59.5929 55.0311 59.3271 55.3278 59.0273 55.606V55.6091Z" fill="#F9CDA9"/>
<path d="M64.4853 91.3301C61.5801 89.9301 58.848 87.4452 56.3478 83.9374C56.0727 83.5511 55.8069 83.1617 55.5442 82.7661C55.8347 82.4508 56.082 82.114 56.2859 81.7586C56.6166 82.2654 56.9566 82.7661 57.3058 83.2575C59.4198 86.2245 61.6914 88.4157 64.0804 89.7879C64.1577 90.3164 64.2968 90.8356 64.4884 91.3301H64.4853ZM48.9427 72.4311C47.3603 70.3574 45.0115 67.8818 42.0259 66.4138C42.2454 66.0862 42.4679 65.7586 42.6966 65.4371C45.8645 67.0381 48.3215 69.662 49.9626 71.8316C50.1078 72.0263 50.2531 72.221 50.3984 72.4188C49.9286 72.3755 49.4403 72.3755 48.9427 72.4281V72.4311Z" fill="#F9B35E"/>
<path d="M42.0259 66.4138C41.38 66.0985 40.7062 65.8266 40.0016 65.6195C40.2087 65.2734 40.425 64.9303 40.6444 64.5903C41.3584 64.8221 42.0445 65.1096 42.6966 65.4402C42.4679 65.7617 42.2423 66.0862 42.0259 66.4169V66.4138Z" fill="#F9CDA9"/>
<path d="M64.7974 91.4754C64.6924 91.4291 64.5904 91.3796 64.4853 91.3302C64.2937 90.8357 64.1546 90.3165 64.0773 89.788C64.3029 89.9178 64.5286 90.0383 64.7542 90.1557C64.7264 90.6008 64.7418 91.0428 64.7974 91.4754Z" fill="#D98E5C"/>
<path d="M63.8239 80.782C63.7188 80.7542 63.623 80.6955 63.5457 80.6089L53.8536 69.8753C52.571 68.4567 51.2483 66.9887 49.6844 65.8792C48.9118 65.329 47.8548 64.7202 46.634 64.3802C45.9788 64.1979 45.2772 64.0959 44.5448 64.1237C44.483 64.1268 44.4242 64.1175 44.3655 64.1021C44.1894 64.0526 44.0441 63.9228 43.9761 63.7528C44.1986 63.4809 44.4212 63.212 44.6499 62.9462C45.4565 62.9307 46.2291 63.0482 46.9462 63.246C48.3246 63.6261 49.5021 64.306 50.3644 64.918C52.0333 66.1017 53.3993 67.6192 54.7252 69.0841L64.4173 79.8177C64.6336 80.0588 64.6151 80.4297 64.374 80.646C64.2195 80.7851 64.0093 80.8284 63.8239 80.7758V80.782Z" fill="#F9B35E"/>
<path d="M43.9792 63.7558C43.9545 63.6971 43.9421 63.6322 43.939 63.5642C43.9266 63.2397 44.1801 62.9677 44.5015 62.9554C44.5509 62.9523 44.6035 62.9523 44.6529 62.9523C44.4242 63.2181 44.1986 63.4869 43.9792 63.7589V63.7558Z" fill="#F9CDA9"/>
<path d="M94.5166 100.058C91.2715 98.0615 88.0881 95.9444 85.0161 93.7439C84.7534 93.5554 84.6916 93.1876 84.8832 92.9249C85.0285 92.7178 85.285 92.6375 85.5168 92.7024C85.5817 92.7209 85.6435 92.7487 85.7022 92.792C88.7773 94.9987 91.9668 97.1157 95.2181 99.1123C94.9894 99.4337 94.7546 99.7489 94.5166 100.058Z" fill="#F9B35E"/>
<path d="M96.9396 101.52C96.1268 101.041 95.3201 100.553 94.5135 100.058C94.7515 99.7459 94.9863 99.4306 95.215 99.1123C95.997 99.5944 96.782 100.067 97.5701 100.531C97.3661 100.865 97.1559 101.195 96.9396 101.52Z" fill="#D98E5C"/>
<path d="M82.5992 109.543C82.5807 109.314 82.5714 109.086 82.5683 108.857C82.5529 107.754 82.695 106.656 82.8279 105.596C82.9454 104.663 83.069 103.699 83.0783 102.762C83.0906 101.702 82.9206 99.103 81.0663 97.8667C80.7974 97.6875 80.7232 97.3228 80.9025 97.0539C81.0477 96.8375 81.3104 96.7479 81.5484 96.8128C81.6071 96.8283 81.6628 96.8561 81.7153 96.8901C83.3564 97.9842 84.2836 100.129 84.2496 102.775C84.2403 103.779 84.1105 104.777 83.9869 105.745C83.8509 106.811 83.7211 107.818 83.7366 108.841C83.7366 108.906 83.7366 108.974 83.7397 109.039C83.3564 109.218 82.9732 109.388 82.593 109.543H82.5992Z" fill="#F9B35E"/>
<path d="M83.3441 112.844C82.9361 111.771 82.6827 110.653 82.5992 109.543C82.9794 109.389 83.3626 109.219 83.7459 109.039C83.7829 110.167 84.0178 111.317 84.4351 112.414C84.0704 112.569 83.7057 112.714 83.3441 112.844Z" fill="#D98E5C"/>
<path d="M88.8824 105.85C88.4034 104.694 88.048 103.498 87.8193 102.289C87.7605 101.971 87.9707 101.665 88.289 101.603C88.3787 101.588 88.4683 101.591 88.5517 101.616C88.7588 101.674 88.9288 101.844 88.9721 102.073C89.1606 103.084 89.448 104.082 89.8251 105.056C89.516 105.327 89.2007 105.593 88.8793 105.853L88.8824 105.85Z" fill="#F9B35E"/>
<path d="M90.4123 108.789C89.8158 107.856 89.3027 106.87 88.8824 105.85C89.2007 105.59 89.516 105.324 89.8281 105.052C90.2268 106.078 90.7244 107.074 91.3116 108.013C91.018 108.276 90.7182 108.532 90.4123 108.786V108.789Z" fill="#D98E5C"/>
<path d="M75.2498 110.943C75.2498 110.81 75.2498 110.68 75.2467 110.551C75.1695 107.63 73.7571 104.097 70.7685 102.787C70.4996 102.67 70.2183 102.571 69.9309 102.49C68.3269 102.045 66.4509 102.2 64.5904 102.926C64.4328 102.552 64.272 102.194 64.1113 101.854C66.2284 101.013 68.3825 100.843 70.2492 101.359C70.5923 101.455 70.923 101.572 71.2444 101.711C74.2856 103.047 76.3161 106.505 76.4212 110.52C76.4243 110.662 76.4273 110.801 76.4273 110.943C76.0317 110.959 75.6423 110.959 75.2529 110.943H75.2498Z" fill="#F9B35E"/>
<path d="M74.9902 113.644C75.1602 112.695 75.2467 111.805 75.2498 110.943C75.6392 110.959 76.0286 110.959 76.4242 110.943C76.4211 111.867 76.3284 112.819 76.1492 113.83C75.7567 113.786 75.3703 113.725 74.9902 113.644Z" fill="#D98E5C"/>
<path d="M49.2765 97.6906C48.1329 96.031 47.2336 94.2137 46.6278 92.3191C45.9912 90.3288 45.6636 88.2457 45.3452 86.2338C45.2216 85.4457 45.0918 84.6298 44.9465 83.8355C44.7766 82.8959 44.5571 81.8513 44.245 80.7851C44.4088 80.9489 44.5849 81.1003 44.7735 81.2394C44.7858 81.2981 44.7982 81.3599 44.8106 81.4186C45.0053 82.2562 45.4596 82.9825 46.0901 83.5573C46.0931 83.5789 46.0993 83.6037 46.1024 83.6253C46.2508 84.432 46.3806 85.2541 46.5073 86.0514C46.8194 88.0201 47.1409 90.0568 47.7497 91.9637C48.3029 93.6945 49.1157 95.3541 50.1449 96.8778C49.8946 97.1374 49.6381 97.3785 49.3784 97.6072C49.3723 97.6164 49.363 97.6226 49.3537 97.6257C49.329 97.6473 49.3043 97.669 49.2795 97.6906H49.2765ZM43.0149 77.7099C42.7275 77.1691 42.3968 76.6437 42.0228 76.1492C41.0648 74.8882 39.8131 73.9239 38.481 73.3707C38.617 73.0029 38.7623 72.6413 38.9106 72.2828C40.4405 72.9133 41.8714 74.0105 42.9593 75.4414C43.12 75.6516 43.2714 75.8679 43.4167 76.0874C43.1818 76.6097 43.0427 77.1567 43.0211 77.7161L43.0149 77.7099Z" fill="#F9B35E"/>
<path d="M50.9423 99.8014C50.3427 99.1308 49.7864 98.4261 49.2765 97.6875C49.3012 97.6658 49.3259 97.6442 49.3506 97.6226C49.3599 97.6195 49.3692 97.6102 49.3754 97.604C49.635 97.3753 49.8915 97.1312 50.1418 96.8746C50.6178 97.5793 51.1432 98.2561 51.7088 98.8959C51.4615 99.2142 51.205 99.514 50.9423 99.7983V99.8014Z" fill="#D98E5C"/>
<path d="M36.7565 72.8979C36.8739 72.5177 36.9975 72.1407 37.1273 71.7667C37.3993 71.81 37.6682 71.8718 37.9371 71.946C38.2616 72.0356 38.5861 72.1469 38.9044 72.2798C38.7561 72.6383 38.6139 73.003 38.4748 73.3676C38.1967 73.2533 37.9154 73.1544 37.6342 73.0771C37.3406 72.9968 37.047 72.935 36.7534 72.8979H36.7565Z" fill="#F9CDA9"/>
<path d="M43.324 93.3638C42.7089 92.041 42.0352 90.6564 41.3058 89.2039C42.1743 90.2114 42.8264 91.4044 43.1725 92.7024C43.2313 92.9218 43.2807 93.1413 43.324 93.3638Z" fill="#F9B35E"/>
<path d="M53.9247 88.6413C53.8629 88.6258 53.8042 88.598 53.7516 88.5609C52.3671 87.6183 51.1803 86.4068 50.2593 85.0191C50.6981 85.016 51.1463 84.9728 51.5975 84.8862C52.3763 85.9339 53.3251 86.8518 54.4099 87.5905C54.6788 87.7728 54.7468 88.1375 54.5645 88.4064C54.4192 88.6197 54.1596 88.7062 53.9247 88.6413Z" fill="#F9B35E"/>
<path d="M70.1689 81.7678C67.7428 77.1875 64.1577 73.2409 59.8494 70.4562C59.5774 70.2801 59.5002 69.9185 59.6732 69.6465C59.7598 69.5105 59.8958 69.424 60.041 69.3931C60.6715 70.0081 61.4812 70.5026 62.4053 70.824C66.1758 73.6983 69.3004 77.4595 71.4638 81.7214C71.0281 81.6967 70.5923 81.7122 70.1658 81.7678H70.1689Z" fill="#F9B35E"/>
<path d="M71.0497 83.5728C70.7746 82.9608 70.481 82.3582 70.1689 81.7679C70.5954 81.7122 71.0281 81.6968 71.4669 81.7215C71.7729 82.3242 72.0572 82.933 72.323 83.5542C71.8934 83.5202 71.4669 83.5295 71.0497 83.5728Z" fill="#D98E5C"/>
<path d="M97.9224 86.7746C97.8297 86.3295 97.6504 85.8938 97.3784 85.4796C98.5467 85.7114 99.7242 85.8968 100.908 86.0421C100.828 86.4284 100.744 86.8117 100.651 87.1918C99.7366 87.0805 98.8279 86.9415 97.9224 86.7777V86.7746Z" fill="#F9B35E"/>
<path d="M100.651 87.1888C100.744 86.8086 100.828 86.4254 100.908 86.0391C101.399 86.0978 101.894 86.1503 102.388 86.1936C102.351 86.583 102.305 86.9693 102.252 87.3587C101.718 87.3124 101.183 87.2537 100.651 87.1888Z" fill="#D98E5C"/>
<path d="M38.1658 83.239C37.968 82.8805 37.7671 82.522 37.5631 82.1665C37.9865 82.0955 38.4316 81.978 38.7097 81.6999C39.1239 81.2826 39.0899 80.5563 38.8395 80.0526C38.5799 79.5303 38.0916 79.0636 37.3004 78.5815C37.2077 78.5258 37.115 78.4733 37.0223 78.4177C37.1057 78.019 37.1954 77.6203 37.2912 77.2278C37.5013 77.336 37.7053 77.4534 37.9093 77.577C38.5336 77.9541 39.4144 78.5691 39.8904 79.5303C40.4034 80.5687 40.2612 81.7988 39.5411 82.5251C39.1486 82.9207 38.6448 83.1215 38.1658 83.239Z" fill="#F9B35E"/>
<path d="M37.0192 78.4177C36.5741 78.1643 36.1105 77.9448 35.6315 77.7625C35.6531 77.6234 35.6748 77.4874 35.6995 77.3483C35.7428 77.0918 35.7891 76.8384 35.8355 76.585C36.3331 76.7642 36.8183 76.9806 37.2881 77.2278C37.1922 77.6203 37.1026 78.0159 37.0192 78.4177Z" fill="#F9CDA9"/>
<path d="M57.0153 59.5434C56.9504 59.5248 56.8886 59.497 56.833 59.4568C56.0758 58.9191 55.3155 58.3844 54.5583 57.8466C55.0342 57.7539 55.5226 57.6148 56.0047 57.4325C56.5054 57.7879 57.0091 58.1433 57.5098 58.4987C57.7756 58.6873 57.8374 59.052 57.6489 59.3178C57.5036 59.5248 57.244 59.6083 57.0153 59.5434Z" fill="#F9B35E"/>
<path d="M54.5583 57.8467C53.1459 56.8485 51.7335 55.8471 50.3211 54.8519C50.6734 54.617 51.0319 54.3914 51.3904 54.172C52.9296 55.2599 54.4656 56.3478 56.0047 57.4357C55.5226 57.618 55.0343 57.7571 54.5583 57.8498V57.8467Z" fill="#F9CDA9"/>
<path d="M75.3178 59.0489C75.0644 58.9779 74.8789 58.7399 74.8882 58.4648C74.9562 56.3663 74.5977 54.2214 73.856 52.2589C73.7416 51.956 73.8931 51.6191 74.1959 51.5017C74.3165 51.4553 74.4432 51.4523 74.5606 51.4832C74.7337 51.5326 74.8851 51.6593 74.9531 51.8417C75.7536 53.9464 76.1368 56.2519 76.0626 58.5019C76.0534 58.8264 75.7814 59.0798 75.4569 59.0706C75.4105 59.0675 75.3642 59.0613 75.3178 59.0489Z" fill="#F9B35E"/>
<path d="M93.0454 62.4764C92.4335 62.3064 91.8741 62.0097 91.4445 61.4874C90.8759 60.7982 90.7028 59.8062 90.9995 58.9624C91.12 58.6163 91.3209 58.3041 91.5712 58.0383C91.8587 58.301 92.143 58.5699 92.4211 58.845C92.279 58.9902 92.1708 59.1633 92.1028 59.3518C91.9421 59.8092 92.041 60.3655 92.347 60.7395C92.5973 61.0455 92.9558 61.2309 93.3669 61.3453C93.8274 61.472 94.3528 61.5091 94.8658 61.5183C95.1254 61.8367 95.3819 62.1581 95.6323 62.4857C95.5241 62.6124 95.3634 62.6959 95.181 62.6959C94.4764 62.6928 93.7285 62.6649 93.0424 62.4764H93.0454Z" fill="#F9B35E"/>
<path d="M48.3586 84.775C47.4808 84.5308 46.6989 84.1136 46.087 83.5573C45.985 83.001 45.8675 82.4138 45.7223 81.8049C46.0221 81.944 46.3373 82.0584 46.6649 82.1511C47.3634 82.3458 48.1268 82.4292 48.9149 82.3829C49.261 83.31 49.7122 84.197 50.2593 85.0191C49.5948 85.0253 48.955 84.9388 48.3586 84.775ZM51.6006 84.8862C50.9918 84.0672 50.4911 83.171 50.1109 82.2191C50.1511 82.2098 50.1944 82.2005 50.2346 82.1912C51.3904 81.9224 52.4072 81.4093 53.217 80.7418C53.455 80.5471 53.6713 80.34 53.8722 80.1205C54.4099 81.0075 54.9632 81.8945 55.5442 82.7661C54.6634 83.7211 53.4086 84.469 51.9282 84.8152C51.82 84.8399 51.7088 84.8646 51.6006 84.8832V84.8862ZM56.2859 81.7617C55.7111 80.8839 55.161 79.9846 54.6201 79.0914C55.1301 78.1828 55.3371 77.169 55.1486 76.1708C55.9738 76.7858 56.5703 77.6203 56.8021 78.6154C57.0524 79.691 56.8422 80.7881 56.2828 81.7617H56.2859Z" fill="#D29156"/>
<path d="M55.5442 82.7692C54.9663 81.8977 54.413 81.0076 53.8722 80.1237C54.1658 79.8022 54.4161 79.4561 54.6201 79.0945C55.1579 79.9877 55.7111 80.8839 56.2859 81.7648C56.082 82.1171 55.8347 82.4571 55.5442 82.7723V82.7692Z" fill="#CE8459"/>
<path d="M46.087 83.5573C45.4565 82.9825 45.0022 82.2562 44.8075 81.4186C44.792 81.3599 44.7797 81.2981 44.7704 81.2394C44.8106 81.2703 44.8538 81.2981 44.894 81.329C45.1505 81.5083 45.4287 81.669 45.7254 81.805C45.8675 82.4138 45.985 83.001 46.0901 83.5573H46.087Z" fill="#CE8459"/>
<path d="M50.2593 85.0192C49.7122 84.1971 49.261 83.3132 48.9149 82.3829C49.3074 82.3613 49.7091 82.3087 50.1109 82.2191C50.488 83.1679 50.9917 84.0673 51.6006 84.8863C51.1494 84.9728 50.6981 85.0161 50.2624 85.0192H50.2593Z" fill="#CE8459"/>
<path d="M55.1115 75.9916C55.7296 78.6433 53.5477 81.4187 50.2376 82.1944C46.9245 82.9701 43.7381 81.4465 43.1169 78.7978C42.4988 76.1461 44.6808 73.3708 47.9908 72.595C51.3039 71.8193 54.4903 73.3429 55.1115 75.9916Z" fill="#FF5722"/>
<path d="M46.668 82.1511C46.3373 82.0615 46.0221 81.944 45.7254 81.8049C46.0252 81.944 46.3404 82.0584 46.6711 82.1511C47.3696 82.3458 48.1329 82.4262 48.918 82.3829C48.1299 82.4262 47.3696 82.3427 46.668 82.1511ZM50.1109 82.2222C50.1542 82.2129 50.1944 82.2036 50.2376 82.1944C51.3904 81.9255 52.4103 81.4124 53.217 80.7449C52.4072 81.4124 51.3904 81.9255 50.2345 82.1944C50.1944 82.2036 50.1511 82.2129 50.1109 82.2222Z" fill="#B36C54"/>
<path d="M45.7254 81.8049C45.4318 81.6689 45.1536 81.5082 44.894 81.329C45.1505 81.5082 45.4287 81.6689 45.7254 81.8049Z" fill="#B06356"/>
<path d="M48.9179 82.3829C49.3105 82.3613 49.7122 82.3087 50.1109 82.2191C49.7091 82.3057 49.3105 82.3582 48.9149 82.3829H48.9179Z" fill="#B06356"/>
<path d="M46.668 82.1511C46.3373 82.0615 46.0221 81.944 45.7223 81.805C45.4287 81.669 45.1505 81.5083 44.8909 81.329C44.1739 80.8283 43.6176 80.167 43.3024 79.3819C43.3518 79.5056 43.4105 79.6261 43.4692 79.7435C43.4754 79.453 43.5156 79.1656 43.5805 78.8813C44.1955 79.4437 44.9805 79.8672 45.8645 80.1113C46.9493 80.4111 48.1824 80.4451 49.4341 80.1546C51.9622 79.5612 53.832 77.8057 54.2987 75.8278C54.6696 76.1677 54.9786 76.5602 55.2073 76.996C55.2197 76.6622 55.1826 76.3223 55.1053 75.9885C55.5102 77.7161 54.7252 79.4963 53.2139 80.7418C52.4042 81.4094 51.3873 81.9224 50.2346 82.1913C50.1913 82.2006 50.1511 82.2098 50.1078 82.2191C49.7061 82.3056 49.3074 82.3582 48.9149 82.3829C48.1268 82.4262 47.3665 82.3427 46.668 82.1511Z" fill="#D2442F"/>
<path d="M53.5291 73.5963C52.9697 73.1667 52.3022 72.8391 51.5604 72.632C51.2483 72.5455 50.9207 72.4806 50.5869 72.4404C50.9238 72.4806 51.2483 72.5455 51.5635 72.632C52.3022 72.836 52.9728 73.1636 53.5291 73.5963Z" fill="#FFEBC5"/>
<path d="M43.3055 79.382C43.2282 79.1934 43.1664 78.9956 43.12 78.7917C43.1015 78.7113 43.086 78.631 43.0706 78.5537C43.0829 78.634 43.1015 78.7113 43.12 78.7917C43.1664 78.9956 43.2313 79.1904 43.3055 79.382ZM43.5867 78.8844C43.3827 78.6959 43.1973 78.495 43.0335 78.2755C43.0335 78.2786 43.0335 78.2786 43.0335 78.2817C42.7831 75.7938 44.894 73.3151 47.9939 72.5919C48.884 72.3849 49.7617 72.3416 50.5869 72.4405C50.9207 72.4807 51.2483 72.5456 51.5604 72.6321C52.2991 72.8361 52.9697 73.1637 53.5291 73.5964C54.3172 74.2052 54.8859 75.0211 55.1115 75.9885C54.9786 75.4322 54.7345 74.9191 54.4007 74.4741C54.444 74.9284 54.41 75.3858 54.3049 75.8278C53.6898 75.2622 52.9048 74.8419 52.0178 74.5977C51.4646 74.4463 50.8743 74.3598 50.2624 74.3536C50.1851 75.7073 48.2566 76.6097 46.94 76.245C46.5629 76.1399 46.2353 75.9329 46.0159 75.6022C44.7611 76.4397 43.8896 77.6172 43.5898 78.8813L43.5867 78.8844Z" fill="#FFC4B2"/>
<path d="M43.4723 79.7467C43.4105 79.6292 43.3549 79.5087 43.3054 79.3851C43.2282 79.1965 43.1664 78.9987 43.12 78.7948C43.1015 78.7144 43.086 78.6341 43.0706 78.5568C43.0551 78.4672 43.0427 78.3775 43.0335 78.2848C43.0335 78.2817 43.0335 78.2817 43.0335 78.2786C43.1973 78.495 43.3827 78.699 43.5867 78.8875C43.5187 79.1718 43.4816 79.4592 43.4754 79.7498L43.4723 79.7467ZM55.2104 76.996C54.9817 76.5603 54.6726 76.1678 54.3018 75.8278C54.4069 75.3828 54.4409 74.9284 54.3976 74.4741C54.7345 74.9192 54.9786 75.4322 55.1084 75.9885C55.1857 76.3223 55.2228 76.6623 55.2104 76.996Z" fill="#EFBEB6"/>
<path d="M62.8442 70.9601C62.6958 70.9199 62.5506 70.8735 62.4053 70.8241C61.781 70.3481 61.1413 69.8969 60.483 69.4735C60.4304 69.4395 60.3779 69.4148 60.3192 69.3993C60.2264 69.3746 60.1306 69.3715 60.0379 69.3931C59.188 68.5618 58.6688 67.511 58.6286 66.3767C59.3703 67.1772 60.4057 67.7953 61.6079 68.126C62.0313 68.2434 62.4764 68.3269 62.94 68.3671C63.7744 68.9883 64.5749 69.5971 65.3352 70.1843C65.7122 70.4748 66.0893 70.7684 66.4663 71.062C65.8884 71.1888 65.2734 71.2475 64.6398 71.2289C64.0093 71.2104 63.4067 71.1177 62.838 70.9601H62.8442ZM67.8169 70.6263C67.2297 70.1658 66.6425 69.7084 66.0553 69.2541C65.6535 68.945 65.2394 68.6267 64.816 68.3052C65.4712 68.2032 66.0893 68.0178 66.6487 67.7613C68.3238 66.9979 69.5013 65.6133 69.6867 63.9846C69.6991 63.8733 69.7084 63.759 69.7115 63.6446C69.7146 63.5612 69.7146 63.4777 69.7115 63.3943C70.515 64.2566 70.9755 65.329 70.9415 66.4818C70.889 68.2805 69.6404 69.8196 67.8138 70.6263H67.8169Z" fill="#D29156"/>
<path d="M66.4725 71.0621C66.0955 70.7685 65.7184 70.4749 65.3414 70.1843C64.5811 69.5971 63.7806 68.9883 62.9462 68.3671C63.1007 68.3794 63.2583 68.3918 63.4159 68.3949C63.8981 68.4103 64.3678 68.3794 64.8191 68.3083C65.2425 68.6298 65.6566 68.945 66.0584 69.2572C66.6456 69.7084 67.2328 70.1689 67.82 70.6294C67.3997 70.8148 66.9485 70.9632 66.4725 71.0652V71.0621Z" fill="#CE8459"/>
<path d="M62.4084 70.824C61.4812 70.5026 60.6746 70.0081 60.0441 69.3931C60.1368 69.3746 60.2326 69.3746 60.3253 69.3993C60.381 69.4147 60.4366 69.4395 60.4891 69.4735C61.1474 69.9 61.7872 70.3481 62.4115 70.824H62.4084Z" fill="#CE8459"/>
<path d="M69.7146 63.6446C69.6342 66.3643 66.8156 68.4907 63.4159 68.3918C60.0163 68.2929 57.3244 66.0058 57.4016 63.2861C57.482 60.5664 60.3006 58.4401 63.7003 58.539C67.0999 58.6379 69.7918 60.9249 69.7146 63.6446Z" fill="#83C351"/>
<path d="M58.6348 66.3736C58.5668 66.2994 58.4988 66.2252 58.437 66.1479C58.5019 66.2252 58.5668 66.2994 58.6348 66.3736Z" fill="#D29156"/>
<path d="M61.6141 68.126C60.4119 67.7922 59.3765 67.1741 58.6348 66.3767C59.3765 67.1772 60.4119 67.7953 61.6172 68.1291C62.0406 68.2465 62.4857 68.3269 62.9462 68.3701C62.4857 68.33 62.0406 68.2465 61.6141 68.1291V68.126ZM64.8191 68.3083C65.4743 68.2063 66.0924 68.0209 66.6549 67.7644C66.0924 68.0209 65.4743 68.2063 64.8222 68.3083H64.8191Z" fill="#B36C54"/>
<path d="M62.9462 68.3671C63.1007 68.3825 63.2583 68.3918 63.4159 68.3949C63.8981 68.4103 64.3647 68.3794 64.8191 68.3083C64.3678 68.3794 63.8981 68.4103 63.4159 68.3949C63.2583 68.3918 63.1007 68.3794 62.9462 68.3671Z" fill="#B06356"/>
<path d="M61.6141 68.126C60.4119 67.7922 59.3765 67.1741 58.6317 66.3736C58.5637 66.2994 58.4957 66.2253 58.4339 66.148C57.8776 65.4742 57.5191 64.6892 57.4264 63.8455C57.4449 63.9969 57.4696 64.1484 57.5036 64.2967C57.584 64.0186 57.6952 63.7497 57.8312 63.4932C58.5637 64.6336 59.8247 65.5268 61.3607 65.9502C61.9294 66.1078 62.532 66.2005 63.1625 66.2191C65.7586 66.2932 68.0147 65.0756 68.9728 63.283C69.2448 63.7064 69.4426 64.1638 69.5508 64.646C69.5878 64.5285 69.6157 64.4111 69.6404 64.2905C69.3499 65.7895 68.2187 67.0504 66.6487 67.7644C66.0862 68.0209 65.4681 68.2063 64.8129 68.3083C64.3617 68.3794 63.8919 68.4103 63.4097 68.3949C63.2521 68.3918 63.0945 68.3825 62.94 68.367C62.4795 68.3269 62.0344 68.2434 61.611 68.126H61.6141ZM57.4264 62.9461C57.4295 62.9091 57.4356 62.8689 57.4418 62.8318C57.4356 62.8689 57.4325 62.906 57.4264 62.9461Z" fill="#7C8F50"/>
<path d="M65.5052 58.8079C64.9365 58.6502 64.3338 58.5575 63.7033 58.539C64.3338 58.5575 64.9396 58.6502 65.5052 58.8079Z" fill="#FFEBC5"/>
<path d="M69.6898 63.9846C69.7022 63.8734 69.7115 63.759 69.7146 63.6447C69.7177 63.5612 69.7177 63.4747 69.7146 63.3912C69.7177 63.4747 69.7177 63.5581 69.7146 63.6416C69.7115 63.7559 69.7022 63.8703 69.6898 63.9815V63.9846Z" fill="#EFD9C4"/>
<path d="M57.4264 63.8455C57.4047 63.6632 57.3986 63.4747 57.4047 63.2861C57.4078 63.1718 57.4171 63.0574 57.4295 62.9431C57.4171 63.0543 57.4109 63.1687 57.4047 63.2861C57.3986 63.4747 57.4078 63.6601 57.4264 63.8455ZM57.8343 63.4932C57.686 63.2614 57.5562 63.0173 57.4542 62.7638C57.4511 62.7855 57.448 62.8071 57.4418 62.8318C57.7911 60.4057 60.3408 58.5544 63.4252 58.5359C63.5148 58.5359 63.6076 58.5359 63.7003 58.539C64.3308 58.5575 64.9334 58.6502 65.5021 58.8079C67.9066 59.4723 69.6404 61.2834 69.7115 63.3943C69.7146 63.4777 69.7146 63.5612 69.7115 63.6477C69.7084 63.7621 69.6991 63.8733 69.6868 63.9877C69.6744 64.0897 69.6589 64.1917 69.6404 64.2937C69.6806 64.0835 69.7053 63.8672 69.7115 63.6477C69.7269 63.076 69.6218 62.5197 69.4117 62.0004C69.3375 62.4517 69.1892 62.8844 68.9728 63.2861C68.2898 62.2137 67.1339 61.3607 65.7246 60.9095C65.329 61.9726 63.7775 62.3497 62.5908 62.019C61.9541 61.8428 61.4194 61.4627 61.2278 60.8755C59.701 61.3452 58.4741 62.291 57.8312 63.4963L57.8343 63.4932Z" fill="#D4EAC2"/>
<path d="M57.5036 64.2967C57.4696 64.1484 57.4418 64 57.4264 63.8455C57.4047 63.6601 57.3986 63.4746 57.4047 63.2861C57.4078 63.1686 57.4171 63.0574 57.4295 62.943C57.4326 62.9059 57.4387 62.8658 57.4449 62.8287C57.448 62.807 57.4511 62.7854 57.4573 62.7607C57.5593 63.011 57.686 63.2552 57.8374 63.4901C57.7014 63.7466 57.5902 64.0155 57.5098 64.2936L57.5036 64.2967ZM69.5508 64.646C69.4426 64.1638 69.2448 63.7064 68.9728 63.283C69.1892 62.8812 69.3375 62.4485 69.4117 61.9973C69.6218 62.5134 69.7269 63.0697 69.7115 63.6446C69.7053 63.864 69.6806 64.0804 69.6404 64.2905C69.6157 64.4111 69.5879 64.5285 69.5508 64.646Z" fill="#D1D8C2"/>
<path d="M83.4121 75.8772C82.2098 75.5465 81.2085 74.8233 80.6398 73.754C80.4482 73.3924 80.3153 73.0123 80.2411 72.6228C80.5193 72.8145 80.8221 72.9752 81.1467 73.105C81.3259 73.1761 81.5114 73.2379 81.6999 73.2904C82.7723 73.5871 84.0055 73.5716 85.2324 73.2162C86.9879 73.5778 89.006 73.3337 91.2622 72.4868C90.6471 73.5655 89.6643 74.5359 88.3941 75.2128C86.7252 76.0998 84.9141 76.2945 83.4121 75.8772ZM87.402 72.1871C88.1067 71.7049 88.7001 71.1301 89.1575 70.4996C90.0568 69.2665 90.4524 67.8262 90.199 66.5096C90.746 66.8805 91.1973 67.3688 91.5125 67.9653C92.0039 68.8894 92.0997 69.9402 91.8618 70.9725C90.2299 71.6988 88.7402 72.1036 87.402 72.1871Z" fill="#D29156"/>
<path d="M85.2324 73.2161C85.7207 73.074 86.206 72.8762 86.6788 72.6258C86.9322 72.4899 87.1733 72.3477 87.402 72.1901C88.7402 72.1066 90.2299 71.7018 91.8617 70.9755C91.7443 71.4916 91.5403 72.0015 91.2622 72.4899C89.006 73.3367 86.9879 73.5808 85.2324 73.2192V73.2161Z" fill="#CE8459"/>
<path d="M89.8003 65.3784C91.0798 67.7829 89.6829 71.0249 86.6788 72.6228C83.6748 74.2206 80.204 73.5685 78.9245 71.1671C77.645 68.7626 79.042 65.5206 82.046 63.9228C85.047 62.3249 88.5208 62.977 89.8003 65.3784Z" fill="#1D9CD7"/>
<path d="M81.703 73.2903C82.7754 73.587 84.0085 73.5716 85.2355 73.2161C84.0116 73.5716 82.7785 73.587 81.703 73.2903ZM87.402 72.187C88.1067 71.7048 88.7001 71.13 89.1606 70.4995C88.7001 71.13 88.1098 71.7079 87.4051 72.187H87.402Z" fill="#B36C54"/>
<path d="M85.2324 73.2161C85.7207 73.074 86.206 72.8762 86.6819 72.6258C86.9322 72.4929 87.1733 72.3446 87.402 72.1901C87.1733 72.3477 86.9322 72.4899 86.6788 72.6258C86.206 72.8793 85.7176 73.074 85.2324 73.2161Z" fill="#B06356"/>
<path d="M81.6999 73.2903C81.5083 73.2378 81.3259 73.176 81.1467 73.1049C80.4142 72.8113 79.7806 72.357 79.3109 71.7543C79.3758 71.8377 79.4468 71.9181 79.5179 71.9954C79.4499 71.7141 79.4128 71.4236 79.4036 71.1362C79.7157 71.3 80.0526 71.4298 80.408 71.5287C81.91 71.9428 83.7211 71.7512 85.3901 70.8611C87.6802 69.6372 89.0369 67.4615 88.9813 65.4309C89.4264 65.6627 89.825 65.9625 90.1588 66.3272C90.0816 66.0027 89.9641 65.6844 89.8003 65.3815C89.7447 65.2733 89.6829 65.1713 89.618 65.0693C89.6829 65.1713 89.7447 65.2733 89.8034 65.3784C90.6441 66.9577 90.3288 68.9017 89.1637 70.5026C88.7032 71.1331 88.1129 71.7079 87.4051 72.1901C87.1764 72.3446 86.9353 72.4929 86.685 72.6258C86.2091 72.8793 85.7238 73.074 85.2355 73.2161C84.0086 73.5746 82.7785 73.587 81.703 73.2903H81.6999ZM78.8102 70.9229C78.7762 70.8487 78.7453 70.7777 78.7206 70.7004C78.7484 70.7746 78.7793 70.8487 78.8102 70.9229Z" fill="#3574AE"/>
<path d="M79.1038 71.4669C79.0852 71.4391 79.0698 71.4143 79.0543 71.3865C79.0698 71.4143 79.0883 71.4422 79.1038 71.4669Z" fill="#FFEBC5"/>
<path d="M88.4652 63.9073C88.0387 63.6199 87.5534 63.4005 87.028 63.2552C86.8457 63.2058 86.6603 63.1625 86.4717 63.1316C86.6603 63.1656 86.8457 63.2058 87.028 63.2552C87.5504 63.4005 88.0387 63.6199 88.4652 63.9073Z" fill="#FDE4C7"/>
<path d="M79.3109 71.7513C79.2367 71.6585 79.1687 71.5627 79.1038 71.4638C79.0852 71.436 79.0698 71.4113 79.0543 71.3835C79.0111 71.3124 78.9678 71.2413 78.9307 71.164C78.8874 71.0837 78.8473 71.0033 78.8102 70.9199C78.8473 71.0002 78.8874 71.0837 78.9307 71.164C79.042 71.3711 79.1687 71.5689 79.3109 71.7513ZM79.4036 71.1331C79.1594 71.0033 78.9276 70.855 78.7144 70.6881C78.7144 70.6912 78.7175 70.6974 78.7175 70.7005C77.8305 68.3578 79.2367 65.4186 82.0491 63.9197C82.4756 63.6941 82.9114 63.5117 83.3472 63.3727C84.4134 63.0358 85.492 62.9616 86.4718 63.1285C86.6603 63.1625 86.8457 63.2027 87.0281 63.2521C87.5504 63.3974 88.0356 63.6137 88.4652 63.9042C88.9226 64.2133 89.312 64.5996 89.6149 65.0632C89.3707 64.6893 89.0679 64.3647 88.7217 64.0928C88.8824 64.5224 88.9659 64.9705 88.9782 65.4248C88.6661 65.261 88.3323 65.1312 87.98 65.0323C87.1115 64.7912 86.138 64.7572 85.149 64.9396C85.7331 66.6085 83.5511 68.2403 81.9904 67.8108C81.635 67.7119 81.3136 67.5079 81.0601 67.171C79.9661 68.3331 79.3665 69.764 79.4036 71.127V71.1331Z" fill="#B0DCF1"/>
<path d="M79.5179 71.9955C79.4469 71.9182 79.3758 71.8378 79.3109 71.7544C79.1687 71.5721 79.042 71.3773 78.9307 71.1672C78.8875 71.0868 78.8473 71.0065 78.8102 70.923C78.7762 70.8489 78.7484 70.7778 78.7206 70.7005C78.7175 70.6974 78.7175 70.6912 78.7175 70.6881C78.9307 70.855 79.1625 71.0034 79.4067 71.1332C79.4159 71.4237 79.453 71.7111 79.521 71.9924L79.5179 71.9955ZM90.1588 66.3273C89.8251 65.9657 89.4264 65.6659 88.9813 65.431C88.969 64.9736 88.8855 64.5255 88.7248 64.099C89.071 64.371 89.3738 64.6986 89.618 65.0694C89.6829 65.1714 89.7447 65.2734 89.8003 65.3816C89.9641 65.6845 90.0847 66.0028 90.1588 66.3273Z" fill="#B8CEE3"/>
<path d="M88.4776 92.6869C87.8471 92.5138 87.2599 92.2696 86.7407 91.9729C85.557 91.2776 85.0316 90.2082 85.2726 88.9627C85.3653 89.0307 85.4642 89.0925 85.5693 89.1543C85.9062 89.349 86.2709 89.519 86.6572 89.6612C86.8674 89.7384 87.0837 89.8095 87.3062 89.8682C88.2303 90.1248 89.2471 90.236 90.2794 90.1711C90.9748 90.1279 91.6794 90.0042 92.3655 89.7941C93.4998 90.406 94.6433 90.9809 95.793 91.5124C95.5519 91.6886 95.2954 91.8493 95.0234 91.9915C92.928 93.1165 90.4803 93.2432 88.4745 92.6869H88.4776ZM96.7387 90.6502C95.7497 90.202 94.7607 89.723 93.781 89.213C93.8088 89.2007 93.8336 89.1852 93.8614 89.1698C95.0451 88.5455 95.9599 87.5719 96.4482 86.481C96.9396 86.586 97.431 86.6818 97.9224 86.7715C98.2068 88.1159 97.7246 89.5345 96.7387 90.6471V90.6502Z" fill="#D29156"/>
<path d="M95.7961 91.5094C94.6464 90.9779 93.5028 90.4061 92.3686 89.7911C92.8507 89.6427 93.3236 89.4511 93.781 89.2131C94.7638 89.7231 95.7497 90.2021 96.7387 90.6503C96.4636 90.9624 96.1453 91.2529 95.7961 91.5094Z" fill="#CE8459"/>
<path d="M96.7851 85.356C96.8129 85.1737 96.8314 84.9883 96.8345 84.8059C96.8685 84.8399 96.8994 84.8739 96.9303 84.9079C97.1003 85.0933 97.2517 85.2819 97.3785 85.4797C97.1807 85.4395 96.9829 85.3993 96.7851 85.3591V85.356Z" fill="#D29156"/>
<path d="M96.4451 86.4841C96.4698 86.4316 96.4915 86.376 96.5131 86.3203C96.6398 86.0051 96.7325 85.6837 96.782 85.3561C96.9798 85.3993 97.1776 85.4395 97.3754 85.4766C97.6473 85.8908 97.8266 86.3296 97.9193 86.7716C97.4248 86.6819 96.9334 86.5861 96.4451 86.4811V86.4841Z" fill="#CE8459"/>
<path d="M93.8583 89.1698C91.1046 90.6502 87.7389 90.3998 85.5724 89.1512C83.4492 87.9026 83.443 85.4642 86.1782 82.9299C88.8824 80.3894 93.6018 79.7373 95.759 82.0892C97.9131 84.4134 96.5965 87.7265 93.8583 89.1729V89.1698Z" fill="#FA5C98"/>
<path d="M85.2726 88.9597C84.8152 88.6321 84.4783 88.2396 84.2774 87.7976C84.3022 87.8502 84.3269 87.9027 84.3547 87.9552C84.5618 88.3354 84.8677 88.6723 85.2726 88.9597ZM95.7559 82.0862C95.5828 81.8977 95.3943 81.7308 95.1934 81.5793C95.3943 81.7277 95.5828 81.8977 95.7559 82.0862Z" fill="#D29156"/>
<path d="M95.1934 81.5825C95.0976 81.5114 94.9987 81.4434 94.8967 81.3816C94.9987 81.4434 95.1007 81.5114 95.1965 81.5856L95.1934 81.5825Z" fill="#CE8459"/>
<path d="M86.6603 89.6581C86.274 89.516 85.9062 89.346 85.5724 89.1513C85.4673 89.0895 85.3684 89.0246 85.2757 88.9597C85.3715 89.0276 85.4704 89.0925 85.5755 89.1513C85.9124 89.346 86.274 89.516 86.6634 89.6581H86.6603ZM90.2825 90.1681C90.9778 90.1248 91.6825 90.0012 92.3686 89.791C91.6825 90.0043 90.9778 90.1248 90.2825 90.1681ZM93.781 89.21C93.8088 89.1945 93.8335 89.1822 93.8614 89.1667C95.0451 88.5424 95.9599 87.5689 96.4482 86.4779C95.963 87.5689 95.0451 88.5424 93.8614 89.1667C93.8366 89.1822 93.8088 89.1945 93.781 89.21Z" fill="#B36C54"/>
<path d="M92.3686 89.791C92.8507 89.6426 93.3236 89.451 93.7779 89.21C93.3205 89.4479 92.8476 89.6426 92.3655 89.7879L92.3686 89.791Z" fill="#B06356"/>
<path d="M96.4451 86.4841C96.4698 86.4316 96.4915 86.3759 96.5131 86.3203C96.4915 86.3759 96.4667 86.4285 96.4451 86.4841Z" fill="#B06356"/>
<path d="M87.3062 89.8683C87.0837 89.8065 86.8674 89.7385 86.6572 89.6612C86.2709 89.5191 85.9062 89.3491 85.5693 89.1544C85.4642 89.0926 85.3653 89.0277 85.2695 88.9628C84.8647 88.6753 84.5587 88.3354 84.3516 87.9583C84.5216 88.2674 84.7565 88.5517 85.0594 88.799C85.0408 88.5733 85.0532 88.3415 85.0903 88.1005C85.3344 88.1932 85.5848 88.2766 85.8444 88.3508C87.8502 88.904 90.2979 88.7804 92.3934 87.6554C94.2693 86.6664 95.4778 84.7966 95.3603 82.9701C95.8826 83.2019 96.3493 83.5202 96.7387 83.9344C96.7047 83.7798 96.6615 83.6284 96.6089 83.477C96.9427 84.4134 96.8809 85.4055 96.51 86.3265C96.4884 86.3821 96.4637 86.4347 96.442 86.4903C95.9537 87.5813 95.0389 88.5548 93.8552 89.1791C93.8305 89.1945 93.8027 89.2069 93.7748 89.2224C93.3174 89.4603 92.8446 89.6551 92.3655 89.8034C91.6794 90.0136 90.9748 90.1372 90.2794 90.1805C89.2471 90.2454 88.2272 90.1341 87.3031 89.8776L87.3062 89.8683Z" fill="#CF4782"/>
<path d="M84.2774 87.7976C83.9035 86.9909 83.9746 86.0143 84.5371 84.9635C83.9993 85.971 83.9128 86.9106 84.2342 87.6987C84.2465 87.7327 84.262 87.7667 84.2774 87.7976Z" fill="#FFEBC5"/>
<path d="M84.537 84.9636C84.6978 84.6607 84.9017 84.3516 85.149 84.0364C84.9048 84.3485 84.7008 84.6607 84.537 84.9636Z" fill="#FDE4C7"/>
<path d="M96.5007 83.1927C96.4204 83.0134 96.3215 82.8341 96.2102 82.6611C96.0804 82.4633 95.932 82.2717 95.759 82.0831C96.0835 82.4324 96.3276 82.8063 96.5038 83.1896L96.5007 83.1927Z" fill="#FFEBC5"/>
<path d="M94.8967 81.3815C94.8473 81.3506 94.7978 81.3228 94.7453 81.2919C94.7947 81.3197 94.8442 81.3506 94.8967 81.3784V81.3815Z" fill="#FDE4C7"/>
<path d="M85.0965 88.0974C84.7936 87.98 84.5062 87.8471 84.2342 87.6987C83.9128 86.9106 83.9993 85.9711 84.5371 84.9636C84.7009 84.6607 84.9018 84.3516 85.149 84.0364C85.4333 83.6717 85.7764 83.3039 86.1782 82.9299C88.187 81.0447 91.3055 80.1979 93.6636 80.85C94.0468 80.9551 94.4115 81.1034 94.7453 81.2888C94.7947 81.3166 94.8442 81.3476 94.8967 81.3785C95.1811 81.8884 95.3325 82.4231 95.3665 82.9639C95.144 82.865 94.9091 82.7816 94.668 82.7167C93.5585 82.4107 92.2821 82.4355 91.0304 82.7445C91.1695 83.8973 89.482 84.9975 88.3694 84.6885C88.1345 84.6236 87.9274 84.4969 87.7667 84.2991C87.5658 84.4567 87.3711 84.6205 87.1857 84.7936C85.9402 85.9494 85.2633 87.0837 85.0965 88.0974ZM96.6151 83.4708C96.5162 83.1957 96.3833 82.9238 96.2102 82.6642C96.3246 82.8372 96.4204 83.0134 96.5007 83.1957C96.544 83.2885 96.5811 83.3812 96.612 83.4739L96.6151 83.4708Z" fill="#FDC6DB"/>
<path d="M84.3547 87.9552C84.3269 87.9027 84.3022 87.8532 84.2774 87.7976C84.262 87.7636 84.2465 87.7327 84.2342 87.6987C84.2682 87.7852 84.3083 87.8718 84.3547 87.9552ZM96.2102 82.6641C96.0804 82.4663 95.9321 82.2747 95.759 82.0892C95.5859 81.9007 95.3974 81.7307 95.1934 81.5824C95.3974 81.7307 95.5859 81.9007 95.7559 82.0892C95.929 82.2747 96.0804 82.4694 96.2071 82.6672L96.2102 82.6641Z" fill="#EFD9C4"/>
<path d="M85.0624 88.7959C84.7596 88.5456 84.5247 88.2643 84.3547 87.9553C84.3083 87.8718 84.2682 87.7853 84.2342 87.6988C84.5061 87.8471 84.7936 87.98 85.0964 88.0974C85.0563 88.3385 85.047 88.5703 85.0655 88.7959H85.0624ZM96.7418 83.9313C96.3555 83.5172 95.8857 83.1958 95.3634 82.9671C95.3294 82.4262 95.178 81.8915 94.8936 81.3816C94.9956 81.4434 95.0945 81.5114 95.1903 81.5825C95.3943 81.7339 95.5828 81.9008 95.7559 82.0893C95.929 82.2748 96.0773 82.4664 96.2071 82.6642C96.3771 82.9269 96.5131 83.1958 96.612 83.4708C96.6645 83.6223 96.7109 83.7737 96.7418 83.9282V83.9313Z" fill="#EEBFD3"/>
<path d="M54.444 130.547C48.133 131.134 43.392 127.441 41.4511 122.972C41.1915 122.375 40.9844 121.766 40.8299 121.151V121.148C40.1623 118.521 40.4621 115.789 41.9518 113.607C42.1959 113.555 42.437 113.471 42.6657 113.351L46.0066 111.58C46.155 111.502 46.2941 111.407 46.4208 111.305C49.7277 111.657 51.7984 113.159 52.945 115.06C53.2232 115.517 53.4426 115.993 53.6157 116.485H53.6188C53.6497 116.574 53.6806 116.664 53.7084 116.753C53.7238 116.797 53.7362 116.84 53.7486 116.883C53.8536 117.236 53.934 117.591 53.9896 117.949C53.9927 117.962 53.9958 117.971 53.9958 117.983C54.1133 118.722 54.1318 119.464 54.0731 120.181C53.8629 122.669 53.1768 125.84 55.1641 129.1C55.5318 129.706 55.1517 130.482 54.447 130.547H54.444Z" fill="#FFC659"/>
<path d="M46.5444 111.543C46.4208 111.645 46.2786 111.737 46.1302 111.815L42.7924 113.589C42.5637 113.709 42.3226 113.793 42.0785 113.845C41.3553 113.994 40.5857 113.839 39.9614 113.391C38.9539 112.668 37.9309 111.694 36.9048 110.52C33.0694 106.153 29.1814 99.103 25.8065 92.7364C25.346 91.868 24.8948 90.9933 24.4559 90.1187V90.1156C17.0292 75.2808 12.8538 59.6733 15.7003 58.162C18.7198 56.5641 30.2786 70.1009 38.5367 85.6682C39.776 88.0047 41.0215 90.4463 42.1743 92.8817V92.8848C44.2357 97.2394 46.0004 101.566 46.9122 105.21C47.2861 106.715 47.5148 108.103 47.5612 109.333C47.5952 110.204 47.2089 111.017 46.5506 111.54L46.5444 111.543Z" fill="#22A7F0"/>
<path d="M42.6101 125.067C44.9713 128.525 49.159 131.038 54.447 130.547C55.1517 130.482 55.5318 129.703 55.1641 129.1C53.1768 125.84 53.8629 122.669 54.0731 120.178C54.1596 119.139 54.0762 118.045 53.7764 116.985C53.7578 119.068 53.8938 121.383 51.9344 122.421C50.5282 123.169 49.1312 122.066 47.7188 120.96C46.3466 119.884 44.962 118.805 43.5403 119.417C40.7897 120.598 41.2379 123.114 42.6132 125.067H42.6101Z" fill="#FA5C98"/>
<path d="M31.3108 85.5199C30.1581 85.2015 28.9682 83.103 27.5156 80.6862C25.6891 77.6512 24.1345 75.2653 25.5747 74.3968C25.9919 74.1465 26.5142 74.1156 27.086 74.2732C28.4829 74.6595 30.1951 76.1708 31.4901 78.325C33.3166 81.3599 33.6319 84.5247 32.1917 85.3901C31.8981 85.5662 31.6044 85.6033 31.3108 85.5199Z" fill="#65C2F5"/>
<path d="M34.7476 92.9928C34.08 92.8074 33.4836 91.8679 32.9767 90.6842C32.3215 89.1543 32.0681 87.7945 32.986 87.402C33.2425 87.2938 33.5268 87.2845 33.8173 87.3649C34.5684 87.5719 35.3595 88.36 35.8324 89.4634C36.4876 90.9932 36.2744 92.554 35.3565 92.9465C35.1494 93.0361 34.9454 93.0454 34.7507 92.9928H34.7476Z" fill="#65C2F5"/>
<path fill-rule="evenodd" clip-rule="evenodd" d="M15.6972 58.1681C13.9788 59.0798 14.8195 65.1312 17.3908 73.0493C15.7157 66.3983 15.4685 61.6944 17.1281 60.8167C17.5021 60.6158 17.9842 60.6066 18.5529 60.7642C20.4289 61.2834 23.2815 63.6384 26.6008 67.2668C21.6837 61.064 17.3754 57.2811 15.6972 58.1712V58.1681Z" fill="#65C2F5"/>
<path fill-rule="evenodd" clip-rule="evenodd" d="M26.984 94.9524C29.9201 100.407 33.1714 106.075 36.4042 109.945L37.1614 109.543L45.9541 104.876L46.7144 104.474C46.6773 104.338 46.6402 104.203 46.6 104.063C46.5506 103.9 46.498 103.733 46.4455 103.563C45.574 100.803 44.3192 97.6381 42.6688 94.0221C42.3566 96.8005 40.867 98.8094 38.685 99.613C37.387 100.092 35.8417 100.141 34.1542 99.6748C31.9383 99.0629 29.472 97.5546 26.9871 94.9493L26.984 94.9524Z" fill="#387CBF"/>
<path fill-rule="evenodd" clip-rule="evenodd" d="M65.7215 89.5623C66.284 86.2121 69.455 83.9529 72.8052 84.5153C76.1585 85.0778 78.4177 88.2488 77.8552 91.599C77.2927 94.9523 74.1187 97.2115 70.7685 96.649C67.4183 96.0865 65.159 92.9156 65.7215 89.5623ZM71.0497 83.5727C67.9838 83.8972 65.3754 86.2275 64.8407 89.4139C64.8005 89.6612 64.7696 89.9084 64.7542 90.1557C64.7264 90.6007 64.7418 91.0427 64.7974 91.4754C64.8314 91.7535 64.884 92.0317 64.9551 92.3005C64.9272 92.2542 64.8994 92.2047 64.8747 92.1584C65.227 93.6975 66.0831 95.0728 67.2916 96.0649C67.2637 96.0216 67.2328 95.9784 67.205 95.9351C67.9838 96.6027 68.8987 97.091 69.8969 97.3691C70.1349 97.434 70.376 97.4897 70.6201 97.5298C74.4525 98.1727 78.0932 95.5797 78.736 91.7473C79.0049 90.1371 78.7175 88.5208 77.9263 87.1207C77.8459 86.9785 77.7594 86.8364 77.6698 86.7004C77.6234 86.6324 77.577 86.5613 77.5276 86.4933C76.5788 85.1644 75.2313 84.2217 73.6798 83.7952C73.4418 83.7303 73.2008 83.6747 72.9535 83.6345C72.7434 83.6005 72.5332 83.5727 72.323 83.5573C71.8934 83.5233 71.4669 83.5325 71.0497 83.5758V83.5727Z" fill="#D29156"/>
<path fill-rule="evenodd" clip-rule="evenodd" d="M46.7144 104.474L45.9541 104.876L37.1613 109.543L36.4041 109.945C36.571 110.143 36.7348 110.337 36.9017 110.526C37.9278 111.697 38.9508 112.674 39.9583 113.394C40.2303 113.589 40.527 113.728 40.8361 113.811C41.1389 113.892 41.4511 113.919 41.7601 113.895C41.8652 113.885 41.9703 113.87 42.0754 113.848C42.3195 113.796 42.5606 113.712 42.7893 113.592L46.1271 111.818C46.2755 111.74 46.4177 111.648 46.5413 111.546C46.6216 111.484 46.6958 111.416 46.7669 111.345C46.9894 111.122 47.1718 110.863 47.3047 110.581C47.4808 110.201 47.5705 109.778 47.555 109.339C47.5117 108.109 47.283 106.721 46.906 105.216C46.8442 104.972 46.7793 104.728 46.7113 104.478L46.7144 104.474Z" fill="#D2B9CA"/>
<path fill-rule="evenodd" clip-rule="evenodd" d="M51.1772 124.134C49.1498 125.345 46.6216 125.787 44.3779 125.166C43.5187 124.928 42.7028 124.535 41.9703 123.97C42.0568 124.158 42.1557 124.344 42.2608 124.526C42.3721 124.709 42.4895 124.888 42.6101 125.067C42.7522 125.277 42.9037 125.484 43.0613 125.685C44.9064 127.91 47.3387 129.468 50.0707 130.222C50.2933 130.284 50.5189 130.34 50.7445 130.389C51.9066 130.602 53.1428 130.664 54.4501 130.544C54.9323 130.497 55.2629 130.12 55.3062 129.691C55.3248 129.493 55.2846 129.286 55.1671 129.097C54.8364 128.553 54.5768 128.012 54.3821 127.475C53.8691 126.081 53.7609 124.724 53.798 123.451C53.8135 122.931 53.8536 122.425 53.9 121.936C53.9587 121.318 54.0298 120.728 54.0762 120.172C54.1132 119.717 54.1194 119.254 54.0885 118.787C54.2029 120.484 53.8104 121.72 53.0532 122.622V122.625C52.5092 123.21 51.8757 123.713 51.1834 124.131L51.1772 124.134Z" fill="#CF4782"/>
<path fill-rule="evenodd" clip-rule="evenodd" d="M50.8743 123.355C51.341 123.463 51.82 123.463 52.2929 123.346C52.5587 123.123 52.8121 122.885 53.047 122.632C53.8042 121.729 54.1967 120.493 54.0823 118.796C54.0638 118.527 54.036 118.255 53.9927 117.987C53.9896 117.974 53.9896 117.965 53.9865 117.953C53.934 117.631 53.8629 117.31 53.7733 116.991C53.7547 119.074 53.8907 121.389 51.9313 122.428C50.5251 123.176 49.1281 122.072 47.7157 120.966C46.3435 119.89 44.9589 118.812 43.5372 119.424C41.4851 120.304 41.2131 121.93 41.7787 123.512C41.4511 122.375 42.2979 120.861 43.4816 120.453C45.1536 119.875 48.136 122.734 50.8743 123.361V123.355Z" fill="#FF99C0"/>
<path fill-rule="evenodd" clip-rule="evenodd" d="M54.0823 118.793C54.1967 120.49 53.8042 121.726 53.047 122.629C52.809 122.882 52.5587 123.12 52.2929 123.343C52.8275 123.207 53.353 122.919 53.8505 122.449C53.8629 122.279 53.8784 122.109 53.8938 121.943C53.9525 121.324 54.0236 120.734 54.07 120.178C54.1071 119.723 54.1132 119.26 54.0823 118.793Z" fill="#AB2B62"/>
<path fill-rule="evenodd" clip-rule="evenodd" d="M40.8299 121.148C42.9809 114.822 49.9657 113.876 53.7053 116.75C53.6775 116.661 53.6466 116.571 53.6157 116.481H53.6126C53.4426 115.99 53.2201 115.514 52.9419 115.057C51.8355 113.224 49.873 111.759 46.77 111.342C46.6989 111.413 46.6247 111.481 46.5444 111.543C46.4208 111.645 46.2786 111.737 46.1302 111.815L42.7924 113.589C42.5637 113.709 42.3226 113.793 42.0785 113.845C41.9734 113.867 41.8683 113.882 41.7632 113.892C40.4374 116.024 40.1901 118.633 40.8299 121.145V121.148Z" fill="#D29156"/>
<path d="M25.6365 74.27C25.9981 74.2515 26.3628 74.2391 26.7244 74.2391C26.9099 74.2391 27.0922 74.2422 27.2776 74.2484C27.2931 74.2484 27.3085 74.2484 27.324 74.2484C27.3085 74.2484 27.2931 74.2484 27.2807 74.2484C27.0953 74.2422 26.913 74.2422 26.7275 74.2422C26.3659 74.2422 26.0043 74.2515 25.6427 74.27H25.6365ZM28.5386 73.6241C28.7488 73.3367 28.8508 72.9812 28.8291 72.6258C28.8538 72.9843 28.7519 73.3336 28.5386 73.6241ZM28.6344 71.5905C28.6313 71.5781 28.6282 71.5657 28.6251 71.5503C28.6282 71.5627 28.6313 71.5781 28.6344 71.5905Z" fill="#250C60"/>
<path d="M27.8278 74.3782C27.9947 74.3257 28.1523 74.2515 28.2944 74.1495C28.1523 74.2484 27.9947 74.3257 27.8278 74.3782Z" fill="#000072"/>
<path d="M28.8384 71.5565L28.8353 71.5472V71.5534L28.8384 71.5565Z" fill="#0D50B6"/>
<path fill-rule="evenodd" clip-rule="evenodd" d="M22.2647 45.6233C31.008 38.6386 42.0908 34.4601 54.1534 34.4601C82.386 34.4601 105.275 57.349 105.275 85.5816C105.275 100.058 99.2575 113.131 89.5871 122.431C101.31 113.063 108.82 98.6455 108.82 82.4725C108.82 54.2399 85.9309 31.351 57.6983 31.351C43.9421 31.351 31.453 36.7842 22.2647 45.6233Z" fill="#EC239B" fill-opacity="0.2"/>
<path fill-rule="evenodd" clip-rule="evenodd" d="M63.2552 127.549C36.911 127.549 15.5519 106.193 15.5519 79.8455C15.5519 60.5015 27.0644 43.8463 43.6114 36.3608C23.8625 42.3844 9.49435 60.7487 9.49435 82.4694C9.49435 109.089 31.0729 130.667 57.6922 130.667C67.5326 130.667 76.6838 127.719 84.3114 122.656C77.9603 125.787 70.8086 127.546 63.249 127.546L63.2552 127.549Z" fill="#EC239B" fill-opacity="0.2"/>
<path fill-rule="evenodd" clip-rule="evenodd" d="M45.438 39.5998C44.0039 40.2581 41.4233 43.2776 41.2533 44.8476C40.8546 48.5501 41.6025 53.6342 44.6128 56.1685C51.4862 61.9571 62.0684 62.3373 68.809 68.0487C78.5753 76.3222 73.1791 93.8922 75.4661 105.868C76.6097 111.858 81.8822 120.558 88.7155 115.696C101.338 106.715 105.185 82.525 98.42 67.3008C87.6678 43.1045 57.6983 33.978 45.438 39.5967V39.5998Z" fill="url(#paint2_radial_71_11262)" fill-opacity="0.34902"/>
<path fill-rule="evenodd" clip-rule="evenodd" d="M92.9558 65.156C95.4005 65.2796 98.1913 68.2527 99.1834 71.7915C100.179 75.3333 99.001 78.1025 96.5564 77.9788C94.1117 77.8552 91.3209 74.8821 90.3288 71.3433C89.3336 67.8015 90.5112 65.0323 92.9589 65.156H92.9558Z" fill="url(#paint3_radial_71_11262)" fill-opacity="0.2"/>
<path d="M78.9276 16.034C79.9142 16.034 80.714 15.2342 80.714 14.2477C80.714 13.2611 79.9142 12.4613 78.9276 12.4613C77.941 12.4613 77.1413 13.2611 77.1413 14.2477C77.1413 15.2342 77.941 16.034 78.9276 16.034Z" fill="#232851"/>
<path d="M91.2838 32.9766C91.7976 32.9766 92.2141 32.5601 92.2141 32.0464C92.2141 31.5326 91.7976 31.1161 91.2838 31.1161C90.77 31.1161 90.3535 31.5326 90.3535 32.0464C90.3535 32.5601 90.77 32.9766 91.2838 32.9766Z" fill="#232851"/>
<path d="M106.165 40.3508C107.152 40.3508 107.951 39.551 107.951 38.5644C107.951 37.5779 107.152 36.7781 106.165 36.7781C105.178 36.7781 104.379 37.5779 104.379 38.5644C104.379 39.551 105.178 40.3508 106.165 40.3508Z" fill="#232851"/>
<path d="M31.4809 29.3482C32.1107 29.3482 32.6213 28.8377 32.6213 28.2078C32.6213 27.578 32.1107 27.0674 31.4809 27.0674C30.851 27.0674 30.3404 27.578 30.3404 28.2078C30.3404 28.8377 30.851 29.3482 31.4809 29.3482Z" fill="#2C1538"/>
<path d="M19.6284 35.276C19.9561 35.276 20.2218 35.0103 20.2218 34.6826C20.2218 34.3549 19.9561 34.0892 19.6284 34.0892C19.3007 34.0892 19.035 34.3549 19.035 34.6826C19.035 35.0103 19.3007 35.276 19.6284 35.276Z" fill="#2C1538"/>
<path d="M9.54381 35.31C10.1173 35.31 10.5822 34.8451 10.5822 34.2716C10.5822 33.6981 10.1173 33.2332 9.54381 33.2332C8.9703 33.2332 8.50537 33.6981 8.50537 34.2716C8.50537 34.8451 8.9703 35.31 9.54381 35.31Z" fill="#2C1538"/>
<path fill-rule="evenodd" clip-rule="evenodd" d="M20.3485 41.0029C21.6559 41.0029 22.7159 42.063 22.7159 43.3703C22.7159 44.6776 21.6559 45.7377 20.3485 45.7377C19.0412 45.7377 17.9811 44.6776 17.9811 43.3703C17.9811 42.063 19.0412 41.0029 20.3485 41.0029Z" fill="#431D53" fill-opacity="0.501961"/>
<path fill-rule="evenodd" clip-rule="evenodd" d="M27.222 43.2529C28.4212 43.2529 29.3947 42.2794 29.3947 41.0802C29.3947 40.8701 29.5647 40.7001 29.7748 40.7001C29.985 40.7001 30.155 40.8701 30.155 41.0802C30.155 42.2794 31.1285 43.2529 32.3277 43.2529C32.5378 43.2529 32.7078 43.4229 32.7078 43.633C32.7078 43.8432 32.5378 44.0132 32.3277 44.0132C31.1285 44.0132 30.155 44.9867 30.155 46.1859C30.155 46.396 29.985 46.566 29.7748 46.566C29.5647 46.566 29.3947 46.396 29.3947 46.1859C29.3947 44.9867 28.4212 44.0132 27.222 44.0132C27.0118 44.0132 26.8419 43.8432 26.8419 43.633C26.8419 43.4229 27.0118 43.2529 27.222 43.2529ZM93.2433 112.933C94.6495 112.933 95.7868 111.796 95.7868 110.39C95.7868 110.146 95.9877 109.945 96.2318 109.945C96.476 109.945 96.6769 110.146 96.6769 110.39C96.6769 111.796 97.8173 112.933 99.2205 112.933C99.4646 112.933 99.6655 113.134 99.6655 113.378C99.6655 113.623 99.4646 113.824 99.2205 113.824C97.8142 113.824 96.6769 114.964 96.6769 116.367C96.6769 116.611 96.476 116.812 96.2318 116.812C95.9877 116.812 95.7868 116.611 95.7868 116.367C95.7868 114.961 94.6464 113.824 93.2433 113.824C92.9991 113.824 92.7982 113.623 92.7982 113.378C92.7982 113.134 92.9991 112.933 93.2433 112.933ZM29.6018 111.141C30.7144 111.141 31.6137 110.238 31.6137 109.129C31.6137 108.934 31.7714 108.777 31.9661 108.777C32.1608 108.777 32.3184 108.934 32.3184 109.129C32.3184 110.242 33.2208 111.141 34.3304 111.141C34.5251 111.141 34.6827 111.298 34.6827 111.493C34.6827 111.688 34.5251 111.846 34.3304 111.846C33.2178 111.846 32.3184 112.748 32.3184 113.857C32.3184 114.052 32.1608 114.21 31.9661 114.21C31.7714 114.21 31.6137 114.052 31.6137 113.857C31.6137 112.745 30.7113 111.846 29.6018 111.846C29.4071 111.846 29.2494 111.688 29.2494 111.493C29.2494 111.298 29.4071 111.141 29.6018 111.141ZM64.5873 51.6531C65.0694 51.6531 65.4588 52.0425 65.4588 52.5247C65.4588 53.0068 65.0694 53.3962 64.5873 53.3962C64.1051 53.3962 63.7157 53.0068 63.7157 52.5247C63.7157 52.0425 64.1051 51.6531 64.5873 51.6531ZM29.2865 86.4594C30.5938 86.4594 31.6539 87.5195 31.6539 88.8268C31.6539 90.1341 30.5938 91.1942 29.2865 91.1942C27.9792 91.1942 26.9191 90.1341 26.9191 88.8268C26.9191 87.5195 27.9792 86.4594 29.2865 86.4594ZM30.5537 74.7584C31.0574 74.7584 31.4654 74.3504 31.4654 73.8467C31.4654 73.7601 31.5365 73.686 31.6261 73.686C31.7126 73.686 31.7868 73.7571 31.7868 73.8467C31.7868 74.3504 32.1948 74.7584 32.6985 74.7584C32.7851 74.7584 32.8592 74.8295 32.8592 74.9191C32.8592 75.0057 32.7882 75.0798 32.6985 75.0798C32.1948 75.0798 31.7868 75.4878 31.7868 75.9916C31.7868 76.0781 31.7157 76.1523 31.6261 76.1523C31.5396 76.1523 31.4654 76.0812 31.4654 75.9916C31.4654 75.4878 31.0574 75.0798 30.5537 75.0798C30.4671 75.0798 30.3929 75.0087 30.3929 74.9191C30.3929 74.8326 30.464 74.7584 30.5537 74.7584ZM31.1625 58.641C31.7744 58.641 32.272 58.1434 32.272 57.5314C32.272 57.4233 32.3586 57.3367 32.4667 57.3367C32.5749 57.3367 32.6614 57.4233 32.6614 57.5314C32.6614 58.1434 33.159 58.641 33.771 58.641C33.8791 58.641 33.9657 58.7275 33.9657 58.8357C33.9657 58.9438 33.8791 59.0304 33.771 59.0304C33.159 59.0304 32.6614 59.528 32.6614 60.1399C32.6614 60.2481 32.5749 60.3346 32.4667 60.3346C32.3586 60.3346 32.272 60.2481 32.272 60.1399C32.272 59.528 31.7744 59.0304 31.1625 59.0304C31.0543 59.0304 30.9678 58.9438 30.9678 58.8357C30.9678 58.7275 31.0543 58.641 31.1625 58.641Z" fill="white" fill-opacity="0.25098"/>
<path fill-rule="evenodd" clip-rule="evenodd" d="M92.7488 40.3446C93.6512 40.3446 94.3868 39.6122 94.3868 38.7066C94.3868 38.549 94.5166 38.4192 94.6742 38.4192C94.8318 38.4192 94.9616 38.549 94.9616 38.7066C94.9616 39.6091 95.6941 40.3446 96.5996 40.3446C96.7573 40.3446 96.8871 40.4744 96.8871 40.6321C96.8871 40.7897 96.7573 40.9195 96.5996 40.9195C95.6941 40.9195 94.9616 41.6519 94.9616 42.5575C94.9616 42.7151 94.8318 42.8449 94.6742 42.8449C94.5166 42.8449 94.3868 42.7151 94.3868 42.5575C94.3868 41.6519 93.6543 40.9195 92.7488 40.9195C92.5911 40.9195 92.4613 40.7897 92.4613 40.6321C92.4613 40.4744 92.5911 40.3446 92.7488 40.3446Z" fill="#292E6B"/>
<path fill-rule="evenodd" clip-rule="evenodd" d="M87.6338 19.1061C89.2255 19.1061 90.5143 17.8173 90.5143 16.2257C90.5143 15.9475 90.7399 15.7219 91.018 15.7219C91.2962 15.7219 91.5218 15.9475 91.5218 16.2257C91.5218 17.8173 92.8106 19.1061 94.4022 19.1061C94.6804 19.1061 94.906 19.3317 94.906 19.6099C94.906 19.888 94.6804 20.1137 94.4022 20.1137C92.8106 20.1137 91.5218 21.4024 91.5218 22.9941C91.5218 23.2722 91.2962 23.4979 91.018 23.4979C90.7399 23.4979 90.5143 23.2722 90.5143 22.9941C90.5143 21.4024 89.2255 20.1137 87.6338 20.1137C87.3557 20.1137 87.1301 19.888 87.1301 19.6099C87.1301 19.3317 87.3557 19.1061 87.6338 19.1061Z" fill="#3A3E61"/>
<path fill-rule="evenodd" clip-rule="evenodd" d="M124.869 11.8587C128.059 11.8587 130.643 9.27494 130.643 6.08545C130.643 5.52915 131.097 5.07483 131.653 5.07483C132.209 5.07483 132.664 5.52915 132.664 6.08545C132.664 9.27494 135.248 11.8587 138.437 11.8587C138.993 11.8587 139.448 12.313 139.448 12.8693C139.448 13.4256 138.993 13.8799 138.437 13.8799C135.248 13.8799 132.664 16.4637 132.664 19.6532C132.664 20.2095 132.209 20.6638 131.653 20.6638C131.097 20.6638 130.643 20.2095 130.643 19.6532C130.643 16.4637 128.059 13.8799 124.869 13.8799C124.313 13.8799 123.859 13.4256 123.859 12.8693C123.859 12.313 124.313 11.8587 124.869 11.8587Z" fill="#3A3E61"/>
<path fill-rule="evenodd" clip-rule="evenodd" d="M38.138 22.0823C39.0064 21.8041 39.4886 20.8738 39.2104 20.0023C39.161 19.8509 39.2475 19.6871 39.3989 19.6376C39.5504 19.5882 39.7142 19.6747 39.7636 19.8261C40.0418 20.6946 40.9721 21.1767 41.8436 20.8986C41.995 20.8491 42.1588 20.9357 42.2083 21.0871C42.2577 21.2385 42.1712 21.4023 42.0198 21.4518C41.1513 21.7299 40.6692 22.6602 40.9504 23.5318C40.9999 23.6832 40.9133 23.847 40.7619 23.8964C40.6105 23.9459 40.4467 23.8594 40.3972 23.7079C40.1191 22.8395 39.1888 22.3573 38.3172 22.6355C38.1658 22.6849 38.002 22.5984 37.9525 22.447C37.9031 22.2955 37.9896 22.1317 38.1411 22.0823H38.138Z" fill="#2C1538"/>
<path fill-rule="evenodd" clip-rule="evenodd" d="M80.612 3.16788C81.944 3.01026 82.8959 1.80493 82.7383 0.475973C82.7105 0.244179 82.8774 0.0309279 83.1092 0.00620312C83.341 -0.0216122 83.5542 0.14528 83.579 0.377074C83.7366 1.70912 84.9419 2.66102 86.2709 2.5034C86.5027 2.47559 86.7159 2.64248 86.7406 2.87427C86.7685 3.10607 86.6016 3.31932 86.3698 3.34404C85.0377 3.50166 84.0858 4.707 84.2434 6.03595C84.2713 6.26775 84.1044 6.481 83.8726 6.50572C83.6408 6.53354 83.4275 6.36664 83.4028 6.13485C83.2452 4.8028 82.0398 3.8509 80.7109 4.00852C80.4791 4.03634 80.2659 3.86944 80.2411 3.63765C80.2133 3.40586 80.3802 3.1926 80.612 3.16788Z" fill="#3A3E61"/>
<path fill-rule="evenodd" clip-rule="evenodd" d="M40.1376 137.043C40.7866 137.417 41.6149 137.195 41.9888 136.545C42.0538 136.431 42.199 136.394 42.3134 136.459C42.4277 136.524 42.4648 136.669 42.3999 136.783C42.0259 137.432 42.2485 138.261 42.8975 138.635C43.0118 138.7 43.0489 138.845 42.984 138.959C42.9191 139.074 42.7739 139.111 42.6595 139.046C42.0105 138.672 41.1822 138.894 40.8082 139.543C40.7433 139.658 40.5981 139.695 40.4837 139.63C40.3694 139.565 40.3323 139.42 40.3972 139.305C40.7712 138.656 40.5486 137.828 39.8996 137.454C39.7853 137.389 39.7482 137.244 39.8131 137.13C39.878 137.015 40.0232 136.978 40.1376 137.043Z" fill="#462262"/>
<path d="M64.918 145.521C65.7834 145.521 66.4849 144.819 66.4849 143.954C66.4849 143.088 65.7834 142.387 64.918 142.387C64.0526 142.387 63.351 143.088 63.351 143.954C63.351 144.819 64.0526 145.521 64.918 145.521Z" fill="#4E236C"/>
<path d="M78.872 145.31C79.2646 145.31 79.5828 144.992 79.5828 144.6C79.5828 144.207 79.2646 143.889 78.872 143.889C78.4794 143.889 78.1612 144.207 78.1612 144.6C78.1612 144.992 78.4794 145.31 78.872 145.31Z" fill="#4E236C"/>
<path d="M95.1625 137.346C96.0842 137.346 96.8314 136.599 96.8314 135.677C96.8314 134.755 96.0842 134.008 95.1625 134.008C94.2408 134.008 93.4936 134.755 93.4936 135.677C93.4936 136.599 94.2408 137.346 95.1625 137.346Z" fill="#4E236C"/>
<path d="M79.9908 160C81.614 160 82.9299 158.684 82.9299 157.061C82.9299 155.438 81.614 154.122 79.9908 154.122C78.3675 154.122 77.0516 155.438 77.0516 157.061C77.0516 158.684 78.3675 160 79.9908 160Z" fill="#4E236C"/>
</g>
<defs>
<radialGradient id="paint0_radial_71_11262" cx="0" cy="0" r="1" gradientUnits="userSpaceOnUse" gradientTransform="translate(57.6983 82.4725) scale(56.8885)">
<stop stop-color="#EE249C"/>
<stop offset="0.890196" stop-color="#852172"/>
<stop offset="1" stop-color="#1C1E48"/>
</radialGradient>
<linearGradient id="paint1_linear_71_11262" x1="11.29" y1="103.912" x2="104.107" y2="61.0299" gradientUnits="userSpaceOnUse">
<stop stop-color="#783CA1"/>
<stop offset="1" stop-color="#EE229B"/>
</linearGradient>
<radialGradient id="paint2_radial_71_11262" cx="0" cy="0" r="1" gradientUnits="userSpaceOnUse" gradientTransform="translate(71.3675 77.5584) scale(30.2819 39.5626)">
<stop stop-color="#EE249C"/>
<stop offset="1" stop-color="#FFE500"/>
</radialGradient>
<radialGradient id="paint3_radial_71_11262" cx="0" cy="0" r="1" gradientUnits="userSpaceOnUse" gradientTransform="translate(94.7443 71.4363) rotate(2.89881) scale(4.43381 6.31286)">
<stop stop-color="#FCC15B"/>
<stop offset="1" stop-color="white"/>
</radialGradient>
<clipPath id="clip0_71_11262">
<rect width="139.448" height="160" fill="white"/>
</clipPath>
</defs>
</svg>
