<svg width="314" height="340" viewBox="0 0 314 340" fill="none" xmlns="http://www.w3.org/2000/svg">
<g clip-path="url(#clip0_71_11678)">
<path d="M184.898 34.0741C186.996 34.0741 188.697 32.3734 188.697 30.2755C188.697 28.1775 186.996 26.4768 184.898 26.4768C182.8 26.4768 181.1 28.1775 181.1 30.2755C181.1 32.3734 182.8 34.0741 184.898 34.0741Z" fill="#232851"/>
<path d="M211.151 70.0774C212.244 70.0774 213.129 69.1918 213.129 68.0994C213.129 67.0069 212.244 66.1213 211.151 66.1213C210.059 66.1213 209.173 67.0069 209.173 68.0994C209.173 69.1918 210.059 70.0774 211.151 70.0774Z" fill="#232851"/>
<path d="M242.775 85.746C244.873 85.746 246.574 84.0453 246.574 81.9473C246.574 79.8494 244.873 78.1487 242.775 78.1487C240.677 78.1487 238.977 79.8494 238.977 81.9473C238.977 84.0453 240.677 85.746 242.775 85.746Z" fill="#232851"/>
<path fill-rule="evenodd" clip-rule="evenodd" d="M214.268 85.7337C216.188 85.7337 217.746 84.1772 217.746 82.2551C217.746 81.9211 218.019 81.6465 218.355 81.6465C218.691 81.6465 218.964 81.9193 218.964 82.2551C218.964 84.1754 220.52 85.7337 222.442 85.7337C222.776 85.7337 223.051 86.0065 223.051 86.3423C223.051 86.6764 222.778 86.951 222.442 86.951C220.52 86.951 218.964 88.5092 218.964 90.4295C218.964 90.7636 218.691 91.0382 218.355 91.0382C218.021 91.0382 217.746 90.7653 217.746 90.4295C217.746 88.5075 216.19 86.951 214.268 86.951C213.934 86.951 213.659 86.6781 213.659 86.3423C213.659 86.0065 213.932 85.7337 214.268 85.7337Z" fill="#292E6B"/>
<path fill-rule="evenodd" clip-rule="evenodd" d="M203.395 40.6011C206.775 40.6011 209.516 37.8605 209.516 34.4799C209.516 33.8905 209.997 33.4095 210.586 33.4095C211.176 33.4095 211.657 33.8905 211.657 34.4799C211.657 37.8605 214.397 40.6011 217.778 40.6011C218.367 40.6011 218.848 41.082 218.848 41.6714C218.848 42.2608 218.367 42.7418 217.778 42.7418C214.397 42.7418 211.657 45.4823 211.657 48.863C211.657 49.4524 211.176 49.9333 210.586 49.9333C209.997 49.9333 209.516 49.4524 209.516 48.863C209.516 45.4823 206.775 42.7418 203.395 42.7418C202.805 42.7418 202.324 42.2608 202.324 41.6714C202.324 41.082 202.805 40.6011 203.395 40.6011Z" fill="#3A3E61"/>
<path fill-rule="evenodd" clip-rule="evenodd" d="M282.526 25.2019C289.302 25.2019 294.795 19.7103 294.795 12.9333C294.795 11.751 295.759 10.7874 296.941 10.7874C298.123 10.7874 299.087 11.751 299.087 12.9333C299.087 19.7086 304.58 25.2019 311.355 25.2019C312.538 25.2019 313.501 26.1656 313.501 27.3479C313.501 28.5301 312.538 29.4938 311.355 29.4938C304.578 29.4938 299.087 34.9871 299.087 41.7624C299.087 42.9447 298.123 43.9083 296.941 43.9083C295.759 43.9083 294.795 42.9447 294.795 41.7624C294.795 34.9854 289.302 29.4938 282.526 29.4938C281.344 29.4938 280.38 28.5301 280.38 27.3479C280.38 26.1656 281.344 25.2019 282.526 25.2019Z" fill="#3A3E61"/>
<path fill-rule="evenodd" clip-rule="evenodd" d="M188.476 6.72984C191.304 6.39755 193.328 3.83538 192.996 1.00739C192.938 0.51419 193.293 0.0647187 193.786 0.00700443C194.279 -0.0507098 194.729 0.30432 194.787 0.797515C195.119 3.62551 197.681 5.64901 200.509 5.31672C201.002 5.259 201.452 5.61403 201.509 6.10723C201.567 6.60042 201.212 7.04989 200.719 7.10761C197.891 7.4399 195.867 10.0021 196.2 12.8301C196.257 13.3233 195.902 13.7727 195.409 13.8304C194.916 13.8882 194.467 13.5331 194.409 13.0399C194.076 10.2119 191.514 8.18844 188.686 8.52073C188.193 8.57845 187.744 8.22342 187.686 7.73022C187.628 7.23703 187.983 6.78756 188.476 6.72984Z" fill="#3A3E61"/>
<path d="M139.996 297.832C207.83 297.832 262.819 242.842 262.819 175.009C262.819 107.176 207.83 52.1859 139.996 52.1859C72.1632 52.1859 17.1735 107.176 17.1735 175.009C17.1735 242.842 72.1632 297.832 139.996 297.832Z" fill="url(#paint0_radial_71_11678)"/>
<path d="M139.997 283.834C200.099 283.834 248.821 235.111 248.821 175.009C248.821 114.907 200.099 66.1843 139.997 66.1843C79.8943 66.1843 31.1719 114.907 31.1719 175.009C31.1719 235.111 79.8943 283.834 139.997 283.834Z" fill="url(#paint1_linear_71_11678)"/>
<path d="M129.452 212.941C119.804 207.422 116.456 195.122 121.981 185.464C127.501 175.813 139.801 172.466 149.449 177.987C159.107 183.512 162.454 195.812 156.935 205.461C151.41 215.119 139.11 218.468 129.452 212.941ZM195.38 70.4954C141.177 39.4871 72.0896 58.295 41.0778 112.504C28.4453 134.586 24.0818 159.131 27.0077 182.57C27.0147 182.617 27.0252 182.657 27.0305 182.702C30.168 204.438 45.7561 210.867 62.126 204.637C62.161 204.636 62.1924 204.62 62.2222 204.606C65.5346 203.338 68.8768 201.556 72.1613 199.275C84.5558 191.491 100.037 194.84 100.55 228.587C100.548 228.608 100.551 228.622 100.551 228.643C100.558 229.267 100.571 229.904 100.564 230.553C101.749 272.695 135.955 288.202 175.769 275.654C200.931 267.089 223.154 249.677 237.385 224.806C268.395 170.593 249.592 101.507 195.38 70.4937V70.4954Z" fill="#FFC659"/>
<path d="M121.152 268.559C112.302 262.199 106.62 252.514 104.453 240.216C107.713 247.248 112.407 252.853 118.201 257.017C120.914 258.966 123.87 260.599 127.03 261.914C126.045 264.555 124.77 267.198 123.174 269.916C122.527 269.51 121.893 269.087 121.274 268.646C121.234 268.616 121.194 268.588 121.152 268.559ZM126.523 271.798C128.216 268.905 129.575 266.08 130.631 263.245C136.868 265.278 143.795 266.18 151.181 265.937C150.18 269.443 149.689 273.167 149.731 276.92C141.093 276.866 133.198 275.145 126.523 271.798ZM153.572 276.836C153.531 272.996 154.11 269.2 155.273 265.69C161.459 265.15 167.923 263.838 174.545 261.754C174.581 261.74 174.618 261.727 174.657 261.717C174.793 265.318 175.251 268.926 176.026 272.471C175.638 272.607 175.248 272.744 174.856 272.877C167.51 275.189 160.343 276.504 153.573 276.838L153.572 276.836ZM179.664 271.112C178.92 267.556 178.518 263.94 178.459 260.339C185.435 257.675 192.158 254.321 198.517 250.303C200.427 252.734 202.358 255.148 204.308 257.54C196.751 263.069 188.48 267.642 179.664 271.11V271.112ZM207.367 255.218C205.474 252.895 203.598 250.553 201.74 248.191C208.236 243.769 214.313 238.636 219.847 232.823C221.627 234.42 223.429 235.971 225.246 237.475C219.967 244.074 213.967 250.024 207.365 255.216L207.367 255.218ZM227.593 234.432C225.865 233 224.149 231.52 222.449 229.998C225.847 226.177 229.018 222.088 231.928 217.737C233.488 218.541 235.064 219.32 236.65 220.072C236.068 221.172 235.466 222.268 234.844 223.354C232.64 227.209 230.216 230.904 227.593 234.432ZM234.02 214.494C234.751 213.315 235.466 212.116 236.161 210.902C238.398 206.997 240.372 203.011 242.097 198.971C243.057 199.212 244.012 199.459 244.96 199.716C243.251 205.487 241.059 211.145 238.389 216.644C236.92 215.949 235.465 215.232 234.02 214.494ZM243.555 195.379C245.08 191.435 246.369 187.442 247.425 183.421C247.747 183.568 248.069 183.717 248.387 183.869C247.819 187.956 247.014 192.007 245.983 196.013C245.176 195.795 244.367 195.583 243.553 195.377L243.555 195.379ZM248.354 179.628C248.678 178.185 248.973 176.742 249.241 175.296C249.15 176.819 249.027 178.341 248.874 179.862C248.7 179.78 248.527 179.707 248.356 179.628H248.354Z" fill="#D29156"/>
<path d="M49.8363 203.955C49.9727 200.814 50.0234 197.476 49.9885 193.929C53.8938 194.091 58.0527 193.367 62.2711 191.8C62.9969 194.639 63.9046 197.439 64.9924 200.174C63.8276 200.767 62.6594 201.292 61.4928 201.75L61.0853 201.904C57.1678 203.396 53.3586 204.078 49.838 203.955H49.8363ZM68.3696 198.268C67.357 195.657 66.514 192.988 65.8494 190.282C68.109 189.196 70.3703 187.877 72.6037 186.326C78.7302 182.479 85.6122 181.351 91.0653 185.27C95.8031 188.675 99.4671 195.889 100.621 208.44C98.4405 201.795 95.3099 197.988 92.2913 195.819C91.7246 195.412 91.1615 195.062 90.6088 194.761C84.8951 191.659 77.6039 192.4 70.6029 196.797L70.491 196.87C69.7879 197.36 69.0796 197.824 68.3696 198.266V198.268Z" fill="#D29156"/>
<path d="M42.8616 124.911C42.4366 122.534 41.9907 120.159 41.5255 117.791C41.9872 116.906 42.4611 116.028 42.9473 115.152C44.2013 116.258 45.3783 117.456 46.4626 118.738C45.6651 120.012 44.8869 121.312 44.1348 122.629C43.7011 123.386 43.2779 124.149 42.8634 124.911H42.8616ZM48.6366 115.392C47.4753 114.099 46.2283 112.889 44.9044 111.77C47.0608 108.19 49.3991 104.757 51.9053 101.486C52.764 101.937 53.5982 102.457 54.4062 103.037C55.1862 103.599 55.94 104.215 56.6623 104.884C53.8133 108.195 51.1305 111.698 48.6366 115.394V115.392Z" fill="#FFEBC5"/>
<path d="M59.2123 102.025C58.3815 101.257 57.5141 100.549 56.6151 99.9034C55.8736 99.3699 55.1093 98.8785 54.3293 98.436C59.0706 92.6786 64.3576 87.4511 70.1115 82.8147C72.0371 84.2523 73.8035 85.8438 75.4282 87.5473C69.6271 91.7936 64.1914 96.6276 59.214 102.025H59.2123Z" fill="#FFEBC5"/>
<path d="M78.592 85.3122C76.9568 83.5546 75.1799 81.8983 73.2473 80.3803C80.5753 74.9044 88.6011 70.3502 97.1795 66.8279C99.189 68.75 101.15 70.7158 103.068 72.7148C97.6902 74.6998 92.4522 77.0958 87.4135 79.8853C87.2579 79.8311 87.1005 79.7787 86.9431 79.7262C85.934 79.3991 84.8514 79.9501 84.5243 80.9592C84.4544 81.1708 84.4246 81.3859 84.4299 81.5975C82.4501 82.7728 80.5036 84.0128 78.5903 85.3122H78.592ZM107.05 71.3279C105.12 69.2852 103.143 67.2704 101.122 65.2959C104.123 64.1958 107.185 63.2182 110.303 62.3682C111.535 62.0341 112.768 61.7211 114.004 61.429C117.212 66.0916 120.416 70.7577 123.62 75.4256C120.939 74.9796 118.529 74.1279 116.731 72.8355C115.426 71.898 114.443 70.728 113.915 69.3149C111.605 69.9148 109.315 70.5846 107.05 71.3261V71.3279ZM128.531 75.7964C125.041 70.7123 121.551 65.6299 118.06 60.5493C122.656 59.6434 127.273 59.0295 131.889 58.713C134.828 63.5697 137.492 68.5419 139.874 73.6225C136.527 75.0181 132.46 75.7666 128.531 75.7981V75.7964ZM143.263 71.8053C141.135 67.2861 138.791 62.8474 136.233 58.4996C147.531 58.1708 158.778 59.5979 169.635 62.7355C169.912 64.6942 170.125 66.667 170.275 68.6276C170.289 68.8199 170.303 69.0071 170.317 69.1977C162.725 67.2529 155.03 66.1284 147.349 65.7926C147.083 68.2043 145.544 70.2243 143.263 71.8036V71.8053ZM174.237 70.2803C174.198 69.6314 174.153 68.9843 174.104 68.3355C173.994 66.8909 173.85 65.4375 173.672 63.9859C180.633 66.291 187.415 69.3131 193.926 73.0383C197.309 74.9726 200.563 77.0678 203.687 79.3117C204.712 80.048 205.723 80.8018 206.718 81.5678C206.468 82.792 206.163 84.0093 205.815 85.2195C203.433 83.6053 200.974 82.0732 198.437 80.6199C190.626 76.1532 182.509 72.72 174.239 70.2803H174.237ZM234.543 113.344C232.677 110.707 230.687 108.143 228.583 105.659C228.798 105.456 229.013 105.252 229.23 105.044C231.124 107.728 232.894 110.493 234.543 113.346V113.344ZM226.05 102.768C221.013 97.2154 215.359 92.1068 209.124 87.5508C209.465 86.4578 209.775 85.356 210.049 84.2454C216.354 89.5131 222.008 95.435 226.939 101.918C226.647 102.202 226.349 102.485 226.05 102.768Z" fill="#FFEBC5"/>
<path d="M128.35 220.441C123.621 217.042 120.507 212.104 119.31 206.717C120.942 209.652 123.198 212.187 125.956 214.171C126.609 214.639 127.291 215.078 127.997 215.484C139.038 221.801 153.159 217.957 159.474 206.916C162.127 202.28 163.075 196.988 162.223 191.786C162.257 191.501 162.285 191.216 162.307 190.933C165.854 197.689 165.985 206.052 161.917 213.165C155.579 224.246 141.464 228.087 130.383 221.747C129.676 221.343 128.998 220.906 128.349 220.441H128.35Z" fill="#FFEBC5"/>
<path d="M116.51 193.012C116.311 191.851 116.199 190.676 116.178 189.499C116.439 189.77 116.703 190.036 116.969 190.298C116.76 191.195 116.608 192.101 116.512 193.012H116.51Z" fill="#D29156"/>
<path d="M118.336 186.193C117.77 185.583 117.215 184.953 116.671 184.301C117.425 180.724 119.041 177.276 121.549 174.276C127.317 167.373 136.259 164.687 144.463 166.567C144.755 168.737 144.977 170.922 145.124 173.108C135.339 170.63 124.69 174.832 119.44 184.011C119.032 184.724 118.665 185.452 118.338 186.192L118.336 186.193ZM162.309 190.933C162.182 190.688 162.047 190.445 161.909 190.204C161.846 189.938 161.779 189.674 161.708 189.408C160.301 184.25 157.23 179.838 152.949 176.761C152.293 176.291 151.611 175.852 150.903 175.446C150.294 175.098 149.677 174.783 149.054 174.495C148.94 172.289 148.753 170.089 148.498 167.894C149.972 168.536 151.398 169.341 152.748 170.311C153.208 170.642 153.657 170.992 154.1 171.361C160.074 176.352 162.888 183.72 162.311 190.933H162.309Z" fill="#D29156"/>
<path d="M162.225 191.785C162.14 191.255 162.035 190.728 161.91 190.202C162.049 190.443 162.182 190.686 162.311 190.931C162.288 191.214 162.26 191.499 162.227 191.785H162.225Z" fill="#D2ABA1"/>
<path d="M223.266 178.37C222.796 178.033 222.484 177.487 222.465 176.865C222.435 175.805 223.271 174.921 224.331 174.892C232.535 174.657 240.757 176.287 248.351 179.63C248.062 180.896 247.754 182.16 247.422 183.423C240.178 180.119 232.299 178.505 224.438 178.729C224.001 178.741 223.595 178.608 223.264 178.37H223.266Z" fill="#F9B35E"/>
<path d="M247.424 183.421C247.756 182.159 248.062 180.894 248.352 179.628C248.524 179.705 248.699 179.78 248.87 179.862C248.734 181.202 248.575 182.535 248.386 183.869C248.067 183.717 247.746 183.568 247.424 183.421Z" fill="#D98E5C"/>
<path d="M219.847 232.823C217.234 230.479 214.656 228.036 212.129 225.504C213.495 225.112 214.792 224.582 215.996 223.933C218.117 226.023 220.267 228.045 222.447 229.997C221.596 230.955 220.727 231.898 219.847 232.821V232.823ZM184.968 192.65C174.662 178.087 165.414 162.768 156.365 147.78C152.736 141.769 149.005 135.588 145.235 129.504C146.807 129.726 148.36 129.784 149.862 129.689C153.178 135.072 156.456 140.499 159.653 145.797C168.654 160.706 177.85 175.939 188.074 190.391C188.013 190.427 187.952 190.464 187.894 190.501C186.785 191.185 185.809 191.904 184.968 192.65ZM125.262 99.4802C118.682 90.4663 111.292 81.2863 103.068 72.7131C104.387 72.2251 105.712 71.7669 107.049 71.3262C114.153 78.8588 120.629 86.8023 126.486 94.669C126.381 94.8946 126.281 95.1202 126.189 95.3528C125.652 96.6907 125.348 98.0776 125.262 99.4785V99.4802Z" fill="#F9B35E"/>
<path d="M225.246 237.477C223.429 235.973 221.627 234.422 219.847 232.825C220.728 231.9 221.598 230.959 222.448 230C224.146 231.522 225.861 233.001 227.591 234.434C226.825 235.462 226.043 236.478 225.246 237.477Z" fill="#D98E5C"/>
<path d="M103.068 72.7148C101.15 70.7158 99.189 68.75 97.1795 66.8279C98.4807 66.2928 99.7941 65.7821 101.12 65.2959C103.142 67.2704 105.118 69.2852 107.049 71.3279C105.712 71.7686 104.387 72.2286 103.068 72.7148Z" fill="#F9CDA9"/>
<path d="M194.033 183.045C193.506 182.667 192.987 182.277 192.473 181.877C178.667 171.091 170.482 151.841 169.427 127.673C169.025 118.456 169.511 109.124 169.982 100.098C170.512 89.9434 171.063 79.4481 170.319 69.1995C171.629 69.5353 172.936 69.8955 174.239 70.2803C174.861 80.3208 174.33 90.468 173.817 100.295C173.348 109.234 172.867 118.473 173.263 127.505C173.847 140.84 177.425 165.245 194.837 178.851C195.324 179.233 195.818 179.602 196.315 179.958C200.443 182.923 204.934 185.123 209.691 186.877C206.401 186.109 202.828 185.931 199.344 186.387C197.52 185.384 195.747 184.276 194.035 183.045H194.033ZM221.526 194.336C221.311 194.007 221.08 193.686 220.837 193.374C220.835 193.376 220.835 193.376 220.837 193.38C220.716 193.229 220.599 193.084 220.475 192.939C219.654 191.98 218.703 191.12 217.64 190.356C216.604 189.612 215.464 188.96 214.245 188.407C219.856 190.128 225.765 191.402 231.823 192.706C235.692 193.539 239.65 194.392 243.555 195.38C243.092 196.584 242.606 197.782 242.097 198.973C238.417 198.053 234.676 197.248 231.017 196.459C227.864 195.779 224.69 195.097 221.528 194.336H221.526Z" fill="#F9B35E"/>
<path d="M242.095 198.973C242.604 197.782 243.09 196.584 243.553 195.38C244.367 195.587 245.175 195.797 245.983 196.017C245.664 197.255 245.322 198.488 244.96 199.718C244.01 199.461 243.057 199.214 242.097 198.973H242.095Z" fill="#D98E5C"/>
<path d="M170.319 69.1994C170.305 69.0071 170.291 68.8199 170.277 68.6293C170.127 66.6705 169.914 64.696 169.637 62.7372C170.989 63.1272 172.336 63.5417 173.674 63.9877C173.85 65.4375 173.994 66.8926 174.106 68.3372C174.155 68.9861 174.2 69.6332 174.239 70.282C172.936 69.8972 171.629 69.537 170.319 69.2012V69.1994Z" fill="#F9CDA9"/>
<path d="M219.747 161.955C221.159 160.769 222.358 159.433 223.306 157.985C224.261 157.922 225.233 157.838 226.225 157.733C228.458 157.494 230.75 157.181 232.967 156.876C238.097 156.175 243.37 155.451 248.62 155.537C248.779 156.818 248.91 158.102 249.021 159.386C243.903 159.255 238.618 159.977 233.488 160.68C231.243 160.988 228.922 161.306 226.636 161.551C224.23 161.808 221.932 161.939 219.745 161.953L219.747 161.955ZM189.097 130.478C189.61 124.584 191.263 118.659 193.466 113.444C194.937 109.967 196.633 106.502 198.272 103.153C201.123 97.3273 204.045 91.353 205.815 85.2213C206.684 85.8107 207.543 86.4088 208.391 87.0192C208.638 87.1958 208.883 87.3725 209.126 87.5526C207.258 93.5252 204.456 99.2511 201.721 104.841C200.105 108.143 198.431 111.562 197.002 114.941C195.338 118.883 194 123.257 193.295 127.669C191.749 128.463 190.339 129.411 189.097 130.48V130.478Z" fill="#F9B35E"/>
<path d="M205.814 85.2213C206.162 84.0093 206.466 82.7938 206.716 81.5696C207.846 82.4423 208.958 83.3342 210.049 84.2472C209.777 85.3577 209.465 86.4596 209.124 87.5526C208.879 87.3725 208.635 87.1976 208.39 87.0192C207.541 86.4106 206.683 85.8125 205.814 85.2213Z" fill="#F9CDA9"/>
<path d="M225.043 140.723C224.49 140.326 223.943 139.903 223.409 139.453C223.39 139.126 223.359 138.799 223.313 138.471C223.009 136.253 222.155 134.221 220.875 132.44C219.889 131.067 218.644 129.845 217.201 128.808C216.702 128.449 216.179 128.112 215.635 127.799C214.322 123.293 214.472 118.552 216.263 114.477C218.157 110.149 221.547 106.983 224.824 103.921C225.232 103.541 225.641 103.158 226.052 102.77C226.916 103.72 227.757 104.683 228.586 105.659C228.205 106.018 227.825 106.374 227.446 106.726C224.314 109.652 221.354 112.413 219.779 116.018C217.335 121.58 218.876 129.075 223.527 134.247C224.688 135.536 225.956 136.648 227.288 137.607C231.974 140.975 237.45 142.451 241.633 143.093C243.197 143.333 244.809 143.5 246.499 143.597C246.799 144.889 247.083 146.189 247.336 147.483C245.138 147.395 243.062 147.198 241.051 146.89C236.414 146.182 230.333 144.527 225.045 140.727L225.043 140.723Z" fill="#F9B35E"/>
<path d="M228.584 105.659C227.757 104.681 226.916 103.72 226.05 102.77C226.349 102.487 226.647 102.203 226.939 101.92C227.72 102.945 228.486 103.989 229.23 105.043C229.015 105.252 228.8 105.456 228.583 105.659H228.584Z" fill="#F9CDA9"/>
<path d="M145.18 86.3616C143.603 82.0488 141.833 77.7989 139.876 73.6225C141.121 73.1048 142.263 72.4997 143.265 71.8071C145.67 76.9175 147.797 82.131 149.642 87.4407C148.155 86.9318 146.66 86.575 145.182 86.3616H145.18Z" fill="#F9B35E"/>
<path d="M139.874 73.6207C137.492 68.54 134.828 63.5679 131.889 58.7111C133.338 58.6114 134.787 58.5397 136.233 58.4995C138.792 62.8456 141.135 67.2843 143.264 71.8053C142.261 72.4978 141.119 73.103 139.874 73.6207Z" fill="#F9CDA9"/>
<path d="M116.178 189.499C108.845 181.907 103.262 171.188 99.5581 157.583C99.1523 156.089 98.7728 154.583 98.4143 153.076C99.6613 152.436 100.809 151.68 101.832 150.825C102.276 152.757 102.75 154.68 103.264 156.577C106.396 168.085 110.893 177.38 116.669 184.303C116.309 186.017 116.147 187.762 116.178 189.5V189.499ZM89.8516 113.86C87.3401 105.698 82.9346 95.4332 75.4265 87.5491C76.4689 86.7848 77.527 86.038 78.5921 85.314C86.5042 93.8155 91.0811 104.655 93.6607 113.181C93.8916 113.944 94.1137 114.71 94.3306 115.478C92.9349 114.808 91.4361 114.262 89.8533 113.86H89.8516Z" fill="#F9B35E"/>
<path d="M75.4265 87.5473C73.8035 85.8421 72.0354 84.2523 70.1098 82.8147C71.1399 81.9858 72.1875 81.1725 73.2474 80.3802C75.1782 81.8966 76.9568 83.5545 78.5921 85.3122C77.527 86.038 76.4689 86.7848 75.4265 87.5473Z" fill="#F9CDA9"/>
<path d="M116.969 190.298C116.703 190.036 116.44 189.77 116.178 189.499C116.147 187.76 116.309 186.017 116.669 184.301C117.213 184.953 117.768 185.583 118.334 186.193C117.747 187.526 117.29 188.899 116.967 190.298H116.969Z" fill="#D98E5C"/>
<path d="M126.096 156.359C125.809 156.152 125.575 155.865 125.435 155.514L107.83 111.576C105.504 105.766 103.096 99.7601 99.5563 94.5815C97.8022 92.0194 95.2505 88.9465 91.8856 86.5295C90.0772 85.2301 88.0362 84.1195 85.7556 83.378C85.5632 83.315 85.3866 83.2241 85.2292 83.1121C84.7395 82.7623 84.4422 82.1974 84.4299 81.5976C85.4181 81.0099 86.4097 80.4415 87.4136 79.8854C89.911 80.7546 92.1444 81.9876 94.1224 83.4094C97.9228 86.1413 100.774 89.5604 102.725 92.4164C106.505 97.9429 108.99 104.148 111.395 110.149L128.999 154.088C129.395 155.073 128.915 156.191 127.931 156.584C127.298 156.838 126.61 156.729 126.096 156.36V156.359Z" fill="#F9B35E"/>
<path d="M84.4299 81.5975C84.4247 81.3859 84.4544 81.1708 84.5244 80.9592C84.8531 79.9518 85.9357 79.3992 86.9431 79.7262C87.1005 79.7769 87.2579 79.8311 87.4136 79.8854C86.4097 80.4415 85.418 81.0099 84.4299 81.5975Z" fill="#F9CDA9"/>
<path d="M198.517 250.305C190.811 240.499 183.431 230.395 176.496 220.155C175.902 219.276 176.133 218.085 177.011 217.49C177.693 217.023 178.571 217.063 179.207 217.52C179.386 217.648 179.543 217.808 179.674 218.001C186.621 228.256 194.015 238.372 201.739 248.189C200.675 248.913 199.598 249.616 198.515 250.302L198.517 250.305Z" fill="#F9B35E"/>
<path d="M204.306 257.542C202.356 255.15 200.425 252.736 198.515 250.305C199.598 249.619 200.675 248.916 201.739 248.192C203.594 250.553 205.472 252.897 207.365 255.22C206.359 256.012 205.34 256.788 204.306 257.544V257.542Z" fill="#D98E5C"/>
<path d="M151.181 265.937C151.387 265.215 151.616 264.499 151.865 263.795C153.071 260.386 154.742 257.182 156.356 254.081C157.776 251.353 159.249 248.532 160.336 245.665C161.576 242.421 163.993 234.247 159.7 228.351C159.074 227.492 159.266 226.292 160.12 225.668C160.81 225.17 161.716 225.191 162.374 225.661C162.535 225.777 162.68 225.922 162.802 226.09C166.605 231.31 167.016 238.946 163.923 247.033C162.757 250.106 161.232 253.028 159.759 255.856C158.135 258.976 156.601 261.921 155.485 265.078C155.413 265.281 155.34 265.484 155.273 265.69C153.895 265.809 152.528 265.891 151.181 265.937Z" fill="#F9B35E"/>
<path d="M149.731 276.92C149.689 273.167 150.182 269.444 151.181 265.937C152.529 265.893 153.895 265.809 155.273 265.69C154.11 269.201 153.531 272.996 153.572 276.836C152.276 276.899 150.997 276.929 149.731 276.92Z" fill="#D98E5C"/>
<path d="M174.657 261.717C174.497 257.626 174.756 253.548 175.428 249.576C175.608 248.532 176.6 247.829 177.644 248.005C177.939 248.056 178.21 248.171 178.443 248.337C179.018 248.75 179.342 249.471 179.214 250.218C178.653 253.532 178.403 256.93 178.459 260.34C177.199 260.821 175.932 261.279 174.657 261.717Z" fill="#F9B35E"/>
<path d="M176.026 272.469C175.251 268.926 174.793 265.316 174.657 261.715C175.932 261.278 177.198 260.82 178.459 260.339C178.518 263.94 178.92 267.556 179.664 271.112C178.459 271.586 177.25 272.037 176.026 272.469Z" fill="#D98E5C"/>
<path d="M127.03 261.914C127.182 261.51 127.326 261.106 127.462 260.702C130.535 251.65 130.194 239.198 122.507 231.788C121.815 231.118 121.066 230.495 120.27 229.923C115.844 226.742 109.917 225.089 103.376 225.219C103.313 223.888 103.226 222.609 103.115 221.385C110.564 221.205 117.378 223.116 122.523 226.814C123.466 227.49 124.352 228.228 125.176 229.022C133.001 236.567 135.327 249.487 131.1 261.937C130.951 262.374 130.795 262.81 130.633 263.245C129.405 262.845 128.205 262.402 127.032 261.914H127.03Z" fill="#F9B35E"/>
<path d="M123.174 269.916C124.77 267.198 126.045 264.555 127.03 261.914C128.204 262.402 129.403 262.845 130.631 263.245C129.575 266.08 128.216 268.903 126.523 271.797C125.369 271.219 124.251 270.591 123.174 269.916Z" fill="#D98E5C"/>
<path d="M62.2711 191.8C60.6376 185.405 59.9346 178.811 60.2197 172.307C60.5205 165.476 61.8689 158.709 63.1718 152.166C63.6825 149.604 64.2089 146.955 64.6636 144.35C65.2023 141.267 65.7165 137.813 65.9596 134.189C66.2744 134.873 66.6452 135.538 67.0649 136.181C67.0317 136.377 67.0019 136.577 66.9775 136.776C66.6294 139.571 67.1978 142.308 68.485 144.789C68.471 144.863 68.4588 144.938 68.4466 145.012C67.9848 147.659 67.4532 150.332 66.9372 152.918C65.6623 159.318 64.3453 165.939 64.0568 172.477C63.7979 178.414 64.4118 184.43 65.8494 190.284C64.7861 190.795 63.7245 191.251 62.6646 191.657C62.6349 191.673 62.6034 191.688 62.5684 191.69C62.4705 191.729 62.3708 191.765 62.2711 191.802V191.8ZM65.6745 123.351C65.4034 121.359 64.9872 119.376 64.3926 117.429C62.878 112.473 60.1235 108.087 56.6624 104.884C57.4983 103.914 58.3483 102.961 59.2105 102.025C63.1946 105.698 66.3461 110.687 68.0653 116.307C68.3171 117.134 68.541 117.968 68.7369 118.804C67.4217 120.14 66.3776 121.67 65.6745 123.351Z" fill="#F9B35E"/>
<path d="M64.9924 200.174C63.9064 197.439 62.9969 194.639 62.2711 191.8C62.3691 191.764 62.4687 191.727 62.5684 191.688C62.6034 191.687 62.6349 191.671 62.6646 191.655C63.7245 191.249 64.7878 190.793 65.8494 190.282C66.514 192.988 67.357 195.657 68.3696 198.268C67.2503 198.964 66.1222 199.599 64.9924 200.174Z" fill="#D98E5C"/>
<path d="M51.9053 101.486C52.6958 100.453 53.5038 99.4382 54.3275 98.4379C55.1093 98.8803 55.8718 99.3718 56.6134 99.9052C57.5123 100.551 58.3798 101.259 59.2105 102.027C58.3465 102.962 57.4983 103.915 56.6623 104.886C55.94 104.216 55.1862 103.601 54.4062 103.039C53.5982 102.459 52.764 101.939 51.9053 101.488V101.486Z" fill="#F9CDA9"/>
<path d="M48.8867 171.777C48.4949 167.023 48 162.006 47.4019 156.719C48.9269 160.799 49.5845 165.197 49.1718 169.577C49.1018 170.318 49.0056 171.053 48.8867 171.775V171.777Z" fill="#F9B35E"/>
<path d="M86.7962 169.278C86.6283 169.157 86.4797 169.01 86.3537 168.832C83.1725 164.37 80.9006 159.309 79.6449 154.003C80.9951 154.489 82.4239 154.863 83.9088 155.113C85.1103 159.211 86.9886 163.109 89.4808 166.602C90.0964 167.466 89.8953 168.664 89.0313 169.279C88.3458 169.769 87.4451 169.743 86.7962 169.276V169.278Z" fill="#F9B35E"/>
<path d="M144.461 166.567C142.195 149.756 135.654 133.575 125.577 120.147C124.94 119.299 125.111 118.096 125.96 117.459C126.383 117.141 126.895 117.025 127.382 117.094C128.616 119.698 130.542 122.134 133.022 124.168C141.345 137.26 146.684 152.354 148.498 167.894C147.185 167.322 145.834 166.88 144.461 166.567Z" fill="#F9B35E"/>
<path d="M145.124 173.108C144.976 170.922 144.755 168.737 144.463 166.567C145.836 166.88 147.186 167.324 148.5 167.894C148.757 170.087 148.942 172.288 149.056 174.495C147.772 173.905 146.459 173.445 145.126 173.108H145.124Z" fill="#D98E5C"/>
<path d="M224.016 213.37C224.231 211.899 224.181 210.356 223.813 208.772C227.14 210.806 230.543 212.714 234.018 214.494C233.338 215.591 232.64 216.67 231.928 217.735C229.249 216.353 226.61 214.898 224.018 213.368L224.016 213.37Z" fill="#F9B35E"/>
<path d="M231.927 217.737C232.638 216.672 233.336 215.593 234.017 214.496C235.461 215.236 236.916 215.951 238.385 216.646C237.829 217.796 237.249 218.937 236.649 220.072C235.062 219.32 233.487 218.541 231.927 217.737Z" fill="#D98E5C"/>
<path d="M44.5179 134.84C44.3115 133.514 44.1016 132.187 43.883 130.859C45.2594 131.123 46.7582 131.265 47.9282 130.723C49.6702 129.91 50.3872 127.638 50.1948 125.814C49.9902 123.92 49.0161 121.931 47.129 119.554C46.9104 119.28 46.6883 119.009 46.4609 118.739C47.1692 117.608 47.895 116.492 48.6366 115.394C49.1542 115.967 49.6544 116.558 50.1354 117.165C51.6202 119.035 53.6367 121.921 54.0127 125.404C54.4132 129.173 52.5769 132.792 49.5477 134.205C47.8968 134.971 46.1199 135.025 44.5179 134.842V134.84Z" fill="#F9B35E"/>
<path d="M46.4609 118.737C45.3766 117.455 44.2013 116.257 42.9456 115.152C43.166 114.753 43.3916 114.356 43.6189 113.961C44.0404 113.225 44.4689 112.494 44.9044 111.77C46.2283 112.889 47.4753 114.099 48.6366 115.392C47.8951 116.49 47.1693 117.606 46.4609 118.737Z" fill="#F9CDA9"/>
<path d="M129.242 83.4182C129.067 83.2922 128.91 83.1331 128.781 82.9442C127.06 80.438 125.341 77.9336 123.62 75.4274C125.187 75.6862 126.845 75.8086 128.531 75.7964C129.669 77.4561 130.806 79.1141 131.946 80.7703C132.546 81.6448 132.324 82.8393 131.45 83.4409C130.764 83.9096 129.881 83.8764 129.242 83.4164V83.4182Z" fill="#F9B35E"/>
<path d="M123.62 75.4274C120.416 70.7595 117.212 66.0916 114.004 61.4308C115.354 61.1125 116.706 60.8186 118.06 60.5493C121.551 65.6317 125.042 70.7123 128.531 75.7964C126.845 75.8086 125.187 75.6862 123.62 75.4274Z" fill="#F9CDA9"/>
<path d="M186.007 102.628C185.304 102.123 185.01 101.187 185.349 100.346C187.934 93.9833 189.267 86.9859 189.204 80.1161C189.194 79.0545 190.044 78.1888 191.105 78.1801C191.528 78.1748 191.922 78.3078 192.242 78.5386C192.723 78.8849 193.036 79.4446 193.041 80.0812C193.111 87.4528 191.681 94.9592 188.907 101.792C188.508 102.775 187.389 103.247 186.406 102.849C186.262 102.787 186.128 102.714 186.007 102.626V102.628Z" fill="#F9B35E"/>
<path d="M236.558 133.231C234.874 132.021 233.488 130.475 232.759 128.379C231.797 125.616 232.381 122.375 234.251 120.123C235.013 119.201 235.981 118.461 237.053 117.935C237.64 119.072 238.209 120.219 238.753 121.378C238.156 121.667 237.621 122.073 237.203 122.573C236.194 123.795 235.863 125.618 236.385 127.115C236.81 128.334 237.698 129.313 238.831 130.127C240.099 131.038 241.672 131.743 243.235 132.353C243.676 133.623 244.097 134.901 244.493 136.192C244.017 136.463 243.427 136.529 242.873 136.325C240.715 135.522 238.447 134.586 236.558 133.229V133.231Z" fill="#F9B35E"/>
<path d="M74.0816 151.101C71.6576 149.359 69.732 147.194 68.485 144.789C68.7999 142.969 69.1059 141.027 69.3543 138.997C70.1133 139.761 70.9528 140.473 71.8622 141.125C73.7895 142.511 76.0334 143.63 78.5028 144.387C78.5116 147.63 78.8999 150.86 79.6431 154.003C77.5969 153.268 75.7238 152.282 74.0816 151.101ZM83.9087 155.113C82.9678 151.911 82.4414 148.586 82.3557 145.241C82.4939 145.26 82.6303 145.277 82.7685 145.295C86.6196 145.774 90.3255 145.351 93.5663 144.221C94.5124 143.89 95.4201 143.5 96.2788 143.054C96.9277 146.386 97.6203 149.742 98.4125 153.074C94.6279 155.015 89.9285 155.886 84.9896 155.271C84.6258 155.225 84.2638 155.173 83.907 155.113H83.9087ZM101.832 150.823C101.064 147.472 100.387 144.09 99.7434 140.739C102.337 138.523 104.117 135.65 104.679 132.367C106.521 135.191 107.398 138.429 106.986 141.748C106.54 145.335 104.654 148.464 101.832 150.823Z" fill="#D29156"/>
<path d="M98.4143 153.074C97.622 149.742 96.9294 146.386 96.2806 143.054C97.5468 142.397 98.7098 141.62 99.7434 140.739C100.387 144.09 101.064 147.474 101.832 150.823C100.809 151.68 99.6612 152.436 98.4143 153.074Z" fill="#CE8459"/>
<path d="M68.485 144.788C67.1978 142.306 66.6294 139.569 66.9775 136.774C67.002 136.575 67.0317 136.377 67.0649 136.179C67.1559 136.319 67.2486 136.458 67.3448 136.594C67.9306 137.439 68.604 138.241 69.356 138.995C69.1077 141.026 68.8016 142.967 68.4868 144.788H68.485Z" fill="#CE8459"/>
<path d="M79.6431 154.003C78.8981 150.86 78.5116 147.63 78.5028 144.387C79.7358 144.765 81.0213 145.053 82.3557 145.242C82.4396 148.588 82.9678 151.911 83.9087 155.115C82.4221 154.865 80.995 154.489 79.6449 154.004L79.6431 154.003Z" fill="#CE8459"/>
<path d="M104.766 131.772C103.666 140.615 93.8199 146.669 82.772 145.297C71.7241 143.924 63.658 135.641 64.7581 126.8C65.8564 117.959 75.7028 111.903 86.7525 113.276C97.8004 114.649 105.866 122.93 104.768 131.772H104.766Z" fill="#FF5722"/>
<path d="M71.8622 141.125C70.9528 140.473 70.1133 139.759 69.3542 138.997C70.1133 139.759 70.9528 140.473 71.8622 141.127C73.7895 142.512 76.0334 143.63 78.5028 144.389C76.0334 143.632 73.7895 142.512 71.8622 141.127V141.125ZM82.3557 145.242C82.4939 145.262 82.632 145.279 82.7719 145.298C86.6231 145.776 90.3273 145.353 93.568 144.223C90.3273 145.354 86.6213 145.778 82.7702 145.297C82.632 145.279 82.4939 145.262 82.3574 145.242H82.3557Z" fill="#B36C54"/>
<path d="M69.3543 138.997C68.604 138.243 67.9289 137.44 67.343 136.596C67.9289 137.439 68.6022 138.243 69.3543 138.997Z" fill="#B06356"/>
<path d="M78.5028 144.387C79.734 144.765 81.023 145.053 82.3557 145.241C81.023 145.053 79.7358 144.765 78.5028 144.385V144.387Z" fill="#B06356"/>
<path d="M71.8622 141.125C70.9527 140.471 70.1132 139.758 69.3542 138.995C68.6039 138.241 67.9306 137.437 67.343 136.594C65.7077 134.243 64.7511 131.585 64.6671 128.82C64.6811 129.257 64.7178 129.693 64.7738 130.123C65.1236 129.241 65.5678 128.398 66.0942 127.604C67.343 130.03 69.2773 132.213 71.7188 133.967C74.7076 136.115 78.4538 137.619 82.6285 138.136C91.0653 139.177 98.792 135.903 102.466 130.361C103.22 131.825 103.722 133.376 103.934 134.974C104.348 133.962 104.623 132.879 104.763 131.765C104.046 137.528 99.6175 142.107 93.5662 144.219C90.3272 145.349 86.6213 145.772 82.7702 145.295C82.6302 145.276 82.4921 145.258 82.3539 145.239C81.0212 145.05 79.734 144.761 78.5011 144.385C76.0316 143.626 73.7877 142.509 71.8604 141.124L71.8622 141.125ZM64.884 126.009C64.9382 125.714 65.0012 125.422 65.0781 125.135C65.0029 125.424 64.9382 125.716 64.884 126.009Z" fill="#D2442F"/>
<path d="M102.613 122.631C101.387 120.675 99.7015 118.911 97.6622 117.445C96.7983 116.824 95.8696 116.258 94.8867 115.752C95.8696 116.258 96.8 116.826 97.664 117.447C99.7032 118.912 101.387 120.675 102.613 122.631Z" fill="#FFEBC5"/>
<path d="M64.6671 128.822C64.6444 128.154 64.6741 127.479 64.7616 126.8C64.7948 126.536 64.835 126.272 64.884 126.011C64.8368 126.272 64.7965 126.534 64.7616 126.8C64.6776 127.479 64.6461 128.154 64.6671 128.822ZM66.0942 127.606C65.6798 126.8 65.3405 125.968 65.0834 125.116C65.0816 125.123 65.0799 125.13 65.0781 125.137C67.1261 117.216 76.4129 111.992 86.7507 113.279C89.7169 113.646 92.4679 114.512 94.8849 115.752C95.8678 116.258 96.7965 116.824 97.6605 117.445C99.6997 118.911 101.386 120.675 102.612 122.631C104.347 125.397 105.163 128.545 104.763 131.767C104.987 129.904 104.817 128.059 104.291 126.31C103.913 127.758 103.29 129.117 102.466 130.363C101.218 127.933 99.2799 125.747 96.8367 123.991C95.3134 122.896 93.5942 121.97 91.7229 121.254C89.953 125.326 83.0115 125.915 79.3738 123.3C78.3332 122.552 77.5636 121.545 77.2611 120.28C72.4638 121.431 68.4483 124.056 66.0942 127.606Z" fill="#FFC4B2"/>
<path d="M64.7738 130.125C64.7178 129.695 64.6811 129.259 64.6671 128.822C64.6461 128.154 64.6776 127.479 64.7616 126.8C64.7965 126.534 64.8368 126.272 64.884 126.011C64.9382 125.717 65.0047 125.425 65.0781 125.137C65.0799 125.13 65.0816 125.123 65.0834 125.116C65.3405 125.969 65.6797 126.8 66.0942 127.606C65.5678 128.4 65.1236 129.243 64.7738 130.125ZM103.936 134.976C103.724 133.378 103.222 131.826 102.468 130.363C103.294 129.117 103.915 127.76 104.292 126.31C104.819 128.059 104.988 129.904 104.765 131.767C104.625 132.881 104.35 133.964 103.936 134.976Z" fill="#EFBEB6"/>
<path d="M134.211 125.083C133.802 124.789 133.405 124.483 133.022 124.168C131.645 122.003 130.187 119.892 128.648 117.842C128.527 117.681 128.387 117.546 128.232 117.435C127.976 117.251 127.682 117.137 127.38 117.093C125.713 113.582 125.302 109.767 126.472 106.231C127.847 109.529 130.325 112.599 133.641 114.983C134.813 115.824 136.086 116.579 137.454 117.228C139.311 120.082 141.077 122.858 142.749 125.522C143.578 126.844 144.407 128.171 145.233 129.504C143.312 129.233 141.361 128.719 139.437 127.946C137.525 127.176 135.773 126.205 134.209 125.083H134.211ZM149.862 129.689C148.58 127.61 147.295 125.537 146.004 123.482C145.119 122.073 144.21 120.633 143.274 119.169C145.401 119.598 147.508 119.726 149.523 119.577C155.53 119.129 160.714 116.216 163.135 111.417C163.303 111.086 163.456 110.745 163.596 110.397C163.698 110.142 163.792 109.886 163.878 109.627C165.365 113.185 165.567 117.003 164.16 120.5C161.961 125.966 156.379 129.275 149.862 129.689Z" fill="#D29156"/>
<path d="M145.235 129.504C144.409 128.173 143.58 126.844 142.751 125.522C141.079 122.856 139.311 120.083 137.455 117.228C137.915 117.447 138.387 117.653 138.868 117.846C140.329 118.435 141.807 118.872 143.274 119.168C144.21 120.632 145.119 122.071 146.004 123.481C147.295 125.536 148.582 127.608 149.862 129.688C148.36 129.784 146.807 129.724 145.235 129.502V129.504Z" fill="#CE8459"/>
<path d="M133.022 124.168C130.542 122.134 128.616 119.698 127.382 117.094C127.684 117.135 127.978 117.251 128.233 117.435C128.389 117.546 128.529 117.681 128.65 117.842C130.187 119.892 131.645 122.003 133.024 124.168H133.022Z" fill="#CE8459"/>
<path d="M163.593 110.402C160.268 118.668 149.199 122.001 138.87 117.846C128.541 113.692 122.864 103.622 126.189 95.3545C129.514 87.0892 140.582 83.7557 150.912 87.9094C161.241 92.0648 166.918 102.135 163.593 110.402Z" fill="#83C351"/>
<path d="M133.641 114.983C130.325 112.599 127.847 109.528 126.472 106.231C127.849 109.528 130.327 112.601 133.643 114.984C134.811 115.824 136.088 116.579 137.454 117.228V117.23C136.086 116.581 134.811 115.826 133.641 114.984V114.983ZM143.272 119.169C143.271 119.168 143.272 119.169 143.271 119.168C145.397 119.596 147.505 119.726 149.519 119.575C147.505 119.724 145.399 119.596 143.271 119.168L143.272 119.169Z" fill="#B36C54"/>
<path d="M137.455 117.228V117.226C137.917 117.447 138.389 117.653 138.87 117.846C140.331 118.433 141.807 118.872 143.272 119.168C143.274 119.169 143.272 119.168 143.274 119.169C141.807 118.874 140.329 118.435 138.868 117.847C138.387 117.655 137.917 117.447 137.455 117.23V117.228Z" fill="#B06356"/>
<path d="M133.644 114.984C130.327 112.601 127.85 109.528 126.474 106.231C126.346 105.927 126.229 105.621 126.121 105.313C125.173 102.614 124.963 99.7933 125.631 97.1017C125.51 97.5896 125.421 98.0811 125.362 98.5743C125.925 97.8135 126.568 97.1139 127.28 96.4808C128.233 100.808 131.102 104.982 135.339 108.027C136.904 109.152 138.657 110.122 140.568 110.89C148.458 114.056 156.763 112.868 161.736 108.452C162.087 110.059 162.176 111.689 161.966 113.29C162.21 112.971 162.437 112.639 162.647 112.296C160.058 116.571 155.154 119.156 149.526 119.575C147.512 119.724 145.404 119.595 143.278 119.168C141.812 118.872 140.336 118.435 138.875 117.846C138.393 117.651 137.922 117.445 137.461 117.226C136.095 116.578 134.818 115.824 133.65 114.983L133.644 114.984ZM126.656 94.3367C126.712 94.2265 126.769 94.1145 126.829 94.0061C126.771 94.1145 126.712 94.2265 126.656 94.3367Z" fill="#7C8F50"/>
<path d="M163.878 109.627C163.878 109.627 163.878 109.627 163.876 109.626C166.048 103.062 162.769 95.5399 156.137 90.7741C154.574 89.6513 152.82 88.6789 150.912 87.9094C150.632 87.7975 150.35 87.6908 150.069 87.5894C150.348 87.6908 150.632 87.7975 150.912 87.9094C152.825 88.6789 154.579 89.6496 156.144 90.7741C162.776 95.5399 166.052 103.064 163.878 109.626V109.627Z" fill="#FFEBC5"/>
<path d="M163.135 111.415C163.303 111.084 163.453 110.748 163.593 110.402C163.696 110.145 163.792 109.886 163.876 109.626C163.878 109.627 163.878 109.627 163.878 109.627C163.792 109.886 163.698 110.142 163.596 110.397C163.456 110.745 163.303 111.084 163.135 111.416V111.415Z" fill="#EFD9C4"/>
<path d="M125.629 97.1017C125.773 96.5141 125.96 95.9317 126.192 95.358C126.334 95.0082 126.488 94.6672 126.656 94.3366C126.49 94.6689 126.339 95.0082 126.194 95.3598C125.965 95.9317 125.776 96.514 125.631 97.1034L125.629 97.1017ZM127.277 96.4791C127.081 95.5941 126.965 94.7004 126.936 93.812C126.899 93.8749 126.864 93.9379 126.827 94.0044C130.649 86.951 140.57 84.1544 150.069 87.5911C150.348 87.6925 150.632 87.7992 150.911 87.9111C152.821 88.6806 154.574 89.6513 156.137 90.7758C162.769 95.5416 166.047 103.062 163.876 109.627C163.792 109.888 163.696 110.147 163.593 110.404C163.453 110.75 163.303 111.086 163.135 111.417C162.983 111.716 162.818 112.011 162.643 112.298C163.007 111.698 163.325 111.063 163.593 110.4C164.287 108.657 164.593 106.829 164.532 105.003C163.794 106.306 162.848 107.461 161.732 108.454C160.842 104.389 158.26 100.458 154.444 97.4759C152.02 100.292 146.837 99.6901 143.564 97.3395C141.805 96.0751 140.596 94.3052 140.67 92.2852C135.453 92.0001 130.614 93.5147 127.277 96.4826V96.4791Z" fill="#D4EAC2"/>
<path d="M125.358 98.5743C125.418 98.0811 125.508 97.5897 125.627 97.1017C125.774 96.5123 125.961 95.9299 126.191 95.358C126.336 95.0065 126.486 94.6672 126.652 94.3349C126.708 94.2248 126.766 94.1128 126.825 94.0044C126.862 93.9379 126.897 93.875 126.934 93.812C126.964 94.7022 127.079 95.5942 127.275 96.4791C126.563 97.114 125.919 97.8118 125.356 98.5726L125.358 98.5743ZM161.961 113.29C162.169 111.688 162.082 110.059 161.73 108.452C162.846 107.461 163.794 106.305 164.53 105.002C164.59 106.827 164.284 108.655 163.591 110.399C163.324 111.063 163.004 111.698 162.641 112.296C162.432 112.639 162.206 112.97 161.961 113.29Z" fill="#D1D8C2"/>
<path d="M191.805 163.478C188.492 161.098 186.233 157.744 185.696 153.819C185.514 152.492 185.54 151.175 185.753 149.889C186.394 150.792 187.144 151.628 187.989 152.39C188.457 152.815 188.956 153.216 189.48 153.592C192.441 155.718 196.243 157.07 200.411 157.361C205.389 160.46 211.861 161.997 219.749 161.952C216.641 164.564 212.522 166.43 207.856 167.071C201.73 167.908 195.944 166.45 191.806 163.475L191.805 163.478ZM208.234 156.668C210.947 155.991 213.418 154.888 215.541 153.474C219.703 150.706 222.54 146.734 223.255 142.402C224.509 144.163 225.342 146.171 225.643 148.357C226.104 151.757 225.213 155.089 223.306 157.987C217.477 158.368 212.444 157.927 208.236 156.67L208.234 156.668Z" fill="#D29156"/>
<path d="M200.409 157.364C202.066 157.478 203.781 157.425 205.523 157.189C206.452 157.062 207.354 156.888 208.234 156.668C212.442 157.926 217.475 158.368 223.304 157.985C222.357 159.433 221.157 160.769 219.745 161.955C211.858 162.001 205.385 160.463 200.408 157.364H200.409Z" fill="#CE8459"/>
<path d="M223.313 138.471C224.518 147.299 216.555 155.68 205.527 157.187C194.495 158.695 184.575 152.761 183.368 143.934C182.161 135.106 190.124 126.727 201.154 125.217C212.183 123.711 222.105 129.644 223.313 138.471Z" fill="#1D9CD7"/>
<path d="M189.479 153.593C188.954 153.216 188.456 152.815 187.987 152.392C188.456 152.815 188.952 153.216 189.477 153.593C192.438 155.722 196.24 157.074 200.408 157.364C200.409 157.364 200.408 157.364 200.409 157.364C196.242 157.072 192.44 155.722 189.479 153.595V153.593ZM208.231 156.665C210.943 155.988 213.416 154.886 215.539 153.473C213.416 154.886 210.945 155.989 208.232 156.666C208.232 156.666 208.232 156.666 208.231 156.665Z" fill="#B36C54"/>
<path d="M200.409 157.364C202.067 157.48 203.783 157.427 205.528 157.187C206.454 157.062 207.358 156.885 208.234 156.666C208.236 156.668 208.236 156.668 208.236 156.668C207.356 156.888 206.454 157.062 205.525 157.189C203.783 157.427 202.069 157.48 200.411 157.364C200.409 157.364 200.411 157.364 200.409 157.364Z" fill="#B06356"/>
<path d="M189.477 153.593C188.952 153.217 188.456 152.815 187.987 152.392C186.072 150.66 184.641 148.548 183.877 146.164C183.984 146.495 184.104 146.82 184.237 147.14C184.349 146.197 184.561 145.269 184.863 144.368C185.638 145.227 186.525 146.008 187.499 146.71C191.639 149.685 197.422 151.143 203.55 150.305C211.971 149.148 218.6 143.999 220.728 137.698C221.835 138.917 222.72 140.289 223.334 141.781C223.469 140.697 223.46 139.588 223.303 138.469C223.252 138.077 223.18 137.691 223.093 137.307C223.18 137.691 223.252 138.079 223.31 138.471C224.1 144.273 220.933 149.884 215.539 153.476C213.416 154.889 210.943 155.991 208.231 156.668C207.354 156.888 206.45 157.063 205.525 157.189C203.78 157.429 202.066 157.481 200.406 157.366C196.238 157.076 192.436 155.724 189.475 153.595L189.477 153.593ZM183.28 143.049C183.263 142.785 183.251 142.526 183.251 142.267C183.252 142.526 183.265 142.787 183.28 143.049Z" fill="#3574AE"/>
<path d="M183.571 145.052C183.548 144.95 183.525 144.849 183.506 144.746C183.525 144.849 183.55 144.95 183.571 145.052ZM205.763 125.013C209.422 125.188 212.818 126.179 215.635 127.799C215.637 127.8 215.635 127.802 215.637 127.804C212.82 126.184 209.423 125.191 205.765 125.014L205.763 125.013Z" fill="#FFEBC5"/>
<path d="M220.875 132.439C219.887 131.069 218.645 129.848 217.202 128.811C216.702 128.453 216.181 128.115 215.635 127.8C215.635 127.8 215.635 127.797 215.634 127.795C216.178 128.108 216.701 128.446 217.199 128.804C218.642 129.841 219.887 131.064 220.873 132.437L220.875 132.439Z" fill="#FDE4C7"/>
<path d="M183.879 146.164C183.76 145.8 183.656 145.43 183.571 145.052C183.548 144.95 183.525 144.849 183.506 144.746C183.452 144.478 183.408 144.209 183.371 143.934C183.333 143.637 183.301 143.343 183.282 143.047C183.303 143.34 183.335 143.633 183.373 143.931C183.478 144.697 183.649 145.44 183.879 146.162V146.164ZM184.865 144.368C184.26 143.695 183.719 142.978 183.252 142.222C183.251 142.236 183.252 142.252 183.252 142.267C183.186 134.072 190.827 126.636 201.158 125.221C202.721 125.006 204.264 124.941 205.765 125.013C209.425 125.189 212.82 126.183 215.637 127.802C216.183 128.117 216.704 128.453 217.204 128.813C218.645 129.848 219.889 131.069 220.877 132.44C221.93 133.902 222.692 135.538 223.096 137.306C222.768 135.886 222.211 134.544 221.456 133.315C221.459 134.812 221.209 136.281 220.732 137.698C219.959 136.841 219.079 136.059 218.108 135.361C215.712 133.638 212.764 132.426 209.519 131.874C209.427 137.659 200.873 140.204 196.567 137.11C195.588 136.405 194.827 135.412 194.437 134.095C189.758 136.424 186.296 140.137 184.868 144.37L184.865 144.368Z" fill="#B0DCF1"/>
<path d="M184.237 147.14C184.104 146.82 183.985 146.495 183.877 146.164C183.646 145.443 183.475 144.698 183.371 143.932C183.333 143.635 183.301 143.341 183.28 143.049C183.265 142.787 183.252 142.528 183.251 142.267C183.251 142.252 183.251 142.236 183.251 142.222C183.718 142.977 184.258 143.695 184.863 144.368C184.559 145.269 184.349 146.197 184.237 147.14ZM223.334 141.781C222.72 140.291 221.835 138.918 220.728 137.697C221.206 136.281 221.456 134.81 221.452 133.315C222.208 134.544 222.764 135.886 223.093 137.306C223.18 137.689 223.252 138.077 223.303 138.467C223.458 139.586 223.467 140.695 223.334 141.779V141.781Z" fill="#B8CEE3"/>
<path d="M188.323 220.829C186.582 219.578 185.054 218.172 183.802 216.668C180.954 213.19 180.547 209.316 182.703 205.758C182.915 206.07 183.148 206.381 183.398 206.687C184.209 207.661 185.138 208.597 186.166 209.475C186.724 209.951 187.308 210.409 187.922 210.85C190.469 212.679 193.464 214.174 196.712 215.147C198.898 215.802 201.196 216.222 203.547 216.35C206.336 219.517 209.203 222.573 212.129 225.504C211.188 225.771 210.219 225.976 209.226 226.107C201.516 227.193 193.853 224.802 188.321 220.827L188.323 220.829ZM215.997 223.935C213.463 221.437 210.976 218.849 208.538 216.17C208.636 216.157 208.732 216.145 208.829 216.131C213.168 215.558 217.085 213.608 219.815 210.806C221.202 211.684 222.601 212.537 224.016 213.371C223.367 217.824 220.275 221.632 215.996 223.937L215.997 223.935Z" fill="#D29156"/>
<path d="M212.129 225.505C209.201 222.572 206.336 219.517 203.547 216.352C205.191 216.441 206.865 216.388 208.538 216.171C210.976 218.851 213.463 221.439 215.997 223.937C214.794 224.585 213.495 225.115 212.131 225.507L212.129 225.505Z" fill="#CE8459"/>
<path d="M222.129 207.729C222.421 207.198 222.684 206.654 222.9 206.092C222.963 206.231 223.025 206.37 223.081 206.512C223.399 207.273 223.639 208.027 223.812 208.773C223.248 208.431 222.685 208.081 222.127 207.729H222.129Z" fill="#D29156"/>
<path d="M219.815 210.806C219.95 210.668 220.081 210.526 220.211 210.384C220.956 209.562 221.603 208.672 222.131 207.729C222.689 208.081 223.252 208.431 223.815 208.774C224.182 210.356 224.235 211.901 224.018 213.372C222.603 212.539 221.204 211.684 219.817 210.806H219.815Z" fill="#CE8459"/>
<path d="M208.825 216.128C198.69 217.555 188.636 212.978 183.403 206.689C178.301 200.454 181.035 192.956 192.308 188.267C203.489 183.531 218.724 186.87 222.684 196.533C226.664 206.105 218.873 214.795 208.825 216.128Z" fill="#FA5C98"/>
<path d="M182.703 205.758C181.664 204.233 181.079 202.651 180.96 201.061C180.974 201.251 180.996 201.44 181.023 201.629C181.229 203.028 181.79 204.415 182.705 205.758H182.703ZM222.682 196.526C222.367 195.756 221.979 195.025 221.526 194.334L221.528 194.336C221.979 195.024 222.365 195.753 222.682 196.526Z" fill="#D29156"/>
<path d="M221.524 194.334C221.309 194.007 221.078 193.687 220.837 193.379C220.835 193.376 220.835 193.376 220.837 193.374C221.08 193.686 221.312 194.006 221.526 194.336L221.524 194.334Z" fill="#CE8459"/>
<path d="M186.166 209.475C185.138 208.597 184.209 207.661 183.398 206.687C183.148 206.379 182.915 206.07 182.703 205.758C182.918 206.071 183.149 206.383 183.403 206.691C184.214 207.666 185.141 208.599 186.166 209.477V209.475ZM208.538 216.17C208.538 216.17 208.538 216.17 208.535 216.168C208.633 216.156 208.731 216.142 208.825 216.13C213.166 215.554 217.082 213.606 219.815 210.806C217.085 213.608 213.168 215.558 208.829 216.131C208.733 216.145 208.636 216.157 208.538 216.17Z" fill="#B36C54"/>
<path d="M203.547 216.35C205.193 216.439 206.863 216.385 208.535 216.168C208.538 216.17 208.538 216.17 208.538 216.17C206.865 216.388 205.193 216.441 203.547 216.35Z" fill="#B06356"/>
<path d="M219.815 210.806C219.95 210.668 220.081 210.526 220.211 210.384C220.081 210.526 219.95 210.666 219.815 210.806Z" fill="#B06356"/>
<path d="M187.919 210.848C187.308 210.409 186.724 209.951 186.166 209.475C185.141 208.599 184.214 207.665 183.403 206.689C183.149 206.381 182.918 206.07 182.703 205.757C181.789 204.415 181.227 203.027 181.021 201.627C181.192 202.769 181.598 203.906 182.243 205.015C182.443 204.303 182.74 203.598 183.134 202.908C183.774 203.471 184.454 204.011 185.171 204.527C190.699 208.501 198.354 210.893 206.072 209.807C212.958 208.894 218.783 204.52 220.487 198.778C221.828 200.078 222.904 201.591 223.624 203.303C223.698 202.792 223.736 202.273 223.743 201.748C223.714 204.998 222.392 207.98 220.212 210.383C220.083 210.524 219.952 210.664 219.817 210.804C217.084 213.602 213.168 215.552 208.827 216.128C208.732 216.142 208.635 216.154 208.537 216.166C206.865 216.383 205.193 216.437 203.549 216.348C201.198 216.22 198.9 215.801 196.714 215.145C193.468 214.171 190.469 212.675 187.92 210.846L187.919 210.848Z" fill="#CF4782"/>
<path d="M180.958 201.061C180.729 198.159 182.048 195.244 184.968 192.652C184.966 192.654 184.968 192.652 184.966 192.654C182.17 195.141 180.843 197.925 180.937 200.707C180.935 200.706 180.935 200.706 180.935 200.706C180.939 200.823 180.946 200.944 180.956 201.061H180.958Z" fill="#FFEBC5"/>
<path d="M184.968 192.652C184.97 192.65 184.968 192.652 184.97 192.65C185.811 191.903 186.787 191.185 187.896 190.501C186.787 191.185 185.809 191.905 184.968 192.652Z" fill="#FDE4C7"/>
<path d="M223.71 200.767C223.663 200.122 223.567 199.469 223.416 198.81C223.243 198.056 223 197.295 222.682 196.526C223.282 197.969 223.614 199.389 223.712 200.767H223.71Z" fill="#FFEBC5"/>
<path d="M220.835 193.38C220.716 193.229 220.597 193.082 220.473 192.937C220.597 193.082 220.714 193.227 220.835 193.378V193.38Z" fill="#FDE4C7"/>
<path d="M183.134 202.908C182.338 202.206 181.602 201.468 180.939 200.706C180.844 197.923 182.17 195.137 184.968 192.652C185.809 191.905 186.787 191.185 187.896 190.501C189.181 189.705 190.652 188.958 192.307 188.273C200.607 184.752 211.148 185.69 217.648 190.361C218.707 191.122 219.66 191.98 220.476 192.937C220.601 193.082 220.718 193.227 220.838 193.38C221.136 195.263 220.992 197.078 220.489 198.778C219.913 198.221 219.291 197.703 218.624 197.224C215.567 195.025 211.613 193.658 207.417 193.192C206.536 196.888 200.11 198.357 197.041 196.15C196.397 195.686 195.901 195.064 195.635 194.268C194.843 194.529 194.056 194.807 193.29 195.132C188.153 197.266 184.79 199.987 183.137 202.908H183.134ZM223.742 201.748C223.749 200.788 223.644 199.807 223.416 198.808C223.569 199.468 223.665 200.122 223.71 200.765C223.735 201.096 223.743 201.421 223.742 201.746V201.748Z" fill="#FDC6DB"/>
<path d="M181.021 201.629C180.995 201.44 180.972 201.251 180.958 201.061C180.947 200.942 180.94 200.823 180.937 200.706C180.937 200.706 180.937 200.706 180.939 200.708C180.949 201.015 180.975 201.323 181.021 201.629ZM223.416 198.81C223.243 198.058 223.002 197.299 222.684 196.533C222.367 195.76 221.977 195.025 221.524 194.336L221.526 194.334C221.979 195.025 222.367 195.756 222.682 196.526C223.002 197.295 223.245 198.056 223.416 198.81Z" fill="#EFD9C4"/>
<path d="M221.522 194.336C221.307 194.007 221.076 193.689 220.835 193.381V193.38C221.076 193.687 221.307 194.007 221.522 194.334L221.521 194.336H221.522Z" fill="#EED4C5"/>
<path d="M182.243 205.017C181.598 203.908 181.191 202.771 181.021 201.629C180.975 201.321 180.949 201.015 180.939 200.708C181.601 201.47 182.338 202.208 183.134 202.909C182.74 203.602 182.443 204.305 182.243 205.017ZM223.623 203.305C222.902 201.591 221.828 200.08 220.485 198.78C220.989 197.082 221.132 195.265 220.835 193.381C221.076 193.689 221.307 194.007 221.522 194.336C221.975 195.027 222.367 195.76 222.682 196.533C223 197.297 223.241 198.056 223.415 198.81C223.644 199.807 223.747 200.79 223.74 201.75C223.733 202.275 223.694 202.794 223.621 203.305H223.623Z" fill="#EEBFD3"/>
<path fill-rule="evenodd" clip-rule="evenodd" d="M121.979 185.466C127.499 175.815 139.801 172.468 149.449 177.987C159.107 183.512 162.454 195.812 156.935 205.461C151.41 215.119 139.108 218.468 129.452 212.941C119.804 207.422 116.456 195.121 121.979 185.464V185.466ZM145.123 173.108C135.337 170.63 124.688 174.832 119.438 184.011C119.031 184.722 118.663 185.452 118.336 186.193C117.749 187.524 117.292 188.899 116.969 190.298C116.76 191.193 116.608 192.101 116.512 193.014C116.482 192.837 116.453 192.661 116.426 192.484C115.765 197.607 116.843 202.803 119.428 207.219C119.387 207.053 119.347 206.886 119.31 206.719C120.942 209.651 123.198 212.189 125.956 214.171C126.609 214.639 127.291 215.078 127.997 215.484C139.038 221.801 153.159 217.955 159.474 206.916C162.127 202.278 163.075 196.988 162.224 191.786C162.138 191.256 162.033 190.73 161.909 190.204C161.846 189.938 161.779 189.674 161.708 189.408C160.303 184.252 157.23 179.838 152.949 176.761C152.293 176.291 151.609 175.852 150.901 175.446C150.294 175.098 149.675 174.783 149.051 174.495C147.769 173.907 146.454 173.445 145.121 173.108H145.123Z" fill="#D29156"/>
<path d="M92.8002 273.093C92.1269 272.768 91.4588 272.438 90.7925 272.1C80.6435 266.948 71.411 260.249 63.4062 252.316C60.9262 249.859 58.5652 247.285 56.3283 244.6C57.2657 243.133 58.3518 241.749 59.5865 240.467C60.4015 240.432 61.2305 240.291 62.0263 240.027L73.7755 236.134C74.2967 235.964 74.7986 235.735 75.2621 235.478C85.7433 238.419 91.6057 244.404 94.2658 251.169C94.9094 252.792 95.3641 254.455 95.6492 256.134L95.6562 256.139C95.7052 256.447 95.7541 256.755 95.7961 257.056C95.8224 257.199 95.8346 257.346 95.8573 257.497C96.0025 258.689 96.0672 259.886 96.0515 261.068C96.0567 261.105 96.062 261.143 96.055 261.183C96.0287 263.632 95.6842 266.04 95.1036 268.314C94.6856 269.97 94.1696 271.7 93.6764 273.511C93.3826 273.373 93.0888 273.233 92.7967 273.092L92.8002 273.093Z" fill="#FFC659"/>
<path d="M75.5437 236.329C75.0854 236.592 74.5783 236.817 74.0571 236.985L62.3131 240.884C61.5086 241.142 60.6831 241.284 59.8664 241.321C57.4529 241.4 55.0551 240.488 53.2782 238.696C50.4205 235.815 47.6589 232.108 44.9831 227.763C34.9933 211.575 26.3046 186.695 18.8927 164.311C17.8784 161.257 16.906 158.191 15.9668 155.127L15.965 155.115C0.118108 103.176 -4.81908 50.528 5.18822 47.2103C15.8041 43.7002 45.7001 93.7088 63.8382 148.46C66.5595 156.68 69.2441 165.241 71.6313 173.723L71.6331 173.736C75.8987 188.911 79.2339 203.842 80.1765 216.1C80.5596 221.166 80.5403 225.768 80.0104 229.761C79.6414 232.59 77.9554 235 75.5419 236.329H75.5437Z" fill="#22A7F0"/>
<path d="M40.6143 144.02C37.0728 142.362 34.3794 134.938 31.0058 126.344C26.7681 115.548 23.0639 106.997 28.1848 104.988C29.6731 104.403 31.3695 104.591 33.1324 105.416C37.433 107.429 42.1236 113.239 45.13 120.896C49.3676 131.692 48.6506 142.072 43.528 144.081C42.4839 144.492 41.5203 144.445 40.6126 144.022L40.6143 144.02Z" fill="#65C2F5"/>
<path d="M47.6152 170.019C45.5585 169.057 44.1506 165.698 43.166 161.603C41.891 156.304 41.8123 151.782 44.9866 151.017C45.8733 150.804 46.795 150.937 47.6887 151.357C49.9955 152.436 52.1239 155.412 53.0421 159.23C54.3153 164.529 52.7745 169.442 49.6002 170.206C48.8797 170.38 48.2203 170.304 47.617 170.021L47.6152 170.019Z" fill="#65C2F5"/>
<path fill-rule="evenodd" clip-rule="evenodd" d="M5.18996 47.2121C-0.852551 49.2146 -1.44718 69.203 2.51936 96.159C0.752955 73.7799 2.52986 58.4646 8.359 56.5356C9.67768 56.0966 11.2325 56.3204 12.9884 57.1424C18.7546 59.841 26.6737 69.0071 35.399 82.5297C22.9257 59.8218 11.0838 45.2638 5.18821 47.2138L5.18996 47.2121Z" fill="#65C2F5"/>
<path fill-rule="evenodd" clip-rule="evenodd" d="M21.4951 172.094C27.9853 191.304 35.3815 211.376 43.6994 225.623L46.3577 224.743L77.2873 214.496L79.9579 213.611C79.9125 213.151 79.8635 212.689 79.811 212.222C79.7393 211.661 79.6624 211.096 79.5837 210.524C78.2755 201.141 75.9651 190.239 72.616 177.674C70.087 186.468 64.1862 192.14 56.7008 193.54C52.2498 194.373 47.2374 193.694 42.0414 191.262C35.2259 188.072 28.092 181.861 21.4969 172.094H21.4951Z" fill="#387CBF"/>
<path fill-rule="evenodd" clip-rule="evenodd" d="M79.958 213.609L77.2874 214.494L46.3578 224.741L43.6994 225.621C44.1244 226.35 44.5546 227.064 44.9849 227.763C47.6589 232.106 50.4222 235.814 53.28 238.696C54.0477 239.472 54.9344 240.083 55.8876 240.52C56.818 240.947 57.8132 241.207 58.8258 241.293C59.1721 241.323 59.5201 241.331 59.8681 241.321C60.6849 241.284 61.5121 241.144 62.3149 240.884L74.0589 236.985C74.58 236.816 75.0872 236.592 75.5454 236.33C75.834 236.17 76.1138 235.996 76.3814 235.807C77.2209 235.212 77.9484 234.476 78.5308 233.633C79.3091 232.505 79.8285 231.188 80.0139 229.762C80.5421 225.77 80.5631 221.166 80.1801 216.1C80.1171 215.281 80.0437 214.451 79.9597 213.609H79.958Z" fill="#D2B9CA"/>
<path fill-rule="evenodd" clip-rule="evenodd" d="M93.6799 273.511C94.1749 271.696 94.6838 269.963 95.1053 268.312C95.4761 266.869 95.7471 265.374 95.901 263.847C95.497 267.822 94.3847 270.89 92.7023 273.228L92.7985 273.092C93.0905 273.233 93.3844 273.373 93.6782 273.511H93.6799Z" fill="#CF4782"/>
<path fill-rule="evenodd" clip-rule="evenodd" d="M92.8002 273.093C94.4285 270.771 95.5093 267.745 95.9028 263.849C95.992 262.969 96.0445 262.079 96.0532 261.183C96.0532 261.145 96.0549 261.106 96.0549 261.068C96.0619 260.001 96.0095 258.925 95.8923 257.85C94.9671 263.041 94.2606 268.733 90.7942 272.1H90.796C91.4605 272.438 92.1304 272.768 92.8037 273.093H92.8002ZM90.5354 272.341L90.5284 272.348L90.5214 272.354L90.5284 272.347L90.5354 272.341ZM90.5144 272.359L90.5074 272.366L90.5144 272.361V272.359ZM90.4934 272.376L90.4864 272.382L90.4794 272.389L90.4864 272.383L90.4934 272.376ZM90.4164 272.443L90.4094 272.45L90.4164 272.445V272.443ZM90.3885 272.467L90.3815 272.473L90.3885 272.466V272.467ZM90.3745 272.48L90.3675 272.487L90.3745 272.481V272.48ZM90.3255 272.522L90.3185 272.527L90.3115 272.532L90.3185 272.525L90.3255 272.52V272.522ZM63.1018 259.894C63.0284 259.896 62.9549 259.898 62.8797 259.901L63.1018 259.894ZM62.2082 259.966C61.9825 259.999 61.7534 260.041 61.5226 260.097C61.4106 260.123 61.3022 260.151 61.1938 260.179C61.0854 260.207 60.9787 260.237 60.872 260.267C60.767 260.297 60.6621 260.328 60.5589 260.36C60.4575 260.391 60.3561 260.423 60.2581 260.456C60.6604 260.323 61.0819 260.204 61.5243 260.097C61.7552 260.041 61.9825 259.998 62.2099 259.964L62.2082 259.966ZM60.2511 260.459C60.1497 260.492 60.0517 260.526 59.9521 260.561L60.2511 260.459ZM59.9486 260.562C59.8524 260.597 59.7562 260.632 59.6617 260.667C59.5655 260.704 59.4711 260.741 59.3784 260.779C59.2857 260.818 59.193 260.856 59.1021 260.895C59.3732 260.778 59.6547 260.667 59.9486 260.562ZM59.1021 260.895C59.0129 260.933 58.9237 260.973 58.838 261.014L58.8345 261.015C58.7505 261.054 58.6666 261.094 58.5861 261.134L59.1038 260.896L59.1021 260.895ZM58.5669 261.141C58.483 261.183 58.399 261.225 58.3168 261.267C58.399 261.225 58.483 261.182 58.5669 261.141ZM58.0702 261.402C57.9898 261.446 57.9111 261.491 57.8341 261.537L57.8306 261.538C57.7519 261.586 57.675 261.631 57.598 261.68L58.0702 261.402ZM57.3689 261.827C57.2954 261.876 57.2237 261.925 57.1538 261.974C57.2237 261.925 57.2972 261.876 57.3689 261.827ZM56.9404 262.126C56.874 262.175 56.8092 262.224 56.7445 262.275L56.741 262.276L56.7375 262.28L56.734 262.282C56.6676 262.334 56.6011 262.388 56.5364 262.441L56.9404 262.124V262.126ZM56.5329 262.444C56.4735 262.495 56.414 262.544 56.3563 262.595C56.414 262.544 56.4735 262.493 56.5329 262.444ZM56.3265 262.621C56.2741 262.668 56.2216 262.715 56.1709 262.763L56.3265 262.621ZM56.1447 262.785C56.0922 262.834 56.0397 262.885 55.989 262.934C56.0397 262.883 56.0922 262.834 56.1447 262.785ZM55.8071 263.118C55.7564 263.17 55.7057 263.224 55.6567 263.278L55.8071 263.118ZM55.6287 263.31C55.578 263.364 55.529 263.42 55.4818 263.476C55.529 263.42 55.5798 263.364 55.6287 263.31ZM55.4766 263.481C55.4311 263.534 55.3874 263.588 55.3419 263.642C55.3856 263.588 55.4311 263.534 55.4766 263.481ZM55.0306 264.052C54.9886 264.109 54.9484 264.167 54.9082 264.226C54.9484 264.169 54.9886 264.109 55.0306 264.052ZM54.5287 264.846C54.5007 264.894 54.4744 264.945 54.4482 264.996L54.5287 264.846ZM54.422 265.043C54.3905 265.104 54.359 265.166 54.3293 265.229C54.359 265.167 54.3905 265.104 54.422 265.043ZM54.3188 265.248C54.2908 265.304 54.2646 265.361 54.2383 265.417L54.3188 265.248ZM53.537 267.698C53.5265 267.756 53.516 267.815 53.5073 267.873L53.537 267.698ZM53.4373 268.406C53.4303 268.466 53.4251 268.525 53.4198 268.585L53.4373 268.406ZM53.3691 269.597C53.3691 269.669 53.3674 269.739 53.3691 269.812C53.3674 269.741 53.3691 269.669 53.3691 269.597Z" fill="#FF99C0"/>
<path fill-rule="evenodd" clip-rule="evenodd" d="M51.8423 264.204C52.0015 263.91 52.1624 263.621 52.3285 263.336C52.1641 263.621 52.0015 263.91 51.8423 264.204ZM55.0848 259.31C55.279 259.071 55.4748 258.835 55.6725 258.604C55.4748 258.835 55.2772 259.069 55.0848 259.31ZM55.6812 258.595C55.8788 258.366 56.0782 258.14 56.2811 257.92C56.08 258.14 55.8788 258.366 55.6812 258.595ZM56.2933 257.906C56.4962 257.684 56.7026 257.465 56.9107 257.252C56.7026 257.465 56.4962 257.682 56.2933 257.906ZM57.5578 256.61C57.9793 256.204 58.4095 255.816 58.8485 255.445C58.4113 255.816 57.981 256.204 57.5578 256.61ZM58.8765 255.421C59.0934 255.239 59.3102 255.06 59.5288 254.886C59.3085 255.06 59.0916 255.239 58.8765 255.421ZM59.5428 254.875C59.7632 254.7 59.9853 254.53 60.2074 254.364C59.9836 254.53 59.7632 254.7 59.5428 254.875ZM60.9245 253.85C61.1483 253.694 61.3739 253.544 61.6013 253.395C61.3739 253.542 61.1483 253.694 60.9245 253.85ZM62.3393 252.934C62.5754 252.792 62.8116 252.652 63.0494 252.519C62.8116 252.654 62.5737 252.792 62.3393 252.934ZM63.0774 252.503C74.2337 246.237 88.2618 248.92 95.8031 257.058C95.7612 256.755 95.7122 256.449 95.6615 256.141L95.6545 256.136C95.3694 254.457 94.9147 252.794 94.2711 251.173C91.7072 244.651 86.1666 238.855 76.3814 235.81C76.1138 235.999 75.8357 236.174 75.5454 236.333C75.089 236.597 74.58 236.821 74.0588 236.989L62.3166 240.887C61.5121 241.146 60.6866 241.288 59.8681 241.324C59.5201 241.337 59.1721 241.326 58.8258 241.298C57.9023 242.342 57.0716 243.448 56.3318 244.604C58.5669 247.288 60.9297 249.863 63.4097 252.32L63.0774 252.503Z" fill="#D29156"/>
<path fill-rule="evenodd" clip-rule="evenodd" d="M151.828 270.967C95.7454 270.967 50.2823 225.504 50.2823 169.421C50.2823 128.245 74.7916 92.7923 110.017 76.8562C67.9761 89.681 37.3928 128.775 37.3928 175.011C37.3928 231.677 83.3298 277.613 139.995 277.613C160.943 277.613 180.426 271.336 196.663 260.557C183.141 267.222 167.921 270.967 151.826 270.967H151.828Z" fill="#EC239B" fill-opacity="0.2"/>
<path d="M84.0731 62.3664C85.4109 62.3664 86.4954 61.2819 86.4954 59.9441C86.4954 58.6063 85.4109 57.5219 84.0731 57.5219C82.7354 57.5219 81.6509 58.6063 81.6509 59.9441C81.6509 61.2819 82.7354 62.3664 84.0731 62.3664Z" fill="#2C1538"/>
<path d="M58.8852 74.9585C59.5797 74.9585 60.1427 74.3956 60.1427 73.7011C60.1427 73.0066 59.5797 72.4436 58.8852 72.4436C58.1907 72.4436 57.6277 73.0066 57.6277 73.7011C57.6277 74.3956 58.1907 74.9585 58.8852 74.9585Z" fill="#2C1538"/>
<path d="M37.4558 75.0339C38.6757 75.0339 39.6647 74.0449 39.6647 72.825C39.6647 71.605 38.6757 70.6161 37.4558 70.6161C36.2358 70.6161 35.2469 71.605 35.2469 72.825C35.2469 74.0449 36.2358 75.0339 37.4558 75.0339Z" fill="#2C1538"/>
<path d="M60.4138 97.196C63.1936 97.196 65.4471 94.9425 65.4471 92.1627C65.4471 89.3828 63.1936 87.1293 60.4138 87.1293C57.6339 87.1293 55.3804 89.3828 55.3804 92.1627C55.3804 94.9425 57.6339 97.196 60.4138 97.196Z" fill="#431D53"/>
<path fill-rule="evenodd" clip-rule="evenodd" d="M75.019 91.9144C77.5689 91.9144 79.6361 89.8472 79.6361 87.2973C79.6361 86.853 79.9982 86.4893 80.4441 86.4893C80.8884 86.4893 81.2521 86.8513 81.2521 87.2973C81.2521 89.8472 83.3194 91.9144 85.8693 91.9144C86.3135 91.9144 86.6773 92.2764 86.6773 92.7224C86.6773 93.1666 86.3153 93.5304 85.8693 93.5304C83.3194 93.5304 81.2521 95.5976 81.2521 98.1475C81.2521 98.5918 80.8901 98.9555 80.4441 98.9555C79.9999 98.9555 79.6361 98.5935 79.6361 98.1475C79.6361 95.5976 77.5689 93.5304 75.019 93.5304C74.5748 93.5304 74.211 93.1684 74.211 92.7224C74.211 92.2782 74.573 91.9144 75.019 91.9144ZM215.315 239.986C218.301 239.986 220.723 237.566 220.723 234.581C220.723 234.059 221.148 233.634 221.669 233.634C222.19 233.634 222.615 234.059 222.615 234.581C222.615 237.566 225.036 239.986 228.021 239.986C228.542 239.986 228.967 240.411 228.967 240.933C228.967 241.454 228.542 241.879 228.021 241.879C225.036 241.879 222.615 244.299 222.615 247.286C222.615 247.808 222.19 248.233 221.669 248.233C221.148 248.233 220.723 247.808 220.723 247.286C220.723 244.301 218.303 241.879 215.315 241.879C214.794 241.879 214.369 241.454 214.369 240.933C214.369 240.411 214.794 239.986 215.315 239.986ZM80.0751 236.177C82.4379 236.177 84.3512 234.262 84.3512 231.901C84.3512 231.49 84.687 231.153 85.0998 231.153C85.5107 231.153 85.8483 231.488 85.8483 231.901C85.8483 234.262 87.7634 236.177 90.1244 236.177C90.5354 236.177 90.8729 236.513 90.8729 236.926C90.8729 237.337 90.5371 237.674 90.1244 237.674C87.7616 237.674 85.8483 239.589 85.8483 241.951C85.8483 242.361 85.5125 242.699 85.0998 242.699C84.6888 242.699 84.3512 242.363 84.3512 241.951C84.3512 239.588 82.4362 237.674 80.0751 237.674C79.6641 237.674 79.3266 237.339 79.3266 236.926C79.3266 236.515 79.6624 236.177 80.0751 236.177ZM154.42 109.766C155.443 109.766 156.272 110.595 156.272 111.618C156.272 112.641 155.443 113.47 154.42 113.47C153.397 113.47 152.568 112.641 152.568 111.618C152.568 110.595 153.397 109.766 154.42 109.766ZM79.4053 183.731C82.1843 183.731 84.4387 185.985 84.4387 188.764C84.4387 191.543 82.1843 193.798 79.4053 193.798C76.6263 193.798 74.3719 191.543 74.3719 188.764C74.3719 185.985 76.6263 183.731 79.4053 183.731ZM82.1004 158.868C83.1707 158.868 84.0382 158.001 84.0382 156.93C84.0382 156.743 84.1903 156.591 84.3775 156.591C84.5646 156.591 84.7167 156.743 84.7167 156.93C84.7167 158.001 85.5842 158.868 86.6545 158.868C86.8417 158.868 86.9938 159.02 86.9938 159.207C86.9938 159.395 86.8417 159.547 86.6545 159.547C85.5842 159.547 84.7167 160.414 84.7167 161.485C84.7167 161.672 84.5646 161.824 84.3775 161.824C84.1903 161.824 84.0382 161.672 84.0382 161.485C84.0382 160.414 83.1707 159.547 82.1004 159.547C81.9132 159.547 81.7611 159.395 81.7611 159.207C81.7611 159.02 81.9132 158.868 82.1004 158.868ZM83.3928 124.617C84.694 124.617 85.7486 123.563 85.7486 122.262C85.7486 122.034 85.934 121.849 86.1613 121.849C86.3887 121.849 86.5723 122.034 86.5723 122.262C86.5723 123.563 87.6269 124.617 88.9281 124.617C89.1555 124.617 89.3409 124.803 89.3409 125.028C89.3409 125.256 89.1555 125.441 88.9281 125.441C87.6269 125.441 86.5723 126.496 86.5723 127.797C86.5723 128.024 86.387 128.21 86.1613 128.21C85.934 128.21 85.7486 128.024 85.7486 127.797C85.7486 126.496 84.694 125.441 83.3928 125.441C83.1655 125.441 82.9801 125.256 82.9801 125.028C82.9801 124.801 83.1655 124.617 83.3928 124.617Z" fill="white" fill-opacity="0.25098"/>
<path fill-rule="evenodd" clip-rule="evenodd" d="M98.2149 46.9217C100.064 46.3306 101.083 44.3525 100.49 42.5039C100.387 42.1821 100.565 41.8341 100.889 41.7309C101.211 41.6277 101.559 41.8061 101.662 42.1297C102.253 43.9783 104.231 44.9979 106.08 44.405C106.402 44.3018 106.75 44.4802 106.853 44.8038C106.956 45.1256 106.778 45.4736 106.454 45.5768C104.605 46.1679 103.586 48.1459 104.179 49.9963C104.282 50.3181 104.104 50.6661 103.78 50.7693C103.458 50.8725 103.11 50.6941 103.007 50.3706C102.416 48.522 100.438 47.5023 98.5874 48.0952C98.2656 48.1984 97.9176 48.02 97.8144 47.6965C97.7112 47.3747 97.8896 47.0266 98.2132 46.9235L98.2149 46.9217Z" fill="#2C1538"/>
<path fill-rule="evenodd" clip-rule="evenodd" d="M102.468 291.221C103.846 292.017 105.609 291.545 106.405 290.167C106.543 289.927 106.853 289.843 107.092 289.981C107.333 290.12 107.416 290.429 107.278 290.67C106.482 292.049 106.954 293.812 108.332 294.607C108.572 294.745 108.656 295.055 108.518 295.295C108.379 295.536 108.07 295.618 107.828 295.48C106.45 294.684 104.687 295.156 103.892 296.535C103.753 296.774 103.444 296.858 103.203 296.72C102.963 296.582 102.879 296.272 103.017 296.031C103.813 294.653 103.341 292.89 101.963 292.094C101.723 291.956 101.639 291.646 101.777 291.405C101.915 291.165 102.225 291.081 102.466 291.22L102.468 291.221Z" fill="#462262"/>
<path d="M155.128 309.228C156.965 309.228 158.454 307.739 158.454 305.902C158.454 304.065 156.965 302.575 155.128 302.575C153.291 302.575 151.801 304.065 151.801 305.902C151.801 307.739 153.291 309.228 155.128 309.228Z" fill="#4E236C"/>
<path d="M184.776 308.787C185.61 308.787 186.287 308.111 186.287 307.276C186.287 306.442 185.61 305.765 184.776 305.765C183.941 305.765 183.264 306.442 183.264 307.276C183.264 308.111 183.941 308.787 184.776 308.787Z" fill="#4E236C"/>
<path d="M219.399 291.865C221.358 291.865 222.946 290.277 222.946 288.318C222.946 286.359 221.358 284.771 219.399 284.771C217.44 284.771 215.852 286.359 215.852 288.318C215.852 290.277 217.44 291.865 219.399 291.865Z" fill="#4E236C"/>
<path d="M187.154 340C190.602 340 193.398 337.205 193.398 333.757C193.398 330.309 190.602 327.513 187.154 327.513C183.706 327.513 180.91 330.309 180.91 333.757C180.91 337.205 183.706 340 187.154 340Z" fill="#4E236C"/>
</g>
<defs>
<radialGradient id="paint0_radial_71_11678" cx="0" cy="0" r="1" gradientUnits="userSpaceOnUse" gradientTransform="translate(139.996 175.009) scale(69.8273 69.8273)">
<stop stop-color="#EE249C"/>
<stop offset="0.890196" stop-color="#852172"/>
<stop offset="1" stop-color="#1C1E48"/>
</radialGradient>
<linearGradient id="paint1_linear_71_11678" x1="41.2072" y1="220.652" x2="238.786" y2="129.366" gradientUnits="userSpaceOnUse">
<stop stop-color="#783CA1"/>
<stop offset="1" stop-color="#EE229B"/>
</linearGradient>
<clipPath id="clip0_71_11678">
<rect width="313.501" height="340" fill="white"/>
</clipPath>
</defs>
</svg>
