<svg width="217" height="246" viewBox="0 0 217 246" fill="none" xmlns="http://www.w3.org/2000/svg">
<g clip-path="url(#clip0_71_11927)">
<path d="M124.059 24.626C125.576 24.626 126.805 23.3967 126.805 21.8804C126.805 20.364 125.576 19.1348 124.059 19.1348C122.543 19.1348 121.314 20.364 121.314 21.8804C121.314 23.3967 122.543 24.626 124.059 24.626Z" fill="#232851"/>
<path d="M143.033 50.6444C143.822 50.6444 144.462 50.0044 144.462 49.215C144.462 48.4256 143.822 47.7856 143.033 47.7856C142.243 47.7856 141.603 48.4256 141.603 49.215C141.603 50.0044 142.243 50.6444 143.033 50.6444Z" fill="#232851"/>
<path d="M165.887 61.9683C167.404 61.9683 168.633 60.739 168.633 59.2227C168.633 57.7063 167.404 56.4771 165.887 56.4771C164.371 56.4771 163.142 57.7063 163.142 59.2227C163.142 60.739 164.371 61.9683 165.887 61.9683Z" fill="#232851"/>
<path fill-rule="evenodd" clip-rule="evenodd" d="M145.285 61.9596C146.674 61.9596 147.799 60.8344 147.799 59.4458C147.799 59.2039 147.997 59.0063 148.239 59.0063C148.481 59.0063 148.678 59.2039 148.678 59.4458C148.678 60.8342 149.804 61.9596 151.192 61.9596C151.434 61.9596 151.632 62.1571 151.632 62.3993C151.632 62.6413 151.434 62.8388 151.192 62.8388C149.804 62.8388 148.678 63.9644 148.678 65.3528C148.678 65.5948 148.481 65.7923 148.239 65.7923C147.997 65.7923 147.799 65.5948 147.799 65.3528C147.799 63.9642 146.674 62.8388 145.285 62.8388C145.043 62.8388 144.846 62.6413 144.846 62.3993C144.846 62.1571 145.043 61.9596 145.285 61.9596Z" fill="#292E6B"/>
<path fill-rule="evenodd" clip-rule="evenodd" d="M137.427 29.342C139.871 29.342 141.852 27.3616 141.852 24.9181C141.852 24.4921 142.199 24.1445 142.625 24.1445C143.051 24.1445 143.399 24.4921 143.399 24.9181C143.399 27.3614 145.379 29.342 147.823 29.342C148.249 29.342 148.596 29.6895 148.596 30.1156C148.596 30.5417 148.249 30.8892 147.823 30.8892C145.379 30.8892 143.399 32.8701 143.399 35.3135C143.399 35.7396 143.051 36.0871 142.625 36.0871C142.199 36.0871 141.852 35.7396 141.852 35.3135C141.852 32.8701 139.871 30.8892 137.427 30.8892C137.001 30.8892 136.654 30.5417 136.654 30.1156C136.654 29.6895 137.001 29.342 137.427 29.342Z" fill="#3A3E61"/>
<path fill-rule="evenodd" clip-rule="evenodd" d="M194.615 18.2136C199.511 18.2136 203.481 14.2448 203.481 9.34755C203.481 8.49364 204.178 7.79688 205.032 7.79688C205.886 7.79688 206.583 8.49364 206.583 9.34755C206.583 14.2439 210.552 18.2136 215.449 18.2136C216.303 18.2136 216.999 18.9104 216.999 19.7643C216.999 20.6182 216.303 21.3147 215.449 21.3147C210.551 21.3147 206.583 25.2849 206.583 30.1817C206.583 31.0356 205.886 31.7323 205.032 31.7323C204.178 31.7323 203.481 31.0356 203.481 30.1817C203.481 25.2844 199.512 21.3147 194.615 21.3147C193.761 21.3147 193.064 20.6182 193.064 19.7643C193.064 18.9104 193.761 18.2136 194.615 18.2136Z" fill="#3A3E61"/>
<path fill-rule="evenodd" clip-rule="evenodd" d="M126.645 4.86327C128.689 4.62303 130.152 2.77168 129.911 0.727792C129.869 0.371423 130.126 0.0463516 130.482 0.00447662C130.839 -0.0373984 131.164 0.219248 131.206 0.575617C131.446 2.61929 133.297 4.08146 135.341 3.84122C135.697 3.79935 136.022 4.05599 136.064 4.41236C136.106 4.76895 135.85 5.0938 135.493 5.13568C133.449 5.37592 131.987 7.22748 132.228 9.27137C132.27 9.62774 132.013 9.9526 131.657 9.99469C131.3 10.0366 130.975 9.77992 130.933 9.42355C130.693 7.37966 128.841 5.91727 126.797 6.15751C126.441 6.1996 126.116 5.94296 126.074 5.58637C126.032 5.23 126.289 4.90515 126.645 4.86327Z" fill="#3A3E61"/>
<path d="M91.61 215.241C140.633 215.241 180.374 175.5 180.374 126.478C180.374 77.4549 140.633 37.7141 91.61 37.7141C42.5872 37.7141 2.84644 77.4549 2.84644 126.478C2.84644 175.5 42.5872 215.241 91.61 215.241Z" fill="url(#paint0_radial_71_11927)"/>
<path d="M91.61 205.124C135.045 205.124 170.256 169.913 170.256 126.478C170.256 83.0423 135.045 47.8311 91.61 47.8311C48.1748 47.8311 12.9636 83.0423 12.9636 126.478C12.9636 169.913 48.1748 205.124 91.61 205.124Z" fill="url(#paint1_linear_71_11927)"/>
<path fill-rule="evenodd" clip-rule="evenodd" d="M100.161 195.825C59.6305 195.825 26.7743 162.969 26.7743 122.439C26.7743 92.6807 44.4866 67.0594 69.9438 55.5425C39.5618 64.8105 17.4595 93.0629 17.4595 126.477C17.4595 167.43 50.6578 200.628 91.6098 200.628C106.75 200.628 120.829 196.091 132.564 188.302C122.791 193.119 111.792 195.825 100.16 195.825L100.161 195.825Z" fill="#EC239B" fill-opacity="0.2"/>
<path d="M51.1939 45.0716C52.1604 45.0716 52.9438 44.2881 52.9438 43.3217C52.9438 42.3552 52.1604 41.5718 51.1939 41.5718C50.2275 41.5718 49.444 42.3552 49.444 43.3217C49.444 44.2881 50.2275 45.0716 51.1939 45.0716Z" fill="#2C1538"/>
<path d="M32.9904 54.1718C33.4925 54.1718 33.8996 53.7648 33.8996 53.2627C33.8996 52.7606 33.4925 52.3535 32.9904 52.3535C32.4883 52.3535 32.0812 52.7606 32.0812 53.2627C32.0812 53.7648 32.4883 54.1718 32.9904 54.1718Z" fill="#2C1538"/>
<path d="M17.5044 54.2274C18.3863 54.2274 19.1013 53.5125 19.1013 52.6306C19.1013 51.7486 18.3863 51.0337 17.5044 51.0337C16.6225 51.0337 15.9076 51.7486 15.9076 52.6306C15.9076 53.5125 16.6225 54.2274 17.5044 54.2274Z" fill="#2C1538"/>
<path d="M34.096 70.2426C36.1049 70.2426 37.7335 68.614 37.7335 66.605C37.7335 64.5961 36.1049 62.9675 34.096 62.9675C32.087 62.9675 30.4585 64.5961 30.4585 66.605C30.4585 68.614 32.087 70.2426 34.096 70.2426Z" fill="#431D53"/>
<path fill-rule="evenodd" clip-rule="evenodd" d="M44.6511 66.4262C46.4938 66.4262 47.9877 64.9325 47.9877 63.0898C47.9877 62.7684 48.2499 62.5063 48.5711 62.5063C48.8925 62.5063 49.1544 62.7686 49.1544 63.0898C49.1544 64.9323 50.6483 66.4262 52.4908 66.4262C52.8122 66.4262 53.0742 66.6882 53.0742 67.0094C53.0742 67.3308 52.8119 67.5929 52.4908 67.5929C50.648 67.5929 49.1544 69.0868 49.1544 70.9295C49.1544 71.2509 48.8923 71.5129 48.5711 71.5129C48.2497 71.5129 47.9877 71.2507 47.9877 70.9295C47.9877 69.0868 46.4938 67.5929 44.6511 67.5929C44.3297 67.5929 44.0676 67.3306 44.0676 67.0094C44.0676 66.688 44.3299 66.4262 44.6511 66.4262ZM146.043 173.437C148.201 173.437 149.95 171.688 149.95 169.53C149.95 169.153 150.257 168.846 150.634 168.846C151.01 168.846 151.317 169.153 151.317 169.53C151.317 171.688 153.066 173.437 155.224 173.437C155.601 173.437 155.908 173.744 155.908 174.121C155.908 174.497 155.601 174.804 155.224 174.804C153.066 174.804 151.317 176.553 151.317 178.711C151.317 179.088 151.01 179.395 150.634 179.395C150.257 179.395 149.95 179.088 149.95 178.711C149.95 176.553 148.201 174.804 146.043 174.804C145.666 174.804 145.359 174.497 145.359 174.121C145.359 173.744 145.666 173.437 146.043 173.437ZM48.3054 170.684C50.0126 170.684 51.3964 169.3 51.3964 167.593C51.3964 167.295 51.6394 167.052 51.9371 167.052C52.2348 167.052 52.4776 167.295 52.4776 167.593C52.4776 169.3 53.8614 170.684 55.5684 170.684C55.866 170.684 56.1091 170.927 56.1091 171.224C56.1091 171.522 55.866 171.765 55.5684 171.765C53.8612 171.765 52.4776 173.149 52.4776 174.856C52.4776 175.154 52.2348 175.397 51.9371 175.397C51.6394 175.397 51.3964 175.154 51.3964 174.856C51.3964 173.149 50.0126 171.765 48.3054 171.765C48.0078 171.765 47.7647 171.522 47.7647 171.224C47.7647 170.927 48.0078 170.684 48.3054 170.684ZM102.034 79.3267C102.774 79.3267 103.373 79.9264 103.373 80.6659C103.373 81.4054 102.774 82.005 102.034 82.005C101.295 82.005 100.695 81.4054 100.695 80.6659C100.695 79.9264 101.295 79.3267 102.034 79.3267ZM47.8215 132.781C49.8302 132.781 51.459 134.41 51.459 136.419C51.459 138.427 49.8302 140.056 47.8215 140.056C45.8128 140.056 44.184 138.427 44.184 136.419C44.184 134.41 45.8128 132.781 47.8215 132.781ZM49.7695 114.813C50.5431 114.813 51.1704 114.186 51.1704 113.413C51.1704 113.277 51.2805 113.167 51.4156 113.167C51.5505 113.167 51.6606 113.277 51.6606 113.413C51.6606 114.186 52.2876 114.813 53.0613 114.813C53.1964 114.813 53.3065 114.923 53.3065 115.058C53.3065 115.193 53.1964 115.303 53.0613 115.303C52.2876 115.303 51.6606 115.931 51.6606 116.704C51.6606 116.839 51.5505 116.949 51.4156 116.949C51.2805 116.949 51.1704 116.839 51.1704 116.704C51.1704 115.931 50.5431 115.303 49.7695 115.303C49.6344 115.303 49.5243 115.193 49.5243 115.058C49.5243 114.923 49.6344 114.813 49.7695 114.813ZM50.7029 90.0599C51.6431 90.0599 52.4057 89.2975 52.4057 88.3573C52.4057 88.1932 52.5395 88.0594 52.7036 88.0594C52.8674 88.0594 53.0012 88.1932 53.0012 88.3573C53.0012 89.2975 53.7636 90.0599 54.7039 90.0599C54.8679 90.0599 55.0018 90.1937 55.0018 90.3575C55.0018 90.5216 54.8679 90.6554 54.7039 90.6554C53.7636 90.6554 53.0012 91.418 53.0012 92.3583C53.0012 92.5223 52.8674 92.6561 52.7036 92.6561C52.5395 92.6561 52.4057 92.5223 52.4057 92.3583C52.4057 91.418 51.6431 90.6554 50.7029 90.6554C50.5388 90.6554 50.405 90.5216 50.405 90.3575C50.405 90.1937 50.5388 90.0599 50.7029 90.0599Z" fill="white" fill-opacity="0.25098"/>
<path fill-rule="evenodd" clip-rule="evenodd" d="M61.4147 33.91C62.7506 33.4824 63.4873 32.053 63.0594 30.7169C62.985 30.484 63.1143 30.233 63.3472 30.1583C63.5801 30.0838 63.8311 30.2131 63.9056 30.4458C64.3332 31.7819 65.7628 32.5182 67.0987 32.0906C67.3316 32.0161 67.5826 32.1454 67.6571 32.3781C67.7317 32.611 67.6025 32.862 67.3696 32.9367C66.0334 33.3643 65.2972 34.7939 65.7248 36.13C65.7995 36.3629 65.6702 36.6139 65.4373 36.6884C65.2044 36.7629 64.9533 36.6338 64.8788 36.4009C64.4512 35.0648 63.0217 34.3283 61.6856 34.7559C61.4527 34.8306 61.2016 34.7013 61.1269 34.4684C61.0525 34.2355 61.1818 33.9844 61.4147 33.91Z" fill="#2C1538"/>
<path fill-rule="evenodd" clip-rule="evenodd" d="M64.4884 210.463C65.4845 211.038 66.7583 210.697 67.3335 209.701C67.4339 209.527 67.6571 209.467 67.8308 209.567C68.0048 209.668 68.0644 209.891 67.9642 210.065C67.3892 211.061 67.7307 212.335 68.7266 212.91C68.9004 213.01 68.9602 213.233 68.86 213.407C68.7596 213.581 68.5362 213.641 68.3625 213.541C67.3663 212.965 66.0926 213.307 65.5176 214.303C65.4172 214.477 65.1938 214.537 65.02 214.437C64.8463 214.336 64.7865 214.113 64.8866 213.939C65.4619 212.943 65.1204 211.669 64.1242 211.094C63.9505 210.993 63.8907 210.77 63.9908 210.596C64.0912 210.423 64.3146 210.363 64.4884 210.463Z" fill="#462262"/>
<path d="M102.545 223.478C103.873 223.478 104.949 222.401 104.949 221.074C104.949 219.746 103.873 218.669 102.545 218.669C101.217 218.669 100.141 219.746 100.141 221.074C100.141 222.401 101.217 223.478 102.545 223.478Z" fill="#4E236C"/>
<path d="M123.972 223.158C124.575 223.158 125.064 222.669 125.064 222.066C125.064 221.462 124.575 220.973 123.972 220.973C123.368 220.973 122.879 221.462 122.879 222.066C122.879 222.669 123.368 223.158 123.972 223.158Z" fill="#4E236C"/>
<path d="M148.993 210.928C150.408 210.928 151.555 209.78 151.555 208.365C151.555 206.949 150.408 205.802 148.993 205.802C147.577 205.802 146.43 206.949 146.43 208.365C146.43 209.78 147.577 210.928 148.993 210.928Z" fill="#4E236C"/>
<path d="M125.69 245.716C128.182 245.716 130.202 243.696 130.202 241.204C130.202 238.712 128.182 236.691 125.69 236.691C123.198 236.691 121.178 238.712 121.178 241.204C121.178 243.696 123.198 245.716 125.69 245.716Z" fill="#4E236C"/>
<path fill-rule="evenodd" clip-rule="evenodd" d="M111.292 68.7501C108.152 67.2516 104.602 66.99 101.276 68.0199C97.8371 69.0846 94.9892 71.4253 93.2559 74.5897C92.0899 76.7171 90.8725 77.5255 88.3934 76.9455C86.4195 76.4836 84.4166 75.7583 82.6837 74.6855C80.5242 73.3457 79.8134 72.0394 78.7956 69.7771L71.1873 52.8706C69.4396 48.9868 71.1634 44.3818 75.0178 42.6434L134.686 15.7234C135.012 15.5505 135.375 15.3968 135.715 15.2586C135.998 15.1339 136.29 15.024 136.587 14.9318C144.137 12.3306 150.708 15.1678 154.122 22.5824C154.151 22.6409 154.176 22.699 154.205 22.7575L158.82 33.0087C161.13 29.9401 164.354 27.6379 168.117 26.4967C174.431 24.5812 180.689 25.5089 186.045 29.4573C190.456 32.7101 193.772 37.7062 195.394 42.9287C198.462 52.8104 192.993 63.2875 183.18 66.3256C180.175 67.2564 177.03 67.3971 174.016 66.7841L181.714 83.8881C183.462 87.7708 181.739 92.3751 177.882 94.1147L161.904 101.324C165.505 103.68 168.246 107.248 169.564 111.492C172.637 121.39 167.116 131.733 157.376 134.88C148.867 137.633 139.045 136.956 132.247 130.545C129.658 128.104 127.81 125.062 126.755 121.665C126.337 120.32 126.071 118.937 125.963 117.539L117.438 121.385C115.438 122.368 112.671 122.875 110.478 122.79C104.916 122.575 101.05 119.113 98.7767 114.173C98.7488 114.114 98.7238 114.061 98.697 114.001L89.774 94.1727L89.7613 94.1421C89.1558 92.6937 88.4668 90.9816 89.899 89.6964C91.0907 88.6275 92.5056 89.0575 93.6969 89.7789C95.2691 90.7314 97.0102 91.3852 98.8229 91.668L98.8581 91.6725C100.923 91.9905 103.015 91.829 105.008 91.2121C112.313 88.95 116.383 81.1546 114.099 73.7977C113.52 71.9337 112.57 70.2196 111.291 68.7505L111.292 68.7501Z" fill="#9E0F4D"/>
<path fill-rule="evenodd" clip-rule="evenodd" d="M86.6535 73.9448C85.4594 73.4946 84.6564 73.1022 83.9264 72.65C82.3131 71.6488 81.8665 70.8062 80.963 68.7981L73.3547 51.892C72.1472 49.2084 73.3379 46.0289 76.001 44.8273L135.747 17.8721C135.747 17.8721 136.075 17.6966 136.651 17.4635L136.667 17.4563C136.884 17.3583 137.107 17.2763 137.327 17.2105C139.613 16.4151 143.983 15.505 147.781 18.2127C146.529 18.1056 145.235 18.3057 144.016 18.8548L83.3494 46.226C79.4961 47.9664 77.7714 52.5696 79.5187 56.4532L86.9822 73.0376C87.3623 73.8818 87.3355 74.2019 86.6535 73.9444V73.9448Z" fill="#FA5C98"/>
<path fill-rule="evenodd" clip-rule="evenodd" d="M85.8265 73.6166C85.0624 73.2946 84.4736 72.9887 83.9262 72.65C82.3129 71.6489 81.8663 70.8063 80.9627 68.7982L73.3545 51.8921C72.147 49.2085 73.3376 46.029 76.0008 44.8273L135.747 17.8721C135.747 17.8721 136.075 17.6967 136.651 17.4635L136.666 17.4564C136.884 17.3584 137.107 17.2764 137.327 17.2106C139.159 16.5732 142.332 15.8613 145.474 16.9995C145.301 16.9459 143.546 16.5408 137.39 19.317C130.879 22.2552 89.9637 40.7156 82.3647 44.1431C74.7655 47.5734 74.2919 50.0272 77.327 56.7699C80.3622 63.5148 81.9898 67.1303 83.1308 69.6666C84.272 72.2026 85.8265 73.6164 85.8265 73.6164V73.6166Z" fill="#CF4782"/>
<path fill-rule="evenodd" clip-rule="evenodd" d="M100.029 94.1969C101.902 94.3056 103.824 94.0857 105.718 93.4992C114.278 90.849 119.047 81.7118 116.371 73.0938C116.329 72.9582 116.284 72.8242 116.238 72.6899C117.282 74.0088 118.108 75.5392 118.637 77.244C120.922 84.6008 116.852 92.3962 109.547 94.6577C106.761 95.5204 103.807 95.482 101.04 94.542L100.029 94.1969H100.029Z" fill="#FEDC34"/>
<path fill-rule="evenodd" clip-rule="evenodd" d="M100.029 94.1969C101.902 94.3057 103.824 94.0857 105.718 93.4992C114.278 90.849 119.047 81.7118 116.371 73.0938C116.329 72.9582 116.284 72.8242 116.238 72.6899C116.238 72.6899 120.056 81.1288 115.382 87.8904C110.705 94.654 103.786 94.8239 100.029 94.1971L100.029 94.1969Z" fill="#FAA933"/>
<path fill-rule="evenodd" clip-rule="evenodd" d="M108.974 120.22C106.142 119.68 103.082 117.852 100.927 113.157C100.906 113.114 100.886 113.07 100.865 113.023L97.2111 104.904L91.9551 93.2245C90.3969 89.4983 93.7912 92.7216 95.9965 94.4594C96.6922 95.007 97.1157 95.5563 97.7451 96.9555L107.029 117.586C107.497 118.625 108.167 119.51 108.974 120.219L108.974 120.22Z" fill="#FEDC34"/>
<path fill-rule="evenodd" clip-rule="evenodd" d="M108.974 120.22C106.142 119.681 103.082 117.852 100.927 113.157C100.907 113.114 100.886 113.07 100.865 113.023L97.2112 104.904L91.9552 93.2246C90.6594 90.1261 92.7873 91.8311 94.8098 93.4944C94.8098 93.4944 93.8769 93.2186 95.401 96.7371C96.9252 100.254 102.361 112.31 103.865 115.644C105.366 118.975 107.757 119.954 108.974 120.22L108.974 120.22Z" fill="#FAA933"/>
<path fill-rule="evenodd" clip-rule="evenodd" d="M143.153 133.537C136.369 132.112 131.096 127.623 129.027 120.961C128.566 119.477 128.326 117.974 128.287 116.491L133.368 114.198C132.965 116.952 133.181 119.782 134.024 122.496C135.558 127.436 138.934 131.293 143.153 133.537Z" fill="#FA5C98"/>
<path fill-rule="evenodd" clip-rule="evenodd" d="M143.153 133.537C136.369 132.112 131.096 127.623 129.027 120.961C128.566 119.477 128.326 117.974 128.287 116.491L130.22 115.618C131.229 130.061 143.153 133.537 143.153 133.537Z" fill="#CF4782"/>
<path fill-rule="evenodd" clip-rule="evenodd" d="M193.121 43.6322C195.798 52.2519 191.028 61.3874 182.47 64.0374C177.955 65.4354 173.289 64.7499 169.494 62.5249L179.549 84.8654C180.754 87.5498 179.563 90.7299 176.899 91.9292L156.158 101.291C161.274 102.753 165.588 106.708 167.292 112.196C167.334 112.333 167.372 112.467 167.411 112.601C167.449 112.736 167.487 112.87 167.522 113.006C167.557 113.141 167.588 113.274 167.62 113.411C169.508 121.649 164.762 129.961 156.64 132.6C148.078 135.251 138.973 130.414 136.296 121.793C135.02 117.682 135.438 113.45 137.155 109.861L128.445 113.792L122.845 116.318L116.236 119.302C113.571 120.502 110.405 119.292 109.196 116.605L100.287 96.8078C103.409 97.8692 106.876 97.9941 110.258 96.9468C118.817 94.2968 123.586 85.1584 120.91 76.5405C119.512 72.0405 116.363 68.5735 112.453 66.6615L112.45 66.6602C108.87 64.9099 104.654 64.4663 100.566 65.732C96.3894 67.025 93.1309 69.8675 91.1701 73.4271C90.4047 74.8157 90.2642 74.5364 89.7554 73.4053L81.6865 55.475C80.479 52.7914 81.6703 49.6138 84.3333 48.4122L144.999 21.0393C147.615 19.8582 150.719 21.0108 151.972 23.5971L151.973 23.5991L151.974 23.6032L151.975 23.6051L151.979 23.606L151.981 23.6122L151.981 23.6144L151.982 23.6163L151.983 23.6202L151.984 23.6222L151.984 23.6245L151.988 23.6252C152.003 23.6602 152.02 23.694 152.034 23.7288L152.035 23.7307L152.036 23.7327L152.036 23.7346L161.691 45.1887C162.812 39.5211 166.902 34.6433 172.778 32.8239C181.336 30.1739 190.446 35.0141 193.122 43.6326L193.121 43.6322Z" fill="#FA5C98"/>
<path fill-rule="evenodd" clip-rule="evenodd" d="M158.183 43.4746L150.631 26.6944C148.595 22.1695 145.614 23.6578 145.614 23.6578L145.15 20.9752C147.732 19.9031 150.745 21.0594 151.972 23.5969L151.973 23.5989L151.974 23.603L151.975 23.6049L151.979 23.6058L151.981 23.6121L151.981 23.6142L151.982 23.6162L151.983 23.62L151.984 23.622L151.984 23.6244L151.988 23.625L152 23.652L152 23.6539L152.001 23.6559L152.002 23.6583L152.003 23.6602L160.492 42.5247L161.691 45.1887C161.691 45.1887 159.702 46.849 158.184 43.477L158.183 43.4751L158.183 43.4746ZM137.154 109.861L135.287 110.703L128.444 113.792L122.845 116.318L116.236 119.302C114.175 120.229 111.814 119.715 110.292 118.196C110.855 116.926 111.343 115.951 111.49 116.023C111.893 116.212 112.721 118.121 117.562 115.884C119.261 115.101 126.279 111.929 134.843 108.065C138.344 107.131 137.154 109.861 137.154 109.861ZM169.494 62.5269L169.494 62.5249L179.549 84.8655C180.754 87.5498 179.565 90.7256 176.902 91.9283L160.66 99.2582L156.158 101.291C161.274 102.753 165.588 106.708 167.292 112.196C167.334 112.333 167.372 112.467 167.411 112.601C167.449 112.736 167.487 112.87 167.522 113.006C167.557 113.141 167.587 113.274 167.619 113.411C168.965 119.273 166.946 125.174 162.747 129.04C162.951 128.795 169.6 120.689 164.436 111.831C161.326 106.49 155.403 104.393 151.105 103.569C147.726 102.706 150.241 101.128 150.251 101.118C161.944 95.8497 172.658 91.0267 174.423 90.2304C178.348 88.4587 177.825 87.1185 176.112 83.3111L165.595 59.9401C165.593 59.9339 164.843 56.1364 167.355 57.7683C167.361 57.7756 175.834 64.653 184.674 60.7625C193.455 56.9014 193.52 45.3366 193.52 45.1662C195.22 53.3105 190.521 61.5448 182.47 64.0376C177.955 65.4357 173.289 64.7502 169.495 62.5271L169.494 62.5269Z" fill="#FDC6DB"/>
<path fill-rule="evenodd" clip-rule="evenodd" d="M161.691 45.1882C162.812 39.5206 166.902 34.6429 172.778 32.8235C180.088 30.5598 187.804 33.7624 191.563 40.1177C173.602 24.7416 161.691 45.1882 161.691 45.1882Z" fill="#CF4782"/>
<path fill-rule="evenodd" clip-rule="evenodd" d="M160.4 130.837C159.251 131.564 157.992 132.164 156.64 132.6C148.078 135.251 138.973 130.414 136.296 121.793C135.02 117.682 135.438 113.45 137.155 109.861C137.155 109.861 135.673 115.585 140.329 124.019C144.988 132.452 155.194 133.305 160.4 130.837L160.4 130.837Z" fill="#CF4782"/>
<path fill-rule="evenodd" clip-rule="evenodd" d="M103.637 104.252L100.287 96.8079C103.408 97.8693 106.876 97.9942 110.258 96.9469C118.817 94.2969 123.585 85.1585 120.909 76.5406C120.72 75.9296 120.498 75.3401 120.246 74.77C120.246 74.77 125.131 84.8893 120.163 92.2999C117.368 96.4654 113.391 98.4782 110.272 99.7541C107.21 101.006 104.794 100.569 105.503 102.722C106.315 105.185 104.974 103.856 103.637 104.252H103.637Z" fill="#FAA933"/>
<path fill-rule="evenodd" clip-rule="evenodd" d="M92.1939 71.8C91.8207 72.3213 91.4792 72.865 91.1701 73.4273C90.4047 74.8158 90.2642 74.5365 89.7554 73.4055L81.6865 55.4752C80.479 52.7915 81.6703 49.614 84.3333 48.4124L144.999 21.0395C147.171 20.0595 149.68 20.687 151.185 22.4082C151.177 22.4043 149.58 21.793 143.088 24.721C136.578 27.659 99.1818 44.5368 91.5811 47.9655C83.9816 51.3954 83.5074 53.8475 86.5431 60.5922C89.5784 67.3373 88.9522 65.9457 90.093 68.4798C90.788 70.0244 91.6366 71.1529 92.1939 71.8002V71.8ZM114.514 119.746C112.328 119.927 110.151 118.728 109.196 116.605L100.287 96.808C101.532 97.23 102.833 97.5052 104.16 97.6148C103.924 97.7951 103.571 98.4288 104.549 100.599C105.852 103.495 110.039 112.798 111.49 116.023C112.598 118.484 113.94 119.435 114.514 119.746L114.514 119.746Z" fill="#CF4782"/>
<path fill-rule="evenodd" clip-rule="evenodd" d="M159.964 35.5542C161.946 32.4201 165 29.946 168.814 28.7888C174.701 27.0035 179.779 28.1501 183.806 30.8025C180.148 29.486 176.056 29.3028 172.068 30.5377C167.533 31.9418 163.804 34.9935 161.507 38.9802L159.964 35.554V35.5542Z" fill="#FA5C98"/>
<path fill-rule="evenodd" clip-rule="evenodd" d="M159.964 35.5542C161.946 32.4201 165 29.946 168.814 28.7888C174.701 27.0035 179.779 28.1501 183.806 30.8025C183.806 30.8025 170.151 23.292 160.734 37.2679L159.965 35.5542H159.964Z" fill="#CF4782"/>
<path fill-rule="evenodd" clip-rule="evenodd" d="M106.225 106.471L111.255 117.794C112.977 121.672 111.212 126.257 107.334 127.979L47.2944 154.649C46.9661 154.822 46.6011 154.973 46.2637 155.111C45.977 155.234 45.6813 155.343 45.3826 155.434C37.7954 158.007 31.2271 155.157 27.859 147.753C27.8314 147.694 27.8052 147.638 27.7774 147.58L23.2279 137.34L8.24853 103.618L0.661812 86.536C-1.06024 82.6581 0.700018 78.0714 4.58079 76.3479L20.6582 69.2071C17.0667 66.8481 14.3474 63.2844 13.0564 59.0436C10.0524 49.1658 15.666 38.8665 25.4559 35.7572C34.0122 33.0383 43.8524 33.7407 50.6226 40.1551C53.1998 42.5964 55.0287 45.6332 56.0622 49.0244C56.4702 50.3707 56.7266 51.7495 56.8274 53.1401L65.4019 49.3322C67.4158 48.3581 70.1935 47.8606 72.3913 47.9514C77.9672 48.1811 81.8175 51.6474 84.0593 56.5805C84.0857 56.636 84.1114 56.6919 84.1381 56.7512L86.8684 62.8978L87.4467 64.1998C88.0841 63.7353 88.7515 63.3081 89.4465 62.9239C90.0768 62.5552 90.7257 62.2112 91.3944 61.8986C99.0413 58.3064 108.223 58.7425 115.169 63.709C118.078 65.7885 120.389 68.5432 121.912 71.7833C127.315 83.2879 121.144 96.3615 110.031 101.579C108.361 102.363 106.616 102.955 104.839 103.351L106.226 106.471L106.225 106.471Z" fill="#1272D4"/>
<path fill-rule="evenodd" clip-rule="evenodd" d="M39.7072 37.1372C46.4996 38.5817 51.7541 43.0726 53.7766 49.7187C54.2297 51.2046 54.4598 52.7028 54.4826 54.1807L49.3724 56.4517C49.7963 53.7106 49.6033 50.8847 48.7801 48.173C47.2806 43.2445 43.9237 39.3857 39.7072 37.137V37.1372Z" fill="#39D5FE"/>
<path fill-rule="evenodd" clip-rule="evenodd" d="M39.7072 37.1372C46.4996 38.5817 51.7541 43.0726 53.7766 49.7187C54.2297 51.2046 54.4598 52.7028 54.4826 54.1807L52.6274 55.0064C52.6274 55.0064 52.5093 42.0745 39.707 37.137L39.7072 37.1372Z" fill="#3BB5FE"/>
<path fill-rule="evenodd" clip-rule="evenodd" d="M82.859 69.0194L75.8104 53.1525C75.3491 52.1134 74.6826 51.2271 73.8802 50.5195C76.7157 51.0648 79.7691 52.8971 81.895 57.5865C81.9157 57.6296 81.9356 57.673 81.9548 57.7171L85.5452 65.7974C84.5353 66.7677 83.6326 67.8476 82.859 69.0197V69.0194Z" fill="#39D5FE"/>
<path fill-rule="evenodd" clip-rule="evenodd" d="M76.1225 51.2357C78.2456 52.2156 80.3247 54.1214 81.8952 57.5864C81.9159 57.6296 81.9358 57.673 81.955 57.717L85.5454 65.7974C85.1671 66.1594 84.8055 66.5393 84.4582 66.9304C84.4582 66.9304 79.365 53.0445 76.1227 51.2359L76.1225 51.2357ZM75.5677 51.0015C75.6437 51.0306 75.7191 51.0604 75.7957 51.0932C75.7106 51.0656 75.636 51.0354 75.5677 51.0015Z" fill="#3BB5FE"/>
<path fill-rule="evenodd" clip-rule="evenodd" d="M102.085 103.03L102.946 104.967L109.073 118.763C110.264 121.442 109.045 124.608 106.365 125.798L46.2475 152.503C46.2475 152.503 45.9181 152.68 45.3414 152.909L45.3224 152.917C45.1035 153.014 44.8816 153.094 44.6584 153.159C42.3583 153.945 37.9714 154.84 34.1808 152.129C35.4366 152.238 36.7386 152.044 37.9651 151.499L99.007 124.38C102.885 122.658 104.65 118.073 102.927 114.195L96.4388 99.5894L102.085 103.03H102.085Z" fill="#39D5FE"/>
<path fill-rule="evenodd" clip-rule="evenodd" d="M102.085 103.03L102.946 104.967L107.462 115.136L104.653 113.735L99.6485 101.546L102.085 103.03Z" fill="#3BB5FE"/>
<path fill-rule="evenodd" clip-rule="evenodd" d="M56.636 147.891L46.2475 152.503C46.2475 152.503 45.9181 152.68 45.3414 152.909L45.3224 152.917C45.1035 153.014 44.8816 153.094 44.6584 153.159C42.7194 153.821 39.3012 154.562 36.003 153.153C36.0171 153.157 42.5111 153.701 51.7802 147.691C54.4475 145.96 55.906 146.395 56.6357 147.891H56.636Z" fill="#3BB5FE"/>
<path fill-rule="evenodd" clip-rule="evenodd" d="M106.374 62.4001C112.146 63.648 117.165 67.2922 119.751 72.7985C124.335 82.5597 119.529 94.4786 109.016 99.4177C107.409 100.175 105.441 100.85 103.532 101.196L98.187 97.938C100.116 97.9585 102.068 97.6861 103.888 97.1325C108.804 95.6366 112.869 92.2093 115.173 87.6171C117.327 83.3234 117.74 78.4094 116.31 73.8206C114.694 68.6365 110.987 64.5854 106.374 62.4001H106.374Z" fill="#39D5FE"/>
<path fill-rule="evenodd" clip-rule="evenodd" d="M106.374 62.4001C112.146 63.648 117.165 67.2922 119.751 72.7985C124.335 82.5597 119.529 94.4785 109.016 99.4176C107.409 100.175 105.442 100.85 103.532 101.196L101.553 99.989C101.553 99.989 112.456 98.6904 117.472 89.0106C122.492 79.3364 117.952 66.0875 106.374 62.3999V62.4001Z" fill="#3BB5FE"/>
<path fill-rule="evenodd" clip-rule="evenodd" d="M12.7516 107.875L2.84276 85.5669C1.65062 82.8892 2.86737 79.7201 5.54953 78.5293L26.4214 69.2585C21.2995 67.7812 17.0077 63.8245 15.3414 58.3492C15.298 58.2126 15.2589 58.0774 15.2218 57.9449C15.1877 57.8104 15.1488 57.6753 15.1147 57.5408C15.0834 57.4049 15.0493 57.2706 15.0226 57.1357C13.1885 48.9146 18.0112 40.6376 26.1794 38.0323C34.7807 35.4136 43.8785 40.2644 46.4964 48.8703C47.7433 52.9743 47.2933 57.1912 45.5438 60.7646L54.3056 56.8704L59.9389 54.3678L66.5927 51.4137C69.2712 50.2209 72.4392 51.4422 73.6292 54.1211L82.8033 74.7735C84.2793 69.6522 88.2365 65.3602 93.7135 63.6928C93.8475 63.6509 93.9839 63.6153 94.118 63.5773C94.2522 63.5391 94.3871 63.5044 94.5216 63.4703L94.5218 63.47C94.6559 63.4361 94.7914 63.4051 94.9255 63.3748L94.9261 63.3744C103.147 61.5444 111.424 66.3674 114.031 74.5304C116.65 83.1355 111.797 92.231 103.194 94.8506C99.0884 96.0986 94.8709 95.6452 91.2996 93.8983L100.746 115.164C101.936 117.843 100.717 121.009 98.038 122.198L36.9961 149.317C34.361 150.488 31.2565 149.331 30.0218 146.747L30.0201 146.744L30.0183 146.741L30.0158 146.73L30.014 146.727L30.0123 146.724L30.0106 146.721L30.0086 146.719C29.9922 146.685 29.9756 146.651 29.962 146.616L29.9603 146.613L29.9586 146.61L20.443 125.188L12.7514 107.875L12.7516 107.875Z" fill="#39D5FE"/>
<path fill-rule="evenodd" clip-rule="evenodd" d="M45.544 60.7646L54.3058 56.8704L59.9391 54.3679L66.5929 51.4137C68.8272 50.4204 71.3995 51.1022 72.8828 52.91L70.5318 54.9889C70.5318 54.9889 69.9872 53.2131 63.7372 55.9885L47.5596 63.1746C44.1138 63.4075 45.5442 60.7644 45.5442 60.7644L45.544 60.7646ZM12.7516 107.875L2.84275 85.5669C1.67478 82.9421 2.81879 79.8492 5.3872 78.6085L17.7623 73.106L26.4214 69.2585C21.2995 67.7812 17.0077 63.8245 15.3414 58.3492C15.298 58.2126 15.2589 58.0775 15.2218 57.9449C15.1877 57.8104 15.1488 57.6753 15.1147 57.5409C15.0834 57.4049 15.0493 57.2706 15.0225 57.1357C13.5621 50.5961 16.3202 44.0204 21.6153 40.2922C21.3042 40.5258 14.6727 45.5706 17.7002 56.1065C20.8007 66.8924 30.0231 67.6576 30.0231 67.6576C33.5579 68.6591 30.7477 70.6443 30.7419 70.6479L7.75961 80.8603C3.87279 82.5875 5.10573 83.5258 6.78958 87.3157C8.47364 91.1054 29.4088 138.239 31.5947 143.158C33.781 148.077 35.1584 147.244 35.1584 147.244L34.0796 149.721C32.3713 149.47 30.812 148.401 30.0216 146.747L30.0198 146.744L30.0181 146.741L30.0155 146.731L30.0138 146.728L30.0121 146.725L30.0103 146.722L30.0084 146.719C29.992 146.685 29.9754 146.652 29.9618 146.616L29.9601 146.614L29.9583 146.61L20.4428 125.188L12.7512 107.875L12.7516 107.875Z" fill="#8FE9FF"/>
<path fill-rule="evenodd" clip-rule="evenodd" d="M57.4584 140.229L36.9964 149.317C34.3613 150.488 31.2567 149.331 30.022 146.747L30.0203 146.744L30.0186 146.741L30.016 146.731L30.0143 146.728L30.0125 146.725L30.0108 146.722L30.0089 146.719C29.9925 146.685 29.9758 146.652 29.9622 146.616L29.9605 146.613L29.9588 146.61L29.2661 145.052C29.2661 145.052 31.6843 148.819 35.7416 147.02C39.7955 145.214 56.2237 137.919 56.2237 137.919L57.4581 140.229L57.4584 140.229Z" fill="#3BB5FE"/>
<path fill-rule="evenodd" clip-rule="evenodd" d="M79.8938 74.9459L73.308 60.1211C69.4762 51.4959 66.6406 51.5119 65.7619 51.7812L66.5927 51.4137C69.2677 50.2228 72.4289 51.4365 73.6232 54.109L82.8033 74.7734C82.7985 74.784 81.9403 76.3144 79.8936 74.9457L79.8938 74.9459ZM109.29 67.177C111.426 69.0957 113.095 71.5978 114.031 74.5308C116.65 83.1359 111.797 92.2314 103.195 94.851C99.0888 96.099 94.8713 95.6455 91.3 93.8987L93.596 99.0689L100.756 115.186C101.551 116.997 101.248 119.027 100.14 120.519L87.8948 92.9571C87.8948 92.9571 86.68 90.1342 90.0874 91.1697C90.0874 91.1697 99.6593 95.5404 107.34 89.0595C115.023 82.5816 115.089 73.6823 109.289 67.177H109.29Z" fill="#3BB5FE"/>
<path fill-rule="evenodd" clip-rule="evenodd" d="M26.1797 38.0323C34.7809 35.4136 43.8788 40.2644 46.4966 48.8703C47.7436 52.9743 47.2935 57.1912 45.544 60.7646C45.544 60.7646 48.1953 38.1793 26.1797 38.032V38.0323Z" fill="#3BB5FE"/>
<path fill-rule="evenodd" clip-rule="evenodd" d="M112.285 163.933C115.699 164.605 119.211 163.979 122.194 162.159C125.279 160.277 127.48 157.308 128.399 153.816C129.018 151.469 130.006 150.386 132.554 150.333C134.584 150.291 136.706 150.496 138.649 151.105C141.071 151.867 142.077 152.954 143.613 154.891L155.093 169.364C155.572 169.969 155.945 170.625 156.215 171.309C142.013 191.745 118.371 205.125 91.5986 205.125C71.9989 205.125 54.0781 197.952 40.3086 186.092C41.1357 185.355 42.0395 184.682 43.0184 184.084C45.7137 182.439 48.7354 181.524 51.8121 181.371L40.1974 166.729C37.5608 163.405 38.1222 158.524 41.4487 155.885L55.2331 144.953C51.1641 143.565 47.6378 140.792 45.3316 137.012C39.9531 128.198 42.8181 116.823 51.5209 111.365C59.1236 106.595 68.8309 104.816 76.9861 109.336C80.0924 111.056 82.6235 113.542 84.4703 116.568C85.2003 117.765 85.7946 119.038 86.2364 120.363L93.5894 114.532C95.2963 113.084 97.8621 111.909 100.013 111.448C105.471 110.278 110.063 112.67 113.467 116.887C113.508 116.937 113.545 116.982 113.585 117.033L127.049 134.008L127.068 134.035C128.007 135.286 129.09 136.772 128.009 138.37C127.111 139.699 125.631 139.634 124.299 139.231C122.541 138.698 120.692 138.497 118.861 138.673L118.826 138.677C116.743 138.88 114.749 139.555 112.962 140.645C106.41 144.643 104.34 153.194 108.338 159.746C109.351 161.406 110.689 162.829 112.285 163.934L112.285 163.933Z" fill="#C77802"/>
<path fill-rule="evenodd" clip-rule="evenodd" d="M134.971 152.805C136.24 152.944 137.115 153.125 137.933 153.382C139.743 153.951 140.381 154.656 141.745 156.375L153.224 170.847C153.933 171.742 154.307 172.798 154.364 173.863C151.613 177.502 148.552 180.894 145.221 184L135.312 191.86C129.674 195.638 123.521 198.704 116.98 200.934L144.881 178.805C148.205 176.167 148.768 171.286 146.131 167.961L134.87 153.764C134.297 153.041 134.246 152.724 134.971 152.805L134.971 152.805Z" fill="#FEDC34"/>
<path fill-rule="evenodd" clip-rule="evenodd" d="M135.854 152.917C136.674 153.039 137.32 153.19 137.933 153.382C139.743 153.951 140.381 154.656 141.745 156.375L153.224 170.847C153.933 171.742 154.307 172.798 154.364 173.863C151.613 177.502 148.552 180.894 145.221 184L135.312 191.86C131.862 194.171 128.22 196.216 124.414 197.967L146.341 180.576C152.896 175.375 152.763 172.884 148.185 167.112C143.605 161.338 141.15 158.242 139.428 156.071C137.705 153.9 135.853 152.918 135.853 152.918L135.854 152.917Z" fill="#FAA933"/>
<path fill-rule="evenodd" clip-rule="evenodd" d="M117.078 136.523C115.232 136.882 113.418 137.57 111.719 138.607C104.042 143.291 101.617 153.313 106.3 160.988C106.374 161.109 106.45 161.228 106.527 161.346C105.194 160.329 104.021 159.053 103.095 157.534C99.0968 150.982 101.167 142.432 107.718 138.435C110.217 136.91 113.097 136.215 116.013 136.439L117.078 136.523Z" fill="#FEDC34"/>
<path fill-rule="evenodd" clip-rule="evenodd" d="M117.078 136.523C115.232 136.882 113.418 137.57 111.719 138.607C104.042 143.291 101.617 153.313 106.3 160.988C106.374 161.109 106.45 161.228 106.527 161.346C106.527 161.346 100.777 154.127 103.685 146.427C106.595 138.725 113.276 136.847 117.078 136.523V136.523Z" fill="#FAA933"/>
<path fill-rule="evenodd" clip-rule="evenodd" d="M102.096 113.561C104.979 113.381 108.394 114.392 111.622 118.401C111.653 118.438 111.684 118.475 111.716 118.515L117.229 125.466L125.159 135.464C127.573 138.683 123.496 136.405 120.933 135.27C120.125 134.913 119.581 134.486 118.631 133.288L104.623 115.627C103.917 114.737 103.052 114.048 102.097 113.561H102.096Z" fill="#FEDC34"/>
<path fill-rule="evenodd" clip-rule="evenodd" d="M102.096 113.561C104.979 113.381 108.394 114.392 111.622 118.401C111.653 118.438 111.684 118.475 111.716 118.515L117.229 125.466L125.159 135.464C127.167 138.141 124.687 137.018 122.32 135.91C122.32 135.91 123.293 135.946 120.961 132.919C118.63 129.894 110.434 119.576 108.168 116.722C105.903 113.872 103.343 113.516 102.097 113.561L102.096 113.561Z" fill="#FAA933"/>
<path fill-rule="evenodd" clip-rule="evenodd" d="M65.6665 109.141C72.6026 108.839 78.8116 111.877 82.4323 117.81C83.2387 119.132 83.8349 120.527 84.2312 121.952L79.8492 125.429C79.5746 122.665 78.6804 119.981 77.2054 117.563C74.5205 113.163 70.3075 110.268 65.6665 109.142V109.141Z" fill="#FEDC34"/>
<path fill-rule="evenodd" clip-rule="evenodd" d="M65.6665 109.141C72.6026 108.839 78.8116 111.877 82.4323 117.81C83.2387 119.132 83.8349 120.527 84.2312 121.952L82.5644 123.275C78.0926 109.551 65.6665 109.141 65.6665 109.141Z" fill="#FAA933"/>
<path fill-rule="evenodd" clip-rule="evenodd" d="M42.1621 187.643C42.811 187.09 43.511 186.58 44.2621 186.121C48.3108 183.651 53.0108 183.158 57.2356 184.371L42.0661 165.246C40.2456 162.948 40.6345 159.576 42.9327 157.755L60.8245 143.561C55.4993 143.413 50.3515 140.655 47.3693 135.768C47.2955 135.646 47.2253 135.525 47.1558 135.405C47.0861 135.284 47.0168 135.164 46.9499 135.041C46.8832 134.919 46.8212 134.798 46.7578 134.674C42.931 127.171 45.5328 117.954 52.788 113.388C60.4662 108.703 70.4819 111.128 75.1676 118.806C77.4014 122.467 78.0181 126.666 77.218 130.563L84.7309 124.603L89.562 120.771L95.262 116.247C97.5619 114.426 100.931 114.813 102.754 117.113L116.197 134.061C112.907 133.807 109.507 134.545 106.474 136.396C98.7985 141.08 96.3741 151.103 101.056 158.778C103.502 162.786 107.4 165.36 111.661 166.242H111.665C115.567 167.049 119.77 166.434 123.437 164.197C127.182 161.912 129.661 158.354 130.707 154.425C131.115 152.891 131.318 153.127 132.087 154.095L144.262 169.445C146.083 171.742 145.694 175.111 143.397 176.933L110.854 202.746C104.692 204.298 98.242 205.125 91.5981 205.125C84.7149 205.125 78.0388 204.239 71.6764 202.577L69.0079 199.213C69.0502 200.081 69.0223 200.948 68.9269 201.806C59.0462 198.836 49.9841 193.975 42.1615 187.644L42.1621 187.643Z" fill="#FEDC34"/>
<path fill-rule="evenodd" clip-rule="evenodd" d="M72.8314 200.001L75.6004 203.492C74.2804 203.219 72.972 202.915 71.6773 202.577L70.8176 201.493L69.0085 199.212C69.0085 199.212 70.5395 197.113 72.8302 199.999L72.8314 200.001ZM77.218 130.563L78.8291 129.285L84.7311 124.603L89.5622 120.771L95.2622 116.247C97.0408 114.84 99.4588 114.752 101.305 115.846C101.065 117.213 100.827 118.277 100.667 118.244C100.229 118.161 98.9621 116.519 94.7996 119.883C93.3385 121.061 87.2859 125.868 79.8984 131.728C76.7228 133.499 77.2184 130.563 77.2184 130.563L77.218 130.563ZM57.235 184.369L57.2358 184.371L42.0663 165.247C40.2458 162.948 40.6337 159.581 42.9301 157.758L56.941 146.643L60.8248 143.561C55.4995 143.414 50.3517 140.655 47.3695 135.769C47.2957 135.647 47.2255 135.526 47.156 135.405C47.0863 135.285 47.017 135.164 46.9501 135.042C46.8834 134.919 46.8215 134.798 46.758 134.674C44.0329 129.336 44.5675 123.126 47.714 118.346C47.5748 118.633 43.0736 128.123 50.2321 135.414C54.5459 139.811 60.8081 140.373 65.1841 140.106C68.6752 140.104 66.6134 142.253 66.6055 142.266C56.5177 150.259 47.2722 157.579 45.7495 158.786C42.3646 161.473 43.1962 162.64 45.7815 165.899L61.6493 185.907C61.6528 185.912 63.2999 189.401 60.4649 188.444C60.4574 188.439 51.4577 184.296 43.9901 189.075C43.3743 188.606 42.7635 188.13 42.1623 187.643C42.8112 187.09 43.5112 186.58 44.2623 186.122C48.311 183.651 53.011 183.159 57.235 184.37V184.369Z" fill="#FFF0A8"/>
<path fill-rule="evenodd" clip-rule="evenodd" d="M69.0085 199.212C69.0508 200.08 69.023 200.947 68.9276 201.806C68.6582 201.724 68.3903 201.64 68.1222 201.556C68.7352 200.15 69.0085 199.213 69.0085 199.213V199.212Z" fill="#FAA933"/>
<path fill-rule="evenodd" clip-rule="evenodd" d="M49.5597 116.026C50.5004 115.038 51.5788 114.145 52.7873 113.388C60.4658 108.703 70.4821 111.128 75.1676 118.806C77.4014 122.467 78.0181 126.666 77.2177 130.563C77.2177 130.563 77.2739 124.657 70.7113 117.651C64.1458 110.646 54.0222 112.348 49.5597 116.026V116.026Z" fill="#FAA933"/>
<path fill-rule="evenodd" clip-rule="evenodd" d="M111.142 127.688L116.197 134.061C112.907 133.807 109.507 134.545 106.474 136.396C98.798 141.079 96.3734 151.102 101.057 158.778C101.389 159.322 101.747 159.837 102.129 160.326C102.129 160.326 94.936 151.746 97.9728 143.345C99.6819 138.623 103.06 135.69 105.781 133.684C108.455 131.714 110.908 131.538 109.698 129.631C108.314 127.448 109.938 128.402 111.142 127.688H111.142Z" fill="#FAA933"/>
<path fill-rule="evenodd" clip-rule="evenodd" d="M130.105 156.252C130.342 155.655 130.543 155.045 130.707 154.424C131.115 152.891 131.319 153.127 132.087 154.095L144.262 169.444C146.083 171.741 145.694 175.11 143.397 176.933L110.854 202.746C109 203.213 107.121 203.614 105.218 203.947C116.855 194.714 132.168 182.566 136.462 179.161C143.017 173.96 142.885 171.471 138.305 165.697C133.725 159.922 134.67 161.114 132.95 158.945C131.901 157.623 130.803 156.74 130.105 156.252L130.105 156.252ZM96.8282 115.391C98.9084 114.675 101.313 115.296 102.754 117.113L116.197 134.061C114.885 133.961 113.554 134.017 112.238 134.239C112.424 134.007 112.614 133.306 111.139 131.449C109.173 128.97 102.856 121.005 100.666 118.244C98.9943 116.138 97.4609 115.55 96.828 115.391H96.8282Z" fill="#FAA933"/>
<path fill-rule="evenodd" clip-rule="evenodd" d="M168.047 107.938C169.052 112.096 169.726 116.382 170.041 120.767C170.648 117.792 170.535 114.62 169.564 111.492C169.177 110.245 168.666 109.056 168.047 107.938Z" fill="#7688A1"/>
</g>
<defs>
<radialGradient id="paint0_radial_71_11927" cx="0" cy="0" r="1" gradientUnits="userSpaceOnUse" gradientTransform="translate(91.61 126.478) scale(50.4639)">
<stop stop-color="#EE249C"/>
<stop offset="0.890196" stop-color="#852172"/>
<stop offset="1" stop-color="#1C1E48"/>
</radialGradient>
<linearGradient id="paint1_linear_71_11927" x1="20.2157" y1="159.464" x2="163.004" y2="93.491" gradientUnits="userSpaceOnUse">
<stop stop-color="#783CA1"/>
<stop offset="1" stop-color="#EE229B"/>
</linearGradient>
<clipPath id="clip0_71_11927">
<rect width="217" height="245.716" fill="white"/>
</clipPath>
</defs>
</svg>
