<svg width="140" height="160" viewBox="0 0 140 160" fill="none" xmlns="http://www.w3.org/2000/svg">
<g clip-path="url(#clip0_71_11525)">
<path d="M57.6983 140.171C89.5642 140.171 115.397 114.338 115.397 82.4722C115.397 50.6062 89.5642 24.7738 57.6983 24.7738C25.8324 24.7738 -7.05719e-05 50.6062 -7.05719e-05 82.4722C-7.05719e-05 114.338 25.8324 140.171 57.6983 140.171Z" fill="url(#paint0_radial_71_11525)"/>
<path d="M57.6983 133.594C85.9322 133.594 108.82 110.706 108.82 82.4722C108.82 54.2383 85.9322 31.3502 57.6983 31.3502C29.4644 31.3502 6.57627 54.2383 6.57627 82.4722C6.57627 110.706 29.4644 133.594 57.6983 133.594Z" fill="url(#paint1_linear_71_11525)"/>
<path fill-rule="evenodd" clip-rule="evenodd" d="M57.2308 62.4312C55.8619 61.9985 54.3965 62.0942 53.0962 62.7052C51.7516 63.3368 50.7217 64.4562 50.1942 65.8483C49.8392 66.7842 49.388 67.1842 48.3417 67.089C47.5085 67.013 46.6489 66.8311 45.8792 66.4918C44.9202 66.0675 44.5551 65.5744 44.0098 64.708L39.9346 58.2338C38.9985 56.7467 39.4398 54.7662 40.9155 53.8356L63.7609 39.4249C63.884 39.3356 64.0238 39.2519 64.1546 39.1762C64.2633 39.1088 64.3764 39.0473 64.4925 38.9926C67.4291 37.4982 70.2764 38.2822 72.0955 41.1172C72.1107 41.1393 72.1244 41.1617 72.1393 41.1838L74.6109 45.1094C75.3795 43.7235 76.5658 42.5983 78.0381 41.9169C80.5087 40.7735 83.1189 40.7951 85.5338 42.1024C87.5222 43.1797 89.1628 45.0317 90.124 47.0733C91.9423 50.9361 90.306 55.5301 86.4697 57.3324C85.2947 57.8846 84.0175 58.1217 82.7509 58.0436L86.8745 64.5933C87.8103 66.08 87.3692 68.06 85.8926 68.9915L79.7749 72.8505C81.3813 73.6076 82.7054 74.9091 83.4864 76.5683C85.3079 80.4371 83.6425 84.9794 79.8422 86.8223C76.5223 88.4333 72.4699 88.7181 69.3256 86.4868C68.1278 85.6372 67.1988 84.4998 66.5735 83.1714C66.3262 82.6458 66.1381 82.0958 66.014 81.531L62.7506 83.5895C61.9889 84.1056 60.8875 84.4708 59.9865 84.5616C57.701 84.7916 55.9235 83.5976 54.712 81.7088C54.6973 81.6861 54.6841 81.6659 54.6697 81.6431L49.8902 74.05L49.8833 74.0382C49.5531 73.481 49.1737 72.8207 49.6856 72.2136C50.1113 71.7088 50.7141 71.8035 51.2423 72.0304C51.9393 72.3298 52.688 72.4975 53.445 72.5093H53.4596C54.3216 72.5211 55.1673 72.3354 55.9464 71.9696C58.8024 70.6277 60.0201 67.2096 58.6662 64.3337C58.323 63.6049 57.8369 62.9589 57.2305 62.4314L57.2308 62.4312Z" fill="#9E0F4D"/>
<path fill-rule="evenodd" clip-rule="evenodd" d="M47.4592 65.9624C46.9455 65.8465 46.595 65.732 46.2706 65.5891C45.5543 65.2721 45.3236 64.9531 44.8397 64.1842L40.7642 57.7102C40.1175 56.6824 40.4224 55.315 41.442 54.6719L64.3173 40.2424C64.3173 40.2424 64.4412 40.152 64.6634 40.0237L64.6692 40.0199C64.7527 39.9674 64.8388 39.9212 64.9251 39.8818C65.8138 39.426 67.5473 38.8045 69.2545 39.694C68.7369 39.7217 68.2191 39.8776 67.7527 40.1715L44.5251 54.8237C43.0497 55.7553 42.6078 57.7348 43.5439 59.2222L47.5417 65.573C47.7452 65.8962 47.7527 66.0285 47.4592 65.9624Z" fill="#FA5C98"/>
<path fill-rule="evenodd" clip-rule="evenodd" d="M47.1025 65.8753C46.7718 65.7875 46.5137 65.6961 46.2706 65.5891C45.5543 65.2721 45.3236 64.9531 44.8397 64.1841L40.7642 57.7102C40.1175 56.6824 40.4224 55.315 41.442 54.6719L64.3173 40.2424C64.3173 40.2424 64.4412 40.1519 64.6634 40.0237L64.6692 40.0199C64.7526 39.9674 64.8388 39.9212 64.9251 39.8818C65.6375 39.5167 66.8933 39.0444 68.2421 39.3301C68.1688 39.318 67.4282 39.2526 65.0711 40.7391C62.5785 42.3118 46.913 52.1938 44.0036 54.0288C41.0943 55.8647 41.0409 56.8946 42.6666 59.4766C44.2922 62.0596 45.1639 63.444 45.7751 64.4153C46.3865 65.3863 47.1025 65.8753 47.1025 65.8753Z" fill="#CF4782"/>
<path fill-rule="evenodd" clip-rule="evenodd" d="M54.0826 73.4739C54.8542 73.4113 55.6268 73.2117 56.3676 72.8637C59.714 71.2917 61.1408 67.285 59.5547 63.9162C59.53 63.8633 59.5037 63.8108 59.4775 63.7587C59.9795 64.238 60.4045 64.8163 60.7181 65.4828C62.0721 68.3584 60.8543 71.7768 57.9986 73.1184C56.9095 73.63 55.6999 73.7833 54.5153 73.5571L54.0827 73.4739H54.0826Z" fill="#FEDC34"/>
<path fill-rule="evenodd" clip-rule="evenodd" d="M54.0826 73.4739C54.8542 73.4113 55.6268 73.2117 56.3676 72.8637C59.714 71.2917 61.1408 67.285 59.5547 63.9162C59.53 63.8633 59.5037 63.8108 59.4775 63.7587C59.4775 63.7587 61.5201 66.9891 59.9961 70.0195C58.4712 73.0506 55.6537 73.5156 54.0826 73.474V73.4739Z" fill="#FAA933"/>
<path fill-rule="evenodd" clip-rule="evenodd" d="M59.225 83.597C58.0368 83.5386 56.6821 82.9662 55.5332 81.1709C55.5221 81.1543 55.511 81.1377 55.5 81.1196L53.5429 78.0104L50.7275 73.5378C49.878 72.1043 51.4491 73.2276 52.4496 73.8118C52.7652 73.9957 52.9696 74.1959 53.3069 74.7318L58.2797 82.6321C58.5306 83.0301 58.8548 83.3531 59.225 83.597Z" fill="#FEDC34"/>
<path fill-rule="evenodd" clip-rule="evenodd" d="M59.225 83.5971C58.0367 83.5387 56.6821 82.9662 55.5332 81.1709C55.5221 81.1543 55.511 81.1378 55.5 81.1197L53.5429 78.0104L50.7275 73.5379C50.0209 72.3458 50.988 72.9209 51.9097 73.4852C51.9097 73.4852 51.5126 73.4257 52.3366 74.7765C53.1604 76.1268 56.0708 80.7428 56.8756 82.0192C57.6797 83.2947 58.7127 83.5581 59.225 83.597L59.225 83.5971Z" fill="#FAA933"/>
<path fill-rule="evenodd" clip-rule="evenodd" d="M73.9532 87.0862C71.0996 86.8916 68.6882 85.3585 67.4619 82.7541C67.1889 82.174 67.0049 81.5737 66.9044 80.9699L68.8496 79.7423C68.8424 80.8908 69.0925 82.0347 69.5918 83.0959C70.5012 85.0274 72.1012 86.4104 73.9533 87.0863L73.9532 87.0862Z" fill="#FA5C98"/>
<path fill-rule="evenodd" clip-rule="evenodd" d="M73.9532 87.0862C71.0996 86.8916 68.6882 85.3585 67.4619 82.7541C67.1889 82.174 67.0049 81.5737 66.9044 80.9699L67.6443 80.5026C68.882 86.3473 73.9532 87.0862 73.9532 87.0862Z" fill="#CF4782"/>
<path fill-rule="evenodd" clip-rule="evenodd" d="M89.2356 47.4905C90.8221 50.8603 89.3948 54.866 86.0489 56.438C84.2837 57.2674 82.3376 57.2539 80.6597 56.5614L86.0453 65.1164C86.6913 66.1443 86.3861 67.512 85.366 68.1544L77.4251 73.1653C79.5994 73.4705 81.5883 74.8403 82.5982 76.9855C82.6233 77.0389 82.6466 77.0916 82.6699 77.1445C82.6932 77.1972 82.7166 77.2499 82.7385 77.3033C82.7606 77.3567 82.7808 77.4094 82.8015 77.4632C84.0441 80.7218 82.5797 84.3898 79.4113 85.9325C76.0639 87.5051 72.0669 86.0487 70.4801 82.6785C69.7237 81.0715 69.6527 79.3181 70.1489 77.7535L66.8143 79.8576L64.6703 81.2098L62.14 82.8071C61.1195 83.4498 59.7566 83.136 59.1092 82.1072L54.3369 74.5261C55.6732 74.7812 57.0974 74.6343 58.4198 74.0131C61.7657 72.4412 63.1923 68.4341 61.6063 65.065C60.7782 63.3061 59.2932 62.0693 57.5862 61.5113L57.5845 61.5111C56.0216 61.0002 54.2737 61.0599 52.6751 61.8108C51.0425 62.5779 49.8733 63.9257 49.2753 65.4926C49.0418 66.1038 48.9684 65.9977 48.6959 65.5645L44.3737 58.6982C43.7269 57.6705 44.0321 56.3041 45.0517 55.6606L68.2791 41.0079C69.2807 40.3756 70.6148 40.6693 71.2746 41.6547L71.2751 41.6554L71.2758 41.6568L71.276 41.6578H71.2777L71.2789 41.6602L71.2791 41.6609L71.2797 41.6618L71.2804 41.6633L71.2806 41.664L71.2811 41.665H71.2828C71.2907 41.6785 71.2998 41.6914 71.3075 41.7047L71.308 41.7054L71.3082 41.7063L71.3088 41.7071L76.4802 49.9224C76.6142 47.5424 78.0071 45.3151 80.3044 44.2359C83.6503 42.6641 87.6495 44.1214 89.2355 47.4904L89.2356 47.4905Z" fill="#FA5C98"/>
<path fill-rule="evenodd" clip-rule="evenodd" d="M74.949 49.4228L70.9039 42.9971C69.8133 41.2644 68.68 42.043 68.68 42.043L68.337 40.9731C69.3311 40.3874 70.6285 40.6878 71.2748 41.6548L71.2753 41.6555L71.276 41.657L71.2762 41.6579H71.2779L71.2791 41.6603L71.2794 41.661L71.2799 41.662L71.2806 41.6634L71.2808 41.6641L71.2813 41.6651H71.283L71.2892 41.6755L71.2897 41.6762L71.29 41.6769L71.2905 41.6779L71.291 41.6786L75.8383 48.9025L76.4805 49.9226C76.4805 49.9226 75.7626 50.7148 74.9493 49.4235L74.9491 49.4228H74.949ZM70.149 77.7536L69.434 78.2046L66.8144 79.8577L64.6704 81.2099L62.1401 82.8073C61.3508 83.3039 60.3569 83.2287 59.6481 82.6947C59.8054 82.1439 59.949 81.7174 60.0134 81.7383C60.189 81.7927 60.6366 82.5253 62.487 81.3345C63.1364 80.9176 65.823 79.2203 69.1018 77.1518C70.4791 76.57 70.149 77.7535 70.149 77.7535V77.7536ZM80.6602 56.5623L80.6597 56.5615L86.0452 65.1165C86.6913 66.1445 86.3868 67.5102 85.3674 68.1538L79.1486 72.0775L77.4251 73.1654C79.5994 73.4706 81.5883 74.8404 82.5982 76.9857C82.6233 77.0391 82.6466 77.0918 82.6699 77.1447C82.6932 77.1973 82.7166 77.25 82.7385 77.3034C82.7606 77.3568 82.7808 77.4095 82.8015 77.4633C83.6864 79.7822 83.1986 82.3092 81.7038 84.1287C81.7731 84.0169 84.0267 80.3246 81.4106 76.9998C79.8342 74.9951 77.2938 74.4763 75.4901 74.3851C74.0602 74.2257 74.9977 73.4372 75.0016 73.4324C79.4785 70.6113 83.5813 68.0281 84.2572 67.6019C85.7598 66.6537 85.4697 66.1358 84.5519 64.6778L78.9188 55.7281C78.9176 55.7255 78.394 54.2167 79.5136 54.7398C79.5165 54.7424 83.3721 57.0688 86.762 54.9739C90.1298 52.894 89.4956 48.1644 89.486 48.0949C90.6463 51.3259 89.1964 54.9594 86.0489 56.4382C84.2837 57.2676 82.3376 57.2541 80.6602 56.5623V56.5623Z" fill="#FDC6DB"/>
<path fill-rule="evenodd" clip-rule="evenodd" d="M76.4804 49.9225C76.6144 47.5425 78.0072 45.3153 80.3045 44.236C83.1627 42.8935 86.4985 43.7613 88.3979 46.1437C80.1795 40.8863 76.4804 49.9226 76.4804 49.9226V49.9225Z" fill="#CF4782"/>
<path fill-rule="evenodd" clip-rule="evenodd" d="M80.8473 84.9969C80.4192 85.3596 79.9391 85.6768 79.4114 85.9326C76.064 87.5051 72.0671 86.0488 70.4803 82.6785C69.7238 81.0715 69.6529 79.3181 70.149 77.7535C70.149 77.7535 69.8707 80.1775 72.2551 83.358C74.6411 86.5377 78.8606 86.3032 80.8473 84.9969Z" fill="#CF4782"/>
<path fill-rule="evenodd" clip-rule="evenodd" d="M56.1316 77.3769L54.337 74.5262C55.6734 74.7813 57.0975 74.6344 58.4199 74.0132C61.7659 72.4413 63.1924 68.4342 61.6064 65.0652C61.4941 64.8265 61.3698 64.5983 61.2344 64.3796C61.2344 64.3796 63.8089 68.2357 62.202 71.548C61.2979 73.4101 59.7876 74.4598 58.5862 75.1594C57.406 75.8459 56.3938 75.8055 56.8068 76.6447C57.2795 77.6051 56.6555 77.1385 56.1317 77.3769H56.1316Z" fill="#FAA933"/>
<path fill-rule="evenodd" clip-rule="evenodd" d="M49.6006 64.7691C49.478 65.0034 49.3695 65.2451 49.2754 65.4926C49.0419 66.1038 48.9685 65.9977 48.696 65.5645L44.3737 58.6983C43.727 57.6705 44.0322 56.3041 45.0518 55.6607L68.2792 41.0079C69.1106 40.4834 70.1716 40.5964 70.885 41.2138C70.8817 41.2126 70.1942 41.0541 67.7087 42.6216C65.2163 44.1941 50.8984 53.2284 47.9881 55.0638C45.0788 56.8998 45.0251 57.9287 46.6511 60.5115C48.2767 63.0945 47.9415 62.5617 48.5524 63.532C48.9247 64.1237 49.336 64.5362 49.6006 64.769V64.7691ZM61.4618 83.087C60.5786 83.2859 59.6209 82.9203 59.1092 82.1074L54.337 74.5262C54.8699 74.6275 55.4174 74.6655 55.9661 74.6347C55.8797 74.7218 55.7719 75.0008 56.2951 75.8318C56.9933 76.9409 59.236 80.5033 60.0133 81.7384C60.6067 82.6807 61.2095 82.9927 61.4618 83.087Z" fill="#CF4782"/>
<path fill-rule="evenodd" clip-rule="evenodd" d="M75.2244 46.0843C75.855 44.6902 76.9617 43.5046 78.4544 42.8139C80.7579 41.7479 82.8987 41.9263 84.6957 42.78C83.1258 42.4512 81.4431 42.6102 79.8838 43.3426C78.1109 44.1755 76.7613 45.6357 76.0503 47.3964L75.2244 46.0844V46.0843Z" fill="#FA5C98"/>
<path fill-rule="evenodd" clip-rule="evenodd" d="M75.2244 46.0843C75.855 44.6902 76.9617 43.5046 78.4544 42.8139C80.7579 41.7479 82.8987 41.9263 84.6957 42.78C84.6957 42.78 78.6862 40.4911 75.6366 46.7407L75.2243 46.0843H75.2244Z" fill="#CF4782"/>
<path fill-rule="evenodd" clip-rule="evenodd" d="M57.3159 78.1357L60.0184 82.4754C60.9437 83.9616 60.4845 85.9363 58.9981 86.8616L35.9867 101.191C35.8624 101.281 35.7219 101.363 35.5918 101.439C35.4816 101.506 35.3671 101.567 35.2503 101.621C32.2969 103.106 29.4498 102.317 27.6502 99.4837C27.6356 99.4615 27.6216 99.4401 27.6069 99.4178L25.1627 95.4931L17.1143 82.5685L13.0376 76.0214C12.1123 74.535 12.5695 72.5603 14.0569 71.634L20.2192 67.7972C18.6166 67.0383 17.3016 65.7374 16.5317 64.0782C14.7398 60.2133 16.4451 55.6837 20.2682 53.8535C23.6094 52.2536 27.6708 51.9784 30.8039 54.2126C31.9966 55.0631 32.9176 56.1996 33.5336 57.5264C33.7773 58.0534 33.961 58.6019 34.0816 59.1646L37.3681 57.1184C38.1354 56.6054 39.242 56.2431 40.1454 56.1549C42.4371 55.93 44.2086 57.1263 45.4066 59.0142C45.4205 59.0354 45.4342 59.0568 45.4485 59.0796L46.9156 61.4353L47.2264 61.9344C47.4602 61.708 47.7086 61.4954 47.9706 61.2987C48.207 61.112 48.4526 60.9343 48.7077 60.7683C51.6277 58.8634 55.4046 58.517 58.5271 60.1494C59.8346 60.8332 60.9364 61.8268 61.7437 63.0638C64.6093 67.4565 62.8347 73.1516 58.5916 75.9189C57.9537 76.335 57.2745 76.6763 56.5712 76.9397L57.3158 78.1356L57.3159 78.1357Z" fill="#1272D4"/>
<path fill-rule="evenodd" clip-rule="evenodd" d="M26.171 53.6031C29.0294 53.8052 31.4332 55.3402 32.6396 57.9408C32.9095 58.5219 33.0891 59.1212 33.183 59.7238L31.2244 60.944C31.241 59.7996 31.0007 58.6556 30.5093 57.5947C29.6148 55.6662 28.0226 54.2813 26.171 53.6032V53.6031Z" fill="#39D5FE"/>
<path fill-rule="evenodd" clip-rule="evenodd" d="M26.171 53.6031C29.0294 53.8052 31.4332 55.3402 32.6396 57.9408C32.9095 58.5219 33.0891 59.1212 33.183 59.7238L32.472 60.1674C32.472 60.1674 31.685 54.8893 26.171 53.6032V53.6031Z" fill="#3BB5FE"/>
<path fill-rule="evenodd" clip-rule="evenodd" d="M45.6272 64.1663L41.8399 58.0849C41.5919 57.6866 41.2691 57.3625 40.9007 57.1191C42.0905 57.18 43.443 57.7541 44.5799 59.5491C44.5907 59.5655 44.6013 59.5821 44.6116 59.5989L46.5406 62.6959C46.1834 63.15 45.8761 63.6429 45.6271 64.1663H45.6272Z" fill="#39D5FE"/>
<path fill-rule="evenodd" clip-rule="evenodd" d="M41.858 57.2837C42.7816 57.5628 43.74 58.223 44.58 59.5492C44.5908 59.5655 44.6014 59.5822 44.6117 59.599L46.5407 62.696C46.4067 62.8656 46.2806 63.0414 46.1611 63.2211C46.1611 63.2211 43.2861 57.8377 41.8579 57.2837H41.858ZM41.6179 57.2197C41.6506 57.2272 41.6831 57.2351 41.7163 57.244C41.6797 57.2378 41.6477 57.2296 41.6179 57.2197Z" fill="#3BB5FE"/>
<path fill-rule="evenodd" clip-rule="evenodd" d="M55.4273 76.9662L55.8898 77.7085L59.1824 82.996C59.822 84.0228 59.5049 85.3861 58.4776 86.0256L35.4364 100.374C35.4364 100.374 35.3118 100.466 35.0894 100.592L35.0819 100.596C34.9979 100.649 34.9119 100.694 34.8245 100.733C33.9293 101.186 32.1879 101.802 30.4838 100.911C31.0033 100.884 31.5243 100.73 31.9943 100.437L55.3896 85.8669C56.876 84.9416 57.3352 82.9669 56.4097 81.4807L52.9235 75.8828L55.4274 76.9664L55.4273 76.9662Z" fill="#39D5FE"/>
<path fill-rule="evenodd" clip-rule="evenodd" d="M55.4273 76.9662L55.8898 77.7085L58.3167 81.6057L57.0886 81.1939L54.3469 76.4987L55.4273 76.9662Z" fill="#3BB5FE"/>
<path fill-rule="evenodd" clip-rule="evenodd" d="M39.4181 97.896L35.4365 100.374C35.4365 100.374 35.3119 100.466 35.0894 100.592L35.082 100.596C34.998 100.649 34.9119 100.694 34.8246 100.733C34.0699 101.114 32.7155 101.613 31.2872 101.226C31.293 101.226 33.978 101.077 37.4226 98.0918C38.4135 97.2322 39.0345 97.3264 39.4182 97.896H39.4181Z" fill="#3BB5FE"/>
<path fill-rule="evenodd" clip-rule="evenodd" d="M54.8585 60.1173C57.2882 60.2977 59.5475 61.5001 60.9192 63.6023C63.3504 67.3295 62.0674 72.4748 58.0531 75.094C57.4402 75.4952 56.6747 75.8837 55.9141 76.1341L53.5435 75.108C54.3329 75.0062 55.1151 74.7833 55.8273 74.453C57.7508 73.5606 59.2161 71.928 59.8953 69.9196C60.53 68.0418 60.4179 66.0102 59.5713 64.2166C58.6149 62.1904 56.8685 60.7467 54.8585 60.1173Z" fill="#39D5FE"/>
<path fill-rule="evenodd" clip-rule="evenodd" d="M54.8585 60.1173C57.2882 60.2977 59.5475 61.5001 60.9192 63.6023C63.3504 67.3295 62.0674 72.4748 58.0531 75.094C57.4402 75.4952 56.6746 75.8837 55.9141 76.1341L55.0364 75.7538C55.0364 75.7538 59.4178 74.6002 60.9143 70.3579C62.413 66.1174 59.8007 60.9628 54.8584 60.1173H54.8585Z" fill="#3BB5FE"/>
<path fill-rule="evenodd" clip-rule="evenodd" d="M19.1977 84.0512L13.8737 75.5008C13.2334 74.4747 13.5497 73.1102 14.5777 72.4702L22.5773 67.4889C20.3998 67.1779 18.4198 65.8062 17.426 63.664C17.4005 63.6106 17.3769 63.5575 17.354 63.5056C17.3324 63.4526 17.3088 63.3995 17.2872 63.3465C17.2665 63.2927 17.2449 63.2397 17.2263 63.1861C16.0071 59.9313 17.5048 56.2734 20.694 54.742C24.0593 53.1803 28.0544 54.6427 29.616 58.01C30.3601 59.6158 30.4172 61.3648 29.9063 62.9251L33.2645 60.833L35.4234 59.4885L37.9737 57.901C39.0002 57.2605 40.3645 57.5785 41.0041 58.6053L45.9331 66.5206C46.2438 64.3434 47.6155 62.3634 49.7587 61.3691C49.8108 61.3444 49.8648 61.3219 49.9172 61.2986C49.9698 61.2756 50.0233 61.2536 50.0762 61.232V61.2318C50.1291 61.2104 50.1827 61.1897 50.2359 61.17L50.2361 61.1697C53.4911 59.952 57.149 61.4499 58.6807 64.6369C60.2429 68.0037 58.7793 71.9981 55.4134 73.5601C53.807 74.3047 52.0574 74.3605 50.4983 73.8506L55.5739 82.001C56.2132 83.028 55.8962 84.3913 54.8691 85.0307L31.4738 99.6009C30.4636 100.23 29.1289 99.9345 28.4767 98.9491L28.4757 98.9481L28.475 98.9469L28.4733 98.9428L28.4724 98.9416L28.4717 98.9407L28.4707 98.9394L28.4698 98.9385C28.4611 98.9257 28.4524 98.9127 28.445 98.899L28.4441 98.8981L28.4431 98.8968L23.3306 90.6863L19.1979 84.051L19.1977 84.0512Z" fill="#39D5FE"/>
<path fill-rule="evenodd" clip-rule="evenodd" d="M29.9063 62.9252L33.2645 60.8331L35.4234 59.4885L37.9737 57.9011C38.83 57.3674 39.9202 57.4992 40.6295 58.1531L39.7877 59.1368C39.7877 59.1368 39.4637 58.4422 37.0681 59.9337L30.8676 63.7948C29.4729 64.0868 29.9063 62.9251 29.9063 62.9251V62.9252ZM19.1977 84.0512L13.8737 75.5008C13.2464 74.4949 13.5372 73.1658 14.5159 72.5118L19.2585 69.556L22.5773 67.4889C20.3998 67.178 18.4198 65.8062 17.426 63.6641C17.4005 63.6107 17.3769 63.5576 17.354 63.5056C17.3324 63.4527 17.3088 63.3995 17.2872 63.3466C17.2665 63.2928 17.2449 63.2398 17.2263 63.1861C16.2558 60.5971 17.0072 57.7525 18.9581 55.9264C18.8443 56.0395 16.4225 58.4801 18.2618 62.6128C20.1451 66.8431 23.9576 66.6288 23.9576 66.6288C25.4594 66.8361 24.4245 67.808 24.4223 67.8097L15.614 73.2965C14.1242 74.2242 14.6818 74.5374 15.5864 75.9899C16.4912 77.4422 27.7398 95.5072 28.9143 97.3925C30.0889 99.278 30.6043 98.8589 30.6043 98.8589L30.3048 99.9324C29.5924 99.9278 28.8942 99.5798 28.4766 98.9491L28.4756 98.9482L28.4749 98.947L28.4733 98.9429L28.4723 98.9417L28.4716 98.9407L28.4706 98.9395L28.4697 98.9385C28.4611 98.9258 28.4524 98.9128 28.445 98.8991L28.444 98.8981L28.4431 98.8969L23.3305 90.6863L19.1978 84.051L19.1977 84.0512Z" fill="#8FE9FF"/>
<path fill-rule="evenodd" clip-rule="evenodd" d="M39.3163 94.718L31.4738 99.601C30.4636 100.23 29.1289 99.9347 28.4767 98.9492L28.4757 98.9483L28.475 98.947L28.4733 98.943L28.4724 98.9417L28.4717 98.9408L28.4707 98.9396L28.4698 98.9386C28.4611 98.9258 28.4524 98.9128 28.445 98.8991L28.4441 98.8982L28.4431 98.897L28.0711 98.2998C28.0711 98.2998 29.2747 99.7011 30.8299 98.7339C32.3834 97.7645 38.6801 93.8445 38.6801 93.8445L39.3165 94.7178L39.3163 94.718Z" fill="#3BB5FE"/>
<path fill-rule="evenodd" clip-rule="evenodd" d="M44.7541 66.7574L41.2155 61.0755C39.1568 57.7698 37.9989 57.9384 37.6552 58.0988L37.9737 57.9011C38.999 57.2616 40.3601 57.5769 41.0009 58.6008L45.9331 66.5208C45.9319 66.5253 45.6685 67.1997 44.754 66.7574H44.7541ZM56.3228 61.9027C57.3054 62.5648 58.1304 63.4921 58.6807 64.637C60.2429 68.0038 58.7793 71.9982 55.4134 73.5602C53.807 74.3048 52.0574 74.3607 50.4983 73.8508L51.732 75.8324L55.5792 82.0095C56.0073 82.7039 55.9996 83.551 55.6319 84.2241L49.053 73.6605C49.053 73.6605 48.3952 72.5765 49.8468 72.8047C49.8468 72.8047 54.0081 74.0439 56.7768 70.9565C59.5464 67.8701 59.0646 64.2298 56.3229 61.9027H56.3228Z" fill="#3BB5FE"/>
<path fill-rule="evenodd" clip-rule="evenodd" d="M20.694 54.742C24.0593 53.1803 28.0544 54.6427 29.616 58.01C30.3601 59.6158 30.4172 61.3648 29.9063 62.9251C29.9063 62.9251 29.6994 53.5439 20.694 54.742Z" fill="#3BB5FE"/>
<path fill-rule="evenodd" clip-rule="evenodd" d="M63.0762 101.271C64.5095 101.351 65.9092 100.895 67.0239 99.9803C68.1768 99.035 68.9068 97.6956 69.0831 96.2164C69.2019 95.2217 69.5435 94.7225 70.5821 94.5553C71.4093 94.4221 72.2879 94.385 73.1167 94.5226C74.1502 94.6955 74.6236 95.0826 75.3618 95.7861L80.8801 101.045C82.1476 102.253 82.197 104.28 80.9888 105.548L62.2873 125.172C62.1894 125.289 62.0739 125.405 61.9652 125.51C61.8757 125.602 61.781 125.69 61.6812 125.772C59.191 127.948 56.2379 127.895 53.7879 125.601C53.7677 125.583 53.7491 125.565 53.7292 125.547L50.3828 122.359C49.971 123.892 49.0907 125.276 47.8258 126.301C45.7032 128.022 43.164 128.648 40.5045 127.982C38.314 127.432 36.2746 126.045 34.849 124.306C32.1518 121.017 32.6319 116.162 35.9213 113.464C36.9288 112.638 38.1115 112.092 39.36 111.853L33.7768 106.534C32.5092 105.326 32.4599 103.299 33.6686 102.031L38.6768 96.7752C36.9347 96.4407 35.3352 95.5088 34.1768 94.096C31.475 90.8011 31.9957 85.9891 35.2404 83.2616C38.0747 80.8776 41.94 79.5963 45.531 80.9771C46.8988 81.5027 48.075 82.3736 49.0025 83.5048C49.3695 83.9522 49.6849 84.4385 49.9415 84.9547L52.613 82.1514C53.2278 81.4625 54.2092 80.8355 55.0618 80.524C57.2251 79.7341 59.2388 80.4495 60.8705 81.9782C60.8902 81.9963 60.908 82.0126 60.9272 82.0311L67.3992 88.1984L67.4089 88.2082C67.864 88.6659 68.3914 89.2112 68.041 89.9261C67.7495 90.5207 67.1414 90.5784 66.574 90.4901C65.8253 90.373 65.0578 90.3963 64.3201 90.5726L64.3058 90.5765C63.4662 90.7787 62.6897 91.1684 62.0221 91.7161C59.573 93.7242 59.2156 97.3366 61.2238 99.7857C61.7327 100.406 62.3608 100.912 63.0763 101.272L63.0762 101.271Z" fill="#C77802"/>
<path fill-rule="evenodd" clip-rule="evenodd" d="M71.7108 95.4274C72.2373 95.412 72.6053 95.4358 72.9545 95.494C73.7264 95.6232 74.0273 95.8748 74.6827 96.4995L80.2008 101.758C81.0765 102.592 81.1107 103.992 80.2758 104.868L61.55 124.518C61.55 124.518 61.4516 124.636 61.2669 124.816L61.2619 124.821C61.1938 124.892 61.1211 124.959 61.0468 125.018C60.294 125.68 58.7611 126.712 56.8891 126.274C57.3851 126.119 57.85 125.84 58.232 125.439L77.2464 105.486C78.4538 104.218 78.405 102.191 77.1375 100.983L71.7244 95.825C71.4488 95.5624 71.4098 95.4361 71.7107 95.4275L71.7108 95.4274Z" fill="#FEDC34"/>
<path fill-rule="evenodd" clip-rule="evenodd" d="M72.0779 95.4231C72.4201 95.4262 72.6926 95.4507 72.9546 95.4941C73.7265 95.6233 74.0274 95.8748 74.6828 96.4995L80.2009 101.758C81.0766 102.593 81.1108 103.992 80.2759 104.868L61.5501 124.518C61.5501 124.518 61.4517 124.637 61.267 124.816L61.2619 124.821C61.1939 124.892 61.1212 124.959 61.0469 125.018C60.4434 125.549 59.3382 126.318 57.9598 126.375C58.0341 126.369 58.7686 126.248 60.6983 124.224C62.7387 122.083 75.5625 108.625 77.9444 106.127C80.3258 103.627 80.1291 102.616 77.9281 100.519C75.7265 98.4211 74.5463 97.2965 73.7187 96.5077C72.891 95.719 72.0778 95.4232 72.0778 95.4232L72.0779 95.4231Z" fill="#FAA933"/>
<path fill-rule="evenodd" clip-rule="evenodd" d="M63.4685 89.7963C62.7344 90.0484 62.0326 90.4335 61.3973 90.9544C58.5279 93.3072 58.1094 97.5412 60.462 100.41C60.499 100.455 60.537 100.499 60.575 100.543C59.9722 100.204 59.42 99.7495 58.9546 99.1818C56.9465 96.7328 57.3039 93.1204 59.7527 91.1124C60.6866 90.3466 61.8236 89.898 63.0282 89.8232L63.4686 89.7963L63.4685 89.7963Z" fill="#FEDC34"/>
<path fill-rule="evenodd" clip-rule="evenodd" d="M63.4685 89.7963C62.7344 90.0484 62.0326 90.4335 61.3974 90.9544C58.5279 93.3072 58.1094 97.5412 60.462 100.41C60.499 100.455 60.537 100.499 60.575 100.543C60.575 100.543 57.8129 97.9219 58.5612 94.6092C59.3102 91.2952 61.9333 90.146 63.4686 89.7963L63.4685 89.7963Z" fill="#FAA933"/>
<path fill-rule="evenodd" clip-rule="evenodd" d="M56.0339 81.2688C57.2014 81.0309 58.6546 81.2488 60.2034 82.7025C60.2181 82.7157 60.2327 82.7292 60.2479 82.7439L62.898 85.2694L66.7101 88.9018C67.8807 90.0794 66.0845 89.3816 64.972 89.0641C64.6214 88.9641 64.3745 88.8209 63.9181 88.3859L57.1844 81.9689C56.845 81.6457 56.4522 81.4133 56.034 81.2687L56.0339 81.2688Z" fill="#FEDC34"/>
<path fill-rule="evenodd" clip-rule="evenodd" d="M56.0339 81.2688C57.2014 81.0309 58.6546 81.2488 60.2034 82.7025C60.2181 82.7157 60.2327 82.7292 60.2479 82.7439L62.898 85.2694L66.7101 88.9018C67.6837 89.8812 66.6061 89.5639 65.5753 89.2462C65.5753 89.2462 65.975 89.2054 64.8491 88.1015C63.7237 86.9985 59.7847 83.2504 58.6953 82.214C57.6071 81.1783 56.5407 81.1795 56.0339 81.2687V81.2688Z" fill="#FAA933"/>
<path fill-rule="evenodd" clip-rule="evenodd" d="M40.8941 81.5446C43.7112 81.0248 46.4221 81.9112 48.241 84.1293C48.646 84.6233 48.9693 85.1589 49.2127 85.7187L47.6207 87.3901C47.3506 86.2762 46.8318 85.2304 46.0907 84.3267C44.7421 82.682 42.8552 81.7397 40.8942 81.5446H40.8941Z" fill="#FEDC34"/>
<path fill-rule="evenodd" clip-rule="evenodd" d="M40.8941 81.5446C43.7112 81.0248 46.4221 81.9112 48.241 84.1293C48.646 84.6233 48.9693 85.1589 49.2127 85.7187L48.6071 86.3548C45.9955 81.002 40.8942 81.5446 40.8942 81.5446H40.8941Z" fill="#FAA933"/>
<path fill-rule="evenodd" clip-rule="evenodd" d="M35.6108 123.682C33.2577 120.812 33.6767 116.579 36.546 114.226C38.0596 112.985 39.952 112.515 41.7478 112.769L34.4556 105.821C33.5806 104.986 33.5466 103.585 34.382 102.71L40.8821 95.8872C38.6974 96.1312 36.4363 95.298 34.9383 93.4712C34.901 93.4257 34.8657 93.3805 34.8304 93.335C34.795 93.2898 34.7599 93.2446 34.7255 93.1984C34.6913 93.1522 34.6589 93.106 34.6257 93.0589C32.6334 90.2116 33.17 86.2963 35.8738 84.0159C38.744 81.6624 42.9758 82.0809 45.329 84.9511C46.4513 86.3196 46.9432 88 46.8388 89.6384L49.5685 86.7733L51.3236 84.9318L53.3945 82.7573C54.2303 81.8815 55.629 81.8471 56.5059 82.683L62.9676 88.8403C61.6086 88.9247 60.2615 89.4207 59.1279 90.3504C56.2587 92.7029 55.8406 96.9374 58.1929 99.8063C59.4213 101.304 61.1615 102.134 62.9531 102.251L62.9548 102.25C64.5955 102.357 66.2779 101.866 67.6486 100.742C69.0485 99.5939 69.8583 97.9986 70.0609 96.3329C70.14 95.683 70.2369 95.7676 70.6059 96.1193L76.4583 101.696C77.3343 102.531 77.3677 103.93 76.5329 104.806L57.5192 124.76C56.6992 125.62 55.3333 125.667 54.4551 124.877L54.4544 124.876L54.4534 124.875L54.4529 124.874L54.4513 124.874L54.4496 124.872L54.4491 124.871L54.4486 124.871L54.4473 124.87L54.4468 124.869L54.4461 124.868L54.4446 124.868C54.4336 124.857 54.4218 124.847 54.411 124.836L54.4102 124.835L54.4097 124.835L54.4092 124.834L47.4066 118.161C47.8506 120.5 47.036 123.002 45.0663 124.617C42.1971 126.969 37.9631 126.55 35.6106 123.682L35.6108 123.682Z" fill="#FEDC34"/>
<path fill-rule="evenodd" clip-rule="evenodd" d="M49.0142 118.266L54.4915 123.485C55.968 124.892 56.8803 123.857 56.8803 123.857L57.4715 124.808C56.6477 125.622 55.3159 125.653 54.4551 124.877L54.4544 124.876L54.4534 124.875L54.4529 124.874L54.4513 124.874L54.4496 124.872L54.4491 124.871L54.4486 124.871L54.4473 124.87L54.4468 124.869L54.4461 124.868L54.4447 124.868L54.436 124.86L54.4353 124.859L54.4348 124.859L54.4343 124.858L54.4335 124.857L48.2762 118.99L47.4067 118.161C47.4067 118.161 47.9125 117.216 49.0134 118.265L49.0141 118.265L49.0142 118.266ZM46.8387 89.6385L47.4241 89.0245L49.5684 86.7734L51.3235 84.932L53.3944 82.7574C54.0409 82.0803 55.0239 81.9067 55.841 82.248C55.8211 82.8204 55.7845 83.269 55.7169 83.2646C55.5334 83.2557 54.9222 82.6571 53.4132 84.2695C52.8833 84.8343 50.6845 87.1448 48.0005 89.9615C46.8038 90.8666 46.8387 89.6385 46.8387 89.6385H46.8387ZM41.7472 112.769L41.7477 112.769L34.4555 105.821C33.5805 104.986 33.5463 103.588 34.3807 102.711L39.4711 97.3685L40.8821 95.8874C38.6974 96.1313 36.4362 95.2981 34.9383 93.4713C34.901 93.4259 34.8656 93.3807 34.8303 93.3352C34.7949 93.29 34.7598 93.2448 34.7254 93.1985C34.6912 93.1524 34.6588 93.1061 34.6256 93.059C33.2073 91.0331 33.0711 88.465 34.0835 86.332C34.0434 86.4574 32.7462 90.5922 36.088 93.1629C38.1022 94.7133 40.6933 94.5851 42.4663 94.226C43.8928 94.0256 43.1732 95.0217 43.1705 95.0274C39.5049 98.8703 36.145 102.39 35.5919 102.97C34.362 104.261 34.7685 104.691 36.0113 105.875L43.6391 113.145C43.6408 113.147 44.5134 114.478 43.3 114.249C43.2966 114.247 38.9921 112.951 36.2069 115.821C33.4392 118.671 35.196 123.094 35.222 123.159C33.3163 120.317 33.8471 116.439 36.546 114.226C38.0597 112.985 39.9521 112.515 41.7474 112.769L41.7472 112.769Z" fill="#FFF0A8"/>
<path fill-rule="evenodd" clip-rule="evenodd" d="M47.4068 118.162C47.8508 120.5 47.0362 123.002 45.0665 124.617C42.6156 126.627 39.1676 126.614 36.7492 124.778C45.9959 127.83 47.4067 118.162 47.4067 118.162H47.4068Z" fill="#FAA933"/>
<path fill-rule="evenodd" clip-rule="evenodd" d="M34.7055 85.2783C35.0333 84.8211 35.4229 84.3946 35.8737 84.016C38.7438 81.6625 42.9756 82.081 45.3289 84.9512C46.4511 86.3198 46.943 88.0001 46.8387 89.6386C46.8387 89.6386 46.5241 87.222 43.442 84.7338C40.3587 82.2465 36.3189 83.5206 34.7055 85.2784V85.2783Z" fill="#FAA933"/>
<path fill-rule="evenodd" clip-rule="evenodd" d="M60.5377 86.5251L62.9675 88.8404C61.6085 88.9248 60.2614 89.4208 59.1278 90.3504C56.2586 92.703 55.8406 96.9374 58.1929 99.8064C58.3598 100.01 58.5356 100.2 58.7196 100.378C58.7196 100.378 55.29 97.2826 56.051 93.6759C56.4794 91.6485 57.6923 90.2571 58.6898 89.2815C59.6699 88.324 60.662 88.1119 60.0588 87.4016C59.3683 86.5889 60.0865 86.8859 60.5377 86.5251Z" fill="#FAA933"/>
<path fill-rule="evenodd" clip-rule="evenodd" d="M69.9196 97.1143C69.9822 96.8569 70.0291 96.5959 70.0608 96.333C70.1399 95.6831 70.2369 95.7678 70.6058 96.1194L76.4583 101.696C77.3343 102.531 77.3677 103.93 76.5328 104.806L57.5191 124.76C56.8384 125.474 55.7811 125.628 54.9397 125.207C54.9434 125.207 55.6488 125.19 57.6836 123.055C59.724 120.914 71.444 108.612 73.8264 106.113C76.2079 103.613 76.0118 102.603 73.8103 100.505C71.6088 98.4074 72.0629 98.8402 71.2357 98.052C70.7314 97.5715 70.2327 97.2739 69.9196 97.1143H69.9196ZM53.9854 82.318C54.7948 81.9062 55.8129 82.0226 56.5058 82.6831L62.9675 88.8405C62.4256 88.8746 61.8852 88.9737 61.3598 89.1399C61.4226 89.0338 61.4601 88.737 60.7515 88.0621C59.8063 87.1611 56.7696 84.2678 55.7169 83.2646C54.9135 82.499 54.2533 82.3465 53.9854 82.3179V82.318Z" fill="#FAA933"/>
<path fill-rule="evenodd" clip-rule="evenodd" d="M49.5523 121.567C49.2764 123.073 48.4879 124.496 47.2057 125.536C45.2267 127.14 43.1053 127.498 41.1546 127.117C42.7581 127.046 44.3533 126.475 45.6904 125.378C47.2105 124.132 48.1683 122.383 48.4339 120.501L49.5523 121.567V121.567Z" fill="#FEDC34"/>
<path fill-rule="evenodd" clip-rule="evenodd" d="M49.5523 121.567C49.2764 123.073 48.4879 124.496 47.2057 125.536C45.2267 127.14 43.1053 127.498 41.1546 127.117C41.1546 127.117 47.5407 127.843 48.9935 121.034L49.5523 121.567V121.567Z" fill="#FAA933"/>
<path d="M25.6365 74.2709C25.9992 74.251 26.3619 74.2411 26.7237 74.2411C26.9082 74.2411 27.0919 74.2435 27.2755 74.249C27.2906 74.2492 27.306 74.2497 27.3214 74.2497C27.3209 74.2497 27.3204 74.2497 27.3202 74.2497C27.3055 74.2497 27.2905 74.2497 27.2761 74.2492C27.0921 74.2439 26.9077 74.2415 26.7225 74.2415C26.3614 74.2415 25.9987 74.2514 25.6365 74.2709V74.2709ZM28.5386 73.6251C28.7484 73.3369 28.8514 72.9824 28.8289 72.6265C28.8535 72.9851 28.7517 73.3348 28.5386 73.6251ZM28.6423 71.6316L28.6339 71.5905C28.631 71.5773 28.6286 71.5645 28.6252 71.5515C28.6286 71.5647 28.6315 71.5782 28.6339 71.5914L28.6423 71.6316V71.6316Z" fill="#250C60"/>
<path d="M27.8272 74.3792V74.3784C27.993 74.3267 28.1505 74.2502 28.2941 74.1506C28.1505 74.2504 27.9934 74.3274 27.8272 74.3792Z" fill="#000072"/>
<path d="M28.8391 71.5578L28.8374 71.5492C28.8341 71.5338 28.8307 71.5184 28.8273 71.5031C28.8312 71.5184 28.8345 71.5343 28.8377 71.5499V71.5504L28.8392 71.5579L28.8391 71.5578Z" fill="#0D50B6"/>
<path fill-rule="evenodd" clip-rule="evenodd" d="M22.2641 45.6227C31.0065 38.6369 42.0917 34.4604 54.1525 34.4604C82.3867 34.4604 105.275 57.3485 105.275 85.5824C105.275 100.059 99.257 113.131 89.587 122.432C101.31 113.064 108.82 98.6452 108.82 82.4722C108.82 54.2383 85.9323 31.3502 57.6983 31.3502C43.9414 31.3502 31.4534 36.7841 22.2641 45.6227Z" fill="#EC239B" fill-opacity="0.2"/>
<path fill-rule="evenodd" clip-rule="evenodd" d="M63.2561 127.55C36.9108 127.55 15.5535 106.193 15.5535 79.847C15.5535 60.5034 27.0669 43.849 43.6147 36.3627C23.8655 42.3873 9.49875 60.7518 9.49875 82.4721C9.49875 109.092 31.0783 130.672 57.6983 130.672C67.5394 130.672 76.6914 127.722 84.319 122.66C77.9668 125.791 70.817 127.55 63.2561 127.55V127.55Z" fill="#EC239B" fill-opacity="0.2"/>
<path fill-rule="evenodd" clip-rule="evenodd" d="M45.4386 39.6006C44.0031 40.2587 41.4226 43.2785 41.253 44.8484C40.853 48.5505 41.601 53.6345 44.6121 56.1699C51.4858 61.9574 62.0665 62.3391 68.8101 68.051C78.5778 76.3245 73.1807 93.8934 75.4661 105.872C76.6088 111.862 81.8824 120.562 88.7158 115.701C101.339 106.721 105.185 82.5284 98.4197 67.3047C87.6674 43.1078 57.6993 33.9804 45.4386 39.6006Z" fill="url(#paint2_radial_71_11525)" fill-opacity="0.34902"/>
<path fill-rule="evenodd" clip-rule="evenodd" d="M74.2589 46.0272C78.9666 46.2035 85.1027 50.4365 87.9639 55.4815C90.8254 60.5265 89.3289 64.4732 84.6214 64.2969C79.9136 64.1203 73.7776 59.8876 70.9163 54.8426C68.0548 49.7974 69.5513 45.8506 74.2589 46.0272Z" fill="url(#paint3_radial_71_11525)" fill-opacity="0.2"/>
<path d="M78.929 16.0356C79.9164 16.0356 80.7169 15.2351 80.7169 14.2477C80.7169 13.2603 79.9164 12.4598 78.929 12.4598C77.9415 12.4598 77.1411 13.2603 77.1411 14.2477C77.1411 15.2351 77.9415 16.0356 78.929 16.0356Z" fill="#232851"/>
<path d="M91.2837 32.9777C91.7977 32.9777 92.2144 32.561 92.2144 32.047C92.2144 31.533 91.7977 31.1163 91.2837 31.1163C90.7697 31.1163 90.3531 31.533 90.3531 32.047C90.3531 32.561 90.7697 32.9777 91.2837 32.9777Z" fill="#232851"/>
<path d="M106.166 40.3515C107.153 40.3515 107.953 39.5511 107.953 38.5636C107.953 37.5762 107.153 36.7758 106.166 36.7758C105.178 36.7758 104.378 37.5762 104.378 38.5636C104.378 39.5511 105.178 40.3515 106.166 40.3515Z" fill="#232851"/>
<path d="M31.4822 29.3491C32.1116 29.3491 32.6218 28.8389 32.6218 28.2096C32.6218 27.5803 32.1116 27.0701 31.4822 27.0701C30.8529 27.0701 30.3427 27.5803 30.3427 28.2096C30.3427 28.8389 30.8529 29.3491 31.4822 29.3491Z" fill="#2C1538"/>
<path d="M19.6289 35.2748C19.9558 35.2748 20.2209 35.0097 20.2209 34.6828C20.2209 34.3559 19.9558 34.0908 19.6289 34.0908C19.3019 34.0908 19.0369 34.3559 19.0369 34.6828C19.0369 35.0097 19.3019 35.2748 19.6289 35.2748Z" fill="#2C1538"/>
<path d="M9.54498 35.3108C10.1192 35.3108 10.5847 34.8453 10.5847 34.2711C10.5847 33.6968 10.1192 33.2313 9.54498 33.2313C8.97075 33.2313 8.50524 33.6968 8.50524 34.2711C8.50524 34.8453 8.97075 35.3108 9.54498 35.3108Z" fill="#2C1538"/>
<path fill-rule="evenodd" clip-rule="evenodd" d="M20.3488 41.002C21.657 41.002 22.7175 42.0625 22.7175 43.3706C22.7175 44.6786 21.657 45.7393 20.3488 45.7393C19.0408 45.7393 17.9801 44.6786 17.9801 43.3706C17.9801 42.0625 19.0408 41.002 20.3488 41.002Z" fill="#431D53" fill-opacity="0.501961"/>
<path fill-rule="evenodd" clip-rule="evenodd" d="M27.2218 43.2542C28.4218 43.2542 29.3945 42.2817 29.3945 41.0817C29.3945 40.8725 29.5652 40.7017 29.7745 40.7017C29.9838 40.7017 30.1543 40.8724 30.1543 41.0817C30.1543 42.2815 31.1272 43.2542 32.327 43.2542C32.5362 43.2542 32.707 43.4249 32.707 43.6342C32.707 43.8432 32.5363 44.014 32.327 44.014C31.127 44.014 30.1543 44.9869 30.1543 46.1869C30.1543 46.3959 29.9838 46.5667 29.7745 46.5667C29.5653 46.5667 29.3945 46.3959 29.3945 46.1869C29.3945 44.9869 28.4218 44.014 27.2218 44.014C27.0126 44.014 26.8418 43.8432 26.8418 43.6342C26.8418 43.425 27.0125 43.2542 27.2218 43.2542ZM93.2438 112.935C94.6491 112.935 95.7883 111.796 95.7883 110.391C95.7883 110.146 95.9884 109.946 96.2332 109.946C96.4783 109.946 96.6782 110.146 96.6782 110.391C96.6782 111.796 97.8173 112.935 99.2224 112.935C99.4675 112.935 99.6676 113.135 99.6676 113.38C99.6676 113.625 99.4675 113.825 99.2224 113.825C97.817 113.825 96.6782 114.964 96.6782 116.37C96.6782 116.615 96.4783 116.815 96.2332 116.815C95.9884 116.815 95.7883 116.615 95.7883 116.37C95.7883 114.964 94.6492 113.825 93.2438 113.825C92.9987 113.825 92.7985 113.625 92.7985 113.38C92.7985 113.135 92.9986 112.935 93.2438 112.935ZM29.6013 111.142C30.713 111.142 31.614 110.241 31.614 109.13C31.614 108.936 31.7723 108.778 31.9661 108.778C32.16 108.778 32.3181 108.936 32.3181 109.13C32.3181 110.241 33.219 111.142 34.3305 111.142C34.5244 111.142 34.6827 111.3 34.6827 111.494C34.6827 111.688 34.5244 111.846 34.3305 111.846C33.2191 111.846 32.3181 112.747 32.3181 113.859C32.3181 114.053 32.1601 114.211 31.9661 114.211C31.7723 114.211 31.614 114.053 31.614 113.859C31.614 112.747 30.713 111.846 29.6013 111.846C29.4077 111.846 29.2494 111.688 29.2494 111.494C29.2494 111.3 29.4077 111.142 29.6013 111.142ZM64.5872 51.6545C65.0687 51.6545 65.4591 52.0448 65.4591 52.5264C65.4591 53.0079 65.0687 53.3982 64.5872 53.3982C64.1057 53.3982 63.7153 53.0079 63.7153 52.5264C63.7153 52.0448 64.1057 51.6545 64.5872 51.6545ZM29.2862 86.4617C30.5944 86.4617 31.6549 87.5224 31.6549 88.8304C31.6549 90.1383 30.5944 91.199 29.2862 91.199C27.9782 91.199 26.9177 90.1383 26.9177 88.8304C26.9177 87.5224 27.9782 86.4617 29.2862 86.4617ZM30.5547 74.7616C31.0583 74.7616 31.467 74.3534 31.467 73.8495C31.467 73.7617 31.5387 73.6898 31.6264 73.6898C31.7143 73.6898 31.7859 73.7617 31.7859 73.8495C31.7859 74.3534 32.1943 74.7616 32.698 74.7616C32.786 74.7616 32.8577 74.8333 32.8577 74.921C32.8577 75.0091 32.786 75.0808 32.698 75.0808C32.1943 75.0808 31.7859 75.4892 31.7859 75.9931C31.7859 76.0809 31.7142 76.1525 31.6264 76.1525C31.5386 76.1525 31.467 76.0808 31.467 75.9931C31.467 75.4892 31.0583 75.0808 30.5547 75.0808C30.4667 75.0808 30.395 75.0091 30.395 74.921C30.395 74.8332 30.4667 74.7616 30.5547 74.7616ZM31.1625 58.6434C31.7748 58.6434 32.2713 58.1469 32.2713 57.5346C32.2713 57.4277 32.3584 57.3407 32.4652 57.3407C32.572 57.3407 32.659 57.4278 32.659 57.5346C32.659 58.1469 33.1555 58.6434 33.7675 58.6434C33.8746 58.6434 33.9617 58.7305 33.9617 58.8372C33.9617 58.9441 33.8746 59.0311 33.7675 59.0311C33.1554 59.0311 32.659 59.5275 32.659 60.1399C32.659 60.2467 32.5719 60.3337 32.4652 60.3337C32.3583 60.3337 32.2713 60.2467 32.2713 60.1399C32.2713 59.5275 31.7748 59.0311 31.1625 59.0311C31.0557 59.0311 30.9686 58.944 30.9686 58.8372C30.9686 58.7304 31.0557 58.6434 31.1625 58.6434Z" fill="white" fill-opacity="0.25098"/>
<path fill-rule="evenodd" clip-rule="evenodd" d="M92.7506 40.3457C93.6545 40.3457 94.3874 39.6131 94.3874 38.709C94.3874 38.5514 94.5161 38.4227 94.6739 38.4227C94.8314 38.4227 94.9601 38.5514 94.9601 38.709C94.9601 39.6128 95.693 40.3457 96.5969 40.3457C96.7544 40.3457 96.8831 40.4744 96.8831 40.632C96.8831 40.7897 96.7544 40.9182 96.5969 40.9182C95.6928 40.9182 94.9601 41.6513 94.9601 42.5552C94.9601 42.713 94.8314 42.8414 94.6739 42.8414C94.5161 42.8414 94.3874 42.713 94.3874 42.5552C94.3874 41.6511 93.6548 40.9182 92.7506 40.9182C92.5928 40.9182 92.4644 40.7897 92.4644 40.632C92.4644 40.4744 92.5928 40.3457 92.7506 40.3457Z" fill="#292E6B"/>
<path fill-rule="evenodd" clip-rule="evenodd" d="M87.6337 19.1066C89.2248 19.1066 90.5145 17.8171 90.5145 16.226C90.5145 15.9487 90.7408 15.7222 91.0183 15.7222C91.2956 15.7222 91.522 15.9487 91.522 16.226C91.522 17.8169 92.8116 19.1066 94.4025 19.1066C94.6801 19.1066 94.9064 19.3329 94.9064 19.6104C94.9064 19.8877 94.68 20.1141 94.4025 20.1141C92.8114 20.1141 91.522 21.404 91.522 22.9948C91.522 23.2724 91.2956 23.4987 91.0183 23.4987C90.7407 23.4987 90.5145 23.2724 90.5145 22.9948C90.5145 21.4038 89.2248 20.1141 87.6337 20.1141C87.3564 20.1141 87.1301 19.8877 87.1301 19.6104C87.1301 19.3329 87.3564 19.1066 87.6337 19.1066Z" fill="#3A3E61"/>
<path fill-rule="evenodd" clip-rule="evenodd" d="M124.871 11.8603C128.06 11.8603 130.645 9.27586 130.645 6.08697C130.645 5.53085 131.099 5.07727 131.655 5.07727C132.211 5.07727 132.665 5.53092 132.665 6.08697C132.665 9.27535 135.25 11.8603 138.438 11.8603C138.994 11.8603 139.448 12.3139 139.448 12.87C139.448 13.4261 138.994 13.8797 138.438 13.8797C135.249 13.8797 132.665 16.4649 132.665 19.6535C132.665 20.2093 132.211 20.6632 131.655 20.6632C131.099 20.6632 130.645 20.2093 130.645 19.6535C130.645 16.4646 128.06 13.8797 124.871 13.8797C124.316 13.8797 123.862 13.426 123.862 12.87C123.862 12.3139 124.316 11.8603 124.871 11.8603Z" fill="#3A3E61"/>
<path fill-rule="evenodd" clip-rule="evenodd" d="M38.1375 22.0811C39.0075 21.8026 39.487 20.8718 39.2085 20.0018C39.1599 19.85 39.2441 19.6867 39.3959 19.6381C39.5474 19.5896 39.711 19.6738 39.7595 19.8255C40.0378 20.6952 40.9689 21.1749 41.8386 20.8965C41.9904 20.848 42.1538 20.9322 42.2023 21.0837C42.2509 21.2354 42.1667 21.3988 42.0149 21.4474C41.1449 21.7259 40.6656 22.6567 40.9441 23.5267C40.9925 23.6784 40.9085 23.8418 40.7567 23.8904C40.605 23.9389 40.4416 23.8547 40.3931 23.703C40.1145 22.833 39.1837 22.3534 38.3137 22.632C38.162 22.6805 37.9986 22.5963 37.9501 22.4446C37.9015 22.293 37.9857 22.1295 38.1375 22.0811Z" fill="#2C1538"/>
<path fill-rule="evenodd" clip-rule="evenodd" d="M80.6129 3.167C81.9439 3.01068 82.8961 1.80519 82.7396 0.474068C82.7124 0.241982 82.8796 0.030507 83.1117 0.00314733C83.3435 -0.0240672 83.5552 0.143139 83.5826 0.375007C83.7389 1.70584 84.9444 2.65805 86.2752 2.50173C86.5073 2.4743 86.719 2.64151 86.7462 2.87359C86.7734 3.10568 86.6064 3.31716 86.3743 3.34451C85.0432 3.50084 84.0915 4.70662 84.2479 6.03745C84.2751 6.26954 84.1081 6.48123 83.876 6.50837C83.6439 6.53559 83.4322 6.3686 83.4051 6.13651C83.2485 4.80546 82.043 3.85346 80.7119 4.00978C80.4798 4.037 80.2684 3.87001 80.241 3.63792C80.2138 3.40584 80.381 3.19415 80.6129 3.167Z" fill="#3A3E61"/>
<path fill-rule="evenodd" clip-rule="evenodd" d="M40.1392 137.045C40.7876 137.419 41.6172 137.197 41.9917 136.548C42.0569 136.435 42.2027 136.396 42.3157 136.462C42.4287 136.527 42.4677 136.673 42.4025 136.786C42.028 137.434 42.2502 138.264 42.8986 138.638C43.0119 138.703 43.0509 138.849 42.9854 138.962C42.9203 139.075 42.7748 139.114 42.6615 139.049C42.0127 138.674 41.1835 138.897 40.8089 139.545C40.7438 139.658 40.5982 139.697 40.485 139.632C40.3719 139.567 40.3329 139.421 40.3982 139.308C40.7729 138.66 40.5506 137.83 39.902 137.455C39.7887 137.39 39.7497 137.245 39.8152 137.132C39.8804 137.018 40.0259 136.979 40.1392 137.045V137.045Z" fill="#462262"/>
<path d="M64.9199 145.519C65.7845 145.519 66.4855 144.818 66.4855 143.954C66.4855 143.089 65.7845 142.388 64.9199 142.388C64.0552 142.388 63.3543 143.089 63.3543 143.954C63.3543 144.818 64.0552 145.519 64.9199 145.519Z" fill="#4E236C"/>
<path d="M78.872 145.311C79.2649 145.311 79.5834 144.993 79.5834 144.6C79.5834 144.207 79.2649 143.889 78.872 143.889C78.4791 143.889 78.1606 144.207 78.1606 144.6C78.1606 144.993 78.4791 145.311 78.872 145.311Z" fill="#4E236C"/>
<path d="M95.1645 137.347C96.0862 137.347 96.8333 136.6 96.8333 135.678C96.8333 134.757 96.0862 134.01 95.1645 134.01C94.2429 134.01 93.4957 134.757 93.4957 135.678C93.4957 136.6 94.2429 137.347 95.1645 137.347Z" fill="#4E236C"/>
<path d="M79.9908 160C81.6135 160 82.9289 158.684 82.9289 157.062C82.9289 155.439 81.6135 154.124 79.9908 154.124C78.3682 154.124 77.0528 155.439 77.0528 157.062C77.0528 158.684 78.3682 160 79.9908 160Z" fill="#4E236C"/>
</g>
<defs>
<radialGradient id="paint0_radial_71_11525" cx="0" cy="0" r="1" gradientUnits="userSpaceOnUse" gradientTransform="translate(57.6983 82.4721) scale(56.8895 56.8895)">
<stop stop-color="#EE249C"/>
<stop offset="0.890196" stop-color="#852172"/>
<stop offset="1" stop-color="#1C1E48"/>
</radialGradient>
<linearGradient id="paint1_linear_71_11525" x1="11.2902" y1="103.914" x2="104.106" y2="61.0304" gradientUnits="userSpaceOnUse">
<stop stop-color="#783CA1"/>
<stop offset="1" stop-color="#EE229B"/>
</linearGradient>
<radialGradient id="paint2_radial_71_11525" cx="0" cy="0" r="1" gradientUnits="userSpaceOnUse" gradientTransform="translate(71.4345 77.5584) scale(30.2815 39.5621)">
<stop stop-color="#EE249C"/>
<stop offset="1" stop-color="#FFE500"/>
</radialGradient>
<radialGradient id="paint3_radial_71_11525" cx="0" cy="0" r="1" gradientUnits="userSpaceOnUse" gradientTransform="translate(79.4365 55.1628) rotate(2.14616) scale(8.53001 8.93443)">
<stop stop-color="#FCC15B"/>
<stop offset="1" stop-color="white"/>
</radialGradient>
<clipPath id="clip0_71_11525">
<rect width="139.448" height="160" fill="white"/>
</clipPath>
</defs>
</svg>
