<svg width="380" height="238" viewBox="0 0 380 238" fill="none" xmlns="http://www.w3.org/2000/svg">
<g clip-path="url(#clip0_214_14086)">
<path fill-rule="evenodd" clip-rule="evenodd" d="M14.9268 58.2338H365.072C373.292 58.2338 379.999 64.9419 379.999 73.1609V222.552C379.999 230.772 373.292 237.479 365.072 237.479H14.9268C6.7069 237.479 0 230.772 0 222.552V73.1609C0 64.9408 6.7069 58.2338 14.9268 58.2338Z" fill="white"/>
<path d="M353.365 63.299H26.6351C14.7224 63.299 5.06519 64.3075 5.06519 65.5515V230.163C5.06519 231.407 14.7224 232.416 26.6351 232.416H353.365C365.278 232.416 374.935 231.407 374.935 230.163V65.5515C374.935 64.3075 365.278 63.299 353.365 63.299Z" fill="#735974"/>
<path d="M25.8823 171.726V177.517H21.7822V160.503H28.5706C29.8712 160.503 31.0233 160.742 32.0247 161.22C33.026 161.699 33.7996 162.377 34.3498 163.263C34.8956 164.144 35.1718 165.145 35.1718 166.266C35.1718 167.921 34.5776 169.244 33.3892 170.238C32.2008 171.232 30.5733 171.726 28.5001 171.726H25.8834H25.8823ZM25.8823 168.568H28.5706C29.3639 168.568 29.9703 168.368 30.3851 167.973C30.8044 167.575 31.0112 167.016 31.0112 166.29C31.0112 165.496 30.7956 164.863 30.3686 164.387C29.9416 163.909 29.3551 163.67 28.6179 163.661H25.8812V168.566L25.8823 168.568Z" fill="#4B4669"/>
<path d="M44.9379 174.335H39.3182L38.3366 177.517H33.9537L40.1952 160.503H44.0476L50.3375 177.517H45.9304L44.9379 174.335ZM40.2997 171.177H43.9563L42.122 165.27L40.2997 171.177Z" fill="#4B4669"/>
<path d="M64.7241 160.504V171.643C64.7241 172.908 64.4567 174 63.9186 174.921C63.3805 175.847 62.6102 176.549 61.6056 177.031C60.6009 177.514 59.4125 177.756 58.0447 177.756C55.9704 177.756 54.3397 177.218 53.1468 176.145C51.954 175.068 51.3488 173.596 51.3246 171.726V160.503H55.4489V171.805C55.4962 173.668 56.3622 174.597 58.0447 174.597C58.8898 174.597 59.5368 174.361 59.9704 173.895C60.405 173.428 60.6251 172.667 60.6251 171.617V160.502H64.7252L64.7241 160.504Z" fill="#4B4669"/>
<path d="M67.277 177.517V160.503H72.7569C74.2601 160.503 75.6125 160.842 76.813 161.524C78.0135 162.206 78.9511 163.167 79.6212 164.411C80.2946 165.656 80.638 167.048 80.6457 168.591V169.373C80.6457 170.928 80.3144 172.329 79.6564 173.56C78.9984 174.797 78.0729 175.762 76.8768 176.46C75.6807 177.157 74.3481 177.508 72.8769 177.517H67.277ZM71.3803 163.662V174.359H72.8043C73.9806 174.359 74.8862 173.94 75.5167 173.102C76.1473 172.265 76.462 171.02 76.462 169.365V168.631C76.462 166.984 76.1473 165.748 75.5167 164.914C74.8862 164.081 73.9652 163.662 72.7569 163.662H71.3814H71.3803Z" fill="#4B4669"/>
<path d="M59.0031 186.449H21.1034V193.244H59.0031V186.449Z" fill="#4B4669"/>
<path d="M24.6158 170.038V175.829H20.5157V158.815H27.3041C28.6047 158.815 29.7569 159.053 30.7582 159.532C31.7596 160.011 32.5331 160.689 33.0833 161.574C33.6291 162.456 33.9053 163.457 33.9053 164.577C33.9053 166.232 33.3111 167.556 32.1227 168.55C30.9343 169.544 29.3068 170.038 27.2336 170.038H24.6169H24.6158ZM24.6158 166.879H27.3041C28.0975 166.879 28.7038 166.68 29.1186 166.285C29.5379 165.887 29.7447 165.328 29.7447 164.602C29.7447 163.808 29.5291 163.174 29.1021 162.699C28.6752 162.22 28.0887 161.982 27.3514 161.973H24.6147V166.878L24.6158 166.879Z" fill="white"/>
<path d="M43.6724 172.647H38.0526L37.0711 175.829H32.6882L38.9297 158.815H42.7821L49.072 175.829H44.6649L43.6724 172.647ZM39.0342 169.489H42.6908L40.8565 163.582L39.0342 169.489Z" fill="white"/>
<path d="M63.4575 158.815V169.954C63.4575 171.218 63.1901 172.311 62.652 173.232C62.1139 174.158 61.3436 174.86 60.339 175.342C59.3343 175.825 58.1459 176.067 56.7781 176.067C54.7038 176.067 53.0731 175.529 51.8802 174.456C50.6874 173.379 50.0822 171.907 50.058 170.037V158.814H54.1823V170.116C54.2296 171.979 55.0956 172.908 56.7781 172.908C57.6232 172.908 58.2702 172.672 58.7038 172.206C59.1384 171.739 59.3585 170.977 59.3585 169.928V158.813H63.4586L63.4575 158.815Z" fill="white"/>
<path d="M66.0104 175.829V158.815H71.4903C72.9935 158.815 74.3459 159.154 75.5464 159.836C76.7469 160.518 77.6844 161.479 78.3546 162.723C79.028 163.968 79.3714 165.36 79.3791 166.903V167.685C79.3791 169.24 79.0478 170.641 78.3898 171.872C77.7318 173.109 76.8063 174.074 75.6102 174.772C74.4141 175.469 73.0815 175.82 71.6103 175.829H66.0104ZM70.1137 161.974V172.671H71.5377C72.714 172.671 73.6196 172.252 74.2501 171.414C74.8806 170.577 75.1954 169.332 75.1954 167.677V166.943C75.1954 165.296 74.8806 164.06 74.2501 163.226C73.6196 162.393 72.6986 161.974 71.4903 161.974H70.1148H70.1137Z" fill="white"/>
<path d="M57.7365 184.761H19.8368V191.556H57.7365V184.761Z" fill="white"/>
<path fill-rule="evenodd" clip-rule="evenodd" d="M267.26 232.416C267.169 220.575 278.292 195.834 278.292 195.834L276.479 180.725C276.479 180.725 280.326 166.772 275.711 153.144C275.711 153.144 316.698 140.618 343.342 147.098C351.458 161.697 353.291 184.709 353.562 199.073C353.562 199.073 360.599 225.28 362.427 232.416H267.26Z" fill="#BDE0FE"/>
<path fill-rule="evenodd" clip-rule="evenodd" d="M369.521 205.044C369.521 205.044 366.771 206.399 364.509 204.553C362.246 202.705 351.685 191.123 351.685 191.123C351.685 191.123 351.33 186.884 351.954 186.612C352.578 186.34 361.079 182.9 363.266 182.978C365.452 183.056 369.853 180.752 372.351 186.962C374.845 193.171 376.787 197.413 375.131 200.144C373.474 202.874 372.158 204.991 369.521 205.044Z" fill="#E8F4FF"/>
<path fill-rule="evenodd" clip-rule="evenodd" d="M343.991 148.306C355.778 151.595 367.45 157.393 374.935 165.235V203.928C374.621 204.328 374.3 204.727 373.967 205.129C373.967 205.129 371.49 206.467 369.522 205.042C369.522 205.042 373.052 203.167 372.701 199.269C372.35 195.373 366.34 187.357 357.955 187.16C349.569 186.96 353.052 196.904 353.052 196.904L347.667 193.044C347.667 193.044 332.265 165.659 343.992 148.305L343.991 148.306Z" fill="#BDE0FE"/>
<path fill-rule="evenodd" clip-rule="evenodd" d="M261.477 211.107C261.477 211.107 264.417 211.986 266.338 209.789C268.263 207.591 276.751 194.413 276.751 194.413C276.751 194.413 276.395 190.174 275.734 190.01C275.075 189.845 266.119 187.868 263.976 188.308C261.834 188.746 257.108 187.209 255.68 193.746C254.251 200.285 253.043 204.789 255.132 207.207C257.218 209.626 258.866 211.492 261.476 211.108L261.477 211.107Z" fill="#E8F4FF"/>
<path fill-rule="evenodd" clip-rule="evenodd" d="M275.736 151.825C250.273 163.788 229.087 187.808 257.109 211.931C257.109 211.931 259.774 212.836 261.477 211.106C261.477 211.106 257.685 209.843 257.383 205.942C257.082 202.04 261.675 193.137 269.912 191.547C278.148 189.958 276.368 200.34 276.368 200.34L281.036 195.639C281.036 195.639 290.186 166.988 275.737 151.825H275.736Z" fill="#BDE0FE"/>
<path fill-rule="evenodd" clip-rule="evenodd" d="M267.735 232.415C267.703 228.552 268.901 223.249 270.517 217.885C283.809 217.206 282.22 204.241 282.22 204.241L280.352 203.361C278.984 202.961 277.128 203.061 275.084 203.511C273.908 206.477 272.563 210.05 271.323 213.767C271.163 213.736 271.003 213.703 270.839 213.668C268.62 220.325 266.745 227.447 266.785 232.416H267.736L267.735 232.415Z" fill="#B02321"/>
<path fill-rule="evenodd" clip-rule="evenodd" d="M354.678 203.237C355.399 205.923 356.393 209.639 357.441 213.566C347.196 211.881 348.588 201.658 348.588 201.658C350.171 201.608 352.383 202.24 354.677 203.237H354.678Z" fill="#B02321"/>
<path fill-rule="evenodd" clip-rule="evenodd" d="M315.171 211.091C317.14 211.091 318.743 209.486 318.743 207.52C318.743 205.551 317.14 203.948 315.171 203.948C313.205 203.948 311.599 205.551 311.599 207.52C311.599 209.486 313.205 211.091 315.171 211.091Z" fill="#B02321"/>
<path fill-rule="evenodd" clip-rule="evenodd" d="M315.171 209.429C316.224 209.429 317.082 208.57 317.082 207.52C317.082 206.467 316.224 205.612 315.171 205.612C314.12 205.612 313.263 206.468 313.263 207.52C313.263 208.57 314.12 209.429 315.171 209.429Z" fill="#F470A0"/>
<path fill-rule="evenodd" clip-rule="evenodd" d="M315.171 208.152C315.519 208.152 315.803 207.868 315.803 207.521C315.803 207.173 315.519 206.89 315.171 206.89C314.826 206.89 314.54 207.173 314.54 207.521C314.54 207.868 314.826 208.152 315.171 208.152Z" fill="#EBCAA7"/>
<path fill-rule="evenodd" clip-rule="evenodd" d="M273.481 194.212C276.286 193.043 281.178 190.695 281.034 195.64C281.034 195.64 285.346 197.207 282.737 201.738C282.737 201.738 284.001 205.393 280.815 206.162C280.815 206.162 281.282 209.898 277.903 210.723C277.903 210.723 277.759 213.821 274.524 214.047C271.29 214.273 263.096 212.096 261.531 207.893C259.964 203.69 266.695 193.967 273.481 194.213V194.212Z" fill="#FCD1C8"/>
<path d="M281.033 196.114L280.778 196.039C280.756 196.027 278.593 194.687 273.481 194.687C273.219 194.687 273.007 194.475 273.007 194.213C273.007 193.951 273.219 193.737 273.481 193.737C278.916 193.737 281.2 195.18 281.294 195.243C281.513 195.386 281.574 195.677 281.432 195.897C281.342 196.038 281.189 196.115 281.032 196.115L281.033 196.114ZM282.738 202.215C282.526 202.215 282.331 202.07 282.277 201.854C282.273 201.836 282.051 201.042 281.011 200.051C280.82 199.87 280.813 199.568 280.992 199.379C281.176 199.19 281.476 199.18 281.664 199.362C282.935 200.57 283.19 201.583 283.201 201.627C283.262 201.884 283.105 202.139 282.851 202.201L282.737 202.215H282.738ZM280.783 206.64C280.56 206.64 279.895 206.578 278.938 205.956C278.717 205.814 278.655 205.52 278.798 205.301C278.941 205.078 279.235 205.016 279.453 205.161C280.288 205.702 280.792 205.68 280.785 205.689C281.103 205.685 281.268 205.876 281.284 206.132C281.299 206.389 281.118 206.613 280.859 206.636L280.783 206.64ZM276.451 211.41C276.222 211.41 275.975 211.395 275.722 211.358C275.462 211.321 275.281 211.081 275.319 210.821C275.356 210.559 275.602 210.374 275.855 210.417C276.891 210.564 277.74 210.277 277.749 210.273C277.997 210.185 278.27 210.32 278.352 210.567C278.438 210.817 278.306 211.087 278.057 211.172C278.022 211.183 277.354 211.409 276.45 211.409L276.451 211.41Z" fill="#F8A8A0"/>
<path d="M276.479 181.2C276.333 181.2 276.187 181.132 276.094 181.002L274.47 178.75C274.316 178.536 274.364 178.239 274.579 178.086C274.789 177.929 275.087 177.976 275.243 178.193L276.866 180.447C277.021 180.658 276.972 180.955 276.759 181.11C276.673 181.171 276.578 181.199 276.48 181.199L276.479 181.2ZM277.819 192.354C277.634 192.354 277.459 192.245 277.382 192.065C277.35 191.992 274.151 184.773 264.353 182.284C264.099 182.219 263.946 181.961 264.01 181.707C264.076 181.45 264.329 181.302 264.587 181.362C274.862 183.973 278.123 191.379 278.257 191.693C278.359 191.933 278.247 192.212 278.006 192.315L277.819 192.355V192.354Z" fill="#B02321"/>
<path fill-rule="evenodd" clip-rule="evenodd" d="M354.878 190.38C351.917 189.693 346.702 188.194 347.666 193.045C347.666 193.045 343.673 195.306 347.001 199.343C347.001 199.343 346.362 203.154 349.632 203.383C349.632 203.383 349.793 207.144 353.262 207.396C353.262 207.396 353.919 210.427 357.146 210.111C360.376 209.795 368.09 206.288 368.936 201.884C369.78 197.479 361.529 189.008 354.878 190.38Z" fill="#FCD1C8"/>
<path d="M347.668 193.519C347.538 193.519 347.41 193.467 347.315 193.364C347.14 193.17 347.152 192.872 347.345 192.695C347.429 192.619 349.44 190.815 354.799 189.912C355.057 189.873 355.303 190.041 355.348 190.302C355.391 190.559 355.217 190.805 354.956 190.85C349.916 191.701 348.007 193.38 347.986 193.395C347.896 193.48 347.783 193.519 347.669 193.519H347.668ZM347.001 199.815L346.963 199.813C346.703 199.793 346.508 199.568 346.526 199.308C346.529 199.264 346.615 198.221 347.66 196.818C347.819 196.609 348.119 196.571 348.327 196.724C348.539 196.88 348.583 197.177 348.423 197.388C347.559 198.546 347.475 199.371 347.475 199.371C347.453 199.624 347.246 199.815 347 199.815H347.001ZM349.632 203.86C349.386 203.86 349.177 203.669 349.157 203.419C349.138 203.161 349.329 202.936 349.584 202.91C349.614 202.905 350.096 202.821 350.807 202.167C351.001 201.991 351.303 202.005 351.48 202.195C351.657 202.389 351.644 202.689 351.451 202.866C350.467 203.772 349.747 203.85 349.667 203.857L349.632 203.859V203.86ZM353.856 207.91C353.464 207.91 353.206 207.87 353.184 207.865C352.926 207.823 352.752 207.579 352.793 207.321C352.835 207.064 353.063 206.89 353.339 206.927C353.346 206.927 354.247 207.065 355.23 206.753C355.479 206.68 355.749 206.811 355.828 207.061C355.908 207.311 355.768 207.578 355.518 207.66C354.889 207.859 354.29 207.909 353.856 207.909V207.91Z" fill="#F8A8A0"/>
<path d="M350.815 170.316L350.604 170.266C350.37 170.15 350.273 169.864 350.39 169.63L351.216 167.954C351.334 167.72 351.616 167.621 351.853 167.739C352.087 167.855 352.185 168.14 352.068 168.375L351.241 170.051C351.159 170.218 350.991 170.316 350.815 170.316ZM350.211 189.276L350.1 189.262C349.844 189.201 349.687 188.944 349.748 188.687C349.829 188.356 351.81 180.512 361.507 176.23C361.749 176.125 362.028 176.233 362.134 176.473C362.241 176.713 362.132 176.995 361.892 177.101C352.621 181.195 350.692 188.835 350.675 188.911C350.623 189.129 350.426 189.276 350.211 189.276Z" fill="#B02321"/>
<path fill-rule="evenodd" clip-rule="evenodd" d="M246.01 92.3048C236.919 92.8285 229.973 100.625 230.497 109.716C231.022 118.809 238.816 125.755 247.91 125.231C257.001 124.707 263.948 116.912 263.422 107.818C262.898 98.7267 255.103 91.781 246.01 92.3048Z" fill="#FCD1C8"/>
<path fill-rule="evenodd" clip-rule="evenodd" d="M258.258 110.806V110.774L258.249 110.646L258.247 110.625L258.239 110.52L258.236 110.478L258.228 110.392L258.222 110.333L258.215 110.266L258.206 110.187L258.2 110.139L258.189 110.041L258.183 110.016C257.821 107.178 256.376 104.692 254.268 102.91L254.183 102.844C251.913 100.968 248.896 99.8987 245.654 100.085C242.37 100.274 239.468 101.714 237.425 103.884C235.371 106.068 234.187 108.997 234.37 112.149C234.409 112.842 235.001 113.369 235.691 113.328C236.381 113.287 236.909 112.696 236.87 112.005C236.728 109.566 237.65 107.291 239.25 105.591C240.172 104.611 241.324 103.818 242.628 103.292C242.029 103.721 241.478 104.214 240.992 104.761C239.308 106.651 238.344 109.185 238.501 111.913C238.658 114.635 239.91 117.04 241.797 118.724L241.8 118.728L241.798 118.73C243.687 120.412 246.222 121.378 248.949 121.221C251.672 121.065 254.075 119.815 255.762 117.925L255.767 117.921L255.784 117.901C257.448 116.021 258.404 113.509 258.257 110.807L258.258 110.806Z" fill="#F8A8A0"/>
<path fill-rule="evenodd" clip-rule="evenodd" d="M367.577 85.2962C370.183 85.1455 372.682 85.6109 374.935 86.5628V116.955C373.247 117.666 371.409 118.109 369.476 118.22C360.383 118.745 352.588 111.799 352.063 102.707C351.541 93.6152 358.485 85.82 367.577 85.2962Z" fill="#FCD1C8"/>
<path fill-rule="evenodd" clip-rule="evenodd" d="M357.535 105.083L357.533 105.05L357.526 104.922V104.902L357.52 104.794L357.519 104.756L357.518 104.667L357.516 104.609L357.515 104.54V104.314L357.516 104.289C357.55 101.428 358.7 98.7927 360.589 96.7823L360.667 96.7074C362.706 94.5815 365.58 93.173 368.82 92.9859C371.015 92.8583 373.107 93.3061 374.934 94.1908V97.0607C374.107 96.516 373.184 96.0934 372.195 95.8216C372.84 96.1781 373.442 96.6073 373.991 97.0948C374.326 97.393 374.641 97.7154 374.934 98.0576V110.898C374.889 110.952 374.842 111.005 374.795 111.058L374.793 111.06L374.796 111.062C373.113 112.95 370.706 114.2 367.977 114.357C365.254 114.515 362.723 113.551 360.832 111.866L360.826 111.863L360.807 111.847C358.935 110.17 357.696 107.783 357.533 105.084L357.535 105.083Z" fill="#F8A8A0"/>
<path fill-rule="evenodd" clip-rule="evenodd" d="M278.328 153.335C256.102 146.148 252.015 126.69 253.12 116.46C192.615 -16.6702 408.092 -29.095 363.291 110.108C365.562 120.142 363.74 139.938 342.488 149.635C318.167 160.733 303.766 161.562 278.328 153.334V153.335Z" fill="#FCD1C8"/>
<path fill-rule="evenodd" clip-rule="evenodd" d="M293.309 99.6322C277.319 71.4104 254.264 101.174 265.474 116.371C268.451 120.408 281.322 124.7 289.511 121.658C298.411 118.355 297.64 107.279 293.309 99.6322Z" fill="#F8A8A0"/>
<path fill-rule="evenodd" clip-rule="evenodd" d="M323.783 26.5068C327.036 29.3172 327.692 33.4724 327.778 34.1238C327.792 34.52 328.097 34.8578 328.502 34.9029C328.947 34.9524 329.352 34.6311 329.402 34.1843C330.573 23.7117 325.842 15.5511 319.029 10.9249C316.176 8.98929 312.95 7.6732 309.644 7.07017C306.329 6.46275 302.923 6.57279 299.719 7.48503C292.792 9.45697 286.793 15.1549 284.581 25.4592C282.17 36.6966 276.066 36.3048 276.049 36.3059V36.3081C275.734 36.3004 275.431 36.4743 275.292 36.778C275.102 37.1863 275.278 37.6704 275.684 37.8608C276.814 38.3868 278.014 38.6861 279.146 38.8468C272.17 40.6724 268.4 38.8446 268.045 38.6586C267.884 38.5662 267.693 38.5299 267.496 38.564C267.055 38.641 266.759 39.0669 266.836 39.5092C269.03 51.7469 277.501 58.4088 287.292 60.2454C291.296 60.9937 295.524 60.932 299.624 60.11C303.727 59.288 307.715 57.7034 311.234 55.4157C319.892 49.7827 325.765 39.8845 323.783 26.5068Z" fill="#4C466A"/>
<path fill-rule="evenodd" clip-rule="evenodd" d="M284.73 24.7943C284.678 25.0155 284.628 25.2356 284.578 25.46C283.298 31.4198 280.981 34.108 279.085 35.3196C306.611 42.5227 307.716 17.0905 307.716 17.0905C297.572 25.7759 289.285 25.8232 284.73 24.7943Z" fill="#675D82"/>
<path fill-rule="evenodd" clip-rule="evenodd" d="M312.898 117.204C312.654 116.952 312.25 116.943 311.996 117.185C311.743 117.427 311.735 117.832 311.977 118.087C311.984 118.093 314.508 120.816 314.023 121.857C313.706 122.537 312.552 123.425 310.765 123.727C309.437 123.951 307.78 123.836 305.876 123.06C305.554 122.928 305.18 123.083 305.047 123.407C303.734 126.62 306.818 124.722 306.829 124.725C308.395 125.152 309.798 125.185 310.979 124.984C313.217 124.606 314.724 123.365 315.176 122.395C316.01 120.61 312.904 117.213 312.896 117.203L312.898 117.204Z" fill="#F68B85"/>
<path fill-rule="evenodd" clip-rule="evenodd" d="M330.971 126.933C328.127 127.628 324.973 129.158 321.764 130.712C320.517 131.318 319.256 131.929 317.967 132.51L317.919 132.535C314.45 134.099 311.963 134.925 309.46 135.069C306.958 135.213 304.393 134.678 300.768 133.524L300.718 133.505C299.369 133.076 298.046 132.613 296.739 132.154C293.374 130.979 290.064 129.822 287.159 129.459C284.525 129.129 285.868 132.558 287.554 131.922C288.325 131.627 289.072 131.083 290.013 131.33C292.01 131.852 294.154 132.602 296.319 133.359C297.67 133.831 299.031 134.307 300.331 134.722L300.384 134.737C304.163 135.941 306.86 136.5 309.534 136.344C312.208 136.191 314.823 135.329 318.44 133.696L318.489 133.676C319.734 133.116 321.032 132.485 322.317 131.861C324.383 130.86 326.426 129.869 328.349 129.121C329.259 128.767 330.059 129.221 330.862 129.423C332.608 129.864 333.549 126.304 330.97 126.933H330.971Z" fill="#F68B85"/>
<path fill-rule="evenodd" clip-rule="evenodd" d="M293.471 102.464C277.68 77.6872 254.433 104.09 265.534 117.416C268.483 120.956 281.319 124.652 289.526 121.913C298.445 118.939 297.749 109.176 293.471 102.464Z" fill="white"/>
<path fill-rule="evenodd" clip-rule="evenodd" d="M293.471 102.464C292.851 101.491 292.218 100.606 291.579 99.7875C289.135 97.9675 286.066 96.9628 282.788 97.151C275.388 97.579 269.733 103.925 270.16 111.324C270.436 116.118 273.197 120.181 277.12 122.33C281.321 123.074 285.88 123.129 289.526 121.913C290.951 121.438 292.128 120.791 293.085 120.011C294.417 118.668 295.462 117.053 296.134 115.257C297.22 111.239 295.944 106.344 293.471 102.463V102.464Z" fill="#4C466A"/>
<path fill-rule="evenodd" clip-rule="evenodd" d="M275.541 98.0995C272.393 98.28 269.989 100.978 270.172 104.126C270.352 107.273 273.052 109.678 276.199 109.497C279.347 109.315 281.75 106.618 281.569 103.468C281.388 100.322 278.69 97.919 275.541 98.0995Z" fill="white"/>
<path fill-rule="evenodd" clip-rule="evenodd" d="M284.892 69.4348C284.232 68.5831 283.194 67.9592 281.751 67.8359L281.733 67.8348L281.689 67.8315H281.67C273.917 67.9482 268.715 72.199 266.407 75.6135L266.378 75.6498C265.672 76.7029 265.233 77.6933 265.074 78.4657C264.876 79.4319 265.093 80.1405 265.73 80.4002C266.191 80.5895 266.86 80.4828 267.717 79.9821C271.25 77.9145 276.117 77.1299 279.563 76.5786C281.189 76.3178 282.508 76.1043 283.28 75.8248C284.352 75.432 285.097 74.5924 285.471 73.5987C285.722 72.9385 285.807 72.2078 285.722 71.4948L285.718 71.4672C285.628 70.7498 285.362 70.051 284.908 69.4568L284.893 69.4359L284.892 69.4348Z" fill="#4C466A"/>
<path fill-rule="evenodd" clip-rule="evenodd" d="M326.08 29.1884C330.226 60.192 291.218 72.5626 275.186 54.7648C292.416 69.3703 328.233 56.5287 323.781 26.5056C324.821 27.4035 325.554 28.3147 326.08 29.1884Z" fill="#F8A8A0"/>
<path fill-rule="evenodd" clip-rule="evenodd" d="M321.441 98.0079C334.081 68.1367 360.403 95.0512 351.015 111.436C348.521 115.789 336.229 121.532 327.746 119.452C318.523 117.193 318.017 106.102 321.441 98.0079Z" fill="#F8A8A0"/>
<path fill-rule="evenodd" clip-rule="evenodd" d="M321.605 100.842C334.444 74.4156 360.571 97.9717 351.075 112.484C348.554 116.338 336.227 121.485 327.76 119.71C318.557 117.78 318.126 108.002 321.605 100.842Z" fill="white"/>
<path fill-rule="evenodd" clip-rule="evenodd" d="M321.605 100.842C322.108 99.8051 322.636 98.8522 323.178 97.9652C325.395 95.8778 328.329 94.5265 331.607 94.3383C339.007 93.9103 345.352 99.5652 345.779 106.966C346.056 111.761 343.779 116.112 340.129 118.698C336.044 119.921 331.52 120.499 327.76 119.71C326.29 119.402 325.045 118.894 324.005 118.228C322.528 117.047 321.304 115.563 320.429 113.858C318.89 109.993 319.594 104.98 321.604 100.842H321.605Z" fill="#4C466A"/>
<path fill-rule="evenodd" clip-rule="evenodd" d="M338.915 94.4451C342.063 94.2635 344.759 96.6679 344.941 99.8139C345.123 102.962 342.719 105.66 339.572 105.843C336.424 106.023 333.725 103.619 333.544 100.473C333.362 97.3248 335.765 94.6266 338.915 94.4451Z" fill="white"/>
<path fill-rule="evenodd" clip-rule="evenodd" d="M326.333 67.0448C326.888 66.1249 327.849 65.3854 329.267 65.0971L329.285 65.0927L329.328 65.085H329.33L329.349 65.0839C337.063 64.307 342.718 67.9317 345.403 71.0579L345.434 71.0909C346.259 72.0571 346.809 72.9902 347.056 73.7396C347.366 74.676 347.23 75.4045 346.627 75.7379C346.192 75.9767 345.514 75.9492 344.606 75.5497C340.858 73.9003 335.933 73.6824 332.447 73.5294C330.801 73.459 329.466 73.3985 328.669 73.2092C327.557 72.944 326.721 72.1935 326.236 71.2494C325.911 70.6222 325.744 69.9069 325.746 69.1895V69.1598C325.755 68.4379 325.937 67.7127 326.321 67.069L326.335 67.047L326.333 67.0448Z" fill="#4C466A"/>
<path fill-rule="evenodd" clip-rule="evenodd" d="M345.912 123.668C342.148 123.885 339.195 125.781 339.318 127.903C339.442 130.027 342.591 131.57 346.355 131.353C350.122 131.135 353.073 129.239 352.953 127.117C352.83 124.995 349.679 123.45 345.912 123.668Z" fill="#F8A8A0"/>
<path fill-rule="evenodd" clip-rule="evenodd" d="M271.94 127.932C268.177 128.15 265.223 130.048 265.347 132.169C265.469 134.291 268.619 135.836 272.384 135.618C276.149 135.401 279.102 133.505 278.98 131.384C278.857 129.26 275.707 127.716 271.939 127.932H271.94Z" fill="#F8A8A0"/>
<path fill-rule="evenodd" clip-rule="evenodd" d="M276.669 152.862C276.628 152.814 276.587 152.766 276.545 152.718C276.042 152.534 275.55 152.341 275.066 152.143C274.352 152.485 273.641 152.837 272.936 153.198C275.175 155.006 276.089 158.003 276.434 161.256C276.969 166.304 276.123 172.311 274.831 177.994C274.758 178.313 274.685 178.631 274.61 178.946C274.086 181.156 273.502 183.305 272.913 185.318C274.83 186.789 276.144 188.332 276.989 189.532C277.004 189.489 277.02 189.445 277.033 189.4C277.148 189.026 277.265 188.646 277.381 188.262C278.128 185.793 278.874 183.131 279.531 180.385C279.997 178.434 280.42 176.44 280.766 174.441C281.532 170.022 281.925 165.584 281.603 161.547C281.581 161.267 281.555 160.991 281.526 160.716C281.259 158.198 280.671 155.83 279.685 153.769C279.235 153.627 278.781 153.482 278.324 153.335C277.811 153.169 277.308 152.997 276.815 152.819C276.763 152.833 276.713 152.848 276.664 152.862H276.669Z" fill="#FF808F"/>
<path fill-rule="evenodd" clip-rule="evenodd" d="M332.089 162.429C332.712 164.542 333.579 166.613 334.714 168.629C335.136 169.377 335.586 170.105 336.063 170.811C337.37 172.746 338.875 174.528 340.526 176.172C340.807 176.452 341.092 176.728 341.382 177.001C344.472 179.903 348.015 182.354 351.696 184.438C351.976 183.995 352.294 183.533 352.654 183.058C353.304 182.203 354.089 181.313 355.035 180.434C354.055 179.898 353.104 179.346 352.184 178.777C346.821 175.46 342.507 171.577 339.68 166.944C337.848 163.942 336.641 160.626 336.177 156.945C335.995 155.504 335.927 154.007 335.981 152.451C334.334 153.12 332.728 153.736 331.157 154.299C331.066 154.498 330.968 154.694 330.863 154.886C330.965 157.442 331.36 159.963 332.088 162.429H332.089Z" fill="#FF808F"/>
<path fill-rule="evenodd" clip-rule="evenodd" d="M309.022 165.342C313.992 164.881 319.259 163.364 323.476 160.647C325.69 159.221 327.783 157.337 329.067 155.022C314.046 160.038 301.919 160.028 285.253 155.421C289.725 163.705 300.002 166.181 309.022 165.342Z" fill="#F8A8A0"/>
<path fill-rule="evenodd" clip-rule="evenodd" d="M323.476 160.648C319.259 163.364 313.992 164.881 309.022 165.343C300.002 166.182 289.726 163.706 285.253 155.422C283.454 154.925 281.602 154.375 279.688 153.771C280.592 155.659 281.162 157.803 281.455 160.087C287.448 168.905 298.886 171.979 309.546 170.988C315.431 170.441 321.555 168.629 326.545 165.415C328.456 164.184 330.229 162.72 331.713 161.031C331.223 159.014 330.947 156.963 330.864 154.889C330.968 154.696 331.065 154.5 331.158 154.301C330.455 154.553 329.758 154.794 329.067 155.025C327.783 157.341 325.69 159.225 323.476 160.65V160.648Z" fill="#E8F4FF"/>
<path fill-rule="evenodd" clip-rule="evenodd" d="M283.731 180.589C302.416 184.359 322.443 183.323 339.994 175.634C338.719 174.314 337.537 172.908 336.475 171.408C320.022 178.435 301.346 179.365 283.89 175.849C282.804 175.63 281.723 175.394 280.647 175.142C280.368 176.671 280.047 178.195 279.698 179.697C281.035 180.02 282.38 180.318 283.731 180.591V180.589Z" fill="#FF808F"/>
<path fill-rule="evenodd" clip-rule="evenodd" d="M339.994 175.634C322.443 183.323 302.416 184.359 283.731 180.589C282.612 180.363 281.496 180.119 280.387 179.859C280.739 178.347 281.059 176.827 281.338 175.3C282.186 175.494 283.037 175.676 283.891 175.848C301.346 179.364 320.022 178.434 336.475 171.407C336.336 171.21 336.199 171.012 336.064 170.812C335.929 170.612 335.797 170.412 335.667 170.21C319.445 177.066 301.036 177.909 283.864 174.396C283.1 174.239 282.339 174.074 281.58 173.901L281.569 173.899L281.558 173.897L281.547 173.895L281.536 173.893L281.525 173.89L281.514 173.888L281.503 173.886L281.492 173.884L281.488 173.883L281.481 173.881L281.47 173.878L281.459 173.876L281.448 173.874L281.442 173.873L281.438 173.872L281.427 173.87L281.416 173.867L281.405 173.865L281.396 173.863H281.395L281.384 173.861L281.373 173.859L281.362 173.856L281.351 173.854H281.35L281.34 173.852L281.329 173.85L281.318 173.848L281.307 173.845L281.302 173.844L281.296 173.843L281.285 173.841L281.274 173.839L281.263 173.837L281.255 173.834H281.252L281.241 173.832L281.23 173.83L281.219 173.828L281.208 173.826L281.197 173.823L281.186 173.821L281.175 173.819L281.164 173.817H281.161L281.153 173.815L281.142 173.812L281.131 173.81L281.12 173.808L281.114 173.807L281.11 173.806L281.099 173.804L281.088 173.801L281.077 173.799L281.068 173.797H281.067L281.056 173.795L281.045 173.793L281.034 173.79L281.023 173.788H281.022L281.012 173.786L281.001 173.784L280.99 173.782L280.979 173.779L280.975 173.778L280.968 173.777L280.957 173.775L280.946 173.773L280.935 173.771L280.927 173.768L280.924 173.767L280.913 173.765L280.902 173.763L280.891 173.761L280.88 173.758L280.878 173.769L280.876 173.78L280.873 173.791L280.871 173.802L280.869 173.813L280.867 173.824L280.864 173.835L280.862 173.846L280.86 173.857L280.858 173.868L280.856 173.879L280.854 173.89L280.851 173.901L280.849 173.912L280.847 173.923L280.845 173.934L280.842 173.945L280.84 173.956L280.838 173.968L280.836 173.979L280.834 173.99L280.832 174.001L280.829 174.012L280.827 174.023L280.825 174.034L280.823 174.045L280.82 174.056L280.818 174.067L280.816 174.078L280.814 174.089L280.812 174.1L280.809 174.111L280.807 174.122L280.805 174.133L280.803 174.144L280.801 174.155L280.798 174.166L280.796 174.177L280.794 174.188L280.792 174.199L280.79 174.21L280.787 174.221L280.785 174.232L280.783 174.243L280.781 174.254L280.779 174.265L280.776 174.276L280.774 174.287L280.772 174.298L280.77 174.309L280.768 174.32L280.765 174.331L280.763 174.342L280.761 174.353L280.759 174.364L280.757 174.375L280.754 174.386L280.752 174.397L280.75 174.408L280.748 174.419L280.746 174.43L280.743 174.441L280.741 174.452L280.739 174.463C280.698 174.695 280.658 174.928 280.615 175.161C280.336 176.691 280.015 178.215 279.666 179.717C279.612 179.947 279.558 180.177 279.503 180.407C279.448 180.637 279.392 180.867 279.336 181.095L279.347 181.097L279.358 181.099L279.369 181.101L279.38 181.104L279.391 181.106L279.402 181.108H279.403L279.413 181.11L279.424 181.112L279.435 181.115L279.446 181.117L279.468 181.122H279.471L279.479 181.125L279.49 181.127L279.501 181.129L279.512 181.131L279.523 181.133L279.534 181.136L279.539 181.137L279.545 181.138L279.556 181.14L279.567 181.142L279.578 181.144L279.589 181.147L279.6 181.149L279.606 181.15L279.611 181.151L279.622 181.153L279.633 181.155L279.644 181.158L279.655 181.16L279.666 181.162L279.673 181.164L279.677 181.165L279.688 181.167L279.699 181.17L279.71 181.172L279.721 181.174L279.732 181.176L279.741 181.178H279.743L279.754 181.181L279.765 181.183L279.787 181.187L279.798 181.19L279.808 181.192H279.809L279.831 181.197L279.842 181.199L279.853 181.202L279.864 181.204L279.875 181.206L279.885 181.208L279.896 181.21L279.907 181.213L279.918 181.215L279.929 181.217L279.94 181.219H279.942L279.951 181.221L279.962 181.224L279.973 181.226L279.984 181.228L279.995 181.23L280.006 181.232L280.009 181.234L280.017 181.236L280.028 181.238L280.039 181.24C281.219 181.517 282.405 181.776 283.597 182.014C302.702 185.839 323.163 184.698 341.054 176.709C340.87 176.533 340.688 176.355 340.508 176.176C340.329 175.998 340.152 175.817 339.975 175.636L339.994 175.634Z" fill="#B02321"/>
<path fill-rule="evenodd" clip-rule="evenodd" d="M279.688 153.769C280.592 155.658 281.162 157.802 281.455 160.086C281.723 160.48 282.002 160.863 282.291 161.233C282.273 161.035 282.254 160.838 282.233 160.64C281.996 158.395 281.495 156.133 280.595 154.052C280.293 153.959 279.992 153.864 279.687 153.768L279.688 153.769Z" fill="#C9DEF2"/>
<path fill-rule="evenodd" clip-rule="evenodd" d="M281.53 160.715C281.559 160.99 281.585 161.268 281.607 161.546C281.912 165.37 281.575 169.555 280.889 173.741L280.9 173.743L280.911 173.745L280.922 173.747L280.933 173.749L280.936 173.75L280.944 173.753L280.955 173.755L280.966 173.757L280.977 173.759L280.983 173.76L280.988 173.761L280.999 173.764L281.01 173.766L281.021 173.768L281.031 173.77H281.032L281.043 173.772L281.054 173.775L281.065 173.777L281.076 173.779H281.077L281.086 173.781L281.097 173.783L281.108 173.786L281.119 173.788L281.123 173.789L281.129 173.79L281.14 173.792L281.151 173.794L281.162 173.797L281.169 173.799H281.173L281.184 173.801L281.195 173.803L281.206 173.805L281.217 173.808L281.228 173.81L281.239 173.812L281.25 173.814L281.261 173.816H281.264L281.272 173.819L281.283 173.821L281.294 173.823L281.305 173.825L281.311 173.826L281.316 173.827L281.327 173.83L281.338 173.832L281.349 173.834L281.359 173.836H281.36L281.371 173.838L281.382 173.841L281.393 173.843L281.404 173.845H281.405L281.414 173.847L281.425 173.849L281.436 173.852L281.447 173.854L281.451 173.855L281.456 173.856L281.467 173.858L281.478 173.86L281.489 173.863L281.497 173.865L281.5 173.866L281.511 173.868L281.522 173.87L281.533 173.873L281.545 173.875L281.555 173.877L281.567 173.879L281.577 173.881L281.589 173.884C282.113 170.703 282.466 167.403 282.437 164.154C282.429 163.255 282.392 162.36 282.321 161.472C282.315 161.386 282.307 161.302 282.299 161.216C282.01 160.845 281.732 160.462 281.464 160.068C281.491 160.277 281.516 160.487 281.538 160.699L281.53 160.715Z" fill="#9DCCF5"/>
<path fill-rule="evenodd" clip-rule="evenodd" d="M279.497 181.105L279.475 181.099L279.464 181.097L279.453 181.095L279.442 181.093L279.432 181.09H279.431L279.42 181.088L279.409 181.086L279.398 181.084L279.387 181.082L279.376 181.079L279.365 181.077C278.75 183.581 278.065 186.005 277.382 188.266L277.581 189.927C277.61 189.881 277.634 189.833 277.654 189.78C277.673 189.725 277.693 189.669 277.711 189.613C277.828 189.233 277.945 188.853 278.061 188.471C278.785 186.077 279.458 183.669 280.056 181.24L280.045 181.238L280.034 181.236L280.026 181.233L280.023 181.232L280.012 181.23L280.001 181.228L279.99 181.226L279.979 181.223L279.968 181.221L279.959 181.219H279.957L279.946 181.217L279.935 181.215L279.924 181.212L279.913 181.21L279.902 181.208L279.891 181.206L279.88 181.204L279.869 181.201L279.858 181.199L279.847 181.197L279.823 181.192L279.814 181.189L279.803 181.187L279.781 181.183L279.77 181.181L279.759 181.178H279.756L279.748 181.176L279.737 181.174L279.726 181.172L279.715 181.17L279.704 181.167L279.693 181.165L279.688 181.164L279.682 181.162L279.671 181.16L279.66 181.157L279.649 181.155L279.638 181.153L279.627 181.151L279.621 181.15L279.616 181.149L279.605 181.146L279.594 181.144L279.583 181.142L279.571 181.14L279.56 181.138L279.554 181.137L279.549 181.135L279.538 181.133L279.527 181.131L279.516 181.129L279.505 181.127L279.494 181.124L279.487 181.122H279.483L279.497 181.105Z" fill="#B02321"/>
<path fill-rule="evenodd" clip-rule="evenodd" d="M331.714 161.029C331.224 159.012 330.948 156.961 330.865 154.886C330.969 154.694 331.067 154.498 331.159 154.299C330.839 154.413 330.52 154.526 330.202 154.637C330.168 154.725 330.153 154.815 330.157 154.916C330.248 157.195 330.569 159.452 331.14 161.657C331.336 161.451 331.527 161.243 331.714 161.031V161.029Z" fill="#C9DEF2"/>
<path fill-rule="evenodd" clip-rule="evenodd" d="M331.714 161.029C331.527 161.241 331.336 161.45 331.14 161.655C331.225 161.981 331.314 162.305 331.41 162.629C332.063 164.842 332.966 166.967 334.097 168.976C334.385 169.488 334.688 169.99 335.003 170.486C335.225 170.394 335.446 170.302 335.666 170.209C335.334 169.693 335.017 169.166 334.713 168.628C333.578 166.612 332.711 164.54 332.088 162.429C331.95 161.964 331.826 161.496 331.711 161.029H331.714Z" fill="#9DCCF5"/>
<path fill-rule="evenodd" clip-rule="evenodd" d="M336.063 170.813C335.929 170.613 335.797 170.413 335.667 170.211C335.446 170.304 335.225 170.397 335.004 170.487C335.159 170.729 335.316 170.97 335.477 171.208C335.586 171.369 335.696 171.529 335.807 171.687C336.03 171.595 336.253 171.501 336.475 171.406C336.336 171.209 336.199 171.011 336.063 170.81V170.813Z" fill="#B02321"/>
<path fill-rule="evenodd" clip-rule="evenodd" d="M336.475 171.407C336.253 171.501 336.029 171.596 335.807 171.688C336.86 173.192 338.033 174.606 339.3 175.933C339.532 175.834 339.763 175.733 339.994 175.632C338.719 174.313 337.537 172.907 336.475 171.407Z" fill="#B02321"/>
<path fill-rule="evenodd" clip-rule="evenodd" d="M339.994 175.633C339.763 175.735 339.532 175.835 339.3 175.934C339.539 176.185 339.781 176.431 340.026 176.676C340.141 176.789 340.255 176.902 340.372 177.014C340.606 176.913 340.839 176.81 341.073 176.706C340.889 176.53 340.707 176.353 340.527 176.174C340.347 175.995 340.17 175.815 339.994 175.633Z" fill="#B02321"/>
<path fill-rule="evenodd" clip-rule="evenodd" d="M341.071 176.705C340.838 176.81 340.605 176.912 340.37 177.013C340.544 177.183 340.72 177.35 340.896 177.516C341.17 177.774 341.449 178.028 341.729 178.279C344.653 180.887 347.924 183.115 351.327 185.043C351.442 184.846 351.565 184.644 351.696 184.437C348.015 182.353 344.472 179.901 341.382 176.999C341.277 176.901 341.174 176.803 341.07 176.704L341.071 176.705Z" fill="#B02321"/>
<path fill-rule="evenodd" clip-rule="evenodd" d="M295.308 195.837C295.065 195.709 294.83 195.577 294.6 195.44C294.83 195.576 295.065 195.708 295.308 195.837ZM336.635 193.456C336.411 193.583 336.175 193.707 335.926 193.828C334.755 194.395 333.304 194.885 331.541 195.287C331.31 195.34 331.074 195.39 330.832 195.44C330.601 195.487 330.365 195.533 330.124 195.578C324.013 196.71 314.677 196.934 301.089 195.966C300.646 195.934 300.199 195.901 299.747 195.867C298.313 195.759 296.834 195.638 295.307 195.502C295.072 195.481 294.836 195.461 294.598 195.44C294.354 195.294 294.119 195.145 293.89 194.99V210.714C293.89 214.302 295.582 217.492 298.363 219.711C301.341 222.087 305.193 223.087 308.963 222.85L322.357 222.008C326.245 221.763 330.039 220.213 332.908 217.563C335.575 215.099 337.342 211.745 337.342 208.07V193.01C337.115 193.161 336.879 193.309 336.633 193.456H336.635ZM335.926 193.858C336.169 193.726 336.406 193.592 336.635 193.456C336.406 193.592 336.17 193.726 335.926 193.858ZM295.308 210.714V195.838C296.601 196.519 298.079 197.078 299.693 197.525C299.927 197.59 300.163 197.651 300.402 197.711C300.635 197.769 300.872 197.825 301.111 197.879C309.754 199.836 321.602 198.892 330.124 196.231C330.362 196.156 330.599 196.08 330.832 196.003C331.071 195.924 331.308 195.844 331.541 195.761C333.168 195.19 334.647 194.552 335.926 193.858V208.071C335.926 211.348 334.322 214.33 331.947 216.523C329.318 218.952 325.832 220.37 322.269 220.595L308.875 221.436C305.458 221.651 301.948 220.76 299.248 218.604C296.804 216.654 295.307 213.869 295.307 210.714H295.308ZM300.402 197.711C300.163 197.651 299.927 197.589 299.693 197.525C299.927 197.59 300.163 197.651 300.402 197.711ZM301.111 197.879C300.872 197.825 300.636 197.769 300.402 197.711C300.635 197.769 300.872 197.825 301.111 197.879ZM330.832 196.003C331.071 195.924 331.308 195.844 331.541 195.761C331.308 195.842 331.071 195.923 330.832 196.003Z" fill="#B02321"/>
<path fill-rule="evenodd" clip-rule="evenodd" d="M330.832 196.003C333.058 195.267 335.034 194.41 336.635 193.456C335.218 194.262 333.31 194.931 330.832 195.44C323.854 196.871 312.356 197.035 294.6 195.441C296.228 196.41 298.2 197.16 300.402 197.711C309.335 199.947 322.038 198.913 330.832 196.004V196.003Z" fill="#B02321"/>
<path fill-rule="evenodd" clip-rule="evenodd" d="M301.111 208.913V197.879C300.872 197.825 300.636 197.769 300.402 197.711C300.163 197.652 299.927 197.589 299.693 197.525V208.914C299.693 211.717 300.877 214.307 302.98 216.146C305.139 218.034 307.972 218.885 310.817 218.688L320.514 218.02C323.449 217.817 326.226 216.523 328.29 214.433C330.3 212.398 331.54 209.695 331.54 206.817V195.762C331.306 195.844 331.07 195.924 330.831 196.004C330.598 196.081 330.361 196.157 330.122 196.232V206.817C330.122 209.321 329.028 211.669 327.281 213.438C325.459 215.282 323.005 216.429 320.415 216.607L310.718 217.275C308.249 217.445 305.786 216.719 303.912 215.08C302.116 213.509 301.108 211.307 301.108 208.914L301.111 208.913Z" fill="#B02321"/>
<path fill-rule="evenodd" clip-rule="evenodd" d="M295.308 195.837V210.713C295.308 213.868 296.805 216.653 299.249 218.603C301.949 220.759 305.459 221.65 308.876 221.435L322.27 220.594C325.832 220.369 329.318 218.951 331.948 216.522C334.322 214.329 335.927 211.347 335.927 208.07V193.857C334.648 194.552 333.169 195.189 331.542 195.76V206.815C331.542 209.693 330.301 212.397 328.293 214.43C326.228 216.521 323.45 217.815 320.516 218.018L310.819 218.686C307.974 218.881 305.141 218.032 302.982 216.144C300.88 214.304 299.696 211.715 299.696 208.912V197.523C298.081 197.077 296.603 196.517 295.31 195.836L295.308 195.837Z" fill="#FF808F"/>
<path fill-rule="evenodd" clip-rule="evenodd" d="M301.111 197.879V208.913C301.111 211.306 302.119 213.508 303.914 215.078C305.789 216.719 308.252 217.444 310.72 217.274L320.417 216.606C323.007 216.428 325.461 215.282 327.283 213.437C329.03 211.668 330.125 209.32 330.125 206.816V196.231C321.602 198.892 309.755 199.836 301.112 197.879H301.111ZM311.6 207.52C311.6 205.551 313.205 203.948 315.171 203.948C317.14 203.948 318.743 205.551 318.743 207.52C318.743 209.486 317.14 211.091 315.171 211.091C313.205 211.091 311.6 209.486 311.6 207.52Z" fill="#FF808F"/>
<path fill-rule="evenodd" clip-rule="evenodd" d="M299.694 199.075V197.524C298.08 197.078 296.602 196.518 295.309 195.837V197.193C296.732 197.948 298.197 198.57 299.694 199.074V199.075Z" fill="#B02321"/>
<path fill-rule="evenodd" clip-rule="evenodd" d="M301.111 197.879V199.516C310.559 202.204 321.12 200.474 330.124 197.754V196.232C321.601 198.893 309.754 199.837 301.111 197.88V197.879Z" fill="#B02321"/>
<path fill-rule="evenodd" clip-rule="evenodd" d="M331.541 195.762V197.314C333.057 196.83 334.524 196.322 335.926 195.808V193.859C334.647 194.553 333.168 195.19 331.541 195.761V195.762Z" fill="#B02321"/>
<path fill-rule="evenodd" clip-rule="evenodd" d="M295.308 195.504C296.835 195.638 298.315 195.759 299.748 195.868C298.315 195.759 296.836 195.638 295.308 195.504ZM301.089 195.966C300.646 195.934 300.198 195.901 299.747 195.868C300.198 195.902 300.646 195.934 301.089 195.966ZM330.124 195.578C324.013 196.71 314.677 196.934 301.089 195.966C314.676 196.934 324.012 196.71 330.124 195.578ZM330.832 195.44C330.601 195.487 330.365 195.533 330.124 195.578C330.365 195.533 330.601 195.488 330.832 195.44ZM336.635 193.456C336.411 193.583 336.175 193.707 335.926 193.828C336.175 193.707 336.41 193.583 336.635 193.456ZM293.891 210.715V194.991C294.119 195.146 294.355 195.296 294.6 195.441C294.83 195.577 295.065 195.709 295.308 195.837C296.601 196.518 298.079 197.077 299.693 197.524C299.927 197.589 300.163 197.651 300.402 197.71C300.635 197.768 300.872 197.824 301.111 197.878C309.754 199.835 321.602 198.891 330.124 196.23C330.362 196.155 330.599 196.079 330.832 196.002C331.071 195.923 331.308 195.843 331.541 195.76C333.168 195.189 334.647 194.551 335.926 193.857C336.169 193.725 336.406 193.591 336.635 193.455C336.88 193.308 337.117 193.16 337.343 193.009V208.069C337.343 211.745 335.576 215.098 332.909 217.563C330.04 220.212 326.246 221.763 322.358 222.007L308.964 222.85C305.194 223.087 301.342 222.087 298.364 219.711C295.583 217.491 293.891 214.3 293.891 210.714V210.715ZM283.614 182.01C282.423 181.773 281.236 181.514 280.057 181.237C279.459 183.664 278.786 186.074 278.062 188.468C277.946 188.848 277.83 189.229 277.712 189.61C277.694 189.666 277.676 189.722 277.655 189.777C277.635 189.83 277.611 189.878 277.582 189.923L277.658 190.558C278.041 191.201 278.226 191.622 278.255 191.692C278.358 191.932 278.246 192.211 278.005 192.315L277.871 192.342L277.912 192.684C279.555 192.431 280.904 192.864 281.026 195.092C281.085 195.123 281.134 195.149 281.174 195.171C281.242 195.21 281.28 195.234 281.291 195.242C281.492 195.373 281.561 195.629 281.462 195.84C282.429 196.359 284.579 197.937 283.03 201.181C283.153 201.446 283.195 201.61 283.2 201.627C283.261 201.881 283.107 202.134 282.858 202.199C283.018 202.937 283.181 204.4 282.277 205.366C282.306 208.533 281.402 217.329 270.516 217.885C268.9 223.248 267.702 228.552 267.734 232.416H362.426C361.532 228.925 359.393 220.879 357.44 213.566C349.615 212.279 348.578 206.011 348.527 203.122C347.025 202.442 346.916 200.666 346.955 199.813C346.699 199.79 346.506 199.566 346.524 199.309C346.525 199.292 346.538 199.124 346.616 198.843C344.548 195.901 346.404 193.987 347.273 193.316C347.141 193.123 347.165 192.859 347.343 192.696C347.351 192.689 347.381 192.662 347.433 192.621C347.47 192.591 347.519 192.552 347.579 192.507C347.263 189.714 349.34 189.405 351.602 189.706C352.003 189.758 352.41 189.831 352.81 189.912C352.941 189.939 353.071 189.966 353.2 189.994C353.185 189.745 353.169 189.497 353.153 189.246C353.088 188.251 353.015 187.24 352.933 186.213C352.889 185.66 352.841 185.105 352.792 184.545C351.165 186.961 350.682 188.875 350.672 188.913C350.621 189.131 350.424 189.279 350.209 189.279L350.098 189.264C349.842 189.204 349.685 188.946 349.746 188.69C349.78 188.549 350.159 187.051 351.326 185.046C347.924 183.117 344.652 180.889 341.728 178.281C341.448 178.03 341.169 177.776 340.895 177.519C340.718 177.352 340.543 177.185 340.369 177.016C322.645 184.725 302.47 185.787 283.613 182.011L283.614 182.01Z" fill="#FF808F"/>
<path fill-rule="evenodd" clip-rule="evenodd" d="M240.679 63.299C239.561 72.2948 240.213 81.5746 242.123 90.6794C238.394 91.6731 235.054 93.8035 232.559 96.8054C229.526 100.457 227.996 105.106 228.269 109.845C228.555 114.817 230.787 119.433 234.505 122.747C238.212 126.05 243.079 127.745 248.037 127.458C249.194 127.392 250.338 127.22 251.457 126.943C253.622 138.003 260.25 146.862 270.032 152.21C259.684 157.817 249.058 166.15 244.211 176.66C241.548 182.436 240.815 188.608 242.507 194.787C244.57 202.32 249.839 208.616 255.653 213.622C255.881 213.818 256.108 213.948 256.392 214.043C258.232 214.667 260.399 214.508 262.059 213.476C262.676 213.535 263.319 213.52 263.927 213.436C265.181 214.163 266.579 214.754 267.99 215.21C267.159 217.836 266.403 220.497 265.789 223.177C265.111 226.136 264.531 229.373 264.552 232.416H266.783C266.743 227.446 268.618 220.326 270.837 213.667C268.681 213.2 266.228 212.326 264.346 211.072C262.858 211.521 261.475 211.107 261.475 211.107C259.772 212.836 257.107 211.932 257.107 211.932C230.12 188.7 248.775 165.56 272.936 153.198C273.643 152.837 274.352 152.485 275.066 152.143C260.032 145.967 254.483 133.729 253.241 124.021C251.587 124.702 249.794 125.123 247.908 125.232C238.814 125.756 231.02 118.81 230.495 109.718C229.995 101.045 236.291 93.5537 244.761 92.4236C242.256 81.6835 241.767 71.968 242.888 63.299C246.54 35.0305 267.29 17.897 290.968 12.7152C293.495 10.1138 296.505 8.40049 299.715 7.48714C302.92 6.5749 306.325 6.46486 309.642 7.07229C312.947 7.67531 316.173 8.99141 319.026 10.927C319.758 11.4244 320.466 11.9625 321.145 12.5391C344.528 17.4305 364.985 34.3361 368.824 64.0472C369.66 70.5133 369.709 77.5856 368.829 85.272C370.981 85.3094 373.043 85.765 374.932 86.5639V84.1639C373.76 83.7369 372.535 83.4244 371.268 83.2384C371.815 77.294 371.842 71.3221 371.216 65.4646C370.004 54.1138 366.347 43.19 359.3 33.7144C350.223 21.5097 336.923 13.7232 322.196 10.5111C321.579 10.006 320.939 9.52841 320.278 9.08054C317.205 6.99636 313.696 5.54602 310.042 4.87807C306.414 4.21452 302.659 4.33006 299.105 5.34244C295.577 6.34712 292.416 8.1793 289.801 10.7301C273.975 14.3581 259.594 23.157 250.428 36.7504C244.897 44.9518 241.837 53.9741 240.678 63.3012L240.679 63.299ZM369.475 118.221C367.589 118.329 365.758 118.117 364.037 117.631C363.918 127.605 359.655 140.705 344.758 148.524C356.282 151.848 367.612 157.564 374.934 165.235V162.083C368.121 155.646 358.936 150.954 350.126 147.892C359.483 141.467 365.251 131.804 366.147 120.329C367.292 120.474 368.449 120.514 369.603 120.448C371.446 120.341 373.238 119.968 374.934 119.351V116.954C373.246 117.666 371.408 118.108 369.475 118.219V118.221ZM366.687 205.487C363.931 208.079 359.423 209.889 357.145 210.112C356.927 210.132 356.72 210.139 356.524 210.131C358.3 216.776 360.457 224.866 361.739 229.767C362.012 230.808 362.244 231.705 362.426 232.414H364.662C364.659 232.232 364.635 232.047 364.587 231.86C362.974 225.56 361.273 219.271 359.595 212.988C359.504 212.646 359.413 212.302 359.321 211.96C362.143 211.205 365.337 209.511 367.489 207.746C368.104 207.727 368.741 207.636 369.339 207.475C371.116 208.206 373.236 208.022 374.934 207.139V203.927C374.62 204.327 374.299 204.726 373.965 205.128C373.965 205.128 371.488 206.466 369.521 205.041C369.521 205.041 368.229 205.678 366.687 205.484V205.487Z" fill="#4B4669"/>
<path fill-rule="evenodd" clip-rule="evenodd" d="M369.604 120.448C368.449 120.514 367.292 120.474 366.147 120.329C365.251 131.804 359.483 141.467 350.127 147.892C358.936 150.956 368.121 155.646 374.934 162.083V156.166C370.106 152.26 364.514 149.051 358.769 146.504C364.653 140.637 368.569 133.251 370.058 124.89C371.74 124.779 373.372 124.487 374.934 124.035V119.352C373.238 119.969 371.444 120.342 369.604 120.449V120.448ZM367.49 207.748C365.338 209.513 362.144 211.208 359.323 211.962C359.414 212.305 359.505 212.647 359.597 212.99C361.275 219.274 362.975 225.561 364.588 231.862C364.635 232.049 364.661 232.234 364.663 232.416H365.073C366.494 232.416 367.847 232.111 369.071 231.564C369.034 231.296 368.981 231.026 368.911 230.755C367.539 225.4 366.105 220.052 364.676 214.709C366.272 213.96 367.81 213.058 369.158 212.09C371.047 212.543 373.058 212.475 374.935 211.926V207.143C373.237 208.024 371.118 208.208 369.341 207.478C368.742 207.64 368.105 207.731 367.49 207.749V207.748ZM236.186 63.299C235.248 71.3595 235.632 79.628 237.036 87.8184C228.733 91.7699 223.261 100.491 223.816 110.103C224.545 122.762 235.457 132.546 248.098 131.924C250.518 139.981 255.201 146.841 261.659 151.991C252.701 157.798 244.456 165.476 240.16 174.794C232.639 191.107 239.881 205.932 252.743 217.005C253.425 217.592 254.106 217.981 254.959 218.27C257.374 219.09 260.051 219.072 262.426 218.222C261.106 222.95 260.065 227.98 260.092 232.417H264.554C264.532 229.374 265.112 226.137 265.791 223.178C266.405 220.498 267.161 217.839 267.992 215.211C266.58 214.756 265.183 214.164 263.929 213.437C263.32 213.521 262.677 213.536 262.061 213.477C260.402 214.509 258.234 214.668 256.394 214.044C256.11 213.949 255.882 213.819 255.656 213.623C249.84 208.617 244.572 202.321 242.509 194.788C240.817 188.61 241.552 182.437 244.214 176.661C249.06 166.15 259.686 157.817 270.034 152.211C260.252 146.863 253.624 138.004 251.46 126.945C250.341 127.221 249.196 127.392 248.04 127.46C243.082 127.746 238.214 126.051 234.507 122.748C230.789 119.435 228.557 114.819 228.271 109.846C227.998 105.107 229.528 100.457 232.562 96.8065C235.056 93.8057 238.396 91.6753 242.125 90.6805C240.215 81.5757 239.565 72.296 240.681 63.3001C241.84 53.9719 244.901 44.9507 250.431 36.7493C259.597 23.157 273.978 14.357 289.804 10.729C292.42 8.17823 295.58 6.34604 299.108 5.34137C302.662 4.32899 306.418 4.21344 310.046 4.87699C313.7 5.54494 317.209 6.99529 320.282 9.07947C320.942 9.52734 321.582 10.0049 322.2 10.51C336.926 13.721 350.228 21.5086 359.304 33.7133C366.351 43.1878 370.007 54.1127 371.219 65.4635C371.844 71.321 371.819 77.2929 371.272 83.2374C372.538 83.4233 373.763 83.7358 374.935 84.1628V73.162V59.814C373.161 49.5493 369.346 39.7392 362.883 31.0514C353.371 18.2602 339.542 9.9565 324.166 6.38126C323.715 6.03793 323.255 5.7067 322.785 5.38868C319.2 2.95567 315.11 1.26764 310.847 0.488548C306.544 -0.298247 302.098 -0.14859 297.884 1.05086C294.058 2.14027 290.582 4.04618 287.629 6.65966C271.162 10.7037 256.304 20.055 246.729 34.2547C240.684 43.2209 237.374 53.0949 236.185 63.3001L236.186 63.299Z" fill="white"/>
<path fill-rule="evenodd" clip-rule="evenodd" d="M223.816 110.102C223.262 100.49 228.734 91.7699 237.036 87.8172C235.632 79.6269 235.248 71.3595 236.186 63.2979H227.211C226.527 69.8937 226.624 76.6062 227.386 83.3166C225.516 84.7548 223.798 86.4065 222.266 88.2486C217.069 94.5033 214.439 102.495 214.908 110.614C215.399 119.131 219.235 127.066 225.603 132.739C230.178 136.816 235.798 139.467 241.759 140.449C243.435 144.221 245.557 147.73 248.084 150.928C241.367 156.575 235.633 163.3 232.058 171.057C228.084 179.676 227.079 189.122 229.6 198.324C232.395 208.528 239.013 216.957 246.923 223.767C248.372 225.013 249.818 225.877 251.566 226.532C251.306 228.528 251.162 230.501 251.169 232.416H260.094C260.067 227.979 261.107 222.95 262.428 218.22C260.052 219.071 257.376 219.089 254.96 218.269C254.107 217.98 253.426 217.591 252.744 217.003C239.883 205.931 232.64 191.106 240.161 174.793C244.457 165.474 252.701 157.798 261.661 151.99C255.202 146.84 250.519 139.98 248.099 131.923C235.458 132.545 224.546 122.76 223.817 110.102H223.816ZM374.935 211.925C373.057 212.474 371.047 212.542 369.158 212.089C367.809 213.058 366.271 213.959 364.676 214.708C366.107 220.052 367.54 225.398 368.912 230.754C368.981 231.025 369.034 231.294 369.071 231.563C372.519 230.021 374.936 226.555 374.936 222.552V211.925H374.935ZM370.059 124.889C368.57 133.25 364.654 140.636 358.77 146.503C364.517 149.05 370.108 152.258 374.935 156.165V145.138C374.101 144.589 373.256 144.056 372.4 143.538C373.33 142.015 374.176 140.44 374.935 138.82V124.033C373.374 124.485 371.742 124.777 370.059 124.888V124.889Z" fill="#6F4F70"/>
<path fill-rule="evenodd" clip-rule="evenodd" d="M236.413 149.589C231.303 154.822 226.987 160.737 223.952 167.321C219.1 177.845 217.915 189.454 220.991 200.681C224.267 212.643 231.812 222.534 241.1 230.53C241.482 230.86 241.867 231.172 242.252 231.469C242.246 231.785 242.244 232.101 242.245 232.416H251.168C251.159 230.501 251.305 228.528 251.564 226.532C249.817 225.878 248.37 225.014 246.922 223.767C239.012 216.957 232.392 208.528 229.598 198.324C227.078 189.122 228.083 179.677 232.057 171.057C235.632 163.301 241.366 156.575 248.083 150.928C245.556 147.73 243.433 144.221 241.758 140.449C235.797 139.468 230.177 136.816 225.602 132.739C219.234 127.066 215.398 119.131 214.907 110.614C214.439 102.495 217.068 94.5022 222.265 88.2486C223.797 86.4065 225.515 84.7548 227.384 83.3166C226.623 76.6073 226.526 69.8948 227.209 63.2979H218.243C217.739 68.6877 217.702 74.1435 218.086 79.6148C217.148 80.5435 216.253 81.5207 215.402 82.5452C208.762 90.5353 205.399 100.755 205.997 111.128C206.624 122.007 211.53 132.154 219.664 139.402C224.297 143.53 229.77 146.515 235.634 148.2C235.887 148.667 236.147 149.129 236.412 149.588L236.413 149.589ZM374.935 138.822C374.176 140.443 373.329 142.017 372.4 143.54C373.256 144.057 374.102 144.591 374.935 145.14V138.822Z" fill="#725673"/>
<path fill-rule="evenodd" clip-rule="evenodd" d="M21.1034 134.117V83.7436C21.1034 81.3183 23.0841 79.3386 25.5094 79.3386H160.633C161.098 79.3386 161.477 79.7183 161.477 80.1826C161.477 80.647 161.098 81.0267 160.633 81.0267H25.5094C24.0161 81.0267 22.7925 82.2514 22.7925 83.7436V134.117C22.7925 134.582 22.4129 134.961 21.9485 134.961C21.4841 134.961 21.1045 134.582 21.1045 134.117H21.1034ZM176.114 79.3375H185.331C185.795 79.3375 186.175 79.7172 186.175 80.1815C186.175 80.6459 185.795 81.0256 185.331 81.0256H176.114C175.649 81.0256 175.27 80.6459 175.27 80.1815C175.27 79.7172 175.649 79.3375 176.114 79.3375ZM204.093 216.376H25.5094C23.0852 216.376 21.1034 214.396 21.1034 211.97V203.106C21.1034 202.642 21.483 202.262 21.9474 202.262C22.4118 202.262 22.7914 202.642 22.7914 203.106V211.97C22.7914 213.463 24.0161 214.687 25.5083 214.687H204.092C204.557 214.687 204.936 215.067 204.936 215.531C204.936 215.996 204.557 216.375 204.092 216.375L204.093 216.376Z" fill="white"/>
</g>
<defs>
<clipPath id="clip0_214_14086">
<rect width="380" height="237.48" fill="white"/>
</clipPath>
</defs>
</svg>
