<svg width="380" height="238" viewBox="0 0 380 238" fill="none" xmlns="http://www.w3.org/2000/svg">
<path fill-rule="evenodd" clip-rule="evenodd" d="M14.9268 58.2329H365.072C373.292 58.2329 379.999 64.941 379.999 73.16V222.551C379.999 230.771 373.292 237.478 365.072 237.478H14.9268C6.7069 237.478 0 230.771 0 222.551V73.16C0 64.9399 6.7069 58.2329 14.9268 58.2329Z" fill="white"/>
<path d="M353.365 63.2981H26.6351C14.7224 63.2981 5.06519 64.3066 5.06519 65.5506V230.162C5.06519 231.406 14.7224 232.415 26.6351 232.415H353.365C365.278 232.415 374.935 231.406 374.935 230.162V65.5506C374.935 64.3066 365.278 63.2981 353.365 63.2981Z" fill="#F35C6F"/>
<path d="M25.8823 171.725V177.516H21.7822V160.502H28.5706C29.8712 160.502 31.0233 160.741 32.0247 161.219C33.026 161.698 33.7996 162.376 34.3498 163.262C34.8956 164.143 35.1718 165.145 35.1718 166.265C35.1718 167.92 34.5776 169.243 33.3892 170.237C32.2008 171.231 30.5733 171.725 28.5001 171.725H25.8834H25.8823ZM25.8823 168.567H28.5706C29.3639 168.567 29.9703 168.368 30.3851 167.973C30.8044 167.574 31.0112 167.015 31.0112 166.289C31.0112 165.496 30.7956 164.862 30.3686 164.386C29.9416 163.908 29.3551 163.669 28.6179 163.66H25.8812V168.566L25.8823 168.567Z" fill="#4B4669"/>
<path d="M44.938 174.334H39.3183L38.3367 177.516H33.9539L40.1953 160.502H44.0478L50.3376 177.516H45.9305L44.938 174.334ZM40.2998 171.176H43.9564L42.1221 165.269L40.2998 171.176Z" fill="#4B4669"/>
<path d="M64.724 160.503V171.642C64.724 172.907 64.4566 173.999 63.9185 174.921C63.3804 175.846 62.6101 176.548 61.6054 177.03C60.6008 177.513 59.4124 177.755 58.0446 177.755C55.9703 177.755 54.3395 177.217 53.1467 176.144C51.9539 175.067 51.3487 173.596 51.3245 171.725V160.502H55.4487V171.804C55.4961 173.667 56.3621 174.596 58.0446 174.596C58.8897 174.596 59.5367 174.36 59.9703 173.894C60.4049 173.427 60.625 172.666 60.625 171.616V160.501H64.7251L64.724 160.503Z" fill="#4B4669"/>
<path d="M67.2769 177.516V160.502H72.7568C74.26 160.502 75.6123 160.841 76.8129 161.523C78.0134 162.205 78.9509 163.166 79.6211 164.411C80.2945 165.655 80.6378 167.047 80.6455 168.59V169.372C80.6455 170.927 80.3143 172.328 79.6563 173.559C78.9982 174.796 78.0728 175.761 76.8767 176.459C75.6806 177.156 74.348 177.507 72.8768 177.516H67.2769ZM71.3802 163.661V174.358H72.8041C73.9805 174.358 74.8861 173.939 75.5166 173.101C76.1471 172.264 76.4618 171.02 76.4618 169.365V168.631C76.4618 166.983 76.1471 165.748 75.5166 164.913C74.8861 164.08 73.965 163.661 72.7568 163.661H71.3813H71.3802Z" fill="#4B4669"/>
<path d="M59.003 186.448H21.1033V193.243H59.003V186.448Z" fill="#4B4669"/>
<path d="M24.6157 170.037V175.828H20.5156V158.814H27.304C28.6046 158.814 29.7567 159.053 30.7581 159.531C31.7594 160.01 32.533 160.688 33.0832 161.574C33.629 162.455 33.9052 163.457 33.9052 164.577C33.9052 166.232 33.311 167.555 32.1226 168.549C30.9342 169.543 29.3067 170.037 27.2335 170.037H24.6168H24.6157ZM24.6157 166.879H27.304C28.0973 166.879 28.7037 166.68 29.1185 166.285C29.5378 165.886 29.7446 165.327 29.7446 164.601C29.7446 163.808 29.5289 163.174 29.102 162.698C28.675 162.22 28.0885 161.981 27.3513 161.972H24.6146V166.878L24.6157 166.879Z" fill="white"/>
<path d="M43.6724 172.646H38.0527L37.0711 175.828H32.6882L38.9297 158.814H42.7821L49.072 175.828H44.6649L43.6724 172.646ZM39.0342 169.488H42.6908L40.8565 163.581L39.0342 169.488Z" fill="white"/>
<path d="M63.4576 158.814V169.953C63.4576 171.218 63.1902 172.31 62.6521 173.231C62.114 174.157 61.3437 174.859 60.3391 175.341C59.3344 175.824 58.146 176.066 56.7782 176.066C54.704 176.066 53.0732 175.528 51.8804 174.455C50.6875 173.378 50.0823 171.906 50.0581 170.036V158.813H54.1824V170.115C54.2297 171.978 55.0957 172.907 56.7782 172.907C57.6233 172.907 58.2703 172.671 58.7039 172.205C59.1385 171.738 59.3586 170.977 59.3586 169.927V158.812H63.4587L63.4576 158.814Z" fill="white"/>
<path d="M66.0105 175.828V158.814H71.4905C72.9936 158.814 74.346 159.153 75.5465 159.835C76.747 160.517 77.6846 161.478 78.3547 162.723C79.0282 163.967 79.3715 165.359 79.3792 166.902V167.684C79.3792 169.239 79.048 170.64 78.3899 171.871C77.7319 173.108 76.8065 174.073 75.6103 174.771C74.4142 175.468 73.0816 175.819 71.6104 175.828H66.0105ZM70.1139 161.973V172.67H71.5378C72.7141 172.67 73.6197 172.251 74.2502 171.413C74.8808 170.576 75.1955 169.332 75.1955 167.677V166.943C75.1955 165.295 74.8808 164.06 74.2502 163.225C73.6197 162.392 72.6987 161.973 71.4905 161.973H70.115H70.1139Z" fill="white"/>
<path d="M57.7367 184.76H19.8369V191.555H57.7367V184.76Z" fill="white"/>
<path fill-rule="evenodd" clip-rule="evenodd" d="M267.26 232.415C267.169 220.574 278.292 195.833 278.292 195.833L276.479 180.724C276.479 180.724 280.326 166.771 275.711 153.143C275.711 153.143 316.697 140.617 343.341 147.097C351.458 161.696 353.291 184.708 353.562 199.072C353.562 199.072 360.599 225.279 362.427 232.415H267.26Z" fill="#BDE0FE"/>
<path fill-rule="evenodd" clip-rule="evenodd" d="M369.521 205.043C369.521 205.043 366.771 206.399 364.509 204.552C362.246 202.705 351.685 191.122 351.685 191.122C351.685 191.122 351.33 186.883 351.954 186.611C352.578 186.34 361.079 182.899 363.266 182.977C365.452 183.055 369.853 180.751 372.351 186.961C374.845 193.17 376.787 197.412 375.131 200.143C373.474 202.873 372.158 204.99 369.521 205.043Z" fill="#E8F4FF"/>
<path fill-rule="evenodd" clip-rule="evenodd" d="M343.991 148.305C355.778 151.594 367.45 157.392 374.935 165.235V203.928C374.621 204.327 374.3 204.727 373.966 205.128C373.966 205.128 371.489 206.466 369.522 205.041C369.522 205.041 373.052 203.166 372.701 199.269C372.35 195.372 366.34 187.356 357.955 187.159C349.569 186.96 353.052 196.903 353.052 196.903L347.667 193.044C347.667 193.044 332.265 165.658 343.992 148.304L343.991 148.305Z" fill="#BDE0FE"/>
<path fill-rule="evenodd" clip-rule="evenodd" d="M261.476 211.106C261.476 211.106 264.417 211.985 266.338 209.788C268.263 207.59 276.751 194.412 276.751 194.412C276.751 194.412 276.395 190.173 275.734 190.009C275.075 189.844 266.119 187.867 263.975 188.307C261.834 188.745 257.108 187.208 255.68 193.745C254.251 200.284 253.043 204.788 255.132 207.206C257.218 209.625 258.866 211.491 261.475 211.107L261.476 211.106Z" fill="#E8F4FF"/>
<path fill-rule="evenodd" clip-rule="evenodd" d="M275.736 151.824C250.272 163.787 229.087 187.808 257.109 211.93C257.109 211.93 259.773 212.835 261.477 211.106C261.477 211.106 257.685 209.842 257.383 205.941C257.082 202.039 261.675 193.136 269.912 191.546C278.148 189.957 276.368 200.339 276.368 200.339L281.036 195.638C281.036 195.638 290.186 166.987 275.737 151.824H275.736Z" fill="#BDE0FE"/>
<path fill-rule="evenodd" clip-rule="evenodd" d="M267.734 232.414C267.703 228.551 268.901 223.248 270.517 217.884C283.809 217.205 282.22 204.24 282.22 204.24L280.352 203.36C278.984 202.96 277.127 203.06 275.084 203.51C273.908 206.476 272.563 210.049 271.323 213.766C271.163 213.735 271.003 213.702 270.839 213.667C268.62 220.324 266.745 227.446 266.785 232.416H267.736L267.734 232.414Z" fill="#B02321"/>
<path fill-rule="evenodd" clip-rule="evenodd" d="M354.678 203.236C355.398 205.923 356.393 209.639 357.441 213.565C347.196 211.88 348.588 201.657 348.588 201.657C350.17 201.607 352.383 202.239 354.676 203.236H354.678Z" fill="#B02321"/>
<path fill-rule="evenodd" clip-rule="evenodd" d="M315.171 211.09C317.14 211.09 318.743 209.486 318.743 207.519C318.743 205.551 317.14 203.947 315.171 203.947C313.205 203.947 311.599 205.551 311.599 207.519C311.599 209.486 313.205 211.09 315.171 211.09Z" fill="#B02321"/>
<path fill-rule="evenodd" clip-rule="evenodd" d="M315.171 209.428C316.224 209.428 317.082 208.569 317.082 207.519C317.082 206.466 316.224 205.611 315.171 205.611C314.12 205.611 313.263 206.467 313.263 207.519C313.263 208.569 314.12 209.428 315.171 209.428Z" fill="#F470A0"/>
<path fill-rule="evenodd" clip-rule="evenodd" d="M315.171 208.151C315.519 208.151 315.803 207.867 315.803 207.52C315.803 207.173 315.519 206.889 315.171 206.889C314.826 206.889 314.54 207.173 314.54 207.52C314.54 207.867 314.826 208.151 315.171 208.151Z" fill="#EBCAA7"/>
<path fill-rule="evenodd" clip-rule="evenodd" d="M273.481 194.211C276.286 193.042 281.178 190.694 281.034 195.639C281.034 195.639 285.346 197.206 282.737 201.738C282.737 201.738 284 205.392 280.815 206.161C280.815 206.161 281.281 209.897 277.903 210.722C277.903 210.722 277.759 213.82 274.524 214.047C271.29 214.272 263.096 212.096 261.53 207.892C259.963 203.69 266.695 193.967 273.481 194.212V194.211Z" fill="#FCD1C8"/>
<path d="M281.033 196.113L280.777 196.039C280.755 196.026 278.593 194.686 273.481 194.686C273.219 194.686 273.006 194.474 273.006 194.212C273.006 193.95 273.219 193.737 273.481 193.737C278.915 193.737 281.2 195.179 281.293 195.242C281.512 195.385 281.574 195.677 281.432 195.897C281.342 196.037 281.189 196.115 281.032 196.115L281.033 196.113ZM282.738 202.214C282.526 202.214 282.331 202.069 282.277 201.853C282.273 201.835 282.05 201.041 281.011 200.051C280.82 199.869 280.813 199.568 280.992 199.378C281.176 199.189 281.476 199.179 281.664 199.361C282.935 200.569 283.189 201.582 283.2 201.626C283.262 201.883 283.105 202.138 282.85 202.2L282.737 202.214H282.738ZM280.783 206.639C280.559 206.639 279.895 206.577 278.937 205.955C278.716 205.813 278.655 205.52 278.798 205.301C278.941 205.077 279.235 205.016 279.452 205.16C280.288 205.701 280.792 205.679 280.785 205.688C281.103 205.685 281.268 205.875 281.284 206.131C281.299 206.388 281.117 206.612 280.859 206.635L280.783 206.639ZM276.451 211.409C276.222 211.409 275.975 211.395 275.722 211.357C275.461 211.32 275.281 211.08 275.318 210.82C275.356 210.558 275.602 210.373 275.855 210.416C276.891 210.563 277.74 210.277 277.749 210.272C277.997 210.184 278.27 210.32 278.352 210.566C278.438 210.816 278.306 211.086 278.057 211.171C278.022 211.182 277.354 211.408 276.449 211.408L276.451 211.409Z" fill="#F8A8A0"/>
<path d="M276.479 181.2C276.333 181.2 276.187 181.131 276.094 181.002L274.47 178.749C274.316 178.536 274.364 178.238 274.579 178.086C274.789 177.928 275.087 177.975 275.242 178.192L276.866 180.446C277.021 180.657 276.972 180.954 276.759 181.109C276.673 181.17 276.578 181.199 276.48 181.199L276.479 181.2ZM277.818 192.353C277.634 192.353 277.459 192.244 277.382 192.064C277.35 191.991 274.151 184.773 264.353 182.284C264.099 182.219 263.946 181.96 264.01 181.706C264.076 181.449 264.329 181.301 264.587 181.361C274.862 183.973 278.123 191.378 278.256 191.692C278.359 191.932 278.246 192.211 278.005 192.315L277.818 192.354V192.353Z" fill="#B02321"/>
<path fill-rule="evenodd" clip-rule="evenodd" d="M354.878 190.379C351.917 189.693 346.702 188.193 347.666 193.044C347.666 193.044 343.673 195.306 347.001 199.342C347.001 199.342 346.362 203.154 349.632 203.383C349.632 203.383 349.793 207.144 353.261 207.396C353.261 207.396 353.918 210.426 357.146 210.11C360.376 209.795 368.09 206.288 368.935 201.883C369.779 197.478 361.529 189.007 354.878 190.379Z" fill="#FCD1C8"/>
<path d="M347.668 193.519C347.538 193.519 347.41 193.466 347.315 193.363C347.14 193.169 347.152 192.872 347.345 192.694C347.429 192.618 349.44 190.814 354.799 189.912C355.057 189.872 355.303 190.04 355.348 190.301C355.391 190.559 355.217 190.804 354.956 190.849C349.916 191.7 348.007 193.379 347.986 193.394C347.896 193.479 347.783 193.519 347.669 193.519H347.668ZM347.001 199.814L346.963 199.812C346.703 199.792 346.508 199.567 346.526 199.307C346.529 199.263 346.615 198.221 347.66 196.818C347.819 196.609 348.119 196.57 348.327 196.723C348.539 196.879 348.583 197.176 348.423 197.388C347.559 198.545 347.475 199.371 347.475 199.371C347.453 199.624 347.246 199.814 347 199.814H347.001ZM349.632 203.859C349.386 203.859 349.177 203.669 349.157 203.418C349.138 203.16 349.329 202.935 349.584 202.909C349.614 202.904 350.096 202.82 350.807 202.167C351.001 201.991 351.303 202.004 351.48 202.194C351.657 202.388 351.644 202.688 351.451 202.865C350.467 203.771 349.747 203.849 349.667 203.856L349.632 203.858V203.859ZM353.856 207.91C353.464 207.91 353.206 207.869 353.184 207.864C352.926 207.823 352.752 207.578 352.793 207.32C352.835 207.063 353.063 206.889 353.339 206.926C353.346 206.926 354.247 207.064 355.23 206.752C355.479 206.679 355.749 206.81 355.828 207.06C355.908 207.31 355.768 207.577 355.518 207.659C354.889 207.858 354.29 207.908 353.856 207.908V207.91Z" fill="#F8A8A0"/>
<path d="M350.815 170.315L350.604 170.265C350.37 170.149 350.273 169.863 350.389 169.629L351.216 167.953C351.334 167.72 351.616 167.62 351.853 167.738C352.087 167.854 352.185 168.139 352.068 168.374L351.241 170.05C351.159 170.217 350.991 170.315 350.815 170.315ZM350.211 189.275L350.1 189.261C349.844 189.2 349.687 188.943 349.748 188.686C349.829 188.355 351.81 180.512 361.507 176.229C361.749 176.124 362.028 176.232 362.134 176.472C362.241 176.712 362.132 176.994 361.892 177.1C352.621 181.194 350.692 188.834 350.674 188.91C350.623 189.128 350.426 189.275 350.211 189.275Z" fill="#B02321"/>
<path fill-rule="evenodd" clip-rule="evenodd" d="M246.009 92.3039C236.919 92.8277 229.973 100.624 230.497 109.715C231.022 118.808 238.816 125.754 247.91 125.23C257.001 124.706 263.948 116.911 263.422 107.817C262.898 98.7258 255.103 91.7801 246.009 92.3039Z" fill="#FCD1C8"/>
<path fill-rule="evenodd" clip-rule="evenodd" d="M258.258 110.805V110.773L258.249 110.645L258.247 110.624L258.239 110.519L258.236 110.477L258.228 110.391L258.222 110.332L258.215 110.265L258.206 110.187L258.2 110.138L258.189 110.04L258.183 110.015C257.821 107.177 256.376 104.691 254.268 102.91L254.183 102.844C251.913 100.967 248.896 99.8979 245.654 100.084C242.37 100.273 239.468 101.714 237.425 103.883C235.371 106.067 234.187 108.996 234.37 112.149C234.409 112.841 235.001 113.368 235.691 113.327C236.381 113.286 236.909 112.695 236.87 112.004C236.728 109.565 237.65 107.29 239.25 105.59C240.172 104.61 241.324 103.817 242.628 103.291C242.029 103.721 241.478 104.214 240.992 104.761C239.308 106.65 238.344 109.184 238.501 111.912C238.658 114.634 239.91 117.039 241.797 118.723L241.8 118.727L241.798 118.729C243.687 120.411 246.222 121.378 248.949 121.22C251.672 121.064 254.075 119.814 255.762 117.925L255.767 117.92L255.784 117.9C257.448 116.02 258.404 113.509 258.257 110.806L258.258 110.805Z" fill="#F8A8A0"/>
<path fill-rule="evenodd" clip-rule="evenodd" d="M367.576 85.2955C370.183 85.1447 372.682 85.6102 374.935 86.562V116.954C373.247 117.666 371.409 118.108 369.476 118.219C360.383 118.744 352.588 111.798 352.063 102.706C351.54 93.6145 358.485 85.8193 367.576 85.2955Z" fill="#FCD1C8"/>
<path fill-rule="evenodd" clip-rule="evenodd" d="M357.535 105.082L357.533 105.049L357.525 104.921V104.901L357.52 104.793L357.519 104.755L357.518 104.666L357.516 104.609L357.514 104.539V104.314L357.516 104.288C357.55 101.427 358.7 98.7918 360.589 96.7814L360.667 96.7066C362.706 94.5806 365.58 93.1721 368.82 92.985C371.015 92.8574 373.107 93.3053 374.934 94.19V97.0598C374.107 96.5151 373.184 96.0926 372.195 95.8208C372.84 96.1773 373.441 96.6064 373.991 97.0939C374.326 97.3921 374.641 97.7145 374.934 98.0568V110.897C374.889 110.951 374.842 111.004 374.795 111.057L374.793 111.059L374.796 111.061C373.112 112.949 370.706 114.2 367.977 114.356C365.253 114.514 362.723 113.55 360.832 111.866L360.825 111.862L360.807 111.846C358.935 110.169 357.696 107.782 357.533 105.083L357.535 105.082Z" fill="#F8A8A0"/>
<path fill-rule="evenodd" clip-rule="evenodd" d="M278.328 153.334C256.102 146.147 252.015 126.69 253.12 116.459C192.615 -16.671 408.092 -29.0957 363.29 110.108C365.562 120.141 363.739 139.938 342.487 149.634C318.166 160.732 303.766 161.562 278.328 153.333V153.334Z" fill="#FCD1C8"/>
<path fill-rule="evenodd" clip-rule="evenodd" d="M293.309 99.6312C277.319 71.4094 254.263 101.173 265.474 116.37C268.451 120.407 281.322 124.699 289.511 121.657C298.411 118.354 297.64 107.278 293.309 99.6312Z" fill="#F8A8A0"/>
<path fill-rule="evenodd" clip-rule="evenodd" d="M323.783 26.5058C327.036 29.3162 327.692 33.4714 327.777 34.1228C327.792 34.519 328.097 34.8568 328.502 34.9019C328.947 34.9514 329.352 34.6301 329.402 34.1834C330.572 23.7107 325.842 15.5501 319.029 10.9239C316.176 8.98832 312.95 7.67222 309.644 7.0692C306.329 6.46177 302.923 6.57181 299.719 7.48405C292.792 9.45599 286.793 15.1539 284.58 25.4582C282.169 36.6956 276.066 36.3038 276.049 36.3049V36.3072C275.734 36.2994 275.431 36.4733 275.292 36.777C275.102 37.1853 275.278 37.6695 275.684 37.8598C276.814 38.3858 278.014 38.6851 279.146 38.8458C272.17 40.6714 268.4 38.8436 268.045 38.6576C267.884 38.5652 267.693 38.5289 267.496 38.563C267.054 38.64 266.758 39.0659 266.835 39.5082C269.03 51.7459 277.5 58.4078 287.292 60.2444C291.296 60.9927 295.524 60.9311 299.624 60.1091C303.727 59.2871 307.715 57.7025 311.234 55.4147C319.892 49.7817 325.765 39.8835 323.783 26.5058Z" fill="#4C466A"/>
<path fill-rule="evenodd" clip-rule="evenodd" d="M284.73 24.7935C284.678 25.0146 284.628 25.2347 284.578 25.4592C283.298 31.4189 280.981 34.1072 279.085 35.3187C306.611 42.5219 307.716 17.0896 307.716 17.0896C297.572 25.775 289.285 25.8223 284.73 24.7935Z" fill="#675D82"/>
<path fill-rule="evenodd" clip-rule="evenodd" d="M312.898 117.203C312.654 116.951 312.25 116.942 311.996 117.184C311.743 117.426 311.735 117.831 311.977 118.086C311.984 118.092 314.508 120.815 314.023 121.856C313.706 122.536 312.552 123.424 310.765 123.726C309.437 123.95 307.78 123.835 305.876 123.059C305.554 122.927 305.18 123.082 305.047 123.406C303.734 126.619 306.818 124.721 306.829 124.724C308.395 125.151 309.798 125.184 310.979 124.983C313.217 124.605 314.724 123.364 315.176 122.394C316.01 120.609 312.904 117.212 312.896 117.202L312.898 117.203Z" fill="#F68B85"/>
<path fill-rule="evenodd" clip-rule="evenodd" d="M330.971 126.932C328.127 127.627 324.973 129.157 321.764 130.711C320.517 131.317 319.256 131.928 317.967 132.509L317.919 132.534C314.45 134.098 311.963 134.924 309.46 135.068C306.958 135.212 304.393 134.677 300.768 133.523L300.718 133.504C299.369 133.075 298.046 132.612 296.739 132.153C293.374 130.978 290.064 129.821 287.159 129.458C284.525 129.128 285.868 132.557 287.554 131.921C288.325 131.626 289.072 131.082 290.013 131.329C292.01 131.851 294.154 132.601 296.319 133.358C297.67 133.83 299.031 134.306 300.331 134.721L300.384 134.736C304.163 135.94 306.86 136.499 309.534 136.343C312.208 136.19 314.823 135.328 318.44 133.695L318.489 133.675C319.734 133.115 321.032 132.484 322.317 131.86C324.383 130.859 326.426 129.868 328.349 129.12C329.259 128.766 330.059 129.22 330.862 129.422C332.608 129.863 333.549 126.303 330.97 126.932H330.971Z" fill="#F68B85"/>
<path fill-rule="evenodd" clip-rule="evenodd" d="M293.47 102.463C277.68 77.6862 254.433 104.089 265.534 117.415C268.483 120.955 281.319 124.651 289.526 121.912C298.445 118.938 297.749 109.175 293.47 102.463Z" fill="white"/>
<path fill-rule="evenodd" clip-rule="evenodd" d="M293.47 102.463C292.851 101.49 292.218 100.605 291.579 99.7867C289.135 97.9666 286.066 96.962 282.788 97.1501C275.388 97.5782 269.733 103.924 270.16 111.323C270.436 116.118 273.197 120.18 277.12 122.329C281.321 123.073 285.88 123.128 289.525 121.912C290.95 121.437 292.128 120.79 293.085 120.01C294.417 118.667 295.462 117.052 296.133 115.256C297.219 111.238 295.944 106.343 293.47 102.462V102.463Z" fill="#4C466A"/>
<path fill-rule="evenodd" clip-rule="evenodd" d="M275.541 98.0986C272.392 98.2791 269.989 100.977 270.172 104.126C270.352 107.273 273.052 109.677 276.199 109.497C279.347 109.314 281.75 106.617 281.569 103.467C281.388 100.321 278.69 97.9182 275.541 98.0986Z" fill="white"/>
<path fill-rule="evenodd" clip-rule="evenodd" d="M284.892 69.4341C284.232 68.5824 283.194 67.9585 281.751 67.8352L281.733 67.8341L281.689 67.8308H281.67C273.917 67.9475 268.715 72.1983 266.407 75.6128L266.378 75.6491C265.672 76.7022 265.233 77.6925 265.074 78.465C264.876 79.4312 265.093 80.1398 265.73 80.3995C266.191 80.5888 266.86 80.482 267.717 79.9814C271.25 77.9137 276.117 77.1291 279.563 76.5778C281.189 76.317 282.508 76.1036 283.28 75.8241C284.352 75.4312 285.097 74.5916 285.471 73.598C285.722 72.9377 285.807 72.2071 285.722 71.494L285.718 71.4665C285.628 70.7491 285.362 70.0503 284.908 69.4561L284.893 69.4352L284.892 69.4341Z" fill="#4C466A"/>
<path fill-rule="evenodd" clip-rule="evenodd" d="M326.079 29.1874C330.226 60.191 291.218 72.5616 275.186 54.7638C292.416 69.3694 328.233 56.5278 323.781 26.5046C324.821 27.4026 325.553 28.3137 326.079 29.1874Z" fill="#F8A8A0"/>
<path fill-rule="evenodd" clip-rule="evenodd" d="M321.441 98.0071C334.08 68.1358 360.403 95.0503 351.014 111.435C348.521 115.788 336.228 121.531 327.746 119.452C318.523 117.192 318.017 106.102 321.441 98.0071Z" fill="#F8A8A0"/>
<path fill-rule="evenodd" clip-rule="evenodd" d="M321.605 100.841C334.444 74.4147 360.571 97.9709 351.075 112.483C348.554 116.338 336.227 121.484 327.76 119.709C318.557 117.779 318.126 108.001 321.605 100.841Z" fill="white"/>
<path fill-rule="evenodd" clip-rule="evenodd" d="M321.605 100.841C322.108 99.8042 322.636 98.8513 323.178 97.9644C325.395 95.8769 328.329 94.5256 331.607 94.3375C339.007 93.9094 345.352 99.5644 345.779 106.966C346.056 111.76 343.779 116.111 340.129 118.697C336.044 119.921 331.52 120.498 327.76 119.709C326.29 119.401 325.045 118.893 324.005 118.227C322.528 117.046 321.304 115.562 320.429 113.857C318.89 109.992 319.594 104.979 321.604 100.841H321.605Z" fill="#4C466A"/>
<path fill-rule="evenodd" clip-rule="evenodd" d="M338.914 94.4442C342.063 94.2626 344.759 96.667 344.941 99.813C345.123 102.961 342.718 105.659 339.571 105.842C336.424 106.023 333.725 103.618 333.543 100.472C333.362 97.3239 335.765 94.6258 338.914 94.4442Z" fill="white"/>
<path fill-rule="evenodd" clip-rule="evenodd" d="M326.333 67.0439C326.888 66.124 327.849 65.3846 329.267 65.0962L329.285 65.0919L329.328 65.0841H329.33L329.349 65.083C337.063 64.3062 342.717 67.9309 345.402 71.0571L345.434 71.0901C346.259 72.0562 346.809 72.9894 347.056 73.7387C347.366 74.6752 347.23 75.4036 346.627 75.7371C346.191 75.9758 345.514 75.9483 344.606 75.5489C340.858 73.8994 335.932 73.6815 332.446 73.5286C330.801 73.4581 329.465 73.3976 328.669 73.2083C327.557 72.9432 326.721 72.1927 326.236 71.2485C325.911 70.6213 325.744 69.9061 325.746 69.1886V69.1589C325.755 68.437 325.936 67.7119 326.321 67.0682L326.335 67.0461L326.333 67.0439Z" fill="#4C466A"/>
<path fill-rule="evenodd" clip-rule="evenodd" d="M345.912 123.667C342.148 123.885 339.195 125.781 339.318 127.902C339.442 130.026 342.591 131.569 346.355 131.352C350.122 131.134 353.073 129.238 352.953 127.116C352.83 124.994 349.679 123.449 345.912 123.667Z" fill="#F8A8A0"/>
<path fill-rule="evenodd" clip-rule="evenodd" d="M271.94 127.931C268.177 128.149 265.223 130.047 265.346 132.168C265.469 134.29 268.619 135.835 272.384 135.617C276.149 135.4 279.101 133.504 278.979 131.383C278.857 129.259 275.707 127.715 271.939 127.931H271.94Z" fill="#F8A8A0"/>
<path fill-rule="evenodd" clip-rule="evenodd" d="M276.668 152.861C276.628 152.813 276.587 152.765 276.545 152.718C276.042 152.533 275.549 152.34 275.066 152.142C274.352 152.484 273.641 152.836 272.936 153.197C275.175 155.005 276.089 158.002 276.434 161.256C276.969 166.303 276.123 172.31 274.831 177.994C274.758 178.312 274.684 178.63 274.61 178.945C274.086 181.155 273.502 183.304 272.913 185.317C274.83 186.788 276.144 188.331 276.989 189.531C277.004 189.488 277.02 189.444 277.033 189.399C277.148 189.025 277.265 188.645 277.38 188.261C278.128 185.792 278.874 183.13 279.531 180.384C279.997 178.433 280.42 176.439 280.766 174.44C281.532 170.021 281.925 165.583 281.603 161.546C281.581 161.267 281.555 160.99 281.526 160.715C281.259 158.198 280.671 155.83 279.685 153.768C279.235 153.627 278.781 153.481 278.323 153.334C277.811 153.168 277.308 152.996 276.815 152.818C276.763 152.832 276.713 152.847 276.664 152.861H276.668Z" fill="#FF808F"/>
<path fill-rule="evenodd" clip-rule="evenodd" d="M332.089 162.429C332.711 164.541 333.579 166.612 334.714 168.628C335.136 169.376 335.586 170.104 336.063 170.81C337.369 172.745 338.875 174.527 340.525 176.171C340.807 176.451 341.092 176.727 341.381 177C344.471 179.902 348.015 182.353 351.695 184.438C351.976 183.994 352.294 183.532 352.654 183.058C353.304 182.203 354.089 181.312 355.035 180.433C354.055 179.897 353.104 179.345 352.184 178.776C346.821 175.459 342.507 171.576 339.68 166.943C337.848 163.942 336.641 160.625 336.177 156.944C335.995 155.503 335.927 154.006 335.981 152.45C334.333 153.119 332.728 153.735 331.157 154.298C331.065 154.497 330.967 154.693 330.863 154.885C330.965 157.442 331.36 159.963 332.088 162.429H332.089Z" fill="#FF808F"/>
<path fill-rule="evenodd" clip-rule="evenodd" d="M309.022 165.341C313.992 164.88 319.259 163.363 323.476 160.646C325.69 159.22 327.783 157.336 329.067 155.021C314.046 160.037 301.919 160.028 285.253 155.42C289.725 163.704 300.002 166.18 309.022 165.341Z" fill="#F8A8A0"/>
<path fill-rule="evenodd" clip-rule="evenodd" d="M323.476 160.647C319.259 163.363 313.992 164.88 309.022 165.342C300.002 166.181 289.726 163.705 285.253 155.421C283.454 154.924 281.602 154.374 279.688 153.77C280.591 155.658 281.161 157.802 281.455 160.086C287.448 168.904 298.885 171.978 309.546 170.987C315.431 170.44 321.555 168.628 326.545 165.414C328.456 164.183 330.229 162.719 331.712 161.03C331.223 159.013 330.947 156.962 330.864 154.888C330.967 154.695 331.065 154.499 331.158 154.3C330.455 154.552 329.758 154.793 329.067 155.024C327.783 157.34 325.69 159.224 323.476 160.649V160.647Z" fill="#E8F4FF"/>
<path fill-rule="evenodd" clip-rule="evenodd" d="M283.731 180.588C302.416 184.358 322.443 183.322 339.994 175.633C338.719 174.313 337.537 172.907 336.475 171.407C320.022 178.434 301.346 179.364 283.89 175.848C282.804 175.629 281.723 175.393 280.647 175.141C280.368 176.67 280.047 178.194 279.698 179.696C281.035 180.019 282.38 180.317 283.731 180.59V180.588Z" fill="#FF808F"/>
<path fill-rule="evenodd" clip-rule="evenodd" d="M339.994 175.633C322.443 183.322 302.416 184.358 283.731 180.588C282.612 180.362 281.496 180.118 280.387 179.858C280.739 178.346 281.059 176.827 281.338 175.299C282.186 175.493 283.037 175.676 283.89 175.847C301.346 179.363 320.022 178.433 336.475 171.406C336.336 171.209 336.199 171.011 336.063 170.811C335.929 170.611 335.797 170.411 335.667 170.209C319.445 177.065 301.036 177.908 283.864 174.395C283.1 174.238 282.339 174.073 281.58 173.901L281.569 173.898L281.558 173.896L281.547 173.894L281.536 173.892L281.525 173.89L281.514 173.887L281.503 173.885L281.492 173.883L281.488 173.882L281.481 173.88L281.47 173.878L281.459 173.875L281.448 173.873L281.442 173.872L281.438 173.871L281.427 173.869L281.416 173.867L281.405 173.864L281.396 173.862H281.395L281.384 173.86L281.373 173.858L281.362 173.856L281.351 173.853H281.35L281.34 173.851L281.329 173.849L281.318 173.847L281.307 173.844L281.302 173.843L281.296 173.842L281.285 173.84L281.274 173.838L281.263 173.836L281.255 173.833H281.252L281.241 173.831L281.23 173.829L281.219 173.827L281.208 173.825L281.197 173.822L281.186 173.82L281.175 173.818L281.164 173.816H281.16L281.153 173.814L281.142 173.811L281.131 173.809L281.12 173.807L281.114 173.806L281.11 173.805L281.099 173.803L281.088 173.8L281.077 173.798L281.068 173.796H281.067L281.056 173.794L281.045 173.792L281.034 173.789L281.023 173.787H281.022L281.012 173.785L281.001 173.783L280.99 173.781L280.979 173.778L280.974 173.777L280.968 173.776L280.957 173.774L280.946 173.772L280.935 173.77L280.927 173.767L280.924 173.766L280.913 173.764L280.902 173.762L280.891 173.76L280.88 173.758L280.878 173.769L280.875 173.78L280.873 173.791L280.871 173.802L280.869 173.813L280.867 173.824L280.864 173.835L280.862 173.846L280.86 173.857L280.858 173.868L280.856 173.879L280.853 173.89L280.851 173.901L280.849 173.912L280.847 173.923L280.845 173.934L280.842 173.945L280.84 173.956L280.838 173.967L280.836 173.978L280.834 173.989L280.831 174L280.829 174.011L280.827 174.022L280.825 174.033L280.823 174.044L280.82 174.055L280.818 174.066L280.816 174.077L280.814 174.088L280.812 174.099L280.809 174.11L280.807 174.121L280.805 174.132L280.803 174.143L280.801 174.154L280.798 174.165L280.796 174.176L280.794 174.187L280.792 174.198L280.79 174.209L280.787 174.22L280.785 174.231L280.783 174.242L280.781 174.253L280.779 174.264L280.776 174.275L280.774 174.286L280.772 174.297L280.77 174.308L280.768 174.319L280.765 174.33L280.763 174.341L280.761 174.352L280.759 174.363L280.757 174.374L280.754 174.385L280.752 174.396L280.75 174.407L280.748 174.418L280.746 174.429L280.743 174.44L280.741 174.451L280.739 174.462C280.698 174.694 280.657 174.927 280.615 175.161C280.336 176.69 280.015 178.214 279.666 179.716C279.612 179.946 279.558 180.176 279.503 180.406C279.448 180.636 279.392 180.866 279.336 181.094L279.347 181.096L279.358 181.098L279.369 181.101L279.38 181.103L279.391 181.105L279.402 181.107H279.403L279.413 181.109L279.424 181.112L279.435 181.114L279.446 181.116L279.468 181.122H279.471L279.479 181.124L279.49 181.126L279.501 181.128L279.512 181.13L279.523 181.133L279.534 181.135L279.538 181.136L279.545 181.137L279.556 181.139L279.567 181.141L279.578 181.144L279.589 181.146L279.6 181.148L279.606 181.149L279.611 181.15L279.622 181.152L279.633 181.155L279.644 181.157L279.655 181.159L279.666 181.161L279.673 181.163L279.677 181.164L279.688 181.167L279.699 181.169L279.71 181.171L279.721 181.173L279.732 181.175L279.741 181.178H279.743L279.754 181.18L279.765 181.182L279.787 181.186L279.798 181.189L279.808 181.191H279.809L279.831 181.196L279.842 181.199L279.853 181.201L279.864 181.203L279.875 181.205L279.885 181.207L279.896 181.21L279.907 181.212L279.918 181.214L279.929 181.216L279.94 181.218H279.942L279.951 181.221L279.962 181.223L279.973 181.225L279.984 181.227L279.995 181.229L280.006 181.232L280.009 181.233L280.017 181.235L280.028 181.237L280.039 181.239C281.219 181.517 282.405 181.775 283.597 182.013C302.702 185.838 323.162 184.697 341.054 176.708C340.87 176.532 340.688 176.355 340.508 176.175C340.329 175.997 340.151 175.816 339.975 175.635L339.994 175.633Z" fill="#B02321"/>
<path fill-rule="evenodd" clip-rule="evenodd" d="M279.688 153.768C280.592 155.657 281.162 157.801 281.455 160.085C281.723 160.479 282.002 160.862 282.291 161.232C282.273 161.034 282.254 160.837 282.233 160.639C281.996 158.394 281.495 156.132 280.595 154.051C280.293 153.958 279.992 153.863 279.687 153.767L279.688 153.768Z" fill="#C9DEF2"/>
<path fill-rule="evenodd" clip-rule="evenodd" d="M281.53 160.714C281.559 160.99 281.585 161.267 281.607 161.545C281.912 165.369 281.575 169.554 280.889 173.74L280.9 173.742L280.911 173.744L280.922 173.746L280.933 173.749L280.936 173.75L280.944 173.752L280.955 173.754L280.966 173.756L280.977 173.758L280.983 173.76L280.988 173.761L280.999 173.763L281.01 173.765L281.021 173.767L281.031 173.769H281.032L281.043 173.772L281.054 173.774L281.065 173.776L281.076 173.778H281.077L281.086 173.78L281.097 173.783L281.108 173.785L281.119 173.787L281.123 173.788L281.129 173.789L281.14 173.791L281.151 173.794L281.162 173.796L281.169 173.798H281.173L281.184 173.8L281.195 173.802L281.206 173.805L281.217 173.807L281.228 173.809L281.239 173.811L281.25 173.814L281.261 173.816H281.264L281.272 173.818L281.283 173.82L281.294 173.822L281.305 173.825L281.311 173.826L281.316 173.827L281.327 173.829L281.338 173.831L281.349 173.833L281.359 173.836H281.36L281.371 173.838L281.382 173.84L281.393 173.842L281.404 173.844H281.405L281.414 173.847L281.425 173.849L281.436 173.851L281.447 173.853L281.451 173.854L281.456 173.855L281.467 173.858L281.478 173.86L281.489 173.862L281.497 173.864L281.5 173.865L281.511 173.867L281.522 173.87L281.533 173.872L281.545 173.874L281.555 173.876L281.567 173.878L281.577 173.881L281.589 173.883C282.113 170.703 282.466 167.403 282.437 164.153C282.429 163.254 282.392 162.36 282.321 161.471C282.315 161.386 282.307 161.301 282.299 161.215C282.01 160.844 281.732 160.461 281.464 160.067C281.491 160.276 281.516 160.487 281.538 160.698L281.53 160.714Z" fill="#9DCCF5"/>
<path fill-rule="evenodd" clip-rule="evenodd" d="M279.497 181.104L279.475 181.098L279.464 181.096L279.453 181.094L279.442 181.092L279.432 181.09H279.431L279.42 181.087L279.409 181.085L279.398 181.083L279.387 181.081L279.376 181.079L279.365 181.076C278.749 183.58 278.065 186.004 277.382 188.265L277.581 189.926C277.609 189.881 277.634 189.832 277.653 189.779C277.673 189.724 277.693 189.668 277.711 189.612C277.828 189.233 277.945 188.852 278.061 188.47C278.785 186.077 279.458 183.668 280.056 181.239L280.045 181.237L280.034 181.235L280.026 181.233L280.023 181.232L280.012 181.229L280.001 181.227L279.99 181.225L279.979 181.223L279.968 181.221L279.959 181.218H279.957L279.946 181.216L279.934 181.214L279.924 181.212L279.912 181.21L279.901 181.207L279.89 181.205L279.879 181.203L279.868 181.201L279.857 181.199L279.846 181.196L279.823 181.191L279.813 181.189L279.802 181.186L279.78 181.182L279.769 181.18L279.758 181.178H279.756L279.747 181.175L279.736 181.173L279.725 181.171L279.714 181.169L279.703 181.167L279.692 181.164L279.688 181.163L279.681 181.161L279.67 181.159L279.659 181.157L279.648 181.155L279.637 181.152L279.626 181.15L279.621 181.149L279.615 181.148L279.604 181.146L279.593 181.144L279.582 181.141L279.571 181.139L279.56 181.137L279.554 181.136L279.549 181.135L279.538 181.133L279.527 181.13L279.516 181.128L279.505 181.126L279.494 181.124L279.487 181.122H279.483L279.497 181.104Z" fill="#B02321"/>
<path fill-rule="evenodd" clip-rule="evenodd" d="M331.714 161.028C331.224 159.011 330.948 156.96 330.865 154.885C330.969 154.693 331.066 154.497 331.159 154.298C330.839 154.412 330.52 154.526 330.202 154.636C330.167 154.724 330.153 154.814 330.156 154.915C330.248 157.194 330.569 159.451 331.14 161.656C331.336 161.45 331.526 161.242 331.714 161.03V161.028Z" fill="#C9DEF2"/>
<path fill-rule="evenodd" clip-rule="evenodd" d="M331.713 161.028C331.526 161.24 331.336 161.449 331.14 161.654C331.225 161.98 331.314 162.304 331.41 162.628C332.062 164.841 332.966 166.966 334.097 168.975C334.385 169.487 334.688 169.989 335.003 170.485C335.225 170.393 335.446 170.301 335.666 170.208C335.334 169.692 335.017 169.165 334.713 168.627C333.578 166.611 332.71 164.539 332.088 162.428C331.95 161.963 331.826 161.495 331.711 161.028H331.713Z" fill="#9DCCF5"/>
<path fill-rule="evenodd" clip-rule="evenodd" d="M336.063 170.812C335.929 170.612 335.797 170.412 335.667 170.21C335.446 170.303 335.225 170.396 335.004 170.486C335.159 170.728 335.316 170.969 335.477 171.207C335.586 171.368 335.696 171.528 335.807 171.686C336.03 171.594 336.253 171.5 336.475 171.405C336.336 171.208 336.199 171.01 336.063 170.809V170.812Z" fill="#B02321"/>
<path fill-rule="evenodd" clip-rule="evenodd" d="M336.475 171.406C336.253 171.501 336.029 171.595 335.807 171.688C336.86 173.191 338.033 174.605 339.3 175.932C339.532 175.833 339.763 175.733 339.994 175.632C338.719 174.312 337.537 172.906 336.475 171.406Z" fill="#B02321"/>
<path fill-rule="evenodd" clip-rule="evenodd" d="M339.994 175.633C339.763 175.734 339.532 175.834 339.3 175.933C339.538 176.184 339.78 176.43 340.026 176.675C340.14 176.788 340.255 176.901 340.371 177.014C340.606 176.912 340.839 176.809 341.072 176.705C340.889 176.529 340.707 176.352 340.527 176.173C340.347 175.995 340.17 175.814 339.994 175.633Z" fill="#B02321"/>
<path fill-rule="evenodd" clip-rule="evenodd" d="M341.071 176.704C340.838 176.809 340.605 176.911 340.37 177.013C340.544 177.182 340.72 177.349 340.896 177.515C341.17 177.773 341.449 178.027 341.729 178.278C344.653 180.886 347.923 183.114 351.327 185.042C351.441 184.845 351.565 184.643 351.696 184.436C348.015 182.352 344.472 179.9 341.382 176.998C341.277 176.9 341.174 176.802 341.07 176.703L341.071 176.704Z" fill="#B02321"/>
<path fill-rule="evenodd" clip-rule="evenodd" d="M295.308 195.836C295.065 195.709 294.829 195.577 294.599 195.439C294.829 195.575 295.065 195.707 295.308 195.836ZM336.634 193.455C336.411 193.583 336.174 193.706 335.926 193.827C334.755 194.395 333.304 194.884 331.541 195.286C331.31 195.339 331.074 195.389 330.832 195.439C330.601 195.486 330.364 195.532 330.123 195.578C324.013 196.709 314.677 196.933 301.088 195.965C300.646 195.933 300.199 195.9 299.747 195.866C298.313 195.758 296.834 195.637 295.307 195.502C295.071 195.481 294.836 195.46 294.598 195.439C294.354 195.294 294.119 195.144 293.89 194.989V210.714C293.89 214.301 295.582 217.491 298.363 219.71C301.34 222.086 305.193 223.086 308.963 222.85L322.357 222.007C326.245 221.763 330.039 220.212 332.907 217.562C335.575 215.099 337.342 211.745 337.342 208.069V193.009C337.115 193.16 336.879 193.309 336.633 193.455H336.634ZM335.926 193.858C336.169 193.726 336.406 193.591 336.634 193.455C336.406 193.591 336.17 193.726 335.926 193.858ZM295.308 210.714V195.837C296.601 196.518 298.079 197.077 299.693 197.524C299.926 197.589 300.163 197.651 300.402 197.71C300.635 197.768 300.872 197.825 301.11 197.879C309.754 199.835 321.602 198.891 330.123 196.23C330.362 196.155 330.599 196.079 330.832 196.002C331.071 195.923 331.307 195.843 331.541 195.76C333.168 195.189 334.647 194.551 335.926 193.858V208.07C335.926 211.347 334.321 214.329 331.947 216.522C329.318 218.951 325.832 220.369 322.269 220.594L308.875 221.436C305.458 221.65 301.948 220.759 299.247 218.603C296.803 216.653 295.307 213.868 295.307 210.714H295.308ZM300.402 197.71C300.163 197.651 299.926 197.588 299.693 197.524C299.926 197.589 300.163 197.651 300.402 197.71ZM301.11 197.879C300.872 197.825 300.636 197.768 300.402 197.71C300.635 197.768 300.872 197.825 301.11 197.879ZM330.832 196.002C331.071 195.923 331.307 195.843 331.541 195.76C331.307 195.842 331.071 195.922 330.832 196.002Z" fill="#B02321"/>
<path fill-rule="evenodd" clip-rule="evenodd" d="M330.832 196.002C333.058 195.266 335.033 194.409 336.634 193.455C335.218 194.261 333.31 194.93 330.832 195.439C323.853 196.87 312.355 197.034 294.599 195.44C296.228 196.409 298.2 197.159 300.402 197.71C309.335 199.946 322.038 198.912 330.832 196.003V196.002Z" fill="#B02321"/>
<path fill-rule="evenodd" clip-rule="evenodd" d="M301.11 208.912V197.878C300.872 197.824 300.636 197.768 300.402 197.71C300.163 197.651 299.926 197.588 299.693 197.524V208.913C299.693 211.716 300.877 214.306 302.98 216.145C305.139 218.033 307.971 218.884 310.817 218.687L320.514 218.019C323.448 217.816 326.226 216.522 328.29 214.432C330.299 212.397 331.54 209.694 331.54 206.816V195.761C331.306 195.843 331.07 195.923 330.831 196.003C330.598 196.08 330.361 196.156 330.122 196.231V206.816C330.122 209.32 329.027 211.669 327.281 213.437C325.459 215.281 323.005 216.428 320.415 216.606L310.718 217.274C308.249 217.444 305.786 216.718 303.912 215.079C302.116 213.508 301.108 211.306 301.108 208.913L301.11 208.912Z" fill="#B02321"/>
<path fill-rule="evenodd" clip-rule="evenodd" d="M295.308 195.836V210.712C295.308 213.867 296.805 216.652 299.249 218.602C301.949 220.758 305.459 221.649 308.876 221.435L322.27 220.593C325.832 220.368 329.318 218.95 331.948 216.521C334.321 214.328 335.927 211.346 335.927 208.069V193.856C334.648 194.551 333.169 195.188 331.542 195.759V206.814C331.542 209.692 330.301 212.396 328.292 214.429C326.228 216.52 323.45 217.814 320.516 218.017L310.819 218.685C307.974 218.88 305.141 218.031 302.982 216.143C300.879 214.303 299.695 211.714 299.695 208.911V197.522C298.081 197.076 296.603 196.516 295.31 195.835L295.308 195.836Z" fill="#FF808F"/>
<path fill-rule="evenodd" clip-rule="evenodd" d="M301.111 197.879V208.912C301.111 211.306 302.119 213.508 303.914 215.078C305.789 216.718 308.252 217.444 310.72 217.273L320.417 216.605C323.007 216.427 325.461 215.281 327.283 213.436C329.03 211.668 330.125 209.319 330.125 206.815V196.23C321.602 198.891 309.755 199.835 301.112 197.879H301.111ZM311.6 207.519C311.6 205.551 313.205 203.947 315.171 203.947C317.14 203.947 318.743 205.551 318.743 207.519C318.743 209.486 317.14 211.09 315.171 211.09C313.205 211.09 311.6 209.486 311.6 207.519Z" fill="#FF808F"/>
<path fill-rule="evenodd" clip-rule="evenodd" d="M299.694 199.075V197.523C298.08 197.077 296.602 196.517 295.309 195.836V197.192C296.732 197.947 298.197 198.57 299.694 199.074V199.075Z" fill="#B02321"/>
<path fill-rule="evenodd" clip-rule="evenodd" d="M301.111 197.878V199.515C310.559 202.203 321.12 200.473 330.124 197.753V196.231C321.601 198.892 309.754 199.836 301.111 197.88V197.878Z" fill="#B02321"/>
<path fill-rule="evenodd" clip-rule="evenodd" d="M331.541 195.761V197.313C333.057 196.829 334.524 196.321 335.926 195.808V193.858C334.647 194.552 333.168 195.189 331.541 195.76V195.761Z" fill="#B02321"/>
<path fill-rule="evenodd" clip-rule="evenodd" d="M295.308 195.503C296.834 195.637 298.314 195.758 299.748 195.867C298.314 195.758 296.835 195.637 295.308 195.503ZM301.088 195.965C300.646 195.933 300.198 195.9 299.747 195.867C300.198 195.901 300.646 195.933 301.088 195.965ZM330.123 195.577C324.013 196.709 314.677 196.933 301.088 195.965C314.676 196.933 324.012 196.709 330.123 195.577ZM330.832 195.439C330.601 195.486 330.364 195.532 330.123 195.577C330.364 195.532 330.601 195.487 330.832 195.439ZM336.634 193.455C336.411 193.582 336.174 193.706 335.926 193.827C336.174 193.706 336.41 193.582 336.634 193.455ZM293.891 210.714V194.99C294.119 195.145 294.355 195.295 294.599 195.44C294.829 195.576 295.065 195.708 295.308 195.836C296.601 196.517 298.079 197.076 299.693 197.523C299.926 197.588 300.163 197.65 300.402 197.709C300.635 197.767 300.872 197.823 301.11 197.877C309.754 199.834 321.602 198.89 330.123 196.229C330.362 196.154 330.599 196.078 330.832 196.001C331.071 195.922 331.307 195.842 331.541 195.759C333.168 195.188 334.647 194.55 335.926 193.856C336.169 193.724 336.406 193.59 336.634 193.454C336.88 193.307 337.116 193.159 337.343 193.008V208.068C337.343 211.744 335.576 215.097 332.908 217.562C330.04 220.211 326.246 221.762 322.358 222.006L308.964 222.849C305.194 223.086 301.341 222.086 298.364 219.71C295.583 217.49 293.891 214.299 293.891 210.713V210.714ZM283.614 182.009C282.422 181.772 281.236 181.513 280.057 181.236C279.459 183.663 278.786 186.073 278.062 188.467C277.946 188.847 277.829 189.228 277.712 189.609C277.694 189.665 277.675 189.721 277.654 189.776C277.635 189.829 277.61 189.877 277.582 189.922L277.658 190.557C278.041 191.2 278.226 191.622 278.255 191.691C278.358 191.931 278.245 192.21 278.004 192.314L277.871 192.341L277.912 192.683C279.555 192.43 280.904 192.863 281.026 195.091C281.084 195.122 281.134 195.148 281.173 195.17C281.242 195.209 281.28 195.233 281.291 195.241C281.492 195.372 281.561 195.628 281.462 195.839C282.429 196.358 284.579 197.936 283.03 201.18C283.153 201.445 283.195 201.609 283.199 201.626C283.261 201.88 283.107 202.133 282.858 202.198C283.018 202.936 283.181 204.4 282.277 205.365C282.306 208.532 281.401 217.328 270.516 217.884C268.9 223.247 267.701 228.551 267.733 232.415H362.425C361.532 228.924 359.393 220.878 357.44 213.565C349.615 212.278 348.578 206.011 348.526 203.121C347.024 202.441 346.915 200.665 346.955 199.812C346.699 199.789 346.506 199.565 346.524 199.308C346.525 199.291 346.538 199.123 346.616 198.842C344.547 195.9 346.404 193.986 347.273 193.315C347.141 193.122 347.165 192.858 347.342 192.696C347.351 192.688 347.381 192.661 347.433 192.62C347.47 192.59 347.518 192.551 347.579 192.506C347.263 189.713 349.34 189.404 351.602 189.705C352.003 189.757 352.41 189.83 352.81 189.911C352.941 189.938 353.071 189.965 353.2 189.993C353.184 189.744 353.169 189.496 353.152 189.245C353.088 188.25 353.015 187.239 352.932 186.212C352.888 185.659 352.841 185.104 352.792 184.544C351.165 186.96 350.682 188.874 350.672 188.912C350.62 189.13 350.423 189.278 350.209 189.278L350.098 189.263C349.841 189.203 349.685 188.945 349.746 188.689C349.78 188.548 350.158 187.05 351.326 185.045C347.923 183.116 344.652 180.888 341.728 178.28C341.448 178.029 341.169 177.775 340.895 177.518C340.718 177.351 340.543 177.184 340.369 177.015C322.645 184.724 302.469 185.786 283.613 182.011L283.614 182.009Z" fill="#FF808F"/>
<path fill-rule="evenodd" clip-rule="evenodd" d="M240.679 63.2982C239.561 72.2941 240.213 81.5739 242.123 90.6787C238.394 91.6724 235.054 93.8028 232.559 96.8047C229.526 100.456 227.996 105.105 228.269 109.845C228.555 114.816 230.787 119.432 234.505 122.746C238.212 126.049 243.079 127.744 248.037 127.458C249.194 127.392 250.338 127.219 251.457 126.943C253.622 138.002 260.25 146.861 270.032 152.209C259.684 157.816 249.058 166.149 244.211 176.659C241.548 182.435 240.815 188.608 242.507 194.786C244.57 202.319 249.839 208.615 255.653 213.621C255.881 213.817 256.108 213.947 256.392 214.043C258.232 214.667 260.399 214.507 262.059 213.475C262.676 213.534 263.319 213.519 263.927 213.435C265.181 214.163 266.579 214.753 267.99 215.209C267.159 217.836 266.403 220.497 265.789 223.176C265.111 226.135 264.531 229.372 264.552 232.415H266.783C266.743 227.446 268.618 220.325 270.837 213.666C268.681 213.2 266.228 212.325 264.346 211.071C262.858 211.52 261.475 211.107 261.475 211.107C259.772 212.835 257.107 211.931 257.107 211.931C230.12 188.699 248.775 165.56 272.936 153.197C273.643 152.837 274.352 152.484 275.066 152.142C260.032 145.967 254.483 133.728 253.241 124.02C251.587 124.701 249.794 125.123 247.908 125.232C238.814 125.755 231.02 118.81 230.495 109.717C229.995 101.045 236.291 93.553 244.761 92.4228C242.256 81.6828 241.767 71.9673 242.888 63.2982C246.54 35.0297 267.29 17.8963 290.968 12.7145C293.495 10.1131 296.505 8.39975 299.715 7.48641C302.92 6.57417 306.325 6.46413 309.642 7.07156C312.947 7.67458 316.173 8.99068 319.026 10.9263C319.758 11.4237 320.466 11.9618 321.145 12.5384C344.528 17.4297 364.985 34.3354 368.824 64.0465C369.66 70.5125 369.709 77.5849 368.829 85.2713C370.981 85.3087 373.043 85.7642 374.932 86.5631V84.1631C373.76 83.7362 372.535 83.4237 371.268 83.2377C371.815 77.2933 371.842 71.3213 371.216 65.4638C370.004 54.1131 366.347 43.1893 359.3 33.7136C350.223 21.509 336.923 13.7224 322.196 10.5103C321.579 10.0053 320.939 9.52768 320.278 9.07981C317.205 6.99563 313.696 5.54528 310.042 4.87733C306.414 4.21379 302.659 4.32933 299.105 5.34171C295.577 6.34638 292.416 8.17857 289.801 10.7293C273.975 14.3574 259.594 23.1563 250.428 36.7497C244.897 44.951 241.837 53.9733 240.678 63.3004L240.679 63.2982ZM369.475 118.22C367.589 118.329 365.758 118.116 364.037 117.63C363.918 127.604 359.655 140.705 344.758 148.523C356.282 151.847 367.612 157.563 374.934 165.234V162.082C368.121 155.645 358.936 150.954 350.126 147.891C359.483 141.466 365.251 131.803 366.147 120.328C367.292 120.473 368.449 120.513 369.603 120.447C371.446 120.34 373.238 119.967 374.934 119.35V116.953C373.246 117.665 371.408 118.108 369.475 118.219V118.22ZM366.687 205.486C363.931 208.078 359.423 209.889 357.145 210.111C356.927 210.132 356.72 210.138 356.524 210.131C358.3 216.775 360.457 224.865 361.739 229.766C362.012 230.807 362.244 231.704 362.426 232.413H364.662C364.659 232.231 364.635 232.046 364.587 231.859C362.974 225.56 361.273 219.271 359.595 212.987C359.504 212.645 359.413 212.302 359.321 211.96C362.143 211.205 365.337 209.51 367.489 207.745C368.104 207.726 368.741 207.635 369.339 207.474C371.116 208.205 373.236 208.021 374.934 207.139V203.927C374.62 204.326 374.299 204.725 373.965 205.127C373.965 205.127 371.488 206.465 369.521 205.04C369.521 205.04 368.229 205.677 366.687 205.484V205.486Z" fill="#4B4669"/>
<path fill-rule="evenodd" clip-rule="evenodd" d="M369.603 120.447C368.449 120.513 367.291 120.473 366.147 120.328C365.251 131.803 359.483 141.466 350.126 147.891C358.936 150.955 368.121 155.645 374.934 162.082V156.165C370.106 152.259 364.514 149.05 358.769 146.504C364.653 140.636 368.569 133.25 370.058 124.889C371.74 124.778 373.372 124.487 374.934 124.034V119.351C373.238 119.968 371.444 120.341 369.603 120.448V120.447ZM367.489 207.747C365.338 209.512 362.144 211.207 359.322 211.962C359.414 212.304 359.505 212.646 359.596 212.989C361.274 219.273 362.975 225.561 364.588 231.861C364.635 232.049 364.66 232.233 364.662 232.415H365.073C366.494 232.415 367.847 232.11 369.071 231.563C369.033 231.295 368.98 231.025 368.911 230.754C367.539 225.399 366.105 220.051 364.676 214.708C366.271 213.959 367.81 213.058 369.158 212.089C371.047 212.543 373.057 212.474 374.935 211.925V207.142C373.237 208.023 371.117 208.207 369.34 207.477C368.742 207.639 368.105 207.731 367.489 207.748V207.747ZM236.186 63.2981C235.247 71.3586 235.631 79.6271 237.036 87.8175C228.733 91.7691 223.261 100.49 223.815 110.102C224.545 122.761 235.457 132.545 248.098 131.923C250.518 139.98 255.201 146.84 261.659 151.99C252.701 157.797 244.456 165.475 240.16 174.793C232.638 191.107 239.881 205.931 252.743 217.004C253.425 217.591 254.106 217.98 254.959 218.269C257.374 219.089 260.05 219.071 262.426 218.221C261.106 222.949 260.065 227.979 260.092 232.416H264.554C264.532 229.373 265.112 226.136 265.791 223.177C266.405 220.498 267.161 217.838 267.992 215.21C266.58 214.756 265.183 214.164 263.929 213.436C263.32 213.52 262.677 213.535 262.061 213.476C260.401 214.508 258.234 214.668 256.394 214.044C256.11 213.948 255.882 213.818 255.655 213.622C249.84 208.616 244.572 202.32 242.509 194.787C240.817 188.609 241.552 182.436 244.213 176.66C249.06 166.149 259.686 157.816 270.034 152.21C260.252 146.862 253.624 138.003 251.46 126.944C250.34 127.22 249.196 127.392 248.04 127.459C243.082 127.745 238.214 126.05 234.507 122.747C230.789 119.435 228.557 114.818 228.271 109.846C227.998 105.106 229.528 100.456 232.561 96.8057C235.056 93.8049 238.396 91.6745 242.125 90.6797C240.215 81.5749 239.564 72.2951 240.681 63.2992C241.84 53.971 244.901 44.9498 250.431 36.7485C259.597 23.1562 273.978 14.3562 289.804 10.7281C292.419 8.17737 295.58 6.34519 299.108 5.34051C302.662 4.32813 306.418 4.21259 310.046 4.87614C313.7 5.54409 317.209 6.99443 320.281 9.07861C320.942 9.52648 321.582 10.0041 322.199 10.5091C336.926 13.7202 350.228 21.5078 359.304 33.7124C366.351 43.187 370.007 54.1119 371.219 65.4626C371.844 71.3201 371.818 77.2921 371.271 83.2365C372.538 83.4225 373.763 83.735 374.935 84.1619V73.1611V59.8131C373.161 49.5485 369.346 39.7383 362.883 31.0505C353.37 18.2594 339.542 9.95564 324.166 6.3804C323.715 6.03707 323.255 5.70585 322.785 5.38783C319.2 2.95482 315.11 1.26679 310.847 0.487694C306.544 -0.299101 302.097 -0.149445 297.884 1.05C294.058 2.13941 290.582 4.04533 287.628 6.65881C271.162 10.7028 256.303 20.0541 246.729 34.2538C240.683 43.22 237.373 53.094 236.185 63.2992L236.186 63.2981Z" fill="white"/>
<path fill-rule="evenodd" clip-rule="evenodd" d="M223.816 110.101C223.262 100.489 228.733 91.7692 237.036 87.8165C235.632 79.6261 235.248 71.3587 236.186 63.2971H227.21C226.527 69.893 226.624 76.6055 227.385 83.3158C225.516 84.7541 223.798 86.4058 222.266 88.2479C217.069 94.5026 214.439 102.494 214.908 110.614C215.399 119.13 219.235 127.065 225.603 132.739C230.178 136.816 235.798 139.467 241.759 140.448C243.435 144.22 245.557 147.73 248.084 150.927C241.367 156.575 235.633 163.299 232.058 171.056C228.084 179.676 227.078 189.122 229.599 198.323C232.394 208.527 239.013 216.956 246.923 223.766C248.372 225.013 249.818 225.876 251.565 226.531C251.306 228.527 251.161 230.5 251.169 232.415H260.093C260.067 227.978 261.107 222.949 262.427 218.22C260.052 219.07 257.375 219.088 254.96 218.268C254.107 217.979 253.426 217.59 252.744 217.003C239.882 205.93 232.64 191.106 240.161 174.792C244.457 165.474 252.701 157.797 261.66 151.989C255.202 146.839 250.519 139.979 248.099 131.922C235.458 132.544 224.546 122.759 223.817 110.101H223.816ZM374.935 211.924C373.056 212.473 371.047 212.542 369.158 212.088C367.809 213.058 366.27 213.958 364.676 214.707C366.106 220.051 367.54 225.398 368.911 230.753C368.981 231.024 369.033 231.294 369.071 231.562C372.518 230.021 374.936 226.554 374.936 222.551V211.924H374.935ZM370.059 124.888C368.57 133.249 364.654 140.635 358.77 146.503C364.516 149.049 370.107 152.258 374.935 156.164V145.137C374.101 144.588 373.256 144.055 372.4 143.537C373.329 142.014 374.176 140.439 374.935 138.82V124.032C373.373 124.484 371.741 124.776 370.059 124.887V124.888Z" fill="#F0485E"/>
<path fill-rule="evenodd" clip-rule="evenodd" d="M236.413 149.588C231.303 154.822 226.987 160.736 223.952 167.32C219.1 177.845 217.915 189.453 220.991 200.68C224.267 212.642 231.812 222.533 241.099 230.529C241.482 230.859 241.866 231.172 242.252 231.469C242.246 231.785 242.244 232.1 242.245 232.415H251.168C251.159 230.5 251.304 228.527 251.564 226.531C249.817 225.878 248.37 225.014 246.922 223.766C239.012 216.956 232.392 208.527 229.598 198.323C227.078 189.122 228.083 179.677 232.056 171.056C235.632 163.3 241.366 156.575 248.083 150.927C245.556 147.73 243.433 144.22 241.757 140.448C235.797 139.468 230.177 136.816 225.601 132.739C219.233 127.065 215.398 119.13 214.907 110.614C214.439 102.494 217.068 94.5015 222.265 88.2479C223.797 86.4058 225.515 84.7541 227.384 83.3158C226.623 76.6066 226.526 69.8941 227.209 63.2971H218.243C217.739 68.6869 217.702 74.1428 218.086 79.614C217.148 80.5428 216.253 81.5199 215.402 82.5444C208.762 90.5345 205.399 100.754 205.997 111.128C206.624 122.006 211.53 132.153 219.664 139.402C224.296 143.529 229.77 146.515 235.634 148.199C235.887 148.666 236.147 149.128 236.412 149.587L236.413 149.588ZM374.935 138.822C374.175 140.443 373.329 142.016 372.399 143.539C373.256 144.056 374.102 144.59 374.935 145.139V138.822Z" fill="#F54F65"/>
<path fill-rule="evenodd" clip-rule="evenodd" d="M21.1033 134.116V83.7427C21.1033 81.3174 23.084 79.3378 25.5092 79.3378H160.633C161.098 79.3378 161.477 79.7174 161.477 80.1818C161.477 80.6462 161.098 81.0258 160.633 81.0258H25.5092C24.016 81.0258 22.7924 82.2506 22.7924 83.7427V134.116C22.7924 134.581 22.4127 134.96 21.9484 134.96C21.484 134.96 21.1044 134.581 21.1044 134.116H21.1033ZM176.114 79.3367H185.33C185.795 79.3367 186.174 79.7163 186.174 80.1807C186.174 80.6451 185.795 81.0247 185.33 81.0247H176.114C175.649 81.0247 175.27 80.6451 175.27 80.1807C175.27 79.7163 175.649 79.3367 176.114 79.3367ZM204.093 216.375H25.5092C23.0851 216.375 21.1033 214.395 21.1033 211.969V203.106C21.1033 202.641 21.4829 202.262 21.9473 202.262C22.4116 202.262 22.7913 202.641 22.7913 203.106V211.969C22.7913 213.463 24.016 214.686 25.5081 214.686H204.092C204.556 214.686 204.936 215.066 204.936 215.53C204.936 215.995 204.556 216.374 204.092 216.374L204.093 216.375Z" fill="white"/>
</svg>
