<svg width="380" height="238" viewBox="0 0 380 238" fill="none" xmlns="http://www.w3.org/2000/svg">
<path fill-rule="evenodd" clip-rule="evenodd" d="M14.9277 48.0029H365.072C373.291 48.0029 380 55.0941 380 63.7826V221.698C380 230.387 373.293 237.478 365.072 237.478H14.9277C6.70836 237.478 5.34058e-05 230.388 5.34058e-05 221.698V63.7826C5.34058e-05 55.0941 6.70673 48.0029 14.9277 48.0029Z" fill="white"/>
<path d="M353.365 53.3557H26.6346C14.7223 53.3557 5.06542 54.4214 5.06542 55.7361V229.741C5.06542 231.056 14.7223 232.121 26.6346 232.121H353.365C365.277 232.121 374.934 231.056 374.934 229.741V55.7361C374.934 54.4214 365.277 53.3557 353.365 53.3557Z" fill="#735974"/>
<path d="M30.557 138.955C30.557 138.318 30.3421 137.826 29.9187 137.471C29.4921 137.116 28.7464 136.75 27.6815 136.371C26.6134 135.993 25.744 135.624 25.065 135.271C22.8604 134.125 21.758 132.552 21.758 130.55C21.758 129.555 22.03 128.674 22.5803 127.912C23.1306 127.149 23.9089 126.559 24.9136 126.132C25.9149 125.707 27.0465 125.495 28.2986 125.495C29.5231 125.495 30.6205 125.727 31.5893 126.187C32.5581 126.647 33.312 127.304 33.8509 128.156C34.3899 129.008 34.6569 129.982 34.6569 131.073H30.5684C30.5684 130.34 30.3535 129.77 29.9301 129.366C29.5035 128.962 28.9288 128.758 28.2075 128.758C27.4731 128.758 26.8951 128.931 26.4718 129.273C26.0452 129.614 25.8335 130.053 25.8335 130.579C25.8335 131.042 26.0696 131.461 26.5353 131.836C27.0009 132.211 27.8232 132.598 29.0004 132.999C30.1776 133.4 31.1415 133.834 31.8954 134.294C33.7337 135.416 34.6553 136.958 34.6553 138.931C34.6553 140.504 34.0935 141.738 32.9717 142.636C31.8514 143.535 30.3111 143.986 28.3573 143.986C26.9765 143.986 25.7293 143.724 24.6123 143.201C23.4954 142.678 22.6536 141.962 22.0869 141.051C21.5203 140.141 21.2419 139.091 21.2419 137.906H25.3532C25.3532 138.867 25.5893 139.581 26.0598 140.036C26.5304 140.495 27.2957 140.722 28.3573 140.722C29.0346 140.722 29.5687 140.566 29.9643 140.259C30.3551 139.951 30.5537 139.517 30.5537 138.956L30.557 138.955Z" fill="#4B4669"/>
<path d="M36.7589 143.731V125.746H42.2379C43.7408 125.746 45.0938 126.104 46.2938 126.826C47.4939 127.547 48.4317 128.562 49.1009 129.877C49.775 131.192 50.1186 132.664 50.1267 134.295V135.122C50.1267 136.765 49.7962 138.245 49.1384 139.548C48.4806 140.855 47.5541 141.875 46.359 142.614C45.1622 143.352 43.8303 143.722 42.3584 143.731H36.7589ZM40.8621 129.085V140.392H42.2851C43.4624 140.392 44.3676 139.949 44.9978 139.063C45.6279 138.178 45.9438 136.863 45.9438 135.113V134.337C45.9438 132.595 45.6279 131.289 44.9978 130.407C44.3676 129.526 43.4461 129.084 42.2379 129.084H40.8621V129.085Z" fill="#4B4669"/>
<path d="M53.3978 145.273H50.6054L56.4117 125.746H59.2155L53.3978 145.273Z" fill="#4B4669"/>
<path d="M66.0166 125.746L69.812 138.259L73.5976 125.746H78.9969V143.731H74.8856V139.531L75.2812 130.936L71.1683 143.731H68.4573L64.333 130.924L64.7319 139.531V143.731H60.6272V125.746H66.0166Z" fill="#4B4669"/>
<path d="M85.9722 143.731H81.8853V125.746H85.9722V143.731Z" fill="#4B4669"/>
<path d="M89.9923 145.273H87.2015L93.0078 125.746H95.8116L89.9923 145.273Z" fill="#4B4669"/>
<path d="M30.557 169.313C30.557 168.676 30.3421 168.183 29.9187 167.829C29.4921 167.474 28.7464 167.108 27.6815 166.729C26.6134 166.35 25.744 165.982 25.065 165.629C22.8604 164.483 21.758 162.91 21.758 160.908C21.758 159.913 22.03 159.032 22.5803 158.27C23.1306 157.507 23.9089 156.917 24.9136 156.49C25.9149 156.065 27.0465 155.853 28.2986 155.853C29.5231 155.853 30.6205 156.085 31.5893 156.545C32.5581 157.004 33.312 157.662 33.8509 158.514C34.3899 159.366 34.6569 160.34 34.6569 161.431H30.5684C30.5684 160.698 30.3535 160.128 29.9301 159.724C29.5035 159.319 28.9288 159.116 28.2075 159.116C27.4731 159.116 26.8951 159.288 26.4718 159.631C26.0452 159.972 25.8335 160.411 25.8335 160.937C25.8335 161.4 26.0696 161.819 26.5353 162.194C27.0009 162.569 27.8232 162.956 29.0004 163.357C30.1776 163.758 31.1415 164.192 31.8954 164.652C33.7337 165.774 34.6553 167.316 34.6553 169.288C34.6553 170.862 34.0935 172.096 32.9717 172.994C31.8514 173.893 30.3111 174.344 28.3573 174.344C26.9765 174.344 25.7293 174.082 24.6123 173.559C23.4954 173.035 22.6536 172.319 22.0869 171.409C21.5203 170.498 21.2419 169.449 21.2419 168.264H25.3532C25.3532 169.225 25.5893 169.939 26.0598 170.393C26.5304 170.853 27.2957 171.08 28.3573 171.08C29.0346 171.08 29.5687 170.924 29.9643 170.617C30.3551 170.309 30.5537 169.875 30.5537 169.314L30.557 169.313Z" fill="#4B4669"/>
<path d="M36.7589 174.089V156.104H42.2379C43.7408 156.104 45.0938 156.462 46.2938 157.183C47.4939 157.905 48.4317 158.92 49.1009 160.235C49.775 161.55 50.1186 163.022 50.1267 164.653V165.479C50.1267 167.123 49.7962 168.603 49.1384 169.906C48.4806 171.213 47.5541 172.233 46.359 172.972C45.1622 173.71 43.8303 174.08 42.3584 174.089H36.7589ZM40.8621 159.443V170.75H42.2851C43.4624 170.75 44.3676 170.307 44.9978 169.421C45.6279 168.536 45.9438 167.221 45.9438 165.471V164.695C45.9438 162.953 45.6279 161.646 44.9978 160.765C44.3676 159.884 43.4461 159.442 42.2379 159.442H40.8621V159.443Z" fill="#4B4669"/>
<path d="M56.3319 170.75H63.4717V174.089H52.2287V156.104H56.3319V170.75Z" fill="#4B4669"/>
<path d="M65.1976 174.089V156.104H71.3084C73.4983 156.104 75.1656 156.526 76.3054 157.373C77.4468 158.22 78.0167 159.452 78.0167 161.061C78.0167 161.989 77.8131 162.786 77.411 163.443C77.0039 164.101 76.4096 164.586 75.6248 164.898C76.5105 165.142 77.1928 165.607 77.6666 166.28C78.1404 166.958 78.3814 167.781 78.3814 168.755C78.3814 170.521 77.8555 171.844 76.7971 172.734C75.7404 173.619 74.1773 174.072 72.1062 174.087H65.1992L65.1976 174.089ZM69.2975 166.424V170.75H71.9857C72.7282 170.75 73.2932 170.569 73.6921 170.211C74.091 169.853 74.2864 169.347 74.2864 168.693C74.2864 167.189 73.5846 166.433 72.1729 166.424H69.2975ZM69.2975 163.591H71.4386C72.3325 163.583 72.9708 163.411 73.3534 163.073C73.736 162.736 73.9282 162.238 73.9282 161.581C73.9282 160.822 73.7214 160.278 73.3062 159.946C72.8959 159.614 72.2299 159.445 71.3084 159.445H69.2975V163.593V163.591Z" fill="#4B4669"/>
<path fill-rule="evenodd" clip-rule="evenodd" d="M21.1035 99.2215V74.9668C21.1035 72.404 23.085 70.3093 25.5095 70.3093H186.174C186.639 70.3093 187.017 70.7104 187.017 71.2026C187.017 71.6949 186.638 72.0942 186.174 72.0942H25.5095C24.0164 72.0942 22.792 73.3885 22.792 74.9668V99.2215C22.792 99.7138 22.4126 100.113 21.9485 100.113C21.4829 100.113 21.1051 99.7121 21.1051 99.2215H21.1035ZM201.655 70.311H210.87C211.336 70.311 211.714 70.7121 211.714 71.2043C211.714 71.6966 211.335 72.0959 210.87 72.0959H201.655C201.189 72.0959 200.81 71.6949 200.81 71.2043C200.81 70.7121 201.189 70.311 201.655 70.311ZM186.105 215.17H25.5095C23.085 215.17 21.1035 213.075 21.1035 210.512V201.142C21.1035 200.65 21.4829 200.249 21.9469 200.249C22.4126 200.249 22.7903 200.65 22.7903 201.142V210.512C22.7903 212.091 24.0148 213.385 25.5079 213.385H186.103C186.569 213.385 186.947 213.786 186.947 214.276C186.947 214.769 186.568 215.17 186.103 215.17H186.105Z" fill="white"/>
<path d="M59.0038 183.533H21.1035V190.715H59.0038V183.533Z" fill="#4B4669"/>
<path d="M57.737 181.748H19.8367V188.93H57.737V181.748Z" fill="white"/>
<path d="M29.2902 137.17C29.2902 136.533 29.0753 136.041 28.652 135.686C28.2254 135.332 27.4796 134.965 26.4148 134.586C25.3467 134.208 24.4772 133.839 23.7982 133.486C21.5936 132.34 20.4913 130.767 20.4913 128.765C20.4913 127.77 20.7632 126.889 21.3135 126.127C21.8639 125.364 22.6422 124.774 23.6468 124.347C24.6481 123.922 25.7798 123.71 27.0319 123.71C28.2563 123.71 29.3537 123.943 30.3225 124.402C31.2913 124.862 32.0452 125.519 32.5841 126.371C33.1231 127.223 33.3901 128.197 33.3901 129.289H29.3016C29.3016 128.555 29.0867 127.986 28.6634 127.581C28.2368 127.177 27.662 126.974 26.9407 126.974C26.2064 126.974 25.6283 127.146 25.205 127.488C24.7784 127.829 24.5667 128.268 24.5667 128.795C24.5667 129.258 24.8028 129.676 25.2685 130.051C25.7342 130.426 26.5564 130.813 27.7336 131.214C28.9109 131.616 29.8748 132.049 30.6286 132.509C32.4669 133.631 33.3885 135.173 33.3885 137.146C33.3885 138.719 32.8268 139.953 31.7049 140.851C30.5847 141.75 29.0444 142.201 27.0905 142.201C25.7098 142.201 24.4625 141.939 23.3456 141.416C22.2286 140.893 21.3868 140.177 20.8202 139.266C20.2536 138.356 19.9751 137.306 19.9751 136.122H24.0864C24.0864 137.082 24.3225 137.796 24.7931 138.251C25.2636 138.71 26.0289 138.937 27.0905 138.937C27.7678 138.937 28.3019 138.781 28.6976 138.474C29.0883 138.166 29.287 137.733 29.287 137.171L29.2902 137.17Z" fill="white"/>
<path d="M35.4922 141.946V123.961H40.9712C42.474 123.961 43.8271 124.319 45.0271 125.041C46.2271 125.762 47.165 126.777 47.8342 128.092C48.5082 129.407 48.8518 130.879 48.8599 132.51V133.337C48.8599 134.98 48.5294 136.461 47.8716 137.763C47.2138 139.07 46.2873 140.09 45.0922 140.829C43.8955 141.567 42.5636 141.937 41.0917 141.946H35.4922ZM39.5953 127.3V138.607H41.0184C42.1956 138.607 43.1009 138.165 43.731 137.278C44.3611 136.393 44.677 135.078 44.677 133.328V132.552C44.677 130.81 44.3611 129.504 43.731 128.622C43.1009 127.741 42.1793 127.299 40.9712 127.299H39.5953V127.3Z" fill="white"/>
<path d="M52.1311 143.49H49.3386L55.1465 123.961H57.9504L52.1311 143.49Z" fill="white"/>
<path d="M64.7498 123.961L68.5469 136.474L72.3309 123.961H77.7317V141.946H73.6188V137.746L74.0145 129.151L69.9032 141.946H67.1906L63.0663 129.139L63.4652 137.746V141.946H59.362V123.961H64.7498Z" fill="white"/>
<path d="M84.7071 141.946H80.6186V123.961H84.7071V141.946Z" fill="white"/>
<path d="M88.7272 143.49H85.9348L91.741 123.961H94.5448L88.7272 143.49Z" fill="white"/>
<path d="M29.2902 167.528C29.2902 166.891 29.0753 166.399 28.652 166.044C28.2254 165.689 27.4796 165.323 26.4148 164.944C25.3467 164.566 24.4772 164.197 23.7982 163.844C21.5936 162.698 20.4913 161.125 20.4913 159.123C20.4913 158.128 20.7632 157.247 21.3135 156.485C21.8639 155.722 22.6422 155.132 23.6468 154.705C24.6481 154.28 25.7798 154.068 27.0319 154.068C28.2563 154.068 29.3537 154.3 30.3225 154.76C31.2913 155.22 32.0452 155.877 32.5841 156.729C33.1231 157.581 33.3901 158.555 33.3901 159.646H29.3016C29.3016 158.913 29.0867 158.344 28.6634 157.939C28.2368 157.535 27.662 157.331 26.9407 157.331C26.2064 157.331 25.6283 157.504 25.205 157.846C24.7784 158.187 24.5667 158.626 24.5667 159.152C24.5667 159.615 24.8028 160.034 25.2685 160.409C25.7342 160.784 26.5564 161.171 27.7336 161.572C28.9109 161.973 29.8748 162.407 30.6286 162.867C32.4669 163.989 33.3885 165.531 33.3885 167.504C33.3885 169.077 32.8268 170.311 31.7049 171.209C30.5847 172.108 29.0444 172.559 27.0905 172.559C25.7098 172.559 24.4625 172.297 23.3456 171.774C22.2286 171.251 21.3868 170.535 20.8202 169.624C20.2536 168.714 19.9751 167.664 19.9751 166.479H24.0864C24.0864 167.44 24.3225 168.154 24.7931 168.609C25.2636 169.068 26.0289 169.295 27.0905 169.295C27.7678 169.295 28.3019 169.139 28.6976 168.832C29.0883 168.524 29.287 168.09 29.287 167.529L29.2902 167.528Z" fill="white"/>
<path d="M35.4922 172.304V154.32H40.9712C42.474 154.32 43.8271 154.678 45.0271 155.399C46.2271 156.12 47.165 157.135 47.8342 158.45C48.5082 159.765 48.8518 161.237 48.8599 162.869V163.695C48.8599 165.339 48.5294 166.819 47.8716 168.122C47.2138 169.428 46.2873 170.449 45.0922 171.187C43.8955 171.925 42.5636 172.295 41.0917 172.304H35.4922ZM39.5953 157.659V168.965H41.0184C42.1956 168.965 43.1009 168.523 43.731 167.636C44.3611 166.752 44.677 165.437 44.677 163.686V162.91C44.677 161.168 44.3611 159.862 43.731 158.981C43.1009 158.099 42.1793 157.657 40.9712 157.657H39.5953V157.659Z" fill="white"/>
<path d="M55.0668 168.965H62.2049V172.304H50.962V154.32H55.0668V168.965Z" fill="white"/>
<path d="M63.9325 172.304V154.32H70.0432C72.2332 154.32 73.9005 154.741 75.0403 155.588C76.1816 156.435 76.7515 157.667 76.7515 159.277C76.7515 160.204 76.548 161.001 76.1458 161.659C75.7388 162.316 75.1445 162.802 74.3597 163.113C75.2454 163.357 75.9276 163.822 76.4015 164.495C76.8753 165.173 77.1163 165.996 77.1163 166.97C77.1163 168.736 76.5903 170.06 75.532 170.95C74.4753 171.834 72.9122 172.287 70.8411 172.302H63.9341L63.9325 172.304ZM68.0324 164.64V168.965H70.7206C71.463 168.965 72.028 168.784 72.427 168.426C72.8259 168.068 73.0213 167.562 73.0213 166.908C73.0213 165.404 72.3195 164.648 70.9078 164.64H68.0324ZM68.0324 161.807H70.1735C71.0674 161.798 71.7056 161.626 72.0883 161.289C72.4709 160.951 72.663 160.454 72.663 159.796C72.663 159.037 72.4563 158.493 72.0411 158.161C71.6307 157.829 70.9648 157.66 70.0432 157.66H68.0324V161.808V161.807Z" fill="white"/>
<path fill-rule="evenodd" clip-rule="evenodd" d="M266.815 122.968C270.714 121.669 274.326 120.035 277.81 117.507C279.072 116.591 280.564 106.915 281.79 101.578C289.662 101.578 297.536 101.578 305.409 101.578C306.633 106.915 308.126 116.591 309.388 117.507C312.873 120.034 316.484 121.669 320.384 122.968L293.778 135.053L266.815 122.968Z" fill="#FCD1C8"/>
<path d="M352.247 146.042C351.182 139.416 345.235 134.958 338.968 136.084C332.7 137.209 328.482 143.493 329.547 150.118C329.715 151.161 348.261 224.061 348.261 224.061C348.974 228.082 351.815 231.132 355.339 232.12H360.316C365.088 230.793 368.208 225.848 367.453 220.614L352.245 146.041L352.247 146.042Z" fill="#FCD1C8"/>
<path fill-rule="evenodd" clip-rule="evenodd" d="M371.482 207.689C371.839 210.344 342.651 218.929 341.914 216.7C338.338 205.901 332.871 188.901 329.144 178.161C325.472 167.583 320.566 136.381 332.195 129.722C336.068 127.505 342.865 132.478 350.701 135.887C358.204 139.153 369.249 191.089 371.484 207.688L371.482 207.689Z" fill="white"/>
<path d="M235.771 146.042C236.836 139.416 242.782 134.958 249.049 136.084C255.318 137.209 259.535 143.493 258.47 150.118C258.303 151.161 239.757 224.061 239.757 224.061C239.044 228.082 236.203 231.132 232.679 232.12H227.702C222.929 230.793 219.809 225.848 220.565 220.614L235.773 146.041L235.771 146.042Z" fill="#FCD1C8"/>
<path fill-rule="evenodd" clip-rule="evenodd" d="M216.535 207.689C216.179 210.344 245.366 218.929 246.104 216.7C249.679 205.901 255.147 188.901 258.874 178.161C262.546 167.583 267.452 136.381 255.823 129.722C251.949 127.505 245.153 132.478 237.316 135.887C229.813 139.153 218.769 191.089 216.533 207.688L216.535 207.689Z" fill="white"/>
<path fill-rule="evenodd" clip-rule="evenodd" d="M270.809 121.323C262.269 124.915 251.731 128.385 245.189 132.101C228.856 141.378 242.67 171.636 246.12 190.894L252.249 225.116C251.192 226.574 250.088 228.961 250.036 231.103C250.028 231.438 250.054 231.779 250.108 232.12H337.465C337.519 231.779 337.545 231.437 337.537 231.103C337.487 228.961 336.381 226.574 335.324 225.116L341.453 190.894C344.902 171.636 358.717 141.378 342.384 132.101C335.84 128.385 325.304 124.915 316.764 121.323L293.787 135.173L270.809 121.323Z" fill="white"/>
<path fill-rule="evenodd" clip-rule="evenodd" d="M282.99 232.122L290.882 147.64L287.21 139.776L293.785 135.173L299.988 139.776L296.317 147.64L304.209 232.122H282.99Z" fill="#FF8091"/>
<path fill-rule="evenodd" clip-rule="evenodd" d="M290.835 147.469C292.674 146.901 294.522 146.912 296.362 147.469C296.452 147.497 296.504 147.595 296.478 147.69C296.452 147.784 296.359 147.839 296.27 147.812C294.49 147.273 292.707 147.263 290.929 147.812C290.839 147.839 290.745 147.784 290.719 147.691C290.693 147.597 290.745 147.497 290.833 147.469H290.835Z" fill="#4B4669"/>
<path fill-rule="evenodd" clip-rule="evenodd" d="M270.809 121.323C272.449 119.793 274.448 118.758 276.734 118.115L293.787 135.173L277.698 147.037C277.156 147.437 276.106 146.702 275.964 146.018C274.275 137.865 273.074 129.507 270.809 121.323Z" fill="white"/>
<path fill-rule="evenodd" clip-rule="evenodd" d="M316.762 121.323C315.123 119.793 313.123 118.758 310.837 118.115L293.785 135.173L309.873 147.037C310.416 147.437 311.466 146.702 311.608 146.018C313.296 137.865 314.498 129.507 316.762 121.323Z" fill="white"/>
<path fill-rule="evenodd" clip-rule="evenodd" d="M275.962 146.02C274.274 137.867 273.072 129.509 270.807 121.325C270.547 121.435 270.283 121.545 270.019 121.653C272.243 129.717 273.442 138.02 275.137 146.211C275.394 147.457 277.084 148.578 278.178 147.77L286.972 141.285L290.011 147.793L282.14 232.123H282.988H304.209H305.057L297.186 147.793L300.319 141.082L299.619 140.566L309.39 147.77C310.484 148.578 312.174 147.457 312.431 146.211C314.126 138.02 315.326 129.717 317.549 121.653C317.285 121.543 317.021 121.435 316.761 121.325C314.498 129.509 313.294 137.867 311.606 146.02C311.464 146.703 310.414 147.438 309.872 147.039L294.477 135.686L294.475 135.688L293.782 135.173L293.088 135.686L287.293 139.96L277.695 147.039C277.153 147.438 276.102 146.703 275.961 146.02H275.962ZM318.12 191.323C315.364 191.467 311.212 190.433 310.02 188.151C310.23 188.714 310.464 189.235 310.725 189.703C313.016 193.829 321.1 193.249 325.504 192.144C328.001 191.517 330.565 189.498 331.837 187.013C332.223 186.258 332.49 185.459 332.599 184.645C333.037 181.387 333.506 177.831 333.76 174.956C333.369 178.567 332.989 182.648 331.41 185.76C331.001 186.566 330.511 187.307 329.92 187.958C327.453 190.676 321.678 191.139 318.12 191.323ZM327.465 164.984L312.332 163.409C316.745 164.519 323.298 165.462 327.577 165.695C329.58 165.803 331.389 165.774 332.835 165.567L327.465 164.984ZM340.782 194.633L338.623 206.684C338.911 207.567 339.196 208.438 339.476 209.292L341.556 197.683L342.726 191.149C343.68 185.819 345.747 178.459 345.9 172.824C344.198 179.242 342.419 185.498 341.451 190.894L340.782 194.633ZM249.105 207.566L246.973 195.664L246.118 190.894C244.202 180.196 239.086 166.103 237.718 154.097C237.521 159.445 239.448 169.576 240.972 175.263C242.37 180.483 243.888 185.82 244.844 191.151L246.198 198.715L248.251 210.175C248.531 209.323 248.816 208.452 249.105 207.567V207.566ZM282.988 232.118L290.859 147.813C290.795 147.805 290.738 147.757 290.719 147.688C290.696 147.604 290.734 147.516 290.807 147.478L287.674 140.767L287.801 140.674L293.787 136.261L299.62 140.564L296.392 147.48C296.463 147.517 296.502 147.605 296.48 147.69C296.46 147.76 296.405 147.808 296.34 147.817L304.21 232.122" fill="black" fill-opacity="0.090196"/>
<path d="M220.205 224.652C220.042 219.106 224.11 214.423 229.374 214.154C234.639 213.886 239.29 218.149 239.632 223.688C239.632 223.688 240.146 226.163 240.768 232.121H220.27C220.19 229.746 220.181 227.478 220.254 225.359C220.259 225.19 220.205 224.652 220.205 224.652Z" fill="#FCD1C8"/>
<path d="M367.812 224.652C367.975 219.106 363.908 214.423 358.644 214.154C353.378 213.886 348.728 218.149 348.386 223.688C348.386 223.688 347.871 226.163 347.249 232.121H365.07C366.002 232.121 366.905 231.984 367.762 231.724C367.829 229.491 367.834 227.359 367.764 225.357C367.759 225.189 367.812 224.65 367.812 224.65V224.652Z" fill="#FCD1C8"/>
<path fill-rule="evenodd" clip-rule="evenodd" d="M328.873 69.7414C324.886 69.7138 321.634 73.1097 321.606 77.3248C321.58 81.54 324.793 84.9772 328.779 85.0064C332.77 85.034 336.021 81.6381 336.047 77.423C336.075 73.2061 332.862 69.7689 328.873 69.7414Z" fill="#FCD1C8"/>
<path fill-rule="evenodd" clip-rule="evenodd" d="M323.842 77.8737L323.839 77.8651V77.798L323.842 77.767V77.7136C323.87 76.3195 324.415 75.0527 325.28 74.1284C326.175 73.168 327.418 72.5673 328.8 72.5587C330.176 72.5484 331.428 73.1319 332.335 74.0785C333.245 75.0286 333.812 76.3436 333.82 77.7997C333.82 78.008 333.659 78.1818 333.463 78.1818C333.265 78.1818 333.105 78.0114 333.105 77.8031C333.098 76.5604 332.615 75.4314 331.835 74.619C331.057 73.8049 329.984 73.3074 328.805 73.3143C328.406 73.3178 328.018 73.378 327.655 73.4899L327.939 73.4744H327.973C329.098 73.4778 330.119 73.9546 330.861 74.7308C331.612 75.5123 332.079 76.6018 332.089 77.8066V77.81H332.091L332.089 77.8427C332.086 79.032 331.635 80.1147 330.902 80.8961C330.161 81.6895 329.132 82.1852 327.992 82.1921V82.1956H327.991L327.958 82.1921C326.835 82.1921 325.811 81.7119 325.073 80.9357C324.324 80.1577 323.857 79.0751 323.845 77.8771L323.842 77.8737Z" fill="#F68B85"/>
<path fill-rule="evenodd" clip-rule="evenodd" d="M258.683 69.7414C254.696 69.7138 251.441 73.1097 251.417 77.3248C251.389 81.54 254.6 84.9772 258.587 85.0064C262.575 85.034 265.831 81.6381 265.854 77.423C265.882 73.2061 262.669 69.7689 258.683 69.7414Z" fill="#FCD1C8"/>
<path fill-rule="evenodd" clip-rule="evenodd" d="M262.331 77.8737V77.8582H262.334L262.331 77.8221V77.7274V77.7136C262.301 76.3195 261.762 75.0527 260.895 74.1284C259.997 73.168 258.752 72.5673 257.374 72.5587C255.995 72.5484 254.746 73.1319 253.836 74.0785C252.928 75.0286 252.363 76.3436 252.351 77.7997C252.351 78.008 252.509 78.1766 252.708 78.1818C252.905 78.1818 253.066 78.0114 253.068 77.8031C253.074 76.557 253.563 75.4314 254.339 74.619C255.118 73.8049 256.191 73.304 257.371 73.3143C257.77 73.3178 258.156 73.378 258.519 73.4864L258.236 73.4744H258.2C257.075 73.4778 256.056 73.9546 255.315 74.7308C254.562 75.5123 254.097 76.6018 254.087 77.8066H254.084V77.81L254.087 77.8427C254.089 79.032 254.541 80.1147 255.274 80.8961C256.015 81.6895 257.042 82.1818 258.182 82.1921H258.185V82.1956L258.218 82.1921C259.343 82.1921 260.364 81.7119 261.106 80.9357C261.852 80.1577 262.319 79.0751 262.331 77.8771V77.8737Z" fill="#F68B85"/>
<path fill-rule="evenodd" clip-rule="evenodd" d="M295.247 23.607L289.223 23.5639C271.47 23.4435 256.85 38.6999 256.733 57.4658L256.599 79.5123C256.482 98.273 270.915 113.731 288.669 113.851L294.69 113.894C312.444 114.017 327.063 98.7584 327.178 79.9925L327.315 57.9529C327.429 39.1836 312.996 23.7326 295.247 23.6087V23.607Z" fill="#FCD1C8"/>
<path fill-rule="evenodd" clip-rule="evenodd" d="M257.207 51.8859L257.192 51.9737C257.161 52.1716 257.13 52.3696 257.101 52.5709L257.088 52.657L257.073 52.7413L257.063 52.8257C257.037 53.0167 257.011 53.2078 256.99 53.3954L256.954 53.688L256.946 53.7757C256.93 53.91 256.917 54.046 256.904 54.1768C256.886 54.3592 256.87 54.5382 256.853 54.719L256.835 54.9582C256.816 55.1854 256.805 55.416 256.79 55.6449L256.783 55.7792C256.769 56.0408 256.757 56.3059 256.749 56.5709V56.6054C256.738 56.8911 256.734 57.1768 256.731 57.4642L256.673 67.2456C257.41 67.5967 258.288 67.8188 259.336 67.8635C268.033 68.2267 272.996 56.8291 272.996 56.8291L270.881 48.1957C270.881 48.1957 270.62 49.6518 274.497 54.793C278.372 59.9358 284.401 59.7603 290.69 52.6587C296.978 45.5554 300.513 45.9616 300.513 45.9616L295.6 40.2783C295.6 40.2783 310.005 37.8119 320.113 36.3093C320.219 36.4487 320.328 36.5899 320.432 36.7327L320.638 37.015C320.742 37.1527 320.841 37.2921 320.944 37.4367L321.095 37.6536C321.193 37.7981 321.287 37.9393 321.383 38.0804L321.519 38.2801C321.619 38.4315 321.717 38.5847 321.816 38.7362L321.978 38.9944C322.077 39.1544 322.176 39.3145 322.272 39.4746L322.396 39.6863C322.489 39.8412 322.582 39.9995 322.673 40.1596L322.789 40.3627C322.88 40.5262 322.971 40.688 323.06 40.8532L323.163 41.0443C323.261 41.2284 323.355 41.4143 323.453 41.5985L323.562 41.8171C323.65 41.9943 323.741 42.1699 323.827 42.3524L323.909 42.5279C323.997 42.7069 324.076 42.8825 324.158 43.0615L324.243 43.2508C324.33 43.447 324.415 43.6381 324.498 43.8343L324.57 44.0064C324.656 44.2095 324.739 44.416 324.821 44.6209L324.891 44.793C324.962 44.984 325.036 45.1733 325.106 45.3627L325.172 45.5417C325.247 45.7499 325.322 45.9582 325.392 46.1682L325.426 46.2749C325.509 46.5107 325.587 46.7499 325.662 46.9875L325.701 47.1062C325.768 47.3231 325.837 47.5417 325.902 47.7671L325.939 47.8928C325.999 48.1165 326.061 48.3386 326.123 48.5658L326.154 48.6776C326.218 48.9186 326.276 49.1613 326.335 49.4023L326.358 49.4986C326.413 49.7396 326.47 49.9789 326.522 50.2164L326.543 50.3282C326.594 50.5675 326.644 50.8033 326.687 51.0425L326.706 51.1303C326.753 51.3919 326.799 51.6484 326.843 51.9117L326.846 51.941C326.892 52.206 326.932 52.4745 326.97 52.7448L326.983 52.8188C327.014 53.0683 327.046 53.3179 327.076 53.5623L327.09 53.6759C327.118 53.9289 327.146 54.1802 327.167 54.4332L327.175 54.5021C327.201 54.7757 327.219 55.0494 327.242 55.3248L327.243 55.3644C327.261 55.6329 327.273 55.9031 327.286 56.1716L327.289 56.2387C327.299 56.5004 327.305 56.7689 327.313 57.0356L327.315 57.1062C327.32 57.3868 327.32 57.6708 327.32 57.953L327.234 71.8842C325.835 72.1544 324.228 72.3661 322.393 72.509C305.853 73.7826 311.572 55.743 311.572 55.743C311.572 55.743 313.135 53.595 313.949 53.4797C313.949 53.4797 320.494 46.6518 319.807 45.6501C319.115 44.6501 301.374 38.3661 296.291 37.3627C291.211 36.361 271.485 41.9152 269.42 42.5537C268.044 42.9771 261.473 48.3334 257.212 51.8859H257.207Z" fill="#F8A8A0"/>
<path fill-rule="evenodd" clip-rule="evenodd" d="M263.254 34.0029C259.253 40.1028 256.765 48.3747 256.717 57.4642L256.617 76.8945L256.616 76.8996C259.206 74.07 259.206 69.1337 259.206 69.1337C266.908 69.1939 263.812 38.9513 263.812 38.9513L263.254 34.0029Z" fill="#352236"/>
<path fill-rule="evenodd" clip-rule="evenodd" d="M321.325 34.3936C325.083 40.5519 327.372 48.8583 327.315 57.9512L327.195 77.3797V77.3849C321.606 77.3247 320.646 69.5708 320.646 69.5708C317.354 68.5915 313.587 67.0045 313.587 60.2283C313.587 51.9529 310.966 42.5553 310.966 42.5553L321.323 34.3936H321.325Z" fill="#352236"/>
<path fill-rule="evenodd" clip-rule="evenodd" d="M285.914 72.6758C286.157 72.3694 286.588 72.3316 286.878 72.588C287.165 72.8445 287.202 73.3006 286.959 73.6035C286.95 73.6173 283.752 77.7154 283.889 78.3195C283.972 78.6775 284.483 79.2885 285.232 79.8221L285.233 79.8186C285.859 80.2661 286.627 80.631 287.432 80.7205C287.806 80.7601 288.076 81.1164 288.037 81.514C287.997 81.9099 287.661 82.199 287.287 82.156C286.233 82.0372 285.251 81.5794 284.465 81.02H284.468L284.465 81.0183C283.436 80.2868 282.708 79.3178 282.558 78.6551C282.281 77.4228 285.906 72.6861 285.916 72.6741L285.914 72.6758Z" fill="#F68B85"/>
<path d="M285.896 103.053C285.5 103.053 285.102 103.03 284.706 102.989C284.346 102.95 284.087 102.61 284.125 102.232C284.164 101.855 284.489 101.585 284.839 101.617C286.207 101.769 287.567 101.629 288.882 101.197C289.227 101.082 289.591 101.285 289.7 101.648C289.805 102.01 289.612 102.399 289.271 102.511C288.167 102.874 287.037 103.053 285.898 103.053H285.896Z" fill="#F68B85"/>
<path fill-rule="evenodd" clip-rule="evenodd" d="M274.113 68.213C272.258 68.2233 270.747 69.8412 270.762 71.8051L270.77 73.5228C270.781 75.4884 272.31 77.0822 274.166 77.0701C276.023 77.0563 277.532 75.4402 277.519 73.4763L277.509 71.7551C277.496 69.7947 275.969 68.1992 274.111 68.2112L274.113 68.213Z" fill="#4C466A"/>
<path fill-rule="evenodd" clip-rule="evenodd" d="M299.892 68.213C298.036 68.2233 296.528 69.8412 296.538 71.8051L296.551 73.5228C296.563 75.4884 298.09 77.0822 299.948 77.0701C301.802 77.0563 303.31 75.4402 303.3 73.4763L303.287 71.7551C303.277 69.7947 301.749 68.1992 299.892 68.2112V68.213Z" fill="#4C466A"/>
<path fill-rule="evenodd" clip-rule="evenodd" d="M276.729 86.2835C277.845 86.7172 288.089 89.9874 296.608 84.4057C298.162 83.3885 298.266 86.2886 297.764 88.2198C295.81 95.7602 290.797 100.201 285.927 100.29C283.46 100.335 281.106 99.2542 279.206 97.0494C277.455 95.0184 276.097 92.0442 275.417 88.1406C275.274 87.3144 275.568 86.4487 276.076 86.2094C276.299 86.1062 276.563 86.2198 276.729 86.2852V86.2835Z" fill="white"/>
<path fill-rule="evenodd" clip-rule="evenodd" d="M300.513 45.9599C300.513 45.9599 301.087 55.478 311.614 55.2112C310.65 65.848 312.57 70.3024 320.647 69.5709C326.647 75.5847 336.371 57.1475 336.427 46.1974C336.557 20.9513 304.942 3.32482 293.591 11.0684C293.591 11.0684 287.941 4.95133 283.861 5.36613C264.091 7.37473 249.264 25.33 250.892 47.2955C252.636 70.8463 263.918 69.8187 274.406 54.9151L274.497 54.7912C275.296 56.2387 276.885 57.5244 280.023 57.4866C287.086 57.3953 293.267 43.9874 300.513 45.9599Z" fill="#735974"/>
<path fill-rule="evenodd" clip-rule="evenodd" d="M293.588 11.0614C293.417 10.879 288.399 5.51065 284.45 5.35059C278.991 16.1922 286.893 25.2198 286.893 25.2198C287.804 16.5864 293.58 11.0855 293.58 11.0855L293.588 11.0614Z" fill="#352236"/>
<path d="M305.477 64.1957C305.277 64.1957 305.08 64.0993 304.953 63.9169C301.96 59.6415 295.576 62.0167 295.511 62.0408C295.172 62.1699 294.799 61.9823 294.676 61.6295C294.557 61.2697 294.728 60.8756 295.066 60.7448C295.364 60.6295 302.426 57.9926 306.001 63.0976C306.213 63.4023 306.151 63.836 305.861 64.0597C305.746 64.1492 305.609 64.194 305.476 64.194L305.477 64.1957Z" fill="#4C466A"/>
<path d="M270.257 64.0373C270.123 64.0373 269.988 63.996 269.873 63.9065C269.583 63.6776 269.521 63.249 269.736 62.9444C272.613 58.8342 278.273 60.9461 278.512 61.0407C278.849 61.1716 279.025 61.5657 278.901 61.9203C278.777 62.2765 278.406 62.4659 278.069 62.3316C278.02 62.3161 273.08 60.4814 270.783 63.7619C270.658 63.9444 270.462 64.039 270.259 64.039L270.257 64.0373Z" fill="#4C466A"/>
<path fill-rule="evenodd" clip-rule="evenodd" d="M250.801 42.3851C265.936 49.9324 286.209 34.8085 286.209 34.8085C271.773 35.9238 263.223 29.3576 258.2 20.3713C253.812 26.4815 251.114 34.0564 250.801 42.3851Z" fill="#9E6D82"/>
<path fill-rule="evenodd" clip-rule="evenodd" d="M278.074 117.199C287.309 120.309 297.766 119.072 308.056 114.116C307.88 113.426 307.703 112.662 307.524 111.853C303.561 113.206 299.337 113.924 294.96 113.894L287.44 113.841C284.698 113.822 282.018 113.511 279.429 112.934C278.968 114.915 278.509 116.504 278.074 117.199Z" fill="#F8A8A0"/>
<path fill-rule="evenodd" clip-rule="evenodd" d="M359.769 214.282C361.772 213.548 363.783 212.972 365.8 212.502L365.53 211.173C359.875 213.376 351.502 215.793 346.39 216.696C346.842 218.478 347.228 219.996 347.531 221.182C348.166 220.674 348.801 220.192 349.438 219.734C352.852 217.285 356.301 215.548 359.771 214.278L359.769 214.282Z" fill="#F8A8A0"/>
<path fill-rule="evenodd" clip-rule="evenodd" d="M228.249 214.28C226.246 213.547 224.235 212.97 222.218 212.502L222.488 211.173C228.143 213.376 236.515 215.793 241.628 216.696C241.175 218.479 240.789 219.996 240.486 221.182C239.851 220.674 239.216 220.192 238.58 219.734C235.165 217.285 231.717 215.548 228.247 214.278L228.249 214.28Z" fill="#F8A8A0"/>
<path fill-rule="evenodd" clip-rule="evenodd" d="M321.25 183.881C324.329 183.881 326.841 181.225 326.841 177.972C326.841 174.717 324.329 172.061 321.25 172.061C318.169 172.061 315.659 174.717 315.659 177.972C315.659 181.227 318.169 183.881 321.25 183.881Z" fill="#FF8091"/>
<path fill-rule="evenodd" clip-rule="evenodd" d="M321.25 181.932C323.313 181.932 324.996 180.153 324.996 177.972C324.996 175.791 323.313 174.011 321.25 174.011C319.187 174.011 317.503 175.791 317.503 177.972C317.503 180.153 319.187 181.932 321.25 181.932Z" fill="#BC766D"/>
<path fill-rule="evenodd" clip-rule="evenodd" d="M321.25 179.973C322.294 179.973 323.144 179.075 323.144 177.972C323.144 176.87 322.292 175.97 321.25 175.97C320.206 175.97 319.356 176.87 319.356 177.972C319.356 179.073 320.206 179.973 321.25 179.973Z" fill="white"/>
<path fill-rule="evenodd" clip-rule="evenodd" d="M278.074 117.199C278.509 116.504 278.968 114.915 279.429 112.934C279.469 112.757 279.512 112.576 279.553 112.392C267.782 108.612 258.819 97.8807 256.954 84.7998C253.76 83.9943 251.392 80.9479 251.415 77.3265C251.435 73.8566 253.644 70.941 256.65 70.0339L256.679 64.2801C254.431 62.5107 252.661 58.9617 251.638 53.3575C251.309 51.5537 251.057 49.5365 250.891 47.2973C249.263 25.3317 264.089 7.37651 283.859 5.3679C284.051 5.34897 284.248 5.34381 284.449 5.35069C284.585 5.35586 284.724 5.3679 284.862 5.38511C288.739 5.87565 293.42 10.886 293.586 11.0615V11.0633C293.59 11.0667 293.591 11.0684 293.591 11.0684C304.942 3.32488 336.557 20.9514 336.427 46.1975C336.415 48.3713 336.023 50.8412 335.354 53.3558C333.755 59.3713 330.575 65.6432 327.248 68.7534L327.242 69.9255C327.766 69.8016 328.313 69.7379 328.873 69.7413C332.862 69.7689 336.075 73.206 336.047 77.4229C336.021 81.6381 332.77 85.0339 328.779 85.0064C328.106 85.0012 327.455 84.8997 326.838 84.7121C325.179 96.6707 317.599 106.652 307.387 111.22C307.433 111.433 307.478 111.645 307.524 111.853C307.701 112.662 307.879 113.426 308.055 114.117C308.512 115.905 308.962 117.203 309.385 117.509C309.789 117.802 310.193 118.082 310.6 118.351L310.834 118.117C313.12 118.76 315.12 119.795 316.759 121.325C317.02 121.435 317.284 121.545 317.547 121.654C324.275 124.44 332.097 127.16 338.205 129.984C341.735 131.275 346.032 133.86 350.698 135.889C358.201 139.154 369.245 191.089 371.481 207.69C371.587 208.476 369.099 209.782 365.526 211.175L365.797 212.504L367.451 220.617C367.519 221.085 367.555 221.55 367.562 222.011C367.749 222.858 367.837 223.745 367.809 224.653C367.809 224.653 367.755 225.192 367.76 225.361C367.83 227.363 367.825 229.495 367.759 231.727C368.511 231.5 369.226 231.182 369.895 230.781C369.936 228.963 369.934 227.142 369.872 225.326C369.877 225.184 369.893 225.032 369.908 224.896C369.914 224.839 369.918 224.786 369.919 224.724C369.949 223.721 369.864 222.719 369.665 221.738C369.649 221.251 369.607 220.764 369.537 220.282C369.53 220.235 369.524 220.194 369.514 220.147L367.97 212.576C368.967 212.154 369.958 211.693 370.88 211.17C371.437 210.853 372.013 210.488 372.489 210.046C373.225 209.363 373.711 208.447 373.568 207.376C372.764 201.402 371.601 195.361 370.408 189.462C368.832 181.671 367.078 173.894 365.1 166.206C363.305 159.228 361.306 152.034 358.753 145.321C357.488 141.994 354.861 135.292 351.501 133.829C349.273 132.86 347.108 131.748 344.936 130.648C342.997 129.667 341.005 128.657 338.975 127.907C332.091 124.728 324.86 122.313 317.866 119.39C315.978 117.722 313.755 116.631 311.378 115.962C311.21 115.913 311.041 115.888 310.876 115.882C310.854 115.865 310.829 115.85 310.806 115.833C310.486 115.196 310.114 113.738 309.829 112.495C319.387 107.59 326.356 98.2318 328.551 87.2336C328.623 87.2353 328.693 87.237 328.764 87.237C333.919 87.2732 338.122 82.8859 338.156 77.4367C338.185 72.7517 335.119 68.8085 330.982 67.774C333.861 63.9255 336.252 58.4814 337.531 53.3558C338.164 50.8188 338.524 48.3593 338.534 46.2095C338.602 32.9479 330.539 21.5331 320.486 14.4092C316.027 11.2491 310.785 8.66394 305.5 7.55207C301.776 6.76893 297.483 6.63813 293.936 8.33692C293.147 7.58821 292.302 6.87393 291.483 6.24398C289.311 4.57617 286.419 2.86532 283.657 3.14587C273.561 4.17169 264.283 9.20783 257.738 17.4092C251.026 25.8171 247.976 36.5365 248.785 47.4694C248.917 49.2422 249.127 51.2732 249.487 53.3541C250.259 57.8119 251.721 62.4918 254.571 65.3162L254.551 68.4986C251.405 70.1148 249.326 73.5072 249.302 77.3076C249.277 81.3782 251.614 84.9926 255.085 86.4986C257.34 99.0184 265.758 109.444 277.027 113.843C276.825 114.624 276.594 115.409 276.382 115.831C276.325 115.87 276.27 115.912 276.213 115.951C276.203 115.953 276.193 115.956 276.184 115.96C273.807 116.629 271.582 117.719 269.695 119.388C265.509 121.139 261.253 122.714 257.032 124.37C253.012 125.946 248.854 127.605 245.032 129.667C242.188 131.058 239.407 132.564 236.505 133.827C233.145 135.29 230.518 141.993 229.253 145.32C226.7 152.032 224.701 159.227 222.906 166.204C220.928 173.893 219.174 181.669 217.598 189.461C216.405 195.359 215.242 201.402 214.438 207.375C214.293 208.447 214.782 209.361 215.517 210.044C215.995 210.486 216.569 210.853 217.126 211.168C218.048 211.691 219.039 212.153 220.036 212.574L218.492 220.146C218.482 220.192 218.476 220.232 218.469 220.28C218.399 220.762 218.357 221.249 218.341 221.736C218.142 222.717 218.058 223.719 218.087 224.722C218.088 224.782 218.092 224.832 218.098 224.891C218.113 225.032 218.129 225.184 218.134 225.325C218.058 227.588 218.075 229.858 218.149 232.122H220.261C220.181 229.746 220.171 227.478 220.244 225.359C220.249 225.19 220.195 224.652 220.195 224.652C220.169 223.743 220.256 222.857 220.443 222.01C220.449 221.548 220.487 221.084 220.554 220.616L222.208 212.502L222.478 211.173C218.906 209.781 216.418 208.474 216.524 207.688C218.759 191.087 229.804 139.153 237.306 135.888C240.385 134.547 243.303 132.967 245.947 131.674C252.317 128.232 261.95 124.989 270.011 121.65C270.275 121.54 270.539 121.431 270.799 121.321C272.439 119.791 274.438 118.757 276.724 118.113L276.811 118.199C277.143 117.975 277.473 117.745 277.802 117.505C277.888 117.442 277.976 117.339 278.066 117.196L278.074 117.199ZM346.388 216.698C343.829 217.151 342.086 217.223 341.914 216.7C341.173 214.461 340.349 211.955 339.478 209.294C339.198 208.438 338.913 207.569 338.625 206.686L335.324 225.116C336.381 226.574 337.485 228.961 337.537 231.103C337.545 231.438 337.519 231.779 337.465 232.12H339.597C339.637 231.764 339.655 231.404 339.647 231.046C339.595 228.881 338.724 226.488 337.565 224.605L339.227 215.326C339.458 216.03 339.691 216.733 339.924 217.437C340.439 218.991 341.925 219.311 343.283 219.295C343.793 219.289 344.315 219.249 344.84 219.187L345.217 220.672C345.219 220.676 345.219 220.679 345.221 220.683L345.375 221.294C345.375 221.297 345.377 221.301 345.379 221.304L345.452 221.591C345.454 221.597 345.454 221.6 345.455 221.605L346.136 224.28C345.712 226.782 345.419 229.356 345.157 231.874C345.149 231.956 345.144 232.037 345.143 232.118H347.254C347.715 227.717 348.116 225.216 348.293 224.209C348.283 224.159 348.274 224.11 348.265 224.058C348.265 224.058 348 223.015 347.533 221.178C347.232 219.992 346.846 218.474 346.391 216.693L346.388 216.698ZM249.105 207.569C248.815 208.454 248.53 209.323 248.251 210.177C247.486 212.511 246.763 214.712 246.105 216.702C245.931 217.225 244.191 217.153 241.629 216.7C241.177 218.483 240.791 219.999 240.488 221.185C240.021 223.022 239.755 224.065 239.755 224.065C239.747 224.115 239.737 224.165 239.728 224.216C239.905 225.223 240.306 227.724 240.766 232.125H242.878C242.878 232.044 242.873 231.963 242.864 231.881C242.6 229.363 242.308 226.788 241.885 224.287L242.53 221.755C242.53 221.752 242.531 221.75 242.531 221.748L242.719 221.013C242.72 221.008 242.72 221.005 242.722 220.999L242.761 220.844C242.761 220.843 242.761 220.841 242.763 220.838L243.181 219.192C243.704 219.252 244.226 219.294 244.738 219.301C246.096 219.318 247.582 218.996 248.097 217.442C248.234 217.03 248.369 216.619 248.504 216.209L250.008 224.612C248.849 226.497 247.978 228.887 247.926 231.053C247.918 231.412 247.936 231.77 247.976 232.127H250.108C250.054 231.786 250.028 231.443 250.036 231.11C250.086 228.968 251.192 226.581 252.249 225.123L249.106 207.574L249.105 207.569Z" fill="#4B4669"/>
<path fill-rule="evenodd" clip-rule="evenodd" d="M246.49 53.3557C247.261 58.1217 248.73 63.0872 251.612 66.5657V66.7172C248.409 69.0803 246.379 72.9857 246.353 77.2903C246.324 82.0528 248.75 86.3402 252.498 88.6259C254.95 99.7653 261.914 109.221 271.345 114.557C270.236 115.142 269.181 115.839 268.196 116.659C260.151 119.987 251.384 122.746 243.748 126.858C240.962 128.223 238.23 129.702 235.388 130.939C230.976 132.86 228.188 139.767 226.519 144.154C223.922 150.98 221.889 158.287 220.064 165.385C218.072 173.128 216.304 180.961 214.718 188.808C213.512 194.779 212.336 200.891 211.522 206.936C211.235 209.063 212.087 211.008 213.575 212.392C214.226 212.998 214.975 213.49 215.737 213.922C216.035 214.091 216.34 214.254 216.647 214.412L215.612 219.488C215.589 219.6 215.573 219.696 215.557 219.81C215.483 220.321 215.433 220.836 215.407 221.354C215.197 222.495 215.107 223.657 215.141 224.819C215.146 224.961 215.153 225.084 215.167 225.223C215.172 225.276 215.179 225.331 215.182 225.387C215.11 227.631 215.127 229.881 215.198 232.123H218.155C218.08 229.86 218.062 227.59 218.141 225.326C218.136 225.185 218.119 225.034 218.105 224.893C218.098 224.834 218.095 224.782 218.093 224.724C218.064 223.72 218.149 222.719 218.347 221.738C218.364 221.251 218.406 220.764 218.476 220.282C218.483 220.235 218.489 220.194 218.499 220.147L220.042 212.576C219.046 212.154 218.054 211.693 217.133 211.17C216.574 210.853 215.999 210.488 215.524 210.046C214.788 209.362 214.301 208.447 214.444 207.376C215.249 201.402 216.413 195.361 217.605 189.462C219.181 181.671 220.935 173.894 222.913 166.206C224.707 159.228 226.707 152.034 229.26 145.321C230.525 141.994 233.151 135.292 236.512 133.829C239.413 132.566 242.194 131.06 245.039 129.669C248.86 127.607 253.017 125.948 257.039 124.371C261.259 122.715 265.516 121.141 269.702 119.39C271.59 117.722 273.813 116.631 276.19 115.962C276.2 115.958 276.21 115.956 276.22 115.953C276.277 115.913 276.332 115.874 276.389 115.832C276.601 115.411 276.832 114.626 277.034 113.845C265.765 109.443 257.347 99.0201 255.092 86.5003C251.62 84.996 249.282 81.3815 249.308 77.3093C249.331 73.5089 251.41 70.1165 254.558 68.5003L254.577 65.3179C251.726 62.4934 250.266 57.8136 249.494 53.3557C249.134 51.2749 248.922 49.2422 248.792 47.4711C247.983 36.5382 251.032 25.8188 257.744 17.4109C264.29 9.20948 273.567 4.17334 283.664 3.14753C286.425 2.86698 289.317 4.57782 291.489 6.24563C292.308 6.87558 293.153 7.58986 293.943 8.33857C297.491 6.63978 301.783 6.77059 305.507 7.55372C310.792 8.66387 316.033 11.2508 320.493 14.4109C330.547 21.5348 338.608 32.9513 338.54 46.2112C338.529 48.3609 338.169 50.8205 337.537 53.3575C336.259 58.4831 333.867 63.9272 330.988 67.7757C335.126 68.8101 338.192 72.7516 338.162 77.4383C338.128 82.8858 333.924 87.2731 328.771 87.2387C328.699 87.2387 328.627 87.237 328.557 87.2352C326.364 98.2335 319.394 107.591 309.836 112.497C310.121 113.74 310.492 115.197 310.813 115.834C310.836 115.851 310.86 115.867 310.883 115.884C311.049 115.889 311.217 115.915 311.384 115.963C313.762 116.633 315.986 117.722 317.873 119.392C324.866 122.314 332.097 124.731 338.981 127.908C341.013 128.659 343.003 129.669 344.942 130.65C347.114 131.748 349.28 132.86 351.507 133.831C354.868 135.294 357.494 141.996 358.759 145.323C361.313 152.036 363.312 159.23 365.106 166.208C367.085 173.896 368.838 181.672 370.414 189.464C371.608 195.363 372.77 201.406 373.575 207.378C373.72 208.45 373.231 209.364 372.495 210.048C372.018 210.49 371.443 210.856 370.887 211.171C369.965 211.695 368.973 212.156 367.977 212.578L369.52 220.149C369.53 220.196 369.537 220.235 369.543 220.283C369.613 220.765 369.656 221.252 369.672 221.739C369.87 222.72 369.955 223.722 369.926 224.726C369.924 224.788 369.921 224.841 369.914 224.898C369.901 225.034 369.884 225.187 369.879 225.328C369.94 227.144 369.942 228.965 369.901 230.782C371.059 230.091 372.074 229.158 372.883 228.051C372.879 227.163 372.865 226.276 372.837 225.39C372.842 225.335 372.847 225.282 372.852 225.226C372.866 225.087 372.875 224.965 372.878 224.822C372.912 223.66 372.822 222.497 372.612 221.357C372.586 220.841 372.538 220.326 372.463 219.813C372.446 219.7 372.43 219.603 372.407 219.492L371.372 214.416C371.681 214.258 371.984 214.094 372.284 213.925C373.046 213.493 373.795 212.999 374.446 212.395C374.618 212.235 374.781 212.068 374.936 211.893V197.228C374.42 194.406 373.865 191.593 373.303 188.812C371.715 180.965 369.949 173.132 367.957 165.388C366.132 158.29 364.097 150.986 361.501 144.158C359.832 139.77 357.047 132.863 352.632 130.943C348.422 129.11 344.328 126.59 340.061 124.999C333.309 121.891 326.239 119.507 319.377 116.662C317.783 115.333 316.002 114.328 314.104 113.597C322.305 108.368 328.372 99.965 330.918 90.1767C336.676 89.1337 341.075 83.8514 341.114 77.4607C341.144 72.8377 338.882 68.7637 335.455 66.4384C337.745 62.5038 339.564 57.8136 340.585 53.3592C341.16 50.8497 341.482 48.4143 341.494 46.2301C341.567 31.8928 333.032 19.5382 322.137 11.8188C315.022 6.77747 303.468 1.75338 294.532 4.75166C291.313 2.00467 287.204 -0.346446 283.381 0.0425382C272.515 1.14753 262.528 6.5761 255.486 15.4005C248.273 24.4367 244.977 35.9668 245.847 47.7189C245.978 49.4883 246.177 51.4074 246.493 53.3609L246.49 53.3557ZM337.563 224.605C338.722 226.49 339.594 228.881 339.646 231.046C339.654 231.406 339.636 231.764 339.595 232.12H345.139C345.139 232.039 345.144 231.958 345.154 231.875C345.418 229.357 345.709 226.782 346.133 224.282L345.452 221.607C345.45 221.602 345.45 221.598 345.449 221.593L345.375 221.306C345.375 221.302 345.374 221.299 345.372 221.295L345.217 220.684C345.217 220.681 345.216 220.677 345.214 220.674L344.836 219.189C344.314 219.249 343.791 219.29 343.28 219.297C341.922 219.314 340.435 218.992 339.921 217.438C339.688 216.734 339.455 216.032 339.224 215.328L337.561 224.607L337.563 224.605ZM342.454 229.344C342.179 227.516 341.534 225.671 340.675 224.022L341.013 222.13C341.52 222.259 342.047 222.335 342.586 222.369L342.594 222.404C342.596 222.412 342.598 222.419 342.601 222.426L343.111 224.426C342.852 226.053 342.642 227.702 342.454 229.344ZM244.738 219.295C244.228 219.288 243.704 219.249 243.181 219.187L242.763 220.832C242.763 220.834 242.763 220.836 242.761 220.839L242.722 220.994C242.72 220.999 242.72 221.003 242.719 221.008L242.531 221.743C242.531 221.745 242.53 221.748 242.53 221.75L241.885 224.282C242.308 226.784 242.601 229.357 242.864 231.875C242.872 231.958 242.877 232.039 242.878 232.12H247.975C247.934 231.764 247.916 231.404 247.924 231.046C247.976 228.881 248.846 226.488 250.007 224.605L248.502 216.202C248.367 216.614 248.23 217.025 248.095 217.435C247.581 218.989 246.094 219.309 244.736 219.294L244.738 219.295ZM245.399 227.943C245.254 226.767 245.094 225.591 244.909 224.428L245.381 222.569C245.382 222.562 245.384 222.557 245.386 222.552L245.42 222.416C245.42 222.412 245.422 222.411 245.422 222.407L245.431 222.371C245.819 222.345 246.203 222.301 246.576 222.228L246.897 224.023C246.257 225.251 245.736 226.588 245.399 227.944V227.943Z" fill="white"/>
<path fill-rule="evenodd" clip-rule="evenodd" d="M367.954 165.383C369.945 173.127 371.714 180.96 373.3 188.807C373.861 191.588 374.418 194.4 374.933 197.223V153.848C373.62 149.264 372.171 144.707 370.504 140.325C367.659 132.844 363.807 124.705 356.325 121.449C352.035 119.581 348.007 117.132 343.636 115.45C339.745 113.674 335.762 112.128 331.776 110.595C334.582 106.85 336.881 102.683 338.579 98.2145C345.786 94.4383 350.763 86.6053 350.82 77.5261C350.85 72.7671 349.522 68.3316 347.222 64.6294C348.715 60.9392 349.845 57.0838 350.512 53.3574H340.583C339.563 57.8118 337.744 62.502 335.453 66.4366C338.88 68.7619 341.142 72.8359 341.113 77.459C341.072 83.8479 336.674 89.1319 330.917 90.175C328.37 99.965 322.305 108.366 314.102 113.595C316 114.326 317.78 115.332 319.376 116.66C326.237 119.505 333.307 121.889 340.059 124.998C344.325 126.588 348.42 129.108 352.631 130.941C357.043 132.862 359.831 139.769 361.5 144.156C364.097 150.982 366.13 158.288 367.956 165.387L367.954 165.383ZM371.37 214.411L372.406 219.486C372.428 219.598 372.445 219.695 372.461 219.808C372.534 220.319 372.585 220.834 372.611 221.352C372.821 222.493 372.91 223.655 372.876 224.817C372.871 224.96 372.865 225.082 372.85 225.221C372.845 225.275 372.839 225.33 372.835 225.385C372.863 226.271 372.879 227.159 372.881 228.046C374.167 226.285 374.936 224.08 374.936 221.696V211.887C374.781 212.061 374.618 212.23 374.446 212.39C373.794 212.996 373.046 213.488 372.283 213.92C371.986 214.089 371.681 214.252 371.372 214.411H371.37ZM246.576 222.225C246.203 222.297 245.82 222.344 245.431 222.368L245.422 222.404C245.422 222.407 245.42 222.409 245.42 222.412L245.386 222.548C245.384 222.555 245.382 222.56 245.381 222.566L244.909 224.424C245.094 225.588 245.254 226.763 245.399 227.939C245.737 226.583 246.257 225.245 246.897 224.018L246.576 222.223V222.225ZM340.675 224.02C341.534 225.669 342.178 227.516 342.454 229.342C342.64 227.7 342.852 226.051 343.111 224.424L342.601 222.424C342.599 222.418 342.598 222.409 342.594 222.402L342.586 222.368C342.047 222.333 341.518 222.257 341.013 222.128L340.675 224.02ZM251.612 66.564C248.73 63.0855 247.26 58.1199 246.49 53.354H236.667C237.23 57.4986 238.173 61.669 239.729 65.5003C237.782 68.965 236.671 72.9857 236.645 77.2214C236.603 84.0992 239.422 90.4194 244.033 94.755C245.918 101.01 248.952 106.753 252.884 111.695C248.312 113.469 243.779 115.338 239.506 117.624C236.908 118.903 234.343 120.294 231.692 121.447C224.211 124.703 220.358 132.843 217.514 140.323C214.773 147.526 212.622 155.199 210.696 162.69C208.658 170.616 206.849 178.629 205.224 186.66C203.97 192.863 202.755 199.206 201.91 205.486C201.248 210.409 202.794 215.204 205.891 218.776C205.836 219.214 205.792 219.653 205.759 220.096C205.499 221.758 205.392 223.447 205.44 225.134C205.447 225.323 205.453 225.5 205.465 225.674C205.409 227.822 205.426 229.972 205.489 232.12H215.202C215.13 229.875 215.112 227.628 215.185 225.383C215.18 225.328 215.176 225.275 215.171 225.22C215.156 225.08 215.148 224.958 215.145 224.815C215.11 223.653 215.2 222.49 215.41 221.35C215.436 220.834 215.485 220.319 215.56 219.807C215.576 219.693 215.592 219.597 215.615 219.485L216.651 214.409C216.343 214.251 216.039 214.087 215.741 213.918C214.979 213.486 214.23 212.992 213.578 212.388C212.09 211.006 211.238 209.061 211.525 206.932C212.339 200.887 213.515 194.776 214.721 188.805C216.309 180.958 218.075 173.125 220.067 165.381C221.892 158.283 223.927 150.979 226.523 144.151C228.192 139.764 230.978 132.857 235.392 130.936C238.235 129.698 240.965 128.22 243.751 126.855C251.387 122.743 260.154 119.984 268.199 116.655C269.182 115.836 270.237 115.139 271.348 114.554C261.917 109.218 254.952 99.7636 252.501 88.6225C248.753 86.3368 246.327 82.0493 246.356 77.2869C246.382 72.9822 248.413 69.0769 251.615 66.7137V66.5623L251.612 66.564Z" fill="#6F4F70"/>
<path fill-rule="evenodd" clip-rule="evenodd" d="M356.325 121.45C363.807 124.707 367.659 132.846 370.504 140.326C372.171 144.71 373.62 149.266 374.933 153.85V129.165C371.463 122.307 366.782 116.352 359.538 113.199C355.195 111.309 351.211 108.915 346.782 107.168C346.006 106.815 345.226 106.473 344.444 106.135C344.705 105.591 344.955 105.044 345.2 104.492C353.595 98.8135 359.189 88.8979 359.259 77.5846C359.29 72.7361 358.302 68.1285 356.509 63.9925C357.682 60.4607 358.554 56.8635 359.077 53.3557H350.511C349.843 57.082 348.713 60.9392 347.22 64.6277C349.521 68.3299 350.848 72.7653 350.819 77.5244C350.762 86.6035 345.784 94.4366 338.578 98.2128C336.879 102.681 334.58 106.848 331.775 110.593C335.761 112.127 339.742 113.672 343.635 115.449C348.007 117.132 352.033 119.579 356.324 121.447L356.325 121.45ZM201.91 205.49C202.755 199.209 203.97 192.867 205.224 186.664C206.849 178.633 208.658 170.619 210.696 162.693C212.622 155.204 214.773 147.531 217.514 140.326C220.358 132.846 224.211 124.707 231.692 121.45C234.341 120.297 236.908 118.905 239.506 117.628C243.779 115.342 248.312 113.473 252.884 111.698C248.952 106.758 245.92 101.013 244.033 94.7584C239.422 90.4228 236.603 84.1027 236.645 77.2249C236.671 72.9874 237.782 68.9667 239.729 65.5037C238.174 61.6741 237.232 57.5037 236.667 53.3574H228.151C228.628 57.3075 229.39 61.2369 230.546 64.9925C229.055 68.7688 228.229 72.8875 228.203 77.1664C228.151 85.7946 231.349 93.786 236.701 99.6741C237.63 102.38 238.744 104.996 240.027 107.507C238.606 108.17 237.199 108.863 235.815 109.602C233.379 110.807 230.96 112.12 228.478 113.201C218.57 117.512 213.459 127.066 209.682 136.999C206.818 144.529 204.564 152.523 202.55 160.354C200.471 168.437 198.626 176.609 196.969 184.8C195.673 191.206 194.425 197.748 193.553 204.233C192.734 210.311 194.082 216.314 197.112 221.302C197 222.669 196.962 224.042 197.003 225.414C197.008 225.55 197.011 225.683 197.018 225.812C196.972 227.915 196.987 230.02 197.044 232.123H205.489C205.426 229.977 205.409 227.825 205.465 225.677C205.453 225.502 205.447 225.326 205.44 225.137C205.392 223.45 205.497 221.762 205.759 220.099C205.794 219.658 205.838 219.218 205.891 218.779C202.794 215.208 201.248 210.412 201.91 205.49Z" fill="#725673"/>
</svg>
