<svg width="380" height="238" viewBox="0 0 380 238" fill="none" xmlns="http://www.w3.org/2000/svg">
<g clip-path="url(#clip0_214_14169)">
<path fill-rule="evenodd" clip-rule="evenodd" d="M14.9286 48.0068H365.073C373.292 48.0068 380.001 55.0981 380.001 63.7865V221.702C380.001 230.39 373.294 237.482 365.073 237.482H14.9286C6.70929 237.482 0.000976562 230.392 0.000976562 221.702V63.7865C0.000976562 55.0981 6.70766 48.0068 14.9286 48.0068Z" fill="white"/>
<path d="M353.366 53.3596H26.6356C14.7233 53.3596 5.06641 54.4254 5.06641 55.74V229.745C5.06641 231.06 14.7233 232.125 26.6356 232.125H353.366C365.278 232.125 374.935 231.06 374.935 229.745V55.74C374.935 54.4254 365.278 53.3596 353.366 53.3596Z" fill="#F35C6F"/>
<path d="M30.558 138.959C30.558 138.322 30.3431 137.829 29.9198 137.475C29.4932 137.12 28.7474 136.754 27.6826 136.375C26.6144 135.996 25.745 135.628 25.066 135.275C22.8614 134.129 21.7591 132.556 21.7591 130.554C21.7591 129.559 22.031 128.678 22.5813 127.916C23.1317 127.153 23.91 126.563 24.9146 126.136C25.9159 125.711 27.0476 125.499 28.2997 125.499C29.5241 125.499 30.6215 125.731 31.5903 126.191C32.5591 126.65 33.313 127.308 33.8519 128.16C34.3909 129.012 34.6579 129.986 34.6579 131.077H30.5694C30.5694 130.344 30.3545 129.774 29.9312 129.37C29.5046 128.965 28.9298 128.762 28.2085 128.762C27.4742 128.762 26.8961 128.934 26.4728 129.277C26.0462 129.618 25.8345 130.057 25.8345 130.583C25.8345 131.046 26.0706 131.465 26.5363 131.84C27.002 132.215 27.8242 132.602 29.0014 133.003C30.1786 133.404 31.1426 133.838 31.8964 134.298C33.7347 135.42 34.6563 136.962 34.6563 138.934C34.6563 140.508 34.0945 141.742 32.9727 142.64C31.8525 143.539 30.3122 143.99 28.3583 143.99C26.9775 143.99 25.7303 143.728 24.6134 143.205C23.4964 142.681 22.6546 141.965 22.088 141.055C21.5213 140.144 21.2429 139.095 21.2429 137.91H25.3542C25.3542 138.871 25.5903 139.585 26.0609 140.039C26.5314 140.499 27.2967 140.726 28.3583 140.726C29.0356 140.726 29.5697 140.57 29.9653 140.263C30.3561 139.955 30.5548 139.521 30.5548 138.96L30.558 138.959Z" fill="#F0485E"/>
<path d="M36.7599 143.735V125.75H42.2389C43.7417 125.75 45.0948 126.108 46.2948 126.829C47.4948 127.551 48.4327 128.566 49.1019 129.881C49.776 131.196 50.1195 132.668 50.1277 134.299V135.125C50.1277 136.769 49.7971 138.249 49.1393 139.552C48.4815 140.859 47.5551 141.879 46.3599 142.618C45.1632 143.356 43.8313 143.726 42.3594 143.735H36.7599ZM40.863 129.089V140.396H42.2861C43.4633 140.396 44.3686 139.953 44.9987 139.067C45.6289 138.182 45.9447 136.867 45.9447 135.117V134.341C45.9447 132.599 45.6289 131.292 44.9987 130.411C44.3686 129.53 43.447 129.088 42.2389 129.088H40.863V129.089Z" fill="#F0485E"/>
<path d="M53.3987 145.277H50.6063L56.4126 125.75H59.2164L53.3987 145.277Z" fill="#F0485E"/>
<path d="M66.0176 125.75L69.813 138.263L73.5987 125.75H78.9979V143.735H74.8866V139.535L75.2822 130.94L71.1693 143.735H68.4583L64.334 130.928L64.7329 139.535V143.735H60.6282V125.75H66.0176Z" fill="#F0485E"/>
<path d="M85.9732 143.735H81.8864V125.75H85.9732V143.735Z" fill="#F0485E"/>
<path d="M89.9933 145.277H87.2025L93.0088 125.75H95.8126L89.9933 145.277Z" fill="#F0485E"/>
<path d="M30.558 169.316C30.558 168.68 30.3431 168.187 29.9198 167.833C29.4932 167.478 28.7474 167.112 27.6826 166.733C26.6144 166.354 25.745 165.986 25.066 165.633C22.8614 164.487 21.7591 162.914 21.7591 160.912C21.7591 159.917 22.031 159.036 22.5813 158.273C23.1317 157.511 23.91 156.921 24.9146 156.494C25.9159 156.069 27.0476 155.857 28.2997 155.857C29.5241 155.857 30.6215 156.089 31.5903 156.549C32.5591 157.008 33.313 157.666 33.8519 158.518C34.3909 159.37 34.6579 160.344 34.6579 161.435H30.5694C30.5694 160.702 30.3545 160.132 29.9312 159.728C29.5046 159.323 28.9298 159.12 28.2085 159.12C27.4742 159.12 26.8961 159.292 26.4728 159.635C26.0462 159.976 25.8345 160.415 25.8345 160.941C25.8345 161.404 26.0706 161.822 26.5363 162.198C27.002 162.573 27.8242 162.96 29.0014 163.361C30.1786 163.762 31.1426 164.196 31.8964 164.656C33.7347 165.778 34.6563 167.32 34.6563 169.292C34.6563 170.866 34.0945 172.1 32.9727 172.998C31.8525 173.896 30.3122 174.347 28.3583 174.347C26.9775 174.347 25.7303 174.086 24.6134 173.563C23.4964 173.039 22.6546 172.323 22.088 171.413C21.5213 170.502 21.2429 169.452 21.2429 168.268H25.3542C25.3542 169.229 25.5903 169.943 26.0609 170.397C26.5314 170.857 27.2967 171.084 28.3583 171.084C29.0356 171.084 29.5697 170.927 29.9653 170.621C30.3561 170.313 30.5548 169.879 30.5548 169.318L30.558 169.316Z" fill="#F0485E"/>
<path d="M36.7599 174.093V156.108H42.2389C43.7417 156.108 45.0948 156.466 46.2948 157.187C47.4948 157.909 48.4327 158.924 49.1019 160.239C49.776 161.554 50.1195 163.026 50.1277 164.657V165.483C50.1277 167.127 49.7971 168.607 49.1393 169.91C48.4815 171.217 47.5551 172.237 46.3599 172.976C45.1632 173.714 43.8313 174.084 42.3594 174.093H36.7599ZM40.863 159.447V170.754H42.2861C43.4633 170.754 44.3686 170.311 44.9987 169.425C45.6289 168.54 45.9447 167.225 45.9447 165.475V164.699C45.9447 162.957 45.6289 161.65 44.9987 160.769C44.3686 159.888 43.447 159.446 42.2389 159.446H40.863V159.447Z" fill="#F0485E"/>
<path d="M56.3329 170.754H63.4727V174.093H52.2297V156.108H56.3329V170.754Z" fill="#F0485E"/>
<path d="M65.1986 174.093V156.108H71.3094C73.4993 156.108 75.1666 156.53 76.3064 157.377C77.4478 158.224 78.0177 159.456 78.0177 161.065C78.0177 161.993 77.8141 162.79 77.412 163.447C77.0049 164.105 76.4106 164.59 75.6258 164.902C76.5115 165.146 77.1938 165.611 77.6676 166.284C78.1414 166.962 78.3824 167.785 78.3824 168.759C78.3824 170.525 77.8565 171.848 76.7981 172.738C75.7414 173.623 74.1783 174.076 72.1072 174.091H65.2002L65.1986 174.093ZM69.2985 166.428V170.754H71.9867C72.7292 170.754 73.2942 170.573 73.6931 170.215C74.092 169.857 74.2874 169.351 74.2874 168.697C74.2874 167.193 73.5856 166.437 72.1739 166.428H69.2985ZM69.2985 163.595H71.4396C72.3335 163.587 72.9718 163.415 73.3544 163.077C73.737 162.74 73.9292 162.243 73.9292 161.585C73.9292 160.826 73.7224 160.282 73.3072 159.95C72.8969 159.618 72.2309 159.449 71.3094 159.449H69.2985V163.597V163.595Z" fill="#F0485E"/>
<path fill-rule="evenodd" clip-rule="evenodd" d="M21.1045 99.2253V74.9706C21.1045 72.4078 23.086 70.3131 25.5105 70.3131H186.175C186.64 70.3131 187.018 70.7141 187.018 71.2064C187.018 71.6987 186.639 72.098 186.175 72.098H25.5105C24.0174 72.098 22.793 73.3923 22.793 74.9706V99.2253C22.793 99.7176 22.4136 100.117 21.9495 100.117C21.4839 100.117 21.1061 99.7158 21.1061 99.2253H21.1045ZM201.656 70.3148H210.872C211.337 70.3148 211.715 70.7159 211.715 71.2081C211.715 71.7004 211.336 72.0997 210.872 72.0997H201.656C201.19 72.0997 200.811 71.6987 200.811 71.2081C200.811 70.7159 201.19 70.3148 201.656 70.3148ZM186.106 215.174H25.5105C23.086 215.174 21.1045 213.079 21.1045 210.516V201.146C21.1045 200.654 21.4839 200.253 21.9479 200.253C22.4136 200.253 22.7913 200.654 22.7913 201.146V210.516C22.7913 212.094 24.0158 213.389 25.5089 213.389H186.104C186.57 213.389 186.948 213.79 186.948 214.28C186.948 214.773 186.569 215.174 186.104 215.174H186.106Z" fill="white"/>
<path d="M59.0048 183.537H21.1045V190.719H59.0048V183.537Z" fill="#F0485E"/>
<path d="M57.7381 181.752H19.8378V188.934H57.7381V181.752Z" fill="white"/>
<path d="M29.2912 137.174C29.2912 136.537 29.0763 136.045 28.6529 135.69C28.2263 135.335 27.4806 134.969 26.4157 134.59C25.3476 134.212 24.4781 133.843 23.7992 133.49C21.5945 132.344 20.4922 130.771 20.4922 128.769C20.4922 127.774 20.7641 126.893 21.3145 126.131C21.8648 125.368 22.6431 124.778 23.6477 124.351C24.6491 123.926 25.7807 123.714 27.0328 123.714C28.2573 123.714 29.3547 123.946 30.3235 124.406C31.2923 124.866 32.0461 125.523 32.5851 126.375C33.124 127.227 33.3911 128.201 33.3911 129.292H29.3026C29.3026 128.559 29.0877 127.989 28.6643 127.585C28.2377 127.181 27.663 126.977 26.9416 126.977C26.2073 126.977 25.6293 127.15 25.206 127.492C24.7794 127.833 24.5677 128.272 24.5677 128.798C24.5677 129.261 24.8038 129.68 25.2695 130.055C25.7351 130.43 26.5574 130.817 27.7346 131.218C28.9118 131.619 29.8757 132.053 30.6296 132.513C32.4679 133.635 33.3894 135.177 33.3894 137.15C33.3894 138.723 32.8277 139.957 31.7058 140.855C30.5856 141.754 29.0453 142.205 27.0914 142.205C25.7107 142.205 24.4635 141.943 23.3465 141.42C22.2295 140.897 21.3878 140.181 20.8211 139.27C20.2545 138.36 19.9761 137.31 19.9761 136.125H24.0874C24.0874 137.086 24.3235 137.8 24.794 138.255C25.2646 138.714 26.0298 138.941 27.0914 138.941C27.7688 138.941 28.3028 138.785 28.6985 138.478C29.0893 138.17 29.2879 137.736 29.2879 137.175L29.2912 137.174Z" fill="white"/>
<path d="M35.4932 141.95V123.965H40.9722C42.475 123.965 43.8281 124.323 45.0281 125.045C46.2281 125.766 47.1659 126.781 47.8352 128.096C48.5092 129.411 48.8528 130.883 48.8609 132.514V133.341C48.8609 134.984 48.5304 136.465 47.8726 137.768C47.2148 139.074 46.2883 140.095 45.0932 140.833C43.8965 141.571 42.5646 141.941 41.0926 141.95H35.4932ZM39.5963 127.305V138.611H41.0194C42.1966 138.611 43.1019 138.169 43.732 137.282C44.3621 136.397 44.678 135.082 44.678 133.332V132.556C44.678 130.814 44.3621 129.508 43.732 128.626C43.1019 127.745 42.1803 127.303 40.9722 127.303H39.5963V127.305Z" fill="white"/>
<path d="M52.132 143.494H49.3396L55.1475 123.965H57.9513L52.132 143.494Z" fill="white"/>
<path d="M64.7509 123.965L68.5479 136.478L72.3319 123.965H77.7327V141.95H73.6198V137.75L74.0155 129.155L69.9042 141.95H67.1916L63.0673 129.143L63.4662 137.75V141.95H59.363V123.965H64.7509Z" fill="white"/>
<path d="M84.708 141.95H80.6195V123.965H84.708V141.95Z" fill="white"/>
<path d="M88.7282 143.494H85.9358L91.7421 123.965H94.5459L88.7282 143.494Z" fill="white"/>
<path d="M29.2912 167.532C29.2912 166.895 29.0763 166.403 28.6529 166.048C28.2263 165.693 27.4806 165.327 26.4157 164.948C25.3476 164.57 24.4781 164.201 23.7992 163.848C21.5945 162.702 20.4922 161.129 20.4922 159.127C20.4922 158.132 20.7641 157.251 21.3145 156.489C21.8648 155.726 22.6431 155.136 23.6477 154.709C24.6491 154.284 25.7807 154.072 27.0328 154.072C28.2573 154.072 29.3547 154.305 30.3235 154.764C31.2923 155.224 32.0461 155.881 32.5851 156.733C33.124 157.585 33.3911 158.559 33.3911 159.65H29.3026C29.3026 158.917 29.0877 158.348 28.6643 157.943C28.2377 157.539 27.663 157.335 26.9416 157.335C26.2073 157.335 25.6293 157.508 25.206 157.85C24.7794 158.191 24.5677 158.63 24.5677 159.156C24.5677 159.619 24.8038 160.038 25.2695 160.413C25.7351 160.788 26.5574 161.175 27.7346 161.576C28.9118 161.977 29.8757 162.411 30.6296 162.871C32.4679 163.993 33.3894 165.535 33.3894 167.508C33.3894 169.081 32.8277 170.315 31.7058 171.213C30.5856 172.112 29.0453 172.563 27.0914 172.563C25.7107 172.563 24.4635 172.301 23.3465 171.778C22.2295 171.255 21.3878 170.539 20.8211 169.628C20.2545 168.718 19.9761 167.668 19.9761 166.484H24.0874C24.0874 167.444 24.3235 168.158 24.794 168.613C25.2646 169.072 26.0298 169.299 27.0914 169.299C27.7688 169.299 28.3028 169.143 28.6985 168.836C29.0893 168.528 29.2879 168.095 29.2879 167.533L29.2912 167.532Z" fill="white"/>
<path d="M35.4932 172.308V154.323H40.9722C42.475 154.323 43.8281 154.681 45.0281 155.403C46.2281 156.124 47.1659 157.139 47.8352 158.454C48.5092 159.769 48.8528 161.241 48.8609 162.872V163.699C48.8609 165.342 48.5304 166.822 47.8726 168.125C47.2148 169.432 46.2883 170.452 45.0932 171.191C43.8965 171.929 42.5646 172.299 41.0926 172.308H35.4932ZM39.5963 157.662V168.969H41.0194C42.1966 168.969 43.1019 168.526 43.732 167.64C44.3621 166.755 44.678 165.44 44.678 163.69V162.914C44.678 161.172 44.3621 159.866 43.732 158.984C43.1019 158.103 42.1803 157.661 40.9722 157.661H39.5963V157.662Z" fill="white"/>
<path d="M55.0678 168.969H62.2059V172.308H50.963V154.323H55.0678V168.969Z" fill="white"/>
<path d="M63.9335 172.308V154.323H70.0442C72.2342 154.323 73.9015 154.745 75.0413 155.592C76.1826 156.439 76.7525 157.671 76.7525 159.28C76.7525 160.208 76.549 161.005 76.1468 161.662C75.7398 162.32 75.1455 162.805 74.3607 163.117C75.2464 163.361 75.9286 163.826 76.4025 164.499C76.8763 165.177 77.1173 166 77.1173 166.974C77.1173 168.74 76.5913 170.063 75.533 170.953C74.4763 171.838 72.9132 172.291 70.8421 172.306H63.9351L63.9335 172.308ZM68.0334 164.643V168.969H70.7216C71.464 168.969 72.029 168.788 72.428 168.43C72.8269 168.072 73.0223 167.566 73.0223 166.912C73.0223 165.408 72.3205 164.652 70.9088 164.643H68.0334ZM68.0334 161.81H70.1745C71.0684 161.802 71.7066 161.63 72.0893 161.292C72.4719 160.955 72.664 160.458 72.664 159.8C72.664 159.041 72.4573 158.497 72.0421 158.165C71.6317 157.833 70.9658 157.664 70.0442 157.664H68.0334V161.812V161.81Z" fill="white"/>
<path fill-rule="evenodd" clip-rule="evenodd" d="M266.816 122.972C270.716 121.673 274.327 120.039 277.811 117.511C279.073 116.595 280.565 106.919 281.791 101.582C289.663 101.582 297.537 101.582 305.41 101.582C306.634 106.919 308.127 116.595 309.389 117.511C312.874 120.038 316.485 121.673 320.385 122.972L293.779 135.057L266.816 122.972Z" fill="#FCD1C8"/>
<path d="M352.247 146.046C351.183 139.42 345.236 134.962 338.969 136.088C332.701 137.213 328.483 143.497 329.548 150.122C329.716 151.165 348.262 224.065 348.262 224.065C348.975 228.086 351.816 231.136 355.339 232.124H360.317C365.089 230.797 368.209 225.852 367.453 220.618L352.246 146.045L352.247 146.046Z" fill="#FCD1C8"/>
<path fill-rule="evenodd" clip-rule="evenodd" d="M371.483 207.693C371.84 210.347 342.652 218.933 341.915 216.704C338.339 205.905 332.872 188.905 329.144 178.165C325.473 167.587 320.567 136.385 332.196 129.726C336.069 127.509 342.866 132.482 350.702 135.891C358.205 139.156 369.249 191.093 371.485 207.692L371.483 207.693Z" fill="white"/>
<path d="M235.772 146.046C236.837 139.42 242.783 134.962 249.05 136.088C255.319 137.213 259.536 143.497 258.471 150.122C258.303 151.165 239.758 224.065 239.758 224.065C239.045 228.086 236.204 231.136 232.68 232.124H227.703C222.93 230.797 219.81 225.852 220.566 220.618L235.774 146.045L235.772 146.046Z" fill="#FCD1C8"/>
<path fill-rule="evenodd" clip-rule="evenodd" d="M216.536 207.693C216.179 210.347 245.367 218.933 246.105 216.704C249.68 205.905 255.148 188.905 258.875 178.165C262.547 167.587 267.452 136.385 255.824 129.726C251.95 127.509 245.154 132.482 237.317 135.891C229.814 139.156 218.77 191.093 216.534 207.692L216.536 207.693Z" fill="white"/>
<path fill-rule="evenodd" clip-rule="evenodd" d="M270.81 121.327C262.27 124.919 251.732 128.389 245.19 132.105C228.857 141.382 242.671 171.64 246.121 190.898L252.25 225.12C251.193 226.578 250.089 228.965 250.037 231.106C250.029 231.442 250.055 231.783 250.109 232.124H337.466C337.52 231.783 337.546 231.44 337.538 231.106C337.488 228.965 336.382 226.578 335.325 225.12L341.454 190.898C344.902 171.64 358.718 141.382 342.385 132.105C335.841 128.389 325.305 124.919 316.765 121.327L293.787 135.177L270.81 121.327Z" fill="white"/>
<path fill-rule="evenodd" clip-rule="evenodd" d="M282.991 232.125L290.883 147.644L287.211 139.78L293.786 135.177L299.989 139.78L296.318 147.644L304.21 232.125H282.991Z" fill="#FF8091"/>
<path fill-rule="evenodd" clip-rule="evenodd" d="M290.835 147.473C292.675 146.905 294.523 146.915 296.363 147.473C296.453 147.501 296.505 147.599 296.479 147.693C296.453 147.788 296.36 147.843 296.27 147.816C294.491 147.277 292.708 147.267 290.93 147.816C290.84 147.843 290.746 147.788 290.72 147.695C290.694 147.601 290.746 147.501 290.834 147.473H290.835Z" fill="#E65568"/>
<path fill-rule="evenodd" clip-rule="evenodd" d="M270.81 121.327C272.449 119.797 274.449 118.762 276.735 118.119L293.787 135.177L277.699 147.041C277.157 147.44 276.106 146.706 275.965 146.022C274.276 137.869 273.075 129.511 270.81 121.327Z" fill="white"/>
<path fill-rule="evenodd" clip-rule="evenodd" d="M316.763 121.327C315.124 119.797 313.124 118.762 310.838 118.119L293.786 135.177L309.874 147.041C310.417 147.44 311.467 146.706 311.609 146.022C313.297 137.869 314.499 129.511 316.763 121.327Z" fill="white"/>
<path fill-rule="evenodd" clip-rule="evenodd" d="M275.963 146.024C274.275 137.871 273.073 129.513 270.808 121.329C270.548 121.439 270.284 121.549 270.02 121.657C272.244 129.721 273.443 138.024 275.138 146.215C275.395 147.461 277.085 148.582 278.179 147.774L286.973 141.289L290.012 147.797L282.141 232.127H282.989H304.21H305.058L297.187 147.797L300.32 141.086L299.62 140.57L309.391 147.774C310.485 148.582 312.175 147.461 312.432 146.215C314.127 138.024 315.327 129.721 317.55 121.657C317.286 121.547 317.022 121.439 316.762 121.329C314.499 129.513 313.295 137.871 311.607 146.024C311.465 146.707 310.415 147.442 309.873 147.043L294.478 135.69L294.476 135.692L293.783 135.177L293.089 135.69L287.294 139.964L277.696 147.043C277.153 147.442 276.103 146.707 275.962 146.024H275.963ZM318.121 191.327C315.365 191.471 311.213 190.437 310.021 188.155C310.231 188.718 310.465 189.239 310.726 189.707C313.017 193.833 321.101 193.253 325.505 192.148C328.001 191.521 330.566 189.502 331.838 187.017C332.223 186.261 332.49 185.463 332.6 184.649C333.038 181.391 333.506 177.835 333.76 174.96C333.37 178.571 332.99 182.652 331.411 185.764C331.002 186.57 330.512 187.311 329.921 187.962C327.454 190.68 321.679 191.143 318.121 191.327ZM327.466 164.988L312.333 163.413C316.745 164.523 323.299 165.466 327.578 165.699C329.581 165.807 331.39 165.778 332.836 165.571L327.466 164.988ZM340.783 194.637L338.624 206.688C338.912 207.571 339.197 208.442 339.477 209.296L341.556 197.687L342.727 191.153C343.681 185.823 345.747 178.463 345.901 172.828C344.199 179.246 342.419 185.502 341.452 190.898L340.783 194.637ZM249.106 207.569L246.974 195.668L246.119 190.898C244.203 180.199 239.087 166.107 237.719 154.101C237.522 159.449 239.448 169.58 240.972 175.267C242.371 180.487 243.889 185.824 244.844 191.155L246.199 198.719L248.252 210.179C248.532 209.327 248.817 208.456 249.106 207.571V207.569ZM282.989 232.122L290.86 147.817C290.796 147.809 290.739 147.761 290.72 147.692C290.697 147.607 290.734 147.52 290.808 147.482L287.675 140.771L287.802 140.678L293.787 136.265L299.621 140.568L296.393 147.483C296.464 147.521 296.503 147.609 296.481 147.693C296.461 147.764 296.406 147.812 296.34 147.821L304.211 232.125" fill="black" fill-opacity="0.090196"/>
<path d="M220.206 224.656C220.043 219.11 224.111 214.427 229.375 214.158C234.64 213.89 239.291 218.153 239.633 223.692C239.633 223.692 240.147 226.167 240.769 232.125H220.271C220.191 229.75 220.182 227.482 220.255 225.363C220.26 225.194 220.206 224.656 220.206 224.656Z" fill="#FCD1C8"/>
<path d="M367.813 224.656C367.976 219.11 363.909 214.427 358.645 214.158C353.379 213.89 348.729 218.153 348.387 223.692C348.387 223.692 347.872 226.167 347.25 232.125H365.071C366.003 232.125 366.906 231.988 367.763 231.728C367.83 229.495 367.835 227.363 367.765 225.361C367.76 225.193 367.813 224.654 367.813 224.654V224.656Z" fill="#FCD1C8"/>
<path fill-rule="evenodd" clip-rule="evenodd" d="M328.874 69.7452C324.887 69.7176 321.635 73.1135 321.607 77.3286C321.581 81.5438 324.794 84.981 328.78 85.0102C332.77 85.0377 336.022 81.6419 336.048 77.4267C336.076 73.2099 332.863 69.7727 328.874 69.7452Z" fill="#FCD1C8"/>
<path fill-rule="evenodd" clip-rule="evenodd" d="M323.843 77.8777L323.84 77.8691V77.802L323.843 77.771V77.7177C323.871 76.3235 324.416 75.0567 325.281 74.1325C326.176 73.172 327.418 72.5714 328.801 72.5628C330.177 72.5524 331.429 73.1359 332.336 74.0826C333.246 75.0326 333.812 76.3476 333.821 77.8037C333.821 78.012 333.659 78.1858 333.464 78.1858C333.265 78.1858 333.106 78.0154 333.106 77.8072C333.099 76.5645 332.616 75.4354 331.836 74.623C331.058 73.8089 329.985 73.3115 328.806 73.3184C328.407 73.3218 328.019 73.382 327.656 73.4939L327.939 73.4784H327.974C329.099 73.4819 330.12 73.9586 330.862 74.7349C331.613 75.5163 332.08 76.6058 332.09 77.8106V77.814H332.091L332.09 77.8467C332.087 79.0361 331.636 80.1187 330.903 80.9001C330.162 81.6936 329.133 82.1893 327.993 82.1961V82.1996H327.992L327.959 82.1961C326.836 82.1961 325.811 81.7159 325.074 80.9397C324.325 80.1617 323.857 79.0791 323.846 77.8812L323.843 77.8777Z" fill="#F68B85"/>
<path fill-rule="evenodd" clip-rule="evenodd" d="M258.684 69.7452C254.697 69.7176 251.442 73.1135 251.418 77.3286C251.39 81.5438 254.601 84.981 258.588 85.0102C262.576 85.0377 265.832 81.6419 265.855 77.4267C265.883 73.2099 262.67 69.7727 258.684 69.7452Z" fill="#FCD1C8"/>
<path fill-rule="evenodd" clip-rule="evenodd" d="M262.331 77.8777V77.8622H262.335L262.331 77.8261V77.7314V77.7177C262.302 76.3235 261.763 75.0567 260.895 74.1325C259.998 73.172 258.753 72.5714 257.375 72.5628C255.996 72.5524 254.747 73.1359 253.837 74.0826C252.928 75.0326 252.363 76.3476 252.352 77.8037C252.352 78.012 252.51 78.1807 252.709 78.1858C252.906 78.1858 253.067 78.0154 253.068 77.8072C253.075 76.561 253.563 75.4354 254.34 74.623C255.118 73.8089 256.191 73.308 257.372 73.3184C257.771 73.3218 258.157 73.382 258.52 73.4905L258.236 73.4784H258.201C257.076 73.4819 256.056 73.9586 255.315 74.7349C254.563 75.5163 254.098 76.6058 254.088 77.8106H254.084V77.814L254.088 77.8467C254.089 79.0361 254.542 80.1187 255.275 80.9001C256.016 81.6936 257.043 82.1858 258.183 82.1961H258.186V82.1996L258.219 82.1961C259.344 82.1961 260.365 81.7159 261.107 80.9397C261.853 80.1617 262.32 79.0791 262.331 77.8812V77.8777Z" fill="#F68B85"/>
<path fill-rule="evenodd" clip-rule="evenodd" d="M295.248 23.611L289.223 23.568C271.471 23.4475 256.851 38.7039 256.734 57.4698L256.6 79.5163C256.483 98.277 270.915 113.735 288.67 113.855L294.691 113.898C312.445 114.021 327.063 98.7624 327.179 79.9965L327.316 57.9569C327.43 39.1876 312.997 23.7366 295.248 23.6127V23.611Z" fill="#FCD1C8"/>
<path fill-rule="evenodd" clip-rule="evenodd" d="M257.208 51.8898L257.193 51.9776C257.162 52.1755 257.131 52.3735 257.102 52.5748L257.089 52.6609L257.074 52.7452L257.064 52.8296C257.038 53.0206 257.012 53.2117 256.991 53.3993L256.955 53.6919L256.947 53.7797C256.931 53.9139 256.918 54.0499 256.905 54.1807C256.887 54.3631 256.871 54.5421 256.854 54.7229L256.836 54.9621C256.817 55.1893 256.805 55.4199 256.791 55.6488L256.784 55.7831C256.77 56.0447 256.758 56.3098 256.75 56.5748V56.6093C256.739 56.895 256.735 57.1807 256.732 57.4681L256.674 67.2495C257.411 67.6006 258.289 67.8227 259.337 67.8674C268.034 68.2306 272.997 56.833 272.997 56.833L270.882 48.1996C270.882 48.1996 270.621 49.6557 274.498 54.7969C278.373 59.9397 284.402 59.7642 290.691 52.6626C296.979 45.5594 300.514 45.9655 300.514 45.9655L295.601 40.2822C295.601 40.2822 310.006 37.8158 320.114 36.3132C320.22 36.4526 320.329 36.5938 320.433 36.7366L320.639 37.0189C320.743 37.1566 320.842 37.296 320.945 37.4406L321.096 37.6575C321.194 37.802 321.288 37.9432 321.384 38.0843L321.519 38.284C321.62 38.4354 321.718 38.5886 321.817 38.7401L321.979 38.9983C322.078 39.1583 322.177 39.3184 322.273 39.4785L322.397 39.6902C322.49 39.8451 322.583 40.0034 322.674 40.1635L322.79 40.3666C322.881 40.5301 322.972 40.6919 323.061 40.8571L323.164 41.0482C323.262 41.2323 323.356 41.4182 323.454 41.6024L323.563 41.821C323.651 41.9983 323.742 42.1738 323.828 42.3563L323.91 42.5318C323.998 42.7108 324.077 42.8864 324.159 43.0654L324.244 43.2547C324.331 43.4509 324.416 43.642 324.499 43.8382L324.571 44.0103C324.657 44.2134 324.74 44.4199 324.822 44.6248L324.892 44.7969C324.963 44.9879 325.036 45.1773 325.106 45.3666L325.173 45.5456C325.248 45.7538 325.323 45.9621 325.393 46.1721L325.427 46.2788C325.51 46.5146 325.588 46.7538 325.663 46.9914L325.702 47.1101C325.769 47.327 325.838 47.5456 325.903 47.7711L325.94 47.8967C326 48.1205 326.062 48.3425 326.124 48.5697L326.155 48.6816C326.219 48.9225 326.277 49.1652 326.336 49.4062L326.359 49.5025C326.414 49.7435 326.471 49.9828 326.523 50.2203L326.544 50.3322C326.595 50.5714 326.645 50.8072 326.687 51.0464L326.707 51.1342C326.754 51.3958 326.8 51.6523 326.844 51.9156L326.847 51.9449C326.893 52.2099 326.933 52.4785 326.971 52.7487L326.984 52.8227C327.015 53.0723 327.047 53.3218 327.077 53.5662L327.091 53.6798C327.119 53.9328 327.147 54.1841 327.168 54.4371L327.176 54.506C327.202 54.7797 327.22 55.0533 327.243 55.3287L327.244 55.3683C327.262 55.6368 327.274 55.907 327.287 56.1755L327.29 56.2426C327.3 56.5043 327.306 56.7728 327.314 57.0396L327.316 57.1101C327.321 57.3907 327.321 57.6747 327.321 57.9569L327.235 71.8881C325.836 72.1583 324.229 72.37 322.394 72.5129C305.854 73.7865 311.573 55.747 311.573 55.747C311.573 55.747 313.136 53.5989 313.95 53.4836C313.95 53.4836 320.495 46.6557 319.808 45.654C319.116 44.654 301.375 38.37 296.292 37.3666C291.212 36.3649 271.486 41.9191 269.421 42.5576C268.045 42.981 261.474 48.3373 257.213 51.8898H257.208Z" fill="#F8A8A0"/>
<path fill-rule="evenodd" clip-rule="evenodd" d="M263.255 34.0068C259.254 40.1067 256.766 48.3786 256.717 57.4681L256.618 76.8984L256.616 76.9035C259.207 74.0739 259.207 69.1376 259.207 69.1376C266.908 69.1979 263.813 38.9552 263.813 38.9552L263.255 34.0068Z" fill="#352236"/>
<path fill-rule="evenodd" clip-rule="evenodd" d="M321.326 34.3976C325.084 40.5559 327.373 48.8623 327.316 57.9552L327.195 77.3838V77.3889C321.607 77.3287 320.647 69.5748 320.647 69.5748C317.354 68.5955 313.588 67.0086 313.588 60.2323C313.588 51.9569 310.967 42.5594 310.967 42.5594L321.324 34.3976H321.326Z" fill="#352236"/>
<path fill-rule="evenodd" clip-rule="evenodd" d="M285.915 72.6798C286.157 72.3734 286.589 72.3356 286.879 72.592C287.165 72.8485 287.203 73.3046 286.96 73.6075C286.95 73.6213 283.753 77.7194 283.889 78.3235C283.972 78.6815 284.484 79.2925 285.233 79.8261L285.234 79.8227C285.859 80.2702 286.628 80.6351 287.432 80.7246C287.807 80.7641 288.077 81.1204 288.038 81.518C287.997 81.9139 287.662 82.203 287.287 82.16C286.234 82.0413 285.252 81.5834 284.466 81.024H284.469L284.466 81.0223C283.437 80.2908 282.709 79.3218 282.559 78.6592C282.282 77.4268 285.907 72.6901 285.916 72.6781L285.915 72.6798Z" fill="#F68B85"/>
<path d="M285.897 103.057C285.501 103.057 285.102 103.034 284.707 102.993C284.347 102.953 284.088 102.614 284.125 102.236C284.165 101.859 284.49 101.589 284.84 101.621C286.208 101.773 287.568 101.633 288.883 101.201C289.228 101.086 289.591 101.289 289.7 101.652C289.806 102.014 289.613 102.403 289.272 102.515C288.168 102.878 287.038 103.057 285.899 103.057H285.897Z" fill="#F68B85"/>
<path fill-rule="evenodd" clip-rule="evenodd" d="M274.113 68.2168C272.259 68.2271 270.748 69.845 270.763 71.8088L270.771 73.5266C270.782 75.4921 272.311 77.0859 274.167 77.0739C276.023 77.0601 277.533 75.4439 277.52 73.4801L277.51 71.7589C277.497 69.7985 275.97 68.203 274.112 68.215L274.113 68.2168Z" fill="#4C466A"/>
<path fill-rule="evenodd" clip-rule="evenodd" d="M299.893 68.2168C298.037 68.2271 296.529 69.845 296.539 71.8088L296.552 73.5266C296.564 75.4921 298.091 77.0859 299.949 77.0739C301.803 77.0601 303.311 75.4439 303.301 73.4801L303.288 71.7589C303.278 69.7985 301.749 68.203 299.893 68.215V68.2168Z" fill="#4C466A"/>
<path fill-rule="evenodd" clip-rule="evenodd" d="M276.73 86.2874C277.845 86.7211 288.09 89.9913 296.609 84.4096C298.162 83.3924 298.267 86.2925 297.765 88.2237C295.811 95.7641 290.798 100.205 285.928 100.294C283.461 100.339 281.107 99.2581 279.206 97.0533C277.456 95.0223 276.098 92.0481 275.418 88.1445C275.274 87.3183 275.569 86.4526 276.077 86.2134C276.3 86.1101 276.564 86.2237 276.73 86.2891V86.2874Z" fill="white"/>
<path fill-rule="evenodd" clip-rule="evenodd" d="M300.514 45.9638C300.514 45.9638 301.088 55.4819 311.615 55.2151C310.651 65.8519 312.571 70.3063 320.648 69.5748C326.648 75.5886 336.372 57.1514 336.427 46.2013C336.558 20.9552 304.942 3.32873 293.592 11.0723C293.592 11.0723 287.942 4.95523 283.862 5.37003C264.092 7.37864 249.265 25.3339 250.893 47.2994C252.637 70.8502 263.919 69.8226 274.407 54.919L274.498 54.7951C275.297 56.2426 276.886 57.5283 280.024 57.4905C287.087 57.3992 293.268 43.9913 300.514 45.9638Z" fill="#735974"/>
<path fill-rule="evenodd" clip-rule="evenodd" d="M293.589 11.0653C293.418 10.8829 288.399 5.51456 284.451 5.35449C278.992 16.1961 286.893 25.2237 286.893 25.2237C287.805 16.5903 293.581 11.0894 293.581 11.0894L293.589 11.0653Z" fill="#352236"/>
<path d="M305.478 64.1996C305.278 64.1996 305.081 64.1032 304.954 63.9208C301.961 59.6454 295.577 62.0206 295.512 62.0447C295.173 62.1738 294.8 61.9862 294.676 61.6334C294.558 61.2736 294.728 60.8795 295.067 60.7487C295.365 60.6334 302.427 57.9965 306.002 63.1015C306.214 63.4062 306.152 63.8399 305.862 64.0637C305.747 64.1532 305.61 64.1979 305.476 64.1979L305.478 64.1996Z" fill="#4C466A"/>
<path d="M270.258 64.0412C270.124 64.0412 269.989 63.9999 269.874 63.9104C269.584 63.6815 269.522 63.2529 269.737 62.9483C272.614 58.8381 278.274 60.95 278.513 61.0447C278.85 61.1755 279.026 61.5696 278.902 61.9242C278.778 62.2804 278.407 62.4698 278.07 62.3355C278.021 62.32 273.081 60.4853 270.784 63.7658C270.658 63.9483 270.463 64.0429 270.259 64.0429L270.258 64.0412Z" fill="#4C466A"/>
<path fill-rule="evenodd" clip-rule="evenodd" d="M250.802 42.389C265.936 49.9363 286.21 34.8124 286.21 34.8124C271.774 35.9277 263.224 29.3615 258.201 20.3752C253.813 26.4854 251.115 34.0603 250.802 42.389Z" fill="#9E6D82"/>
<path fill-rule="evenodd" clip-rule="evenodd" d="M278.075 117.203C287.31 120.313 297.767 119.076 308.057 114.12C307.881 113.43 307.704 112.666 307.525 111.857C303.562 113.21 299.338 113.928 294.961 113.898L287.441 113.845C284.699 113.826 282.019 113.515 279.43 112.938C278.969 114.919 278.51 116.508 278.075 117.203Z" fill="#F8A8A0"/>
<path fill-rule="evenodd" clip-rule="evenodd" d="M359.77 214.285C361.773 213.552 363.783 212.976 365.801 212.506L365.53 211.177C359.876 213.38 351.503 215.797 346.391 216.7C346.843 218.482 347.229 220 347.532 221.186C348.167 220.678 348.802 220.196 349.439 219.738C352.853 217.289 356.302 215.552 359.771 214.282L359.77 214.285Z" fill="#F8A8A0"/>
<path fill-rule="evenodd" clip-rule="evenodd" d="M228.25 214.284C226.247 213.551 224.236 212.974 222.219 212.506L222.489 211.177C228.144 213.38 236.516 215.797 241.629 216.7C241.176 218.483 240.79 220 240.487 221.186C239.852 220.678 239.217 220.196 238.581 219.738C235.166 217.289 231.718 215.552 228.248 214.282L228.25 214.284Z" fill="#F8A8A0"/>
<path fill-rule="evenodd" clip-rule="evenodd" d="M321.251 183.884C324.33 183.884 326.842 181.229 326.842 177.976C326.842 174.721 324.33 172.065 321.251 172.065C318.17 172.065 315.659 174.721 315.659 177.976C315.659 181.23 318.17 183.884 321.251 183.884Z" fill="#FF8091"/>
<path fill-rule="evenodd" clip-rule="evenodd" d="M321.251 181.936C323.314 181.936 324.997 180.156 324.997 177.976C324.997 175.795 323.314 174.015 321.251 174.015C319.188 174.015 317.504 175.795 317.504 177.976C317.504 180.156 319.188 181.936 321.251 181.936Z" fill="#BC766D"/>
<path fill-rule="evenodd" clip-rule="evenodd" d="M321.251 179.977C322.295 179.977 323.144 179.079 323.144 177.976C323.144 176.874 322.293 175.974 321.251 175.974C320.207 175.974 319.357 176.874 319.357 177.976C319.357 179.077 320.207 179.977 321.251 179.977Z" fill="white"/>
<path fill-rule="evenodd" clip-rule="evenodd" d="M278.075 117.203C278.51 116.508 278.969 114.919 279.43 112.938C279.47 112.761 279.513 112.58 279.553 112.396C267.783 108.616 258.82 97.8845 256.955 84.8036C253.761 83.9981 251.393 80.9517 251.416 77.3303C251.436 73.8604 253.645 70.9448 256.651 70.0377L256.68 64.2838C254.432 62.5145 252.662 58.9654 251.639 53.3613C251.31 51.5575 251.058 49.5403 250.892 47.3011C249.264 25.3355 264.09 7.38029 283.86 5.37169C284.052 5.35275 284.249 5.34759 284.45 5.35448C284.586 5.35964 284.725 5.37169 284.863 5.3889C288.74 5.87943 293.421 10.8898 293.587 11.0653V11.067C293.59 11.0705 293.592 11.0722 293.592 11.0722C304.942 3.32866 336.558 20.9552 336.428 46.2013C336.416 48.3751 336.024 50.845 335.355 53.3596C333.756 59.3751 330.576 65.647 327.249 68.7572L327.243 69.9293C327.767 69.8054 328.314 69.7417 328.874 69.7451C332.863 69.7727 336.076 73.2098 336.048 77.4267C336.022 81.6418 332.771 85.0377 328.78 85.0102C328.107 85.005 327.456 84.9035 326.839 84.7158C325.18 96.6745 317.6 106.656 307.388 111.224C307.434 111.437 307.479 111.649 307.525 111.857C307.702 112.666 307.88 113.43 308.056 114.12C308.513 115.909 308.963 117.206 309.386 117.513C309.79 117.805 310.194 118.086 310.601 118.354L310.835 118.12C313.121 118.764 315.121 119.798 316.76 121.329C317.021 121.439 317.284 121.549 317.548 121.657C324.276 124.444 332.098 127.163 338.206 129.988C341.736 131.279 346.033 133.864 350.699 135.893C358.202 139.158 369.246 191.093 371.482 207.693C371.588 208.48 369.1 209.786 365.527 211.179L365.798 212.507L367.452 220.621C367.52 221.089 367.556 221.554 367.563 222.015C367.75 222.862 367.838 223.748 367.81 224.657C367.81 224.657 367.756 225.196 367.761 225.365C367.831 227.366 367.826 229.499 367.76 231.731C368.512 231.504 369.227 231.186 369.896 230.785C369.937 228.967 369.935 227.146 369.873 225.33C369.878 225.187 369.894 225.036 369.909 224.9C369.915 224.843 369.919 224.79 369.92 224.728C369.95 223.724 369.865 222.723 369.666 221.742C369.65 221.254 369.608 220.767 369.538 220.285C369.531 220.239 369.525 220.198 369.515 220.151L367.971 212.58C368.968 212.158 369.959 211.697 370.881 211.174C371.438 210.857 372.014 210.492 372.49 210.05C373.226 209.366 373.712 208.451 373.569 207.38C372.765 201.406 371.602 195.365 370.409 189.466C368.833 181.674 367.079 173.898 365.101 166.21C363.306 159.232 361.307 152.038 358.754 145.325C357.489 141.998 354.862 135.296 351.502 133.833C349.274 132.864 347.109 131.752 344.937 130.652C342.997 129.671 341.006 128.661 338.976 127.91C332.092 124.731 324.861 122.316 317.867 119.394C315.979 117.726 313.756 116.635 311.379 115.965C311.211 115.917 311.042 115.891 310.877 115.886C310.855 115.869 310.83 115.854 310.807 115.836C310.487 115.199 310.115 113.742 309.83 112.499C319.388 107.594 326.357 98.2356 328.552 87.2374C328.623 87.2391 328.693 87.2408 328.765 87.2408C333.92 87.2769 338.123 82.8897 338.157 77.4405C338.186 72.7554 335.12 68.8122 330.983 67.7778C333.862 63.9293 336.253 58.4852 337.532 53.3596C338.165 50.8226 338.525 48.363 338.535 46.2133C338.603 32.9517 330.54 21.5369 320.487 14.413C316.028 11.2529 310.786 8.66773 305.501 7.55585C301.777 6.77272 297.484 6.64191 293.937 8.3407C293.148 7.59199 292.303 6.87771 291.484 6.24776C289.311 4.57995 286.42 2.86911 283.658 3.14966C273.562 4.17548 264.284 9.21161 257.738 17.413C251.027 25.8209 247.977 36.5403 248.786 47.4732C248.918 49.246 249.128 51.277 249.488 53.3579C250.26 57.8157 251.722 62.4956 254.572 65.32L254.552 68.5024C251.406 70.1186 249.327 73.511 249.303 77.3114C249.278 81.3819 251.615 84.9964 255.086 86.5024C257.341 99.0222 265.759 109.447 277.028 113.847C276.826 114.628 276.595 115.413 276.383 115.835C276.326 115.874 276.271 115.915 276.214 115.955C276.204 115.957 276.194 115.96 276.185 115.964C273.807 116.633 271.583 117.723 269.696 119.392C265.51 121.143 261.254 122.718 257.033 124.373C253.013 125.95 248.855 127.609 245.033 129.671C242.189 131.062 239.408 132.568 236.506 133.831C233.146 135.294 230.519 141.996 229.254 145.323C226.701 152.036 224.702 159.23 222.907 166.208C220.929 173.896 219.175 181.673 217.599 189.464C216.406 195.363 215.243 201.406 214.439 207.378C214.294 208.451 214.782 209.365 215.518 210.048C215.996 210.49 216.57 210.857 217.127 211.172C218.049 211.695 219.04 212.156 220.037 212.578L218.493 220.149C218.483 220.196 218.477 220.236 218.47 220.284C218.4 220.766 218.358 221.253 218.342 221.74C218.143 222.721 218.058 223.723 218.088 224.726C218.089 224.786 218.093 224.836 218.099 224.895C218.114 225.036 218.13 225.187 218.135 225.328C218.058 227.592 218.076 229.862 218.15 232.125H220.261C220.182 229.75 220.172 227.482 220.245 225.363C220.25 225.194 220.196 224.655 220.196 224.655C220.17 223.747 220.257 222.86 220.444 222.013C220.45 221.552 220.488 221.087 220.555 220.619L222.209 212.506L222.479 211.177C218.907 209.785 216.419 208.478 216.525 207.692C218.76 191.091 229.805 139.156 237.307 135.891C240.386 134.551 243.304 132.971 245.948 131.678C252.318 128.236 261.951 124.993 270.012 121.654C270.276 121.544 270.54 121.435 270.8 121.325C272.44 119.795 274.439 118.761 276.725 118.117L276.812 118.203C277.144 117.979 277.474 117.749 277.803 117.509C277.889 117.446 277.977 117.342 278.067 117.199L278.075 117.203ZM346.389 216.702C343.83 217.155 342.087 217.227 341.915 216.704C341.174 214.464 340.35 211.958 339.479 209.297C339.199 208.442 338.914 207.573 338.626 206.69L335.325 225.12C336.382 226.578 337.486 228.965 337.538 231.106C337.546 231.442 337.52 231.783 337.466 232.124H339.598C339.638 231.767 339.656 231.408 339.648 231.05C339.596 228.884 338.725 226.492 337.566 224.609L339.228 215.33C339.459 216.034 339.692 216.736 339.925 217.44C340.44 218.995 341.926 219.315 343.284 219.299C343.794 219.292 344.316 219.253 344.841 219.191L345.218 220.676C345.22 220.68 345.22 220.683 345.222 220.686L345.376 221.297C345.376 221.301 345.378 221.304 345.38 221.308L345.453 221.595C345.454 221.6 345.454 221.604 345.456 221.609L346.137 224.284C345.713 226.786 345.42 229.359 345.158 231.877C345.15 231.96 345.145 232.041 345.144 232.122H347.255C347.716 227.721 348.117 225.22 348.294 224.213C348.284 224.163 348.275 224.113 348.266 224.062C348.266 224.062 348.001 223.019 347.534 221.182C347.233 219.996 346.847 218.478 346.392 216.697L346.389 216.702ZM249.106 207.573C248.816 208.458 248.531 209.327 248.252 210.18C247.487 212.514 246.764 214.716 246.106 216.705C245.932 217.229 244.192 217.156 241.63 216.704C241.178 218.487 240.792 220.003 240.489 221.189C240.022 223.026 239.756 224.069 239.756 224.069C239.748 224.118 239.738 224.168 239.729 224.22C239.906 225.227 240.307 227.728 240.767 232.129H242.879C242.879 232.048 242.874 231.967 242.865 231.884C242.601 229.366 242.309 226.791 241.886 224.291L242.531 221.759C242.531 221.755 242.532 221.754 242.532 221.752L242.72 221.017C242.721 221.012 242.721 221.008 242.723 221.003L242.762 220.848C242.762 220.847 242.762 220.845 242.764 220.841L243.182 219.196C243.705 219.256 244.227 219.297 244.739 219.304C246.097 219.322 247.583 219 248.098 217.445C248.234 217.034 248.37 216.623 248.505 216.213L250.009 224.616C248.85 226.501 247.979 228.891 247.927 231.056C247.919 231.416 247.937 231.774 247.977 232.131H250.109C250.055 231.79 250.029 231.447 250.037 231.113C250.087 228.972 251.193 226.585 252.25 225.127L249.107 207.578L249.106 207.573Z" fill="#B80E3C"/>
<path fill-rule="evenodd" clip-rule="evenodd" d="M246.491 53.3596C247.262 58.1256 248.731 63.0911 251.613 66.5696V66.7211C248.41 69.0843 246.38 72.9896 246.354 77.2942C246.325 82.0567 248.751 86.3441 252.499 88.6298C254.951 99.7692 261.915 109.225 271.346 114.561C270.237 115.146 269.182 115.843 268.197 116.663C260.152 119.991 251.385 122.75 243.749 126.862C240.963 128.227 238.231 129.706 235.389 130.943C230.977 132.864 228.189 139.771 226.52 144.158C223.923 150.984 221.89 158.291 220.065 165.389C218.073 173.132 216.305 180.965 214.719 188.812C213.513 194.783 212.337 200.895 211.523 206.94C211.236 209.067 212.088 211.012 213.576 212.396C214.227 213.002 214.976 213.494 215.738 213.926C216.036 214.094 216.341 214.258 216.648 214.416L215.613 219.492C215.59 219.604 215.574 219.7 215.558 219.814C215.484 220.325 215.434 220.84 215.408 221.358C215.198 222.499 215.108 223.661 215.142 224.822C215.147 224.965 215.154 225.088 215.168 225.227C215.173 225.28 215.18 225.335 215.183 225.39C215.111 227.635 215.128 229.884 215.199 232.127H218.156C218.081 229.864 218.063 227.594 218.142 225.33C218.137 225.189 218.12 225.038 218.106 224.897C218.099 224.838 218.096 224.786 218.094 224.728C218.065 223.724 218.15 222.723 218.348 221.742C218.365 221.255 218.407 220.767 218.477 220.285C218.484 220.239 218.49 220.198 218.5 220.151L220.043 212.58C219.047 212.158 218.055 211.697 217.134 211.174C216.575 210.857 216 210.492 215.525 210.05C214.789 209.366 214.302 208.451 214.445 207.38C215.25 201.406 216.414 195.365 217.606 189.466C219.182 181.675 220.936 173.898 222.914 166.21C224.708 159.232 226.708 152.038 229.261 145.325C230.526 141.998 233.152 135.296 236.513 133.833C239.414 132.57 242.195 131.064 245.04 129.673C248.861 127.611 253.018 125.952 257.04 124.375C261.26 122.719 265.517 121.144 269.703 119.394C271.592 117.726 273.814 116.635 276.191 115.965C276.201 115.962 276.211 115.96 276.221 115.957C276.278 115.917 276.333 115.878 276.39 115.836C276.602 115.415 276.833 114.63 277.035 113.848C265.766 109.447 257.348 99.024 255.093 86.5042C251.621 84.9999 249.283 81.3854 249.309 77.3132C249.332 73.5128 251.411 70.1204 254.559 68.5042L254.578 65.3218C251.727 62.4973 250.267 57.8175 249.495 53.3596C249.135 51.2788 248.923 49.2461 248.793 47.475C247.984 36.5421 251.033 25.8227 257.745 17.4148C264.291 9.21339 273.568 4.17725 283.665 3.15143C286.426 2.87088 289.318 4.58172 291.49 6.24954C292.309 6.87949 293.154 7.59377 293.944 8.34248C297.492 6.64368 301.784 6.77449 305.508 7.55763C310.793 8.66778 316.034 11.2547 320.494 14.4148C330.548 21.5387 338.609 32.9552 338.541 46.2151C338.53 48.3648 338.17 50.8244 337.538 53.3614C336.26 58.487 333.868 63.9311 330.989 67.7796C335.127 68.814 338.193 72.7555 338.163 77.4422C338.129 82.8897 333.925 87.277 328.772 87.2426C328.7 87.2426 328.628 87.2409 328.558 87.2391C326.365 98.2374 319.395 107.595 309.837 112.501C310.122 113.743 310.493 115.201 310.814 115.838C310.837 115.855 310.861 115.871 310.884 115.888C311.05 115.893 311.218 115.919 311.385 115.967C313.763 116.637 315.987 117.726 317.874 119.396C324.867 122.318 332.098 124.735 338.982 127.912C341.014 128.663 343.004 129.673 344.943 130.654C347.115 131.752 349.281 132.864 351.508 133.835C354.869 135.298 357.495 142 358.76 145.327C361.314 152.039 363.313 159.234 365.107 166.212C367.086 173.9 368.839 181.676 370.415 189.468C371.609 195.366 372.771 201.409 373.576 207.382C373.721 208.454 373.232 209.368 372.496 210.051C372.019 210.494 371.444 210.86 370.888 211.175C369.966 211.699 368.974 212.16 367.978 212.582L369.521 220.153C369.531 220.199 369.538 220.239 369.544 220.287C369.614 220.769 369.657 221.256 369.673 221.743C369.871 222.724 369.956 223.726 369.927 224.73C369.925 224.792 369.922 224.845 369.915 224.902C369.902 225.038 369.885 225.191 369.88 225.332C369.941 227.148 369.943 228.969 369.902 230.786C371.06 230.094 372.075 229.162 372.884 228.055C372.88 227.167 372.866 226.28 372.838 225.394C372.843 225.339 372.848 225.285 372.853 225.23C372.867 225.091 372.876 224.969 372.879 224.826C372.913 223.664 372.823 222.501 372.613 221.361C372.587 220.845 372.539 220.33 372.464 219.817C372.447 219.704 372.431 219.607 372.408 219.495L371.373 214.42C371.682 214.261 371.985 214.098 372.285 213.929C373.047 213.497 373.796 213.003 374.447 212.399C374.619 212.239 374.782 212.072 374.937 211.897V197.232C374.421 194.409 373.866 191.597 373.304 188.816C371.716 180.969 369.95 173.136 367.958 165.392C366.133 158.294 364.098 150.99 361.502 144.162C359.833 139.774 357.048 132.867 352.633 130.947C348.423 129.113 344.329 126.594 340.062 125.003C333.31 121.895 326.24 119.511 319.378 116.666C317.784 115.337 316.003 114.332 314.105 113.601C322.306 108.372 328.373 99.9689 330.919 90.1806C336.677 89.1376 341.076 83.8553 341.115 77.4646C341.145 72.8416 338.883 68.7676 335.456 66.4423C337.747 62.5077 339.565 57.8175 340.586 53.3631C341.161 50.8536 341.483 48.4182 341.495 46.234C341.568 31.8967 333.033 19.5421 322.138 11.8227C315.023 6.78138 303.469 1.75729 294.533 4.75556C291.314 2.00858 287.205 -0.34254 283.382 0.0464445C272.516 1.15143 262.529 6.58 255.487 15.4044C248.274 24.4406 244.978 35.9707 245.848 47.7228C245.979 49.4922 246.178 51.4113 246.494 53.3648L246.491 53.3596ZM337.564 224.609C338.723 226.494 339.595 228.884 339.647 231.05C339.655 231.409 339.637 231.767 339.596 232.124H345.14C345.14 232.043 345.145 231.962 345.155 231.879C345.419 229.361 345.71 226.786 346.134 224.285L345.453 221.611C345.451 221.606 345.451 221.602 345.45 221.597L345.376 221.31C345.376 221.306 345.375 221.303 345.373 221.299L345.218 220.688C345.218 220.685 345.217 220.681 345.215 220.678L344.837 219.193C344.315 219.253 343.792 219.294 343.281 219.301C341.923 219.318 340.436 218.996 339.922 217.442C339.689 216.738 339.456 216.036 339.225 215.332L337.563 224.611L337.564 224.609ZM342.455 229.347C342.18 227.52 341.535 225.674 340.676 224.026L341.014 222.134C341.521 222.263 342.048 222.339 342.587 222.373L342.595 222.408C342.597 222.416 342.599 222.423 342.602 222.43L343.112 224.43C342.853 226.057 342.643 227.705 342.455 229.347ZM244.739 219.299C244.229 219.292 243.705 219.253 243.182 219.191L242.764 220.836C242.764 220.838 242.764 220.84 242.762 220.843L242.723 220.998C242.721 221.003 242.721 221.007 242.72 221.012L242.532 221.747C242.532 221.748 242.531 221.752 242.531 221.754L241.886 224.285C242.309 226.788 242.602 229.361 242.865 231.879C242.873 231.962 242.878 232.043 242.879 232.124H247.976C247.935 231.767 247.917 231.408 247.925 231.05C247.977 228.884 248.847 226.492 250.008 224.609L248.503 216.206C248.368 216.618 248.231 217.029 248.096 217.439C247.582 218.993 246.095 219.313 244.737 219.298L244.739 219.299ZM245.4 227.946C245.255 226.771 245.095 225.595 244.91 224.432L245.382 222.573C245.384 222.566 245.385 222.561 245.387 222.556L245.421 222.42C245.421 222.416 245.423 222.415 245.423 222.411L245.432 222.375C245.82 222.349 246.204 222.304 246.577 222.232L246.898 224.027C246.258 225.255 245.737 226.592 245.4 227.948V227.946Z" fill="white"/>
<path fill-rule="evenodd" clip-rule="evenodd" d="M367.955 165.387C369.946 173.131 371.715 180.964 373.301 188.81C373.862 191.592 374.419 194.404 374.934 197.227V153.852C373.621 149.268 372.172 144.711 370.505 140.329C367.66 132.848 363.808 124.709 356.326 121.453C352.036 119.585 348.008 117.136 343.637 115.454C339.746 113.678 335.763 112.132 331.777 110.599C334.583 106.854 336.882 102.687 338.58 98.2185C345.787 94.4422 350.764 86.6092 350.821 77.53C350.851 72.771 349.523 68.3355 347.223 64.6333C348.716 60.9431 349.846 57.0877 350.513 53.3614H340.585C339.564 57.8157 337.745 62.5059 335.454 66.4405C338.881 68.7658 341.143 72.8398 341.114 77.4629C341.073 83.8519 336.675 89.1358 330.918 90.1789C328.371 99.9689 322.306 108.37 314.103 113.599C316.001 114.33 317.781 115.335 319.377 116.664C326.238 119.509 333.308 121.893 340.06 125.002C344.326 126.592 348.421 129.112 352.632 130.945C357.044 132.866 359.832 139.773 361.501 144.16C364.098 150.986 366.131 158.292 367.957 165.391L367.955 165.387ZM371.371 214.415L372.407 219.49C372.429 219.602 372.446 219.699 372.462 219.812C372.535 220.323 372.586 220.838 372.612 221.356C372.822 222.497 372.911 223.659 372.877 224.821C372.872 224.964 372.866 225.086 372.851 225.225C372.846 225.279 372.84 225.334 372.837 225.389C372.864 226.275 372.88 227.163 372.882 228.05C374.168 226.289 374.937 224.084 374.937 221.7V211.891C374.782 212.065 374.619 212.234 374.447 212.394C373.796 213 373.047 213.492 372.285 213.924C371.987 214.093 371.682 214.256 371.373 214.415H371.371ZM246.577 222.229C246.204 222.301 245.821 222.347 245.432 222.372L245.423 222.408C245.423 222.411 245.421 222.413 245.421 222.416L245.387 222.552C245.385 222.559 245.383 222.564 245.382 222.569L244.91 224.428C245.095 225.592 245.255 226.767 245.4 227.943C245.738 226.587 246.258 225.249 246.898 224.022L246.577 222.227V222.229ZM340.676 224.024C341.535 225.673 342.179 227.52 342.455 229.346C342.641 227.704 342.853 226.055 343.112 224.428L342.602 222.428C342.6 222.421 342.599 222.413 342.595 222.406L342.587 222.372C342.048 222.337 341.519 222.261 341.014 222.132L340.676 224.024ZM251.613 66.5679C248.731 63.0894 247.261 58.1238 246.491 53.3579H236.668C237.231 57.5025 238.174 61.6729 239.73 65.5042C237.783 68.9689 236.672 72.9896 236.646 77.2254C236.604 84.1031 239.423 90.4233 244.034 94.7589C245.919 101.014 248.953 106.757 252.885 111.699C248.313 113.473 243.78 115.342 239.507 117.628C236.909 118.907 234.344 120.298 231.693 121.451C224.212 124.707 220.359 132.847 217.515 140.327C214.774 147.53 212.624 155.203 210.697 162.693C208.659 170.619 206.85 178.633 205.225 186.664C203.971 192.867 202.756 199.21 201.911 205.49C201.249 210.413 202.796 215.208 205.892 218.779C205.837 219.218 205.793 219.657 205.76 220.1C205.5 221.762 205.393 223.451 205.441 225.137C205.448 225.327 205.454 225.504 205.466 225.678C205.41 227.826 205.427 229.976 205.49 232.124H215.203C215.131 229.879 215.113 227.631 215.186 225.387C215.181 225.332 215.177 225.279 215.172 225.223C215.157 225.084 215.149 224.962 215.146 224.819C215.111 223.657 215.201 222.494 215.411 221.354C215.437 220.838 215.486 220.323 215.561 219.81C215.577 219.697 215.593 219.6 215.616 219.489L216.652 214.413C216.344 214.254 216.04 214.091 215.742 213.922C214.98 213.49 214.231 212.996 213.579 212.392C212.091 211.01 211.24 209.065 211.526 206.936C212.34 200.891 213.516 194.779 214.722 188.809C216.31 180.962 218.076 173.129 220.068 165.385C221.893 158.287 223.928 150.983 226.524 144.155C228.193 139.767 230.979 132.86 235.393 130.94C238.236 129.702 240.966 128.224 243.752 126.859C251.388 122.747 260.155 119.988 268.2 116.659C269.183 115.84 270.238 115.143 271.349 114.558C261.918 109.222 254.953 99.7675 252.502 88.6264C248.754 86.3407 246.328 82.0532 246.357 77.2908C246.383 72.9861 248.414 69.0808 251.616 66.7176V66.5662L251.613 66.5679Z" fill="#F0485E"/>
<path fill-rule="evenodd" clip-rule="evenodd" d="M356.326 121.454C363.808 124.711 367.66 132.85 370.505 140.33C372.172 144.714 373.621 149.27 374.934 153.854V129.169C371.464 122.311 366.783 116.356 359.539 113.203C355.196 111.313 351.212 108.919 346.783 107.172C346.007 106.819 345.227 106.477 344.445 106.139C344.706 105.595 344.956 105.048 345.201 104.496C353.596 98.8174 359.19 88.9018 359.26 77.5885C359.291 72.74 358.303 68.1324 356.51 63.9964C357.683 60.4646 358.555 56.8674 359.078 53.3596H350.512C349.844 57.0859 348.714 60.9431 347.221 64.6316C349.522 68.3338 350.849 72.7692 350.82 77.5283C350.763 86.6074 345.785 94.4405 338.579 98.2167C336.88 102.685 334.581 106.852 331.776 110.597C335.762 112.131 339.743 113.676 343.636 115.453C348.008 117.136 352.034 119.583 356.325 121.451L356.326 121.454ZM201.911 205.494C202.756 199.213 203.971 192.871 205.225 186.668C206.85 178.637 208.659 170.623 210.697 162.697C212.623 155.208 214.774 147.535 217.515 140.33C220.359 132.85 224.212 124.711 231.693 121.454C234.342 120.301 236.909 118.909 239.507 117.632C243.78 115.346 248.313 113.477 252.885 111.702C248.953 106.762 245.921 101.017 244.034 94.7623C239.423 90.4267 236.604 84.1066 236.646 77.2288C236.672 72.9913 237.783 68.9706 239.73 65.5076C238.175 61.678 237.233 57.5076 236.668 53.3613H228.152C228.629 57.3114 229.391 61.2409 230.547 64.9964C229.056 68.7727 228.23 72.8914 228.204 77.1703C228.152 85.7985 231.35 93.7899 236.702 99.678C237.631 102.384 238.745 105 240.028 107.511C238.607 108.174 237.2 108.867 235.816 109.606C233.38 110.811 230.961 112.124 228.479 113.205C218.571 117.516 213.46 127.07 209.683 137.003C206.819 144.533 204.565 152.526 202.551 160.358C200.472 168.44 198.627 176.613 196.97 184.804C195.674 191.21 194.426 197.752 193.554 204.237C192.735 210.315 194.083 216.318 197.113 221.306C197.001 222.673 196.963 224.046 197.004 225.418C197.009 225.554 197.012 225.686 197.019 225.816C196.973 227.919 196.988 230.024 197.045 232.127H205.49C205.427 229.981 205.41 227.829 205.466 225.681C205.454 225.506 205.448 225.33 205.441 225.141C205.392 223.454 205.498 221.766 205.76 220.103C205.795 219.662 205.839 219.222 205.892 218.783C202.795 215.211 201.249 210.416 201.911 205.494Z" fill="#F54F65"/>
</g>
<defs>
<clipPath id="clip0_214_14169">
<rect width="380" height="237.48" fill="white"/>
</clipPath>
</defs>
</svg>
