<svg width="24" height="24" viewBox="0 0 24 24" fill="none" xmlns="http://www.w3.org/2000/svg">
<path d="M13.2806 12.5306L9.53063 16.2806C9.42573 16.3856 9.29204 16.4572 9.14648 16.4861C9.00092 16.5151 8.85002 16.5003 8.71291 16.4435C8.57579 16.3867 8.45861 16.2904 8.37621 16.167C8.29381 16.0435 8.24988 15.8984 8.25 15.75V12.75H2.25C2.05109 12.75 1.86032 12.671 1.71967 12.5303C1.57902 12.3897 1.5 12.1989 1.5 12C1.5 11.8011 1.57902 11.6103 1.71967 11.4697C1.86032 11.329 2.05109 11.25 2.25 11.25H8.25V8.25C8.24988 8.10158 8.29381 7.95646 8.37621 7.83301C8.45861 7.70957 8.57579 7.61335 8.71291 7.55653C8.85002 7.49972 9.00092 7.48487 9.14648 7.51385C9.29204 7.54284 9.42573 7.61437 9.53063 7.71937L13.2806 11.4694C13.3504 11.539 13.4057 11.6217 13.4434 11.7128C13.4812 11.8038 13.5006 11.9014 13.5006 12C13.5006 12.0986 13.4812 12.1962 13.4434 12.2872C13.4057 12.3783 13.3504 12.461 13.2806 12.5306ZM18 3H12.75C12.5511 3 12.3603 3.07902 12.2197 3.21967C12.079 3.36032 12 3.55109 12 3.75C12 3.94891 12.079 4.13968 12.2197 4.28033C12.3603 4.42098 12.5511 4.5 12.75 4.5H18V19.5H12.75C12.5511 19.5 12.3603 19.579 12.2197 19.7197C12.079 19.8603 12 20.0511 12 20.25C12 20.4489 12.079 20.6397 12.2197 20.7803C12.3603 20.921 12.5511 21 12.75 21H18C18.3978 21 18.7794 20.842 19.0607 20.5607C19.342 20.2794 19.5 19.8978 19.5 19.5V4.5C19.5 4.10218 19.342 3.72064 19.0607 3.43934C18.7794 3.15804 18.3978 3 18 3Z" fill="white"/>
</svg>
