<svg width="140" height="160" viewBox="0 0 140 160" fill="none" xmlns="http://www.w3.org/2000/svg">
<g clip-path="url(#clip0_71_11412)">
<path d="M57.6982 140.17C89.564 140.17 115.396 114.338 115.396 82.472C115.396 50.6063 89.564 24.774 57.6982 24.774C25.8325 24.774 0.000244141 50.6063 0.000244141 82.472C0.000244141 114.338 25.8325 140.17 57.6982 140.17Z" fill="url(#paint0_radial_71_11412)"/>
<path d="M57.6982 133.594C85.932 133.594 108.82 110.706 108.82 82.4721C108.82 54.2383 85.932 31.3503 57.6982 31.3503C29.4645 31.3503 6.57648 54.2383 6.57648 82.4721C6.57648 110.706 29.4645 133.594 57.6982 133.594Z" fill="url(#paint1_linear_71_11412)"/>
<path d="M84.0143 93.9355C84.0143 95.6357 83.8657 97.2932 83.5778 98.908V98.9111C81.9725 108.102 75.9814 115.782 67.8442 119.725C64.0737 121.548 59.8429 122.575 55.3749 122.575C46.983 122.575 39.4325 118.963 34.1958 113.213V113.21C29.5586 108.121 26.7339 101.361 26.7339 93.9355C26.7339 87.8875 28.6097 82.2776 31.8092 77.6561C32.2062 77.0836 32.6253 76.5269 33.0618 75.986C36.1665 72.1237 40.2565 69.0887 44.9491 67.254C48.1803 65.9903 51.6945 65.296 55.3749 65.296C58.2945 65.296 61.1129 65.7325 63.7652 66.5455C71.1275 68.7961 77.2277 73.9347 80.7499 80.6422C82.8345 84.6151 84.0128 89.1369 84.0128 93.9355H84.0143Z" fill="#19B5FE"/>
<path d="M64.3536 101.728C62.4857 101.728 60.7902 100.317 60.1323 98.5663C59.8682 97.8609 59.7527 97.116 59.7575 96.3663C59.7575 96.3869 59.7575 96.4059 59.7575 96.4264C59.7559 95.4696 59.8619 94.663 60.0279 93.986C60.4138 92.4187 61.124 91.5425 61.5731 91.0743C61.4893 91.2357 61.4086 91.4001 61.3343 91.5678C60.5609 93.2854 60.2889 95.3019 60.9516 97.0701C61.6143 98.8352 63.3319 100.255 65.2187 100.232C67.3475 100.203 69.0319 98.5252 70.5629 97.0464C71.6684 95.9757 72.9669 94.6661 74.5691 94.4953C75.1179 94.4384 75.6762 94.5001 76.2013 94.6661C76.1807 94.8733 76.1586 95.0805 76.1364 95.2877C76.3373 95.3589 76.5318 95.4474 76.7169 95.5518C76.6742 95.9567 76.6299 96.3616 76.5824 96.7649C75.8818 96.254 75.0166 95.9694 74.1499 95.9694C74.0155 95.9694 73.8811 95.9757 73.7482 95.9899C72.9527 96.0753 72.2315 96.4407 71.5719 96.9183C71.9547 96.5561 72.3564 96.1971 72.7787 95.895C72.1809 96.3236 71.6241 96.8645 71.1022 97.3707L70.8745 97.5921C70.2292 98.2152 69.5491 98.8747 68.8089 99.433C67.5247 100.622 66.106 101.703 64.3994 101.726C64.3852 101.726 64.3694 101.726 64.3536 101.726V101.728ZM59.7575 96.2999C59.7575 96.2809 59.7575 96.262 59.759 96.243C59.759 96.262 59.7575 96.2809 59.7575 96.2999ZM59.7606 96.1765C59.7606 96.156 59.7622 96.1354 59.7638 96.1149C59.7638 96.1354 59.7622 96.156 59.7606 96.1765ZM59.7654 96.05C59.767 96.031 59.767 96.0121 59.7685 95.9931C59.767 96.0121 59.7654 96.031 59.7654 96.05ZM59.7685 95.9868C59.7701 95.9678 59.7717 95.9488 59.7717 95.9282C59.7701 95.9472 59.7685 95.9662 59.7685 95.9868ZM59.778 95.865C59.7796 95.8444 59.7812 95.8239 59.7828 95.8049C59.7812 95.8254 59.7796 95.846 59.778 95.865ZM59.7891 95.7384C59.7907 95.7179 59.7923 95.6973 59.7954 95.6783C59.7938 95.6989 59.7907 95.7195 59.7891 95.7384ZM59.8097 95.5502C59.8144 95.5107 59.8192 95.4712 59.8255 95.43C59.8207 95.4696 59.8144 95.5091 59.8097 95.5502ZM59.8334 95.3652C59.8365 95.3446 59.8397 95.3257 59.8429 95.3051C59.8397 95.3241 59.8365 95.3446 59.8334 95.3652ZM59.8429 95.3035C59.846 95.283 59.8492 95.2624 59.8524 95.2434C59.8492 95.264 59.846 95.2845 59.8429 95.3035ZM59.8524 95.2402C59.8587 95.1991 59.8666 95.1596 59.8729 95.1185C59.865 95.1596 59.8587 95.1991 59.8524 95.2402ZM59.8729 95.1169C59.8761 95.0979 59.8808 95.0773 59.884 95.0568C59.8808 95.0758 59.8761 95.0963 59.8729 95.1169ZM59.9077 94.9302C59.9109 94.9113 59.9156 94.8923 59.9188 94.8749C59.914 94.8939 59.9109 94.9129 59.9077 94.9302ZM59.9204 94.8654C59.9235 94.8464 59.9283 94.8275 59.933 94.8085C59.9283 94.8275 59.9251 94.8464 59.9204 94.8654ZM59.9473 94.7436C59.952 94.7246 59.9552 94.7057 59.9599 94.6867C59.9552 94.7057 59.9504 94.7246 59.9473 94.7436ZM59.7606 96.1164C59.7622 96.0959 59.7622 96.0753 59.7638 96.0564L59.7606 96.1164ZM59.8951 94.9935C59.8982 94.973 59.903 94.9524 59.9077 94.9318L59.8951 94.9935ZM65.3373 100.842C65.3484 100.842 65.3579 100.842 65.3674 100.841C65.3579 100.841 65.3468 100.842 65.3373 100.842ZM65.5682 100.828C66.2515 100.769 66.8857 100.567 67.4804 100.271C66.8857 100.567 66.2499 100.769 65.5682 100.828ZM67.4867 100.268C67.5073 100.259 67.5262 100.249 67.5468 100.238C67.5278 100.248 67.5073 100.259 67.4867 100.268ZM67.6022 100.21C67.6132 100.205 67.6243 100.199 67.6354 100.192L67.6022 100.21ZM72.8277 95.8618L72.8372 95.8539L72.8657 95.8333C72.853 95.8428 72.8388 95.8507 72.8261 95.8602L72.8277 95.8618ZM72.8768 95.827C72.8894 95.8175 72.9021 95.8096 72.9147 95.8001C72.9021 95.808 72.8894 95.8175 72.8768 95.827ZM72.9226 95.7954C72.9353 95.7875 72.9479 95.7796 72.959 95.7701C72.9463 95.778 72.9337 95.7859 72.9226 95.7954ZM73.0175 95.7337C73.0318 95.7242 73.0444 95.7163 73.0586 95.7068C73.0444 95.7147 73.0318 95.7242 73.0175 95.7337ZM73.1124 95.6736C73.1266 95.6641 73.1409 95.6562 73.1551 95.6467C73.1409 95.6546 73.1266 95.6641 73.1124 95.6736ZM73.1583 95.6451C73.1725 95.6372 73.1852 95.6293 73.1994 95.6198C73.1852 95.6277 73.1725 95.6356 73.1583 95.6451ZM73.5015 95.4538C73.5157 95.4459 73.53 95.4395 73.5442 95.4332C73.53 95.4395 73.5157 95.4474 73.5015 95.4538ZM73.5505 95.43C73.5663 95.4221 73.5806 95.4158 73.5964 95.4079C73.5806 95.4142 73.5663 95.4221 73.5505 95.43ZM73.6992 95.362C73.7134 95.3557 73.7292 95.3494 73.745 95.3431C73.7292 95.3494 73.715 95.3557 73.6992 95.362ZM73.8494 95.2988C73.8652 95.2924 73.8795 95.2877 73.8953 95.2814C73.8795 95.2861 73.8652 95.2924 73.8494 95.2988ZM73.9522 95.2608C73.9665 95.2561 73.9823 95.2497 73.9965 95.245C73.9823 95.2497 73.9665 95.2545 73.9522 95.2608ZM74.1041 95.2118C74.1199 95.207 74.1341 95.2023 74.1499 95.1991C74.1341 95.2039 74.1199 95.207 74.1041 95.2118ZM74.2069 95.1833C74.2227 95.1786 74.2369 95.1754 74.2527 95.1722C74.2369 95.1754 74.2227 95.1801 74.2069 95.1833ZM74.2622 95.1691C74.278 95.1659 74.2923 95.1612 74.3065 95.158C74.2923 95.1612 74.2765 95.1643 74.2622 95.1691ZM74.3128 95.158C74.3445 95.1517 74.3777 95.1438 74.4093 95.139C74.3777 95.1453 74.3445 95.1517 74.3128 95.158ZM74.4694 95.1279C74.4852 95.1248 74.4995 95.1232 74.5153 95.12C74.4995 95.1216 74.4852 95.1248 74.4694 95.1279ZM74.5754 95.1137C74.5912 95.1121 74.6086 95.109 74.6244 95.1074C74.6086 95.109 74.5912 95.1106 74.5754 95.1137ZM74.6608 95.1042C75.11 95.0631 75.5686 95.1153 76.002 95.2513C75.6651 95.1469 75.3124 95.09 74.9613 95.09C74.8601 95.09 74.7604 95.0947 74.6608 95.1042ZM76.0036 95.2513L76.021 95.2561L76.0257 95.2576L76.0036 95.2497V95.2513Z" fill="#168AD3"/>
<path d="M84.0143 93.9354C84.0143 95.6341 83.8672 97.2947 83.581 98.908V98.9111C82.6462 99.2005 82.0041 99.3967 82.0041 99.3967C81.0488 99.5406 80.1521 98.8732 79.5716 98.1013C78.9896 97.3311 78.591 96.4201 77.922 95.7242C77.068 94.8354 75.7964 94.3704 74.5691 94.4969C72.9669 94.6677 71.6668 95.9788 70.5629 97.0496C69.0319 98.5284 67.3491 100.206 65.2187 100.235C63.3319 100.259 61.6143 98.8384 60.9516 97.0733C60.2889 95.3067 60.5609 93.2901 61.3343 91.5709C62.19 89.6667 63.6055 88.2354 64.9419 86.6759C66.3733 85.0074 67.5595 83.1063 68.4657 81.104C69.0699 79.7739 69.5159 78.11 68.6397 76.9444C68.0703 76.1837 67.0771 75.8626 66.1344 75.7519C65.1886 75.6428 64.2223 75.695 63.2971 75.4719C61.4767 75.0386 59.9789 73.4791 59.6183 71.6413C59.2593 69.8067 60.1371 67.1401 61.657 66.0488C61.657 66.0488 62.4398 66.6419 63.77 66.547C75.4927 70.1309 84.0175 81.0376 84.0175 93.937L84.0143 93.9354Z" fill="#0CAE97"/>
<path d="M84.0143 93.9354C84.0143 95.6341 83.8672 97.2947 83.581 98.908V98.9111C82.6462 99.2005 82.0041 99.3967 82.0041 99.3967C81.0488 99.5406 80.1521 98.8732 79.5716 98.1013C78.9896 97.3311 78.591 96.4201 77.922 95.7242C77.068 94.8354 75.7964 94.3704 74.5691 94.4969C72.9669 94.6677 71.6668 95.9788 70.5629 97.0496C69.0319 98.5284 67.3491 100.206 65.2187 100.235C63.3319 100.259 61.6143 98.8384 60.9516 97.0733C60.2889 95.3067 60.5609 93.2901 61.3343 91.5709C62.19 89.6667 63.6055 88.2354 64.9419 86.6759C66.3733 85.0074 67.5595 83.1063 68.4657 81.104C69.0699 79.7739 69.5159 78.11 68.6397 76.9444C68.0703 76.1837 67.0771 75.8626 66.1344 75.7519C65.1886 75.6428 64.2223 75.695 63.2971 75.4719C61.4767 75.0386 59.9789 73.4791 59.6183 71.6413C59.2593 69.8067 60.1371 67.1401 61.657 66.0488C61.657 66.0488 62.4398 66.6419 63.77 66.547C75.4927 70.1309 84.0175 81.0376 84.0175 93.937L84.0143 93.9354Z" fill="#3EDC81"/>
<path d="M63.6403 97.6728C64.3662 98.2137 65.2313 98.5458 66.1376 98.5458C66.1534 98.5458 66.1676 98.5458 66.1835 98.5458C67.5072 98.5268 68.6602 97.8721 69.7088 97.0227C69.8148 96.9215 69.9208 96.8187 70.0267 96.7159L70.2529 96.4961C70.6989 96.0627 71.1892 95.5867 71.7301 95.1612C72.7898 94.1332 74.0266 92.9691 75.5322 92.8078C75.6667 92.7936 75.7995 92.7872 75.934 92.7872C76.2851 92.7872 76.6378 92.8347 76.9778 92.9248C76.9367 93.3693 76.894 93.8137 76.8497 94.255C76.6583 94.1727 76.4622 94.1015 76.2613 94.0446C76.2408 94.2518 76.2202 94.4574 76.1997 94.6646C75.6746 94.5001 75.1163 94.4368 74.5675 94.4938C72.9653 94.6646 71.6653 95.9742 70.5613 97.0449C69.0303 98.5237 67.3475 100.202 65.2171 100.23C63.3303 100.254 61.6127 98.8337 60.95 97.0686C60.2873 95.302 60.5593 93.2854 61.3327 91.5663C61.4086 91.3986 61.4877 91.2341 61.5715 91.0728C61.7329 90.7644 61.9068 90.467 62.0935 90.1792C61.8578 91.0064 61.7091 91.7513 61.6396 92.4282C61.3944 94.8433 62.1741 96.3838 63.6387 97.6712L63.6403 97.6728ZM74.4536 93.8959C73.6359 93.994 72.9005 94.3404 72.2346 94.7911C72.9005 94.3404 73.6359 93.9924 74.4536 93.8959Z" fill="#30A57C"/>
<path d="M44.5141 73.2309C43.1856 74.784 41.1928 75.6412 39.1763 75.9797C37.1629 76.315 35.1021 76.179 33.0666 76.0414L33.0634 75.986C36.1681 72.1238 40.2581 69.0887 44.9506 67.2556L45.4631 67.5245C46.363 69.3591 45.8427 71.6777 44.5141 73.2324V73.2309Z" fill="#3EDC81"/>
<path d="M50.7883 91.9015C50.1098 91.9015 49.4249 91.5741 49.0675 90.9826C48.7986 90.5366 48.7132 89.9941 48.4111 89.5687C47.5413 88.3429 45.471 88.7399 44.4239 87.6628C44.0428 87.2706 43.8625 86.725 43.8609 86.1746C44.0143 86.2125 44.1693 86.2521 44.3243 86.29C44.3211 86.2837 44.3164 86.2758 44.3132 86.2695C44.6248 86.3422 44.9364 86.415 45.248 86.4846C46.3219 87.4414 48.2925 87.1077 49.1355 88.2939C49.2668 88.4805 49.3585 88.6877 49.4408 88.9012C49.5182 89.1005 49.5894 89.3029 49.6796 89.4959C49.7144 89.5687 49.7507 89.6382 49.7919 89.7078C50.2806 90.5192 51.3861 90.8339 52.2497 90.4891C52.2829 90.4765 52.3161 90.4623 52.3493 90.4464C52.6878 90.2867 52.9345 90.0447 53.1069 89.7537C52.8665 90.2345 52.6292 90.7185 52.3351 91.106C52.1658 91.3622 51.9333 91.5773 51.6249 91.7228C51.364 91.8461 51.0761 91.9047 50.7883 91.9047V91.9015Z" fill="#168AD3"/>
<path d="M50.0339 81.8063C49.0058 81.1705 47.1095 81.539 46.14 82.2586C45.4963 82.7378 44.938 83.3721 44.7007 84.1375C44.4619 84.903 44.59 85.8109 45.1483 86.3866C46.1953 87.4636 48.2672 87.0682 49.1371 88.2924C49.4376 88.7178 49.5246 89.2603 49.7934 89.7063C50.3011 90.5493 51.4747 90.8561 52.3509 90.4449C53.3758 89.9625 53.5481 88.7226 53.4422 87.7088C53.3204 86.5558 52.9503 85.4313 52.3809 84.4222C51.8732 83.5255 51.0176 82.2286 50.0354 81.8063H50.0339Z" fill="#3EDC81"/>
<path d="M57.17 106.324C55.5584 106.324 53.4865 105.636 51.6313 104.224C48.5361 101.867 47.2186 98.3892 48.37 96.8772C48.6421 96.5213 48.9805 96.3647 49.3807 96.3647C50.6791 96.3647 52.6245 98.008 54.9906 99.8079C58.0873 102.164 60.7301 103.898 59.5803 105.41C59.1201 106.016 58.2486 106.324 57.17 106.324Z" fill="#53C8FE"/>
<path d="M65.2946 109.225C64.9008 109.225 64.4785 109.166 64.0531 109.041C62.4936 108.584 61.4624 107.42 61.7503 106.44C61.9274 105.838 62.5189 105.585 63.3097 105.585C63.8079 105.585 64.3836 105.685 64.9862 105.862C66.5457 106.319 67.6844 107.116 67.3981 108.095C67.1894 108.807 66.3416 109.225 65.2962 109.225H65.2946Z" fill="#53C8FE"/>
<path d="M67.8457 119.723C64.0768 121.548 59.8476 122.573 55.3765 122.573C46.9845 122.573 39.4325 118.963 34.1974 113.212V113.209L34.229 112.451C35.9593 111.994 36.9715 110.238 37.7386 108.621C38.5056 107.001 39.3644 105.212 41.0188 104.531C42.7364 103.822 44.7529 104.603 46.1368 105.843C47.516 107.083 48.457 108.733 49.6052 110.194C51.5063 112.609 53.7854 113.342 56.7335 113.735C59.0394 114.042 61.4181 114.131 63.5818 114.988C65.6536 115.804 67.5484 117.539 67.8457 119.723Z" fill="#3EDC81"/>
<path d="M39.8848 106.133C39.5432 106.256 39.1778 106.417 38.784 106.62C39.3502 105.714 40.0477 104.931 41.0204 104.529C42.738 103.82 44.7545 104.602 46.1384 105.842C47.5175 107.082 48.4586 108.731 49.6068 110.193C51.5079 112.608 53.787 113.34 56.735 113.734C59.041 114.041 61.4197 114.129 63.5833 114.986C64.6303 115.399 65.6315 116.046 66.4049 116.867C66.1803 116.932 65.9541 116.992 65.728 117.049C65.7612 117.082 65.7944 117.114 65.8276 117.147C65.3769 117.275 64.9214 117.389 64.4611 117.487C63.8996 117.076 63.2797 116.737 62.6423 116.487C60.4787 115.632 58.1 115.542 55.7956 115.235C52.8475 114.841 50.5684 114.109 48.6674 111.694C47.5191 110.232 46.5797 108.583 45.1989 107.343C44.1772 106.427 42.8107 105.761 41.4743 105.761C41.0014 105.761 40.5317 105.845 40.0809 106.03C40.024 106.054 39.9433 106.106 39.8879 106.133H39.8848Z" fill="#ACF0C9"/>
<path d="M67.6812 118.989C67.4361 118.202 66.9837 117.485 66.4017 116.869C65.9193 116.356 65.3468 115.91 64.73 115.548C65.0684 115.531 65.4037 115.507 65.7359 115.477C68.608 115.224 71.2778 114.457 73.9095 113.27C73.7719 113.906 73.6328 114.537 73.4888 115.164L67.6796 118.989H67.6812ZM39.6918 104.621C38.4693 103.129 37.3574 101.472 36.3879 99.6419C34.5532 95.8666 33.5236 91.6279 33.5236 87.1441C33.5236 87.1299 33.5236 87.1141 33.5236 87.0998C33.5268 85.3617 34.9645 84.0664 36.5793 84.0664C36.9256 84.0664 37.2815 84.1265 37.6326 84.2546C38.5278 84.582 39.502 84.9141 40.5475 85.2399C40.6091 85.2589 40.6708 85.2779 40.7325 85.2968H40.7341L40.829 85.3269H40.8306L40.8511 85.3332L40.9239 85.3554L40.9302 85.3569L40.9365 85.3585L41.0251 85.3854L41.0299 85.387L41.0488 85.3933L41.1279 85.417H41.1295L41.207 85.4408L41.2276 85.4471L41.2323 85.4487C41.2639 85.4582 41.2956 85.4676 41.3272 85.4771H41.3288L41.4079 85.5009L41.43 85.5072L41.449 85.5119L41.5296 85.5357H41.5312L41.6103 85.5594L41.6324 85.5657L41.6514 85.5704L41.7337 85.5942H41.7368L41.8349 85.6226L41.8396 85.6242L41.857 85.629L41.9235 85.648L41.9567 85.6574L42.0405 85.6812L42.0452 85.6827L42.0626 85.6875L42.1449 85.7112L42.148 85.7128L42.1544 85.7144C42.2208 85.7334 42.2856 85.7507 42.3521 85.7697L42.3568 85.7713L42.36 85.7729L42.4454 85.7966L42.4738 85.8045L42.5608 85.8282L42.5656 85.8298L42.67 85.8583H42.6715L42.7712 85.8852L42.7775 85.8868C42.8455 85.9057 42.9151 85.9231 42.9831 85.9421L42.9894 85.9437L43.0005 85.9469L43.097 85.9722L43.1539 85.988H43.1555C43.3864 86.0497 43.6205 86.1098 43.8577 86.1699V86.1572V86.1541V86.1509V86.1461V86.1446V86.143V86.1398V86.1351V86.1319V86.1303V86.1288V86.1256V86.1224V86.1193V86.1161V86.1129V86.1098V86.105V86.1034V86.1003V86.0971V86.094V86.0908V86.0892V86.086V86.0829V86.0797V86.0766V86.075V86.0734V86.0702V86.0671V86.0639V86.0607V86.0592V86.056V86.0528V86.0497V86.0465V86.0433V86.0402V86.037V86.0338V86.0323V86.0291V86.0259V86.0228V86.0196V86.018V86.0165V86.0133V86.0054V86.0038V86.0006V85.9975V85.9943V85.9912V85.988V85.9848V85.9817V85.9785V85.9769V85.9738V85.9706V85.9643V85.9611V85.9516V85.9437V85.9405V85.9358V85.9295V85.9263V85.9168V85.9089V85.9057V85.901V85.8947V85.8931V85.8836V85.882V85.8741V85.871V85.8662L43.8593 85.8599V85.8583L43.8609 85.8488V85.8472L43.8625 85.8393V85.8362V85.8314V85.8251V85.8235L43.8641 85.814V85.8124L43.8656 85.8045V85.7998V85.795L43.8672 85.7871V85.7855L43.8688 85.7761V85.7745L43.8704 85.7666V85.7618V85.7571L43.872 85.7492V85.7476L43.8736 85.7381V85.7365L43.8751 85.7286V85.7239V85.7191L43.8767 85.7112V85.7096L43.8783 85.7001V85.6986L43.8799 85.6906L43.8815 85.6859V85.6812L43.883 85.6733V85.6717L43.8846 85.6622V85.6606L43.8862 85.6527V85.648L43.8878 85.6448L43.8894 85.6369V85.6353L43.891 85.6258V85.6242L43.8925 85.6179L43.8941 85.61L43.8957 85.6021V85.6005L43.8973 85.5926V85.591L43.8989 85.5847L43.9004 85.5768L43.902 85.5689L43.9036 85.561V85.5594L43.9052 85.5531L43.9068 85.5436L43.9083 85.5357L43.9099 85.5277V85.5246L43.9115 85.5183L43.9131 85.5135V85.5103L43.9147 85.5024L43.9163 85.4945V85.4914L43.9178 85.485L43.9194 85.4771L43.9226 85.4692L43.9257 85.4613V85.4582L43.9273 85.4518L43.9289 85.4455V85.4423L43.9321 85.4344L43.9352 85.4265L43.9384 85.4186L43.94 85.4139V85.4107L43.9463 85.3902C43.9558 85.3601 43.9653 85.33 43.9764 85.3L43.9748 85.2921C44.1472 84.7417 44.4366 84.3653 44.7165 83.9746C44.8209 83.6931 44.9664 83.4306 45.1452 83.1886C45.4109 82.8248 45.7462 82.5053 46.1099 82.2365C46.1922 82.1764 46.2807 82.1178 46.374 82.0625C46.6287 81.9122 46.9229 81.7841 47.2376 81.6829C44.4398 81.142 41.5992 80.3971 38.7033 79.4497V81.4805V82.0324C38.7033 82.5037 38.3222 82.8849 37.8509 82.8849C37.3795 82.8849 36.9984 82.5037 36.9984 82.0324V78.8708V78.0959C36.2788 77.8396 35.5576 77.5723 34.8332 77.2924C34.1578 77.0314 33.5948 76.587 33.1883 76.0287C33.1377 76.0255 33.0871 76.0224 33.0365 76.0192L33.0333 75.9639C32.8926 76.1378 32.755 76.3134 32.619 76.4905C32.3627 76.8227 32.1128 77.1627 31.8724 77.5059C31.8804 77.4964 31.8867 77.4869 31.8946 77.4759C31.8582 77.5265 31.8218 77.5803 31.7855 77.634H31.7823C28.5827 82.2539 26.707 87.8653 26.707 93.9133C26.707 101.339 29.5317 108.097 34.1689 113.187L34.2005 112.429C34.2733 112.41 34.3429 112.388 34.4141 112.366C36.0146 111.826 36.9762 110.15 37.7101 108.6C38.0264 107.933 38.3585 107.235 38.7539 106.599C39.1193 106.014 39.54 105.48 40.054 105.067C39.9227 104.913 39.793 104.758 39.6634 104.6L39.6918 104.621ZM33.1393 77.0694C32.6838 77.6657 32.2568 78.2777 31.855 78.9009C31.8898 78.8471 31.9246 78.7918 31.961 78.738C32.3327 78.1702 32.7249 77.6135 33.1409 77.0694H33.1393ZM73.4888 115.164L73.2136 116.339C71.5625 117.655 69.7626 118.793 67.8441 119.723C67.8093 119.473 67.754 119.227 67.6796 118.989L73.4888 115.164ZM31.3442 79.7233C31.3173 79.7692 31.2888 79.815 31.262 79.8625C31.2888 79.8166 31.3173 79.7692 31.3442 79.7233ZM30.8112 80.6612C30.7764 80.7245 30.7416 80.7893 30.7084 80.8526C30.7432 80.7893 30.7764 80.7245 30.8112 80.6612ZM30.6847 80.8968C30.6435 80.9759 30.6008 81.055 30.5597 81.1341C30.6008 81.055 30.642 80.9759 30.6847 80.8968ZM30.5265 81.2005C30.4965 81.2574 30.468 81.3144 30.4395 81.3713C30.468 81.3144 30.498 81.2574 30.5265 81.2005ZM30.3937 81.4615C30.3684 81.5105 30.3446 81.5595 30.3193 81.6101C30.343 81.5611 30.3684 81.5105 30.3937 81.4615ZM30.2719 81.7082C30.2481 81.7557 30.226 81.8031 30.2023 81.8506C30.2244 81.8031 30.2481 81.7557 30.2719 81.7082ZM30.1533 81.9518C30.1311 81.9992 30.1074 82.0467 30.0852 82.0941C30.1074 82.0467 30.1295 81.9992 30.1533 81.9518ZM29.712 82.9229C29.6772 83.0035 29.6424 83.0858 29.6076 83.168C29.6424 83.0858 29.6772 83.0051 29.712 82.9229ZM29.576 83.2439C29.5523 83.3009 29.5285 83.3578 29.5064 83.4147C29.5301 83.3578 29.5538 83.3009 29.576 83.2439ZM29.3672 83.7611C29.3482 83.8101 29.3277 83.8607 29.3087 83.9114C29.3277 83.8607 29.3466 83.8117 29.3672 83.7611ZM29.2707 84.0126C29.2517 84.0616 29.2328 84.1122 29.2154 84.1613C29.2344 84.1122 29.2533 84.0616 29.2707 84.0126ZM29.1758 84.2656C29.1569 84.3162 29.1395 84.3653 29.1205 84.4159C29.1379 84.3653 29.1569 84.3162 29.1758 84.2656ZM29.0857 84.5155C29.0667 84.5709 29.0461 84.6247 29.0272 84.68C29.0461 84.6247 29.0651 84.5709 29.0857 84.5155ZM28.9117 85.0185C28.8832 85.1023 28.8564 85.1861 28.8279 85.2699C28.8548 85.1861 28.8832 85.1023 28.9117 85.0185ZM28.7172 85.6211C28.7014 85.6733 28.684 85.7254 28.6681 85.7776C28.684 85.7254 28.6998 85.6733 28.7172 85.6211ZM28.6365 85.8836C28.6207 85.9342 28.6065 85.9848 28.5922 86.0354C28.6065 85.9848 28.6223 85.9342 28.6365 85.8836ZM28.5606 86.1414C28.5464 86.192 28.5305 86.2426 28.5163 86.2948C28.5305 86.2442 28.5448 86.1936 28.5606 86.1414ZM28.4167 86.657C28.4009 86.7139 28.3866 86.7709 28.3708 86.8294C28.385 86.7725 28.4009 86.7139 28.4167 86.657ZM28.3487 86.9148C28.3297 86.9891 28.3107 87.0619 28.2933 87.1362C28.3123 87.0619 28.3297 86.9891 28.3487 86.9148ZM28.2822 87.1742C28.2601 87.2596 28.2395 87.3466 28.219 87.432C28.2395 87.345 28.2601 87.2596 28.2822 87.1742ZM28.2016 87.5111C28.1873 87.5712 28.1731 87.6328 28.1589 87.6945C28.1731 87.6328 28.1873 87.5727 28.2016 87.5111ZM28.1367 87.7926C28.1241 87.8464 28.113 87.9001 28.1004 87.9539C28.1114 87.9001 28.1241 87.8464 28.1367 87.7926ZM27.9707 88.5913C27.9596 88.6451 27.9501 88.6973 27.9406 88.751C27.9501 88.6973 27.9612 88.6451 27.9707 88.5913ZM27.8742 89.1195C27.86 89.2002 27.8473 89.2793 27.8331 89.3599C27.8457 89.2793 27.86 89.1986 27.8742 89.1195ZM27.8299 89.3852C27.8157 89.4738 27.8014 89.5624 27.7888 89.651C27.803 89.5624 27.8157 89.4738 27.8299 89.3852ZM27.7761 89.7348C27.7666 89.7949 27.7587 89.855 27.7492 89.9167C27.7571 89.8566 27.7666 89.7965 27.7761 89.7348ZM27.735 90.021C27.7271 90.0748 27.7192 90.1302 27.7129 90.184C27.7208 90.1302 27.7271 90.0748 27.735 90.021ZM27.6069 91.1044C27.6006 91.1645 27.5958 91.2246 27.5895 91.2847C27.5942 91.2246 27.6006 91.1645 27.6069 91.1044ZM27.5816 91.3733C27.5737 91.4571 27.5674 91.541 27.5594 91.6264C27.5658 91.5425 27.5737 91.4587 27.5816 91.3733ZM27.5594 91.6264L27.5579 91.6438V91.6453C27.5515 91.7339 27.5436 91.8241 27.5373 91.9142L27.5594 91.6279V91.6264ZM27.531 92.0059C27.5262 92.066 27.5231 92.1246 27.5199 92.1847C27.5231 92.1246 27.5278 92.066 27.531 92.0059ZM27.4993 92.569C27.4962 92.6243 27.4946 92.6781 27.4914 92.7319C27.4946 92.6781 27.4962 92.6228 27.4993 92.569ZM27.4883 92.8442C27.4867 92.8995 27.4851 92.9533 27.4819 93.0087C27.4835 92.9533 27.4851 92.8995 27.4883 92.8442ZM27.474 94.5618C27.4756 94.6061 27.4772 94.6504 27.4772 94.6946C27.4756 94.6504 27.474 94.6061 27.474 94.5618ZM27.493 95.1802C27.4946 95.2261 27.4978 95.2719 27.4993 95.3178C27.4962 95.2719 27.4946 95.2261 27.493 95.1802ZM27.5088 95.4886C27.512 95.5376 27.5152 95.5867 27.5183 95.6341C27.5152 95.5851 27.512 95.536 27.5088 95.4886ZM27.5278 95.797C27.531 95.8476 27.5341 95.8967 27.5389 95.9473C27.5357 95.8967 27.531 95.8476 27.5278 95.797ZM27.55 96.1038C27.5531 96.1545 27.5579 96.2051 27.5626 96.2557C27.5579 96.2051 27.5547 96.1545 27.55 96.1038ZM27.6354 97.0227C27.6417 97.0734 27.6464 97.124 27.6528 97.1746C27.6464 97.124 27.6401 97.0734 27.6354 97.0227ZM27.7097 97.6317C27.716 97.6823 27.7239 97.7329 27.7303 97.7835C27.7224 97.7329 27.716 97.6823 27.7097 97.6317ZM27.7524 97.9353C27.7603 97.9859 27.7666 98.035 27.7745 98.0856C27.7666 98.035 27.7587 97.9859 27.7524 97.9353ZM27.7983 98.239C27.8062 98.2896 27.8141 98.3386 27.822 98.3892C27.8141 98.3402 27.8062 98.2896 27.7983 98.239ZM27.8473 98.5411C27.8552 98.5917 27.8647 98.6423 27.8742 98.6929C27.8647 98.6423 27.8568 98.5917 27.8473 98.5411ZM27.8995 98.8432C27.909 98.8938 27.9185 98.9428 27.9264 98.9934C27.9169 98.9428 27.9074 98.8938 27.8995 98.8432ZM27.9548 99.1437C27.9643 99.1927 27.9738 99.2417 27.9833 99.2923C27.9738 99.2433 27.9643 99.1943 27.9548 99.1437ZM28.0134 99.4442C28.0229 99.4932 28.0323 99.5406 28.0434 99.5897C28.0339 99.5406 28.0229 99.4932 28.0134 99.4442ZM28.3534 100.931C28.3661 100.98 28.3787 101.027 28.3914 101.076C28.3787 101.027 28.3661 100.978 28.3534 100.931ZM28.4309 101.225C28.4436 101.274 28.4578 101.323 28.4704 101.371C28.4562 101.322 28.4436 101.274 28.4309 101.225ZM28.5954 101.81C28.6096 101.859 28.6239 101.908 28.6397 101.957C28.6254 101.908 28.6096 101.859 28.5954 101.81ZM28.6824 102.101C28.6982 102.15 28.7124 102.201 28.7282 102.25C28.7124 102.201 28.6966 102.15 28.6824 102.101ZM28.9623 102.971C28.9797 103.02 28.9955 103.069 29.0129 103.117C28.9955 103.068 28.9797 103.019 28.9623 102.971ZM29.1648 103.544C29.1822 103.593 29.2011 103.642 29.2201 103.691C29.2011 103.642 29.1837 103.593 29.1648 103.544ZM29.2707 103.83C29.2897 103.879 29.3071 103.928 29.3261 103.975C29.3071 103.926 29.2881 103.877 29.2707 103.83ZM29.4922 104.395C29.5127 104.444 29.5333 104.494 29.5523 104.543C29.5317 104.494 29.5111 104.444 29.4922 104.395ZM29.6076 104.676C29.6282 104.725 29.6487 104.774 29.6693 104.825C29.6487 104.776 29.6282 104.727 29.6076 104.676ZM29.7262 104.954C29.7484 105.005 29.7705 105.054 29.7911 105.105C29.7689 105.054 29.7468 105.005 29.7262 104.954ZM29.848 105.233C29.8702 105.283 29.8923 105.332 29.9144 105.383C29.8923 105.334 29.8702 105.283 29.848 105.233ZM30.1011 105.786C30.1248 105.835 30.1485 105.886 30.1707 105.935C30.1469 105.886 30.1232 105.835 30.1011 105.786ZM30.3668 106.335C30.3921 106.384 30.4158 106.435 30.4411 106.484C30.4158 106.435 30.3905 106.384 30.3668 106.335ZM30.5028 106.606C30.5281 106.656 30.555 106.707 30.5819 106.757C30.555 106.707 30.5297 106.656 30.5028 106.606ZM30.642 106.876C30.6689 106.927 30.6942 106.977 30.721 107.026C30.6942 106.976 30.6673 106.925 30.642 106.876ZM31.0801 107.68C31.1085 107.73 31.137 107.781 31.1671 107.831C31.1386 107.781 31.1085 107.73 31.0801 107.68ZM31.2319 107.944C31.262 107.994 31.2904 108.045 31.3205 108.095C31.2904 108.045 31.2604 107.994 31.2319 107.944ZM31.5435 108.469C31.5735 108.519 31.6052 108.568 31.6352 108.619C31.6052 108.57 31.5735 108.519 31.5435 108.469ZM31.8661 108.986C31.8993 109.037 31.931 109.087 31.9642 109.138C31.931 109.087 31.8977 109.037 31.8661 108.986ZM32.0322 109.242C32.0654 109.293 32.1002 109.345 32.1334 109.396C32.1002 109.345 32.0654 109.294 32.0322 109.242ZM32.2014 109.497C32.2362 109.547 32.271 109.6 32.3058 109.65C32.271 109.6 32.2362 109.549 32.2014 109.497ZM32.3738 109.75C32.4086 109.802 32.445 109.853 32.4814 109.905C32.445 109.853 32.4102 109.802 32.3738 109.75ZM32.5478 110C32.5842 110.052 32.6205 110.104 32.6585 110.155C32.6221 110.102 32.5842 110.052 32.5478 110ZM32.9052 110.495C32.9432 110.547 32.9827 110.599 33.0207 110.651C32.9811 110.599 32.9432 110.547 32.9052 110.495ZM33.2753 110.983C33.3164 111.036 33.356 111.088 33.3971 111.14C33.356 111.088 33.3149 111.036 33.2753 110.983ZM33.4635 111.224C33.5062 111.278 33.5473 111.33 33.5901 111.384C33.5473 111.331 33.5046 111.278 33.4635 111.224ZM33.6549 111.463C33.6976 111.516 33.7403 111.569 33.7846 111.622C33.7403 111.57 33.6976 111.516 33.6549 111.463ZM33.8494 111.7C33.8937 111.754 33.938 111.807 33.9823 111.86C33.938 111.806 33.8937 111.754 33.8494 111.7ZM38.1134 106.563C37.8145 107.071 37.5567 107.597 37.3194 108.094C37.5567 107.596 37.8145 107.071 38.1134 106.563ZM34.0645 111.874C34.055 111.877 34.0455 111.879 34.0361 111.882C34.0455 111.879 34.055 111.875 34.0645 111.874Z" fill="#168AD3"/>
<path d="M44.3259 86.2884C44.1693 86.2505 44.0159 86.2109 43.8625 86.173C43.8625 85.9152 43.9004 85.6574 43.9764 85.4138C43.9859 85.3838 43.9953 85.3537 44.0064 85.3237C44.0064 85.3205 44.0064 85.3189 44.0048 85.3158C44.1772 84.7654 44.4667 84.3889 44.7466 83.9983C44.7292 84.0442 44.7134 84.0916 44.6992 84.1391C44.6754 84.2166 44.6549 84.294 44.639 84.3731C44.5584 84.759 44.5679 85.1671 44.6738 85.5435C44.7624 85.8582 44.919 86.1508 45.1483 86.3865C45.1815 86.4197 45.2148 86.4529 45.2495 86.483C44.938 86.4118 44.6264 86.3406 44.3148 86.2679C44.318 86.2742 44.3227 86.2821 44.3259 86.2884Z" fill="#146CB5"/>
<path d="M57.4057 87.9365C56.4741 87.9365 55.5536 87.9096 54.6474 87.859C54.2456 87.8431 53.8471 87.8194 53.4485 87.7909C53.4454 87.7625 53.4438 87.7356 53.4406 87.7087C53.3805 87.1314 53.2571 86.5621 53.0784 86.0117C52.8997 85.4597 52.664 84.9267 52.3794 84.4222C52.0014 83.7532 51.4304 82.8627 50.7582 82.2791C50.5273 82.0782 50.2853 81.9138 50.0354 81.8062C49.3301 81.3697 48.2135 81.4061 47.2692 81.7066C44.4714 81.1657 41.6309 80.4207 38.735 79.4734V78.7047C47.2835 81.5358 55.5441 82.646 63.8475 81.754C65.1523 81.6133 66.4555 81.425 67.7572 81.1862C68.0023 81.1419 68.2475 81.0945 68.491 81.0455C68.4831 81.0644 68.4736 81.0834 68.4657 81.1024C67.5595 83.1047 66.3733 85.0058 64.9419 86.6743C64.7158 86.9385 64.488 87.1978 64.2603 87.4572C63.9629 87.4952 63.664 87.5284 63.3651 87.5569C61.3438 87.821 59.351 87.938 57.4072 87.938L57.4057 87.9365ZM66.378 83.701C66.3638 83.7231 66.3511 83.7452 66.3369 83.7674C66.3511 83.7452 66.3654 83.7231 66.378 83.701ZM66.3369 83.7674L66.2989 83.8259L66.3084 83.8101L66.3353 83.7674H66.3369ZM66.1582 84.0426L66.1186 84.1027C66.1313 84.0821 66.1455 84.0631 66.1582 84.0426ZM65.9352 84.3747L65.8972 84.4317C65.9099 84.4127 65.9225 84.3937 65.9352 84.3747ZM65.8419 84.5107C65.8276 84.5297 65.815 84.5503 65.8007 84.5708C65.815 84.5518 65.8276 84.5313 65.8419 84.5107ZM65.66 84.7685C65.6457 84.7891 65.6299 84.8096 65.6157 84.8318C65.6299 84.8112 65.6457 84.7907 65.66 84.7685ZM65.6141 84.8334C65.5999 84.8539 65.5856 84.8745 65.5698 84.8935C65.5841 84.8729 65.5983 84.8539 65.6141 84.8334ZM65.4686 85.0311L65.4291 85.0848C65.4433 85.0674 65.456 85.0485 65.4686 85.0311ZM65.4196 85.0975C65.4053 85.1165 65.3911 85.1355 65.3785 85.1529C65.3927 85.1339 65.4069 85.1165 65.4196 85.0975ZM65.3263 85.2209C65.312 85.2398 65.2978 85.2572 65.2851 85.2762C65.2994 85.2572 65.3136 85.2398 65.3263 85.2209ZM65.2757 85.2873L65.2377 85.3379C65.2503 85.3205 65.263 85.3047 65.2757 85.2873ZM65.0337 85.6004C65.0194 85.6194 65.0036 85.6384 64.9894 85.6558C65.0036 85.6368 65.0194 85.6178 65.0337 85.6004ZM64.7838 85.9104C64.7695 85.9278 64.7553 85.9468 64.7395 85.9642C64.7537 85.9468 64.7695 85.9278 64.7838 85.9104ZM64.6319 86.0923C64.6177 86.1097 64.6019 86.1287 64.5861 86.1461C64.6019 86.1287 64.6161 86.1097 64.6319 86.0923ZM64.5766 86.1572C64.5624 86.1746 64.5465 86.192 64.5323 86.2094C64.5481 86.192 64.5624 86.1746 64.5766 86.1572ZM66.2452 83.9034C66.2309 83.9255 66.2183 83.9461 66.204 83.9667L66.2452 83.9034ZM65.9779 84.3067C65.9636 84.3273 65.9494 84.3494 65.9352 84.37L65.9779 84.3067ZM65.6995 84.7068C65.6853 84.7258 65.6711 84.7464 65.6584 84.7654L65.6995 84.7068ZM64.9783 85.6669C64.9641 85.6859 64.9483 85.7048 64.934 85.7222L64.9783 85.6669ZM64.6747 86.0385C64.6604 86.0559 64.6446 86.0749 64.6304 86.0923L64.6747 86.0385Z" fill="#168AD3"/>
<path d="M67.7461 83.7991C67.7587 83.777 67.7714 83.7564 67.784 83.7358C67.7714 83.758 67.7587 83.7785 67.7461 83.7991ZM67.8457 83.6315C67.8615 83.6046 67.8774 83.5777 67.8916 83.5524C67.8758 83.5793 67.86 83.6062 67.8457 83.6315ZM67.8948 83.5476C68.2364 82.9561 68.5559 82.3472 68.8516 81.7209C68.5559 82.3472 68.2364 82.9577 67.8948 83.5476ZM69.2154 80.8969C71.8693 80.3338 74.5216 79.5652 77.1866 78.5862C77.1819 78.8471 77.1755 79.1097 77.1692 79.3706C77.3748 79.2963 77.5788 79.2204 77.7844 79.1445C77.7544 80.4066 77.7117 81.6671 77.6595 82.9245C75.6082 84.0537 73.5331 84.9584 71.4597 85.6701C71.5103 85.6527 71.5609 85.6353 71.6099 85.6179C69.5175 86.3803 67.3823 86.9718 65.1871 87.3229C64.8802 87.3719 64.5718 87.4162 64.2618 87.4557C64.4896 87.1964 64.7173 86.937 64.9435 86.6729C66.3748 85.0043 67.561 83.1032 68.4673 81.1009C68.4752 81.0819 68.4847 81.0629 68.4926 81.044C68.7346 80.9965 68.975 80.9475 69.217 80.8953L69.2154 80.8969ZM65.2124 87.2913L65.2314 87.2707C65.7454 87.1805 66.261 87.0809 66.7766 86.9702C66.2594 87.0809 65.7454 87.1805 65.2314 87.2707L65.2124 87.2928V87.2913ZM71.4328 85.678C71.3758 85.697 71.3189 85.7176 71.262 85.7366C71.3189 85.7176 71.3758 85.6986 71.4328 85.678ZM71.0405 85.8093C70.9852 85.8283 70.9282 85.8473 70.8729 85.8647C70.9282 85.8457 70.9852 85.8283 71.0405 85.8093ZM70.8444 85.8742C70.7875 85.8931 70.7321 85.9105 70.6752 85.9295C70.7321 85.9121 70.7875 85.8931 70.8444 85.8742ZM70.6515 85.9358C70.5945 85.9548 70.536 85.9722 70.4791 85.9912C70.536 85.9738 70.5945 85.9548 70.6515 85.9358ZM70.4553 85.9975C70.3984 86.0149 70.3415 86.0339 70.283 86.0513C70.3399 86.0339 70.3968 86.0149 70.4553 85.9975ZM70.2608 86.0576C70.2023 86.075 70.1454 86.094 70.0868 86.1114C70.1454 86.094 70.2023 86.0766 70.2608 86.0576ZM69.8702 86.1762C69.8132 86.1936 69.7547 86.211 69.6962 86.2268C69.7547 86.2094 69.8116 86.1936 69.8702 86.1762ZM69.3024 86.3407L69.296 86.3423C69.2328 86.3597 69.1711 86.3771 69.1078 86.3945H69.1047L69.3008 86.3391L69.3024 86.3407ZM68.714 86.502C68.6508 86.5194 68.5875 86.5353 68.5258 86.5511C68.5891 86.5353 68.6508 86.5179 68.714 86.502ZM68.5211 86.5527C68.461 86.5685 68.4009 86.5843 68.3392 86.6001C68.3993 86.5843 68.4594 86.5685 68.5211 86.5527ZM68.1288 86.6523C68.0671 86.6681 68.007 86.6823 67.9454 86.6982C68.007 86.6839 68.0671 86.6681 68.1288 86.6523ZM67.9343 86.7013C67.8726 86.7171 67.8109 86.7314 67.7492 86.7456C67.8109 86.7314 67.8726 86.7156 67.9343 86.7013ZM67.5468 86.7946C67.4867 86.8089 67.425 86.8231 67.3649 86.8373C67.425 86.8231 67.4851 86.8089 67.5468 86.7946ZM67.1561 86.8848C67.0945 86.899 67.0344 86.9117 66.9727 86.9259C67.0344 86.9133 67.0945 86.899 67.1561 86.8848ZM66.9632 86.9275C66.8999 86.9417 66.8367 86.9544 66.775 86.9686C66.8383 86.9544 66.9015 86.9417 66.9632 86.9275Z" fill="#30A57C"/>
<path d="M34.4647 112.413L34.4425 112.388C36.0431 111.848 37.0047 110.172 37.7386 108.622C38.0549 107.955 38.387 107.257 38.7824 106.621C38.9153 106.792 39.0497 106.961 39.1857 107.129L39.1841 107.132L39.2 107.105C39.3455 107.298 39.4925 107.49 39.6396 107.676C45.4757 114.561 53.2366 117.866 60.5751 117.732C61.8278 117.71 63.0677 117.587 64.2824 117.363C64.3409 117.405 64.3994 117.446 64.4579 117.488C65.2408 118.061 65.9114 118.777 66.359 119.598C66.3306 119.611 66.3021 119.622 66.2736 119.635C66.3005 119.624 66.3258 119.613 66.3527 119.601C66.4666 119.813 66.5662 120.035 66.6484 120.269C63.1879 121.752 59.3779 122.573 55.3749 122.573C50.2268 122.573 45.395 121.215 41.2196 118.836C38.5895 117.337 36.2202 115.434 34.1958 113.212V113.209L34.2274 112.451C34.3002 112.432 34.3698 112.41 34.4409 112.388L34.4631 112.413H34.4647ZM65.8687 119.804C65.8308 119.82 65.7928 119.834 65.7564 119.85C65.7944 119.834 65.8323 119.82 65.8687 119.804ZM65.7042 119.87C65.6679 119.885 65.6315 119.899 65.5967 119.913C65.6331 119.899 65.6694 119.885 65.7042 119.87ZM65.5398 119.935C65.5097 119.946 65.4797 119.959 65.4512 119.97C65.4812 119.959 65.5113 119.946 65.5398 119.935ZM65.3737 120C65.3531 120.008 65.3341 120.016 65.3136 120.022C65.3326 120.014 65.3531 120.006 65.3737 120ZM63.8822 120.525C63.8506 120.535 63.819 120.546 63.7874 120.555C63.819 120.546 63.8506 120.536 63.8822 120.525ZM63.713 120.579C63.6909 120.585 63.6672 120.593 63.645 120.599C63.6672 120.593 63.6893 120.585 63.713 120.579ZM63.5454 120.631C63.5232 120.637 63.5011 120.645 63.4774 120.652C63.4995 120.645 63.5216 120.637 63.5454 120.631ZM63.2101 120.731C63.1895 120.737 63.1674 120.743 63.1468 120.75C63.169 120.743 63.1895 120.737 63.2101 120.731ZM62.3655 120.963C62.3323 120.971 62.3007 120.981 62.2674 120.988C62.3007 120.981 62.3323 120.973 62.3655 120.963ZM61.6838 121.131C61.6664 121.136 61.6475 121.139 61.6301 121.144C61.6475 121.14 61.6664 121.136 61.6838 121.131ZM60.137 121.441C60.0943 121.449 60.0516 121.455 60.0089 121.463C60.0516 121.457 60.0943 121.449 60.137 121.441ZM37.4001 110.529C37.4918 110.386 37.5788 110.237 37.6642 110.088C37.5788 110.237 37.4918 110.384 37.4001 110.529ZM37.7069 110.014C37.805 109.84 37.8999 109.663 37.99 109.486C37.8999 109.663 37.805 109.838 37.7069 110.014ZM38.1419 109.182C38.1672 109.131 38.1909 109.081 38.2162 109.03L38.1419 109.182ZM39.6744 107.719C39.7156 107.771 39.7583 107.823 39.801 107.877C39.7583 107.825 39.7171 107.773 39.6744 107.719ZM39.9354 108.043C39.9781 108.095 40.0208 108.148 40.0635 108.198C40.0208 108.146 39.9781 108.095 39.9354 108.043ZM40.4668 108.677C40.5095 108.726 40.5522 108.777 40.5965 108.826C40.5538 108.777 40.5111 108.728 40.4668 108.677ZM41.0093 109.289C41.0536 109.339 41.0979 109.386 41.1421 109.433C41.0979 109.386 41.0536 109.337 41.0093 109.289ZM41.2861 109.587C41.3304 109.634 41.3746 109.682 41.4205 109.729C41.3762 109.682 41.3304 109.634 41.2861 109.587ZM41.5644 109.879C41.6103 109.927 41.6546 109.973 41.7004 110.02C41.6546 109.974 41.6087 109.927 41.5644 109.879ZM41.8475 110.167C41.8934 110.213 41.9377 110.257 41.9836 110.303C41.9377 110.259 41.8934 110.213 41.8475 110.167ZM42.1338 110.45C42.1797 110.495 42.224 110.539 42.2698 110.583C42.224 110.539 42.1781 110.495 42.1338 110.45ZM42.4201 110.727C42.4659 110.771 42.5118 110.814 42.5577 110.858C42.5118 110.816 42.4659 110.771 42.4201 110.727ZM43.0021 111.266C43.048 111.308 43.0954 111.35 43.1429 111.391C43.0954 111.35 43.0495 111.308 43.0021 111.266ZM43.2979 111.529C43.3453 111.57 43.3912 111.611 43.4386 111.651C43.3912 111.61 43.3453 111.57 43.2979 111.529ZM44.5046 112.522C44.5521 112.56 44.5995 112.597 44.6469 112.633C44.5995 112.597 44.5521 112.559 44.5046 112.522ZM44.813 112.758C44.8605 112.794 44.9079 112.831 44.9554 112.865C44.9079 112.829 44.8605 112.794 44.813 112.758ZM45.4362 113.215C45.4836 113.248 45.5295 113.283 45.5769 113.316C45.5295 113.283 45.482 113.25 45.4362 113.215ZM46.0704 113.653C46.1162 113.683 46.1621 113.715 46.208 113.745C46.1621 113.715 46.1162 113.685 46.0704 113.653ZM46.4057 113.873C46.4452 113.898 46.4848 113.925 46.5259 113.95C46.4863 113.925 46.4468 113.898 46.4057 113.873ZM46.7568 114.096C46.7868 114.115 46.8153 114.134 46.8454 114.151C46.8153 114.132 46.7868 114.113 46.7568 114.096ZM47.1664 114.347C47.1965 114.366 47.2281 114.384 47.2582 114.401C47.2281 114.382 47.1965 114.365 47.1664 114.347ZM48.1391 114.904C48.1881 114.931 48.2356 114.956 48.2846 114.982C48.2356 114.956 48.1881 114.929 48.1391 114.904ZM48.4665 115.08C48.5155 115.105 48.5661 115.132 48.6152 115.157C48.5661 115.132 48.5155 115.107 48.4665 115.08ZM48.7955 115.25C48.8461 115.276 48.8983 115.301 48.9489 115.328C48.8983 115.303 48.8461 115.277 48.7955 115.25ZM49.4581 115.575C49.5103 115.6 49.5625 115.624 49.6147 115.647C49.5625 115.624 49.5103 115.598 49.4581 115.575ZM49.7919 115.73C49.8441 115.753 49.8962 115.777 49.9484 115.799C49.8962 115.776 49.8441 115.752 49.7919 115.73ZM50.1272 115.878C50.1794 115.902 50.2331 115.924 50.2853 115.946C50.2331 115.924 50.1794 115.901 50.1272 115.878ZM50.7993 116.161C50.8531 116.184 50.9053 116.204 50.9591 116.225C50.9053 116.204 50.8531 116.182 50.7993 116.161ZM51.1378 116.296C51.1916 116.316 51.2438 116.337 51.2975 116.356C51.2438 116.335 51.1916 116.315 51.1378 116.296ZM51.4763 116.424C51.53 116.445 51.5838 116.464 51.6376 116.483C51.5838 116.464 51.53 116.443 51.4763 116.424ZM51.8147 116.547C51.8685 116.566 51.9223 116.585 51.9776 116.604C51.9238 116.585 51.8701 116.566 51.8147 116.547ZM52.1548 116.666C52.2085 116.685 52.2623 116.702 52.3161 116.72C52.2623 116.702 52.2085 116.683 52.1548 116.666ZM52.4948 116.778C52.5486 116.796 52.6039 116.813 52.6577 116.831C52.6023 116.813 52.5486 116.796 52.4948 116.778ZM52.8364 116.886C52.8918 116.903 52.9455 116.919 53.0009 116.936C52.9455 116.921 52.8918 116.903 52.8364 116.886ZM53.5212 117.087C53.5766 117.103 53.632 117.117 53.6873 117.133C53.632 117.118 53.5766 117.103 53.5212 117.087ZM54.2092 117.267C54.2646 117.281 54.32 117.294 54.3753 117.307C54.32 117.294 54.2646 117.28 54.2092 117.267ZM54.554 117.349C54.6094 117.362 54.6647 117.375 54.7185 117.387C54.6632 117.375 54.6094 117.362 54.554 117.349ZM54.9004 117.427C54.9558 117.438 55.0095 117.45 55.0633 117.462C55.0079 117.45 54.9542 117.438 54.9004 117.427ZM55.59 117.564C55.6437 117.574 55.6991 117.585 55.7529 117.594C55.6975 117.585 55.6437 117.574 55.59 117.564ZM56.2811 117.681C56.3365 117.689 56.3903 117.699 56.4456 117.707C56.3903 117.699 56.3365 117.691 56.2811 117.681ZM56.6259 117.732C56.6813 117.74 56.735 117.748 56.7888 117.754C56.7335 117.746 56.6797 117.74 56.6259 117.732ZM56.9739 117.778C57.0276 117.784 57.0798 117.792 57.1336 117.797C57.0798 117.791 57.0276 117.784 56.9739 117.778ZM57.3186 117.819C57.3724 117.825 57.4246 117.832 57.4784 117.836C57.4246 117.83 57.3708 117.825 57.3186 117.819ZM57.6634 117.855C57.7172 117.86 57.771 117.866 57.8232 117.871C57.7694 117.866 57.7156 117.862 57.6634 117.855ZM58.013 117.885C58.0652 117.89 58.1158 117.893 58.168 117.898C58.1158 117.895 58.0652 117.89 58.013 117.885ZM58.3609 117.911C58.4115 117.914 58.4621 117.917 58.5112 117.92C58.4606 117.917 58.4099 117.914 58.3609 117.911ZM58.712 117.931C58.7595 117.934 58.8085 117.936 58.856 117.939C58.8085 117.938 58.7611 117.934 58.712 117.931ZM59.0631 117.947C59.109 117.949 59.1549 117.95 59.1992 117.952C59.1533 117.95 59.1074 117.949 59.0631 117.947ZM59.4253 117.957C59.4649 117.958 59.5028 117.958 59.5424 117.96C59.5028 117.96 59.4649 117.958 59.4253 117.957Z" fill="#30A57C"/>
<path d="M65.7264 117.05C65.9526 116.993 66.1787 116.932 66.4033 116.869C66.9854 117.485 67.4361 118.202 67.6828 118.989C67.7572 119.228 67.8125 119.472 67.8457 119.723C67.4519 119.915 67.0534 120.097 66.6501 120.269C66.5662 120.035 66.4682 119.813 66.3543 119.602C66.3559 119.6 66.359 119.6 66.3606 119.598C65.9146 118.778 65.2424 118.063 64.4596 117.489C64.4026 117.446 64.3441 117.405 64.284 117.364C64.7205 117.284 65.1539 117.191 65.5825 117.085C65.6299 117.074 65.679 117.061 65.7264 117.049V117.05Z" fill="#7DB3AE"/>
<path d="M31.8124 77.6562H31.8092C31.8456 77.6024 31.882 77.5487 31.9215 77.498C31.8851 77.5487 31.8487 77.6024 31.8124 77.6562Z" fill="#17296E"/>
<path d="M80.1711 77.4015C64.8755 83.9066 50.4166 83.3246 34.8633 77.3129C33.3702 76.7357 32.426 75.2553 32.5019 73.6547L33.1188 65.4842L33.1773 64.7077L33.4256 61.4069L33.7561 57.0465L34.093 52.569H80.5949L80.9935 57.1018L81.3652 61.3531L81.6514 64.6397L81.7447 65.7215L82.447 73.7275C82.5435 75.3075 81.6309 76.7768 80.1711 77.3968V77.4015Z" fill="#6157A4"/>
<path d="M63.2781 81.0724C63.1468 81.0471 63.0155 81.0233 62.8827 80.998C67.8188 80.3006 72.7771 78.9008 77.824 76.7641C77.8208 77.0314 77.8176 77.3019 77.8129 77.5691C72.978 79.4291 68.1605 80.5979 63.2781 81.0739V81.0724ZM79.725 67.7965L79.5005 65.3371L79.4071 64.2537L79.1209 60.9672L79.0291 59.9249L79.3091 59.6102L80.4478 59.2717L81.139 67.1575C80.6155 67.3347 80.141 67.5498 79.725 67.7981V67.7965Z" fill="#BBB7D8"/>
<path d="M38.7334 77.933V60.6335L55.1993 65.5349C55.8873 65.7405 56.5943 65.8417 57.3029 65.8417C58.0098 65.8417 58.7184 65.7389 59.4064 65.5349L79.0086 59.7004L79.0276 59.9266L77.8904 61.2029C76.951 62.2578 75.7347 63.0312 74.3793 63.4345L58.13 68.2726C57.8596 68.3533 57.5796 68.3928 57.2981 68.3928C57.0182 68.3928 56.7382 68.3533 56.4678 68.2726L51.5791 66.8175C51.3324 66.7432 51.0856 66.71 50.8436 66.71C49.5436 66.71 48.3906 67.7096 48.2862 69.0855L47.9414 73.6579C47.8655 75.2585 48.8113 76.7389 50.3027 77.3161C54.5651 78.9626 58.7453 80.2025 62.8811 80.9997C62.1647 81.1009 61.4482 81.1879 60.7317 81.2591C61.5811 81.2179 62.4304 81.1562 63.2749 81.074C64.8929 80.9158 66.503 80.6833 68.1099 80.3734C68.3424 80.3291 68.5764 80.2816 68.8089 80.2342C69.0367 80.1867 69.2644 80.1377 69.4938 80.0887C72.271 79.4766 75.0388 78.6384 77.8113 77.5708C77.8066 77.8333 77.8019 78.0959 77.7971 78.3584C74.9139 79.4529 72.0559 80.2959 69.2122 80.8984C68.9702 80.9491 68.7299 80.9997 68.4879 81.0471C68.2427 81.0961 67.9976 81.142 67.754 81.1879C58.1237 82.9545 48.6199 81.9803 38.7318 78.7064V77.9345L38.7334 77.933ZM34.3176 59.3192L33.6012 59.1057L33.4256 61.4101L33.1773 64.7109L33.1188 65.4874L32.5019 73.6579C32.4624 74.4756 32.6917 75.2632 33.1219 75.9133C33.1536 75.9607 33.1852 76.0066 33.2184 76.0509C33.6249 76.6092 34.1879 77.0536 34.8633 77.3146C35.5876 77.5945 36.3088 77.8618 37.0285 78.118V77.3415V60.1258L34.3176 59.3192ZM35.1258 76.6329C35.1068 76.6266 35.0894 76.6187 35.0705 76.6108C35.0878 76.6187 35.1068 76.625 35.1258 76.6329ZM35.0689 76.6108C35.0515 76.6028 35.0325 76.5965 35.0151 76.5886C35.0325 76.5965 35.0515 76.6044 35.0689 76.6108ZM35.0135 76.587C34.9961 76.5791 34.9771 76.5712 34.9597 76.5633C34.9771 76.5712 34.9945 76.5791 35.0135 76.587ZM34.9597 76.5633C34.9423 76.5554 34.9234 76.5475 34.906 76.538C34.9234 76.5459 34.9423 76.5554 34.9597 76.5633ZM34.8522 76.5111C34.8348 76.5032 34.819 76.4937 34.8016 76.4842C34.819 76.4937 34.8348 76.5016 34.8522 76.5111ZM34.8 76.4842C34.7652 76.4653 34.732 76.4463 34.6988 76.4273C34.732 76.4463 34.7668 76.4653 34.8 76.4842ZM34.6972 76.4273C34.6814 76.4178 34.664 76.4083 34.6482 76.3972C34.664 76.4067 34.6814 76.4178 34.6972 76.4273ZM34.6466 76.3972C34.6308 76.3878 34.6134 76.3767 34.5976 76.3672C34.6134 76.3783 34.6308 76.3878 34.6466 76.3972ZM34.5976 76.3656C34.5817 76.3561 34.5659 76.3451 34.5501 76.334C34.5659 76.3451 34.5817 76.3545 34.5976 76.3656ZM34.5485 76.334C34.5327 76.3229 34.5169 76.3134 34.5011 76.3023C34.5169 76.3134 34.5327 76.3245 34.5485 76.334ZM34.452 76.2676C34.4362 76.2565 34.422 76.2454 34.4078 76.2343C34.422 76.2454 34.4378 76.2565 34.452 76.2676ZM34.4046 76.2328C34.3745 76.2106 34.3445 76.1869 34.3145 76.1616C34.3445 76.1853 34.373 76.209 34.4046 76.2328ZM34.3145 76.1616C34.3002 76.1489 34.286 76.1379 34.2702 76.1252C34.2844 76.1379 34.2986 76.1505 34.3145 76.1616ZM34.2702 76.1236L34.2638 76.1173C34.2512 76.1062 34.2401 76.0967 34.2275 76.0857C34.2417 76.0983 34.2559 76.111 34.2702 76.1236ZM34.1816 76.0461C34.1674 76.0335 34.1547 76.0208 34.1421 76.0082C34.1547 76.0208 34.1689 76.0335 34.1816 76.0461ZM34.1405 76.0082C34.1262 75.9955 34.1136 75.9813 34.0994 75.9686C34.112 75.9813 34.1262 75.9955 34.1405 76.0082ZM34.0994 75.9671C34.0867 75.9544 34.0725 75.9402 34.0598 75.9275C34.0725 75.9402 34.0851 75.9544 34.0994 75.9671ZM34.0582 75.9259C34.0456 75.9133 34.0329 75.899 34.0203 75.8864C34.0329 75.9006 34.0456 75.9133 34.0582 75.9259ZM33.9048 75.7551C33.8811 75.7266 33.8574 75.6966 33.8352 75.6681C33.8574 75.6982 33.8811 75.7266 33.9048 75.7551ZM33.6423 75.3819C33.6328 75.366 33.6233 75.3502 33.6138 75.3328C33.6233 75.3486 33.6328 75.366 33.6423 75.3819ZM33.6138 75.3328L33.6091 75.3249C33.6012 75.3123 33.5948 75.2996 33.5869 75.287C33.5948 75.3028 33.6043 75.3186 33.6138 75.3344V75.3328ZM33.5853 75.2822C33.5758 75.2664 33.5679 75.249 33.5584 75.2332C33.5664 75.249 33.5758 75.2664 33.5853 75.2822ZM33.5584 75.2332C33.5505 75.2174 33.5411 75.2 33.5331 75.1842C33.5411 75.2 33.549 75.2174 33.5584 75.2332ZM33.5316 75.1794C33.5237 75.1636 33.5157 75.1478 33.5094 75.132C33.5173 75.1478 33.5237 75.1636 33.5316 75.1794ZM33.5063 75.1272C33.4983 75.1114 33.492 75.0956 33.4841 75.0798C33.4904 75.0956 33.4983 75.1114 33.5063 75.1272ZM33.4825 75.0766C33.4746 75.0608 33.4683 75.0434 33.4604 75.026C33.4667 75.0434 33.4746 75.0592 33.4825 75.0766ZM33.4604 75.0244C33.4525 75.007 33.4462 74.9896 33.4382 74.9722C33.4446 74.9896 33.4525 75.007 33.4604 75.0244ZM33.4382 74.9706C33.4319 74.9548 33.4256 74.9374 33.4193 74.92C33.4256 74.9374 33.4319 74.9532 33.4382 74.9706ZM33.4177 74.9153C33.4114 74.8995 33.405 74.8821 33.4003 74.8663C33.4066 74.8821 33.4114 74.8995 33.4177 74.9153ZM33.3971 74.8615C33.3908 74.8457 33.3861 74.8283 33.3797 74.8125C33.3845 74.8283 33.3908 74.8457 33.3971 74.8615ZM33.3781 74.8077C33.3718 74.7903 33.3671 74.7729 33.3607 74.7556C33.3655 74.7729 33.3718 74.7903 33.3781 74.8077ZM33.3434 74.6954C33.3386 74.6796 33.3339 74.6622 33.3291 74.6464C33.3339 74.6638 33.3386 74.6796 33.3434 74.6954ZM33.3275 74.6401C33.3228 74.6227 33.318 74.6069 33.3149 74.5895C33.3196 74.6069 33.3228 74.6227 33.3275 74.6401ZM33.2991 74.5294C33.2943 74.5104 33.2912 74.493 33.2864 74.474C33.2896 74.493 33.2943 74.5104 33.2991 74.5294ZM33.2643 74.357C33.2611 74.3396 33.2579 74.3222 33.2564 74.3048C33.2595 74.3222 33.2611 74.3396 33.2643 74.357ZM33.2548 74.3016C33.2516 74.2827 33.25 74.2653 33.2469 74.2463C33.25 74.2653 33.2516 74.2842 33.2548 74.3016ZM33.2469 74.2447C33.2437 74.2257 33.2421 74.2083 33.2405 74.1893C33.2421 74.2083 33.2453 74.2257 33.2469 74.2447ZM33.239 74.1846C33.2374 74.1672 33.2358 74.1498 33.2342 74.1308C33.2358 74.1482 33.2374 74.1656 33.239 74.1846ZM33.2279 74.0676C33.2263 74.0486 33.2247 74.0312 33.2247 74.0122C33.2263 74.0312 33.2263 74.0502 33.2279 74.0676ZM33.2247 74.0106C33.2232 73.9916 33.2232 73.9727 33.2216 73.9521C33.2216 73.9711 33.2232 73.9901 33.2247 74.0106ZM33.2216 73.9505C33.2216 73.9315 33.22 73.9126 33.22 73.8952C33.22 73.9141 33.22 73.9331 33.2216 73.9505ZM33.22 73.8303C33.22 73.8129 33.22 73.7939 33.2216 73.7765C33.2216 73.7939 33.2216 73.8129 33.22 73.8303ZM33.2216 73.7702C33.2216 73.7512 33.2232 73.7323 33.2232 73.7133C33.2216 73.7323 33.2216 73.7512 33.2216 73.7702Z" fill="#494994"/>
<path d="M60.7349 81.2575C61.4513 81.1863 62.1662 81.0993 62.8842 80.9981C63.0155 81.0234 63.1484 81.0487 63.2796 81.0724C62.4335 81.1546 61.5858 81.2163 60.7364 81.2575H60.7349ZM79.0291 59.925L79.0101 59.6988L79.3106 59.6086L79.0307 59.9234L79.0291 59.925Z" fill="#878CB9"/>
<path d="M92.1737 49.4532V55.0189L57.3028 65.3973L22.4304 55.0189V49.4532H92.1737Z" fill="#6157A4"/>
<path d="M89.9073 54.9319V50.8893L91.4431 50.4323V54.4732L89.9073 54.9319Z" fill="#BBB7D8"/>
<path d="M56.7667 64.355C56.4678 64.3281 56.1704 64.2775 55.8763 64.2032C56.1704 64.2759 56.4678 64.3265 56.7667 64.355ZM23.1611 50.4323L22.4304 50.2156V55.0204L32.94 58.1488L33.6565 58.3623L34.3729 58.5759L37.0269 59.3651V58.6027V54.5602L23.1611 50.4338V50.4323ZM33.4746 57.5447L32.997 57.4023L23.1611 54.4748L33.4746 57.5447ZM55.8209 64.1921C55.8051 64.1873 55.7877 64.1842 55.7719 64.1794C55.7877 64.1842 55.8051 64.1889 55.8209 64.1921ZM55.6849 64.1557L55.6754 64.1525L55.6801 64.1541L55.6849 64.1557ZM55.6137 64.1352L38.7318 59.1104V55.0679L55.9838 60.2017C56.4156 60.3298 56.8568 60.3947 57.3013 60.3947V64.3819V65.3625V65.4004L57.1415 65.353L38.7334 59.8743V59.112L55.6153 64.1367L55.6137 64.1352Z" fill="#494994"/>
<path d="M92.1737 49.4517L57.3028 59.8301L22.4304 49.4517L57.3028 35.7076L92.1737 49.4517Z" fill="#6157A4"/>
<path d="M56.3207 59.5374L22.4304 49.4532L46.034 40.1487C36.3768 47.356 42.1734 53.6824 56.3207 59.539V59.5374Z" fill="#6157A4"/>
<path d="M57.3013 58.9302C56.9992 58.9302 56.6955 58.8859 56.4013 58.7989L54.9431 58.3655L83.5731 49.8455C84.571 49.5482 84.6311 48.1595 83.6632 47.7768L56.1688 36.9413C56.5342 36.8005 56.9185 36.7294 57.3028 36.7294C57.6951 36.7294 58.0873 36.8037 58.4606 36.9508L89.9358 49.3568L58.2028 58.8005C57.9086 58.889 57.6049 58.9317 57.3013 58.9317V58.9302Z" fill="#BBB7D8"/>
<path d="M61.6617 46.4893C61.6617 47.5458 59.71 48.403 57.3028 48.403C54.8957 48.403 52.944 47.5458 52.944 46.4893C52.944 45.4312 54.8957 44.5756 57.3028 44.5756C59.71 44.5756 61.6617 45.4312 61.6617 46.4893Z" fill="#102770"/>
<path d="M37.8809 82.907C37.4096 82.907 37.0284 82.5259 37.0284 82.0546V54.0493C37.0284 53.6982 37.2435 53.3819 37.5725 53.2554L56.9944 45.6954C57.4341 45.5246 57.9276 45.7428 58.0984 46.1809C58.2692 46.619 58.0525 47.1141 57.6128 47.2849L38.735 54.6329V82.0546C38.735 82.5259 38.3538 82.907 37.8825 82.907H37.8809Z" fill="#102770"/>
<path d="M36.2218 89.3457H39.6855C40.5348 89.3457 41.1754 88.5723 41.0156 87.7372L40.0382 82.6049C39.9164 81.966 39.3581 81.5026 38.7065 81.5026H37.4428C36.8149 81.5026 36.2693 81.9328 36.1238 82.5433L34.9012 87.6771C34.6988 88.528 35.3441 89.3457 36.2187 89.3457H36.2218Z" fill="#FEDC34"/>
<path d="M51.4177 57.3154L40.3213 54.013L44.1013 52.5421C45.8331 54.1727 48.3131 55.7622 51.4161 57.3154H51.4177Z" fill="#494994"/>
<path d="M37.6595 53.2205L24.6699 49.3551L44.2389 41.6417C42.2113 43.5491 41.2671 45.3933 41.2671 47.1852C41.2671 48.5517 41.8175 49.8881 42.8566 51.1961L37.6595 53.219V53.2205Z" fill="#494994"/>
<path d="M39.2126 54.4463L37.0632 53.8074C37.1376 53.5591 37.321 53.3535 37.5709 53.2554L37.6579 53.2222L42.855 51.1993C43.214 51.6501 43.63 52.0977 44.1029 52.5437L40.3229 54.0146L39.2142 54.4463H39.2126Z" fill="#102770"/>
<path d="M90.5811 101.47L81.8871 96.0706L84.6043 91.6912L93.303 97.0907L90.124 98.0666L90.5811 101.47Z" fill="#FF5722"/>
<path d="M89.648 100.026L88.7417 99.4631L88.4207 97.0733L90.7393 96.3616L91.5443 96.8614L89.9089 97.3627C89.5657 97.4687 89.349 97.8071 89.3981 98.1614L89.6496 100.025L89.648 100.026Z" fill="#FFB7A0"/>
<path d="M84.6928 94.459L83.0906 89.5577L92.8222 86.3787L91.4778 89.651L94.4227 91.28L84.6928 94.459Z" fill="#FF5722"/>
<path d="M92.082 91.2737L89.95 90.0938L90.9005 87.7784L91.5395 87.5696L90.7993 89.3726C90.657 89.7174 90.7962 90.1128 91.122 90.2931L92.5929 91.106L92.082 91.2737Z" fill="#FFB7A0"/>
<path d="M89.4329 63.0249C89.4329 63.0249 92.5881 63.8094 96.4804 67.2699C87.3673 83.4606 84.4967 100.936 89.406 120.014L86.2665 118.82L82.4153 86.0655L89.4329 63.0265V63.0249Z" fill="white"/>
<path d="M88.0711 117.583C87.6947 117.503 87.3056 117.422 86.926 117.341C86.8232 115.051 86.7884 112.696 86.8201 110.289C87.1126 112.711 87.5286 115.143 88.0711 117.583ZM90.6111 78.1512C91.3545 74.6496 92.2054 71.1337 93.1591 67.6289C93.2555 67.3932 93.3204 67.1465 93.3504 66.8919C93.3979 66.4917 93.3615 66.0916 93.2445 65.6993C93.7617 66.0378 94.312 66.4316 94.8862 66.8855C95.2737 67.1924 95.3844 67.7301 95.1503 68.1635C93.3726 71.4484 91.859 74.784 90.6111 78.1512Z" fill="#B7BED4"/>
<path d="M84.4335 69.8336C80.1758 69.3212 76.9351 67.1323 77.1993 64.9465C77.4634 62.7592 81.1295 61.4022 85.3872 61.9146C89.6448 62.4286 92.8839 64.6159 92.6198 66.8049C92.4458 68.2489 90.7851 69.3322 88.4491 69.7514C87.2503 69.968 85.8743 70.0076 84.4319 69.8336H84.4335Z" fill="white"/>
<path d="M88.2103 69.0492L88.7338 67.1703H88.7322L89.0881 65.8955C87.41 64.8105 85.3365 64.3455 83.3864 64.3455C81.2291 64.3455 79.2237 64.9133 78.0676 65.8354C77.9458 65.5602 77.8967 65.2913 77.9284 65.0351C77.9442 64.9023 77.9821 64.771 78.0407 64.6413C79.1604 63.6813 81.1675 63.1008 83.5114 63.1008C84.0887 63.1008 84.6849 63.1356 85.2938 63.21C88.2261 63.5642 90.6776 64.7141 91.8305 66.109C91.897 66.3162 91.9175 66.5218 91.8938 66.7195C91.7689 67.757 90.366 68.6649 88.321 69.0318C88.2846 69.0381 88.2467 69.0444 88.2103 69.0508V69.0492Z" fill="#B7BED4"/>
<path d="M77.1993 64.9465C77.2024 65.13 77.204 65.315 77.2056 65.4953C77.1803 65.3135 77.1771 65.13 77.1993 64.9465Z" fill="white"/>
<path d="M92.6213 66.8048C92.5976 67.0041 92.5454 67.197 92.4663 67.3821C92.5169 67.1907 92.5691 66.9978 92.6213 66.8048Z" fill="white"/>
<path d="M77.5156 66.3842C79.2205 64.1953 85.21 63.3871 89.0881 65.8939L87.992 69.8242C84.1124 70.4868 80.6186 69.3433 77.5156 66.3842Z" fill="white"/>
<path d="M88.2087 69.0491L88.7322 67.1702C88.7322 67.1702 88.7322 67.1702 88.7338 67.1702L88.2103 69.0491H88.2087Z" fill="#8590B6"/>
<path d="M86.2128 69.2088C85.6576 69.2088 85.0914 69.174 84.522 69.106C81.7748 68.7739 79.7061 67.7759 78.667 66.7004C79.8421 66.0836 81.4696 65.7214 83.1935 65.7214C85.0819 65.7214 87.0858 66.1564 88.7338 67.1702L88.2103 69.0491C87.5808 69.1566 86.9071 69.2088 86.2143 69.2088H86.2128Z" fill="#B7BED4"/>
<path d="M70.8744 117.439C72.0606 113.427 73.076 109.179 73.9253 104.787C75.4959 96.651 76.497 88.0187 76.9493 79.4354C77.1201 76.2374 77.2103 73.0458 77.2261 69.8889C77.2356 68.4307 77.2277 66.9677 77.204 65.4968C77.4855 67.488 80.5332 69.3654 84.4318 69.8351C85.8727 70.0091 87.2502 69.9696 88.4491 69.7513C90.4609 69.3907 91.9744 68.5382 92.4647 67.3821C91.2596 71.801 90.1999 76.3102 89.3095 80.8446C87.6994 89.023 86.6334 97.2852 86.2412 105.255C86.0039 110.069 86.0118 114.779 86.2949 119.299C86.0451 121.381 82.7063 122.711 78.7112 122.39C78.5119 122.374 78.3095 122.355 78.1071 122.33C73.8478 121.816 70.6087 119.625 70.8729 117.439H70.8744Z" fill="white"/>
<path d="M75.5734 121.03C74.6782 120.735 73.8732 120.356 73.2057 119.905C72.1208 119.171 71.5387 118.328 71.5957 117.582C73.4651 111.235 74.9534 104.17 76.021 96.7032C76.1333 96.7443 76.2471 96.7854 76.3594 96.825C76.361 96.825 76.361 96.825 76.361 96.825C76.3689 96.8281 76.3752 96.8297 76.3832 96.8329C76.3847 96.8345 76.3879 96.8345 76.3895 96.8345C76.3942 96.8361 76.3974 96.8376 76.4021 96.8392C76.4085 96.8408 76.4148 96.844 76.4211 96.8455C76.4227 96.8455 76.4243 96.8471 76.4259 96.8471C76.4306 96.8487 76.4353 96.8503 76.4401 96.8519C76.5903 96.9025 76.7406 96.9531 76.8908 97.0005C76.8924 97.0005 76.8924 97.0005 76.894 97.0005C76.9019 97.0037 76.9098 97.0053 76.9193 97.0084C76.9209 97.0084 76.9225 97.01 76.9256 97.01C76.9288 97.01 76.932 97.0116 76.9367 97.0132C76.9415 97.0148 76.9462 97.0163 76.9509 97.0179C76.9525 97.0179 76.9541 97.0195 76.9557 97.0195C76.9636 97.0211 76.9699 97.0243 76.9778 97.0258C76.9794 97.0258 76.9794 97.0274 76.981 97.0274C77.3748 97.1508 77.7734 97.2615 78.1767 97.3596C78.1735 97.3596 78.1703 97.3596 78.1688 97.358C79.9307 97.7897 81.7669 97.9906 83.6664 97.9906C84.4508 97.9906 85.2464 97.9574 86.0514 97.891C85.8316 100.161 85.6623 102.403 85.5437 104.611C83.4133 102.743 81.3936 101.81 79.4831 101.81C79.2237 101.81 78.9643 101.828 78.7097 101.862C77.8872 101.973 77.2356 102.617 77.0885 103.433C76.9747 104.067 76.856 104.697 76.7358 105.324C75.8865 109.717 74.8712 113.963 73.685 117.977C73.5553 119.061 74.286 120.147 75.575 121.028L75.5734 121.03ZM79.2933 89.6651C79.1857 89.6414 78.6353 89.5244 78.5262 89.5006C78.5294 89.5006 78.5325 89.5022 78.5357 89.5022C78.2605 89.4405 77.9853 89.3757 77.7101 89.3077C77.7069 89.3061 77.7038 89.3061 77.7006 89.3045C77.4491 89.2413 77.1961 89.1764 76.9446 89.1068C77.5788 82.8421 77.9252 76.3798 77.96 69.8889C77.9632 69.2768 77.9632 68.66 77.9616 68.0385C78.5262 68.5351 79.2284 68.9842 80.0382 69.3654C80.0382 69.7181 80.0382 70.0708 80.035 70.4235C80.0192 73.5803 79.9291 76.772 79.7583 79.97C79.7504 80.1297 79.7409 80.2879 79.733 80.446C79.6839 81.3396 80.2122 82.1763 81.0536 82.4847C81.8096 82.7615 82.6035 82.9086 83.4449 82.9086C84.9569 82.9086 86.6192 82.4309 88.4618 81.3649C87.8829 84.37 87.3799 87.3607 86.9608 90.3199C86.8343 90.3231 86.7078 90.3262 86.5812 90.3278C86.4705 90.3294 86.3582 90.331 86.2475 90.331C86.2001 90.331 86.1526 90.331 86.1052 90.331C85.9486 90.331 85.792 90.3294 85.6355 90.3278L79.2949 89.662L79.2933 89.6651ZM79.3138 89.6699L79.4056 89.6888C81.4885 90.1064 83.5035 90.3057 85.6323 90.3326L79.3123 89.6699H79.3138Z" fill="#B7BED4"/>
<path d="M75.3361 96.4344L76.2424 88.9108C79.9971 90.0179 83.8277 90.4797 87.7374 90.2962L86.8311 97.8199C82.7111 98.2596 78.8488 97.891 75.3361 96.4344Z" fill="#FF5722"/>
<path d="M78.5373 89.5039C78.5341 89.5039 78.5309 89.5023 78.5278 89.5023C78.2557 89.4422 77.9837 89.3773 77.7117 89.3093C77.9869 89.3773 78.2605 89.4422 78.5373 89.5039Z" fill="#E0E3EC"/>
<path d="M83.668 97.9938C81.7685 97.9938 79.9307 97.793 78.1703 97.3612C78.1735 97.3612 78.1767 97.3612 78.1783 97.3628C79.9386 97.793 81.7716 97.9938 83.668 97.9938C84.4524 97.9938 85.2464 97.9606 86.053 97.8926C85.248 97.959 84.4524 97.9922 83.668 97.9922V97.9938ZM86.5812 90.331C86.7078 90.3294 86.8343 90.3263 86.9608 90.3231C86.8343 90.3263 86.7078 90.3279 86.5812 90.331Z" fill="#E0E3EC"/>
<path d="M86.053 97.8942C86.3108 97.8737 86.5717 97.8484 86.8311 97.8199C86.5702 97.8484 86.3108 97.8721 86.0514 97.8942H86.053Z" fill="#98A2C1"/>
<path d="M86.072 90.3358C85.9264 90.3358 85.7794 90.3358 85.6339 90.3326C85.7904 90.3358 85.947 90.3358 86.1036 90.3358C86.151 90.3358 86.1985 90.3358 86.2459 90.3358C86.189 90.3358 86.1305 90.3358 86.072 90.3358Z" fill="#E0E3EC"/>
<path d="M83.6679 97.9939C81.77 97.9939 79.937 97.793 78.1782 97.3628H78.1798C79.3787 97.6554 80.6107 97.842 81.876 97.929C81.3968 97.8278 80.9207 97.7076 80.4526 97.5716C80.8369 97.589 81.2259 97.5969 81.6166 97.5969C82.6525 97.5969 83.7075 97.5368 84.7798 97.4229L85.6354 90.3311C85.7809 90.3342 85.928 90.3342 86.0735 90.3342C86.132 90.3342 86.189 90.3342 86.2475 90.3342C86.3582 90.3342 86.4705 90.3326 86.5812 90.3311C86.7077 90.3295 86.8343 90.3263 86.9608 90.3232C87.2202 90.3168 87.4796 90.3073 87.7389 90.2947L86.8327 97.8183C86.5717 97.8468 86.3123 97.8705 86.0545 97.8926C85.2495 97.9591 84.454 97.9939 83.6695 97.9939H83.6679Z" fill="#FFB7A0"/>
<path d="M76.9826 97.0306C76.981 97.0306 76.981 97.0306 76.9794 97.029C76.981 97.029 76.981 97.0306 76.9826 97.0306ZM76.9367 97.0163C76.9336 97.0163 76.9304 97.0148 76.9257 97.0132C76.9288 97.0132 76.932 97.0148 76.9367 97.0163ZM76.9209 97.0116C76.913 97.0084 76.9051 97.0069 76.8956 97.0037C76.9035 97.0069 76.9114 97.0084 76.9209 97.0116ZM76.4243 96.8487C76.418 96.8455 76.4116 96.8439 76.4053 96.8424C76.4116 96.8439 76.418 96.8471 76.4243 96.8487ZM76.3927 96.8376C76.3895 96.8376 76.3879 96.836 76.3863 96.836C76.3879 96.8376 76.3911 96.8376 76.3927 96.8376ZM76.3642 96.8281H76.3626C76.3642 96.8281 76.3642 96.8281 76.3642 96.8281Z" fill="#8590B6"/>
<path d="M75.8344 92.2954L76.2424 88.9092L76.2377 88.944L75.8344 92.2954Z" fill="#102770"/>
<path d="M79.3138 89.6699C79.0418 89.6161 78.7713 89.5592 78.5009 89.4975C78.5088 89.4991 78.5183 89.5006 78.5262 89.5022C78.6337 89.5259 78.7428 89.5497 78.8504 89.5734C79.0038 89.6066 79.1588 89.6382 79.3122 89.6683V89.6699H79.3138ZM77.7006 89.3061C77.4491 89.2428 77.1961 89.178 76.9446 89.1084C77.1961 89.1764 77.4491 89.2428 77.7006 89.3061Z" fill="#8590B6"/>
<path d="M76.9462 89.11C76.7121 89.0452 76.4764 88.9788 76.2424 88.9108C76.4764 88.9788 76.7105 89.0468 76.9462 89.11Z" fill="#102770"/>
<path d="M80.4526 97.5732C79.6839 97.5399 78.9263 97.4703 78.1798 97.3644C77.7765 97.2663 77.378 97.1556 76.9826 97.0322C76.981 97.0322 76.981 97.0322 76.9794 97.0307C76.9715 97.0291 76.9652 97.0259 76.9573 97.0243C76.9557 97.0243 76.9541 97.0228 76.9525 97.0228C76.9478 97.0212 76.943 97.0196 76.9383 97.018C76.9351 97.018 76.9319 97.0164 76.9272 97.0149C76.9256 97.0133 76.924 97.0133 76.9209 97.0133C76.913 97.0101 76.9051 97.0085 76.8956 97.0054C76.894 97.0054 76.894 97.0054 76.8924 97.0054C76.7422 96.9579 76.5919 96.9073 76.4417 96.8567C76.4369 96.8551 76.4322 96.8535 76.4274 96.8519C76.4258 96.8519 76.4243 96.8504 76.4227 96.8504C76.4164 96.8472 76.41 96.8456 76.4037 96.844C76.3989 96.8425 76.3958 96.8409 76.391 96.8393C76.3879 96.8377 76.3863 96.8377 76.3847 96.8377C76.3768 96.8346 76.3705 96.833 76.3626 96.8298H76.361C76.0162 96.7096 75.6746 96.5783 75.3361 96.4392L75.8343 92.3001L76.2376 88.9503L76.225 89.0547C76.9794 89.2318 77.7386 89.3805 78.5009 89.5039C78.7713 89.564 79.0418 89.6225 79.3138 89.6763L78.4471 96.8757C79.1035 97.1477 79.7709 97.3818 80.4526 97.5795V97.5732Z" fill="#B7493A"/>
<path d="M78.5278 89.5006C78.5198 89.4991 78.5104 89.4975 78.5025 89.4959C77.9821 89.3789 77.4633 89.2507 76.9462 89.11V89.1084C77.1976 89.1764 77.4507 89.2428 77.7022 89.3061C77.7053 89.3077 77.7085 89.3077 77.7117 89.3093C77.9837 89.3773 78.2541 89.4405 78.5278 89.5022V89.5006Z" fill="#A1AAC7"/>
<path d="M76.9462 89.11C76.7105 89.0452 76.4764 88.9788 76.2424 88.9108L76.2392 88.944L76.2424 88.9092C76.4764 88.9772 76.7105 89.0452 76.9462 89.1085V89.11Z" fill="#6F7DA9"/>
<path d="M78.5009 89.4975C77.7401 89.3742 76.9794 89.2255 76.225 89.0484L76.2376 88.944L76.2408 88.9108C76.4749 88.9788 76.7089 89.0468 76.9446 89.11C77.4618 89.2508 77.9805 89.3789 78.5009 89.496V89.4975Z" fill="#B78C92"/>
<path d="M81.876 97.929C80.6123 97.8404 79.3787 97.6554 78.1798 97.3628C78.9247 97.4688 79.6839 97.5384 80.4526 97.5716C80.9223 97.7076 81.3968 97.8262 81.876 97.929Z" fill="#B78C92"/>
<path d="M79.3138 89.6684C79.1604 89.6383 79.0054 89.6051 78.852 89.5735C79.0054 89.6067 79.1604 89.6368 79.3138 89.6684Z" fill="#A1AAC7"/>
<path fill-rule="evenodd" clip-rule="evenodd" d="M35.6983 86.8911C35.4959 87.742 36.1412 88.5597 37.0158 88.5597H40.4795C40.6455 88.5597 40.8053 88.5296 40.9508 88.4758C40.7578 88.9788 40.2707 89.3457 39.6855 89.3457H36.2218C35.3472 89.3457 34.7003 88.5296 34.9044 87.6771L35.4943 85.1956L36.1253 82.5433C36.2329 82.0925 36.5571 81.7398 36.9715 81.5864C36.9509 81.6418 36.9335 81.6987 36.9193 81.7572L36.1507 84.9853L35.6967 86.8895L35.6983 86.8911Z" fill="#FAA933"/>
<path fill-rule="evenodd" clip-rule="evenodd" d="M40.7673 88.2338L40.0493 84.1533L39.7899 82.6824C39.695 82.1463 39.3376 81.724 38.8773 81.5627C38.7951 81.5342 38.7097 81.5136 38.6227 81.501H38.7065C38.7634 81.501 38.822 81.5041 38.8773 81.512C39.453 81.5848 39.9259 82.0197 40.0366 82.6034L40.3482 84.2435L41.014 87.7372C41.0631 87.9966 41.0362 88.2496 40.9492 88.4742C40.897 88.4932 40.8448 88.509 40.791 88.5217C40.791 88.4268 40.7831 88.3303 40.7673 88.2322V88.2338Z" fill="#FFF0A8"/>
<path fill-rule="evenodd" clip-rule="evenodd" d="M45.1467 86.3866C46.1937 87.4636 48.2656 87.0682 49.1355 88.2924C49.2668 88.479 49.3585 88.6862 49.4407 88.8997C49.5404 89.099 49.6147 89.3015 49.6796 89.4944C49.7143 89.5672 49.7507 89.6368 49.7918 89.7063C50.2806 90.5177 51.3861 90.8324 52.2496 90.4876C52.2259 90.4876 52.2022 90.4892 52.18 90.4892C51.4082 90.4892 50.6506 90.116 50.2837 89.4454C50.0054 88.9393 49.9405 88.3225 49.6242 87.8401C48.71 86.4514 46.3361 86.9006 45.2116 85.6765C45.1356 85.5942 45.0676 85.5041 45.006 85.4092C44.8019 85.0881 44.6912 84.7085 44.6659 84.3147C44.6564 84.3337 44.6469 84.3542 44.639 84.3748C44.5584 84.7607 44.5679 85.1688 44.6738 85.5452C44.7624 85.8599 44.919 86.1525 45.1483 86.3882L45.1467 86.3866Z" fill="#30A57C"/>
<path fill-rule="evenodd" clip-rule="evenodd" d="M49.5452 82.8089C50.6143 83.2644 51.5506 84.6088 52.1548 85.6368C52.2007 85.7143 52.2449 85.7902 52.2861 85.8645C52.8206 86.8119 53.205 87.8431 53.409 88.9107C53.4343 88.7683 53.4517 88.6244 53.4596 88.4789C53.4754 88.218 53.4659 87.957 53.439 87.7087C53.3173 86.5557 52.9472 85.4312 52.3778 84.4221C51.9998 83.7531 51.4288 82.8627 50.7567 82.2791C50.6602 82.2664 50.5653 82.2538 50.4688 82.2395C49.4313 82.0956 48.3874 81.9216 47.3388 81.7208C47.3151 81.716 47.2914 81.7113 47.2677 81.7065C46.9529 81.8062 46.6588 81.9359 46.4041 82.0861C46.3108 82.1415 46.2222 82.2 46.14 82.2601C45.7778 82.529 45.4425 82.8485 45.1752 83.2122C45.9059 82.7409 46.9782 82.4262 47.9588 82.4262C48.5535 82.4262 49.115 82.5416 49.5452 82.8089Z" fill="#ACF0C9"/>
<path fill-rule="evenodd" clip-rule="evenodd" d="M44.9553 85.3237C44.7829 85.0217 44.6881 84.6737 44.6659 84.3131C44.6564 84.3321 44.6469 84.3526 44.639 84.3732C44.5584 84.7591 44.5679 85.1672 44.6738 85.5436C44.7624 85.4661 44.8573 85.3933 44.9569 85.3253L44.9553 85.3237Z" fill="#287D7A"/>
<path fill-rule="evenodd" clip-rule="evenodd" d="M44.6659 84.3131C44.6897 84.6737 44.7845 85.0217 44.9554 85.3237C46.6508 84.1581 49.8773 84.2483 51.8843 85.1925C51.288 84.2514 50.4656 83.2013 49.5467 82.809C49.1165 82.5417 48.5551 82.4263 47.9604 82.4263C46.9798 82.4263 45.9075 82.741 45.1768 83.2123C44.9996 83.4543 44.8526 83.7168 44.7482 83.9984C44.7308 84.0442 44.715 84.0917 44.7007 84.1391C44.677 84.2166 44.6564 84.2941 44.6406 84.3732C44.6485 84.3526 44.658 84.3337 44.6675 84.3131H44.6659Z" fill="#31A67C"/>
<path fill-rule="evenodd" clip-rule="evenodd" d="M49.5452 82.8089C50.4657 83.2012 51.2865 84.2514 51.8828 85.1924C52.3636 85.4186 52.7732 85.6938 53.0769 86.0117C52.8981 85.4597 52.6625 84.9267 52.3778 84.4222C51.9998 83.7532 51.4288 82.8627 50.7567 82.2791C50.5258 82.0782 50.2838 81.9138 50.0339 81.8062C49.3285 81.3697 48.2119 81.4061 47.2677 81.7066C46.9529 81.8062 46.6588 81.9359 46.4041 82.0862C46.3108 82.1415 46.2222 82.2 46.14 82.2601C45.7778 82.529 45.4425 82.8485 45.1752 83.2122C45.9059 82.7409 46.9782 82.4262 47.9588 82.4262C48.5535 82.4262 49.115 82.5417 49.5452 82.8089Z" fill="#81AFAD"/>
<path fill-rule="evenodd" clip-rule="evenodd" d="M80.4478 59.2717L81.1627 59.0582L81.0979 58.3148L80.383 58.5283L58.1822 65.1362C57.5417 65.3086 57.0071 65.2928 56.4061 65.1315L38.7334 59.8711V60.6334L54.4512 65.3118L55.1993 65.5348C55.8873 65.7388 56.5943 65.8416 57.3013 65.8416H57.3028C57.9766 65.8416 58.6488 65.7483 59.3051 65.5633C59.3383 65.5538 59.3731 65.5443 59.4064 65.5332L79.0086 59.6987L79.3091 59.6086L80.4478 59.2701V59.2717ZM34.3729 58.5742L33.6565 58.3607L33.5995 59.1056L34.316 59.3191L35.5386 59.6829L37.0269 60.1257V59.3634L34.3729 58.5742Z" fill="#32328A"/>
<path d="M25.6362 74.2699C25.9984 74.2493 26.3622 74.2399 26.7228 74.2399C26.9078 74.2399 27.0913 74.243 27.2748 74.2478C27.2906 74.2478 27.3048 74.2478 27.3206 74.2478H27.319C27.3048 74.2478 27.289 74.2478 27.2748 74.2478C27.0913 74.243 26.9062 74.2399 26.7212 74.2399C26.3606 74.2399 25.9968 74.2493 25.6346 74.2699H25.6362ZM28.5384 73.6246C28.7488 73.3368 28.8516 72.9825 28.8295 72.6266C28.8548 72.9857 28.752 73.3352 28.5384 73.6246ZM28.6428 71.6318L28.6349 71.5907C28.6318 71.578 28.6302 71.5654 28.627 71.5511C28.6302 71.5638 28.6333 71.578 28.6349 71.5907L28.6428 71.6302V71.6318Z" fill="#250C60"/>
<path d="M27.8267 74.3791C27.9928 74.3269 28.1494 74.251 28.2933 74.1514C28.1494 74.251 27.9928 74.3285 27.8267 74.3791Z" fill="#000072"/>
<path d="M28.839 71.5576L28.8374 71.5497C28.8342 71.5338 28.831 71.5196 28.8279 71.5038C28.831 71.5196 28.8358 71.5354 28.839 71.5512L28.8405 71.5591L28.839 71.5576Z" fill="#0D50B6"/>
<path fill-rule="evenodd" clip-rule="evenodd" d="M22.2643 45.6226C31.0073 38.6367 42.0911 34.4597 54.1523 34.4597C82.3869 34.4597 105.274 57.3469 105.274 85.5815C105.274 100.058 99.2561 113.13 89.5863 122.431C101.309 113.063 108.82 98.6438 108.82 82.4721C108.82 54.2375 85.9328 31.3503 57.6982 31.3503C43.9416 31.3503 31.4533 36.7847 22.2643 45.6226Z" fill="#EC239B" fill-opacity="0.2"/>
<path fill-rule="evenodd" clip-rule="evenodd" d="M63.2559 127.549C36.9114 127.549 15.5536 106.191 15.5536 79.8467C15.5536 60.5038 27.0676 43.8481 43.6142 36.3624C23.8648 42.3867 9.49768 60.7521 9.49768 82.4721C9.49768 109.092 31.0769 130.671 57.6966 130.671C67.5373 130.671 76.69 127.721 84.318 122.659C77.9663 125.79 70.8159 127.549 63.2544 127.549H63.2559Z" fill="#EC239B" fill-opacity="0.2"/>
<path fill-rule="evenodd" clip-rule="evenodd" d="M45.4393 39.5999C44.0032 40.2578 41.4236 43.2771 41.2544 44.8476C40.8543 48.5501 41.6024 53.6333 44.6137 56.1686C51.4873 61.9556 62.0681 62.3384 68.812 68.0495C78.5799 76.3228 73.182 93.8911 75.4674 105.87C76.6109 111.86 81.8839 120.56 88.7164 115.698C101.339 106.718 105.185 82.5258 98.421 67.303C87.6693 43.1062 57.7014 33.9789 45.4393 39.5983V39.5999Z" fill="url(#paint2_radial_71_11412)" fill-opacity="0.34902"/>
<path fill-rule="evenodd" clip-rule="evenodd" d="M74.2591 46.0275C78.9675 46.203 85.1025 50.437 87.9636 55.4822C90.8247 60.5275 89.3285 64.4736 84.6217 64.298C79.9133 64.1209 73.7783 59.8885 70.9172 54.8433C68.0561 49.798 69.5523 45.8519 74.2591 46.0275Z" fill="url(#paint3_radial_71_11412)" fill-opacity="0.2"/>
<path d="M78.9295 16.0342C79.9166 16.0342 80.7167 15.2341 80.7167 14.247C80.7167 13.26 79.9166 12.4598 78.9295 12.4598C77.9425 12.4598 77.1423 13.26 77.1423 14.247C77.1423 15.2341 77.9425 16.0342 78.9295 16.0342Z" fill="#232851"/>
<path d="M91.2833 32.9762C91.7969 32.9762 92.2133 32.5598 92.2133 32.0462C92.2133 31.5326 91.7969 31.1162 91.2833 31.1162C90.7697 31.1162 90.3533 31.5326 90.3533 32.0462C90.3533 32.5598 90.7697 32.9762 91.2833 32.9762Z" fill="#232851"/>
<path d="M106.166 40.3511C107.153 40.3511 107.953 39.551 107.953 38.5639C107.953 37.5769 107.153 36.7767 106.166 36.7767C105.179 36.7767 104.379 37.5769 104.379 38.5639C104.379 39.551 105.179 40.3511 106.166 40.3511Z" fill="#232851"/>
<path d="M31.4818 29.348C32.1107 29.348 32.6206 28.8382 32.6206 28.2093C32.6206 27.5804 32.1107 27.0706 31.4818 27.0706C30.8529 27.0706 30.3431 27.5804 30.3431 28.2093C30.3431 28.8382 30.8529 29.348 31.4818 29.348Z" fill="#2C1538"/>
<path d="M19.6294 35.2742C19.956 35.2742 20.2209 35.0094 20.2209 34.6827C20.2209 34.356 19.956 34.0912 19.6294 34.0912C19.3027 34.0912 19.0378 34.356 19.0378 34.6827C19.0378 35.0094 19.3027 35.2742 19.6294 35.2742Z" fill="#2C1538"/>
<path d="M9.54515 35.3106C10.119 35.3106 10.5843 34.8454 10.5843 34.2715C10.5843 33.6976 10.119 33.2324 9.54515 33.2324C8.97127 33.2324 8.50604 33.6976 8.50604 34.2715C8.50604 34.8454 8.97127 35.3106 9.54515 35.3106Z" fill="#2C1538"/>
<path fill-rule="evenodd" clip-rule="evenodd" d="M20.349 41.0012C21.6569 41.0012 22.7182 42.0625 22.7182 43.3704C22.7182 44.6784 21.6569 45.7397 20.349 45.7397C19.041 45.7397 17.9797 44.6784 17.9797 43.3704C17.9797 42.0625 19.041 41.0012 20.349 41.0012Z" fill="#431D53" fill-opacity="0.501961"/>
<path fill-rule="evenodd" clip-rule="evenodd" d="M27.2226 43.2534C28.423 43.2534 29.3957 42.2807 29.3957 41.0803C29.3957 40.8715 29.5665 40.7007 29.7753 40.7007C29.9841 40.7007 30.1549 40.8715 30.1549 41.0803C30.1549 42.2807 31.1275 43.2534 32.328 43.2534C32.5367 43.2534 32.7076 43.4242 32.7076 43.633C32.7076 43.8417 32.5367 44.0125 32.328 44.0125C31.1275 44.0125 30.1549 44.9852 30.1549 46.1856C30.1549 46.3944 29.9841 46.5652 29.7753 46.5652C29.5665 46.5652 29.3957 46.3944 29.3957 46.1856C29.3957 44.9852 28.423 44.0125 27.2226 44.0125C27.0138 44.0125 26.843 43.8417 26.843 43.633C26.843 43.4242 27.0138 43.2534 27.2226 43.2534ZM93.2445 112.933C94.6505 112.933 95.7893 111.795 95.7893 110.389C95.7893 110.144 95.9901 109.944 96.2337 109.944C96.4789 109.944 96.6781 110.145 96.6781 110.389C96.6781 111.793 97.8169 112.933 99.2229 112.933C99.4681 112.933 99.6673 113.133 99.6673 113.378C99.6673 113.623 99.4665 113.822 99.2229 113.822C97.8169 113.822 96.6781 114.961 96.6781 116.367C96.6781 116.612 96.4789 116.812 96.2337 116.812C95.9886 116.812 95.7893 116.611 95.7893 116.367C95.7893 114.961 94.6505 113.822 93.2445 113.822C92.9994 113.822 92.8001 113.621 92.8001 113.378C92.8001 113.133 93.0009 112.933 93.2445 112.933ZM29.6029 111.14C30.7147 111.14 31.6163 110.238 31.6163 109.128C31.6163 108.934 31.7744 108.775 31.969 108.775C32.1635 108.775 32.3201 108.934 32.3201 109.128C32.3201 110.24 33.2216 111.14 34.3318 111.14C34.5264 111.14 34.6845 111.298 34.6845 111.491C34.6845 111.686 34.5264 111.844 34.3318 111.844C33.22 111.844 32.3201 112.745 32.3201 113.856C32.3201 114.05 32.1619 114.208 31.969 114.208C31.7744 114.208 31.6163 114.05 31.6163 113.856C31.6163 112.744 30.7147 111.844 29.6029 111.844C29.4099 111.844 29.2518 111.686 29.2518 111.491C29.2518 111.297 29.4099 111.14 29.6029 111.14ZM64.5892 51.6516C65.0701 51.6516 65.4607 52.0423 65.4607 52.5231C65.4607 53.0039 65.0701 53.3945 64.5892 53.3945C64.1084 53.3945 63.7178 53.0039 63.7178 52.5231C63.7178 52.0423 64.1084 51.6516 64.5892 51.6516ZM29.2882 86.4593C30.5961 86.4593 31.6574 87.5205 31.6574 88.8285C31.6574 90.1365 30.5961 91.1977 29.2882 91.1977C27.9802 91.1977 26.9189 90.1365 26.9189 88.8285C26.9189 87.5205 27.9802 86.4593 29.2882 86.4593ZM30.5566 74.7586C31.0595 74.7586 31.4692 74.3506 31.4692 73.8461C31.4692 73.7575 31.5403 73.6863 31.6289 73.6863C31.7175 73.6863 31.7887 73.7575 31.7887 73.8461C31.7887 74.3506 32.1967 74.7586 32.7012 74.7586C32.7898 74.7586 32.861 74.8298 32.861 74.9184C32.861 75.007 32.7898 75.0781 32.7012 75.0781C32.1983 75.0781 31.7887 75.4862 31.7887 75.9907C31.7887 76.0793 31.7175 76.1505 31.6289 76.1505C31.5403 76.1505 31.4692 76.0793 31.4692 75.9907C31.4692 75.4862 31.0611 75.0781 30.5566 75.0781C30.468 75.0781 30.3969 75.007 30.3969 74.9184C30.3969 74.8298 30.468 74.7586 30.5566 74.7586ZM31.1639 58.6407C31.776 58.6407 32.2726 58.144 32.2726 57.532C32.2726 57.4244 32.3596 57.3374 32.4672 57.3374C32.5747 57.3374 32.6617 57.4244 32.6617 57.532C32.6617 58.144 33.1583 58.6407 33.7704 58.6407C33.8779 58.6407 33.9649 58.7277 33.9649 58.8352C33.9649 58.9427 33.8779 59.0297 33.7704 59.0297C33.1583 59.0297 32.6617 59.5264 32.6617 60.1384C32.6617 60.246 32.5747 60.333 32.4672 60.333C32.3596 60.333 32.2726 60.246 32.2726 60.1384C32.2726 59.5264 31.776 59.0297 31.1639 59.0297C31.0564 59.0297 30.9694 58.9427 30.9694 58.8352C30.9694 58.7277 31.0564 58.6407 31.1639 58.6407Z" fill="white" fill-opacity="0.25098"/>
<path fill-rule="evenodd" clip-rule="evenodd" d="M92.751 40.3464C93.6557 40.3464 94.3879 39.6142 94.3879 38.7095C94.3879 38.5513 94.516 38.4232 94.6742 38.4232C94.8324 38.4232 94.9605 38.5513 94.9605 38.7095C94.9605 39.6142 95.6927 40.3464 96.5974 40.3464C96.7556 40.3464 96.8837 40.4745 96.8837 40.6327C96.8837 40.7909 96.7556 40.919 96.5974 40.919C95.6927 40.919 94.9605 41.6528 94.9605 42.5559C94.9605 42.7141 94.8324 42.8422 94.6742 42.8422C94.516 42.8422 94.3879 42.7141 94.3879 42.5559C94.3879 41.6512 93.6557 40.919 92.751 40.919C92.5928 40.919 92.4647 40.7909 92.4647 40.6327C92.4647 40.4745 92.5928 40.3464 92.751 40.3464Z" fill="#292E6B"/>
<path fill-rule="evenodd" clip-rule="evenodd" d="M87.633 19.1073C89.2241 19.1073 90.5131 17.8183 90.5131 16.2272C90.5131 15.9504 90.7392 15.7227 91.0176 15.7227C91.2944 15.7227 91.5206 15.9488 91.5206 16.2272C91.5206 17.8183 92.8096 19.1073 94.4006 19.1073C94.6774 19.1073 94.9052 19.3334 94.9052 19.6118C94.9052 19.8886 94.679 20.1147 94.4006 20.1147C92.8096 20.1147 91.5206 21.4053 91.5206 22.9948C91.5206 23.2716 91.2944 23.4993 91.0176 23.4993C90.7408 23.4993 90.5131 23.2732 90.5131 22.9948C90.5131 21.4037 89.2241 20.1147 87.633 20.1147C87.3562 20.1147 87.1301 19.8886 87.1301 19.6118C87.1301 19.335 87.3562 19.1073 87.633 19.1073Z" fill="#3A3E61"/>
<path fill-rule="evenodd" clip-rule="evenodd" d="M124.872 11.8604C128.06 11.8604 130.646 9.27603 130.646 6.08755C130.646 5.53083 131.1 5.07849 131.655 5.07849C132.212 5.07849 132.664 5.53241 132.664 6.08755C132.664 9.27603 135.248 11.8604 138.437 11.8604C138.994 11.8604 139.446 12.3143 139.446 12.8694C139.446 13.4261 138.992 13.8785 138.437 13.8785C135.248 13.8785 132.664 16.4644 132.664 19.6528C132.664 20.208 132.21 20.6619 131.655 20.6619C131.098 20.6619 130.646 20.208 130.646 19.6528C130.646 16.4644 128.062 13.8785 124.872 13.8785C124.316 13.8785 123.862 13.4245 123.862 12.8694C123.862 12.3127 124.316 11.8604 124.872 11.8604Z" fill="#3A3E61"/>
<path fill-rule="evenodd" clip-rule="evenodd" d="M38.1371 22.0806C39.007 21.8022 39.4862 20.8707 39.2079 20.0008C39.1588 19.849 39.2443 19.6861 39.3945 19.637C39.5463 19.588 39.7092 19.6734 39.7583 19.8237C40.0366 20.6935 40.9682 21.1728 41.8381 20.8944C41.9899 20.8454 42.1528 20.9308 42.2018 21.081C42.2509 21.2329 42.1654 21.3958 42.0152 21.4448C41.1453 21.7232 40.6661 22.6547 40.9445 23.5246C40.9935 23.6764 40.9081 23.8393 40.7578 23.8883C40.606 23.9374 40.4431 23.852 40.3941 23.7017C40.1157 22.8318 39.1842 22.3526 38.3143 22.631C38.1624 22.68 37.9995 22.5946 37.9505 22.4444C37.9015 22.2925 37.9869 22.1296 38.1371 22.0806Z" fill="#2C1538"/>
<path fill-rule="evenodd" clip-rule="evenodd" d="M80.6123 3.16637C81.944 3.0098 82.8961 1.80462 82.7395 0.472925C82.7126 0.240431 82.8803 0.0300799 83.1112 0.00161128C83.3437 -0.0252758 83.554 0.142373 83.5825 0.373285C83.7391 1.7034 84.9443 2.6571 86.2744 2.50052C86.5069 2.47364 86.7188 2.6397 86.7457 2.8722C86.7726 3.10469 86.6065 3.31504 86.374 3.34351C85.0423 3.50009 84.0918 4.70526 84.2468 6.03696C84.2737 6.26945 84.1076 6.48139 83.8751 6.50827C83.6426 6.53516 83.4307 6.36909 83.4038 6.1366C83.2472 4.8049 82.0421 3.85278 80.7104 4.00936C80.4779 4.03625 80.2675 3.87018 80.239 3.63769C80.2122 3.40519 80.3798 3.19326 80.6107 3.16637H80.6123Z" fill="#3A3E61"/>
<path fill-rule="evenodd" clip-rule="evenodd" d="M40.1394 137.045C40.7879 137.42 41.6182 137.197 41.9915 136.548C42.0563 136.436 42.2018 136.396 42.3157 136.461C42.428 136.526 42.4675 136.672 42.4027 136.785C42.0279 137.434 42.2509 138.264 42.8993 138.637C43.0132 138.702 43.0511 138.848 42.9863 138.962C42.9215 139.074 42.7759 139.113 42.6621 139.049C42.0136 138.674 41.1833 138.897 40.81 139.545C40.7452 139.658 40.5997 139.697 40.4858 139.632C40.3735 139.567 40.334 139.422 40.3988 139.308C40.7736 138.66 40.5506 137.829 39.9022 137.456C39.7883 137.391 39.7504 137.246 39.8152 137.132C39.8801 137.019 40.0256 136.98 40.1394 137.045Z" fill="#462262"/>
<path d="M64.9198 145.519C65.7845 145.519 66.4856 144.818 66.4856 143.953C66.4856 143.088 65.7845 142.387 64.9198 142.387C64.055 142.387 63.354 143.088 63.354 143.953C63.354 144.818 64.055 145.519 64.9198 145.519Z" fill="#4E236C"/>
<path d="M78.8725 145.312C79.2656 145.312 79.5843 144.993 79.5843 144.6C79.5843 144.207 79.2656 143.888 78.8725 143.888C78.4795 143.888 78.1608 144.207 78.1608 144.6C78.1608 144.993 78.4795 145.312 78.8725 145.312Z" fill="#4E236C"/>
<path d="M95.1645 137.347C96.0861 137.347 96.8331 136.6 96.8331 135.678C96.8331 134.757 96.0861 134.01 95.1645 134.01C94.243 134.01 93.496 134.757 93.496 135.678C93.496 136.6 94.243 137.347 95.1645 137.347Z" fill="#4E236C"/>
<path d="M79.9907 160C81.6137 160 82.9293 158.684 82.9293 157.061C82.9293 155.438 81.6137 154.123 79.9907 154.123C78.3678 154.123 77.0521 155.438 77.0521 157.061C77.0521 158.684 78.3678 160 79.9907 160Z" fill="#4E236C"/>
</g>
<defs>
<radialGradient id="paint0_radial_71_11412" cx="0" cy="0" r="1" gradientUnits="userSpaceOnUse" gradientTransform="translate(57.6982 82.472) scale(56.8898 56.8898)">
<stop stop-color="#EE249C"/>
<stop offset="0.890196" stop-color="#852172"/>
<stop offset="1" stop-color="#1C1E48"/>
</radialGradient>
<linearGradient id="paint1_linear_71_11412" x1="11.2896" y1="103.914" x2="104.107" y2="61.0305" gradientUnits="userSpaceOnUse">
<stop stop-color="#783CA1"/>
<stop offset="1" stop-color="#EE229B"/>
</linearGradient>
<radialGradient id="paint2_radial_71_11412" cx="0" cy="0" r="1" gradientUnits="userSpaceOnUse" gradientTransform="translate(71.4431 77.558) scale(30.2813 39.5619)">
<stop stop-color="#EE249C"/>
<stop offset="1" stop-color="#FFE500"/>
</radialGradient>
<radialGradient id="paint3_radial_71_11412" cx="0" cy="0" r="1" gradientUnits="userSpaceOnUse" gradientTransform="translate(79.4387 55.1062) rotate(2.14616) scale(8.52997 8.9344)">
<stop stop-color="#FCC15B"/>
<stop offset="1" stop-color="white"/>
</radialGradient>
<clipPath id="clip0_71_11412">
<rect width="139.448" height="160" fill="white"/>
</clipPath>
</defs>
</svg>
