<svg width="217" height="249" viewBox="0 0 217 249" fill="none" xmlns="http://www.w3.org/2000/svg">
<g clip-path="url(#clip0_71_11822)">
<path d="M122.825 24.9533C124.361 24.9533 125.606 23.7078 125.606 22.1714C125.606 20.6349 124.361 19.3894 122.825 19.3894C121.288 19.3894 120.043 20.6349 120.043 22.1714C120.043 23.7078 121.288 24.9533 122.825 24.9533Z" fill="#232851"/>
<path d="M142.05 51.3172C142.85 51.3172 143.498 50.6688 143.498 49.8689C143.498 49.0691 142.85 48.4207 142.05 48.4207C141.25 48.4207 140.602 49.0691 140.602 49.8689C140.602 50.6688 141.25 51.3172 142.05 51.3172Z" fill="#232851"/>
<path d="M165.208 62.7922C166.745 62.7922 167.99 61.5466 167.99 60.0102C167.99 58.4738 166.745 57.2283 165.208 57.2283C163.672 57.2283 162.426 58.4738 162.426 60.0102C162.426 61.5466 163.672 62.7922 165.208 62.7922Z" fill="#232851"/>
<path fill-rule="evenodd" clip-rule="evenodd" d="M144.332 62.7832C145.739 62.7832 146.879 61.6429 146.879 60.236C146.879 59.9906 147.08 59.7905 147.325 59.7905C147.57 59.7905 147.77 59.9906 147.77 60.236C147.77 61.6429 148.911 62.7832 150.318 62.7832C150.563 62.7832 150.763 62.9833 150.763 63.2287C150.763 63.4741 150.563 63.6742 150.318 63.6742C148.911 63.6742 147.77 64.815 147.77 66.2214C147.77 66.4668 147.57 66.6669 147.325 66.6669C147.08 66.6669 146.879 66.4668 146.879 66.2214C146.879 64.8145 145.739 63.6742 144.332 63.6742C144.087 63.6742 143.887 63.4741 143.887 63.2287C143.887 62.9833 144.087 62.7832 144.332 62.7832Z" fill="#292E6B"/>
<path fill-rule="evenodd" clip-rule="evenodd" d="M136.37 29.7318C138.845 29.7318 140.853 27.7251 140.853 25.2495C140.853 24.818 141.205 24.4658 141.636 24.4658C142.068 24.4658 142.42 24.818 142.42 25.2495C142.42 27.7251 144.427 29.7318 146.902 29.7318C147.334 29.7318 147.686 30.0839 147.686 30.5155C147.686 30.947 147.334 31.2991 146.902 31.2991C144.427 31.2991 142.42 33.3064 142.42 35.782C142.42 36.2135 142.068 36.5657 141.636 36.5657C141.205 36.5657 140.853 36.2135 140.853 35.782C140.853 33.3064 138.845 31.2991 136.37 31.2991C135.938 31.2991 135.586 30.947 135.586 30.5155C135.586 30.0839 135.938 29.7318 136.37 29.7318Z" fill="#3A3E61"/>
<path fill-rule="evenodd" clip-rule="evenodd" d="M194.317 18.4558C199.279 18.4558 203.302 14.4341 203.302 9.47163C203.302 8.60636 204.008 7.90039 204.873 7.90039C205.739 7.90039 206.445 8.60636 206.445 9.47163C206.445 14.433 210.467 18.4558 215.429 18.4558C216.294 18.4558 217 19.1618 217 20.0271C217 20.8923 216.294 21.5983 215.429 21.5983C210.466 21.5983 206.445 25.6211 206.445 30.583C206.445 31.4483 205.739 32.1543 204.873 32.1543C204.008 32.1543 203.302 31.4483 203.302 30.583C203.302 25.6206 199.28 21.5983 194.317 21.5983C193.452 21.5983 192.746 20.8923 192.746 20.0271C192.746 19.1618 193.452 18.4558 194.317 18.4558Z" fill="#3A3E61"/>
<path fill-rule="evenodd" clip-rule="evenodd" d="M125.445 4.92788C127.516 4.68417 128.998 2.8083 128.755 0.737346C128.712 0.376257 128.972 0.0470292 129.333 0.00454812C129.694 -0.0379329 130.023 0.221984 130.066 0.583073C130.31 2.65403 132.185 4.13583 134.256 3.89212C134.617 3.84964 134.947 4.10956 134.989 4.47065C135.032 4.83174 134.772 5.16097 134.411 5.20345C132.34 5.44715 130.858 7.32303 131.102 9.39398C131.144 9.75507 130.884 10.0843 130.523 10.1268C130.162 10.1693 129.833 9.90934 129.79 9.54825C129.547 7.4773 127.671 5.9955 125.6 6.23864C125.239 6.28113 124.909 6.02121 124.867 5.66012C124.824 5.29903 125.084 4.9698 125.445 4.92732L125.445 4.92788Z" fill="#3A3E61"/>
<path d="M89.9436 218.102C139.618 218.102 179.887 177.833 179.887 128.159C179.887 78.4845 139.618 38.2156 89.9436 38.2156C40.2694 38.2156 0.000564575 78.4845 0.000564575 128.159C0.000564575 177.833 40.2694 218.102 89.9436 218.102Z" fill="url(#paint0_radial_71_11822)"/>
<path d="M89.9436 207.85C133.956 207.85 169.635 172.171 169.635 128.159C169.635 84.1462 133.956 48.467 89.9436 48.467C45.9311 48.467 10.2519 84.1462 10.2519 128.159C10.2519 172.171 45.9311 207.85 89.9436 207.85Z" fill="url(#paint1_linear_71_11822)"/>
<path d="M48.9907 45.6706C49.97 45.6706 50.7638 44.8768 50.7638 43.8975C50.7638 42.9183 49.97 42.1245 48.9907 42.1245C48.0115 42.1245 47.2177 42.9183 47.2177 43.8975C47.2177 44.8768 48.0115 45.6706 48.9907 45.6706Z" fill="#2C1538"/>
<path d="M30.545 54.8917C31.0538 54.8917 31.4662 54.4792 31.4662 53.9705C31.4662 53.4617 31.0538 53.0493 30.545 53.0493C30.0363 53.0493 29.6238 53.4617 29.6238 53.9705C29.6238 54.4792 30.0363 54.8917 30.545 54.8917Z" fill="#2C1538"/>
<path d="M14.8533 54.9481C15.747 54.9481 16.4715 54.2236 16.4715 53.3299C16.4715 52.4362 15.747 51.7117 14.8533 51.7117C13.9596 51.7117 13.2351 52.4362 13.2351 53.3299C13.2351 54.2236 13.9596 54.9481 14.8533 54.9481Z" fill="#2C1538"/>
<path d="M31.6657 71.1758C33.7013 71.1758 35.3515 69.5256 35.3515 67.49C35.3515 65.4544 33.7013 63.8042 31.6657 63.8042C29.6301 63.8042 27.9799 65.4544 27.9799 67.49C27.9799 69.5256 29.6301 71.1758 31.6657 71.1758Z" fill="#431D53"/>
<path fill-rule="evenodd" clip-rule="evenodd" d="M42.3609 67.3089C44.2284 67.3089 45.7421 65.7952 45.7421 63.9283C45.7421 63.603 46.0076 63.3369 46.3334 63.3369C46.6587 63.3369 46.9243 63.6024 46.9243 63.9283C46.9243 65.7952 48.4379 67.3089 50.3049 67.3089C50.6302 67.3089 50.8962 67.5744 50.8962 67.8997C50.8962 68.225 50.6307 68.4911 50.3049 68.4911C48.4374 68.4911 46.9243 70.0048 46.9243 71.8723C46.9243 72.1976 46.6587 72.4636 46.3334 72.4636C46.0081 72.4636 45.7421 72.1981 45.7421 71.8723C45.7421 70.0048 44.2284 68.4911 42.3609 68.4911C42.0356 68.4911 41.7695 68.2256 41.7695 67.8997C41.7695 67.5744 42.035 67.3089 42.3609 67.3089ZM145.1 175.742C147.287 175.742 149.06 173.969 149.06 171.783C149.06 171.401 149.371 171.09 149.752 171.09C150.134 171.09 150.445 171.401 150.445 171.783C150.445 173.969 152.217 175.742 154.404 175.742C154.785 175.742 155.097 176.053 155.097 176.434C155.097 176.816 154.785 177.127 154.404 177.127C152.217 177.127 150.445 178.9 150.445 181.087C150.445 181.468 150.134 181.779 149.752 181.779C149.371 181.779 149.06 181.468 149.06 181.087C149.06 178.9 147.287 177.127 145.1 177.127C144.719 177.127 144.408 176.816 144.408 176.434C144.408 176.053 144.719 175.742 145.1 175.742ZM46.064 172.952C47.794 172.952 49.1959 171.55 49.1959 169.82C49.1959 169.518 49.4424 169.272 49.7437 169.272C50.0455 169.272 50.2914 169.519 50.2914 169.82C50.2914 171.55 51.6939 172.952 53.4233 172.952C53.7251 172.952 53.9711 173.198 53.9711 173.5C53.9711 173.802 53.7246 174.048 53.4233 174.048C51.6933 174.048 50.2914 175.45 50.2914 177.179C50.2914 177.481 50.0455 177.727 49.7437 177.727C49.4418 177.727 49.1959 177.481 49.1959 177.179C49.1959 175.449 47.7934 174.048 46.064 174.048C45.7622 174.048 45.5162 173.801 45.5162 173.5C45.5162 173.198 45.7627 172.952 46.064 172.952ZM100.507 80.3808C101.256 80.3808 101.863 80.9884 101.863 81.7374C101.863 82.4869 101.256 83.094 100.507 83.094C99.7573 83.094 99.1502 82.4864 99.1502 81.7374C99.1502 80.9878 99.7578 80.3808 100.507 80.3808ZM45.5738 134.546C47.6095 134.546 49.2596 136.196 49.2596 138.232C49.2596 140.267 47.609 141.917 45.5738 141.917C43.5381 141.917 41.888 140.267 41.888 138.232C41.888 136.196 43.5386 134.546 45.5738 134.546ZM47.5475 116.339C48.3312 116.339 48.9673 115.703 48.9673 114.92C48.9673 114.783 49.0791 114.671 49.2154 114.671C49.3518 114.671 49.4636 114.783 49.4636 114.92C49.4636 115.703 50.0992 116.339 50.8828 116.339C51.0198 116.339 51.131 116.451 51.131 116.587C51.131 116.724 51.0192 116.835 50.8828 116.835C50.0992 116.835 49.4636 117.471 49.4636 118.255C49.4636 118.392 49.3518 118.503 49.2154 118.503C49.0785 118.503 48.9673 118.391 48.9673 118.255C48.9673 117.471 48.3317 116.835 47.5475 116.835C47.4106 116.835 47.2993 116.723 47.2993 116.587C47.2993 116.451 47.4111 116.339 47.5475 116.339ZM48.4933 91.2565C49.4463 91.2565 50.2188 90.484 50.2188 89.5315C50.2188 89.3655 50.3546 89.2297 50.5206 89.2297C50.6866 89.2297 50.8225 89.3655 50.8225 89.5315C50.8225 90.4846 51.5949 91.2565 52.5474 91.2565C52.7134 91.2565 52.8492 91.3923 52.8492 91.5583C52.8492 91.7243 52.7134 91.8602 52.5474 91.8602C51.5944 91.8602 50.8225 92.6326 50.8225 93.5857C50.8225 93.7517 50.6866 93.8875 50.5206 93.8875C50.3546 93.8875 50.2188 93.7517 50.2188 93.5857C50.2188 92.6326 49.4463 91.8602 48.4933 91.8602C48.3272 91.8602 48.1914 91.7243 48.1914 91.5583C48.1914 91.3923 48.3272 91.2565 48.4933 91.2565Z" fill="white" fill-opacity="0.25098"/>
<path fill-rule="evenodd" clip-rule="evenodd" d="M59.3472 34.3605C60.701 33.9273 61.4472 32.4784 61.014 31.1252C60.9385 30.8893 61.0693 30.635 61.3058 30.559C61.5417 30.4835 61.796 30.6143 61.8714 30.8502C62.3046 32.204 63.7535 32.9502 65.1067 32.517C65.3426 32.4415 65.5969 32.5723 65.6724 32.8082C65.7478 33.0441 65.617 33.2984 65.3812 33.3745C64.0274 33.8077 63.2811 35.2565 63.7143 36.6103C63.7898 36.8462 63.659 37.1005 63.4231 37.176C63.1872 37.2514 62.9329 37.1206 62.8575 36.8847C62.4243 35.5309 60.9754 34.7847 59.6216 35.2179C59.3857 35.2934 59.1314 35.1626 59.0554 34.9267C58.9799 34.6908 59.1107 34.4365 59.3472 34.361V34.3605Z" fill="#2C1538"/>
<path fill-rule="evenodd" clip-rule="evenodd" d="M62.4617 213.26C63.4712 213.843 64.7618 213.497 65.3448 212.488C65.4466 212.311 65.6729 212.251 65.849 212.352C66.0251 212.454 66.086 212.68 65.9843 212.856C65.4018 213.865 65.7473 215.157 66.7568 215.739C66.9328 215.841 66.9938 216.067 66.892 216.243C66.7903 216.419 66.5639 216.48 66.3878 216.378C65.3784 215.796 64.0877 216.141 63.5053 217.151C63.4035 217.327 63.1772 217.388 63.0011 217.286C62.825 217.184 62.7641 216.958 62.8658 216.782C63.4488 215.773 63.1028 214.482 62.0933 213.899C61.9173 213.797 61.8563 213.571 61.9581 213.395C62.0598 213.219 62.2862 213.158 62.4623 213.259L62.4617 213.26Z" fill="#462262"/>
<path d="M101.024 226.448C102.37 226.448 103.461 225.357 103.461 224.012C103.461 222.666 102.37 221.575 101.024 221.575C99.6788 221.575 98.5879 222.666 98.5879 224.012C98.5879 225.357 99.6788 226.448 101.024 226.448Z" fill="#4E236C"/>
<path d="M122.736 226.124C123.347 226.124 123.843 225.628 123.843 225.016C123.843 224.405 123.347 223.909 122.736 223.909C122.124 223.909 121.628 224.405 121.628 225.016C121.628 225.628 122.124 226.124 122.736 226.124Z" fill="#4E236C"/>
<path d="M148.089 213.731C149.523 213.731 150.686 212.568 150.686 211.134C150.686 209.7 149.523 208.537 148.089 208.537C146.655 208.537 145.492 209.7 145.492 211.134C145.492 212.568 146.655 213.731 148.089 213.731Z" fill="#4E236C"/>
<path d="M124.477 248.982C127.002 248.982 129.049 246.934 129.049 244.409C129.049 241.884 127.002 239.837 124.477 239.837C121.952 239.837 119.905 241.884 119.905 244.409C119.905 246.934 121.952 248.982 124.477 248.982Z" fill="#4E236C"/>
<path d="M154.498 156.061C153.96 160.211 153.073 164.213 151.861 168.063L151.86 168.069C149.42 175.909 145.672 183.098 140.899 189.424C127.087 200.927 109.325 207.85 89.9436 207.85C54.7872 207.85 24.9504 185.083 14.3653 153.49C13.9003 148.413 13.9813 143.207 14.6644 137.938C16.5777 123.176 22.9314 110.071 32.2057 99.8037C33.356 98.5326 34.5539 97.3029 35.7897 96.1212C44.5923 87.6742 55.5356 81.5592 67.5723 78.567C75.8622 76.5039 84.6603 75.922 93.6445 77.0864C100.773 78.0103 107.515 79.9656 113.731 82.7906C130.993 90.6132 144.261 105.088 150.736 122.577C154.568 132.933 156.015 144.348 154.497 156.06L154.498 156.061Z" fill="#19B5FE"/>
<path d="M104.033 168.866C99.4728 168.275 95.7792 164.292 94.7283 159.81C94.3063 158.005 94.2593 156.151 94.5103 154.322C94.5036 154.371 94.4969 154.42 94.4907 154.469C94.7898 152.131 95.3035 150.198 95.9239 148.599C97.3621 144.893 99.3733 142.98 100.616 141.979C100.36 142.346 100.113 142.723 99.8752 143.11C97.4449 147.06 96.143 151.897 97.2017 156.421C98.2609 160.939 102.007 164.95 106.618 165.49C111.825 166.093 116.467 162.53 120.67 159.405C123.707 157.141 127.293 154.353 131.259 154.443C132.617 154.478 133.96 154.805 135.19 155.375C135.073 155.874 134.956 156.373 134.837 156.871C135.305 157.108 135.753 157.386 136.17 157.701C135.936 158.677 135.7 159.651 135.46 160.622C133.912 159.154 131.89 158.184 129.773 157.909C129.445 157.867 129.117 157.841 128.785 157.833C126.815 157.789 124.94 158.453 123.178 159.411C124.229 158.647 125.322 157.9 126.446 157.296C124.853 158.152 123.321 159.296 121.887 160.367L121.259 160.834C119.488 162.154 117.618 163.545 115.632 164.676C112.122 167.172 108.314 169.363 104.144 168.88C104.107 168.875 104.07 168.871 104.033 168.866H104.033ZM94.5125 154.309C94.5187 154.263 94.5254 154.216 94.5321 154.17C94.5254 154.217 94.5187 154.263 94.5125 154.309ZM94.5338 154.159C94.5405 154.113 94.5472 154.066 94.555 154.021C94.5478 154.066 94.5405 154.113 94.5338 154.159ZM94.5567 154.008C94.564 153.96 94.5718 153.913 94.5796 153.865C94.5718 153.913 94.5645 153.96 94.5567 154.008ZM94.6344 153.551C94.6428 153.505 94.6517 153.459 94.6601 153.413C94.6517 153.459 94.6428 153.505 94.6344 153.551ZM94.6629 153.399C94.6719 153.352 94.6808 153.305 94.6909 153.258C94.6814 153.305 94.6724 153.352 94.6629 153.399ZM94.7227 153.103C94.7328 153.054 94.7434 153.006 94.754 152.956C94.7434 153.005 94.7328 153.054 94.7227 153.103ZM94.7557 152.949C94.7663 152.9 94.7769 152.852 94.7876 152.804C94.7769 152.852 94.7658 152.9 94.7557 152.949ZM94.7892 152.797C94.8004 152.748 94.8116 152.7 94.8233 152.651C94.8122 152.699 94.8004 152.748 94.7892 152.797ZM94.8233 152.651C94.8351 152.601 94.8468 152.552 94.8585 152.504C94.8462 152.553 94.8345 152.602 94.8233 152.651ZM94.8602 152.498C94.8714 152.451 94.8831 152.404 94.8954 152.357C94.8837 152.404 94.872 152.451 94.8602 152.498ZM94.8988 152.343C94.9234 152.246 94.9485 152.151 94.9742 152.055C94.9485 152.151 94.9234 152.247 94.8988 152.343ZM94.977 152.046C94.9899 151.999 95.0028 151.952 95.0156 151.906C95.0022 151.952 94.9899 151.999 94.977 152.046ZM95.0178 151.898C95.0313 151.85 95.0447 151.802 95.0581 151.755C95.0447 151.802 95.0307 151.85 95.0178 151.898ZM95.1045 151.599C95.133 151.502 95.1626 151.405 95.1934 151.309C95.1632 151.405 95.1336 151.502 95.1045 151.599ZM95.1945 151.305C95.2096 151.258 95.2241 151.211 95.2398 151.164C95.2247 151.211 95.2096 151.258 95.1945 151.305ZM95.2426 151.155C95.2576 151.108 95.2727 151.061 95.2884 151.015C95.2733 151.061 95.2576 151.108 95.2426 151.155ZM95.3398 150.862C95.3549 150.817 95.3706 150.773 95.3856 150.729C95.3706 150.773 95.3549 150.818 95.3398 150.862ZM95.55 150.276C95.5673 150.229 95.5852 150.181 95.6036 150.134C95.5858 150.181 95.5679 150.229 95.55 150.276ZM94.6076 153.71C94.616 153.661 94.6249 153.612 94.6338 153.562L94.6076 153.71ZM95.2906 151.01C95.3068 150.961 95.323 150.913 95.3393 150.865L95.2906 151.01ZM106.882 167.022C106.906 167.024 106.93 167.026 106.954 167.028C106.93 167.026 106.906 167.024 106.882 167.022ZM107.186 167.042C107.216 167.043 107.246 167.044 107.276 167.046C107.246 167.045 107.216 167.043 107.186 167.042ZM107.297 167.047C108.982 167.119 110.596 166.825 112.142 166.292C110.596 166.825 108.982 167.119 107.297 167.047ZM112.158 166.286C112.209 166.269 112.261 166.251 112.313 166.232C112.261 166.251 112.21 166.269 112.158 166.286ZM112.46 166.179C112.488 166.168 112.516 166.158 112.544 166.147L112.46 166.179ZM126.591 157.221L126.618 157.207L126.695 157.166C126.661 157.184 126.625 157.203 126.591 157.221ZM126.721 157.153C126.755 157.136 126.79 157.118 126.824 157.101C126.79 157.118 126.756 157.135 126.721 157.153ZM126.842 157.092C126.875 157.075 126.908 157.059 126.94 157.042C126.907 157.059 126.874 157.075 126.842 157.092ZM127.092 156.969C127.129 156.951 127.164 156.934 127.201 156.917C127.164 156.935 127.129 156.951 127.092 156.969ZM127.345 156.85C127.383 156.833 127.42 156.816 127.458 156.799C127.421 156.816 127.383 156.833 127.345 156.85ZM127.467 156.795C127.502 156.78 127.538 156.764 127.574 156.748C127.538 156.763 127.502 156.779 127.467 156.795ZM127.726 156.684C127.762 156.668 127.799 156.653 127.834 156.639C127.798 156.653 127.762 156.668 127.726 156.684ZM127.859 156.629C127.895 156.614 127.931 156.6 127.967 156.586C127.931 156.6 127.895 156.614 127.859 156.629ZM127.983 156.58C128.022 156.564 128.06 156.549 128.099 156.535C128.06 156.549 128.021 156.564 127.983 156.58ZM128.103 156.533C128.143 156.518 128.183 156.504 128.222 156.488C128.182 156.503 128.142 156.518 128.103 156.533ZM128.232 156.486C128.269 156.472 128.307 156.458 128.344 156.445C128.307 156.459 128.269 156.472 128.232 156.486ZM128.495 156.393C128.534 156.38 128.573 156.367 128.613 156.354C128.574 156.367 128.534 156.38 128.495 156.393ZM128.618 156.353C128.658 156.34 128.699 156.327 128.74 156.315C128.699 156.327 128.658 156.34 128.618 156.353ZM128.877 156.273C128.917 156.262 128.955 156.25 128.994 156.24C128.955 156.25 128.916 156.262 128.877 156.273ZM129.009 156.235C129.047 156.225 129.085 156.215 129.122 156.204C129.084 156.215 129.046 156.225 129.009 156.235ZM129.145 156.199C129.183 156.189 129.221 156.179 129.259 156.17C129.221 156.179 129.183 156.189 129.145 156.199ZM129.266 156.168C129.305 156.159 129.343 156.149 129.382 156.14C129.343 156.149 129.305 156.158 129.266 156.168ZM129.395 156.137C129.433 156.129 129.47 156.12 129.508 156.112C129.47 156.12 129.433 156.128 129.395 156.137ZM129.529 156.108C129.567 156.1 129.605 156.092 129.643 156.084C129.605 156.092 129.567 156.1 129.529 156.108ZM129.658 156.082C129.697 156.074 129.736 156.066 129.775 156.06C129.736 156.066 129.697 156.074 129.658 156.082ZM129.917 156.035C129.956 156.029 129.994 156.023 130.033 156.017C129.994 156.023 129.955 156.029 129.917 156.035ZM130.046 156.015C130.085 156.009 130.125 156.004 130.164 155.999C130.125 156.004 130.086 156.009 130.046 156.015ZM130.179 155.997C130.217 155.992 130.255 155.988 130.293 155.984C130.255 155.988 130.217 155.992 130.179 155.997ZM130.703 155.95C130.741 155.948 130.779 155.946 130.817 155.945C130.779 155.947 130.741 155.948 130.703 155.95ZM130.837 155.945C130.875 155.943 130.913 155.942 130.952 155.942C130.914 155.942 130.875 155.943 130.837 155.945ZM130.97 155.941C131.009 155.941 131.048 155.94 131.087 155.94C131.048 155.94 131.009 155.94 130.97 155.941ZM131.102 155.941C131.142 155.941 131.183 155.941 131.224 155.942C131.183 155.941 131.142 155.941 131.102 155.941ZM131.315 155.945C132.424 155.986 133.527 156.261 134.543 156.728C133.753 156.365 132.911 156.118 132.054 156.007C131.808 155.975 131.561 155.955 131.315 155.945ZM134.546 156.73L134.588 156.749L134.6 156.755L134.546 156.73H134.546Z" fill="#168AD3"/>
<path d="M154.496 156.062C153.959 160.207 153.073 164.215 151.863 168.065L151.861 168.072C149.49 168.483 147.859 168.759 147.859 168.759C145.483 168.81 143.504 166.895 142.329 164.826C141.153 162.763 140.466 160.412 139.056 158.499C137.253 156.06 134.294 154.521 131.259 154.443C127.292 154.353 123.707 157.141 120.67 159.405C116.467 162.529 111.825 166.093 106.618 165.489C102.006 164.95 98.2604 160.939 97.2017 156.421C96.143 151.897 97.4449 147.06 99.8752 143.109C102.568 138.733 106.474 135.685 110.231 132.301C114.254 128.679 117.751 124.414 120.595 119.813C122.491 116.756 124.106 112.836 122.334 109.712C121.185 107.675 118.863 106.578 116.595 106.01C114.32 105.443 111.945 105.265 109.756 104.427C105.451 102.792 102.285 98.5119 101.985 93.9128C101.689 89.3215 104.678 83.0879 108.73 80.9058C108.73 80.9058 110.452 82.6016 113.731 82.7895C141.213 95.2481 158.576 124.571 154.494 156.062H154.496Z" fill="#0CAE97"/>
<path d="M154.496 156.062C153.959 160.207 153.073 164.215 151.863 168.065L151.861 168.072C149.49 168.483 147.859 168.759 147.859 168.759C145.483 168.81 143.504 166.895 142.329 164.826C141.153 162.763 140.466 160.412 139.056 158.499C137.253 156.06 134.294 154.521 131.259 154.443C127.292 154.353 123.707 157.141 120.67 159.405C116.467 162.529 111.825 166.093 106.618 165.489C102.006 164.95 98.2604 160.939 97.2017 156.421C96.143 151.897 97.4449 147.06 99.8752 143.109C102.568 138.733 106.474 135.685 110.231 132.301C114.254 128.679 117.751 124.414 120.595 119.813C122.491 116.756 124.106 112.836 122.334 109.712C121.185 107.675 118.863 106.578 116.595 106.01C114.32 105.443 111.945 105.265 109.756 104.427C105.451 102.792 102.285 98.5119 101.985 93.9128C101.689 89.3215 104.678 83.0879 108.73 80.9058C108.73 80.9058 110.452 82.6016 113.731 82.7895C141.213 95.2481 158.576 124.571 154.494 156.062H154.496Z" fill="#3EDC81"/>
<path d="M103.577 158.742C105.179 160.293 107.186 161.378 109.398 161.664C109.435 161.669 109.471 161.674 109.509 161.677C112.748 162.052 115.768 160.817 118.599 159.076C118.891 158.86 119.181 158.645 119.471 158.429L120.095 157.965C121.321 157.049 122.669 156.043 124.124 155.173C127.037 153 130.425 150.547 134.15 150.631C134.481 150.64 134.81 150.666 135.138 150.708C135.998 150.82 136.842 151.045 137.644 151.373C137.403 152.445 137.157 153.515 136.909 154.581C136.469 154.318 136.011 154.085 135.539 153.882C135.424 154.38 135.308 154.878 135.192 155.376C133.961 154.806 132.618 154.479 131.26 154.444C127.293 154.354 123.708 157.142 120.671 159.406C116.468 162.53 111.826 166.094 106.619 165.491C102.007 164.951 98.2615 160.94 97.2028 156.422C96.1442 151.898 97.446 147.061 99.8764 143.11C100.114 142.724 100.362 142.347 100.618 141.98C101.107 141.277 101.629 140.608 102.175 139.965C101.336 141.909 100.737 143.681 100.356 145.311C98.9954 151.129 100.408 155.138 103.578 158.742L103.577 158.742ZM131.173 152.943C129.147 152.922 127.24 153.536 125.473 154.428C127.24 153.536 129.146 152.922 131.173 152.943ZM125.473 154.428C125.331 154.499 125.191 154.572 125.052 154.647C125.191 154.572 125.332 154.499 125.473 154.428Z" fill="#30A57C"/>
<path d="M64.6171 93.019C60.8832 96.3912 55.7463 97.8518 50.7174 98.0396C45.6957 98.2218 40.7097 97.238 35.7814 96.2554L35.792 96.1195C44.5928 87.6731 55.5384 81.5586 67.574 78.5659L68.7388 79.3854C70.3548 84.1477 68.3498 89.6462 64.6171 93.019Z" fill="#3EDC81"/>
<path d="M74.0294 140.586C72.371 140.371 70.8036 139.355 70.12 137.797C69.6047 136.624 69.5661 135.27 68.9647 134.137C67.2296 130.871 62.047 131.183 59.8324 128.223C59.0258 127.145 58.7575 125.755 58.9296 124.41C59.2924 124.553 59.6574 124.697 60.0258 124.839C60.0185 124.821 60.0112 124.802 60.0045 124.784C60.7407 125.061 61.4785 125.335 62.218 125.606C64.5382 128.283 69.4532 128.089 71.1351 131.252C71.3978 131.748 71.5532 132.286 71.6879 132.832C71.8137 133.343 71.9216 133.862 72.0825 134.36C72.1429 134.548 72.2106 134.732 72.2899 134.912C73.2267 137.047 75.8242 138.165 78.0433 137.596C78.1294 137.574 78.2149 137.549 78.2999 137.522C79.1786 137.24 79.856 136.726 80.3708 136.073C79.6324 137.171 78.8974 138.278 78.0584 139.128H78.0606C77.5654 139.701 76.9321 140.15 76.1305 140.408C75.4542 140.625 74.7337 140.677 74.03 140.586L74.0294 140.586Z" fill="#168AD3"/>
<path d="M75.3793 115.701C73.0714 113.823 68.3241 114.122 65.7288 115.575C64.005 116.54 62.4433 117.911 61.6188 119.706C60.7932 121.5 60.8189 123.755 62.0017 125.337C64.2174 128.298 69.399 127.986 71.1351 131.251C71.7354 132.384 71.774 133.737 72.2894 134.911C73.262 137.129 76.0283 138.25 78.2993 137.522C80.9544 136.67 81.7677 133.697 81.8275 131.188C81.8962 128.334 81.3485 125.472 80.2758 122.829C79.3211 120.479 77.6437 117.041 75.3793 115.701V115.701Z" fill="#3EDC81"/>
<path d="M85.0421 177.815C81.1087 177.305 76.2664 174.968 72.1848 170.935C65.3722 164.204 63.2599 155.296 66.5455 151.97C67.3208 151.186 68.1989 150.912 69.1771 151.039C72.3475 151.45 76.5766 156.077 81.7833 161.221C88.5959 167.952 94.5025 173.02 91.2158 176.347C89.8994 177.68 87.6737 178.156 85.0415 177.815L85.0421 177.815Z" fill="#53C8FE"/>
<path d="M103.958 187.465C102.998 187.34 101.986 187.063 100.986 186.623C97.3236 185.013 95.176 181.844 96.1861 179.543C96.8071 178.13 98.3314 177.7 100.263 177.95C101.478 178.108 102.853 178.535 104.268 179.156C107.93 180.766 110.459 183.072 109.447 185.372C108.713 187.044 106.511 187.796 103.958 187.466L103.958 187.465Z" fill="#53C8FE"/>
<path d="M32.1861 183.064C34.0296 181.472 35.555 179.33 36.8803 177.27C39.2648 173.557 41.9277 169.465 46.1831 168.322C50.6022 167.134 55.2785 169.68 58.2606 173.148C61.237 176.613 63.0112 180.937 65.3515 184.867C69.2274 191.365 74.561 193.874 81.633 195.766C87.1656 197.245 92.9424 198.216 97.9535 200.991C100.408 202.345 102.674 204.272 104.307 206.559C99.6483 207.407 94.8485 207.851 89.9442 207.851C67.2123 207.851 46.7046 198.332 32.1861 183.065V183.064Z" fill="#3EDC81"/>
<path d="M42.9048 171.878C42.0311 172.072 41.0876 172.348 40.0624 172.718C41.7298 170.685 43.6812 168.994 46.182 168.322C50.6011 167.134 55.2774 169.679 58.2594 173.147C61.2359 176.613 63.01 180.936 65.3504 184.866C69.2262 191.364 74.5599 193.873 81.6318 195.766C87.1644 197.244 92.9413 198.215 97.9524 200.99C100.378 202.328 102.619 204.225 104.247 206.475C103.678 206.561 103.108 206.637 102.537 206.706L102.646 206.843C101.518 207.023 100.382 207.179 99.2386 207.312C98.0133 206.156 96.6293 205.156 95.1805 204.357C90.1683 201.582 84.3914 200.611 78.8594 199.133C71.7874 197.24 66.4538 194.731 62.5774 188.234C60.2365 184.304 58.4629 179.981 55.4864 176.514C53.2841 173.953 50.1584 171.896 46.8935 171.473C45.737 171.323 44.5649 171.379 43.4084 171.689C43.2603 171.728 43.0484 171.83 42.9036 171.878L42.9048 171.878Z" fill="#ACF0C9"/>
<path d="M104.307 206.558L104.248 206.475C103.231 205.07 101.975 203.803 100.584 202.722C101.415 202.787 102.241 202.836 103.062 202.869C110.154 203.158 116.917 202.131 123.716 200.07L123.594 200.412L104.308 206.558H104.307ZM42.9171 168.128C40.4028 164.098 38.2145 159.701 36.427 154.928C33.1403 145.132 31.9704 134.457 33.389 123.511C33.3935 123.475 33.3985 123.438 33.4035 123.401C33.9603 119.159 37.8814 116.452 41.8243 116.963C42.6706 117.072 43.5196 117.33 44.3351 117.754C46.4167 118.835 48.6911 119.956 51.1399 121.082C51.2836 121.148 51.4284 121.214 51.5731 121.28L51.5748 121.281L51.799 121.383L51.8045 121.385L51.8521 121.406L52.0209 121.483L52.0365 121.49L52.0371 121.49L52.0527 121.498L52.2601 121.591L52.2702 121.595L52.3166 121.617L52.5016 121.7L52.5038 121.7H52.5044L52.5094 121.703L52.6911 121.784L52.7408 121.806L52.7514 121.811C52.8258 121.844 52.8995 121.877 52.9739 121.91L52.9761 121.91L53.1628 121.993L53.2137 122.016L53.2578 122.035L53.4479 122.119L53.4518 122.121L53.6379 122.202L53.6905 122.226L53.7335 122.244L53.9247 122.328L53.9308 122.331L54.1622 122.431L54.1717 122.435L54.2131 122.453L54.3702 122.521L54.4456 122.554L54.6429 122.639L54.6564 122.645L54.6966 122.662L54.8906 122.746H54.8911L54.9001 122.75L54.9163 122.756C55.07 122.822 55.2248 122.888 55.3802 122.954L55.3908 122.959L55.3981 122.961L55.601 123.048L55.6675 123.076L55.8732 123.162L55.8861 123.167L55.8878 123.168L56.1326 123.271L56.1359 123.272L56.3701 123.37L56.3847 123.376L56.3863 123.376C56.5468 123.443 56.7083 123.51 56.8699 123.577L56.8861 123.584L56.9129 123.595L57.1382 123.688L57.2729 123.742L57.2757 123.743C57.8212 123.966 58.3735 124.188 58.9313 124.409L58.9352 124.378L58.9358 124.372L58.9363 124.366L58.938 124.354L58.9386 124.35L58.9391 124.347L58.9397 124.341L58.9414 124.329L58.9425 124.323V124.32L58.943 124.316L58.9442 124.31L58.9447 124.304L58.9458 124.298L58.9469 124.292V124.291L58.9475 124.286L58.9486 124.279L58.9503 124.267L58.9514 124.262V124.261L58.9525 124.255L58.9537 124.249L58.9548 124.242L58.9559 124.236L58.957 124.232V124.23L58.9581 124.224L58.9593 124.218L58.9604 124.212L58.9615 124.206L58.962 124.203L58.9626 124.199L58.9637 124.193L58.9648 124.187L58.966 124.181L58.9671 124.175V124.174L58.9676 124.168L58.9688 124.163L58.9699 124.157L58.971 124.151L58.9721 124.145H58.9727L58.9738 124.139L58.9749 124.132L58.976 124.126L58.9771 124.121L58.9783 124.116V124.114L58.9794 124.108L58.9805 124.102L58.9816 124.096L58.9827 124.09L58.9833 124.087L58.9838 124.083L58.985 124.078L58.9883 124.059L58.9889 124.058L58.99 124.053L58.9911 124.048L58.9922 124.041L58.9933 124.036L58.9945 124.029L58.9956 124.024L58.9967 124.018L58.9978 124.012L58.9989 124.006L59.0001 124.001L59.0006 124L59.0017 123.994L59.0028 123.988L59.0062 123.973L59.0079 123.966L59.0118 123.945L59.0123 123.944L59.0163 123.923L59.0179 123.915L59.0213 123.901L59.0241 123.885L59.0258 123.879L59.0302 123.858L59.0308 123.856L59.0353 123.836L59.0369 123.827L59.0397 123.814L59.0437 123.798L59.0453 123.793L59.0504 123.771L59.0509 123.77L59.0554 123.75L59.0571 123.74L59.0599 123.728L59.0638 123.712L59.0649 123.707L59.0699 123.685L59.071 123.683L59.0755 123.664L59.0778 123.655L59.0811 123.643L59.0856 123.626L59.0867 123.621L59.0923 123.599L59.0934 123.596L59.0984 123.577L59.1007 123.567L59.1046 123.556L59.109 123.539L59.1102 123.534L59.1163 123.513L59.1174 123.51L59.1225 123.491L59.1253 123.481L59.1286 123.471L59.1336 123.453L59.1348 123.449L59.1415 123.428L59.142 123.424L59.1476 123.406L59.151 123.396L59.1543 123.385L59.1599 123.367L59.161 123.364L59.1677 123.343L59.1689 123.339L59.1744 123.321L59.1784 123.31L59.1812 123.3L59.1867 123.282L59.1879 123.279L59.1951 123.258L59.1963 123.254L59.2013 123.236L59.2052 123.225L59.2085 123.215L59.2147 123.197L59.2153 123.194L59.2231 123.173L59.2248 123.169L59.2303 123.153L59.2371 123.134L59.2376 123.131L59.2443 123.112L59.2454 123.111L59.2521 123.089L59.2538 123.085L59.2594 123.069L59.26 123.068L59.2678 123.048L59.2745 123.029L59.2751 123.027L59.2829 123.007L59.2846 123.002L59.2901 122.987L59.2985 122.966L59.3052 122.946L59.3058 122.945L59.3142 122.925L59.3159 122.919L59.322 122.904L59.327 122.892L59.3304 122.883L59.3382 122.864L59.3388 122.863L59.3466 122.842L59.3494 122.836L59.3556 122.821L59.3639 122.801L59.3723 122.781V122.781L59.3807 122.761L59.3835 122.754L59.3896 122.741L59.3952 122.727L59.3986 122.721L59.407 122.7L59.4159 122.68L59.4243 122.66L59.4299 122.646L59.4332 122.64L59.4545 122.593C59.4875 122.521 59.521 122.451 59.5557 122.38V122.361C60.1526 121.071 60.9782 120.244 61.7854 119.379C62.128 118.726 62.569 118.131 63.0782 117.595C63.844 116.792 64.7635 116.119 65.7339 115.576C65.9524 115.454 66.1861 115.339 66.4331 115.234C67.1016 114.948 67.8629 114.727 68.6617 114.583C62.0028 112.377 55.3042 109.66 48.5357 106.43L47.8935 111.388L47.7191 112.733C47.5699 113.883 46.5179 114.694 45.3675 114.545C44.2183 114.397 43.4073 113.344 43.5565 112.194L44.5559 104.476L44.8013 102.583C43.1261 101.731 41.4492 100.848 39.7695 99.9356C38.205 99.086 36.9719 97.8199 36.1542 96.3298C36.0318 96.3052 35.9094 96.2806 35.7875 96.2565L35.7976 96.1218C35.797 96.1224 35.7964 96.1224 35.7959 96.1229C35.399 96.5025 35.0055 96.887 34.617 97.2761C33.8859 98.0078 33.1704 98.7557 32.4717 99.5192C32.493 99.4974 32.5131 99.4756 32.5349 99.4538C32.4304 99.5678 32.3242 99.6863 32.218 99.8054L32.2118 99.8048C22.9375 110.072 16.5838 123.176 14.6705 137.939C13.9875 143.208 13.9064 148.414 14.3715 153.491C15.2306 156.055 16.2144 158.562 17.3194 161.002C21.0265 169.188 26.0789 176.636 32.1923 183.065C34.0357 181.472 35.5606 179.331 36.8859 177.27C37.8685 175.74 38.8992 174.144 40.0692 172.718C41.1463 171.404 42.3424 170.233 43.7276 169.389C43.4553 168.972 43.187 168.551 42.9226 168.128H42.9171ZM35.6394 98.7937C34.3398 100.107 33.1011 101.463 31.9234 102.858C32.0263 102.736 32.1285 102.615 32.2325 102.493C33.318 101.226 34.4533 99.9921 35.6388 98.7937C35.5186 98.6444 35.4024 98.4924 35.29 98.3375C35.4024 98.4929 35.5186 98.645 35.6394 98.7937ZM31.8396 102.956C31.6981 103.125 31.5567 103.295 31.4164 103.465C31.5567 103.295 31.6976 103.125 31.8396 102.956ZM31.2929 103.615C31.1945 103.735 31.0961 103.856 30.9983 103.977C31.0961 103.856 31.1951 103.735 31.2929 103.615ZM30.8385 104.176C30.7535 104.283 30.6685 104.388 30.5836 104.495C30.668 104.388 30.7535 104.283 30.8385 104.176ZM30.417 104.706C30.3354 104.81 30.2538 104.914 30.1727 105.019C30.2538 104.915 30.3354 104.81 30.417 104.706ZM30.0067 105.234C29.9268 105.338 29.8469 105.442 29.7675 105.546C29.8469 105.443 29.9268 105.338 30.0067 105.234ZM29.6032 105.763C29.5227 105.87 29.4422 105.977 29.3628 106.084C29.4422 105.977 29.5227 105.87 29.6032 105.763ZM29.208 106.292C29.1225 106.408 29.0375 106.524 28.9525 106.64C29.0375 106.524 29.1225 106.407 29.208 106.292ZM27.9503 108.049C27.8603 108.179 27.7709 108.309 27.6826 108.439C27.7714 108.309 27.8603 108.179 27.9503 108.049ZM27.5423 108.646C27.4662 108.758 27.3908 108.871 27.3148 108.984C27.3908 108.871 27.4662 108.759 27.5423 108.646ZM26.4467 110.318C26.3752 110.431 26.3047 110.544 26.2337 110.657C26.3042 110.544 26.3752 110.431 26.4467 110.318ZM26.0957 110.878C26.0219 110.996 25.9498 111.115 25.8766 111.234C25.9492 111.115 26.0219 110.996 26.0957 110.878ZM25.7514 111.438C25.6552 111.596 25.5602 111.754 25.4663 111.913C25.5607 111.754 25.6552 111.596 25.7514 111.438ZM24.9845 112.736C24.9084 112.868 24.833 112.999 24.7586 113.13C24.833 112.998 24.9084 112.867 24.9845 112.736ZM23.6826 115.104C23.6217 115.22 23.5613 115.337 23.501 115.453C23.5613 115.337 23.6212 115.22 23.6826 115.104ZM23.3819 115.684C23.3171 115.811 23.2528 115.939 23.1891 116.066C23.2528 115.939 23.3171 115.811 23.3819 115.684ZM22.43 117.622C22.3646 117.76 22.2992 117.9 22.2344 118.039C22.2986 117.9 22.364 117.76 22.43 117.622ZM22.1298 118.267C22.0739 118.389 22.0175 118.512 21.9627 118.635C22.0181 118.512 22.0739 118.389 22.1298 118.267ZM21.5843 119.486C21.5323 119.606 21.4809 119.726 21.4295 119.845C21.4809 119.725 21.5323 119.605 21.5843 119.486ZM21.3244 120.092C21.2718 120.215 21.2204 120.339 21.169 120.463C21.2204 120.339 21.2724 120.215 21.3244 120.092ZM20.581 121.92C20.5016 122.124 20.4239 122.327 20.3462 122.531C20.4233 122.327 20.5016 122.124 20.581 121.92ZM20.2774 122.716C20.2232 122.859 20.1696 123.003 20.1165 123.148C20.1696 123.003 20.2232 122.86 20.2774 122.716ZM19.5855 124.65C19.5435 124.774 19.5022 124.897 19.4602 125.021C19.5016 124.897 19.5435 124.774 19.5855 124.65ZM19.1701 125.908C19.126 126.048 19.0824 126.187 19.0382 126.327C19.0818 126.187 19.126 126.048 19.1701 125.908ZM18.9728 126.537C18.9136 126.728 18.856 126.919 18.7984 127.112C18.856 126.92 18.9141 126.728 18.9728 126.537ZM18.538 128.004C18.4972 128.15 18.4558 128.294 18.4155 128.439C18.4558 128.294 18.4966 128.15 18.538 128.004ZM18.3474 128.689C18.3121 128.819 18.2764 128.949 18.2417 129.08C18.2764 128.949 18.3116 128.819 18.3474 128.689ZM18.0041 129.995C17.9723 130.121 17.9404 130.249 17.9097 130.376C17.941 130.249 17.9728 130.121 18.0041 129.995ZM17.8437 130.643C17.8124 130.774 17.7817 130.905 17.7509 131.035C17.7817 130.904 17.8124 130.774 17.8437 130.643ZM17.6906 131.291C17.657 131.436 17.6241 131.581 17.5916 131.726C17.6241 131.581 17.657 131.436 17.6906 131.291ZM17.4111 132.549L17.4016 132.59L17.4005 132.594C17.3558 132.81 17.3105 133.027 17.2669 133.243L17.4105 132.549H17.4111ZM17.2227 133.468C17.1942 133.611 17.1657 133.756 17.1378 133.9C17.1657 133.756 17.1942 133.612 17.2227 133.468ZM16.9662 134.831C16.9421 134.963 16.9192 135.095 16.8963 135.228C16.9192 135.095 16.9421 134.963 16.9662 134.831ZM16.8499 135.498C16.8281 135.631 16.8063 135.764 16.7845 135.896C16.8063 135.764 16.8281 135.631 16.8499 135.498ZM16.7415 136.167C16.7197 136.303 16.6984 136.439 16.6777 136.576C16.6984 136.439 16.7197 136.303 16.7415 136.167ZM16.358 138.928C16.3463 139.032 16.3345 139.137 16.3228 139.241C16.3345 139.137 16.3463 139.033 16.358 138.928ZM16.2725 139.688C16.2607 139.797 16.2507 139.905 16.2395 140.013C16.2507 139.905 16.2607 139.796 16.2725 139.688ZM16.1954 140.445C16.1847 140.559 16.1752 140.673 16.1646 140.786C16.1747 140.673 16.1842 140.559 16.1954 140.445ZM16.1266 141.205C16.1171 141.317 16.1087 141.43 16.0998 141.541C16.1087 141.43 16.1171 141.317 16.1266 141.205ZM15.936 144.234C15.9304 144.359 15.927 144.483 15.9226 144.606C15.927 144.482 15.9304 144.358 15.936 144.234ZM15.8784 147.258C15.8784 147.384 15.8801 147.509 15.8812 147.635C15.8795 147.509 15.8784 147.384 15.8784 147.258ZM15.8846 148.014C15.8862 148.138 15.8896 148.263 15.8913 148.388C15.889 148.263 15.8862 148.138 15.8846 148.014ZM15.9226 149.521C15.927 149.647 15.9326 149.774 15.9382 149.901C15.9326 149.774 15.927 149.647 15.9226 149.521ZM15.9539 150.274C15.9595 150.398 15.9667 150.523 15.9734 150.648C15.9667 150.523 15.96 150.398 15.9539 150.274ZM15.9936 151.026C16.0008 151.15 16.0087 151.273 16.017 151.397C16.0087 151.273 16.0008 151.15 15.9936 151.026ZM16.0411 151.778C16.05 151.9 16.059 152.021 16.0679 152.142C16.059 152.021 16.05 151.9 16.0411 151.778ZM16.0975 152.528C16.107 152.65 16.1182 152.772 16.1283 152.893C16.1182 152.771 16.107 152.65 16.0975 152.528ZM16.2334 154.025C16.2468 154.148 16.2602 154.271 16.2736 154.394C16.2602 154.271 16.2462 154.148 16.2334 154.025ZM16.4994 156.26C16.5162 156.383 16.5335 156.506 16.5514 156.63C16.5335 156.507 16.5162 156.383 16.4994 156.26ZM16.7169 157.742C16.7364 157.867 16.7577 157.991 16.7778 158.116C16.7577 157.992 16.737 157.867 16.7169 157.742ZM16.9673 159.219C16.9902 159.345 17.0137 159.471 17.0371 159.597C17.0137 159.472 16.9902 159.345 16.9673 159.219ZM17.1042 159.955C17.1283 160.08 17.1529 160.205 17.1774 160.33C17.1534 160.205 17.1283 160.08 17.1042 159.955ZM38.9931 171.664C38.9663 171.695 38.94 171.728 38.9138 171.759C38.94 171.728 38.9663 171.696 38.9931 171.664ZM38.575 172.18C38.5331 172.233 38.4912 172.286 38.4493 172.34C38.4912 172.286 38.5326 172.233 38.575 172.18Z" fill="#168AD3"/>
<path d="M60.0257 124.838C59.6574 124.697 59.2924 124.553 58.9296 124.41C59.0101 123.781 59.1862 123.163 59.4495 122.591C59.4819 122.519 59.516 122.449 59.5506 122.379C59.5506 122.372 59.5506 122.366 59.5506 122.359C60.1476 121.069 60.9732 120.242 61.7798 119.377C61.7233 119.485 61.6697 119.595 61.6182 119.706C61.5349 119.886 61.4606 120.071 61.3952 120.259C61.0766 121.177 60.9693 122.177 61.1085 123.126C61.2253 123.924 61.5154 124.686 62.0011 125.336C62.0704 125.429 62.1425 125.518 62.2174 125.604C61.4779 125.334 60.7401 125.06 60.0039 124.783C60.0107 124.801 60.0179 124.819 60.0252 124.837L60.0257 124.838Z" fill="#146CB5"/>
<path d="M91.4388 132.999C89.1633 132.704 86.9252 132.348 84.7279 131.939C83.7542 131.772 82.785 131.59 81.8208 131.393C81.8236 131.324 81.8258 131.255 81.8275 131.187C81.8616 129.76 81.742 128.331 81.4798 126.928C81.2171 125.526 80.8124 124.15 80.2764 122.828C79.5654 121.077 78.453 118.722 76.9953 117.081C76.4961 116.52 75.9573 116.042 75.3799 115.7C73.7941 114.409 71.0563 114.147 68.6567 114.58C61.9972 112.374 55.2986 109.658 48.5307 106.427L48.7739 104.551C68.7478 114.165 88.5613 119.492 109.114 119.941C112.345 120.012 115.585 119.963 118.84 119.792C119.452 119.759 120.064 119.723 120.676 119.682C120.65 119.726 120.623 119.769 120.596 119.812C117.752 124.413 114.255 128.678 110.232 132.3C109.597 132.871 108.958 133.433 108.322 133.994C107.583 133.992 106.844 133.979 106.103 133.955C101.084 133.96 96.1827 133.613 91.4394 132.998L91.4388 132.999ZM117.597 121.656C116.674 122.984 115.703 124.264 114.685 125.493C115.703 124.264 116.674 122.985 117.597 121.656ZM114.68 125.498C114.64 125.547 114.599 125.596 114.558 125.646C114.599 125.596 114.64 125.547 114.68 125.498ZM114.557 125.646L114.447 125.779L114.476 125.743L114.557 125.647V125.646ZM114.034 126.264L113.92 126.397C113.958 126.353 113.996 126.309 114.034 126.264ZM113.639 126.719C113.601 126.762 113.564 126.804 113.526 126.847C113.564 126.805 113.601 126.762 113.639 126.719ZM113.386 127.005L113.274 127.131C113.311 127.089 113.348 127.047 113.386 127.005ZM113.113 127.31C113.073 127.354 113.033 127.398 112.993 127.442C113.033 127.397 113.073 127.354 113.113 127.31ZM112.587 127.883C112.544 127.928 112.501 127.975 112.458 128.021C112.501 127.975 112.544 127.929 112.587 127.883ZM112.037 128.465L111.921 128.585C111.96 128.546 111.999 128.505 112.037 128.465ZM111.895 128.613C111.855 128.654 111.815 128.695 111.775 128.736C111.815 128.695 111.854 128.654 111.895 128.613ZM111.772 128.74C111.731 128.782 111.69 128.824 111.649 128.866C111.689 128.824 111.731 128.782 111.772 128.74ZM111.627 128.888C111.588 128.929 111.547 128.969 111.508 129.01C111.547 128.97 111.588 128.929 111.627 128.888ZM111.483 129.035L111.373 129.146C111.41 129.109 111.447 129.072 111.483 129.035ZM111.35 129.169C111.312 129.207 111.274 129.245 111.236 129.283C111.274 129.245 111.312 129.207 111.35 129.169ZM111.065 129.454C111.024 129.494 110.983 129.534 110.943 129.574C110.983 129.534 111.024 129.494 111.065 129.454ZM110.94 129.577C110.897 129.619 110.854 129.661 110.812 129.703C110.855 129.661 110.897 129.619 110.94 129.577ZM110.796 129.719C110.754 129.76 110.712 129.801 110.669 129.842C110.711 129.801 110.754 129.76 110.796 129.719ZM110.518 129.988C110.475 130.03 110.431 130.072 110.388 130.112C110.431 130.071 110.475 130.03 110.518 129.988ZM110.37 130.13C110.33 130.168 110.29 130.206 110.251 130.244C110.29 130.206 110.33 130.168 110.37 130.13ZM110.089 130.396C110.048 130.435 110.006 130.474 109.965 130.513C110.006 130.474 110.048 130.435 110.089 130.396ZM109.937 130.539C109.898 130.576 109.858 130.613 109.819 130.649C109.858 130.612 109.898 130.575 109.937 130.539ZM109.508 130.935C109.466 130.974 109.423 131.012 109.381 131.05C109.423 131.012 109.465 130.974 109.508 130.935ZM109.362 131.068C109.318 131.108 109.273 131.148 109.228 131.188C109.273 131.148 109.317 131.108 109.362 131.068ZM114.294 125.96C114.254 126.007 114.214 126.055 114.173 126.102L114.294 125.96ZM113.516 126.859C113.474 126.907 113.432 126.954 113.39 127.001L113.516 126.859ZM112.711 127.75C112.67 127.793 112.631 127.836 112.59 127.879L112.711 127.75ZM110.646 129.864C110.604 129.905 110.561 129.946 110.52 129.987L110.646 129.864ZM109.788 130.677C109.746 130.715 109.705 130.754 109.663 130.793L109.788 130.677Z" fill="#168AD3"/>
<path d="M117.835 126.365C117.871 126.319 117.907 126.273 117.943 126.227C117.907 126.273 117.87 126.319 117.835 126.365ZM117.989 126.169C118.026 126.121 118.064 126.073 118.102 126.025C118.064 126.073 118.027 126.121 117.989 126.169ZM118.283 125.791C118.329 125.731 118.375 125.671 118.422 125.611C118.376 125.671 118.329 125.731 118.283 125.791ZM118.428 125.602C119.449 124.267 120.421 122.88 121.34 121.444C121.401 121.349 121.463 121.253 121.523 121.157C121.462 121.253 121.401 121.348 121.34 121.444C120.42 122.88 119.449 124.268 118.428 125.602ZM122.491 119.551C129.147 119.017 135.867 117.978 142.68 116.43C142.584 117.067 142.487 117.703 142.388 118.34C142.912 118.223 143.436 118.103 143.962 117.981C143.489 121.054 142.987 124.118 142.459 127.17C137.093 129.277 131.743 130.829 126.455 131.913C126.583 131.887 126.712 131.861 126.84 131.834C121.489 133.034 116.09 133.801 110.621 133.963C109.855 133.986 109.089 133.997 108.321 133.995C108.957 133.435 109.596 132.873 110.231 132.301C114.254 128.68 117.751 124.415 120.595 119.814C120.622 119.771 120.648 119.727 120.675 119.684C121.28 119.643 121.884 119.599 122.49 119.551H122.491ZM110.696 133.896L110.748 133.851C112.031 133.793 113.32 133.711 114.616 133.604C113.32 133.711 112.031 133.792 110.748 133.85L110.696 133.896V133.896ZM126.393 131.926C126.248 131.956 126.103 131.985 125.958 132.014C126.103 131.985 126.248 131.956 126.393 131.926ZM125.893 132.027C125.75 132.056 125.606 132.084 125.463 132.112C125.606 132.084 125.749 132.056 125.893 132.027ZM124.894 132.221C124.75 132.248 124.606 132.274 124.462 132.301C124.606 132.274 124.75 132.247 124.894 132.221ZM124.403 132.312C124.257 132.339 124.111 132.365 123.965 132.391C124.111 132.365 124.257 132.339 124.403 132.312ZM123.413 132.488C123.266 132.513 123.119 132.539 122.971 132.563C123.118 132.539 123.265 132.513 123.413 132.488ZM121.927 132.733C121.778 132.756 121.63 132.779 121.481 132.801C121.63 132.778 121.778 132.756 121.927 132.733ZM121.447 132.807C121.291 132.83 121.136 132.854 120.982 132.876C121.136 132.853 121.292 132.83 121.447 132.807ZM120.982 132.876L120.967 132.878C120.809 132.902 120.651 132.924 120.493 132.947L120.485 132.948H120.484L120.982 132.876ZM119.008 133.147C118.855 133.166 118.703 133.185 118.55 133.204C118.703 133.185 118.855 133.166 119.008 133.147ZM117.045 133.376C116.889 133.393 116.732 133.409 116.576 133.425C116.732 133.409 116.889 133.392 117.045 133.376ZM116.058 133.477C115.907 133.491 115.756 133.505 115.606 133.52C115.756 133.506 115.907 133.491 116.058 133.477ZM115.575 133.522C115.421 133.536 115.268 133.55 115.115 133.564C115.268 133.55 115.422 133.536 115.575 133.522Z" fill="#30A57C"/>
<path d="M32.1861 183.064C34.0296 181.472 35.5544 179.331 36.8797 177.27C37.8624 175.739 38.8931 174.144 40.063 172.718C40.3341 173.178 40.6091 173.633 40.8864 174.084L40.8813 174.091L40.9288 174.031C41.2217 174.549 41.5202 175.059 41.8232 175.565C53.8911 194.22 71.793 204.744 89.7491 206.739C92.8139 207.081 95.8792 207.173 98.9177 207.014C99.0262 207.112 99.1335 207.211 99.2397 207.311C96.1906 207.665 93.0889 207.849 89.9442 207.849C67.2123 207.849 46.7046 198.331 32.1867 183.064L32.1861 183.064ZM35.451 181.825C35.7199 181.501 35.9809 181.17 36.2358 180.834C35.9803 181.17 35.7193 181.501 35.451 181.825ZM37.3381 179.293C37.456 179.12 37.5728 178.947 37.6874 178.773C37.5723 178.947 37.456 179.12 37.3381 179.293ZM37.688 178.773C37.7646 178.657 37.8406 178.541 37.916 178.426L37.688 178.773ZM41.8936 175.686C41.9791 175.828 42.0646 175.97 42.1513 176.11C42.0652 175.97 41.9791 175.828 41.8936 175.686ZM42.4263 176.559C42.5129 176.7 42.6012 176.839 42.689 176.98C42.6007 176.84 42.5129 176.7 42.4263 176.559ZM43.523 178.275C43.6118 178.41 43.7013 178.544 43.7902 178.678C43.7013 178.544 43.6118 178.411 43.523 178.275ZM44.6543 179.94C44.7471 180.072 44.8393 180.203 44.9332 180.334C44.8399 180.203 44.7471 180.072 44.6543 179.94ZM45.234 180.755C45.3279 180.885 45.4218 181.015 45.5162 181.144C45.4218 181.015 45.3279 180.885 45.234 180.755ZM45.8214 181.558C45.917 181.687 46.0131 181.815 46.1104 181.943C46.0137 181.815 45.9176 181.686 45.8214 181.558ZM47.0271 183.132C47.1238 183.255 47.2211 183.377 47.3194 183.5C47.2216 183.377 47.1244 183.255 47.0271 183.132ZM47.6397 183.898C47.7387 184.019 47.837 184.14 47.936 184.261C47.8365 184.14 47.7387 184.019 47.6397 183.898ZM48.2618 184.654C48.3619 184.773 48.462 184.893 48.5626 185.012C48.4625 184.893 48.3619 184.773 48.2618 184.654ZM48.8929 185.399C48.9935 185.515 49.0941 185.632 49.1948 185.748C49.0941 185.632 48.9935 185.515 48.8929 185.399ZM51.4943 188.257C51.5972 188.363 51.7006 188.471 51.8051 188.579C51.7006 188.472 51.5977 188.364 51.4943 188.257ZM54.2176 190.927C54.3221 191.024 54.4266 191.121 54.5312 191.217C54.4261 191.121 54.3221 191.024 54.2176 190.927ZM55.629 192.196C55.7301 192.285 55.8313 192.375 55.9336 192.463C55.8319 192.375 55.7301 192.285 55.629 192.196ZM56.3757 192.839C56.4646 192.914 56.554 192.992 56.644 193.067C56.554 192.991 56.4646 192.914 56.3757 192.839ZM57.1628 193.496C57.2293 193.551 57.2947 193.606 57.3612 193.66C57.2941 193.606 57.2293 193.551 57.1628 193.496ZM58.8117 194.808C58.9039 194.879 58.9978 194.949 59.0906 195.019C58.9978 194.949 58.9045 194.879 58.8117 194.808ZM59.5456 195.364C59.6496 195.441 59.7535 195.517 59.8575 195.594C59.7535 195.517 59.6501 195.442 59.5456 195.364ZM60.2857 195.908C60.3952 195.987 60.5053 196.065 60.6155 196.143C60.5048 196.065 60.3952 195.987 60.2857 195.908ZM61.0302 196.439C61.1437 196.519 61.2566 196.596 61.3695 196.675C61.2566 196.596 61.1437 196.519 61.0302 196.439ZM61.7809 196.959C61.8972 197.038 62.0145 197.116 62.1308 197.195C62.014 197.116 61.8972 197.038 61.7809 196.959ZM62.5344 197.465C62.654 197.544 62.773 197.621 62.8932 197.699C62.773 197.621 62.6534 197.544 62.5344 197.465ZM64.8306 198.914C64.9519 198.986 65.0737 199.058 65.195 199.131C65.0732 199.058 64.9513 198.986 64.8306 198.914ZM67.1654 200.251C67.2883 200.318 67.4119 200.385 67.5354 200.451C67.4124 200.385 67.2883 200.318 67.1654 200.251ZM67.9507 200.672C68.0754 200.738 68.2 200.802 68.3252 200.867C68.2 200.802 68.0754 200.738 67.9507 200.672ZM68.7394 201.08C68.8652 201.144 68.9915 201.207 69.1178 201.27C68.9909 201.207 68.8652 201.144 68.7394 201.08ZM69.5337 201.477C69.6595 201.539 69.7858 201.6 69.9127 201.661C69.7863 201.6 69.66 201.539 69.5337 201.477ZM70.3296 201.86C70.4571 201.92 70.5845 201.98 70.712 202.039C70.5851 201.98 70.4571 201.92 70.3296 201.86ZM72.7377 202.937C72.8673 202.991 72.9976 203.046 73.1284 203.099C72.9981 203.045 72.8679 202.991 72.7377 202.937ZM73.5493 203.272C73.6784 203.324 73.8081 203.376 73.9377 203.428C73.8081 203.376 73.6789 203.324 73.5493 203.272ZM75.1747 203.903C75.305 203.951 75.4352 203.999 75.566 204.047C75.4358 203.999 75.3055 203.951 75.1747 203.903ZM76.8136 204.484C76.9433 204.529 77.0735 204.573 77.2038 204.616C77.0741 204.573 76.9433 204.529 76.8136 204.484ZM77.6353 204.757C77.765 204.799 77.8952 204.841 78.0249 204.881C77.8952 204.84 77.765 204.799 77.6353 204.757ZM79.2848 205.262C79.415 205.301 79.5458 205.339 79.676 205.376C79.5452 205.339 79.4144 205.301 79.2848 205.262ZM80.1092 205.496C80.24 205.532 80.3708 205.569 80.5016 205.603C80.3703 205.568 80.24 205.532 80.1092 205.496ZM80.9454 205.72C81.0729 205.753 81.2009 205.787 81.3283 205.819C81.2003 205.786 81.0729 205.753 80.9454 205.72ZM84.288 206.484C84.4093 206.508 84.5312 206.532 84.6525 206.556C84.5312 206.532 84.4088 206.508 84.288 206.484ZM85.1365 206.645C85.2522 206.666 85.3685 206.688 85.4848 206.709C85.3685 206.688 85.2528 206.666 85.1365 206.645ZM85.9873 206.793C86.0979 206.811 86.2081 206.831 86.3187 206.848C86.2086 206.831 86.0979 206.811 85.9873 206.793ZM86.8682 206.932C86.9627 206.946 87.0577 206.962 87.1521 206.976C87.0577 206.961 86.9632 206.946 86.8682 206.932Z" fill="#30A57C"/>
<path d="M102.538 206.706C103.109 206.637 103.68 206.561 104.247 206.475L104.307 206.558C102.635 206.863 100.945 207.114 99.2391 207.312C99.1329 207.212 99.0256 207.113 98.9172 207.015C100.008 206.959 101.094 206.869 102.176 206.748C102.297 206.735 102.417 206.72 102.538 206.706Z" fill="#7DB3AE"/>
<path d="M32.2118 99.8048L32.2057 99.8037C32.3119 99.684 32.4181 99.5655 32.5288 99.4526C32.4242 99.5661 32.318 99.6846 32.2118 99.8042V99.8048Z" fill="#17296E"/>
<path d="M150.346 114.484C110.946 125.525 75.8326 119.529 39.7645 99.9344C36.3034 98.0546 34.4644 94.1407 35.1564 90.2576L39.2486 70.5073L39.6371 68.632L41.2882 60.6528L43.4755 50.1125L45.7135 39.2893L159.236 54.0017L158.774 65.1938L158.336 75.6905L157.996 83.8044L157.883 86.4768L157.064 106.245C156.8 110.134 154.106 113.43 150.346 114.483V114.484Z" fill="#6157A4"/>
<path d="M107.945 118.101C107.631 117.999 107.318 117.897 107.004 117.793C119.275 117.651 131.821 115.803 144.819 112.183C144.727 112.835 144.632 113.492 144.537 114.144C132.146 117.157 120.015 118.485 107.945 118.101ZM152.296 90.8949L152.527 84.8185L152.641 82.1449L152.98 74.0322L153.087 71.4582L153.872 70.7773L156.759 70.3101L155.951 89.7787C154.619 90.0448 153.392 90.4198 152.296 90.8949Z" fill="#BBB7D8"/>
<path d="M49.0176 102.67L54.4909 60.4367L93.1375 77.6102C94.7535 78.3279 96.4477 78.8019 98.1765 79.026C99.9043 79.2502 101.666 79.2239 103.41 78.9416L153.111 70.9004L153.087 71.4577L149.909 74.2145C147.28 76.4945 144.067 77.997 140.631 78.5537L99.4336 85.2227C98.7472 85.3334 98.0513 85.3423 97.3661 85.2534C96.6824 85.1651 96.0111 84.9784 95.3761 84.6967L83.9012 79.5967C83.3227 79.3391 82.7296 79.177 82.1394 79.1004C78.9656 78.689 75.8343 80.7627 75.1451 84.0902L72.855 95.1437C72.1636 99.0268 74.0026 102.941 77.4631 104.82C87.3483 110.189 97.1592 114.537 107.004 117.793C105.223 117.813 103.447 117.798 101.677 117.746C103.765 117.915 105.856 118.034 107.946 118.101C111.944 118.228 115.95 118.168 119.97 117.92C120.553 117.884 121.136 117.844 121.72 117.801C122.292 117.758 122.864 117.711 123.437 117.661C130.41 117.047 137.431 115.873 144.538 114.145C144.445 114.785 144.35 115.425 144.254 116.065C136.868 117.824 129.626 118.978 122.492 119.55C121.886 119.599 121.281 119.643 120.677 119.683C120.064 119.724 119.452 119.76 118.84 119.793C94.7708 121.059 71.8791 115.674 48.7739 104.553L49.0181 102.67L49.0176 102.67ZM44.1272 55.8308L42.4442 55.0835L41.2883 60.6535L39.6371 68.6322L39.2486 70.5075L35.1564 90.2573C34.8026 92.2421 35.1101 94.2354 35.9574 95.9603C35.9574 95.9603 35.9574 95.9603 35.9574 95.9609C36.0184 96.0844 36.0821 96.2068 36.148 96.3281C36.9658 97.8189 38.1989 99.0844 39.764 99.934C41.4431 100.846 43.12 101.729 44.7957 102.582L45.0411 100.686L50.4876 58.6581L44.1261 55.8303L44.1272 55.8308ZM40.6242 98.3538C40.5817 98.3309 40.5392 98.3069 40.4979 98.2834C40.5398 98.3074 40.5817 98.3309 40.6242 98.3538ZM40.4934 98.2812C40.452 98.2577 40.4107 98.2336 40.3704 98.209C40.4112 98.2336 40.452 98.2577 40.4934 98.2812ZM40.2424 98.1313C40.2011 98.1056 40.1603 98.0794 40.1195 98.0531C40.1603 98.0799 40.2011 98.1056 40.2424 98.1313ZM40.1195 98.0525C40.0798 98.0268 40.0401 98.0005 40.001 97.9737C40.0401 98.0005 40.0792 98.0263 40.1195 98.0525ZM39.6455 97.7155C39.608 97.6864 39.5706 97.6573 39.5337 97.6272C39.5706 97.6568 39.608 97.6864 39.6455 97.7155ZM39.532 97.6255C39.4951 97.5959 39.4582 97.5657 39.4224 97.5355C39.4588 97.5657 39.4951 97.5959 39.532 97.6255ZM39.4202 97.5338C39.3839 97.5036 39.3481 97.4729 39.3129 97.4421C39.3481 97.4729 39.3844 97.5036 39.4202 97.5338ZM39.3112 97.4405C39.276 97.4097 39.2413 97.379 39.2072 97.3482C39.2413 97.379 39.276 97.4103 39.3112 97.4405ZM39.2033 97.3443C39.1692 97.313 39.1351 97.2817 39.1016 97.2499C39.1351 97.2812 39.1692 97.313 39.2033 97.3443ZM39.0982 97.2471C39.0647 97.2152 39.0312 97.1833 38.9987 97.1509C39.0317 97.1833 39.0647 97.2152 39.0982 97.2471ZM38.9948 97.147C38.9278 97.0811 38.8624 97.0145 38.7981 96.9464C38.8624 97.0145 38.9278 97.0816 38.9948 97.147ZM38.7964 96.9447C38.7645 96.9106 38.7327 96.8759 38.7014 96.8418C38.7327 96.8765 38.7645 96.9106 38.7964 96.9447ZM38.6997 96.8396L38.6852 96.8234C38.6589 96.7943 38.6332 96.7647 38.6069 96.7351C38.6377 96.7703 38.6684 96.8049 38.6997 96.8396ZM38.6052 96.7334C38.5756 96.6987 38.546 96.6641 38.5164 96.6294C38.546 96.6646 38.5756 96.6993 38.6052 96.7334ZM38.5113 96.6233C38.4828 96.5886 38.4543 96.554 38.4258 96.5193C38.4538 96.5545 38.4823 96.5892 38.5113 96.6233ZM38.3353 96.4042C38.3073 96.3678 38.2799 96.3315 38.252 96.2946C38.2794 96.3315 38.3073 96.3678 38.3353 96.4042ZM38.2486 96.289C38.2218 96.2527 38.195 96.2163 38.1692 96.1795C38.1955 96.2163 38.2218 96.2527 38.2486 96.289ZM38.1664 96.1761C38.1396 96.1386 38.1139 96.1018 38.0882 96.0637C38.1139 96.1012 38.1396 96.1386 38.1664 96.1761ZM38.0848 96.0587C38.0329 95.9827 37.9826 95.9061 37.9339 95.8284C37.9826 95.9061 38.0334 95.9833 38.0848 96.0587ZM37.9295 95.8217C37.8808 95.744 37.8333 95.6652 37.7875 95.5858C37.8333 95.6652 37.8803 95.7435 37.9295 95.8217ZM37.7847 95.5814C37.7388 95.5014 37.6941 95.4209 37.6516 95.3399C37.6947 95.4209 37.7388 95.502 37.7847 95.5814ZM37.6483 95.3337C37.6271 95.2935 37.6058 95.2527 37.5851 95.2113C37.6058 95.2521 37.6265 95.2929 37.6483 95.3337ZM37.5231 95.0833C37.503 95.042 37.484 95 37.465 94.9581C37.484 95 37.5035 95.0414 37.5231 95.0833ZM37.4633 94.9548C37.4443 94.9134 37.4258 94.872 37.4079 94.8307C37.4258 94.872 37.4443 94.914 37.4633 94.9548ZM37.4063 94.8262C37.3884 94.7837 37.3699 94.7412 37.3526 94.6982C37.3699 94.7412 37.3878 94.7837 37.4063 94.8262ZM37.352 94.6971L37.3425 94.6747V94.6742C37.3291 94.6406 37.3157 94.6071 37.3023 94.573C37.3185 94.6144 37.3347 94.6563 37.352 94.6971ZM37.2503 94.4349C37.2347 94.3919 37.2196 94.3489 37.2045 94.3053C37.2196 94.3483 37.2347 94.3919 37.2503 94.4349ZM37.2011 94.2958C37.1877 94.2555 37.1737 94.2153 37.1609 94.1745C37.1737 94.2147 37.1877 94.2555 37.2011 94.2958ZM37.1564 94.161C37.1436 94.1208 37.1307 94.0806 37.1184 94.0397C37.1307 94.0806 37.143 94.1208 37.1564 94.161ZM37.115 94.0286C37.1022 93.9855 37.0899 93.9431 37.0776 93.9C37.0899 93.9431 37.1022 93.9861 37.115 94.0286ZM37.0765 93.8961C37.0642 93.8519 37.0519 93.8072 37.0407 93.7625C37.0519 93.8072 37.0642 93.8514 37.0765 93.8961ZM37.039 93.7569C37.0278 93.7144 37.0172 93.6714 37.0072 93.6289C37.0178 93.672 37.0284 93.7144 37.039 93.7569ZM37.0044 93.6172C36.9943 93.5758 36.9848 93.5339 36.9759 93.492C36.9854 93.5339 36.9949 93.5752 37.0044 93.6172ZM36.9731 93.4797C36.9636 93.4377 36.9552 93.3958 36.9468 93.3533C36.9552 93.3953 36.9641 93.4377 36.9731 93.4797ZM36.8943 93.0582C36.8875 93.0163 36.8814 92.9744 36.8753 92.9324C36.8808 92.9744 36.8875 93.0163 36.8943 93.0582ZM36.8557 92.7799C36.8507 92.7362 36.8456 92.6927 36.8412 92.6485C36.8456 92.6927 36.8501 92.7362 36.8557 92.7799ZM36.8406 92.6407C36.8361 92.5948 36.8322 92.5484 36.8283 92.502C36.8322 92.5484 36.8361 92.5943 36.8406 92.6407ZM36.8277 92.4981C36.8244 92.4534 36.821 92.4081 36.8182 92.3629C36.821 92.4081 36.8244 92.4529 36.8277 92.4981ZM36.8171 91.4887C36.8199 91.4434 36.8227 91.3975 36.8266 91.3523C36.8233 91.3981 36.8199 91.4434 36.8171 91.4887ZM36.8266 91.3489C36.8305 91.3014 36.8344 91.2544 36.8389 91.2069C36.8344 91.2544 36.83 91.3014 36.8266 91.3489ZM36.84 91.2008C36.8445 91.1549 36.8495 91.1097 36.8546 91.0638C36.849 91.1097 36.8439 91.1549 36.84 91.2008ZM36.8747 90.909C36.8808 90.8654 36.887 90.8218 36.8943 90.7782C36.8875 90.8218 36.8808 90.8654 36.8747 90.909ZM36.8965 90.7648C36.9038 90.7178 36.9116 90.6715 36.92 90.6251C36.9116 90.6715 36.9038 90.7184 36.8965 90.7648Z" fill="#494994"/>
<path d="M101.676 117.746C103.446 117.797 105.223 117.813 107.004 117.793C107.318 117.897 107.631 117.999 107.945 118.101C105.855 118.034 103.764 117.916 101.676 117.746ZM153.087 71.4582L153.111 70.9009L153.873 70.7773L153.088 71.4582H153.087Z" fill="#878CB9"/>
<path d="M188.491 50.0527L186.73 63.6394L98.3163 77.9443L16.4692 41.5738L18.2305 27.9866L188.491 50.0527Z" fill="#6157A4"/>
<path d="M181.222 62.7087L182.501 52.8402L186.397 52.2097L185.119 62.0776L181.222 62.7087Z" fill="#BBB7D8"/>
<path d="M97.3392 75.2295C96.6176 75.068 95.906 74.8511 95.2118 74.5795C95.9066 74.8511 96.6176 75.0685 97.3392 75.2295ZM19.7045 30.6071L17.9896 29.8452L16.4698 41.5739L41.1373 52.5351L42.8187 53.2825L44.5006 54.0298L50.7302 56.7983L50.9717 54.937L52.2506 45.0685L19.7051 30.6065V30.6071H19.7045ZM42.6331 51.2316L41.5102 50.7325L18.4256 40.4739L42.6331 51.2311V51.2316ZM94.7652 74.3967L94.744 74.3872L94.7535 74.3916L94.7652 74.3967ZM94.5986 74.324L54.9733 56.715L56.2522 46.8466L96.7428 64.8379C97.7545 65.2873 98.8149 65.5841 99.897 65.7244L98.6355 75.4598L98.3252 77.8522L98.3135 77.9438L97.9373 77.7767L54.7318 58.5775L54.9733 56.7162L94.5986 74.3246V74.324Z" fill="#494994"/>
<path d="M188.489 50.0494L100.077 64.3498L18.2311 27.9838L107.709 5.46436L188.489 50.0494Z" fill="#6157A4"/>
<path d="M97.7752 63.3259L18.2322 27.9845L78.799 12.7366C52.9431 27.2768 65.0939 44.5555 97.7752 63.3259Z" fill="#6157A4"/>
<path d="M100.36 62.156C99.6209 62.0599 98.8954 61.857 98.2039 61.5496L94.782 60.0297L167.37 48.2882C169.9 47.879 170.485 44.5074 168.243 43.2676L104.55 8.11564C105.489 7.88814 106.449 7.83504 107.387 7.95634C108.343 8.08043 109.278 8.38506 110.143 8.86409L183.057 49.1076L102.602 62.1203C101.855 62.241 101.102 62.2527 100.362 62.1566L100.36 62.156Z" fill="#BBB7D8"/>
<path d="M114.938 33.1649C114.604 35.7423 109.569 37.2185 103.692 36.4566C97.8149 35.6947 93.322 32.9843 93.6562 30.4064C93.991 27.8229 99.0256 26.35 104.904 27.1119C110.78 27.8732 115.273 30.5814 114.938 33.1649Z" fill="#102770"/>
<path d="M45.362 114.545C44.2127 114.396 43.4017 113.343 43.5509 112.193L52.411 43.8253C52.5223 42.9673 53.1483 42.2658 53.989 42.0585L103.794 29.7457C104.919 29.4695 106.056 30.1554 106.335 31.2806C106.613 32.4058 105.926 33.5427 104.8 33.8222L56.3891 45.7884L47.7135 112.732C47.5643 113.883 46.5123 114.693 45.362 114.545Z" fill="#102770"/>
<path d="M39.2754 129.738L47.7303 130.834C49.8051 131.103 51.6123 129.418 51.4882 127.329L50.7257 114.488C50.6307 112.889 49.4128 111.584 47.8247 111.378L44.7409 110.979C43.21 110.78 41.7421 111.659 41.1938 113.104L36.5868 125.248C35.8216 127.263 37.1396 129.462 39.2765 129.738L39.2754 129.738Z" fill="#FEDC34"/>
<path d="M86.5071 56.3522L60.4634 44.7805L70.1586 42.3843C73.8701 46.9141 79.4228 51.5786 86.5071 56.3516V56.3522Z" fill="#494994"/>
<path d="M54.2131 42.0037L23.724 28.4573L73.9355 15.8186C68.3817 19.8336 65.493 24.037 64.9267 28.4131C64.4941 31.7496 65.4164 35.1855 67.5393 38.7092L54.2131 42.0037Z" fill="#494994"/>
<path d="M57.6194 45.4844L52.5753 43.2441C52.833 42.6622 53.3489 42.2173 53.989 42.0591L54.2131 42.0037L67.5393 38.7092C68.2715 39.9244 69.1469 41.1485 70.1592 42.385L60.464 44.7812L57.6194 45.485V45.4844Z" fill="#102770"/>
<path d="M158.554 168.705L148.627 160.602L156.648 150.77L164.255 156.976C162.67 161.059 160.76 164.98 158.554 168.705V168.705Z" fill="#FF5722"/>
<path d="M155.988 157.555L153.627 145.086L168.374 142.298C167.533 146.992 166.282 151.544 164.657 155.916L155.989 157.555H155.988Z" fill="#FF5722"/>
<path d="M177.507 82.3167C177.507 82.3167 184.961 85.2294 193.369 94.9089C177.745 115.826 166.957 138.41 161.68 162.893C159.172 168.064 156.12 172.923 152.601 177.397L153.087 136.342L177.507 82.3167H177.507Z" fill="white"/>
<path d="M175.593 119.618C178.517 111.303 181.705 102.99 185.142 94.7379C185.451 94.1918 185.687 93.6099 185.842 92.9978C186.086 92.0353 186.124 91.0482 185.961 90.0532C187.117 91.0443 188.336 92.1784 189.592 93.4702C190.443 94.3416 190.543 95.6887 189.833 96.673C184.454 104.132 179.702 111.795 175.593 119.618Z" fill="#B7BED4"/>
<path d="M163.146 97.3565C152.913 94.7579 145.697 88.3896 147.031 83.136C148.367 77.8778 157.748 75.7275 167.981 78.3261C178.212 80.9264 185.428 87.2941 184.091 92.5522C183.211 96.0217 178.812 98.1413 172.978 98.4252C169.984 98.5734 166.611 98.2363 163.146 97.3559V97.3565Z" fill="white"/>
<path d="M172.613 96.6351L174.487 92.2142C174.485 92.2131 174.485 92.2126 174.485 92.212L175.755 89.2115C172.001 86.031 167.087 84.2412 162.325 83.6241C157.061 82.9422 151.983 83.6929 148.87 85.5794C148.66 84.87 148.625 84.1959 148.782 83.5816C148.863 83.2625 148.997 82.9528 149.181 82.656C152.217 80.6661 157.302 79.883 163.024 80.6247C164.431 80.807 165.878 81.0808 167.342 81.4537C174.389 83.2463 180.008 86.8275 182.382 90.6011C182.476 91.1293 182.463 91.6352 182.344 92.1097C181.709 94.6021 178 96.3751 172.889 96.6239C172.798 96.6295 172.706 96.6323 172.614 96.6362L172.613 96.6351Z" fill="#B7BED4"/>
<path d="M147.031 83.136C146.98 83.5865 146.928 84.037 146.873 84.4792C146.867 84.027 146.92 83.5764 147.031 83.136Z" fill="white"/>
<path d="M184.091 92.5527C183.971 93.0306 183.781 93.4856 183.53 93.9132C183.714 93.4627 183.904 93.0083 184.091 92.5527Z" fill="white"/>
<path d="M147.348 86.7458C152.203 81.9409 167.083 81.8621 175.755 89.2108L171.838 98.4588C162.158 98.8478 153.991 94.9508 147.348 86.7458H147.348Z" fill="white"/>
<path d="M172.611 96.6345L174.485 92.2114C174.485 92.2125 174.485 92.2125 174.487 92.2137L172.613 96.6345C172.612 96.6345 172.612 96.6345 172.611 96.6339V96.6345Z" fill="#8590B6"/>
<path d="M167.687 96.3935C166.333 96.218 164.958 95.9542 163.59 95.6076C156.987 93.9296 152.253 90.8352 150.055 87.8828C153.118 86.7487 157.207 86.3781 161.416 86.9236C166.026 87.5211 170.779 89.2176 174.485 92.2119L172.611 96.635C171.038 96.6965 169.379 96.6132 167.687 96.3941V96.3935Z" fill="#B7BED4"/>
<path d="M117.726 202.87C120.841 195.347 123.746 187.476 126.434 179.361C132.842 159.999 138.018 139.241 141.838 118.428C143.265 110.673 144.495 102.911 145.534 95.2096C146.017 91.6534 146.46 88.0806 146.871 84.4797C146.928 89.4293 153.773 94.977 163.143 97.356C166.607 98.238 169.982 98.5762 172.977 98.4236C178.003 98.1793 181.968 96.5762 183.53 93.9117C179.191 104.318 175.176 114.992 171.568 125.779C167.126 139.035 163.289 152.467 160.195 165.797C151.077 182.78 135.985 196.076 117.726 202.87H117.726Z" fill="white"/>
<path d="M120.046 201.964C125.276 189.121 130.002 175.087 134.109 160.289C134.371 160.427 134.634 160.562 134.898 160.695C134.9 160.695 134.901 160.696 134.903 160.697C134.92 160.705 134.937 160.714 134.953 160.723C134.958 160.725 134.964 160.728 134.97 160.73C134.979 160.735 134.99 160.74 134.999 160.746C135.014 160.753 135.03 160.76 135.045 160.768C135.048 160.771 135.054 160.772 135.057 160.775C135.069 160.781 135.08 160.786 135.091 160.791C135.093 160.791 135.093 160.791 135.092 160.792C135.441 160.965 135.793 161.134 136.145 161.298C136.148 161.298 136.149 161.3 136.152 161.301C136.17 161.31 136.19 161.319 136.209 161.328C136.214 161.33 136.217 161.332 136.223 161.334C136.231 161.338 136.24 161.342 136.247 161.345C136.259 161.351 136.269 161.356 136.281 161.361C136.285 161.364 136.289 161.365 136.294 161.368C136.312 161.375 136.328 161.383 136.346 161.391C136.348 161.392 136.351 161.394 136.352 161.394C137.278 161.819 138.215 162.215 139.166 162.583C139.158 162.581 139.151 162.579 139.145 162.578C143.309 164.19 147.727 165.261 152.367 165.862C154.282 166.11 156.233 166.279 158.22 166.372C157.874 167.884 157.537 169.392 157.21 170.896C155.404 173.734 153.424 176.451 151.284 179.03C147.853 176.031 144.407 174.309 140.947 173.861C140.312 173.779 139.677 173.739 139.042 173.742C136.999 173.754 135.204 175.117 134.584 177.064C134.105 178.574 133.618 180.076 133.124 181.57C131.18 187.436 129.123 193.175 126.956 198.748C124.713 199.926 122.409 201.001 120.046 201.966V201.964ZM144.324 144.145C144.066 144.054 142.76 143.594 142.504 143.502C142.512 143.503 142.52 143.507 142.527 143.509C141.873 143.272 141.223 143.028 140.575 142.774C140.566 142.771 140.558 142.767 140.551 142.764C140.55 142.764 140.55 142.764 140.55 142.764C139.954 142.532 139.36 142.291 138.767 142.044C142.298 126.95 145.187 111.286 147.325 95.451C147.527 93.9597 147.723 92.4505 147.914 90.9346C149.134 92.3258 150.708 93.645 152.565 94.8316C152.454 95.6947 152.339 96.5549 152.222 97.4157C151.185 105.118 149.954 112.879 148.527 120.633C148.456 121.019 148.385 121.404 148.313 121.789C147.908 123.956 148.935 126.165 150.889 127.182C152.647 128.095 154.541 128.708 156.593 128.974C160.286 129.452 164.492 128.811 169.328 126.791C166.962 133.944 164.791 141.088 162.829 148.178C162.519 148.146 162.209 148.112 161.9 148.076C161.628 148.045 161.355 148.013 161.083 147.979C160.967 147.964 160.852 147.95 160.735 147.935C160.353 147.885 159.971 147.832 159.589 147.776L144.323 144.144L144.324 144.145ZM144.373 144.161L144.593 144.235C149.546 145.912 154.401 147.038 159.59 147.777V147.779L144.373 144.161Z" fill="#B7BED4"/>
<path d="M132.52 159.417L137.113 141.338C145.927 145.229 155.136 147.569 164.739 148.357L160.145 166.436C149.947 166.207 140.637 164.084 132.52 159.417Z" fill="#FF5722"/>
<path d="M142.528 143.509C142.52 143.507 142.512 143.503 142.504 143.502C141.859 143.267 141.216 143.025 140.575 142.774C141.223 143.028 141.874 143.272 142.528 143.509ZM140.551 142.765H140.55C140.55 142.765 140.55 142.765 140.551 142.765Z" fill="#E0E3EC"/>
<path d="M152.367 165.861C147.728 165.26 143.308 164.189 139.145 162.577C139.151 162.578 139.158 162.581 139.165 162.582C143.325 164.19 147.737 165.26 152.368 165.86C154.282 166.108 156.234 166.277 158.221 166.369L158.22 166.37C156.233 166.278 154.281 166.109 152.367 165.861V165.861ZM161.901 148.077C162.211 148.112 162.52 148.146 162.83 148.178V148.179C162.521 148.146 162.211 148.112 161.901 148.077Z" fill="#E0E3EC"/>
<path d="M158.22 166.371L158.221 166.369C158.858 166.399 159.5 166.422 160.145 166.436L164.739 148.358C164.1 148.305 163.464 148.246 162.83 148.18V148.179C163.464 148.245 164.1 148.304 164.739 148.357L160.145 166.439C159.5 166.425 158.857 166.403 158.22 166.372L158.22 166.371Z" fill="#98A2C1"/>
<path d="M160.661 147.926C160.303 147.879 159.946 147.831 159.59 147.779V147.778C159.972 147.833 160.354 147.886 160.736 147.936C160.853 147.951 160.969 147.965 161.084 147.98C160.943 147.963 160.802 147.945 160.661 147.926V147.926Z" fill="#E0E3EC"/>
<path d="M152.369 165.86C147.737 165.26 143.325 164.19 139.166 162.582C139.167 162.582 139.169 162.584 139.171 162.584C142.005 163.678 144.956 164.522 148.014 165.136C146.875 164.735 145.753 164.295 144.652 163.814C145.587 163.978 146.531 164.122 147.484 164.245C150.013 164.573 152.606 164.762 155.259 164.823L159.591 147.779C159.947 147.83 160.304 147.879 160.661 147.925C160.803 147.944 160.944 147.962 161.084 147.979C161.357 148.013 161.629 148.045 161.901 148.076C162.211 148.112 162.52 148.145 162.83 148.178C163.464 148.244 164.101 148.304 164.739 148.356L160.145 166.435C159.501 166.42 158.859 166.398 158.222 166.368C156.235 166.276 154.283 166.107 152.369 165.859V165.86Z" fill="#FFB7A0"/>
<path d="M136.353 161.393C136.351 161.393 136.349 161.392 136.346 161.39C136.349 161.392 136.351 161.393 136.353 161.393ZM136.294 161.367C136.289 161.365 136.285 161.363 136.282 161.36C136.285 161.363 136.29 161.365 136.294 161.367ZM136.209 161.328C136.19 161.319 136.171 161.31 136.152 161.3C136.171 161.31 136.19 161.318 136.209 161.328ZM136.145 161.298C135.793 161.134 135.441 160.965 135.091 160.793C135.441 160.965 135.792 161.135 136.145 161.298ZM135.09 160.791C135.08 160.785 135.069 160.781 135.057 160.775C135.069 160.781 135.08 160.786 135.09 160.791ZM135.045 160.768C135.029 160.76 135.014 160.753 134.999 160.746C135.014 160.753 135.029 160.761 135.045 160.768ZM134.969 160.73C134.963 160.728 134.958 160.725 134.953 160.723C134.958 160.725 134.964 160.728 134.969 160.73Z" fill="#8590B6"/>
<path d="M135.047 149.47L137.114 141.334L137.093 141.419L135.047 149.47Z" fill="#102770"/>
<path d="M144.373 144.162C143.727 143.943 143.084 143.718 142.442 143.484C142.463 143.489 142.483 143.495 142.504 143.502C142.76 143.594 143.017 143.687 143.275 143.778C143.641 143.906 144.007 144.034 144.374 144.157L144.373 144.162ZM140.575 142.774C140.566 142.772 140.559 142.768 140.551 142.765C140.559 142.768 140.566 142.771 140.575 142.774ZM140.55 142.765C139.954 142.532 139.36 142.293 138.767 142.045C139.36 142.291 139.955 142.532 140.55 142.765Z" fill="#8590B6"/>
<path d="M138.768 142.045C138.216 141.814 137.664 141.577 137.114 141.335C137.663 141.577 138.216 141.814 138.768 142.045Z" fill="#102770"/>
<path d="M144.651 163.815C142.786 163.488 140.957 163.08 139.171 162.585C138.218 162.216 137.278 161.82 136.353 161.394C136.351 161.394 136.349 161.392 136.346 161.391C136.328 161.383 136.312 161.376 136.294 161.367C136.29 161.366 136.285 161.364 136.282 161.361C136.27 161.357 136.258 161.35 136.247 161.345C136.24 161.341 136.231 161.337 136.223 161.334C136.218 161.331 136.214 161.33 136.209 161.329C136.19 161.319 136.171 161.311 136.152 161.301C136.15 161.301 136.147 161.299 136.145 161.299C135.793 161.135 135.441 160.965 135.091 160.793C135.091 160.793 135.091 160.792 135.09 160.792C135.08 160.786 135.069 160.782 135.057 160.776C135.052 160.774 135.048 160.772 135.045 160.77C135.029 160.762 135.014 160.755 134.999 160.748C134.989 160.742 134.979 160.738 134.969 160.732C134.964 160.729 134.958 160.728 134.953 160.725C134.936 160.717 134.92 160.708 134.903 160.699C134.9 160.699 134.9 160.698 134.898 160.698C134.095 160.295 133.302 159.868 132.519 159.419L135.046 149.472L137.093 141.421L137.029 141.67C138.814 142.34 140.622 142.946 142.442 143.486C143.083 143.72 143.727 143.945 144.372 144.164L139.977 161.465C141.492 162.338 143.051 163.121 144.65 163.817L144.651 163.815Z" fill="#B7493A"/>
<path d="M142.505 143.502C142.484 143.496 142.464 143.49 142.443 143.484C141.21 143.034 139.985 142.556 138.767 142.048L138.768 142.045C139.36 142.292 139.956 142.532 140.551 142.765H140.552C140.559 142.768 140.567 142.772 140.575 142.775C141.217 143.026 141.859 143.268 142.505 143.503V143.502Z" fill="#A1AAC7"/>
<path d="M138.767 142.048C138.214 141.817 137.663 141.58 137.113 141.338L137.093 141.418L137.114 141.334C137.664 141.577 138.215 141.813 138.768 142.044L138.767 142.047V142.048Z" fill="#6F7DA9"/>
<path d="M142.443 143.484C140.622 142.944 138.815 142.338 137.03 141.668L137.094 141.418L137.114 141.338C137.663 141.58 138.214 141.817 138.768 142.048C139.986 142.556 141.211 143.034 142.443 143.484H142.443Z" fill="#B78C92"/>
<path d="M148.014 165.137C144.955 164.522 142.004 163.678 139.171 162.584C140.957 163.08 142.786 163.488 144.651 163.815C145.753 164.296 146.874 164.736 148.013 165.137H148.014Z" fill="#B78C92"/>
<path d="M144.374 144.157C144.007 144.034 143.641 143.906 143.275 143.778C143.641 143.906 144.008 144.032 144.375 144.155V144.157H144.374Z" fill="#A1AAC7"/>
<path fill-rule="evenodd" clip-rule="evenodd" d="M38.774 123.579C38.0088 125.593 39.3269 127.792 41.4638 128.069L49.9186 129.165C50.3255 129.217 50.7224 129.195 51.0963 129.109C50.4664 130.274 49.1618 131.019 47.7303 130.834L39.2754 129.738C37.1391 129.461 35.821 127.262 36.5863 125.248L38.8132 119.377L41.1932 113.103C41.5979 112.038 42.5023 111.28 43.5632 111.035C43.4945 111.163 43.4341 111.296 43.3816 111.434L40.4839 119.072L38.7746 123.579H38.774Z" fill="#FAA933"/>
<path fill-rule="evenodd" clip-rule="evenodd" d="M50.7252 128.462L50.2618 118.273L50.0947 114.602C50.0338 113.262 49.2937 112.121 48.2227 111.58C48.0316 111.484 47.8303 111.407 47.6202 111.351L47.8242 111.378C47.9656 111.396 48.1037 111.423 48.2389 111.459C49.6201 111.819 50.6386 113.031 50.7252 114.488L50.9689 118.59L51.4876 127.328C51.5262 127.976 51.3792 128.585 51.0958 129.108C50.9639 129.139 50.8297 129.161 50.6928 129.175C50.7246 128.944 50.7358 128.705 50.7246 128.462H50.7252Z" fill="#FFF0A8"/>
<path fill-rule="evenodd" clip-rule="evenodd" d="M62.0017 125.337C64.2174 128.298 69.399 127.986 71.1351 131.251C71.3978 131.747 71.5532 132.285 71.6879 132.831C71.8701 133.349 71.9864 133.868 72.0825 134.359C72.1429 134.547 72.2106 134.731 72.2899 134.911C73.2267 137.046 75.8242 138.164 78.0433 137.595C77.9857 137.589 77.9282 137.582 77.8712 137.575C75.9863 137.331 74.2575 136.18 73.5722 134.426C73.0518 133.104 73.0881 131.577 72.4693 130.297C70.6768 126.618 64.7367 126.964 62.3823 123.618C62.2214 123.392 62.0838 123.152 61.9659 122.903C61.5696 122.055 61.4181 121.092 61.4813 120.122C61.4528 120.167 61.4243 120.213 61.3963 120.259C61.0777 121.176 60.9704 122.176 61.1096 123.126C61.2264 123.924 61.5165 124.686 62.0022 125.336L62.0017 125.337Z" fill="#30A57C"/>
<path fill-rule="evenodd" clip-rule="evenodd" d="M73.869 117.994C76.3329 119.443 78.1937 123.02 79.3451 125.722C79.4323 125.927 79.5162 126.127 79.5944 126.321C80.5994 128.801 81.2109 131.44 81.3719 134.111C81.4792 133.773 81.5653 133.425 81.6324 133.074C81.7531 132.443 81.813 131.802 81.8269 131.188C81.8957 128.333 81.3479 125.472 80.2752 122.829C79.5642 121.077 78.4519 118.723 76.9941 117.082C76.7638 117.02 76.5341 116.958 76.3038 116.895C73.8159 116.214 71.3246 115.461 68.8272 114.638C68.7701 114.619 68.7131 114.6 68.6561 114.581C67.8574 114.725 67.0966 114.946 66.4275 115.232C66.181 115.337 65.9468 115.452 65.7283 115.574C64.7574 116.118 63.8384 116.79 63.0732 117.594C65.0061 116.675 67.7221 116.247 70.1161 116.557C71.5689 116.745 72.9031 117.206 73.869 117.993V117.994Z" fill="#ACF0C9"/>
<path fill-rule="evenodd" clip-rule="evenodd" d="M61.8686 122.682C61.5444 121.889 61.4231 121.01 61.4807 120.123C61.4522 120.168 61.4237 120.214 61.3958 120.26C61.0772 121.177 60.9698 122.177 61.109 123.126C61.3494 122.965 61.6037 122.817 61.8686 122.681V122.682Z" fill="#287D7A"/>
<path fill-rule="evenodd" clip-rule="evenodd" d="M61.4807 120.123C61.4232 121.01 61.5444 121.89 61.8686 122.683C66.3767 120.372 74.2245 121.614 78.8242 124.552C77.6649 122.067 75.9908 119.242 73.8696 117.994C72.9037 117.208 71.5694 116.746 70.1167 116.558C67.7232 116.248 65.0067 116.677 63.0738 117.595C62.564 118.13 62.123 118.725 61.7803 119.378C61.7239 119.486 61.6702 119.596 61.6188 119.706C61.5355 119.887 61.4612 120.072 61.3958 120.26C61.4237 120.214 61.4522 120.168 61.4807 120.123Z" fill="#31A67C"/>
<path fill-rule="evenodd" clip-rule="evenodd" d="M73.869 117.993C75.9902 119.242 77.6643 122.066 78.8236 124.552C79.9253 125.256 80.8404 126.057 81.4787 126.929C81.216 125.527 80.8113 124.15 80.2752 122.829C79.5642 121.077 78.4519 118.723 76.9941 117.082C76.495 116.52 75.9562 116.042 75.3787 115.7C73.793 114.41 71.0552 114.148 68.6556 114.581C67.8568 114.725 67.0961 114.946 66.427 115.232C66.1805 115.337 65.9463 115.452 65.7277 115.574C64.7568 116.118 63.8379 116.79 63.0726 117.594C65.0055 116.675 67.7215 116.247 70.1156 116.557C71.5683 116.745 72.9025 117.206 73.8684 117.993L73.869 117.993Z" fill="#81AFAD"/>
<path fill-rule="evenodd" clip-rule="evenodd" d="M156.759 70.3101L158.573 70.0167L158.649 68.1827L156.836 68.4762L100.548 77.5833C98.93 77.7996 97.6316 77.5939 96.2123 77.0093L54.7324 58.577L54.4915 60.4377L91.3812 76.8304L93.1381 77.6113C94.7529 78.3284 96.446 78.8024 98.1737 79.0266C98.1749 79.0266 98.1754 79.0266 98.1765 79.0271C99.8193 79.2401 101.492 79.2272 103.152 78.9824C103.238 78.9701 103.324 78.9567 103.41 78.9427L153.111 70.9015L153.872 70.7785L156.759 70.3118V70.3101ZM44.5 54.0298L42.8181 53.2825L42.4442 55.084L44.1272 55.8313L46.9969 57.1069L50.4893 58.6586L50.7302 56.7978L44.5006 54.0292L44.5 54.0298Z" fill="#32328A"/>
<path fill-rule="evenodd" clip-rule="evenodd" d="M98.6081 198.428C57.5395 198.428 24.2466 165.135 24.2466 124.067C24.2466 93.9128 42.1943 67.9507 67.9898 56.2812C37.2039 65.6724 14.808 94.3001 14.808 128.159C14.808 169.656 48.4474 203.295 89.9436 203.295C105.284 203.295 119.551 198.698 131.441 190.805C121.539 195.686 110.394 198.428 98.6075 198.428L98.6081 198.428Z" fill="#EC239B" fill-opacity="0.2"/>
</g>
<defs>
<radialGradient id="paint0_radial_71_11822" cx="0" cy="0" r="1" gradientUnits="userSpaceOnUse" gradientTransform="translate(89.9436 128.159) scale(51.1349)">
<stop stop-color="#EE249C"/>
<stop offset="0.890196" stop-color="#852172"/>
<stop offset="1" stop-color="#1C1E48"/>
</radialGradient>
<linearGradient id="paint1_linear_71_11822" x1="17.6006" y1="161.583" x2="162.287" y2="94.7339" gradientUnits="userSpaceOnUse">
<stop stop-color="#783CA1"/>
<stop offset="1" stop-color="#EE229B"/>
</linearGradient>
<clipPath id="clip0_71_11822">
<rect width="217" height="248.982" fill="white"/>
</clipPath>
</defs>
</svg>
