<svg width="380" height="238" viewBox="0 0 380 238" fill="none" xmlns="http://www.w3.org/2000/svg">
<g clip-path="url(#clip0_214_14649)">
<path fill-rule="evenodd" clip-rule="evenodd" d="M14.9285 47.7358H365.073C373.292 47.7358 380.001 54.8355 380.001 63.5381V221.679C380.001 230.38 373.294 237.482 365.073 237.482H14.9285C6.70917 237.482 0.000854492 230.38 0.000854492 221.679V63.5381C0.000854492 54.8372 6.70754 47.7358 14.9285 47.7358Z" fill="white"/>
<path d="M353.366 53.0964H26.6355C14.7231 53.0964 5.06628 54.1637 5.06628 55.4802V229.734C5.06628 231.051 14.7231 232.118 26.6355 232.118H353.366C365.279 232.118 374.935 231.051 374.935 229.734V55.4802C374.935 54.1637 365.279 53.0964 353.366 53.0964Z" fill="#F35C6F"/>
<path fill-rule="evenodd" clip-rule="evenodd" d="M21.1044 108.754V74.7401C21.1044 72.1736 23.0859 70.0759 25.5104 70.0759H186.175C186.64 70.0759 187.018 70.4775 187.018 70.9705C187.018 71.4634 186.639 71.8633 186.175 71.8633H25.5104C24.0173 71.8633 22.7928 73.1595 22.7928 74.7401V108.754C22.7928 109.247 22.4135 109.647 21.9494 109.647C21.4837 109.647 21.106 109.245 21.106 108.754H21.1044ZM201.656 70.0759H210.872C211.337 70.0759 211.715 70.4775 211.715 70.9705C211.715 71.4634 211.336 71.8633 210.872 71.8633H201.656C201.19 71.8633 200.811 71.4617 200.811 70.9705C200.811 70.4775 201.19 70.0759 201.656 70.0759ZM186.106 215.142H25.5104C23.0859 215.142 21.1044 213.044 21.1044 210.478V201.094C21.1044 200.601 21.4837 200.2 21.9478 200.2C22.4135 200.2 22.7912 200.601 22.7912 201.094V210.478C22.7912 212.058 24.0156 213.354 25.5087 213.354H186.105C186.57 213.354 186.948 213.756 186.948 214.247C186.948 214.74 186.569 215.142 186.105 215.142H186.106Z" fill="white"/>
<path d="M59.0047 183.46H21.1044V190.652H59.0047V183.46Z" fill="#F0485E"/>
<path d="M57.738 181.672H19.8376V188.865H57.738V181.672Z" fill="white"/>
<path d="M30.5579 138.818C30.5579 138.18 30.343 137.687 29.9196 137.332C29.493 136.977 28.7473 136.61 27.6825 136.23C26.6143 135.851 25.7449 135.482 25.0659 135.129C22.8613 133.981 21.7589 132.406 21.7589 130.401C21.7589 129.405 22.0309 128.522 22.5812 127.759C23.1315 126.995 23.9098 126.404 24.9145 125.977C25.9158 125.551 27.0474 125.339 28.2996 125.339C29.524 125.339 30.6214 125.572 31.5902 126.032C32.559 126.492 33.3129 127.15 33.8518 128.004C34.3908 128.857 34.6578 129.832 34.6578 130.925H30.5693C30.5693 130.191 30.3544 129.62 29.931 129.215C29.5044 128.81 28.9297 128.607 28.2084 128.607C27.474 128.607 26.896 128.779 26.4727 129.122C26.0461 129.464 25.8344 129.903 25.8344 130.43C25.8344 130.894 26.0705 131.313 26.5362 131.689C27.0019 132.064 27.8241 132.452 29.0013 132.854C30.1785 133.256 31.1424 133.69 31.8963 134.15C33.7346 135.274 34.6562 136.818 34.6562 138.794C34.6562 140.369 34.0944 141.605 32.9726 142.504C31.8524 143.404 30.312 143.856 28.3582 143.856C26.9774 143.856 25.7302 143.594 24.6132 143.07C23.4963 142.546 22.6545 141.829 22.0878 140.917C21.5212 140.005 21.2428 138.954 21.2428 137.768H25.3541C25.3541 138.73 25.5902 139.445 26.0607 139.9C26.5313 140.36 27.2966 140.588 28.3582 140.588C29.0355 140.588 29.5696 140.431 29.9652 140.124C30.356 139.816 30.5547 139.381 30.5547 138.819L30.5579 138.818Z" fill="#F0485E"/>
<path d="M42.1476 125.591L45.9446 138.121L49.7286 125.591H55.1295V143.601H51.0166V139.395L51.4122 130.787L47.2993 143.601H44.5883L40.464 130.775L40.8629 139.395V143.601H36.7598V125.591H42.1476Z" fill="#F0485E"/>
<path d="M67.6083 140.231H61.9893L61.0075 143.601H56.6243L62.8653 125.591H66.7177L73.0075 143.601H68.5999L67.6067 140.231H67.6083ZM62.9695 136.887H66.6265L64.7915 130.634L62.9695 136.887Z" fill="#F0485E"/>
<path d="M75.4124 145.147H72.6216L78.4279 125.591H81.2317L75.4124 145.147Z" fill="#F0485E"/>
<path d="M88.0313 125.591L91.8283 138.121L95.6139 125.591H101.013V143.601H96.9019V139.395L97.2959 130.787L93.1846 143.601H90.472L86.3493 130.775L86.7466 139.395V143.601H82.6434V125.591H88.0313Z" fill="#F0485E"/>
<path d="M113.492 140.231H107.873L106.891 143.601H102.508L108.749 125.591H112.601L118.891 143.601H114.483L113.49 140.231H113.492ZM108.853 136.887H112.51L110.675 130.634L108.853 136.887Z" fill="#F0485E"/>
<path d="M121.298 145.147H118.505L124.311 125.591H127.115L121.298 145.147Z" fill="#F0485E"/>
<path d="M30.5579 169.219C30.5579 168.581 30.343 168.088 29.9196 167.733C29.493 167.378 28.7473 167.011 27.6825 166.632C26.6143 166.253 25.7449 165.884 25.0659 165.53C22.8613 164.383 21.7589 162.807 21.7589 160.803C21.7589 159.806 22.0309 158.924 22.5812 158.16C23.1315 157.397 23.9098 156.805 24.9145 156.378C25.9158 155.952 27.0474 155.74 28.2996 155.74C29.524 155.74 30.6214 155.973 31.5902 156.433C32.559 156.893 33.3129 157.552 33.8518 158.405C34.3908 159.258 34.6578 160.234 34.6578 161.327H30.5693C30.5693 160.592 30.3544 160.022 29.931 159.617C29.5044 159.212 28.9297 159.008 28.2084 159.008C27.474 159.008 26.896 159.181 26.4727 159.524C26.0461 159.865 25.8344 160.304 25.8344 160.832C25.8344 161.295 26.0705 161.714 26.5362 162.09C27.0019 162.466 27.8241 162.854 29.0013 163.255C30.1785 163.657 31.1424 164.091 31.8963 164.551C33.7346 165.675 34.6562 167.22 34.6562 169.195C34.6562 170.77 34.0944 172.006 32.9726 172.906C31.8524 173.806 30.312 174.257 28.3582 174.257C26.9774 174.257 25.7302 173.995 24.6132 173.471C23.4963 172.947 22.6545 172.23 22.0878 171.318C21.5212 170.407 21.2428 169.355 21.2428 168.169H25.3541C25.3541 169.131 25.5902 169.846 26.0607 170.301C26.5313 170.762 27.2966 170.989 28.3582 170.989C29.0355 170.989 29.5696 170.832 29.9652 170.526C30.356 170.217 30.5547 169.783 30.5547 169.221L30.5579 169.219Z" fill="#F0485E"/>
<path d="M42.1476 155.992L45.9446 168.523L49.7286 155.992H55.1295V174.002H51.0166V169.798L51.4122 161.189L47.2993 174.002H44.5883L40.464 161.177L40.8629 169.798V174.002H36.7598V155.992H42.1476Z" fill="#F0485E"/>
<path d="M67.6083 170.634H61.9893L61.0075 174.004H56.6243L62.8653 155.994H66.7177L73.0075 174.004H68.5999L67.6067 170.634H67.6083ZM62.9695 167.29H66.6265L64.7915 161.037L62.9695 167.29Z" fill="#F0485E"/>
<path d="M78.3481 170.658H85.4863V174.002H74.245V155.992H78.3481V170.658Z" fill="#F0485E"/>
<path d="M87.2139 174.002V155.992H93.3246C95.5146 155.992 97.1819 156.414 98.3217 157.262C99.463 158.11 100.033 159.344 100.033 160.956C100.033 161.885 99.8294 162.683 99.4272 163.341C99.0202 164 98.4259 164.486 97.6411 164.798C98.5268 165.043 99.2091 165.508 99.6829 166.182C100.157 166.861 100.398 167.685 100.398 168.661C100.398 170.429 99.8717 171.755 98.8134 172.646C97.7567 173.532 96.1936 173.985 94.1225 174H87.2155L87.2139 174.002ZM91.3138 166.327V170.658H94.002C94.7444 170.658 95.3094 170.477 95.7083 170.119C96.1073 169.76 96.3027 169.254 96.3027 168.599C96.3027 167.092 95.6009 166.335 94.1892 166.327H91.3138ZM91.3138 163.49H93.4549C94.3488 163.481 94.987 163.309 95.3697 162.971C95.7523 162.633 95.9444 162.135 95.9444 161.477C95.9444 160.716 95.7377 160.172 95.3225 159.839C94.9121 159.506 94.2462 159.338 93.3246 159.338H91.3138V163.491V163.49Z" fill="#F0485E"/>
<path d="M29.2911 137.03C29.2911 136.393 29.0761 135.9 28.6528 135.545C28.2262 135.189 27.4805 134.822 26.4156 134.443C25.3475 134.064 24.478 133.695 23.799 133.342C21.5944 132.194 20.4921 130.618 20.4921 128.614C20.4921 127.618 20.764 126.735 21.3144 125.971C21.8647 125.208 22.643 124.617 23.6476 124.189C24.649 123.764 25.7806 123.552 27.0327 123.552C28.2571 123.552 29.3546 123.784 30.3234 124.244C31.2922 124.705 32.046 125.363 32.585 126.216C33.1239 127.069 33.391 128.045 33.391 129.138H29.3025C29.3025 128.404 29.0875 127.833 28.6642 127.428C28.2376 127.023 27.6628 126.82 26.9415 126.82C26.2072 126.82 25.6292 126.992 25.2058 127.335C24.7792 127.676 24.5676 128.116 24.5676 128.643C24.5676 129.107 24.8037 129.526 25.2693 129.901C25.735 130.277 26.5573 130.665 27.7345 131.067C28.9117 131.468 29.8756 131.902 30.6295 132.363C32.4677 133.487 33.3893 135.031 33.3893 137.006C33.3893 138.582 32.8276 139.817 31.7057 140.717C30.5855 141.617 29.0452 142.068 27.0913 142.068C25.7106 142.068 24.4634 141.806 23.3464 141.282C22.2294 140.759 21.3876 140.041 20.821 139.13C20.2544 138.218 19.976 137.166 19.976 135.981H24.0872C24.0872 136.942 24.3233 137.658 24.7939 138.113C25.2645 138.573 26.0297 138.8 27.0913 138.8C27.7687 138.8 28.3027 138.644 28.6984 138.337C29.0892 138.028 29.2878 137.594 29.2878 137.032L29.2911 137.03Z" fill="white"/>
<path d="M40.8809 123.803L44.6779 136.334L48.4619 123.803H53.8628V141.813H49.7515V137.609L50.1455 129L46.0342 141.813H43.3216L39.1973 128.988L39.5962 137.609V141.813H35.493V123.803H40.8809Z" fill="white"/>
<path d="M66.3415 138.445H60.7224L59.7406 141.815H55.3574L61.5984 123.805H65.4508L71.7407 141.815H67.3331L66.3398 138.445H66.3415ZM61.7026 135.102H65.3596L63.5246 128.848L61.7026 135.102Z" fill="white"/>
<path d="M74.1473 143.36H71.3549L77.1611 123.803H79.9649L74.1473 143.36Z" fill="white"/>
<path d="M86.7644 123.803L90.5614 136.334L94.3471 123.803H99.7463V141.813H95.635V137.609L96.0307 129L91.9178 141.813H89.2068L85.0824 128.988L85.4814 137.609V141.813H81.3766V123.803H86.7644Z" fill="white"/>
<path d="M112.227 138.445H106.608L105.626 141.815H101.243L107.484 123.805H111.336L117.626 141.815H113.218L112.225 138.445H112.227ZM107.588 135.102H111.245L109.41 128.848L107.588 135.102Z" fill="white"/>
<path d="M120.031 143.36H117.238L123.046 123.803H125.85L120.031 143.36Z" fill="white"/>
<path d="M29.2911 167.432C29.2911 166.794 29.0761 166.301 28.6528 165.946C28.2262 165.591 27.4805 165.224 26.4156 164.844C25.3475 164.465 24.478 164.096 23.799 163.743C21.5944 162.595 20.4921 161.02 20.4921 159.015C20.4921 158.019 20.764 157.136 21.3144 156.373C21.8647 155.609 22.643 155.018 23.6476 154.591C24.649 154.165 25.7806 153.953 27.0327 153.953C28.2571 153.953 29.3546 154.186 30.3234 154.646C31.2922 155.106 32.046 155.764 32.585 156.618C33.1239 157.471 33.391 158.446 33.391 159.539H29.3025C29.3025 158.805 29.0875 158.234 28.6642 157.829C28.2376 157.424 27.6628 157.221 26.9415 157.221C26.2072 157.221 25.6292 157.393 25.2058 157.736C24.7792 158.078 24.5676 158.517 24.5676 159.044C24.5676 159.508 24.8037 159.927 25.2693 160.303C25.735 160.678 26.5573 161.066 27.7345 161.468C28.9117 161.87 29.8756 162.304 30.6295 162.764C32.4677 163.888 33.3893 165.432 33.3893 167.408C33.3893 168.983 32.8276 170.219 31.7057 171.119C30.5855 172.018 29.0452 172.47 27.0913 172.47C25.7106 172.47 24.4634 172.208 23.3464 171.684C22.2294 171.16 21.3876 170.443 20.821 169.531C20.2544 168.619 19.976 167.568 19.976 166.382H24.0872C24.0872 167.344 24.3233 168.059 24.7939 168.514C25.2645 168.974 26.0297 169.202 27.0913 169.202C27.7687 169.202 28.3027 169.045 28.6984 168.738C29.0892 168.43 29.2878 167.995 29.2878 167.433L29.2911 167.432Z" fill="white"/>
<path d="M40.8809 154.205L44.6779 166.735L48.4619 154.205H53.8628V172.215H49.7515V168.011L50.1455 159.403L46.0342 172.215H43.3216L39.1973 159.389L39.5962 168.011V172.215H35.493V154.205H40.8809Z" fill="white"/>
<path d="M66.3415 168.847H60.7224L59.7406 172.217H55.3574L61.5984 154.206H65.4508L71.7407 172.217H67.3331L66.3398 168.847H66.3415ZM61.7026 165.503H65.3596L63.5246 159.25L61.7026 165.503Z" fill="white"/>
<path d="M77.0813 168.873H84.2211V172.215H72.9781V154.205H77.0813V168.873Z" fill="white"/>
<path d="M85.947 172.215V154.205H92.0578C94.2478 154.205 95.9151 154.627 97.0548 155.475C98.1962 156.323 98.7661 157.557 98.7661 159.169C98.7661 160.098 98.5626 160.896 98.1604 161.554C97.7533 162.213 97.159 162.699 96.3742 163.011C97.26 163.255 97.9422 163.721 98.416 164.395C98.8898 165.074 99.1308 165.898 99.1308 166.873C99.1308 168.642 98.6049 169.967 97.5466 170.858C96.4898 171.744 94.9267 172.198 92.8556 172.213H85.9487L85.947 172.215ZM90.0469 164.539V168.871H92.7351C93.4776 168.871 94.0426 168.69 94.4415 168.331C94.8404 167.973 95.0358 167.466 95.0358 166.811C95.0358 165.305 94.334 164.548 92.9224 164.539H90.0469ZM90.0469 161.702H92.188C93.0819 161.694 93.7202 161.521 94.1028 161.184C94.4855 160.846 94.6776 160.348 94.6776 159.689C94.6776 158.929 94.4708 158.384 94.0556 158.052C93.6453 157.719 92.9794 157.55 92.0578 157.55H90.0469V161.704V161.702Z" fill="white"/>
<path fill-rule="evenodd" clip-rule="evenodd" d="M266.038 135.364C269.926 134.067 273.526 132.435 276.999 129.912C278.258 128.998 279.744 119.339 280.965 114.01C288.815 114.01 296.663 114.01 304.513 114.01C305.734 119.339 307.221 128.998 308.479 129.912C311.952 132.433 315.552 134.067 319.44 135.364L292.916 147.427L266.036 135.364H266.038Z" fill="#FCD1C8"/>
<path d="M351.204 158.398C350.142 151.783 344.216 147.331 337.966 148.456C331.717 149.58 327.513 155.854 328.575 162.468C328.718 163.357 342.245 216.655 346.171 232.116H365.072C365.453 232.116 365.83 232.092 366.202 232.047L351.204 158.396V158.398Z" fill="#FCD1C8"/>
<path fill-rule="evenodd" clip-rule="evenodd" d="M370.38 219.941C370.736 222.59 341.638 231.161 340.902 228.936C337.338 218.157 331.888 201.184 328.173 190.463C324.512 179.902 319.623 148.753 331.214 142.107C335.075 139.893 341.851 144.857 349.662 148.262C357.142 151.521 368.151 203.37 370.38 219.941Z" fill="white"/>
<path d="M235.09 158.398C236.151 151.783 242.078 147.331 248.327 148.456C254.576 149.58 258.781 155.854 257.719 162.468C257.585 163.304 245.629 210.428 240.93 228.933C235.834 228.031 227.488 225.618 221.849 223.419L235.09 158.398ZM220.078 232.118L221.579 224.746C223.588 225.215 225.592 225.79 227.59 226.521C231.05 227.788 234.487 229.522 237.89 231.968C237.959 232.018 238.029 232.068 238.099 232.118H220.078Z" fill="#FCD1C8"/>
<path fill-rule="evenodd" clip-rule="evenodd" d="M215.914 219.941C215.558 222.59 244.656 231.161 245.392 228.936C248.956 218.157 254.406 201.184 258.121 190.463C261.781 179.902 266.671 148.753 255.08 142.107C251.219 139.893 244.442 144.857 236.632 148.262C229.152 151.521 218.143 203.37 215.914 219.941Z" fill="white"/>
<path fill-rule="evenodd" clip-rule="evenodd" d="M270.019 133.721C261.505 137.308 251.001 140.771 244.478 144.482C228.196 153.743 241.967 183.951 245.406 203.176L250.582 232.118H335.268L340.445 203.176C343.883 183.951 357.655 153.744 341.373 144.482C334.85 140.772 324.345 137.308 315.831 133.721L292.925 147.548L270.019 133.721Z" fill="white"/>
<path fill-rule="evenodd" clip-rule="evenodd" d="M283.302 232.118L290.03 159.993L286.369 152.142L292.925 147.548L299.107 152.142L295.448 159.993L302.176 232.118H283.302Z" fill="#93BFE8"/>
<path fill-rule="evenodd" clip-rule="evenodd" d="M289.982 159.822C291.817 159.255 293.659 159.265 295.494 159.822C295.584 159.849 295.636 159.948 295.61 160.042C295.584 160.137 295.491 160.191 295.401 160.165C293.628 159.627 291.85 159.617 290.077 160.165C289.987 160.192 289.894 160.139 289.868 160.044C289.842 159.949 289.893 159.851 289.982 159.824V159.822Z" fill="#86AED3"/>
<path fill-rule="evenodd" clip-rule="evenodd" d="M270.019 133.721C271.653 132.194 273.646 131.16 275.926 130.519L292.925 147.548L276.887 159.393C276.346 159.793 275.299 159.058 275.157 158.376C273.475 150.235 272.275 141.891 270.019 133.721Z" fill="white"/>
<path fill-rule="evenodd" clip-rule="evenodd" d="M315.831 133.721C314.196 132.194 312.203 131.16 309.923 130.519L292.925 147.548L308.963 159.393C309.503 159.793 310.55 159.058 310.692 158.376C312.374 150.235 313.574 141.891 315.831 133.721Z" fill="white"/>
<path fill-rule="evenodd" clip-rule="evenodd" d="M275.157 158.376C273.475 150.235 272.275 141.893 270.019 133.721C269.758 133.831 269.496 133.94 269.232 134.05C271.448 142.1 272.643 150.388 274.335 158.567C274.592 159.812 276.276 160.93 277.367 160.124L286.133 153.65L289.162 160.146L282.453 232.12H283.299H302.175H303.02L296.311 160.146L299.436 153.446L298.737 152.931L308.477 160.125C309.568 160.932 311.252 159.813 311.509 158.569C313.199 150.39 314.394 142.103 316.61 134.052C316.347 133.943 316.085 133.833 315.824 133.723C313.567 141.893 312.369 150.237 310.685 158.377C310.544 159.06 309.497 159.793 308.956 159.394L293.61 148.062L293.608 148.063L292.918 147.55L292.226 148.062L286.449 152.328L276.88 159.394C276.339 159.794 275.292 159.06 275.151 158.377L275.157 158.376ZM317.185 203.604C314.438 203.747 310.298 202.714 309.109 200.437C309.319 200.999 309.552 201.52 309.813 201.987C312.097 206.105 320.157 205.527 324.545 204.424C327.033 203.799 329.589 201.784 330.858 199.302C331.242 198.548 331.509 197.75 331.618 196.937C332.054 193.684 332.522 190.134 332.776 187.264C332.385 190.87 332.007 194.943 330.433 198.049C330.025 198.853 329.537 199.593 328.948 200.243C326.489 202.956 320.732 203.418 317.184 203.602L317.185 203.604ZM326.5 177.31L311.415 175.738C315.813 176.846 322.347 177.787 326.613 178.02C328.609 178.129 330.413 178.099 331.854 177.892L326.5 177.31ZM339.777 206.91L337.624 218.941C337.913 219.821 338.196 220.69 338.476 221.545L340.549 209.955L341.716 203.433C342.667 198.112 344.728 190.764 344.88 185.139C343.183 191.545 341.408 197.793 340.445 203.178L339.777 206.911V206.91ZM248.384 219.821L246.26 207.939L245.408 203.176C243.498 192.497 238.398 178.427 237.034 166.441C236.839 171.779 238.758 181.895 240.277 187.569C241.673 192.779 243.185 198.109 244.136 203.43L245.488 210.981L247.533 222.421C247.811 221.569 248.096 220.7 248.384 219.818V219.821ZM283.302 232.12L290.01 160.17C289.947 160.161 289.89 160.113 289.87 160.044C289.847 159.96 289.885 159.872 289.956 159.834L286.833 153.134L292.926 148.636L298.742 152.931L295.523 159.836C295.595 159.874 295.634 159.961 295.611 160.044C295.592 160.115 295.536 160.163 295.471 160.172L302.179 232.121" fill="black" fill-opacity="0.090196"/>
<path fill-rule="evenodd" clip-rule="evenodd" d="M358.704 226.521C360.701 225.79 362.706 225.213 364.715 224.746L364.445 223.42C358.808 225.62 350.46 228.033 345.364 228.934L346.171 232.118H348.193C348.262 232.068 348.332 232.018 348.4 231.968C351.805 229.522 355.242 227.788 358.7 226.521H358.704Z" fill="#F8A8A0"/>
<path fill-rule="evenodd" clip-rule="evenodd" d="M227.59 226.521C225.592 225.79 223.588 225.213 221.579 224.746L221.849 223.42C227.486 225.62 235.834 228.033 240.93 228.934L240.123 232.118H238.1C238.03 232.068 237.962 232.018 237.892 231.968C234.487 229.522 231.05 227.788 227.592 226.521H227.59Z" fill="#F8A8A0"/>
<path fill-rule="evenodd" clip-rule="evenodd" d="M323.706 78.6424C341.275 60.7046 342.828 103.377 323.43 96.2028C312.921 92.3212 323.706 78.6424 323.706 78.6424Z" fill="#FCD1C8"/>
<path fill-rule="evenodd" clip-rule="evenodd" d="M325.112 81.1711C337.103 68.9264 338.157 98.0471 324.921 93.1537C317.75 90.5028 325.112 81.1711 325.112 81.1711Z" fill="#F68B85"/>
<path fill-rule="evenodd" clip-rule="evenodd" d="M262.133 78.6424C244.565 60.7046 243.018 103.377 262.415 96.2028C272.923 92.3212 262.133 78.6424 262.133 78.6424Z" fill="#FCD1C8"/>
<path fill-rule="evenodd" clip-rule="evenodd" d="M260.731 81.1711C248.736 68.9264 247.681 98.0471 260.914 93.1537C268.094 90.5028 260.731 81.1711 260.731 81.1711Z" fill="#F68B85"/>
<path fill-rule="evenodd" clip-rule="evenodd" d="M292.92 25.8889C246.971 26.6732 253.731 56.3179 257.784 90.182C264.094 142.899 321.751 142.899 328.055 90.182C332.113 56.3179 338.873 26.6732 292.92 25.8889Z" fill="#FCD1C8"/>
<path fill-rule="evenodd" clip-rule="evenodd" d="M292.92 25.8889C283.139 26.0578 275.747 27.5315 270.206 30.0791L258.73 56.3748C258.73 56.3748 278.31 61.2371 306.786 56.8884C323.478 54.3391 311.039 38.6489 297.889 26.1026C296.3 25.9889 294.651 25.9165 292.92 25.8889Z" fill="#F68B85"/>
<path fill-rule="evenodd" clip-rule="evenodd" d="M327.969 90.9146C328.528 86.3263 329.76 76.9015 330.211 72.2029C333.246 40.6794 329.11 22.9553 292.92 22.9553C256.734 22.9553 252.59 40.6794 255.623 72.2029C256.078 76.9032 257.32 86.3263 257.874 90.9146C257.874 90.9146 260.316 85.0215 259.349 75.1261C262.828 70.0035 263.771 63.2779 263.511 55.3475C263.087 42.0135 283.468 41.4361 292.92 41.4361C302.381 41.4361 322.759 42.0135 322.329 55.3475C322.075 63.2779 323.016 70.0035 326.504 75.1261C325.528 85.0215 327.969 90.9146 327.969 90.9146Z" fill="#352236"/>
<path fill-rule="evenodd" clip-rule="evenodd" d="M318.361 20.4785C288.033 -21.0971 229.575 36.1101 253.767 37.0202C253.767 37.0202 242.125 56.1766 262.801 63.8795C262.924 63.9295 263.064 63.9502 263.195 63.9847C263.542 58.9706 266.116 54.5237 266.116 54.5237C266.116 54.5237 299.309 59.4981 322.327 55.3458C351.775 42.7685 321.709 -4.35897 318.361 20.4785Z" fill="#735974"/>
<path fill-rule="evenodd" clip-rule="evenodd" d="M303.559 56.973C310 56.8678 316.492 56.4025 322.327 55.3476C339.945 47.824 336.255 27.935 329.732 18.4895C329.897 18.9738 334.918 34.0418 325.848 39.5367C316.63 45.1282 305.465 38.2285 305.465 38.2285L303.923 48.3445C302.709 51.871 302.696 54.703 303.559 56.973Z" fill="#513B52"/>
<path fill-rule="evenodd" clip-rule="evenodd" d="M250.524 26.3045C246.697 32.0356 246.943 36.7618 253.767 37.0203C253.767 37.0203 258.333 28.921 265.675 25.0894C265.675 25.0894 255.772 30.636 250.524 26.3045Z" fill="#513B52"/>
<path fill-rule="evenodd" clip-rule="evenodd" d="M266.117 54.5237C266.637 54.6117 290.09 58.1175 311.239 56.6645C315.651 54.7237 316.174 36.8996 296.455 36.3326C276.74 35.7569 266.117 54.522 266.117 54.522V54.5237Z" fill="#352236"/>
<path fill-rule="evenodd" clip-rule="evenodd" d="M295.548 109.278C295.986 109.221 296.298 108.804 296.241 108.358C296.191 107.91 295.777 107.593 295.336 107.646C295.328 107.646 292.869 108.344 289.899 107.806C288.849 107.615 288.68 108.827 289.735 109.016C292.939 109.599 295.54 109.28 295.549 109.28L295.548 109.278Z" fill="#F68B85"/>
<path fill-rule="evenodd" clip-rule="evenodd" d="M301.102 104.874C301.566 104.717 301.799 104.245 301.639 103.814C301.479 103.388 300.962 103.166 300.506 103.316C300.488 103.323 293.439 105.769 284.389 103.511C283.266 103.232 283.084 104.262 284.197 104.543C292.452 107.208 301.082 104.881 301.1 104.874H301.102Z" fill="#F68B85"/>
<path d="M264.952 89.4462C264.784 89.4462 264.639 89.3325 264.593 89.1618C264.538 88.955 264.655 88.7344 264.851 88.681C265.258 88.5586 265.469 88.3345 265.469 88.3345C265.608 88.1794 265.847 88.1742 265.989 88.3259C266.132 88.4741 266.147 88.7189 266.002 88.874C265.969 88.9119 265.652 89.2549 265.048 89.4325C265.023 89.4462 264.984 89.4462 264.95 89.4462H264.952Z" fill="white"/>
<path d="M266.577 90.7837C266.467 90.7837 266.355 90.732 266.285 90.6268C266.158 90.4579 266.199 90.208 266.358 90.0839C266.611 89.884 266.707 89.6651 266.707 89.6651C266.79 89.472 267.005 89.3772 267.19 89.4634C267.373 89.5513 267.464 89.7719 267.386 89.9701C267.368 90.0132 267.218 90.3786 266.798 90.7079C266.736 90.7596 266.658 90.7837 266.575 90.7837H266.577Z" fill="white"/>
<path fill-rule="evenodd" clip-rule="evenodd" d="M275.052 75.976C269.838 74.4282 266.567 79.0354 266.595 83.5048C266.627 91.0336 275.607 92.2798 280.623 90.2769C287.324 87.607 281.314 77.8289 275.052 75.976Z" fill="white"/>
<path fill-rule="evenodd" clip-rule="evenodd" d="M275.924 89.9701C279.011 89.9701 281.529 87.2123 281.529 83.8305C281.529 80.447 279.011 77.6875 275.924 77.6875C272.837 77.6875 270.322 80.4453 270.322 83.8305C270.322 87.2123 272.837 89.9701 275.924 89.9701Z" fill="#4C466A"/>
<path fill-rule="evenodd" clip-rule="evenodd" d="M275.079 82.8807C275.955 82.8807 276.67 82.0965 276.67 81.1347C276.67 80.1729 275.955 79.3887 275.079 79.3887C274.2 79.3887 273.484 80.1729 273.484 81.1347C273.484 82.0965 274.2 82.8807 275.079 82.8807Z" fill="white"/>
<path fill-rule="evenodd" clip-rule="evenodd" d="M283.108 87.0985C283.085 87.1915 283.085 87.2674 283.113 87.3294C283.113 87.3673 283.113 87.3949 283.108 87.4277C282.979 87.9292 283.653 87.9792 283.78 87.4846C283.875 86.8933 283.911 86.3211 283.907 85.7695C283.999 80.7072 280.042 77.3151 276.795 75.757C271.403 73.1715 265.94 76.3275 266.041 82.3912C266.023 83.4064 266.16 84.5061 266.487 85.6834C266.617 86.1798 267.36 85.9747 267.228 85.4782C267.15 84.9456 267.088 84.1114 267.076 83.5719C267.192 73.7489 282.974 77.5685 283.126 86.7089C283.121 86.8382 283.118 86.9675 283.108 87.0985Z" fill="#4C466A"/>
<path d="M320.885 89.4461C320.854 89.4461 320.818 89.4461 320.785 89.4323C320.189 89.2548 319.87 88.9101 319.839 88.8739C319.698 88.7188 319.706 88.4688 319.847 88.3189C319.994 88.1741 320.233 88.181 320.37 88.3361C320.38 88.3447 320.588 88.5602 320.987 88.6826C321.183 88.736 321.303 88.9566 321.243 89.1634C321.194 89.3341 321.047 89.4479 320.883 89.4479L320.885 89.4461Z" fill="white"/>
<path d="M319.258 90.7837C319.18 90.7837 319.107 90.7595 319.038 90.7078C318.625 90.3786 318.475 90.0132 318.457 89.9701C318.374 89.7702 318.462 89.5427 318.656 89.4582C318.838 89.3789 319.054 89.4668 319.133 89.665C319.146 89.6771 319.237 89.8857 319.479 90.0839C319.644 90.2132 319.68 90.4579 319.558 90.6268C319.484 90.732 319.375 90.7837 319.258 90.7837Z" fill="white"/>
<path fill-rule="evenodd" clip-rule="evenodd" d="M310.781 75.976C316.01 74.4282 319.274 79.0354 319.248 83.5048C319.211 91.0336 310.236 92.2798 305.219 90.2769C298.522 87.607 304.531 77.8289 310.781 75.976Z" fill="white"/>
<path fill-rule="evenodd" clip-rule="evenodd" d="M309.91 89.9701C313.007 89.9701 315.521 87.2123 315.521 83.8305C315.521 80.447 313.006 77.6875 309.91 77.6875C306.83 77.6875 304.314 80.4453 304.314 83.8305C304.314 87.2123 306.828 89.9701 309.91 89.9701Z" fill="#4C466A"/>
<path fill-rule="evenodd" clip-rule="evenodd" d="M310.765 82.8807C311.643 82.8807 312.358 82.0965 312.358 81.1347C312.358 80.1729 311.643 79.3887 310.765 79.3887C309.886 79.3887 309.17 80.1729 309.17 81.1347C309.17 82.0965 309.886 82.8807 310.765 82.8807Z" fill="white"/>
<path fill-rule="evenodd" clip-rule="evenodd" d="M302.731 87.0985C302.759 87.1915 302.754 87.2674 302.731 87.3294C302.731 87.3673 302.731 87.3949 302.731 87.4277C302.858 87.9292 302.189 87.9792 302.064 87.4846C301.973 86.8933 301.93 86.3211 301.94 85.7695C301.849 80.7072 305.802 77.3151 309.046 75.757C314.442 73.1715 319.906 76.3275 319.805 82.3912C319.823 83.4064 319.686 84.5061 319.354 85.6834C319.222 86.1798 318.488 85.9747 318.616 85.4782C318.695 84.9456 318.757 84.1114 318.77 83.5719C318.652 73.7489 302.871 77.5685 302.714 86.7089C302.722 86.8382 302.722 86.9675 302.731 87.0985Z" fill="#4C466A"/>
<path fill-rule="evenodd" clip-rule="evenodd" d="M294.237 84.6269C294.274 83.9098 293.332 83.8616 293.296 84.582C293.11 88.0827 293.906 91.4197 296.503 94.1689L296.53 94.1999C298.503 96.3458 293.994 98.216 292.068 98.1901C291.713 98.1849 291.414 98.428 291.414 98.7279C291.409 99.0261 292.172 100.391 293.455 100.391C296.049 100.391 295.81 98.4831 296.274 98.2384C298.234 97.2111 299.773 95.4978 298.003 93.5742L297.97 93.5363C295.564 90.9819 294.068 87.869 294.237 84.6251V84.6269ZM294.861 82.2465C294.939 82.0431 294.805 81.8191 294.561 81.7553C294.318 81.6846 294.055 81.7949 293.976 81.9983C293.976 81.9983 293.877 82.312 293.786 82.8084C293.742 83.0187 293.918 83.2186 294.177 83.2497C294.427 83.2824 294.665 83.1376 294.709 82.9256C294.787 82.4706 294.861 82.2465 294.861 82.2465Z" fill="#F68B85"/>
<path fill-rule="evenodd" clip-rule="evenodd" d="M294.169 96.1718C293.278 94.6533 293.382 93.2882 293.395 93.1296V93.121C293.403 93.0779 293.421 93.0417 293.459 93.0176C293.786 92.8073 294.144 92.9004 294.235 92.9279C294.273 92.9366 294.309 92.9624 294.322 93.0003C294.859 94.1655 295.896 95.1704 295.896 95.179C295.938 95.2204 295.947 95.291 295.919 95.3462C295.515 96.0167 294.291 96.2407 294.291 96.2407C294.243 96.2511 294.191 96.2252 294.167 96.1735L294.169 96.1718Z" fill="white"/>
<path fill-rule="evenodd" clip-rule="evenodd" d="M319.056 71.4601C320.539 72.9872 319.823 73.3802 317.737 72.1771C313.307 69.6123 307.214 70.2811 303.091 72.0202C300.252 72.4477 299.073 70.5931 300.408 69.9709C305.952 67.4406 314.621 67.4268 319.056 71.4618V71.4601Z" fill="#4C466A"/>
<path fill-rule="evenodd" clip-rule="evenodd" d="M266.793 71.4601C265.305 72.9872 266.02 73.3802 268.105 72.1771C272.534 69.6123 278.629 70.2811 282.751 72.0202C285.591 72.4477 286.772 70.5931 285.435 69.9709C279.891 67.4406 271.224 67.4268 266.793 71.4618V71.4601Z" fill="#4C466A"/>
<path d="M261.518 65.5704C261.482 65.5704 261.451 65.5635 261.418 65.5549C258.175 64.6121 256.014 62.7368 255.92 62.6592C255.765 62.5213 255.747 62.2748 255.878 62.1076C256.001 61.9439 256.242 61.918 256.394 62.0559C256.415 62.0749 258.532 63.9054 261.619 64.7999C261.812 64.8568 261.93 65.0757 261.874 65.2808C261.83 65.4549 261.684 65.5704 261.519 65.5704H261.518Z" fill="#9E6D82"/>
<path d="M324.244 56.7436C324.092 56.7436 323.951 56.6402 323.897 56.4816C323.828 56.2748 323.928 56.0507 324.123 55.9835C327.14 54.8631 329.136 52.8844 329.156 52.8654C329.301 52.7189 329.534 52.7207 329.677 52.881C329.824 53.0361 329.815 53.2826 329.664 53.436C329.578 53.5153 327.544 55.5457 324.369 56.716C324.327 56.7298 324.286 56.7419 324.242 56.7419L324.244 56.7436Z" fill="#9E6D82"/>
<path fill-rule="evenodd" clip-rule="evenodd" d="M303.528 27.2731C303.564 27.2731 316.106 26.9525 319.848 32.2854C319.887 32.332 319.865 32.4268 319.804 32.4785C319.743 32.5319 319.667 32.5319 319.626 32.4905C319.621 32.4888 317.928 30.6497 315.49 31.4926C313.401 32.2113 312.437 31.4564 311.164 30.4636C310.865 30.224 310.552 29.9792 310.205 29.7396C309.274 29.0881 308.194 28.54 307.007 28.1591C305.902 27.7988 304.715 27.5851 303.472 27.5523H303.464H303.459C303.386 27.5523 303.345 27.4886 303.368 27.4145C303.391 27.3386 303.459 27.28 303.528 27.2766V27.2731ZM273.734 8.77856C274.601 16.1591 280.645 23.6621 298.713 26.563L299.491 26.6871C300.064 26.7784 300.377 26.8215 300.232 27.0146V27.0163L300.227 27.0197C300.177 27.0835 300.094 27.1059 300.042 27.0697C299.838 27.0835 299.483 27.0559 298.928 27.018L298.495 26.9853C296.015 26.8181 291.226 26.3768 286.246 25.3599C283.028 24.6963 279.734 23.7948 276.929 22.5624C273.495 21.0543 271.175 19.1669 269.592 17.2399C268.148 15.4869 267.317 13.7013 266.803 12.1362C268.998 10.8831 271.326 9.74897 273.733 8.78029L273.734 8.77856Z" fill="#9E6D82"/>
<path fill-rule="evenodd" clip-rule="evenodd" d="M277.693 128.657C281.634 131.182 285.44 134.407 289.893 134.302C296.194 134.155 302.202 131.904 308.202 129.581C307.829 128.971 307.442 127.713 307.05 126.116C297.993 130.979 287.491 130.92 278.471 125.942C278.209 127.023 277.948 127.959 277.693 128.657Z" fill="#F68B85"/>
<path fill-rule="evenodd" clip-rule="evenodd" d="M320.018 195.489C323.088 195.489 325.592 192.838 325.592 189.591C325.592 186.342 323.088 183.691 320.018 183.691C316.948 183.691 314.445 186.342 314.445 189.591C314.445 192.84 316.949 195.489 320.018 195.489Z" fill="#BC766D"/>
<path fill-rule="evenodd" clip-rule="evenodd" d="M320.018 193.543C322.075 193.543 323.752 191.768 323.752 189.591C323.752 187.414 322.075 185.637 320.018 185.637C317.962 185.637 316.285 187.412 316.285 189.591C316.285 191.768 317.964 193.543 320.018 193.543Z" fill="#FFFF00"/>
<path fill-rule="evenodd" clip-rule="evenodd" d="M320.018 191.587C321.059 191.587 321.906 190.689 321.906 189.589C321.906 188.489 321.057 187.591 320.018 187.591C318.978 187.591 318.13 188.489 318.13 189.589C318.13 190.689 318.978 191.587 320.018 191.587Z" fill="white"/>
<path fill-rule="evenodd" clip-rule="evenodd" d="M238.794 129.986C243.646 127.387 248.835 125.327 254.034 123.331C251.271 119.18 249.018 114.628 247.263 109.821C244.446 108.249 241.92 106.048 239.825 103.287C236.147 98.44 234.128 92.3056 233.716 86.135C233.309 80.0419 234.458 73.6628 237.597 68.4729C238.384 67.1733 239.271 65.9875 240.243 64.9257C240.243 64.9154 240.242 64.905 240.242 64.8947C238.011 61.2906 236.609 57.2969 236.029 53.0964H227.52C227.924 56.8867 228.837 60.5649 230.256 64.0449C226.306 70.7826 224.77 78.9009 225.294 86.7641C225.829 94.7531 228.484 102.609 233.242 108.882C235.357 111.669 237.811 114.039 240.515 115.95C240.904 116.897 241.31 117.834 241.735 118.76C239.486 119.744 237.268 120.794 235.103 121.949C232.675 123.15 230.264 124.462 227.792 125.541C217.896 129.855 212.788 139.404 209.014 149.34C206.156 156.862 203.911 164.845 201.902 172.663C199.829 180.733 197.989 188.893 196.336 197.073C195.045 203.469 193.801 210.002 192.93 216.479C192.189 221.988 193.222 227.433 195.67 232.119H205.279C205.282 231.783 205.297 231.446 205.321 231.106C202.19 227.523 200.62 222.698 201.288 217.738C202.131 211.465 203.341 205.133 204.593 198.94C206.212 190.921 208.016 182.92 210.048 175.007C211.969 167.528 214.113 159.867 216.846 152.672C219.687 145.192 223.533 137.06 231.006 133.802C233.647 132.651 236.204 131.261 238.792 129.986H238.794ZM338.575 109.823C336.819 114.633 334.56 119.191 331.795 123.343C335.441 124.751 339.077 126.184 342.638 127.812C346.997 129.493 351.01 131.937 355.288 133.802C362.761 137.06 366.607 145.192 369.448 152.672C371.576 158.276 373.348 164.164 374.935 170.027V143.696C371.37 135.931 366.5 129.026 358.502 125.539C354.172 123.651 350.201 121.263 345.785 119.518C345.225 119.263 344.662 119.013 344.098 118.767C344.523 117.839 344.93 116.902 345.321 115.954C348.027 114.042 350.481 111.674 352.596 108.887C357.357 102.615 360.013 94.7566 360.547 86.7658C361.081 78.7492 359.475 70.4689 355.353 63.6554C354.975 63.0297 354.579 62.4247 354.167 61.837C354.231 59.7962 354.25 57.7537 354.213 55.7112C354.6 54.8494 354.96 53.9789 355.291 53.0982H346.008C345.911 53.2947 345.811 53.4894 345.71 53.6842C345.837 56.8126 345.806 59.9479 345.676 63.0745L345.67 63.2383C345.65 63.8019 345.626 64.3638 345.598 64.9274C346.572 65.9892 347.459 67.175 348.245 68.4764C351.385 73.6662 352.534 80.0454 352.129 86.1384C351.717 92.3107 349.698 98.4451 346.018 103.292C343.921 106.053 341.395 108.254 338.577 109.826L338.575 109.823Z" fill="#F54F65"/>
<path fill-rule="evenodd" clip-rule="evenodd" d="M254.034 123.331C248.835 125.327 243.646 127.388 238.794 129.986C236.204 131.261 233.647 132.651 231.008 133.802C223.534 137.06 219.688 145.192 216.847 152.672C214.115 159.865 211.971 167.528 210.049 175.007C208.017 182.92 206.213 190.921 204.595 198.94C203.344 205.134 202.133 211.465 201.289 217.738C200.622 222.696 202.191 227.523 205.323 231.106C205.298 231.446 205.285 231.783 205.28 232.119H215.004C215.007 231.749 215.048 231.371 215.126 230.991L216.007 226.663C215.716 226.513 215.427 226.359 215.146 226.199C214.38 225.766 213.627 225.272 212.97 224.667C211.472 223.281 210.611 221.328 210.898 219.187C211.708 213.151 212.881 207.049 214.084 201.089C215.667 193.253 217.428 185.435 219.413 177.705C221.234 170.619 223.261 163.324 225.85 156.509C227.515 152.124 230.295 145.226 234.699 143.306C237.532 142.07 240.255 140.595 243.032 139.233C250.644 135.129 259.383 132.375 267.402 129.052C268.389 128.229 269.446 127.531 270.558 126.945C262.91 120.754 257.791 111.817 254.972 101.998C248.077 100.277 243.908 93.1002 243.394 85.4128C243.137 81.5553 243.772 77.3169 245.768 74.0179C246.95 72.065 248.508 70.6189 250.302 69.7622C250.058 66.9544 249.882 64.1363 249.825 61.325C247.824 58.8672 246.528 56.0835 245.89 53.1016H236.023C236.603 57.3021 238.004 61.2975 240.235 64.8999C240.235 64.9102 240.237 64.9205 240.237 64.9309C239.265 65.9926 238.377 67.1768 237.591 68.4781C234.452 73.668 233.302 80.0454 233.709 86.1401C234.121 92.3107 236.14 98.4434 239.818 103.292C241.914 106.053 244.439 108.254 247.256 109.826C249.01 114.633 251.265 119.186 254.028 123.336L254.034 123.331ZM331.795 123.345C334.56 119.192 336.82 114.637 338.575 109.825C341.392 108.253 343.919 106.053 346.016 103.29C349.696 98.4417 351.715 92.3073 352.127 86.1367C352.534 80.0437 351.385 73.6645 348.244 68.4747C347.457 67.1733 346.568 65.9892 345.596 64.9257C345.624 64.3621 345.648 63.8002 345.668 63.2366L345.674 63.0728C345.806 59.9461 345.836 56.8109 345.709 53.6825C345.81 53.4877 345.911 53.2929 346.007 53.0964H335.962C336.131 56.2645 336.109 59.448 335.975 62.616L335.967 62.816C335.886 65.1325 335.731 67.4474 335.531 69.757C337.327 70.6154 338.885 72.0598 340.067 74.0144C342.063 77.3134 342.698 81.5536 342.441 85.411C341.928 93.0984 337.758 100.277 330.861 101.994C328.041 111.815 322.918 120.751 315.277 126.937C316.392 127.524 317.452 128.224 318.442 129.048C325.281 131.889 332.328 134.267 339.059 137.37C343.312 138.957 347.392 141.474 351.59 143.303C355.994 145.223 358.774 152.121 360.439 156.506C363.028 163.321 365.057 170.615 366.876 177.701C368.862 185.433 370.624 193.252 372.205 201.086C373.196 205.998 374.167 211.007 374.932 215.995V170.026C373.345 164.162 371.573 158.274 369.445 152.671C366.604 145.19 362.758 137.058 355.284 133.8C351.007 131.935 346.993 129.491 342.635 127.811C339.074 126.182 335.438 124.749 331.792 123.341L331.795 123.345Z" fill="#F0485E"/>
<path fill-rule="evenodd" clip-rule="evenodd" d="M365.073 232.118C366.039 232.118 366.973 231.97 367.857 231.692C367.856 231.685 367.854 231.678 367.854 231.673L366.403 224.548C367.491 224.096 368.584 223.6 369.588 223.029C370.116 222.729 370.665 222.383 371.116 221.964C371.742 221.381 372.177 220.609 372.055 219.69C371.254 213.737 370.096 207.715 368.909 201.835C367.34 194.063 365.593 186.309 363.622 178.64C362.66 174.895 361.641 171.162 360.529 167.463C359.555 164.226 358.508 160.992 357.311 157.84C356.11 154.675 353.501 148.001 350.308 146.609C348.081 145.638 345.915 144.525 343.743 143.425C341.819 142.451 339.844 141.445 337.828 140.702C330.945 137.518 323.711 135.102 316.721 132.173C314.875 130.524 312.695 129.45 310.361 128.793C310.187 128.745 310.013 128.724 309.844 128.731C309.756 128.669 309.669 128.607 309.581 128.545C309.406 128.235 309.207 127.618 309.038 127.016C319.111 121.064 325.328 110.435 328.213 98.795C331.232 98.6296 333.866 97.192 335.819 94.6187C337.815 91.9884 338.855 88.5049 339.077 85.1628C339.282 82.093 338.82 78.5786 337.227 75.9466C335.929 73.8024 334.065 72.5734 331.887 72.4373C332.217 69.19 332.481 65.9288 332.595 62.6746L332.603 62.4609C332.733 59.3463 332.754 56.2145 332.58 53.0999C332.579 53.0637 332.575 53.0275 332.574 52.9913C332.517 51.9881 332.438 50.9867 332.334 49.9887C338.966 41.3964 337.582 28.7433 332.486 19.6563C330.703 16.4762 327.523 12.2533 323.837 11.6466C321.962 11.338 320.279 12.0499 319.053 13.577C318.366 14.432 317.864 15.4799 317.495 16.5882C310.863 8.78879 302.37 4.12465 292.153 3.61446C282.657 3.13873 272.992 6.34986 264.789 11.2656C258.795 14.8577 251.331 20.8594 247.917 27.3368C245.063 32.749 246.178 37.1804 251.115 38.4525C250.262 40.3864 249.586 42.5478 249.223 44.4179C248.632 47.4515 248.658 50.3869 249.381 53.0999C250.045 55.5871 251.294 57.8881 253.192 59.9048C253.214 64.0811 253.533 68.2799 253.956 72.4373C251.779 72.5734 249.913 73.8024 248.617 75.9449C247.025 78.5768 246.564 82.0913 246.769 85.1594C246.992 88.4998 248.031 91.9832 250.027 94.6135C251.979 97.1869 254.614 98.6261 257.631 98.7933C260.485 110.307 266.596 120.837 276.496 126.833C276.312 127.5 276.092 128.205 275.9 128.545C275.794 128.621 275.688 128.697 275.581 128.771C275.551 128.778 275.522 128.784 275.491 128.793C273.158 129.45 270.978 130.522 269.131 132.173C264.935 133.933 260.669 135.514 256.438 137.175C252.443 138.744 248.309 140.395 244.512 142.448C241.669 143.839 238.888 145.347 235.989 146.61C232.796 148.003 230.187 154.677 228.986 157.841C227.789 160.994 226.742 164.227 225.768 167.464C224.656 171.163 223.637 174.897 222.675 178.642C220.704 186.311 218.957 194.065 217.388 201.837C216.201 207.716 215.043 213.739 214.242 219.692C214.118 220.616 214.559 221.392 215.193 221.976C215.649 222.397 216.206 222.746 216.738 223.048C217.734 223.612 218.814 224.103 219.894 224.549L218.428 231.744C218.402 231.871 218.389 231.997 218.387 232.12H220.079L221.58 224.748L221.851 223.422C218.29 222.033 215.81 220.728 215.916 219.944C218.145 203.373 229.153 151.524 236.633 148.265C239.703 146.927 242.612 145.349 245.247 144.059C251.597 140.622 261.2 137.385 269.234 134.052C269.498 133.943 269.76 133.833 270.02 133.723C271.655 132.196 273.648 131.161 275.927 130.52L276.012 130.606C276.343 130.384 276.672 130.153 277 129.915C277.225 129.751 277.458 129.308 277.694 128.66C277.95 127.962 278.21 127.026 278.472 125.946C269.603 121.052 262.167 111.403 258.943 96.999C245.563 97.9901 245.374 71.6358 255.856 74.4074C255.767 73.599 255.689 72.8561 255.625 72.2046C255.581 71.7582 255.54 71.3135 255.5 70.8722C255.254 68.2885 255.065 65.7651 254.962 63.3193C254.892 61.8749 254.848 60.4667 254.83 59.0964C252.929 57.2314 251.778 55.1803 251.146 53.0999C248.765 45.2574 253.769 37.0236 253.769 37.0236C252.33 36.9701 251.182 36.715 250.304 36.2962C247.023 34.726 247.507 30.8306 250.525 26.3078C250.527 26.3095 250.529 26.3095 250.529 26.3112C260.293 11.7155 296.582 -9.37482 318.361 20.4836C321.301 -1.33926 344.873 32.3974 330.573 49.4372C330.711 50.6213 330.815 51.8433 330.888 53.1016C331.055 56.0025 331.051 59.0981 330.916 62.3833C330.812 65.5376 330.555 68.8228 330.211 72.208V72.2098C330.149 72.8613 330.071 73.6024 329.982 74.4108C340.469 71.6323 340.283 97.997 326.898 97.0007C323.636 111.577 316.059 121.285 307.049 126.121C307.442 127.718 307.831 128.978 308.202 129.586C308.295 129.738 308.388 129.85 308.477 129.915C308.88 130.206 309.283 130.487 309.689 130.756L309.923 130.522C312.201 131.163 314.196 132.197 315.831 133.724C316.091 133.835 316.353 133.943 316.617 134.054C323.324 136.836 331.121 139.55 337.209 142.37C340.729 143.659 345.013 146.238 349.664 148.267C357.144 151.528 368.152 203.375 370.381 219.946C370.487 220.73 368.007 222.035 364.446 223.424L364.717 224.749L366.203 232.052C365.832 232.097 365.456 232.121 365.073 232.121V232.118ZM241.87 232.118L242.169 230.939C242.795 231.022 243.425 231.082 244.034 231.089C245.196 231.103 246.54 230.875 246.984 229.527C247.29 228.6 247.596 227.671 247.902 226.744L248.863 232.118H250.581L248.381 219.82C248.093 220.702 247.808 221.571 247.529 222.422C246.767 224.751 246.046 226.949 245.39 228.936C245.217 229.458 243.48 229.386 240.929 228.934L240.121 232.118H241.87ZM345.363 228.934C342.812 229.386 341.075 229.458 340.902 228.936C340.163 226.7 339.344 224.199 338.474 221.543C338.196 220.69 337.911 219.821 337.623 218.939L335.267 232.116H336.985L338.103 225.863C338.504 227.083 338.906 228.305 339.31 229.524C339.756 230.872 341.097 231.099 342.262 231.085C342.871 231.078 343.501 231.02 344.126 230.935L344.426 232.114H346.174L345.367 228.931L345.363 228.934Z" fill="#B80E3C"/>
<path fill-rule="evenodd" clip-rule="evenodd" d="M218.428 231.742L219.894 224.548C218.816 224.101 217.735 223.61 216.738 223.046C216.206 222.745 215.649 222.395 215.193 221.974C214.561 221.39 214.118 220.616 214.242 219.69C215.043 213.737 216.201 207.715 217.388 201.835C218.957 194.063 220.704 186.309 222.675 178.64C223.637 174.895 224.656 171.162 225.768 167.463C226.742 164.226 227.789 160.992 228.986 157.84C230.187 154.675 232.796 148.001 235.989 146.608C238.889 145.345 241.67 143.837 244.512 142.446C248.309 140.395 252.442 138.744 256.438 137.173C260.668 135.512 264.935 133.929 269.131 132.171C270.978 130.522 273.158 129.448 275.491 128.791C275.52 128.783 275.55 128.776 275.581 128.769C275.688 128.695 275.794 128.619 275.9 128.543C276.092 128.204 276.312 127.499 276.496 126.832C266.595 120.835 260.484 110.305 257.631 98.7915C254.614 98.626 251.98 97.1868 250.027 94.6117C248.031 91.9814 246.992 88.498 246.769 85.1576C246.564 82.0895 247.025 78.5751 248.617 75.9431C249.913 73.8006 251.779 72.5717 253.956 72.4355C253.531 68.2781 253.212 64.0793 253.193 59.903C251.294 57.8863 250.044 55.587 249.381 53.0981C248.658 50.3851 248.632 47.4497 249.223 44.4162C249.588 42.5477 250.262 40.3846 251.115 38.4507C246.178 37.1804 245.063 32.7489 247.917 27.335C251.331 20.8576 258.797 14.8542 264.789 11.2639C272.992 6.34807 282.657 3.13695 292.153 3.61267C302.37 4.12459 310.863 8.78701 317.495 16.5864C317.864 15.4781 318.366 14.4302 319.053 13.5753C320.281 12.0481 321.964 11.3345 323.837 11.6448C327.523 12.2532 330.703 16.4761 332.486 19.6545C337.582 28.7415 338.966 41.3946 332.334 49.9869C332.439 50.9849 332.517 51.9863 332.574 52.9895C332.575 53.0257 332.579 53.0619 332.58 53.0981C332.754 56.2127 332.733 59.3428 332.603 62.4591L332.595 62.6728C332.481 65.9288 332.217 69.1882 331.887 72.4355C334.065 72.5717 335.93 73.8023 337.227 75.9448C338.82 78.5768 339.28 82.093 339.077 85.161C338.854 88.5014 337.815 91.9849 335.819 94.6169C333.865 97.1903 331.23 98.6278 328.213 98.7932C325.328 110.435 319.112 121.063 309.038 127.014C309.207 127.616 309.406 128.233 309.581 128.543C309.668 128.605 309.756 128.667 309.844 128.729C310.013 128.722 310.187 128.743 310.361 128.791C312.695 129.448 314.875 130.52 316.721 132.171C323.711 135.102 330.946 137.518 337.828 140.7C339.844 141.443 341.82 142.449 343.743 143.423C345.915 144.523 348.081 145.636 350.308 146.607C353.501 147.999 356.11 154.673 357.311 157.838C358.508 160.99 359.555 164.224 360.529 167.461C361.641 171.16 362.66 174.893 363.622 178.639C365.593 186.307 367.34 194.062 368.909 201.834C370.096 207.713 371.254 213.735 372.055 219.689C372.179 220.607 371.742 221.38 371.116 221.962C370.666 222.381 370.116 222.729 369.588 223.027C368.584 223.598 367.491 224.096 366.404 224.546L367.854 231.671C367.856 231.678 367.858 231.685 367.858 231.69C368.994 231.333 370.046 230.765 370.974 230.029L370.288 226.659C370.593 226.502 370.893 226.342 371.186 226.175C371.946 225.742 372.695 225.249 373.345 224.644C374.006 224.029 374.541 223.303 374.906 222.498C374.926 222.226 374.937 221.952 374.937 221.674V215.993C374.172 211.005 373.201 205.996 372.21 201.084C370.627 193.248 368.865 185.43 366.881 177.699C365.06 170.613 363.033 163.319 360.444 156.504C358.778 152.119 355.999 145.221 351.595 143.301C347.397 141.47 343.317 138.956 339.064 137.368C332.333 134.266 325.286 131.885 318.447 129.046C317.459 128.222 316.399 127.523 315.282 126.935C322.922 120.751 328.046 111.814 330.866 101.992C337.763 100.274 341.933 93.0966 342.446 85.4092C342.703 81.5518 342.066 77.3116 340.072 74.0126C338.89 72.058 337.33 70.6136 335.535 69.7552C335.736 67.4456 335.89 65.129 335.972 62.8142L335.98 62.6142C336.114 59.4462 336.135 56.2627 335.967 53.0946C335.96 52.986 335.956 52.8775 335.949 52.7689C335.916 52.1897 335.876 51.6123 335.829 51.0349C342.395 41.3205 341.001 27.8262 335.394 17.8257C333.031 13.6132 329.189 8.90422 324.361 8.1079C321.513 7.63907 318.807 8.65257 316.845 10.8312C301.779 -3.6283 281.193 -2.67858 263.13 8.14754C256.555 12.0878 248.713 18.491 244.972 25.5872C241.754 31.6906 242.593 37.3941 246.784 40.326C246.422 41.4722 246.128 42.615 245.919 43.6871C245.286 46.9361 245.265 50.1128 245.901 53.0912C246.538 56.0731 247.836 58.8585 249.837 61.3146C249.892 64.1276 250.07 66.9457 250.314 69.7518C248.52 70.6102 246.96 72.0546 245.779 74.0074C243.783 77.3065 243.148 81.5449 243.405 85.4024C243.918 93.088 248.086 100.267 254.984 101.987C257.804 111.807 262.921 120.744 270.569 126.935C269.457 127.521 268.4 128.219 267.414 129.041C259.393 132.364 250.656 135.119 243.044 139.223C240.266 140.584 237.544 142.062 234.71 143.296C230.306 145.216 227.527 152.112 225.861 156.499C223.272 163.314 221.245 170.608 219.425 177.694C217.438 185.426 215.676 193.245 214.095 201.079C212.892 207.039 211.72 213.141 210.909 219.177C210.621 221.317 211.482 223.272 212.982 224.656C213.638 225.261 214.392 225.756 215.157 226.188C215.439 226.347 215.727 226.502 216.018 226.652L215.138 230.98C215.059 231.361 215.019 231.739 215.015 232.109H218.397C218.399 231.985 218.412 231.859 218.438 231.733L218.428 231.742ZM246.986 229.527C246.54 230.875 245.198 231.103 244.035 231.089C243.426 231.082 242.796 231.023 242.171 230.939L241.871 232.118H248.865L247.904 226.743C247.6 227.671 247.293 228.6 246.986 229.527ZM338.105 225.866L336.986 232.119H344.426L344.126 230.94C343.501 231.025 342.871 231.084 342.262 231.09C341.099 231.104 339.756 230.877 339.31 229.529C338.906 228.309 338.505 227.088 338.103 225.868L338.105 225.866Z" fill="white"/>
</g>
<defs>
<clipPath id="clip0_214_14649">
<rect width="380" height="237.48" fill="white"/>
</clipPath>
</defs>
</svg>
