<svg width="380" height="238" viewBox="0 0 380 238" fill="none" xmlns="http://www.w3.org/2000/svg">
<path fill-rule="evenodd" clip-rule="evenodd" d="M14.9277 47.7395H365.072C373.292 47.7395 380 54.8391 380 63.5417V221.683C380 230.384 373.293 237.485 365.072 237.485H14.9277C6.70838 237.485 6.10352e-05 230.384 6.10352e-05 221.683V63.5417C6.10352e-05 54.8409 6.70675 47.7395 14.9277 47.7395Z" fill="white"/>
<path d="M353.365 53.1001H26.6346C14.7223 53.1001 5.06543 54.1674 5.06543 55.4839V229.738C5.06543 231.054 14.7223 232.121 26.6346 232.121H353.365C365.278 232.121 374.935 231.054 374.935 229.738V55.4839C374.935 54.1674 365.278 53.1001 353.365 53.1001Z" fill="#735974"/>
<path fill-rule="evenodd" clip-rule="evenodd" d="M21.1035 108.758V74.7437C21.1035 72.1772 23.0851 70.0796 25.5095 70.0796H186.174C186.639 70.0796 187.017 70.4812 187.017 70.9742C187.017 71.4671 186.638 71.867 186.174 71.867H25.5095C24.0164 71.867 22.792 73.1632 22.792 74.7437V108.758C22.792 109.251 22.4126 109.651 21.9486 109.651C21.4829 109.651 21.1051 109.249 21.1051 108.758H21.1035ZM201.655 70.0796H210.871C211.336 70.0796 211.714 70.4812 211.714 70.9742C211.714 71.4671 211.335 71.867 210.871 71.867H201.655C201.189 71.867 200.81 71.4654 200.81 70.9742C200.81 70.4812 201.189 70.0796 201.655 70.0796ZM186.105 215.145H25.5095C23.0851 215.145 21.1035 213.048 21.1035 210.481V201.098C21.1035 200.605 21.4829 200.203 21.9469 200.203C22.4126 200.203 22.7904 200.605 22.7904 201.098V210.481C22.7904 212.062 24.0148 213.358 25.5079 213.358H186.104C186.569 213.358 186.947 213.76 186.947 214.251C186.947 214.744 186.568 215.145 186.104 215.145H186.105Z" fill="white"/>
<path d="M59.0039 183.463H21.1035V190.656H59.0039V183.463Z" fill="#4B4669"/>
<path d="M57.7371 181.676H19.8368V188.869H57.7371V181.676Z" fill="white"/>
<path d="M30.557 138.821C30.557 138.184 30.3421 137.691 29.9188 137.336C29.4922 136.98 28.7464 136.613 27.6816 136.234C26.6134 135.855 25.744 135.486 25.065 135.133C22.8604 133.985 21.7581 132.409 21.7581 130.405C21.7581 129.409 22.03 128.526 22.5803 127.763C23.1307 126.999 23.909 126.408 24.9136 125.98C25.9149 125.555 27.0466 125.343 28.2987 125.343C29.5231 125.343 30.6205 125.575 31.5893 126.035C32.5581 126.496 33.312 127.154 33.8509 128.007C34.3899 128.86 34.6569 129.836 34.6569 130.929H30.5684C30.5684 130.195 30.3535 129.624 29.9302 129.219C29.5036 128.814 28.9288 128.611 28.2075 128.611C27.4732 128.611 26.8951 128.783 26.4718 129.126C26.0452 129.467 25.8335 129.907 25.8335 130.434C25.8335 130.898 26.0696 131.317 26.5353 131.692C27.001 132.068 27.8232 132.456 29.0004 132.858C30.1776 133.259 31.1416 133.694 31.8954 134.154C33.7337 135.278 34.6553 136.822 34.6553 138.797C34.6553 140.373 34.0935 141.608 32.9717 142.508C31.8515 143.408 30.3112 143.859 28.3573 143.859C26.9765 143.859 25.7293 143.597 24.6124 143.074C23.4954 142.55 22.6536 141.832 22.087 140.921C21.5203 140.009 21.2419 138.957 21.2419 137.772H25.3532C25.3532 138.733 25.5893 139.449 26.0598 139.904C26.5304 140.364 27.2957 140.591 28.3573 140.591C29.0346 140.591 29.5687 140.435 29.9643 140.128C30.3551 139.819 30.5538 139.385 30.5538 138.823L30.557 138.821Z" fill="#4B4669"/>
<path d="M42.1468 125.594L45.9438 138.125L49.7278 125.594H55.1287V143.604H51.0158V139.399L51.4114 130.791L47.2985 143.604H44.5875L40.4632 130.779L40.8621 139.399V143.604H36.759V125.594H42.1468Z" fill="#4B4669"/>
<path d="M67.6074 140.235H61.9884L61.0066 143.604H56.6234L62.8644 125.594H66.7168L73.0066 143.604H68.599L67.6058 140.235H67.6074ZM62.9686 136.891H66.6256L64.7906 130.638L62.9686 136.891Z" fill="#4B4669"/>
<path d="M75.4115 145.151H72.6208L78.427 125.594H81.2308L75.4115 145.151Z" fill="#4B4669"/>
<path d="M88.0303 125.594L91.8274 138.125L95.613 125.594H101.012V143.604H96.9009V139.399L97.295 130.791L93.1837 143.604H90.4711L86.3484 130.779L86.7457 139.399V143.604H82.6425V125.594H88.0303Z" fill="#4B4669"/>
<path d="M113.491 140.235H107.872L106.89 143.604H102.507L108.748 125.594H112.6L118.89 143.604H114.483L113.489 140.235H113.491ZM108.852 136.891H112.509L110.674 130.638L108.852 136.891Z" fill="#4B4669"/>
<path d="M121.297 145.151H118.504L124.311 125.594H127.114L121.297 145.151Z" fill="#4B4669"/>
<path d="M30.557 169.223C30.557 168.585 30.3421 168.092 29.9188 167.737C29.4922 167.382 28.7464 167.015 27.6816 166.636C26.6134 166.256 25.744 165.887 25.065 165.534C22.8604 164.386 21.7581 162.811 21.7581 160.806C21.7581 159.81 22.03 158.927 22.5803 158.164C23.1307 157.4 23.909 156.809 24.9136 156.382C25.9149 155.956 27.0466 155.744 28.2987 155.744C29.5231 155.744 30.6205 155.977 31.5893 156.437C32.5581 156.897 33.312 157.555 33.8509 158.409C34.3899 159.262 34.6569 160.237 34.6569 161.33H30.5684C30.5684 160.596 30.3535 160.025 29.9302 159.62C29.5036 159.215 28.9288 159.012 28.2075 159.012C27.4732 159.012 26.8951 159.184 26.4718 159.527C26.0452 159.869 25.8335 160.308 25.8335 160.835C25.8335 161.299 26.0696 161.718 26.5353 162.094C27.001 162.47 27.8232 162.857 29.0004 163.259C30.1776 163.661 31.1416 164.095 31.8954 164.555C33.7337 165.679 34.6553 167.223 34.6553 169.199C34.6553 170.774 34.0935 172.01 32.9717 172.91C31.8515 173.809 30.3112 174.261 28.3573 174.261C26.9765 174.261 25.7293 173.999 24.6124 173.475C23.4954 172.951 22.6536 172.234 22.087 171.322C21.5203 170.41 21.2419 169.359 21.2419 168.173H25.3532C25.3532 169.135 25.5893 169.85 26.0598 170.305C26.5304 170.765 27.2957 170.993 28.3573 170.993C29.0346 170.993 29.5687 170.836 29.9643 170.529C30.3551 170.221 30.5538 169.786 30.5538 169.224L30.557 169.223Z" fill="#4B4669"/>
<path d="M42.1468 155.996L45.9438 168.526L49.7278 155.996H55.1287V174.006H51.0158V169.802L51.4114 161.192L47.2985 174.006H44.5875L40.4632 161.18L40.8621 169.802V174.006H36.759V155.996H42.1468Z" fill="#4B4669"/>
<path d="M67.6074 170.638H61.9884L61.0066 174.008H56.6234L62.8644 155.997H66.7168L73.0066 174.008H68.599L67.6058 170.638H67.6074ZM62.9686 167.294H66.6256L64.7906 161.041L62.9686 167.294Z" fill="#4B4669"/>
<path d="M78.3473 170.662H85.4854V174.006H74.2441V155.996H78.3473V170.662Z" fill="#4B4669"/>
<path d="M87.213 174.006V155.996H93.3237C95.5137 155.996 97.181 156.418 98.3208 157.266C99.4622 158.114 100.032 159.348 100.032 160.96C100.032 161.889 99.8285 162.687 99.4263 163.345C99.0193 164.004 98.425 164.49 97.6402 164.802C98.5259 165.046 99.2082 165.512 99.682 166.186C100.156 166.865 100.397 167.689 100.397 168.664C100.397 170.433 99.8709 171.758 98.8125 172.649C97.7558 173.535 96.1927 173.989 94.1216 174.004H87.2146L87.213 174.006ZM91.3129 166.33V170.662H94.0011C94.7436 170.662 95.3085 170.481 95.7075 170.122C96.1064 169.764 96.3018 169.257 96.3018 168.602C96.3018 167.096 95.6 166.339 94.1883 166.33H91.3129ZM91.3129 163.493H93.454C94.3479 163.485 94.9862 163.312 95.3688 162.975C95.7514 162.637 95.9436 162.139 95.9436 161.48C95.9436 160.72 95.7368 160.175 95.3216 159.843C94.9113 159.51 94.2453 159.341 93.3237 159.341H91.3129V163.495V163.493Z" fill="#4B4669"/>
<path d="M29.2903 137.034C29.2903 136.396 29.0753 135.903 28.652 135.548C28.2254 135.193 27.4797 134.826 26.4148 134.447C25.3467 134.068 24.4772 133.699 23.7982 133.345C21.5936 132.197 20.4913 130.622 20.4913 128.617C20.4913 127.621 20.7632 126.739 21.3136 125.975C21.8639 125.212 22.6422 124.62 23.6468 124.193C24.6482 123.767 25.7798 123.555 27.0319 123.555C28.2563 123.555 29.3538 123.788 30.3226 124.248C31.2914 124.708 32.0452 125.367 32.5842 126.22C33.1231 127.073 33.3902 128.049 33.3902 129.141H29.3017C29.3017 128.407 29.0867 127.837 28.6634 127.432C28.2368 127.027 27.662 126.823 26.9407 126.823C26.2064 126.823 25.6284 126.996 25.205 127.339C24.7784 127.68 24.5668 128.119 24.5668 128.647C24.5668 129.11 24.8029 129.529 25.2685 129.905C25.7342 130.281 26.5565 130.669 27.7337 131.07C28.9109 131.472 29.8748 131.906 30.6287 132.366C32.467 133.49 33.3885 135.035 33.3885 137.01C33.3885 138.585 32.8268 139.821 31.7049 140.721C30.5847 141.621 29.0444 142.072 27.0905 142.072C25.7098 142.072 24.4626 141.81 23.3456 141.286C22.2286 140.762 21.3868 140.045 20.8202 139.133C20.2536 138.222 19.9752 137.17 19.9752 135.984H24.0864C24.0864 136.946 24.3225 137.661 24.7931 138.116C25.2637 138.577 26.0289 138.804 27.0905 138.804C27.7679 138.804 28.3019 138.647 28.6976 138.34C29.0884 138.032 29.287 137.598 29.287 137.036L29.2903 137.034Z" fill="white"/>
<path d="M40.88 123.807L44.677 136.338L48.4611 123.807H53.8619V141.817H49.7506V137.613L50.1446 129.004L46.0334 141.817H43.3207L39.1964 128.992L39.5953 137.613V141.817H35.4922V123.807H40.88Z" fill="white"/>
<path d="M66.3407 138.449H60.7216L59.7398 141.819H55.3566L61.5976 123.809H65.45L71.7399 141.819H67.3323L66.339 138.449H66.3407ZM61.7018 135.105H65.3589L63.5238 128.852L61.7018 135.105Z" fill="white"/>
<path d="M74.1464 143.363H71.354L77.1603 123.807H79.9641L74.1464 143.363Z" fill="white"/>
<path d="M86.7636 123.807L90.5606 136.338L94.3463 123.807H99.7455V141.817H95.6342V137.613L96.0299 129.004L91.9169 141.817H89.2059L85.0816 128.992L85.4805 137.613V141.817H81.3758V123.807H86.7636Z" fill="white"/>
<path d="M112.226 138.449H106.607L105.625 141.819H101.242L107.483 123.809H111.335L117.625 141.819H113.217L112.224 138.449H112.226ZM107.587 135.105H111.244L109.409 128.852L107.587 135.105Z" fill="white"/>
<path d="M120.03 143.363H117.238L123.045 123.807H125.849L120.03 143.363Z" fill="white"/>
<path d="M29.2903 167.435C29.2903 166.798 29.0753 166.305 28.652 165.95C28.2254 165.594 27.4797 165.227 26.4148 164.848C25.3467 164.469 24.4772 164.1 23.7982 163.747C21.5936 162.599 20.4913 161.023 20.4913 159.019C20.4913 158.023 20.7632 157.14 21.3136 156.377C21.8639 155.613 22.6422 155.022 23.6468 154.594C24.6482 154.169 25.7798 153.957 27.0319 153.957C28.2563 153.957 29.3538 154.189 30.3226 154.649C31.2914 155.11 32.0452 155.768 32.5842 156.621C33.1231 157.474 33.3902 158.45 33.3902 159.543H29.3017C29.3017 158.809 29.0867 158.238 28.6634 157.833C28.2368 157.428 27.662 157.225 26.9407 157.225C26.2064 157.225 25.6284 157.397 25.205 157.74C24.7784 158.081 24.5668 158.521 24.5668 159.048C24.5668 159.512 24.8029 159.931 25.2685 160.306C25.7342 160.682 26.5565 161.07 27.7337 161.472C28.9109 161.873 29.8748 162.308 30.6287 162.768C32.467 163.892 33.3885 165.436 33.3885 167.411C33.3885 168.987 32.8268 170.222 31.7049 171.122C30.5847 172.022 29.0444 172.473 27.0905 172.473C25.7098 172.473 24.4626 172.212 23.3456 171.688C22.2286 171.164 21.3868 170.447 20.8202 169.535C20.2536 168.623 19.9752 167.571 19.9752 166.386H24.0864C24.0864 167.347 24.3225 168.063 24.7931 168.518C25.2637 168.978 26.0289 169.205 27.0905 169.205C27.7679 169.205 28.3019 169.049 28.6976 168.742C29.0884 168.433 29.287 167.999 29.287 167.437L29.2903 167.435Z" fill="white"/>
<path d="M40.88 154.208L44.677 166.739L48.4611 154.208H53.8619V172.218H49.7506V168.015L50.1446 159.407L46.0334 172.218H43.3207L39.1964 159.393L39.5953 168.015V172.218H35.4922V154.208H40.88Z" fill="white"/>
<path d="M66.3407 168.85H60.7216L59.7398 172.22H55.3566L61.5976 154.21H65.45L71.7399 172.22H67.3323L66.339 168.85H66.3407ZM61.7018 165.507H65.3589L63.5238 159.253L61.7018 165.507Z" fill="white"/>
<path d="M77.0805 168.876H84.2203V172.218H72.9774V154.208H77.0805V168.876Z" fill="white"/>
<path d="M85.9462 172.218V154.208H92.057C94.2469 154.208 95.9142 154.631 97.054 155.479C98.1954 156.327 98.7653 157.561 98.7653 159.172C98.7653 160.101 98.5617 160.899 98.1596 161.558C97.7525 162.216 97.1582 162.702 96.3734 163.014C97.2592 163.259 97.9414 163.724 98.4152 164.398C98.889 165.077 99.13 165.901 99.13 166.877C99.13 168.645 98.6041 169.971 97.5457 170.862C96.489 171.748 94.9259 172.201 92.8548 172.217H85.9478L85.9462 172.218ZM90.0461 164.543V168.875H92.7343C93.4768 168.875 94.0418 168.694 94.4407 168.335C94.8396 167.977 95.035 167.47 95.035 166.815C95.035 165.308 94.3332 164.552 92.9215 164.543H90.0461ZM90.0461 161.706H92.1872C93.0811 161.697 93.7194 161.525 94.102 161.187C94.4846 160.849 94.6768 160.351 94.6768 159.693C94.6768 158.933 94.47 158.388 94.0548 158.055C93.6445 157.723 92.9785 157.554 92.057 157.554H90.0461V161.708V161.706Z" fill="white"/>
<path fill-rule="evenodd" clip-rule="evenodd" d="M266.037 135.367C269.925 134.071 273.525 132.439 276.998 129.915C278.257 129.002 279.743 119.343 280.964 114.013C288.814 114.013 296.662 114.013 304.512 114.013C305.733 119.343 307.22 129.002 308.478 129.915C311.951 132.437 315.551 134.071 319.44 135.367L292.916 147.431L266.035 135.367H266.037Z" fill="#FCD1C8"/>
<path d="M351.203 158.402C350.141 151.787 344.215 147.334 337.966 148.46C331.716 149.584 327.512 155.858 328.574 162.471C328.717 163.361 342.245 216.659 346.17 232.12H365.071C365.452 232.12 365.829 232.096 366.201 232.051L351.203 158.4V158.402Z" fill="#FCD1C8"/>
<path fill-rule="evenodd" clip-rule="evenodd" d="M370.379 219.944C370.735 222.593 341.637 231.165 340.901 228.94C337.337 218.16 331.887 201.188 328.172 190.467C324.512 179.906 319.622 148.757 331.213 142.11C335.074 139.897 341.851 144.861 349.661 148.265C357.141 151.525 368.15 203.373 370.379 219.944Z" fill="white"/>
<path d="M235.089 158.402C236.151 151.787 242.077 147.334 248.327 148.46C254.576 149.584 258.78 155.858 257.718 162.471C257.585 163.307 245.629 210.431 240.929 228.936C235.833 228.035 227.487 225.622 221.848 223.422L235.089 158.402ZM220.077 232.121L221.578 224.75C223.587 225.218 225.592 225.794 227.589 226.525C231.049 227.792 234.487 229.526 237.89 231.972C237.958 232.022 238.028 232.071 238.098 232.121H220.077Z" fill="#FCD1C8"/>
<path fill-rule="evenodd" clip-rule="evenodd" d="M215.913 219.944C215.557 222.593 244.655 231.165 245.391 228.94C248.955 218.16 254.405 201.188 258.12 190.467C261.781 179.906 266.67 148.757 255.079 142.11C251.218 139.897 244.442 144.861 236.631 148.265C229.151 151.525 218.142 203.373 215.913 219.944Z" fill="white"/>
<path fill-rule="evenodd" clip-rule="evenodd" d="M270.018 133.725C261.504 137.311 251 140.774 244.477 144.485C228.195 153.746 241.967 183.955 245.405 203.18L250.582 232.121H335.268L340.444 203.18C343.883 183.955 357.654 153.748 341.372 144.485C334.849 140.776 324.344 137.311 315.83 133.725L292.924 147.552L270.018 133.725Z" fill="white"/>
<path fill-rule="evenodd" clip-rule="evenodd" d="M283.301 232.122L290.029 159.996L286.369 152.145L292.924 147.552L299.106 152.145L295.448 159.996L302.175 232.122H283.301Z" fill="#93BFE8"/>
<path fill-rule="evenodd" clip-rule="evenodd" d="M289.982 159.826C291.817 159.259 293.658 159.269 295.493 159.826C295.583 159.853 295.635 159.952 295.609 160.046C295.583 160.141 295.49 160.195 295.4 160.169C293.627 159.631 291.849 159.621 290.076 160.169C289.986 160.196 289.894 160.143 289.868 160.048C289.842 159.953 289.892 159.855 289.982 159.827V159.826Z" fill="#86AED3"/>
<path fill-rule="evenodd" clip-rule="evenodd" d="M270.018 133.725C271.653 132.198 273.646 131.163 275.925 130.522L292.924 147.552L276.886 159.396C276.345 159.796 275.298 159.062 275.157 158.38C273.475 150.239 272.275 141.895 270.018 133.725Z" fill="white"/>
<path fill-rule="evenodd" clip-rule="evenodd" d="M315.83 133.725C314.195 132.198 312.202 131.163 309.923 130.522L292.924 147.552L308.962 159.396C309.502 159.796 310.549 159.062 310.691 158.38C312.373 150.239 313.573 141.895 315.83 133.725Z" fill="white"/>
<path fill-rule="evenodd" clip-rule="evenodd" d="M275.156 158.379C273.475 150.239 272.275 141.896 270.018 133.725C269.757 133.835 269.495 133.944 269.231 134.054C271.447 142.103 272.643 150.392 274.334 158.571C274.591 159.815 276.275 160.934 277.366 160.127L286.132 153.653L289.161 160.15L282.453 232.123H283.298H302.174H303.019L296.31 160.15L299.435 153.45L298.737 152.934L308.477 160.129C309.568 160.936 311.251 159.817 311.508 158.572C313.199 150.394 314.394 142.107 316.61 134.056C316.346 133.947 316.084 133.837 315.823 133.726C313.566 141.896 312.368 150.24 310.685 158.381C310.543 159.064 309.496 159.796 308.955 159.398L293.609 148.065L293.608 148.067L292.917 147.553L292.225 148.065L286.448 152.331L276.879 159.398C276.339 159.798 275.292 159.064 275.15 158.381L275.156 158.379ZM317.184 203.607C314.438 203.751 310.297 202.718 309.108 200.441C309.318 201.003 309.551 201.524 309.812 201.991C312.096 206.108 320.156 205.531 324.544 204.428C327.032 203.802 329.588 201.787 330.857 199.305C331.241 198.552 331.508 197.754 331.617 196.94C332.053 193.688 332.521 190.137 332.775 187.267C332.384 190.873 332.006 194.946 330.432 198.052C330.025 198.857 329.536 199.597 328.947 200.246C326.488 202.959 320.731 203.421 317.183 203.606L317.184 203.607ZM326.5 177.313L311.414 175.742C315.812 176.85 322.346 177.791 326.612 178.024C328.608 178.132 330.412 178.103 331.853 177.896L326.5 177.313ZM339.776 206.913L337.624 218.944C337.912 219.825 338.195 220.694 338.475 221.549L340.548 209.959L341.715 203.437C342.666 198.116 344.728 190.768 344.879 185.142C343.182 191.549 341.408 197.797 340.444 203.182L339.776 206.915V206.913ZM248.383 219.825L246.259 207.942L245.407 203.18C243.497 192.5 238.398 178.43 237.033 166.444C236.838 171.782 238.757 181.898 240.277 187.573C241.672 192.783 243.185 198.113 244.135 203.433L245.487 210.985L247.532 222.424C247.81 221.573 248.095 220.704 248.383 219.822V219.825ZM283.301 232.123L290.009 160.174C289.946 160.165 289.889 160.117 289.869 160.048C289.846 159.963 289.884 159.876 289.955 159.838L286.833 153.138L292.925 148.639L298.741 152.934L295.522 159.839C295.594 159.877 295.633 159.965 295.61 160.048C295.591 160.119 295.535 160.167 295.47 160.175L302.179 232.125" fill="black" fill-opacity="0.090196"/>
<path fill-rule="evenodd" clip-rule="evenodd" d="M358.703 226.525C360.701 225.794 362.705 225.217 364.714 224.75L364.444 223.424C358.807 225.623 350.459 228.037 345.363 228.938L346.17 232.122H348.193C348.261 232.072 348.331 232.022 348.399 231.972C351.804 229.526 355.241 227.792 358.7 226.525H358.703Z" fill="#F8A8A0"/>
<path fill-rule="evenodd" clip-rule="evenodd" d="M227.589 226.525C225.592 225.794 223.587 225.217 221.578 224.75L221.848 223.424C227.485 225.623 235.833 228.037 240.929 228.938L240.122 232.122H238.1C238.03 232.072 237.961 232.022 237.891 231.972C234.487 229.526 231.049 227.792 227.591 226.525H227.589Z" fill="#F8A8A0"/>
<path fill-rule="evenodd" clip-rule="evenodd" d="M323.706 78.6461C341.274 60.7083 342.827 103.38 323.429 96.2064C312.92 92.3248 323.706 78.6461 323.706 78.6461Z" fill="#FCD1C8"/>
<path fill-rule="evenodd" clip-rule="evenodd" d="M325.111 81.1747C337.103 68.9301 338.156 98.0508 324.92 93.1574C317.749 90.5065 325.111 81.1747 325.111 81.1747Z" fill="#F68B85"/>
<path fill-rule="evenodd" clip-rule="evenodd" d="M262.132 78.6461C244.564 60.7083 243.017 103.38 262.414 96.2064C272.923 92.3248 262.132 78.6461 262.132 78.6461Z" fill="#FCD1C8"/>
<path fill-rule="evenodd" clip-rule="evenodd" d="M260.73 81.1747C248.735 68.9301 247.68 98.0508 260.913 93.1574C268.093 90.5065 260.73 81.1747 260.73 81.1747Z" fill="#F68B85"/>
<path fill-rule="evenodd" clip-rule="evenodd" d="M292.919 25.8926C246.97 26.6768 253.731 56.3215 257.783 90.1857C264.093 142.903 321.75 142.903 328.055 90.1857C332.112 56.3215 338.873 26.6768 292.919 25.8926Z" fill="#FCD1C8"/>
<path fill-rule="evenodd" clip-rule="evenodd" d="M292.919 25.8926C283.138 26.0615 275.746 27.5352 270.205 30.0827L258.729 56.3784C258.729 56.3784 278.309 61.2408 306.785 56.8921C323.478 54.3428 311.038 38.6526 297.888 26.1063C296.299 25.9925 294.65 25.9202 292.919 25.8926Z" fill="#F68B85"/>
<path fill-rule="evenodd" clip-rule="evenodd" d="M327.968 90.9183C328.527 86.33 329.759 76.9052 330.21 72.2065C333.245 40.6831 329.11 22.959 292.919 22.959C256.733 22.959 252.589 40.6831 255.623 72.2065C256.077 76.9069 257.319 86.33 257.873 90.9183C257.873 90.9183 260.315 85.0252 259.348 75.1298C262.828 70.0072 263.77 63.2816 263.51 55.3512C263.086 42.0172 283.467 41.4397 292.919 41.4397C302.381 41.4397 322.758 42.0172 322.328 55.3512C322.074 63.2816 323.015 70.0072 326.503 75.1298C325.527 85.0252 327.968 90.9183 327.968 90.9183Z" fill="#352236"/>
<path fill-rule="evenodd" clip-rule="evenodd" d="M318.36 20.4822C288.033 -21.0935 229.574 36.1138 253.766 37.0239C253.766 37.0239 242.125 56.1803 262.8 63.8832C262.924 63.9332 263.064 63.9539 263.194 63.9883C263.541 58.9743 266.115 54.5273 266.115 54.5273C266.115 54.5273 299.308 59.5017 322.326 55.3495C351.775 42.7722 321.708 -4.3553 318.36 20.4822Z" fill="#735974"/>
<path fill-rule="evenodd" clip-rule="evenodd" d="M303.558 56.9767C309.999 56.8715 316.491 56.4061 322.326 55.3513C339.944 47.8276 336.254 27.9387 329.732 18.4932C329.896 18.9775 334.917 34.0455 325.847 39.5404C316.629 45.1319 305.464 38.2322 305.464 38.2322L303.922 48.3482C302.708 51.8747 302.695 54.7066 303.558 56.9767Z" fill="#513B52"/>
<path fill-rule="evenodd" clip-rule="evenodd" d="M250.523 26.3082C246.697 32.0392 246.943 36.7654 253.766 37.024C253.766 37.024 258.332 28.9246 265.674 25.093C265.674 25.093 255.771 30.6397 250.523 26.3082Z" fill="#513B52"/>
<path fill-rule="evenodd" clip-rule="evenodd" d="M266.117 54.5274C266.636 54.6153 290.089 58.1212 311.238 56.6682C315.651 54.7274 316.173 36.9033 296.454 36.3362C276.739 35.7605 266.117 54.5257 266.117 54.5257V54.5274Z" fill="#352236"/>
<path fill-rule="evenodd" clip-rule="evenodd" d="M295.547 109.282C295.985 109.225 296.297 108.808 296.24 108.362C296.19 107.913 295.776 107.596 295.335 107.65C295.327 107.65 292.868 108.348 289.899 107.81C288.848 107.619 288.679 108.83 289.734 109.02C292.938 109.603 295.539 109.284 295.548 109.284L295.547 109.282Z" fill="#F68B85"/>
<path fill-rule="evenodd" clip-rule="evenodd" d="M301.101 104.878C301.565 104.721 301.798 104.249 301.638 103.818C301.479 103.392 300.961 103.17 300.505 103.32C300.487 103.327 293.438 105.772 284.389 103.515C283.265 103.235 283.083 104.266 284.196 104.547C292.452 107.212 301.081 104.885 301.099 104.878H301.101Z" fill="#F68B85"/>
<path d="M264.951 89.4499C264.783 89.4499 264.638 89.3361 264.593 89.1655C264.537 88.9587 264.654 88.7381 264.85 88.6846C265.257 88.5622 265.469 88.3382 265.469 88.3382C265.607 88.183 265.846 88.1779 265.988 88.3296C266.131 88.4778 266.146 88.7225 266.001 88.8777C265.968 88.9156 265.651 89.2586 265.047 89.4361C265.022 89.4499 264.983 89.4499 264.949 89.4499H264.951Z" fill="white"/>
<path d="M266.576 90.7874C266.467 90.7874 266.354 90.7356 266.284 90.6305C266.157 90.4616 266.198 90.2117 266.358 90.0876C266.61 89.8876 266.706 89.6687 266.706 89.6687C266.789 89.4757 267.004 89.3809 267.19 89.4671C267.372 89.555 267.463 89.7756 267.385 89.9738C267.367 90.0169 267.217 90.3823 266.797 90.7115C266.735 90.7632 266.657 90.7874 266.574 90.7874H266.576Z" fill="white"/>
<path fill-rule="evenodd" clip-rule="evenodd" d="M275.051 75.9796C269.837 74.4318 266.566 79.0391 266.594 83.5085C266.626 91.0373 275.606 92.2835 280.622 90.2806C287.323 87.6107 281.313 77.8326 275.051 75.9796Z" fill="white"/>
<path fill-rule="evenodd" clip-rule="evenodd" d="M275.923 89.9737C279.011 89.9737 281.528 87.2159 281.528 83.8342C281.528 80.4507 279.011 77.6912 275.923 77.6912C272.836 77.6912 270.321 80.449 270.321 83.8342C270.321 87.2159 272.836 89.9737 275.923 89.9737Z" fill="#4C466A"/>
<path fill-rule="evenodd" clip-rule="evenodd" d="M275.078 82.8844C275.954 82.8844 276.669 82.1002 276.669 81.1384C276.669 80.1766 275.954 79.3923 275.078 79.3923C274.199 79.3923 273.483 80.1766 273.483 81.1384C273.483 82.1002 274.199 82.8844 275.078 82.8844Z" fill="white"/>
<path fill-rule="evenodd" clip-rule="evenodd" d="M283.107 87.1021C283.084 87.1952 283.084 87.271 283.112 87.3331C283.112 87.371 283.112 87.3986 283.107 87.4313C282.979 87.9329 283.653 87.9829 283.78 87.4882C283.874 86.897 283.91 86.3248 283.907 85.7732C283.998 80.7109 280.041 77.3188 276.795 75.7606C271.402 73.1752 265.939 76.3312 266.04 82.3949C266.022 83.4101 266.159 84.5098 266.486 85.687C266.616 86.1834 267.359 85.9783 267.227 85.4819C267.149 84.9493 267.087 84.1151 267.076 83.5756C267.191 73.7526 282.974 77.5722 283.125 86.7126C283.12 86.8419 283.117 86.9711 283.107 87.1021Z" fill="#4C466A"/>
<path d="M320.884 89.4498C320.853 89.4498 320.817 89.4498 320.784 89.436C320.189 89.2585 319.869 88.9137 319.838 88.8775C319.697 88.7224 319.705 88.4725 319.847 88.3225C319.993 88.1778 320.232 88.1846 320.369 88.3398C320.379 88.3484 320.587 88.5638 320.986 88.6862C321.182 88.7397 321.302 88.9603 321.242 89.1671C321.193 89.3378 321.047 89.4515 320.882 89.4515L320.884 89.4498Z" fill="white"/>
<path d="M319.257 90.7873C319.179 90.7873 319.106 90.7632 319.037 90.7115C318.624 90.3823 318.474 90.0169 318.456 89.9738C318.373 89.7738 318.461 89.5463 318.655 89.4619C318.837 89.3826 319.054 89.4705 319.132 89.6687C319.145 89.6808 319.236 89.8893 319.479 90.0875C319.643 90.2168 319.679 90.4616 319.557 90.6305C319.483 90.7356 319.374 90.7873 319.257 90.7873Z" fill="white"/>
<path fill-rule="evenodd" clip-rule="evenodd" d="M310.781 75.9796C316.009 74.4318 319.273 79.0391 319.247 83.5085C319.21 91.0373 310.235 92.2835 305.219 90.2806C298.522 87.6107 304.53 77.8326 310.781 75.9796Z" fill="white"/>
<path fill-rule="evenodd" clip-rule="evenodd" d="M309.909 89.9737C313.006 89.9737 315.52 87.2159 315.52 83.8342C315.52 80.4507 313.005 77.6912 309.909 77.6912C306.829 77.6912 304.313 80.449 304.313 83.8342C304.313 87.2159 306.827 89.9737 309.909 89.9737Z" fill="#4C466A"/>
<path fill-rule="evenodd" clip-rule="evenodd" d="M310.764 82.8844C311.642 82.8844 312.357 82.1002 312.357 81.1384C312.357 80.1766 311.642 79.3923 310.764 79.3923C309.885 79.3923 309.169 80.1766 309.169 81.1384C309.169 82.1002 309.885 82.8844 310.764 82.8844Z" fill="white"/>
<path fill-rule="evenodd" clip-rule="evenodd" d="M302.731 87.1021C302.758 87.1952 302.753 87.271 302.731 87.3331C302.731 87.371 302.731 87.3986 302.731 87.4313C302.858 87.9329 302.188 87.9829 302.063 87.4882C301.972 86.897 301.93 86.3248 301.939 85.7732C301.848 80.7109 305.801 77.3188 309.045 75.7606C314.441 73.1752 319.905 76.3312 319.804 82.3949C319.822 83.4101 319.685 84.5098 319.353 85.687C319.221 86.1834 318.487 85.9783 318.616 85.4819C318.694 84.9493 318.756 84.1151 318.769 83.5756C318.651 73.7526 302.871 77.5722 302.713 86.7126C302.721 86.8419 302.721 86.9711 302.731 87.1021Z" fill="#4C466A"/>
<path fill-rule="evenodd" clip-rule="evenodd" d="M294.236 84.6305C294.274 83.9135 293.331 83.8652 293.295 84.5857C293.109 88.0864 293.906 91.4233 296.503 94.1725L296.529 94.2036C298.502 96.3495 293.994 98.2196 292.067 98.1938C291.712 98.1886 291.413 98.4316 291.413 98.7315C291.408 99.0297 292.172 100.395 293.455 100.395C296.048 100.395 295.809 98.4868 296.273 98.242C298.233 97.2147 299.772 95.5015 298.002 93.5779L297.97 93.54C295.563 90.9855 294.067 87.8727 294.236 84.6288V84.6305ZM294.86 82.2502C294.938 82.0468 294.804 81.8227 294.56 81.759C294.318 81.6883 294.054 81.7986 293.976 82.002C293.976 82.002 293.876 82.3157 293.785 82.8121C293.741 83.0224 293.917 83.2223 294.176 83.2533C294.427 83.2861 294.664 83.1413 294.708 82.9293C294.786 82.4743 294.86 82.2502 294.86 82.2502Z" fill="#F68B85"/>
<path fill-rule="evenodd" clip-rule="evenodd" d="M294.168 96.1755C293.277 94.657 293.381 93.2918 293.394 93.1333V93.1246C293.403 93.0816 293.42 93.0454 293.458 93.0212C293.785 92.8109 294.143 92.904 294.235 92.9316C294.272 92.9402 294.308 92.9661 294.321 93.004C294.858 94.1692 295.895 95.174 295.895 95.1827C295.938 95.224 295.946 95.2947 295.918 95.3498C295.514 96.0203 294.29 96.2444 294.29 96.2444C294.243 96.2548 294.191 96.2289 294.166 96.1772L294.168 96.1755Z" fill="white"/>
<path fill-rule="evenodd" clip-rule="evenodd" d="M319.055 71.4637C320.539 72.9909 319.822 73.3839 317.736 72.1808C313.306 69.616 307.213 70.2848 303.09 72.0239C300.251 72.4514 299.072 70.5967 300.407 69.9745C305.951 67.4442 314.62 67.4304 319.055 71.4655V71.4637Z" fill="#4C466A"/>
<path fill-rule="evenodd" clip-rule="evenodd" d="M266.792 71.4637C265.304 72.9909 266.019 73.3839 268.105 72.1808C272.533 69.616 278.628 70.2848 282.751 72.0239C285.59 72.4514 286.771 70.5967 285.434 69.9745C279.89 67.4442 271.223 67.4304 266.792 71.4655V71.4637Z" fill="#4C466A"/>
<path d="M261.517 65.5741C261.481 65.5741 261.45 65.5672 261.417 65.5585C258.174 64.6157 256.013 62.7404 255.919 62.6629C255.764 62.525 255.746 62.2785 255.877 62.1113C256 61.9475 256.241 61.9217 256.393 62.0596C256.414 62.0785 258.531 63.909 261.618 64.8036C261.812 64.8605 261.929 65.0794 261.873 65.2845C261.829 65.4586 261.683 65.5741 261.518 65.5741H261.517Z" fill="#9E6D82"/>
<path d="M324.243 56.7473C324.091 56.7473 323.95 56.6439 323.896 56.4853C323.828 56.2784 323.927 56.0544 324.122 55.9872C327.139 54.8668 329.136 52.8881 329.155 52.8691C329.3 52.7226 329.533 52.7243 329.676 52.8846C329.823 53.0397 329.815 53.2862 329.663 53.4396C329.577 53.5189 327.543 55.5493 324.368 56.7197C324.326 56.7335 324.285 56.7456 324.241 56.7456L324.243 56.7473Z" fill="#9E6D82"/>
<path fill-rule="evenodd" clip-rule="evenodd" d="M303.527 27.2768C303.563 27.2768 316.105 26.9562 319.847 32.2891C319.886 32.3356 319.865 32.4304 319.803 32.4821C319.742 32.5356 319.666 32.5356 319.625 32.4942C319.62 32.4925 317.927 30.6534 315.489 31.4962C313.4 32.215 312.437 31.46 311.163 30.4672C310.864 30.2276 310.551 29.9829 310.204 29.7433C309.273 29.0918 308.193 28.5436 307.006 28.1627C305.901 27.8025 304.714 27.5888 303.471 27.556H303.463H303.458C303.385 27.556 303.344 27.4922 303.367 27.4181C303.39 27.3423 303.458 27.2837 303.527 27.2802V27.2768ZM273.733 8.78223C274.6 16.1628 280.644 23.6658 298.712 26.5666L299.49 26.6907C300.064 26.7821 300.376 26.8252 300.231 27.0182V27.02L300.226 27.0234C300.176 27.0872 300.093 27.1096 300.041 27.0734C299.837 27.0872 299.482 27.0596 298.927 27.0217L298.494 26.9889C296.014 26.8217 291.226 26.3805 286.245 25.3635C283.027 24.6999 279.733 23.7985 276.928 22.5661C273.494 21.0579 271.174 19.1705 269.591 17.2435C268.147 15.4906 267.317 13.7049 266.802 12.1399C268.997 10.8868 271.325 9.75263 273.732 8.78395L273.733 8.78223Z" fill="#9E6D82"/>
<path fill-rule="evenodd" clip-rule="evenodd" d="M277.692 128.661C281.634 131.186 285.439 134.411 289.892 134.306C296.193 134.159 302.201 131.908 308.201 129.585C307.829 128.974 307.441 127.716 307.049 126.12C297.992 130.982 287.49 130.924 278.47 125.946C278.208 127.027 277.947 127.963 277.692 128.661Z" fill="#F68B85"/>
<path fill-rule="evenodd" clip-rule="evenodd" d="M320.018 195.493C323.087 195.493 325.591 192.842 325.591 189.594C325.591 186.345 323.087 183.694 320.018 183.694C316.947 183.694 314.444 186.345 314.444 189.594C314.444 192.843 316.948 195.493 320.018 195.493Z" fill="#BC766D"/>
<path fill-rule="evenodd" clip-rule="evenodd" d="M320.018 193.547C322.074 193.547 323.751 191.771 323.751 189.594C323.751 187.417 322.074 185.64 320.018 185.64C317.961 185.64 316.284 187.416 316.284 189.594C316.284 191.771 317.963 193.547 320.018 193.547Z" fill="#FFFF00"/>
<path fill-rule="evenodd" clip-rule="evenodd" d="M320.018 191.59C321.058 191.59 321.905 190.692 321.905 189.593C321.905 188.493 321.056 187.595 320.018 187.595C318.977 187.595 318.129 188.493 318.129 189.593C318.129 190.692 318.977 191.59 320.018 191.59Z" fill="white"/>
<path fill-rule="evenodd" clip-rule="evenodd" d="M238.793 129.989C243.645 127.39 248.835 125.331 254.033 123.335C251.27 119.184 249.017 114.632 247.262 109.825C244.445 108.253 241.919 106.052 239.824 103.29C236.146 98.4436 234.127 92.3092 233.715 86.1386C233.308 80.0456 234.457 73.6665 237.596 68.4766C238.383 67.177 239.27 65.9911 240.242 64.9294C240.242 64.919 240.241 64.9087 240.241 64.8983C238.01 61.2942 236.608 57.3006 236.028 53.1001H227.519C227.923 56.8904 228.837 60.5686 230.255 64.0486C226.305 70.7863 224.769 78.9046 225.294 86.7678C225.828 94.7568 228.483 102.613 233.241 108.885C235.356 111.672 237.81 114.042 240.514 115.954C240.903 116.9 241.309 117.838 241.734 118.763C239.485 119.748 237.268 120.797 235.102 121.952C232.674 123.154 230.263 124.465 227.791 125.544C217.895 129.858 212.787 139.407 209.013 149.344C206.155 156.866 203.91 164.848 201.901 172.667C199.828 180.737 197.988 188.896 196.335 197.077C195.044 203.473 193.8 210.006 192.929 216.483C192.188 221.992 193.221 227.437 195.669 232.123H205.278C205.281 231.787 205.296 231.449 205.32 231.11C202.189 227.526 200.619 222.702 201.287 217.741C202.13 211.469 203.34 205.136 204.592 198.943C206.211 190.925 208.015 182.924 210.047 175.011C211.968 167.532 214.112 159.87 216.845 152.676C219.686 145.195 223.532 137.063 231.005 133.806C233.646 132.654 236.203 131.265 238.792 129.989H238.793ZM338.574 109.826C336.818 114.637 334.559 119.194 331.795 123.347C335.44 124.755 339.076 126.187 342.637 127.816C346.996 129.497 351.009 131.941 355.287 133.806C362.76 137.063 366.606 145.195 369.447 152.676C371.575 158.279 373.347 164.167 374.935 170.031V143.699C371.369 135.934 366.499 129.029 358.501 125.543C354.171 123.655 350.2 121.266 345.784 119.522C345.224 119.267 344.661 119.017 344.097 118.77C344.522 117.843 344.929 116.905 345.32 115.957C348.026 114.046 350.48 111.678 352.595 108.891C357.356 102.618 360.012 94.7602 360.546 86.7695C361.08 78.7529 359.474 70.4726 355.352 63.6591C354.974 63.0334 354.578 62.4284 354.166 61.8406C354.23 59.7998 354.249 57.7573 354.212 55.7148C354.6 54.853 354.959 53.9826 355.29 53.1018H346.007C345.91 53.2983 345.81 53.4931 345.709 53.6879C345.836 56.8162 345.805 59.9515 345.675 63.0782L345.669 63.2419C345.649 63.8056 345.625 64.3675 345.597 64.9311C346.571 65.9929 347.458 67.1787 348.245 68.48C351.384 73.6699 352.533 80.0491 352.128 86.1421C351.716 92.3144 349.697 98.4488 346.017 103.296C343.92 106.057 341.395 108.258 338.576 109.83L338.574 109.826Z" fill="#725673"/>
<path fill-rule="evenodd" clip-rule="evenodd" d="M254.033 123.335C248.835 125.331 243.645 127.392 238.793 129.989C236.203 131.265 233.646 132.654 231.007 133.806C223.533 137.063 219.688 145.195 216.846 152.676C214.114 159.869 211.97 167.532 210.048 175.011C208.016 182.924 206.212 190.925 204.594 198.943C203.343 205.138 202.132 211.469 201.289 217.741C200.621 222.7 202.191 227.526 205.322 231.11C205.297 231.449 205.284 231.787 205.279 232.123H215.003C215.006 231.753 215.047 231.375 215.125 230.994L216.006 226.666C215.715 226.516 215.426 226.363 215.145 226.202C214.379 225.77 213.626 225.275 212.969 224.67C211.471 223.284 210.61 221.332 210.897 219.191C211.708 213.155 212.88 207.053 214.083 201.093C215.666 193.257 217.428 185.439 219.412 177.708C221.233 170.622 223.26 163.328 225.849 156.513C227.514 152.128 230.294 145.23 234.698 143.31C237.531 142.074 240.254 140.598 243.031 139.237C250.643 135.133 259.382 132.378 267.401 129.055C268.388 128.233 269.445 127.535 270.557 126.949C262.909 120.758 257.79 111.821 254.971 102.001C248.076 100.281 243.907 93.1038 243.393 85.4164C243.136 81.559 243.771 77.3205 245.767 74.0215C246.949 72.0686 248.507 70.6225 250.302 69.7659C250.057 66.9581 249.881 64.1399 249.824 61.3287C247.823 58.8708 246.527 56.0871 245.889 53.1053H236.022C236.602 57.3058 238.004 61.3011 240.234 64.9035C240.234 64.9139 240.236 64.9242 240.236 64.9345C239.264 65.9963 238.376 67.1804 237.59 68.4818C234.451 73.6716 233.301 80.0491 233.708 86.1438C234.12 92.3144 236.139 98.4471 239.817 103.296C241.913 106.057 244.438 108.258 247.255 109.83C249.009 114.637 251.264 119.189 254.027 123.34L254.033 123.335ZM331.795 123.348C334.559 119.196 336.819 114.641 338.574 109.828C341.391 108.256 343.918 106.057 346.016 103.294C349.695 98.4454 351.714 92.3109 352.126 86.1404C352.533 80.0473 351.384 73.6682 348.243 68.4783C347.456 67.177 346.567 65.9928 345.595 64.9294C345.623 64.3657 345.648 63.8038 345.667 63.2402L345.674 63.0765C345.805 59.9498 345.835 56.8145 345.708 53.6861C345.809 53.4914 345.91 53.2966 346.006 53.1001H335.961C336.131 56.2681 336.108 59.4517 335.974 62.6197L335.966 62.8196C335.885 65.1362 335.73 67.451 335.53 69.7607C337.326 70.6191 338.884 72.0635 340.066 74.0181C342.062 77.3171 342.697 81.5572 342.44 85.4147C341.927 93.1021 337.757 100.281 330.86 101.998C328.04 111.819 322.917 120.754 315.276 126.94C316.391 127.528 317.451 128.228 318.441 129.052C325.28 131.892 332.327 134.271 339.058 137.374C343.311 138.961 347.391 141.477 351.589 143.306C355.993 145.226 358.773 152.124 360.438 156.509C363.027 163.324 365.056 170.619 366.875 177.705C368.861 185.437 370.623 193.255 372.204 201.089C373.196 206.002 374.166 211.01 374.931 215.999V170.029C373.344 164.166 371.572 158.278 369.444 152.674C366.603 145.194 362.757 137.062 355.283 133.804C351.006 131.939 346.992 129.495 342.634 127.814C339.073 126.185 335.437 124.753 331.791 123.345L331.795 123.348Z" fill="#6F4F70"/>
<path fill-rule="evenodd" clip-rule="evenodd" d="M365.072 232.121C366.038 232.121 366.972 231.973 367.857 231.696C367.855 231.689 367.853 231.682 367.853 231.677L366.403 224.551C367.49 224.1 368.583 223.603 369.587 223.033C370.115 222.733 370.664 222.386 371.115 221.968C371.742 221.385 372.176 220.613 372.054 219.694C371.253 213.741 370.095 207.718 368.908 201.839C367.339 194.067 365.592 186.313 363.622 178.644C362.659 174.899 361.64 171.165 360.528 167.466C359.554 164.229 358.507 160.996 357.311 157.843C356.109 154.679 353.5 148.005 350.307 146.612C348.08 145.642 345.915 144.528 343.742 143.429C341.818 142.455 339.843 141.448 337.827 140.705C330.945 137.522 323.71 135.105 316.72 132.177C314.874 130.527 312.694 129.453 310.36 128.797C310.186 128.748 310.012 128.728 309.843 128.735C309.755 128.673 309.668 128.611 309.581 128.549C309.405 128.238 309.206 127.621 309.037 127.02C319.111 121.068 325.327 110.438 328.212 98.7987C331.231 98.6332 333.866 97.1957 335.818 94.6223C337.814 91.9921 338.855 88.5086 339.076 85.1665C339.281 82.0967 338.819 78.5822 337.226 75.9502C335.929 73.806 334.064 72.5771 331.886 72.4409C332.216 69.1936 332.48 65.9325 332.594 62.6783L332.602 62.4646C332.732 59.35 332.754 56.2181 332.579 53.1035C332.578 53.0673 332.574 53.0311 332.573 52.9949C332.516 51.9918 332.438 50.9904 332.333 49.9924C338.965 41.4001 337.581 28.7469 332.485 19.6599C330.702 16.4798 327.522 12.257 323.836 11.6502C321.962 11.3417 320.278 12.0536 319.052 13.5807C318.365 14.4356 317.863 15.4836 317.494 16.5919C310.862 8.79245 302.369 4.12831 292.152 3.61812C282.656 3.1424 272.991 6.35352 264.788 11.2693C258.794 14.8614 251.331 20.863 247.916 27.3404C245.062 32.7526 246.177 37.1841 251.114 38.4561C250.261 40.39 249.585 42.5515 249.222 44.4216C248.631 47.4552 248.657 50.3905 249.38 53.1035C250.044 55.5907 251.293 57.8918 253.192 59.9084C253.213 64.0848 253.532 68.2835 253.955 72.4409C251.778 72.5771 249.912 73.806 248.616 75.9485C247.024 78.5805 246.563 82.095 246.768 85.163C246.991 88.5034 248.03 91.9869 250.026 94.6172C251.979 97.1905 254.613 98.6298 257.63 98.797C260.484 110.311 266.595 120.84 276.495 126.837C276.311 127.504 276.091 128.209 275.899 128.549C275.793 128.624 275.687 128.7 275.58 128.774C275.55 128.781 275.521 128.788 275.49 128.797C273.157 129.453 270.977 130.526 269.13 132.177C264.934 133.937 260.668 135.517 256.437 137.179C252.443 138.747 248.309 140.398 244.512 142.451C241.669 143.842 238.888 145.35 235.988 146.614C232.795 148.007 230.186 154.68 228.985 157.845C227.788 160.998 226.741 164.231 225.767 167.468C224.655 171.167 223.636 174.9 222.674 178.646C220.703 186.314 218.956 194.069 217.387 201.841C216.2 207.72 215.042 213.742 214.241 219.696C214.117 220.62 214.559 221.395 215.192 221.98C215.648 222.4 216.205 222.75 216.737 223.052C217.734 223.615 218.813 224.107 219.893 224.553L218.427 231.747C218.401 231.875 218.388 232.001 218.387 232.123H220.078L221.579 224.751L221.85 223.426C218.289 222.036 215.809 220.732 215.915 219.947C218.144 203.376 229.152 151.528 236.633 148.269C239.702 146.931 242.611 145.352 245.246 144.063C251.596 140.626 261.199 137.389 269.233 134.056C269.497 133.947 269.759 133.837 270.019 133.726C271.654 132.199 273.647 131.165 275.927 130.524L276.011 130.61C276.342 130.388 276.671 130.157 277 129.919C277.224 129.755 277.457 129.312 277.693 128.664C277.949 127.966 278.209 127.03 278.472 125.949C269.603 121.056 262.166 111.407 258.943 97.0027C245.562 97.9938 245.373 71.6394 255.855 74.411C255.766 73.6027 255.688 72.8598 255.624 72.2082C255.58 71.7618 255.54 71.3171 255.499 70.8759C255.253 68.2922 255.064 65.7688 254.962 63.3229C254.891 61.8785 254.848 60.4703 254.83 59.1C252.928 57.2351 251.777 55.184 251.145 53.1035C248.764 45.261 253.768 37.0272 253.768 37.0272C252.329 36.9738 251.181 36.7187 250.303 36.2999C247.022 34.7296 247.506 30.8342 250.525 26.3114C250.526 26.3132 250.528 26.3131 250.528 26.3149C260.292 11.7192 296.581 -9.37116 318.36 20.4873C321.301 -1.3356 344.872 32.401 330.572 49.4408C330.71 50.625 330.814 51.847 330.888 53.1053C331.054 56.0061 331.05 59.1018 330.915 62.387C330.811 65.5412 330.554 68.8265 330.21 72.2117V72.2134C330.148 72.8649 330.07 73.6061 329.981 74.4145C340.468 71.636 340.282 98.0006 326.897 97.0044C323.635 111.581 316.058 121.289 307.049 126.125C307.441 127.721 307.83 128.981 308.201 129.59C308.294 129.741 308.387 129.853 308.477 129.919C308.879 130.21 309.283 130.491 309.688 130.76L309.922 130.526C312.2 131.167 314.195 132.201 315.83 133.728C316.09 133.838 316.352 133.947 316.616 134.057C323.323 136.839 331.12 139.554 337.208 142.374C340.729 143.663 345.012 146.242 349.663 148.27C357.143 151.531 368.151 203.378 370.38 219.949C370.486 220.733 368.006 222.038 364.445 223.427L364.716 224.753L366.202 232.056C365.831 232.101 365.455 232.125 365.072 232.125V232.121ZM241.869 232.121L242.168 230.942C242.794 231.025 243.424 231.086 244.033 231.092C245.195 231.106 246.539 230.879 246.983 229.531C247.289 228.604 247.595 227.674 247.901 226.747L248.862 232.121H250.58L248.38 219.823C248.092 220.706 247.807 221.575 247.529 222.426C246.767 224.755 246.045 226.952 245.389 228.94C245.217 229.462 243.479 229.389 240.928 228.938L240.12 232.121H241.869ZM345.363 228.938C342.811 229.389 341.074 229.462 340.901 228.94C340.162 226.704 339.343 224.203 338.474 221.547C338.195 220.694 337.91 219.825 337.622 218.943L335.266 232.12H336.984L338.102 225.866C338.503 227.087 338.905 228.309 339.309 229.527C339.755 230.875 341.097 231.103 342.261 231.089C342.87 231.082 343.5 231.023 344.125 230.939L344.425 232.118H346.173L345.366 228.934L345.363 228.938Z" fill="#6F4F70"/>
<path fill-rule="evenodd" clip-rule="evenodd" d="M218.427 231.746L219.893 224.551C218.815 224.105 217.734 223.614 216.737 223.05C216.205 222.748 215.648 222.398 215.192 221.978C214.56 221.394 214.117 220.62 214.241 219.694C215.042 213.741 216.2 207.718 217.387 201.839C218.956 194.067 220.704 186.312 222.674 178.644C223.636 174.899 224.655 171.165 225.767 167.466C226.741 164.229 227.788 160.996 228.985 157.843C230.186 154.679 232.795 148.005 235.988 146.612C238.888 145.349 241.669 143.841 244.512 142.45C248.309 140.398 252.441 138.747 256.437 137.177C260.667 135.515 264.934 133.933 269.13 132.175C270.977 130.525 273.157 129.452 275.49 128.795C275.52 128.786 275.549 128.779 275.58 128.773C275.687 128.698 275.793 128.623 275.899 128.547C276.091 128.207 276.311 127.502 276.495 126.835C266.594 120.839 260.483 110.309 257.63 98.7952C254.613 98.6297 251.979 97.1905 250.026 94.6154C248.03 91.9851 246.991 88.5017 246.768 85.1613C246.563 82.0932 247.024 78.5787 248.616 75.9467C249.912 73.8043 251.778 72.5753 253.955 72.4391C253.53 68.2818 253.211 64.083 253.192 59.9066C251.293 57.89 250.043 55.5907 249.38 53.1017C248.657 50.3888 248.631 47.4534 249.222 44.4198C249.587 42.5514 250.261 40.3883 251.114 38.4543C246.177 37.184 245.062 32.7526 247.916 27.3387C251.331 20.8612 258.796 14.8578 264.788 11.2675C272.991 6.35173 282.656 3.14061 292.152 3.61633C302.369 4.12825 310.862 8.79067 317.494 16.5901C317.863 15.4818 318.365 14.4338 319.052 13.5789C320.28 12.0518 321.963 11.3382 323.836 11.6484C327.522 12.2569 330.702 16.4798 332.485 19.6582C337.581 28.7451 338.965 41.3983 332.333 49.9906C332.438 50.9886 332.516 51.99 332.573 52.9932C332.574 53.0294 332.578 53.0656 332.579 53.1017C332.754 56.2163 332.732 59.3465 332.602 62.4628L332.594 62.6765C332.48 65.9324 332.216 69.1918 331.886 72.4391C334.064 72.5753 335.929 73.806 337.226 75.9485C338.819 78.5804 339.279 82.0966 339.076 85.1647C338.853 88.5051 337.814 91.9886 335.818 94.6205C333.864 97.1939 331.23 98.6314 328.212 98.7969C325.327 110.438 319.111 121.066 309.037 127.018C309.206 127.619 309.405 128.236 309.581 128.547C309.667 128.609 309.755 128.671 309.843 128.733C310.012 128.726 310.186 128.747 310.36 128.795C312.694 129.452 314.874 130.524 316.72 132.175C323.71 135.105 330.945 137.522 337.827 140.704C339.843 141.446 341.82 142.453 343.742 143.427C345.915 144.527 348.08 145.64 350.308 146.61C353.5 148.003 356.109 154.677 357.311 157.842C358.507 160.994 359.554 164.228 360.528 167.465C361.64 171.163 362.659 174.897 363.622 178.642C365.592 186.311 367.339 194.065 368.908 201.837C370.095 207.717 371.253 213.739 372.054 219.692C372.178 220.611 371.742 221.383 371.115 221.966C370.665 222.385 370.115 222.733 369.587 223.031C368.583 223.601 367.49 224.1 366.403 224.549L367.853 231.675C367.855 231.682 367.857 231.689 367.857 231.694C368.993 231.337 370.045 230.768 370.973 230.032L370.288 226.663C370.592 226.506 370.892 226.345 371.185 226.178C371.945 225.746 372.694 225.253 373.344 224.648C374.005 224.032 374.54 223.307 374.905 222.502C374.925 222.229 374.936 221.955 374.936 221.678V215.997C374.171 211.009 373.2 206 372.209 201.087C370.626 193.252 368.864 185.433 366.88 177.703C365.059 170.617 363.032 163.323 360.443 156.507C358.778 152.123 355.998 145.225 351.594 143.304C347.396 141.474 343.316 138.959 339.063 137.372C332.332 134.269 325.285 131.889 318.446 129.05C317.458 128.226 316.398 127.526 315.281 126.939C322.921 120.754 328.045 111.817 330.865 101.996C337.762 100.277 341.932 93.1003 342.445 85.4129C342.702 81.5554 342.065 77.3153 340.071 74.0163C338.889 72.0617 337.329 70.6173 335.535 69.7589C335.735 67.4492 335.89 65.1327 335.971 62.8178L335.979 62.6179C336.113 59.4499 336.134 56.2663 335.966 53.0983C335.96 52.9897 335.955 52.8811 335.948 52.7725C335.916 52.1934 335.875 51.616 335.828 51.0386C342.394 41.3242 341.001 27.8299 335.393 17.8294C333.03 13.6168 329.188 8.90788 324.36 8.11156C321.512 7.64273 318.806 8.65623 316.844 10.8349C301.778 -3.62463 281.192 -2.67491 263.129 8.1512C256.554 12.0914 248.712 18.4947 244.971 25.5909C241.753 31.6943 242.592 37.3978 246.783 40.3297C246.421 41.4759 246.127 42.6186 245.918 43.6907C245.285 46.9398 245.264 50.1164 245.9 53.0949C246.537 56.0767 247.835 58.8621 249.836 61.3183C249.891 64.1313 250.069 66.9494 250.313 69.7555C248.519 70.6138 246.959 72.0582 245.778 74.0111C243.782 77.3101 243.147 81.5485 243.404 85.406C243.917 93.0917 248.086 100.271 254.983 101.991C257.803 111.81 262.92 120.747 270.568 126.939C269.456 127.525 268.399 128.223 267.413 129.045C259.392 132.368 250.655 135.122 243.043 139.226C240.265 140.588 237.543 142.065 234.71 143.299C230.305 145.219 227.526 152.116 225.86 156.502C223.271 163.318 221.244 170.612 219.424 177.698C217.437 185.43 215.676 193.248 214.095 201.082C212.891 207.043 211.719 213.144 210.908 219.18C210.62 221.321 211.481 223.276 212.981 224.66C213.637 225.265 214.391 225.759 215.156 226.192C215.438 226.351 215.726 226.506 216.017 226.656L215.137 230.984C215.058 231.365 215.018 231.742 215.015 232.113H218.396C218.398 231.989 218.411 231.863 218.437 231.737L218.427 231.746ZM246.985 229.531C246.539 230.879 245.197 231.106 244.034 231.092C243.426 231.085 242.795 231.027 242.17 230.942L241.871 232.121H248.864L247.903 226.747C247.599 227.674 247.293 228.603 246.985 229.531ZM338.104 225.87L336.985 232.123H344.425L344.125 230.944C343.5 231.029 342.87 231.087 342.261 231.094C341.098 231.108 339.755 230.88 339.309 229.533C338.905 228.312 338.504 227.092 338.102 225.872L338.104 225.87Z" fill="white"/>
</svg>
