<svg width="380" height="238" viewBox="0 0 380 238" fill="none" xmlns="http://www.w3.org/2000/svg">
<path fill-rule="evenodd" clip-rule="evenodd" d="M14.9277 47.0715H365.073C373.293 47.0715 380.001 54.1962 380.001 62.9296V221.63C380.001 230.361 373.294 237.488 365.073 237.488H14.9277C6.70833 237.488 0 230.361 0 221.63V62.9296C0 54.198 6.7067 47.0715 14.9277 47.0715Z" fill="white"/>
<path d="M353.366 52.4526H26.6347C14.7223 52.4526 5.06543 53.5237 5.06543 54.8448V229.714C5.06543 231.035 14.7223 232.106 26.6347 232.106H353.366C365.279 232.106 374.935 231.035 374.935 229.714V54.8448C374.935 53.5237 365.279 52.4526 353.366 52.4526Z" fill="#735974"/>
<path fill-rule="evenodd" clip-rule="evenodd" d="M21.1035 127.681V74.1691C21.1035 71.5936 23.0851 69.4885 25.5095 69.4885H186.174C186.64 69.4885 187.017 69.8916 187.017 70.3862C187.017 70.8809 186.638 71.2822 186.174 71.2822H25.5095C24.0164 71.2822 22.792 72.583 22.792 74.1691V127.681C22.792 128.176 22.4126 128.577 21.9486 128.577C21.4829 128.577 21.1051 128.174 21.1051 127.681H21.1035ZM201.655 69.4885H210.871C211.337 69.4885 211.715 69.8916 211.715 70.3862C211.715 70.8809 211.335 71.2822 210.871 71.2822H201.655C201.19 71.2822 200.81 70.8792 200.81 70.3862C200.81 69.8916 201.19 69.4885 201.655 69.4885ZM186.106 215.067H25.5095C23.0851 215.067 21.1035 212.963 21.1035 210.386V200.97C21.1035 200.475 21.4829 200.072 21.9469 200.072C22.4126 200.072 22.7904 200.475 22.7904 200.97V210.386C22.7904 211.972 24.0148 213.273 25.5079 213.273H186.104C186.57 213.273 186.947 213.676 186.947 214.169C186.947 214.664 186.568 215.065 186.104 215.065L186.106 215.067Z" fill="white"/>
<path d="M30.5571 168.987C30.5571 168.347 30.3422 167.852 29.9188 167.496C29.4922 167.14 28.7465 166.771 27.6816 166.391C26.6135 166.01 25.744 165.64 25.065 165.286C22.8604 164.134 21.7581 162.553 21.7581 160.541C21.7581 159.541 22.03 158.655 22.5804 157.889C23.1307 157.123 23.909 156.53 24.9136 156.101C25.915 155.673 27.0466 155.461 28.2987 155.461C29.5231 155.461 30.6206 155.694 31.5894 156.156C32.5582 156.618 33.3121 157.279 33.851 158.135C34.3899 158.991 34.657 159.97 34.657 161.067H30.5685C30.5685 160.33 30.3536 159.757 29.9302 159.351C29.5036 158.944 28.9288 158.74 28.2075 158.74C27.4732 158.74 26.8952 158.913 26.4718 159.257C26.0452 159.6 25.8336 160.041 25.8336 160.57C25.8336 161.036 26.0697 161.456 26.5353 161.833C27.001 162.21 27.8233 162.599 29.0005 163.002C30.1777 163.405 31.1416 163.841 31.8955 164.303C33.7338 165.431 34.6553 166.981 34.6553 168.963C34.6553 170.544 34.0936 171.784 32.9718 172.687C31.8515 173.59 30.3112 174.043 28.3573 174.043C26.9766 174.043 25.7294 173.78 24.6124 173.254C23.4954 172.728 22.6536 172.009 22.087 171.094C21.5204 170.179 21.2419 169.124 21.2419 167.934H25.3532C25.3532 168.899 25.5893 169.617 26.0599 170.073C26.5305 170.535 27.2957 170.764 28.3573 170.764C29.0347 170.764 29.5687 170.606 29.9644 170.298C30.3552 169.989 30.5538 169.553 30.5538 168.989L30.5571 168.987Z" fill="#4B4669"/>
<path d="M42.1469 155.713L45.9439 168.288L49.7279 155.713H55.1288V173.787H51.0159V169.567L51.4115 160.928L47.2986 173.787H44.5876L40.4633 160.916L40.8622 169.567V173.787H36.759V155.713H42.1469Z" fill="#4B4669"/>
<path d="M63.5191 167.059L61.8404 169.02V173.787H57.7356V155.713H61.8404V163.682L63.2635 161.385L66.9335 155.713H72.0022L66.2545 163.708L72.0022 173.787H67.1452L63.5191 167.059Z" fill="#4B4669"/>
<path d="M74.2084 175.337H71.416L77.2223 155.713H80.0261L74.2084 175.337Z" fill="#4B4669"/>
<path d="M86.8273 155.713L90.6227 168.288L94.4083 155.713H99.8076V173.787H95.6963V169.567L96.0919 160.928L91.979 173.787H89.268L85.1437 160.916L85.5426 169.567V173.787H81.4378V155.713H86.8273Z" fill="#4B4669"/>
<path d="M112.288 170.406H106.669L105.687 173.787H101.304L107.545 155.713H111.397L117.687 173.787H113.28L112.286 170.406H112.288ZM107.649 167.05H111.306L109.471 160.775L107.649 167.05Z" fill="#4B4669"/>
<path d="M124.71 167.059L123.031 169.02V173.787H118.928V155.713H123.031V163.682L124.456 161.385L128.124 155.713H133.193L127.447 163.708L133.193 173.787H128.336L124.71 167.059Z" fill="#4B4669"/>
<path d="M59.004 183.276H21.1035V190.494H59.004V183.276Z" fill="#4B4669"/>
<path d="M29.2903 167.193C29.2903 166.553 29.0754 166.059 28.652 165.702C28.2254 165.346 27.4797 164.978 26.4148 164.597C25.3467 164.217 24.4772 163.846 23.7983 163.492C21.5936 162.34 20.4913 160.759 20.4913 158.747C20.4913 157.747 20.7632 156.862 21.3136 156.096C21.8639 155.329 22.6422 154.736 23.6468 154.307C24.6482 153.88 25.7798 153.667 27.0319 153.667C28.2564 153.667 29.3538 153.901 30.3226 154.362C31.2914 154.824 32.0453 155.485 32.5842 156.341C33.1232 157.197 33.3902 158.176 33.3902 159.273H29.3017C29.3017 158.536 29.0868 157.964 28.6634 157.557C28.2368 157.151 27.6621 156.947 26.9408 156.947C26.2064 156.947 25.6284 157.12 25.2051 157.464C24.7785 157.806 24.5668 158.247 24.5668 158.777C24.5668 159.242 24.8029 159.662 25.2686 160.039C25.7342 160.416 26.5565 160.806 27.7337 161.209C28.9109 161.612 29.8748 162.047 30.6287 162.509C32.467 163.637 33.3886 165.187 33.3886 167.169C33.3886 168.75 32.8268 169.99 31.705 170.893C30.5847 171.796 29.0444 172.249 27.0906 172.249C25.7098 172.249 24.4626 171.986 23.3456 171.461C22.2286 170.935 21.3868 170.215 20.8202 169.3C20.2536 168.385 19.9752 167.33 19.9752 166.14H24.0865C24.0865 167.105 24.3225 167.823 24.7931 168.28C25.2637 168.741 26.0289 168.97 27.0906 168.97C27.7679 168.97 28.302 168.812 28.6976 168.505C29.0884 168.195 29.287 167.759 29.287 167.195L29.2903 167.193Z" fill="white"/>
<path d="M40.8801 153.92L44.6771 166.495L48.4611 153.92H53.862V171.994H49.7507V167.773L50.1447 159.135L46.0334 171.994H43.3208L39.1965 159.123L39.5954 167.773V171.994H35.4922V153.92H40.8801Z" fill="white"/>
<path d="M62.2523 165.265L60.5736 167.226V171.994H56.4705V153.92H60.5736V161.888L61.9983 159.593L65.6667 153.92H70.7354L64.9894 161.914L70.7354 171.994H65.8784L62.2523 165.265Z" fill="white"/>
<path d="M72.9417 173.545H70.1492L75.9571 153.92H78.761L72.9417 173.545Z" fill="white"/>
<path d="M85.5605 153.92L89.3575 166.495L93.1416 153.92H98.5424V171.994H94.4295V167.773L94.8252 159.135L90.7139 171.994H88.0012L83.8769 159.123L84.2758 167.773V171.994H80.1727V153.92H85.5605Z" fill="white"/>
<path d="M111.021 168.612H105.402L104.42 171.994H100.037L106.278 153.92H110.131L116.42 171.994H112.013L111.02 168.612H111.021ZM106.382 165.256H110.039L108.204 158.981L106.382 165.256Z" fill="white"/>
<path d="M123.445 165.265L121.766 167.226V171.994H117.661V153.92H121.766V161.888L123.189 159.593L126.857 153.92H131.928L126.18 161.914L131.928 171.994H127.069L123.445 165.265Z" fill="white"/>
<path d="M57.7372 181.483H19.8368V188.701H57.7372V181.483Z" fill="white"/>
<path fill-rule="evenodd" clip-rule="evenodd" d="M269.47 160.131L247.8 220.592C246.305 225.864 241.067 228.848 236.099 227.256C231.138 225.665 228.331 220.1 229.825 214.83L243.26 151.73C243.359 151.053 243.506 150.372 243.695 149.696C245.899 141.933 253.616 137.539 260.928 139.879C268.236 142.225 272.375 150.422 270.17 158.185C269.976 158.861 269.738 159.51 269.47 160.131Z" fill="#FCD1C8"/>
<path fill-rule="evenodd" clip-rule="evenodd" d="M260.926 139.881C253.616 137.541 245.898 141.936 243.693 149.697C241.487 157.466 245.628 165.659 252.933 168.003C260.244 170.345 267.962 165.948 270.168 158.187C272.373 150.424 268.232 142.227 260.926 139.881Z" fill="#FCD1C8"/>
<path fill-rule="evenodd" clip-rule="evenodd" d="M241.524 208.16C236.563 206.569 231.325 209.553 229.825 214.832C228.331 220.102 231.138 225.665 236.099 227.258C241.067 228.849 246.305 225.866 247.8 220.593C249.302 215.319 246.489 209.752 241.524 208.162V208.16Z" fill="#FCD1C8"/>
<path fill-rule="evenodd" clip-rule="evenodd" d="M239.634 207.776C234.468 207.295 229.913 211.355 229.461 216.842C229.013 222.328 232.834 227.166 237.999 227.647C243.161 228.123 247.718 224.068 248.171 218.577C248.619 213.09 244.795 208.254 239.634 207.778V207.776Z" fill="#FCD1C8"/>
<path fill-rule="evenodd" clip-rule="evenodd" d="M253.171 232.105C256.563 212.533 259.897 193.134 259.897 193.134L252.889 137.185C252.889 137.185 243.428 141.625 239.058 156.244C234.681 170.862 227.355 207.344 225.68 216.362C225.118 219.391 224.355 225.319 223.581 232.103H253.169L253.171 232.105Z" fill="white"/>
<path fill-rule="evenodd" clip-rule="evenodd" d="M334.928 158.536L354.509 219.787C355.825 225.118 360.959 228.304 365.975 226.903C370.989 225.506 373.985 220.054 372.671 214.724L361.41 151.15C361.33 150.47 361.216 149.789 361.045 149.102C359.107 141.26 351.549 136.567 344.16 138.629C336.774 140.687 332.36 148.715 334.3 156.562C334.467 157.246 334.677 157.903 334.926 158.536H334.928Z" fill="#FCD1C8"/>
<path fill-rule="evenodd" clip-rule="evenodd" d="M344.162 138.629C351.551 136.565 359.109 141.26 361.047 149.102C362.986 156.948 358.57 164.978 351.186 167.039C343.794 169.1 336.24 164.407 334.303 156.564C332.364 148.717 336.778 140.689 344.163 138.631L344.162 138.629Z" fill="#FCD1C8"/>
<path fill-rule="evenodd" clip-rule="evenodd" d="M361.205 207.613C366.218 206.216 371.357 209.399 372.671 214.726C373.985 220.055 370.989 225.507 365.975 226.905C360.959 228.306 355.825 225.12 354.509 219.789C353.194 214.461 356.191 209.013 361.205 207.613Z" fill="#FCD1C8"/>
<path fill-rule="evenodd" clip-rule="evenodd" d="M363.111 207.295C368.294 207.019 372.702 211.251 372.965 216.75C373.227 222.254 369.243 226.94 364.064 227.22C358.891 227.498 354.478 223.268 354.215 217.764C353.952 212.265 357.935 207.577 363.111 207.297V207.295Z" fill="#FCD1C8"/>
<path fill-rule="evenodd" clip-rule="evenodd" d="M279.067 126.671C279.067 126.671 270.25 127.621 252.889 137.186C252.889 137.186 251.429 149.118 251.717 175.503H344.312C344.056 165.052 344.717 143.621 353.716 135.891C353.716 135.891 339.067 124.148 316.493 122.096L279.065 126.673L279.067 126.671Z" fill="white"/>
<path fill-rule="evenodd" clip-rule="evenodd" d="M251.678 167.522C251.678 168.726 251.678 169.97 251.684 171.253H344.274C344.281 170.07 344.299 168.819 344.346 167.522H251.678Z" fill="#FF808F"/>
<path fill-rule="evenodd" clip-rule="evenodd" d="M251.709 174.957C251.79 182.813 252.025 191.97 252.499 202.501C252.499 202.501 250.599 216.382 248.539 232.106H347.425C346.573 225.822 345.992 221.483 345.992 221.483C345.992 221.483 344.603 207.486 345.606 200.031C345.764 198.86 346.189 196.566 346.782 193.53L344.585 181.388C344.585 181.388 344.369 178.857 344.294 174.958H251.707L251.709 174.957Z" fill="#FF808F"/>
<path fill-rule="evenodd" clip-rule="evenodd" d="M353.716 135.889C353.716 135.889 361.755 140.599 364.58 153.032C366.773 162.67 371.985 187.922 374.934 202.725V221.628C374.934 227.389 370.495 232.105 365.072 232.105H349.952C348.929 224.032 348.122 217.724 348.122 217.724C348.122 217.724 342.921 194.336 341.684 185.07C340.453 175.804 337.826 145.311 353.716 135.889Z" fill="white"/>
<path d="M251.709 175.47C251.444 175.47 251.227 175.244 251.227 174.957C251.165 169.274 251.186 163.803 251.287 158.704C251.289 158.419 251.515 158.208 251.784 158.196C252.051 158.199 252.263 158.436 252.259 158.721C252.157 163.817 252.142 169.273 252.197 174.948C252.204 175.232 251.984 175.465 251.715 175.472H251.707L251.709 175.47ZM345.723 207.11C345.5 207.11 345.3 206.946 345.251 206.702C343.11 196.483 341.754 189.225 341.203 185.143C340.598 180.589 339.376 168.771 341.207 157.545C341.255 157.263 341.498 157.083 341.772 157.123C342.037 157.173 342.214 157.438 342.164 157.722C340.357 168.802 341.562 180.488 342.164 184.996C342.7 188.998 344.09 196.421 346.195 206.477C346.256 206.761 346.088 207.031 345.829 207.096L345.722 207.11H345.723Z" fill="#E4D9E1"/>
<path fill-rule="evenodd" clip-rule="evenodd" d="M319.584 122.103C318.061 120.674 316.203 119.709 314.08 119.109L298.242 135.031L313.186 146.105C313.689 146.478 314.666 145.792 314.797 145.155C316.365 137.544 317.482 129.741 319.584 122.103Z" fill="white"/>
<path fill-rule="evenodd" clip-rule="evenodd" d="M272.987 127.187C274.117 125.808 275.576 124.779 277.295 124.027L292.25 135.533L280.858 146.586C280.473 146.957 279.583 146.496 279.407 145.977C277.298 139.771 275.548 133.352 272.988 127.187H272.987Z" fill="white"/>
<path fill-rule="evenodd" clip-rule="evenodd" d="M305.066 128.169L310.363 122.843L313.987 119.199C312.919 117.504 311.88 115.046 311.732 111.775L284.015 107.883L283.377 107.951C283.377 107.951 283.377 116.904 283.377 120.659C283.377 123.297 281.248 125.196 279.983 126.092L280.506 126.495L284.005 129.188L292.25 135.531L294.471 141.447C295.728 139.307 296.985 137.167 298.241 135.029L305.065 128.167L305.066 128.169Z" fill="#FCD1C8"/>
<path fill-rule="evenodd" clip-rule="evenodd" d="M295.061 143.174C298.662 138.397 304.931 142.462 311.149 146.357L312.406 147.289C313.769 148.3 315.798 147.049 316.124 145.463C317.693 137.845 318.804 130.12 320.857 122.62C320.406 122.553 319.952 122.489 319.494 122.428C317.449 129.963 316.342 137.651 314.797 145.155C314.665 145.792 313.689 146.478 313.186 146.105L298.242 135.031C298.001 135.441 297.762 135.849 297.521 136.259C296.505 137.989 295.489 139.718 294.473 141.45L293.848 139.784C293.126 141.011 292.407 142.237 291.687 143.463C291.576 143.652 291.516 143.835 291.49 144.057C290.611 151.833 290.109 159.667 289.889 167.522C289.855 168.766 289.826 170.009 289.805 171.253C289.784 172.486 289.769 173.721 289.761 174.956C289.759 175.138 289.759 175.321 289.758 175.503C289.699 186.68 290.14 197.872 290.806 208.963C291.269 216.674 291.487 224.388 291.54 232.106H294.26C294.206 224.329 293.986 216.553 293.52 208.779C292.859 197.751 292.418 186.62 292.477 175.503C292.478 175.321 292.478 175.138 292.48 174.956C292.488 173.721 292.503 172.488 292.524 171.253C292.545 170.009 292.573 168.766 292.609 167.522C292.825 159.889 293.31 152.276 294.154 144.721C294.457 144.205 294.758 143.692 295.061 143.176V143.174ZM279.407 145.977C277.399 140.066 275.716 133.962 273.348 128.067C272.935 128.197 272.498 128.337 272.039 128.491C274.405 134.349 276.092 140.476 278.127 146.468C278.617 147.912 280.626 148.768 281.774 147.653L292.788 136.967L292.249 135.533L280.856 146.585C280.472 146.957 279.581 146.496 279.405 145.977H279.407Z" fill="black" fill-opacity="0.090196"/>
<path fill-rule="evenodd" clip-rule="evenodd" d="M320.617 70.4226C337.279 53.3502 338.75 93.9692 320.352 87.1386C310.379 83.4473 320.617 70.4226 320.617 70.4226Z" fill="#FCD1C8"/>
<path fill-rule="evenodd" clip-rule="evenodd" d="M321.953 72.8286C333.319 61.172 334.326 88.889 321.767 84.236C314.964 81.7072 321.953 72.8286 321.953 72.8286Z" fill="#F68B85"/>
<path fill-rule="evenodd" clip-rule="evenodd" d="M264.575 70.4226C247.918 53.3502 246.443 93.9692 264.841 87.1386C274.814 83.4473 264.575 70.4226 264.575 70.4226Z" fill="#FCD1C8"/>
<path fill-rule="evenodd" clip-rule="evenodd" d="M263.247 72.8286C251.877 61.172 250.87 88.889 263.426 84.236C270.229 81.7072 263.247 72.8286 263.247 72.8286Z" fill="#F68B85"/>
<path fill-rule="evenodd" clip-rule="evenodd" d="M295.318 19.9753C251.727 20.7209 258.142 48.9429 261.986 81.1763C267.973 131.354 322.664 131.354 328.651 81.1763C332.497 48.9429 338.901 20.7209 295.32 19.9753H295.318Z" fill="#FCD1C8"/>
<path fill-rule="evenodd" clip-rule="evenodd" d="M331.392 50.6589C331.3 45.5701 330.662 40.912 329.117 36.8489C320.526 37.0149 310.674 38.7965 304.089 44.7468L301.562 47.2808C301.562 47.2808 319.873 42.3304 324.328 49.7284C325.694 51.9995 328.36 51.8974 331.39 50.6589H331.392ZM271.21 51.1035C270.873 51.1277 274.32 50.4099 274.32 50.4099C274.32 50.4099 276.551 59.5341 269.543 59.0896C262.535 58.6485 270.877 51.1485 270.877 51.1485C270.877 51.1485 271.194 51.1035 271.212 51.1035H271.21Z" fill="#F68B85"/>
<path fill-rule="evenodd" clip-rule="evenodd" d="M328.567 81.875C329.091 77.504 330.261 68.5372 330.691 64.0624C333.57 34.057 329.641 17.1853 295.32 17.1853C260.996 17.1853 257.067 34.0587 259.948 64.0624C260.373 68.5372 261.547 77.504 262.073 81.875C262.073 81.875 266.897 77.1495 265.979 67.7381C269.279 62.8533 270.25 58.1935 270.009 50.6432C269.605 37.954 286.348 34.7748 295.32 34.7748C304.29 34.7748 327.717 35.4892 327.311 48.1767C327.073 55.7303 325.349 62.1614 328.656 67.0444C327.73 76.461 328.568 81.875 328.568 81.875H328.567Z" fill="#352236"/>
<path fill-rule="evenodd" clip-rule="evenodd" d="M328.806 31.0888C336.555 35.1225 341.573 53.25 323.731 54.9053C320.751 55.1786 320.74 52.4699 320.74 52.4699C321.085 44.0859 318.865 42.4738 318.865 42.4738C312.283 44.1499 302.544 47.682 296.246 48.1283C289.946 47.6803 285.573 46.6009 279.058 44.6377C276.38 43.8299 274.139 45.9125 274.223 53.3347C274.223 53.3347 273.936 56.3254 271.902 56.3565C264.722 56.4811 252.176 57.6763 257.574 40.0833C247.64 22.819 266.295 11.2368 276.745 15.0785C283.803 1.66629 328.355 -4.59529 328.804 31.0888H328.806Z" fill="#735974"/>
<path fill-rule="evenodd" clip-rule="evenodd" d="M320.831 11.0535C325.541 15.2653 328.69 21.7362 328.808 31.0888C328.808 31.0888 322.102 27.6415 313.771 29.8866C313.771 29.8866 328.477 24.9725 320.831 11.0535Z" fill="#513B52"/>
<path fill-rule="evenodd" clip-rule="evenodd" d="M318.869 42.4722C312.411 44.1189 302.915 47.5524 296.608 48.099C298.542 38.6287 313.04 35.9356 318.869 42.4722Z" fill="#352236"/>
<path fill-rule="evenodd" clip-rule="evenodd" d="M270.408 14.4645C272.646 14.1947 274.84 14.3797 276.748 15.0785C276.748 15.0785 275.558 18.4826 278.762 20.7953C278.762 20.7953 271.891 20.6379 270.408 14.4645Z" fill="#513B52"/>
<path fill-rule="evenodd" clip-rule="evenodd" d="M256.418 46.3154C256.424 44.5477 256.786 42.4789 257.576 40.0833C257.576 40.0833 259.754 43.3317 263.794 42.2489C263.794 42.2489 260.391 46.5645 256.418 46.3154Z" fill="#513B52"/>
<path fill-rule="evenodd" clip-rule="evenodd" d="M292.25 26.1712C292.281 26.1539 302.899 20.4372 308.157 23.4002C308.207 23.4296 308.222 23.5161 308.191 23.5905C308.162 23.6579 308.098 23.6925 308.046 23.6735C308.041 23.6683 305.879 22.8277 304.123 24.6058C302.603 26.1332 301.491 25.9014 300.022 25.5952C299.672 25.526 299.306 25.4482 298.921 25.3894C297.866 25.2355 296.731 25.2355 295.569 25.4188C294.491 25.5918 293.389 25.9239 292.309 26.4324L292.302 26.4359L292.296 26.4411C292.237 26.4705 292.175 26.4324 292.166 26.358C292.159 26.2871 292.193 26.2041 292.252 26.1747L292.25 26.1712ZM258.445 20.8091C261.276 28.022 269.139 33.6678 287.849 27.6449L288.567 27.4166C289.092 27.2437 289.377 27.1468 289.328 27.3717L289.321 27.3786C289.3 27.4547 289.243 27.51 289.186 27.5031V27.5014C289.02 27.6 288.704 27.7332 288.211 27.939L287.83 28.1033C285.645 29.0287 281.371 30.7273 276.712 32.0108C273.705 32.8341 270.531 33.4845 267.656 33.6453C264.136 33.8356 261.416 33.2181 259.323 32.2495C257.33 31.331 255.892 30.0977 254.837 28.9319C255.174 25.782 256.519 23.0422 258.443 20.8074L258.445 20.8091Z" fill="#9E6D82"/>
<path fill-rule="evenodd" clip-rule="evenodd" d="M300.672 100.309C301.087 100.255 301.383 99.8571 301.329 99.4316C301.281 99.0044 300.89 98.7017 300.471 98.7536C300.463 98.7536 298.132 99.4178 295.315 98.9058C294.318 98.7242 294.159 99.8762 295.158 100.058C298.197 100.613 300.665 100.309 300.673 100.309H300.672Z" fill="#F68B85"/>
<path fill-rule="evenodd" clip-rule="evenodd" d="M305.941 96.1175C306.38 95.9688 306.602 95.519 306.45 95.1091C306.299 94.7043 305.809 94.4916 305.376 94.6352C305.359 94.6421 298.674 96.9703 290.09 94.8202C289.025 94.5539 288.851 95.5363 289.909 95.8027C297.739 98.3402 305.924 96.1245 305.942 96.1175H305.941Z" fill="#F68B85"/>
<path d="M271.65 81.4322C271.492 81.4322 271.354 81.3249 271.311 81.1623C271.259 80.9652 271.37 80.7559 271.555 80.704C271.941 80.5881 272.143 80.3753 272.143 80.3753C272.274 80.2283 272.501 80.2231 272.637 80.3667C272.773 80.5068 272.786 80.7403 272.65 80.8873C272.619 80.9219 272.317 81.2488 271.744 81.4201C271.722 81.4339 271.684 81.4339 271.652 81.4339L271.65 81.4322Z" fill="white"/>
<path d="M273.192 82.7053C273.089 82.7053 272.982 82.6551 272.917 82.5565C272.796 82.3957 272.835 82.1587 272.987 82.0394C273.226 81.8491 273.317 81.6415 273.317 81.6415C273.395 81.4582 273.599 81.3682 273.776 81.4495C273.949 81.5325 274.035 81.7418 273.962 81.9321C273.946 81.9719 273.802 82.3213 273.404 82.6344C273.345 82.6845 273.272 82.7053 273.192 82.7053Z" fill="white"/>
<path fill-rule="evenodd" clip-rule="evenodd" d="M281.23 68.6098C276.286 67.1361 273.182 71.5226 273.208 75.776C273.239 82.9422 281.756 84.1288 286.516 82.2227C292.871 79.6817 287.17 70.3741 281.23 68.6098Z" fill="white"/>
<path fill-rule="evenodd" clip-rule="evenodd" d="M282.059 81.9304C284.989 81.9304 287.375 79.3047 287.375 76.0857C287.375 72.865 284.989 70.2393 282.059 70.2393C279.13 70.2393 276.745 72.865 276.745 76.0857C276.745 79.3047 279.13 81.9304 282.059 81.9304Z" fill="#4C466A"/>
<path fill-rule="evenodd" clip-rule="evenodd" d="M281.257 75.1827C282.089 75.1827 282.766 74.4354 282.766 73.5204C282.766 72.6054 282.089 71.8582 281.257 71.8582C280.423 71.8582 279.742 72.6054 279.742 73.5204C279.742 74.4354 280.423 75.1827 281.257 75.1827Z" fill="white"/>
<path fill-rule="evenodd" clip-rule="evenodd" d="M288.873 79.1975C288.852 79.2875 288.852 79.3584 288.878 79.4172C288.878 79.4535 288.878 79.4795 288.873 79.5106C288.751 79.988 289.391 80.0365 289.512 79.5643C289.601 79.0004 289.635 78.4572 289.632 77.9314C289.718 73.1124 285.965 69.883 282.886 68.4006C277.772 65.9393 272.589 68.9438 272.685 74.7158C272.668 75.6828 272.799 76.7292 273.109 77.8501C273.233 78.3223 273.936 78.1269 273.812 77.6546C273.737 77.1461 273.68 76.3522 273.669 75.8402C273.778 66.4893 288.75 70.1252 288.893 78.8274C288.888 78.9502 288.885 79.073 288.877 79.1975H288.873Z" fill="#4C466A"/>
<path d="M324.706 81.4324C324.677 81.4324 324.644 81.4324 324.612 81.4185C324.047 81.249 323.744 80.9221 323.714 80.8858C323.579 80.7387 323.587 80.5 323.723 80.3582C323.861 80.2198 324.089 80.2267 324.219 80.3738C324.229 80.3824 324.426 80.5865 324.805 80.7024C324.991 80.7543 325.105 80.9636 325.048 81.1608C325.001 81.3234 324.862 81.4306 324.706 81.4306V81.4324Z" fill="white"/>
<path d="M323.162 82.7053C323.089 82.7053 323.019 82.6828 322.954 82.6344C322.563 82.3213 322.42 81.9719 322.402 81.9321C322.324 81.7418 322.407 81.5256 322.591 81.4443C322.763 81.3682 322.97 81.453 323.044 81.6415C323.057 81.6519 323.143 81.8508 323.372 82.0393C323.529 82.1622 323.563 82.3957 323.447 82.5565C323.377 82.6568 323.275 82.7053 323.162 82.7053Z" fill="white"/>
<path fill-rule="evenodd" clip-rule="evenodd" d="M315.124 68.6098C320.082 67.1361 323.18 71.5226 323.154 75.776C323.118 82.9422 314.606 84.1288 309.847 82.2227C303.495 79.6817 309.194 70.3741 315.124 68.6098Z" fill="white"/>
<path fill-rule="evenodd" clip-rule="evenodd" d="M314.295 81.9304C317.232 81.9304 319.618 79.3047 319.618 76.0857C319.618 72.865 317.232 70.2393 314.295 70.2393C311.372 70.2393 308.987 72.865 308.987 76.0857C308.987 79.3047 311.372 81.9304 314.295 81.9304Z" fill="#4C466A"/>
<path fill-rule="evenodd" clip-rule="evenodd" d="M315.106 75.1827C315.938 75.1827 316.615 74.4354 316.615 73.5204C316.615 72.6054 315.938 71.8582 315.106 71.8582C314.272 71.8582 313.592 72.6054 313.592 73.5204C313.592 74.4354 314.271 75.1827 315.106 75.1827Z" fill="white"/>
<path fill-rule="evenodd" clip-rule="evenodd" d="M307.486 79.1975C307.512 79.2875 307.507 79.3584 307.486 79.4172C307.486 79.4535 307.486 79.4795 307.486 79.5106C307.606 79.988 306.971 80.0365 306.852 79.5643C306.766 79.0004 306.727 78.4572 306.735 77.9314C306.649 73.1124 310.399 69.883 313.474 68.4006C318.594 65.9393 323.775 68.9438 323.68 74.7158C323.698 75.6828 323.566 76.7292 323.254 77.8501C323.128 78.3223 322.433 78.1269 322.555 77.6546C322.628 77.1461 322.687 76.3522 322.7 75.8402C322.588 66.4893 307.619 70.1252 307.469 78.8274C307.478 78.9502 307.478 79.073 307.486 79.1975Z" fill="#4C466A"/>
<path fill-rule="evenodd" clip-rule="evenodd" d="M299.431 76.8452C299.467 76.1637 298.571 76.1152 298.537 76.8019C298.361 80.1351 299.117 83.3109 301.58 85.9279L301.605 85.9573C303.477 88.0001 299.2 89.78 297.373 89.7558C297.036 89.7506 296.752 89.9824 296.752 90.2678C296.748 90.5515 297.472 91.8522 298.69 91.8522C301.15 91.8522 300.924 90.036 301.364 89.8042C303.223 88.8269 304.682 87.1958 303.005 85.364L302.974 85.3277C300.691 82.8975 299.271 79.9327 299.433 76.8452H299.431ZM300.022 74.5792C300.097 74.3855 299.97 74.1728 299.739 74.1122C299.509 74.0448 299.258 74.1503 299.185 74.3423C299.185 74.3423 299.091 74.6415 299.004 75.1137C298.962 75.3144 299.13 75.5046 299.376 75.5341C299.613 75.5652 299.84 75.4268 299.88 75.2244C299.955 74.7903 300.024 74.5775 300.024 74.5775L300.022 74.5792Z" fill="#F68B85"/>
<path fill-rule="evenodd" clip-rule="evenodd" d="M299.366 87.8339C298.521 86.3879 298.62 85.0889 298.633 84.9367V84.928C298.641 84.8882 298.658 84.8519 298.695 84.8294C299.004 84.6288 299.346 84.717 299.433 84.7447C299.468 84.7533 299.501 84.7775 299.514 84.8138C300.024 85.9226 301.007 86.8809 301.007 86.8878C301.048 86.9276 301.056 86.995 301.028 87.0469C300.646 87.6852 299.485 87.8997 299.485 87.8997C299.441 87.9083 299.39 87.8841 299.367 87.8357L299.366 87.8339Z" fill="white"/>
<path fill-rule="evenodd" clip-rule="evenodd" d="M322.97 64.3114C324.377 65.7661 323.697 66.1397 321.72 64.9929C317.517 62.5523 311.739 63.1871 307.828 64.8442C305.135 65.2507 304.016 63.4864 305.283 62.8931C310.542 60.4836 318.765 60.4714 322.972 64.3114H322.97Z" fill="#4C466A"/>
<path fill-rule="evenodd" clip-rule="evenodd" d="M273.399 64.3114C271.989 65.7661 272.666 66.1397 274.643 64.9929C278.844 62.5523 284.625 63.1871 288.535 64.8442C291.228 65.2507 292.348 63.4864 291.081 62.8931C285.822 60.4836 277.601 60.4714 273.399 64.3114Z" fill="#4C466A"/>
<path fill-rule="evenodd" clip-rule="evenodd" d="M298.172 124.336C304.692 123.477 307.421 119.92 312.675 116.533C312.335 115.613 312.056 114.575 311.887 113.417C303.213 119.554 292.615 120.455 283.376 116.117C283.376 117.384 283.376 118.609 283.376 119.628C287.449 122.063 293.514 124.864 297.78 124.383C297.783 124.383 297.785 124.383 297.788 124.383C297.918 124.369 298.045 124.352 298.172 124.336Z" fill="#F68B85"/>
<path fill-rule="evenodd" clip-rule="evenodd" d="M223.581 232.105C224.355 225.321 225.118 219.391 225.68 216.364C227.355 207.345 234.681 170.864 239.058 156.246C243.428 141.628 252.889 137.186 252.889 137.186C261.276 132.564 267.671 129.954 272.039 128.491C272.498 128.337 272.935 128.197 273.348 128.067C273.229 127.773 273.11 127.479 272.988 127.187C274.118 125.808 275.577 124.779 277.297 124.027L279.983 126.094C281.248 125.198 283.377 123.298 283.377 120.661C283.377 120.349 283.377 120.003 283.377 119.628C283.377 118.607 283.377 117.383 283.377 116.117C274.195 111.806 266.355 102.322 263.085 87.6627C248.172 90.9941 248.269 60.8417 260.26 67.0375C260.168 66.2176 260.085 65.4514 260.016 64.7647C259.648 61.2239 259.37 57.7956 259.27 54.5178C259.269 54.4711 259.267 54.4261 259.266 54.3794C258.564 53.8709 257.955 53.2378 257.473 52.4525C256.328 50.5879 255.895 47.8636 256.626 43.8939C256.812 42.7281 257.124 41.4602 257.577 40.0833C247.643 22.819 266.298 11.2368 276.748 15.0785C283.062 3.07944 319.39 -3.19598 327.293 21.1688C328.225 24.0367 328.76 27.3301 328.808 31.0888C335.109 34.3683 339.604 46.9676 331.47 52.4525C331.457 52.4612 331.444 52.4698 331.431 52.4785C331.416 53.1773 331.393 53.8847 331.364 54.6026C331.261 57.8631 330.985 61.2706 330.618 64.7906C330.551 65.4375 330.475 66.1536 330.389 66.9182C335.36 70.2254 334.755 83.9421 327.648 87.2182C324.988 99.577 319.103 108.31 311.885 113.418C312.053 114.577 312.333 115.615 312.673 116.535C313.058 117.573 313.518 118.462 313.987 119.204L314.079 119.112C316.202 119.713 318.06 120.68 319.582 122.107C319.553 122.216 319.522 122.325 319.492 122.434C319.95 122.494 320.406 122.558 320.855 122.626C340.935 125.649 353.715 135.894 353.715 135.894C353.715 135.894 361.753 140.604 364.578 153.037C366.772 162.675 371.983 187.928 374.932 202.731V196.272C373.547 189.396 372.133 182.524 370.709 175.657C369.119 168.01 367.54 160.333 365.809 152.721C364.643 147.596 362.411 142.806 359.046 138.909C357.819 137.489 356.025 135.733 354.405 134.763C353.65 134.163 352.824 133.599 352.028 133.068C349.87 131.629 347.614 130.328 345.323 129.15C337.719 125.239 329.472 122.575 321.111 121.307L320.534 121.219C320.499 121.176 320.46 121.136 320.419 121.096C318.769 119.55 316.811 118.535 314.709 117.9C314.376 117.308 314.09 116.687 313.852 116.044C313.61 115.385 313.421 114.724 313.279 114.031C321.474 107.913 326.417 98.3714 328.733 88.1539C332.469 86.0869 334.378 81.5326 334.803 77.2273C335.156 73.6399 334.529 68.7724 331.73 66.3024C331.79 65.7506 331.849 65.2006 331.904 64.6522C331.904 64.6522 331.904 64.6522 331.904 64.6505C331.904 64.6453 331.904 64.6419 331.906 64.6384C332.23 61.3865 332.505 58.107 332.619 54.8395C332.637 54.2964 332.658 53.7533 332.675 53.2102C332.992 52.9697 333.292 52.7172 333.575 52.4543C336.74 49.5068 337.729 45.1687 336.788 40.6732C335.946 36.6533 333.468 32.4086 330.052 30.2775C329.959 27.3924 329.586 24.5089 328.793 21.7414C327.476 17.1421 325.17 13.2121 321.713 10.09C314.694 3.7523 304.524 2.29761 295.644 3.56549C291.479 4.16051 287.19 5.40072 283.419 7.39336C280.757 8.79962 277.927 10.8286 276.185 13.4975L275.633 13.3592C271.88 12.4978 267.731 13.2485 264.246 14.8675C260.4 16.6543 256.929 19.6813 255.018 23.7029C252.473 29.0581 253.267 34.889 256.187 40.2424C255.843 41.3598 255.56 42.5032 255.374 43.6621C254.824 46.6632 254.759 49.8649 256.009 52.456C256.48 53.4298 257.134 54.3189 258.02 55.0765C258.14 58.4166 258.425 61.7359 258.769 65.057C256.47 64.5035 254.238 65.0881 252.562 67.2693C250.699 69.6944 250.154 73.3129 250.317 76.3572C250.708 83.6117 254.946 90.048 262.138 89.1883C265.03 100.969 271.528 111.661 282.106 116.975V120.664C282.106 122.179 281.086 123.49 279.977 124.435L278.034 122.94C277.668 122.658 277.227 122.603 276.808 122.786C274.983 123.586 273.33 124.718 272.028 126.306C271.818 126.564 271.71 126.874 271.712 127.192C271.692 127.199 271.673 127.206 271.652 127.211C265.028 129.43 258.489 132.585 252.334 135.975C251.756 136.251 251.154 136.635 250.623 136.993C249.221 137.937 247.904 139.063 246.704 140.277C242.5 144.527 239.597 149.991 237.846 155.841C236.436 160.555 235.259 165.417 234.126 170.214C232.719 176.16 231.4 182.131 230.119 188.109C228.917 193.712 227.753 199.325 226.619 204.943C225.87 208.658 225.126 212.379 224.434 216.106C224.035 218.26 223.739 220.467 223.453 222.641C223.044 225.737 222.674 228.842 222.321 231.945C222.314 231.999 222.311 232.054 222.311 232.106H223.578L223.581 232.105ZM348.123 217.724C348.123 217.724 347.088 213.071 345.832 207.093C345.832 207.093 345.832 207.093 345.831 207.093L345.723 207.107C345.5 207.107 345.3 206.942 345.251 206.698C345.249 206.688 345.246 206.678 345.245 206.666C345.223 213.711 345.994 221.477 345.994 221.477C345.994 221.477 346.573 225.817 347.426 232.101H349.953C348.931 224.029 348.123 217.72 348.123 217.72V217.724ZM347.112 219.811C347.493 222.79 347.873 225.77 348.25 228.749C347.915 226.272 347.581 223.793 347.251 221.315C347.202 220.815 347.156 220.313 347.114 219.81L347.112 219.811Z" fill="#4B4669"/>
<path fill-rule="evenodd" clip-rule="evenodd" d="M256.012 52.4526C254.763 49.8615 254.829 46.6597 255.377 43.6587C255.561 42.4998 255.845 41.3564 256.19 40.239C253.27 34.8856 252.474 29.0547 255.021 23.6995C256.932 19.6779 260.404 16.6509 264.25 14.8641C267.734 13.245 271.883 12.4943 275.636 13.3557L276.188 13.4941C277.93 10.8234 280.76 8.7962 283.422 7.38994C287.193 5.39731 291.482 4.1571 295.647 3.56207C304.527 2.29419 314.699 3.74888 321.717 10.0866C327.459 15.2723 329.802 22.4783 330.055 30.2741C333.471 32.4051 335.949 36.6499 336.791 40.6697C337.732 45.1635 336.742 49.5034 333.578 52.4508C333.295 52.7138 332.995 52.9663 332.678 53.2067C332.662 53.7499 332.64 54.293 332.622 54.8361C332.492 58.5792 332.145 62.542 331.733 66.299C334.532 68.769 335.159 73.6364 334.806 77.2239C334.381 81.5292 332.473 86.0835 328.736 88.1505C326.421 98.368 321.477 107.907 313.282 114.027C313.422 114.721 313.613 115.381 313.855 116.041C314.093 116.684 314.38 117.305 314.712 117.896C316.814 118.531 318.774 119.547 320.422 121.093C320.463 121.133 320.502 121.173 320.538 121.216L321.114 121.304C329.475 122.572 337.724 125.236 345.326 129.147C347.619 130.326 349.874 131.627 352.031 133.064C352.826 133.595 353.653 134.159 354.408 134.76C356.028 135.73 357.823 137.486 359.049 138.906C362.413 142.803 364.647 147.592 365.812 152.717C367.543 160.328 369.123 168.006 370.712 175.654C372.138 182.521 373.55 189.391 374.935 196.268V181.45C374.491 179.293 374.045 177.134 373.595 174.977C372.003 167.311 370.419 159.612 368.683 151.981C367.4 146.337 364.928 141.073 361.226 136.783C359.824 135.159 357.886 133.286 356.035 132.132C353.242 129.935 349.693 127.905 346.614 126.32C338.823 122.312 330.382 119.571 321.817 118.239C320.298 116.945 318.59 115.983 316.765 115.297C316.752 115.266 316.739 115.236 316.728 115.205C324.162 108.919 328.882 99.9074 331.304 90.1726C335.169 87.3912 337.261 82.4563 337.747 77.5508C338.155 73.4047 337.444 68.4559 334.829 65.1591C334.835 65.0986 334.842 65.0363 334.847 64.9757C334.847 64.9723 334.847 64.9688 334.848 64.9636L334.85 64.9498C335.18 61.627 335.46 58.2904 335.576 54.952C335.578 54.888 335.581 54.824 335.583 54.7583C336.335 54.0508 336.993 53.2759 337.556 52.4491C339.932 48.9585 340.624 44.5149 339.676 39.9882C338.772 35.6674 336.34 31.286 332.93 28.5496C332.904 28.1829 332.873 27.8179 332.842 27.4529V27.446C332.79 26.8527 332.72 26.2612 332.637 25.6731V25.6662C332.403 24.0316 332.08 22.4074 331.626 20.8229V20.8212C331.484 20.33 331.333 19.8422 331.172 19.3579L331.157 19.3146C330.997 18.8372 330.823 18.365 330.638 17.898L330.608 17.8253C330.432 17.3825 330.245 16.9449 330.048 16.5125C330.032 16.4762 330.014 16.4381 329.998 16.4018C329.807 15.9866 329.607 15.5767 329.395 15.1719C329.373 15.1287 329.35 15.0872 329.327 15.0439C329.128 14.6669 328.921 14.2967 328.707 13.93C328.671 13.8677 328.633 13.8055 328.596 13.7449C328.391 13.4024 328.179 13.0634 327.959 12.7313C327.91 12.6569 327.86 12.5808 327.809 12.5064C327.598 12.1934 327.381 11.8855 327.158 11.5828C327.095 11.4963 327.031 11.4115 326.966 11.3251C326.754 11.0466 326.538 10.7733 326.318 10.5034C326.233 10.3997 326.147 10.2976 326.061 10.1955C325.864 9.96203 325.662 9.73371 325.457 9.50885C325.338 9.37739 325.217 9.24766 325.097 9.11966C324.914 8.92766 324.73 8.73912 324.543 8.55231C324.39 8.4001 324.237 8.25134 324.081 8.10432C323.933 7.96421 323.783 7.82756 323.633 7.69091C315.951 0.754741 304.991 -0.942113 295.256 0.446851C288.644 1.39128 279.832 4.33007 274.994 10.0451C270.986 9.44831 266.738 10.2786 263.067 11.9841C258.771 13.9802 254.933 17.3133 252.663 21.7189L252.644 21.757C252.554 21.93 252.469 22.1047 252.385 22.2794C252.337 22.3797 252.29 22.4817 252.243 22.5838C252.189 22.6997 252.139 22.8173 252.088 22.9332C252.028 23.0716 251.971 23.21 251.914 23.3501C251.877 23.4417 251.841 23.5351 251.805 23.6285C251.74 23.7981 251.676 23.9676 251.616 24.1388C251.59 24.2115 251.566 24.2841 251.541 24.3585C251.479 24.5418 251.419 24.7269 251.364 24.912C251.343 24.9795 251.323 25.0469 251.303 25.1144C251.247 25.3116 251.191 25.5087 251.141 25.7077C251.124 25.7682 251.11 25.8305 251.093 25.891C251.043 26.0951 250.996 26.301 250.952 26.5068C250.939 26.5708 250.926 26.6348 250.913 26.6988C250.874 26.896 250.836 27.0932 250.804 27.2904C250.789 27.3803 250.774 27.4685 250.761 27.5585C250.735 27.728 250.711 27.8975 250.69 28.067C250.133 32.4605 251.128 36.7225 253.007 40.5867C252.79 41.4118 252.609 42.249 252.474 43.0913C251.891 46.2982 251.849 49.5761 252.8 52.4474C253.292 53.928 254.047 55.3014 255.13 56.5001C255.216 58.2956 255.346 60.091 255.503 61.8813C253.549 62.2739 251.74 63.3758 250.279 65.275C247.93 68.3349 247.166 72.6678 247.375 76.5268C247.816 84.7205 252.49 91.8296 259.925 92.3658C263.131 103.457 269.455 113.325 279.159 118.891V119.988C278.077 119.408 276.855 119.362 275.69 119.874C273.438 120.859 271.414 122.276 269.807 124.234C269.698 124.366 269.598 124.502 269.506 124.644C263.178 126.875 256.949 129.899 251.053 133.142C248.832 134.218 246.399 136.251 244.673 137.996C240.106 142.612 236.938 148.526 235.037 154.881C233.609 159.657 232.416 164.58 231.266 169.439C229.855 175.408 228.529 181.401 227.243 187.402C225.245 196.72 223.282 206.112 221.541 215.489C220.574 220.699 219.994 226.282 219.393 231.56C219.372 231.741 219.362 231.921 219.359 232.098H222.316C222.316 232.044 222.319 231.99 222.326 231.937C222.679 228.832 223.049 225.729 223.457 222.633C223.744 220.458 224.04 218.251 224.439 216.098C225.131 212.37 225.877 208.648 226.624 204.934C227.756 199.316 228.922 193.703 230.123 188.101C231.405 182.123 232.725 176.15 234.13 170.205C235.265 165.408 236.441 160.546 237.851 155.833C239.601 149.984 242.504 144.52 246.709 140.269C247.91 139.054 249.227 137.928 250.628 136.984C251.159 136.626 251.761 136.244 252.339 135.967C258.495 132.577 265.034 129.422 271.656 127.202C271.676 127.195 271.696 127.189 271.717 127.183C271.713 126.865 271.821 126.554 272.033 126.298C273.335 124.71 274.988 123.577 276.813 122.778C277.232 122.594 277.673 122.65 278.039 122.932L279.982 124.426C281.09 123.482 282.111 122.171 282.111 120.655V116.966C271.531 111.652 265.033 100.963 262.143 89.1797C254.951 90.0411 250.712 83.6031 250.322 76.3486C250.157 73.3061 250.704 69.6858 252.567 67.2607C254.242 65.0795 256.475 64.4949 258.774 65.0484C258.43 61.7273 258.145 58.408 258.025 55.0679C257.139 54.3103 256.483 53.4212 256.014 52.4474L256.012 52.4526Z" fill="white"/>
<path fill-rule="evenodd" clip-rule="evenodd" d="M337.743 77.5526C337.26 82.4581 335.166 87.393 331.3 90.1743C328.879 99.9092 324.159 108.921 316.724 115.207C316.737 115.238 316.749 115.267 316.762 115.299C318.587 115.985 320.297 116.945 321.814 118.241C330.379 119.571 338.82 122.314 346.611 126.322C349.69 127.906 353.239 129.937 356.032 132.134C357.883 133.288 359.821 135.161 361.222 136.785C364.925 141.075 367.397 146.338 368.68 151.982C370.415 159.614 372 167.311 373.592 174.979C374.04 177.136 374.486 179.293 374.932 181.452V143.403C373.161 138.757 370.663 134.455 367.444 130.726C365.562 128.546 363.171 126.279 360.719 124.668C357.554 122.235 353.733 120.026 350.289 118.255C344.338 115.193 338.045 112.804 331.6 111.14C334.677 106.328 337.025 100.978 338.681 95.3445C342.983 91.0219 345.507 84.8866 346.137 78.4901C346.658 73.1954 345.876 67.5808 343.52 62.914C343.651 61.4351 343.765 59.9527 343.854 58.4703C345.219 56.6316 346.29 54.6061 347.06 52.4561H337.553C336.989 53.2829 336.332 54.0561 335.579 54.7653C335.578 54.8293 335.574 54.8933 335.573 54.959C335.457 58.2991 335.177 61.634 334.847 64.9568L334.845 64.9706C334.845 64.9741 334.845 64.9775 334.843 64.9827C334.837 65.0433 334.83 65.1055 334.825 65.1661C337.439 68.4612 338.152 73.4099 337.743 77.5578V77.5526ZM255.127 56.5054C254.044 55.3067 253.288 53.9333 252.797 52.4526H244.074C244.403 54.2031 244.914 55.8913 245.627 57.4896C244.963 58.1313 244.331 58.8388 243.737 59.6119C240.021 64.45 238.613 70.9018 238.944 77.0458C239.512 87.5988 245.098 96.6677 253.513 100.01C255.931 106.434 259.316 112.346 263.67 117.322C258.072 119.514 252.585 122.212 247.327 125.099C244.294 126.618 241.225 129.107 238.851 131.508C233.25 137.171 229.322 144.372 226.989 152.174C225.507 157.127 224.268 162.224 223.076 167.263C221.65 173.296 220.31 179.355 219.011 185.42C216.995 194.824 215.013 204.299 213.258 213.763C212.249 219.198 211.638 224.987 211.011 230.491C210.949 231.036 210.915 231.575 210.91 232.106H219.358C219.359 231.93 219.371 231.75 219.392 231.568C219.993 226.291 220.572 220.709 221.539 215.498C223.28 206.121 225.244 196.728 227.241 187.41C228.528 181.41 229.853 175.415 231.265 169.447C232.414 164.589 233.606 159.664 235.036 154.89C236.938 148.535 240.106 142.621 244.672 138.005C246.398 136.259 248.83 134.229 251.051 133.151C256.947 129.908 263.177 126.886 269.504 124.653C269.597 124.513 269.696 124.376 269.805 124.243C271.411 122.285 273.436 120.868 275.688 119.882C276.854 119.372 278.075 119.419 279.158 119.996V118.9C269.455 113.334 263.129 103.464 259.923 92.3745C252.487 91.8383 247.814 84.7275 247.373 76.5355C247.165 72.6765 247.928 68.3436 250.278 65.2837C251.738 63.3827 253.547 62.2809 255.501 61.89C255.345 60.098 255.215 58.3043 255.128 56.5088L255.127 56.5054Z" fill="#6F4F70"/>
<path fill-rule="evenodd" clip-rule="evenodd" d="M238.944 77.0441C238.613 70.9018 240.02 64.4483 243.737 59.6102C244.331 58.837 244.963 58.1296 245.627 57.4879C244.914 55.8913 244.403 54.2014 244.074 52.4509H235.519C235.658 53.4801 235.842 54.5006 236.071 55.5108C231.827 61.8675 230.097 69.8017 230.516 77.5561C231.164 89.6001 237.047 101.039 247.046 106.723C248.055 109.046 249.184 111.306 250.434 113.488C248.125 114.626 245.841 115.823 243.581 117.061C239.764 118.998 236.086 121.923 233.033 125.009C226.4 131.715 221.71 140.212 218.946 149.455C217.405 154.605 216.13 159.837 214.891 165.076C213.449 171.175 212.096 177.297 210.782 183.429C208.743 192.937 206.753 202.459 204.977 212.028C203.91 217.776 203.293 223.603 202.632 229.415C202.53 230.318 202.476 231.217 202.473 232.108H210.912C210.917 231.577 210.951 231.039 211.013 230.493C211.64 224.989 212.25 219.199 213.26 213.764C215.017 204.301 216.997 194.824 219.012 185.421C220.312 179.357 221.652 173.298 223.078 167.264C224.27 162.226 225.509 157.128 226.991 152.176C229.324 144.375 233.251 137.173 238.852 131.509C241.226 129.109 244.296 126.62 247.329 125.101C252.585 122.216 258.074 119.516 263.672 117.324C259.316 112.346 255.931 106.435 253.515 100.011C245.1 96.6694 239.513 87.6005 238.945 77.0475L238.944 77.0441ZM343.522 62.9105C345.876 67.5756 346.66 73.192 346.138 78.4867C345.508 84.8831 342.985 91.0167 338.683 95.341C337.027 100.975 334.679 106.325 331.602 111.137C338.046 112.801 344.339 115.19 350.29 118.251C353.734 120.022 357.556 122.231 360.721 124.665C363.173 126.275 365.563 128.543 367.446 130.722C370.665 134.452 373.162 138.754 374.934 143.4V126.191C374.522 125.672 374.1 125.163 373.667 124.661C371.269 121.884 368.44 119.239 365.43 117.217C361.87 114.511 357.901 112.202 353.97 110.18C350.73 108.513 347.404 107.032 344.014 105.74C344.781 103.896 345.474 102.016 346.093 100.11C350.943 94.4295 353.783 87.0453 354.535 79.4207C355.131 73.3788 354.413 67.0809 352.204 61.4507C353.887 58.6468 355.121 55.6111 355.91 52.4527H347.063C346.293 54.6044 345.222 56.6299 343.857 58.4669C343.768 59.9493 343.654 61.4316 343.524 62.9105H343.522Z" fill="#725673"/>
</svg>
