<svg width="380" height="238" viewBox="0 0 380 238" fill="none" xmlns="http://www.w3.org/2000/svg">
<g clip-path="url(#clip0_214_14735)">
<path fill-rule="evenodd" clip-rule="evenodd" d="M14.928 47.0657H365.074C373.293 47.0657 380.001 54.1904 380.001 62.9237V221.624C380.001 230.355 373.295 237.482 365.074 237.482H14.928C6.7087 237.482 0.000366211 230.355 0.000366211 221.624V62.9237C0.000366211 54.1921 6.70707 47.0657 14.928 47.0657Z" fill="white"/>
<path d="M353.367 52.4468H26.635C14.7227 52.4468 5.0658 53.5178 5.0658 54.839V229.708C5.0658 231.03 14.7227 232.101 26.635 232.101H353.367C365.279 232.101 374.936 231.03 374.936 229.708V54.839C374.936 53.5178 365.279 52.4468 353.367 52.4468Z" fill="#F35C6F"/>
<path fill-rule="evenodd" clip-rule="evenodd" d="M21.1039 127.676V74.1633C21.1039 71.5877 23.0854 69.4827 25.5099 69.4827H186.174C186.64 69.4827 187.018 69.8857 187.018 70.3804C187.018 70.8751 186.638 71.2764 186.174 71.2764H25.5099C24.0168 71.2764 22.7924 72.5771 22.7924 74.1633V127.676C22.7924 128.17 22.413 128.572 21.9489 128.572C21.4833 128.572 21.1055 128.169 21.1055 127.676H21.1039ZM201.656 69.4827H210.871C211.337 69.4827 211.715 69.8857 211.715 70.3804C211.715 70.8751 211.336 71.2764 210.871 71.2764H201.656C201.19 71.2764 200.811 70.8734 200.811 70.3804C200.811 69.8857 201.19 69.4827 201.656 69.4827ZM186.106 215.061H25.5099C23.0854 215.061 21.1039 212.958 21.1039 210.38V200.964C21.1039 200.469 21.4833 200.066 21.9473 200.066C22.413 200.066 22.7907 200.469 22.7907 200.964V210.38C22.7907 211.967 24.0152 213.267 25.5083 213.267H186.104C186.57 213.267 186.948 213.67 186.948 214.163C186.948 214.658 186.568 215.059 186.104 215.059L186.106 215.061Z" fill="white"/>
<path d="M30.5574 168.981C30.5574 168.341 30.3425 167.847 29.9192 167.49C29.4926 167.134 28.7468 166.765 27.682 166.385C26.6139 166.004 25.7444 165.634 25.0654 165.28C22.8608 164.128 21.7585 162.547 21.7585 160.535C21.7585 159.535 22.0304 158.65 22.5807 157.883C23.1311 157.117 23.9094 156.524 24.914 156.095C25.9153 155.668 27.047 155.455 28.2991 155.455C29.5235 155.455 30.6209 155.688 31.5897 156.15C32.5585 156.612 33.3124 157.273 33.8514 158.129C34.3903 158.985 34.6573 159.964 34.6573 161.061H30.5688C30.5688 160.324 30.3539 159.751 29.9306 159.345C29.504 158.938 28.9292 158.734 28.2079 158.734C27.4736 158.734 26.8955 158.907 26.4722 159.252C26.0456 159.594 25.8339 160.035 25.8339 160.564C25.8339 161.03 26.07 161.45 26.5357 161.827C27.0014 162.204 27.8236 162.593 29.0009 162.996C30.1781 163.399 31.142 163.835 31.8959 164.297C33.7341 165.425 34.6557 166.975 34.6557 168.957C34.6557 170.538 34.094 171.778 32.9721 172.681C31.8519 173.584 30.3116 174.037 28.3577 174.037C26.977 174.037 25.7297 173.774 24.6128 173.248C23.4958 172.723 22.654 172.003 22.0874 171.088C21.5207 170.173 21.2423 169.118 21.2423 167.928H25.3536C25.3536 168.893 25.5897 169.611 26.0603 170.068C26.5308 170.529 27.2961 170.758 28.3577 170.758C29.035 170.758 29.5691 170.6 29.9648 170.292C30.3555 169.983 30.5542 169.547 30.5542 168.983L30.5574 168.981Z" fill="#F0485E"/>
<path d="M42.1472 155.708L45.9443 168.283L49.7283 155.708H55.1292V173.781H51.0162V169.561L51.4119 160.923L47.299 173.781H44.588L40.4636 160.911L40.8626 169.561V173.781H36.7594V155.708H42.1472Z" fill="#F0485E"/>
<path d="M63.5195 167.053L61.8407 169.014V173.781H57.736V155.708H61.8407V163.676L63.2638 161.379L66.9339 155.708H72.0026L66.2549 163.702L72.0026 173.781H67.1455L63.5195 167.053Z" fill="#F0485E"/>
<path d="M74.2088 175.331H71.4164L77.2227 155.708H80.0265L74.2088 175.331Z" fill="#F0485E"/>
<path d="M86.8277 155.708L90.6231 168.283L94.4088 155.708H99.808V173.781H95.6967V169.561L96.0924 160.923L91.9794 173.781H89.2684L85.1441 160.911L85.543 169.561V173.781H81.4382V155.708H86.8277Z" fill="#F0485E"/>
<path d="M112.288 170.4H106.669L105.688 173.781H101.304L107.545 155.708H111.398L117.688 173.781H113.28L112.287 170.4H112.288ZM107.65 167.044H111.307L109.472 160.769L107.65 167.044Z" fill="#F0485E"/>
<path d="M124.71 167.053L123.032 169.014V173.781H118.928V155.708H123.032V163.676L124.456 161.379L128.125 155.708H133.193L127.447 163.702L133.193 173.781H128.336L124.71 167.053Z" fill="#F0485E"/>
<path d="M59.0043 183.271H21.1039V190.489H59.0043V183.271Z" fill="#F0485E"/>
<path d="M29.2907 167.188C29.2907 166.548 29.0758 166.053 28.6525 165.697C28.2259 165.34 27.4801 164.972 26.4153 164.591C25.3471 164.211 24.4777 163.841 23.7987 163.486C21.5941 162.334 20.4917 160.753 20.4917 158.741C20.4917 157.742 20.7637 156.856 21.314 156.09C21.8643 155.323 22.6426 154.73 23.6473 154.301C24.6486 153.874 25.7802 153.661 27.0324 153.661C28.2568 153.661 29.3542 153.895 30.323 154.356C31.2918 154.818 32.0457 155.479 32.5846 156.335C33.1236 157.191 33.3906 158.171 33.3906 159.267H29.3021C29.3021 158.53 29.0872 157.958 28.6639 157.551C28.2373 157.145 27.6625 156.941 26.9412 156.941C26.2068 156.941 25.6288 157.114 25.2055 157.458C24.7789 157.8 24.5672 158.241 24.5672 158.771C24.5672 159.236 24.8033 159.656 25.269 160.033C25.7347 160.411 26.5569 160.8 27.7341 161.203C28.9113 161.606 29.8753 162.042 30.6291 162.503C32.4674 163.631 33.389 165.181 33.389 167.163C33.389 168.744 32.8273 169.984 31.7054 170.887C30.5852 171.79 29.0449 172.243 27.091 172.243C25.7102 172.243 24.463 171.981 23.346 171.455C22.2291 170.929 21.3873 170.209 20.8206 169.294C20.254 168.379 19.9756 167.324 19.9756 166.134H24.0869C24.0869 167.099 24.323 167.817 24.7935 168.274C25.2641 168.736 26.0294 168.964 27.091 168.964C27.7683 168.964 28.3024 168.807 28.698 168.499C29.0888 168.189 29.2875 167.753 29.2875 167.189L29.2907 167.188Z" fill="white"/>
<path d="M40.8805 153.914L44.6776 166.489L48.4616 153.914H53.8624V171.988H49.7511V167.767L50.1452 159.129L46.0339 171.988H43.3212L39.1969 159.117L39.5958 167.767V171.988H35.4927V153.914H40.8805Z" fill="white"/>
<path d="M62.2527 165.259L60.574 167.221V171.988H56.4708V153.914H60.574V161.883L61.9987 159.587L65.6671 153.914H70.7358L64.9898 161.909L70.7358 171.988H65.8788L62.2527 165.259Z" fill="white"/>
<path d="M72.9421 173.539H70.1497L75.9576 153.914H78.7614L72.9421 173.539Z" fill="white"/>
<path d="M85.5609 153.914L89.358 166.489L93.142 153.914H98.5429V171.988H94.4299V167.767L94.8256 159.129L90.7143 171.988H88.0016L83.8773 159.117L84.2763 167.767V171.988H80.1731V153.914H85.5609Z" fill="white"/>
<path d="M111.022 168.606H105.403L104.421 171.988H100.037L106.278 153.914H110.131L116.421 171.988H112.013L111.02 168.606H111.022ZM106.383 165.25H110.04L108.205 158.975L106.383 165.25Z" fill="white"/>
<path d="M123.445 165.259L121.766 167.221V171.988H117.661V153.914H121.766V161.883L123.189 159.587L126.858 153.914H131.928L126.18 161.909L131.928 171.988H127.069L123.445 165.259Z" fill="white"/>
<path d="M57.7376 181.477H19.8372V188.695H57.7376V181.477Z" fill="white"/>
<path fill-rule="evenodd" clip-rule="evenodd" d="M269.47 160.125L247.8 220.586C246.305 225.858 241.067 228.842 236.099 227.25C231.138 225.659 228.331 220.094 229.826 214.824L243.26 151.724C243.36 151.048 243.506 150.366 243.695 149.69C245.9 141.927 253.616 137.533 260.928 139.874C268.236 142.219 272.375 150.416 270.17 158.179C269.976 158.855 269.739 159.504 269.47 160.125Z" fill="#FCD1C8"/>
<path fill-rule="evenodd" clip-rule="evenodd" d="M260.927 139.875C253.616 137.535 245.898 141.93 243.693 149.692C241.487 157.46 245.628 165.653 252.934 167.997C260.244 170.339 267.962 165.942 270.169 158.181C272.373 150.418 268.233 142.221 260.927 139.875Z" fill="#FCD1C8"/>
<path fill-rule="evenodd" clip-rule="evenodd" d="M241.525 208.154C236.563 206.563 231.325 209.547 229.826 214.826C228.331 220.096 231.138 225.659 236.099 227.252C241.067 228.843 246.305 225.86 247.8 220.588C249.303 215.314 246.489 209.746 241.525 208.156V208.154Z" fill="#FCD1C8"/>
<path fill-rule="evenodd" clip-rule="evenodd" d="M239.634 207.77C234.468 207.289 229.914 211.349 229.461 216.836C229.013 222.322 232.835 227.161 238 227.641C243.161 228.117 247.718 224.063 248.171 218.571C248.619 213.084 244.796 208.248 239.634 207.772V207.77Z" fill="#FCD1C8"/>
<path fill-rule="evenodd" clip-rule="evenodd" d="M253.171 232.099C256.563 212.527 259.898 193.128 259.898 193.128L252.89 137.179C252.89 137.179 243.428 141.619 239.058 156.238C234.681 170.856 227.356 207.338 225.68 216.357C225.119 219.385 224.355 225.313 223.582 232.097H253.17L253.171 232.099Z" fill="white"/>
<path fill-rule="evenodd" clip-rule="evenodd" d="M334.929 158.53L354.51 219.781C355.825 225.112 360.959 228.298 365.976 226.897C370.989 225.5 373.985 220.048 372.671 214.718L361.41 151.144C361.33 150.465 361.216 149.783 361.045 149.096C359.108 141.254 351.55 136.561 344.161 138.623C336.775 140.681 332.361 148.709 334.3 156.557C334.468 157.24 334.678 157.897 334.927 158.53H334.929Z" fill="#FCD1C8"/>
<path fill-rule="evenodd" clip-rule="evenodd" d="M344.162 138.623C351.551 136.559 359.109 141.254 361.047 149.096C362.986 156.942 358.57 164.972 351.186 167.034C343.794 169.094 336.241 164.401 334.303 156.558C332.364 148.711 336.778 140.683 344.164 138.625L344.162 138.623Z" fill="#FCD1C8"/>
<path fill-rule="evenodd" clip-rule="evenodd" d="M361.205 207.608C366.218 206.21 371.357 209.393 372.671 214.72C373.985 220.049 370.989 225.502 365.976 226.899C360.959 228.3 355.825 225.114 354.51 219.783C353.194 214.456 356.192 209.007 361.205 207.608Z" fill="#FCD1C8"/>
<path fill-rule="evenodd" clip-rule="evenodd" d="M363.112 207.289C368.294 207.013 372.702 211.245 372.966 216.744C373.228 222.248 369.243 226.934 364.064 227.214C358.891 227.493 354.479 223.262 354.215 217.758C353.953 212.259 357.935 207.571 363.112 207.291V207.289Z" fill="#FCD1C8"/>
<path fill-rule="evenodd" clip-rule="evenodd" d="M279.067 126.665C279.067 126.665 270.25 127.615 252.89 137.18C252.89 137.18 251.429 149.112 251.717 175.497H344.312C344.056 165.046 344.717 143.615 353.717 135.885C353.717 135.885 339.067 124.142 316.493 122.09L279.065 126.667L279.067 126.665Z" fill="white"/>
<path fill-rule="evenodd" clip-rule="evenodd" d="M251.678 167.516C251.678 168.72 251.678 169.964 251.685 171.247H344.275C344.281 170.064 344.299 168.813 344.346 167.516H251.678Z" fill="#FF808F"/>
<path fill-rule="evenodd" clip-rule="evenodd" d="M251.709 174.951C251.791 182.807 252.025 191.964 252.499 202.495C252.499 202.495 250.599 216.376 248.539 232.101H347.425C346.574 225.817 345.992 221.477 345.992 221.477C345.992 221.477 344.603 207.48 345.606 200.025C345.764 198.854 346.189 196.56 346.782 193.524L344.585 181.382C344.585 181.382 344.369 178.851 344.294 174.952H251.708L251.709 174.951Z" fill="#FF808F"/>
<path fill-rule="evenodd" clip-rule="evenodd" d="M353.717 135.883C353.717 135.883 361.755 140.593 364.58 153.026C366.774 162.664 371.986 187.916 374.934 202.719V221.622C374.934 227.383 370.496 232.099 365.072 232.099H349.952C348.93 224.026 348.122 217.718 348.122 217.718C348.122 217.718 342.922 194.33 341.684 185.064C340.453 175.798 337.827 145.305 353.717 135.883Z" fill="white"/>
<path d="M251.709 175.464C251.444 175.464 251.227 175.238 251.227 174.951C251.165 169.269 251.187 163.797 251.288 158.698C251.289 158.413 251.516 158.202 251.784 158.19C252.051 158.193 252.263 158.43 252.26 158.716C252.157 163.811 252.142 169.267 252.198 174.942C252.204 175.226 251.984 175.459 251.716 175.466H251.708L251.709 175.464ZM345.724 207.104C345.501 207.104 345.3 206.94 345.251 206.696C343.11 196.477 341.754 189.219 341.204 185.137C340.598 180.583 339.377 168.765 341.207 157.539C341.256 157.257 341.498 157.078 341.772 157.117C342.037 157.167 342.215 157.432 342.164 157.716C340.357 168.796 341.562 180.482 342.164 184.99C342.7 188.993 344.091 196.415 346.196 206.471C346.256 206.755 346.088 207.025 345.829 207.091L345.722 207.104H345.724Z" fill="#E4D9E1"/>
<path fill-rule="evenodd" clip-rule="evenodd" d="M319.584 122.097C318.062 120.668 316.204 119.703 314.081 119.103L298.243 135.025L313.187 146.099C313.69 146.472 314.667 145.786 314.797 145.149C316.365 137.538 317.482 129.736 319.584 122.097Z" fill="white"/>
<path fill-rule="evenodd" clip-rule="evenodd" d="M272.987 127.181C274.117 125.802 275.576 124.773 277.295 124.021L292.251 135.527L280.858 146.58C280.474 146.952 279.583 146.49 279.407 145.971C277.299 139.765 275.548 133.346 272.989 127.181H272.987Z" fill="white"/>
<path fill-rule="evenodd" clip-rule="evenodd" d="M305.067 128.163L310.363 122.838L313.988 119.193C312.92 117.498 311.881 115.04 311.733 111.769L284.015 107.877L283.377 107.945C283.377 107.945 283.377 116.898 283.377 120.653C283.377 123.291 281.249 125.19 279.984 126.086L280.506 126.489L284.005 129.182L292.251 135.525L294.472 141.441C295.729 139.301 296.986 137.161 298.241 135.023L305.065 128.162L305.067 128.163Z" fill="#FCD1C8"/>
<path fill-rule="evenodd" clip-rule="evenodd" d="M295.061 143.169C298.663 138.391 304.932 142.456 311.15 146.351L312.407 147.284C313.77 148.294 315.798 147.043 316.124 145.457C317.694 137.839 318.804 130.114 320.857 122.614C320.406 122.547 319.952 122.483 319.494 122.422C317.449 129.957 316.342 137.646 314.797 145.149C314.665 145.786 313.69 146.472 313.187 146.099L298.243 135.025C298.002 135.435 297.762 135.843 297.521 136.253C296.505 137.983 295.489 139.713 294.473 141.444L293.848 139.778C293.127 141.005 292.407 142.231 291.687 143.457C291.577 143.646 291.517 143.829 291.49 144.051C290.611 151.828 290.11 159.661 289.89 167.516C289.856 168.76 289.826 170.003 289.805 171.247C289.784 172.48 289.769 173.715 289.761 174.95C289.76 175.132 289.76 175.315 289.758 175.497C289.699 186.674 290.141 197.866 290.807 208.957C291.269 216.668 291.487 224.382 291.541 232.1H294.26C294.206 224.324 293.987 216.547 293.521 208.773C292.86 197.745 292.419 186.614 292.477 175.497C292.479 175.315 292.479 175.132 292.48 174.95C292.489 173.715 292.503 172.482 292.524 171.247C292.546 170.003 292.573 168.76 292.609 167.516C292.826 159.883 293.311 152.27 294.154 144.715C294.457 144.2 294.758 143.686 295.061 143.17V143.169ZM279.407 145.971C277.4 140.06 275.716 133.956 273.349 128.061C272.935 128.191 272.499 128.331 272.04 128.485C274.405 134.344 276.092 140.47 278.128 146.462C278.618 147.906 280.627 148.763 281.775 147.647L292.788 136.961L292.249 135.527L280.856 146.58C280.472 146.951 279.582 146.49 279.406 145.971H279.407Z" fill="black" fill-opacity="0.090196"/>
<path fill-rule="evenodd" clip-rule="evenodd" d="M320.618 70.4167C337.28 53.3444 338.75 93.9634 320.352 87.1327C310.379 83.4415 320.618 70.4167 320.618 70.4167Z" fill="#FCD1C8"/>
<path fill-rule="evenodd" clip-rule="evenodd" d="M321.953 72.8227C333.32 61.1661 334.326 88.8831 321.767 84.2302C314.965 81.7013 321.953 72.8227 321.953 72.8227Z" fill="#F68B85"/>
<path fill-rule="evenodd" clip-rule="evenodd" d="M264.576 70.4167C247.919 53.3444 246.444 93.9634 264.841 87.1327C274.814 83.4415 264.576 70.4167 264.576 70.4167Z" fill="#FCD1C8"/>
<path fill-rule="evenodd" clip-rule="evenodd" d="M263.247 72.8227C251.877 61.1661 250.871 88.8831 263.426 84.2302C270.229 81.7013 263.247 72.8227 263.247 72.8227Z" fill="#F68B85"/>
<path fill-rule="evenodd" clip-rule="evenodd" d="M295.318 19.9695C251.727 20.715 258.143 48.9371 261.987 81.1704C267.974 131.348 322.665 131.348 328.652 81.1704C332.498 48.9371 338.901 20.715 295.32 19.9695H295.318Z" fill="#FCD1C8"/>
<path fill-rule="evenodd" clip-rule="evenodd" d="M331.392 50.6531C331.301 45.5643 330.662 40.9061 329.117 36.843C320.527 37.0091 310.674 38.7907 304.09 44.7409L301.563 47.275C301.563 47.275 319.874 42.3245 324.329 49.7225C325.695 51.9936 328.36 51.8916 331.39 50.6531H331.392ZM271.211 51.0976C270.874 51.1218 274.321 50.404 274.321 50.404C274.321 50.404 276.551 59.5283 269.543 59.0837C262.535 58.6427 270.877 51.1426 270.877 51.1426C270.877 51.1426 271.194 51.0976 271.212 51.0976H271.211Z" fill="#F68B85"/>
<path fill-rule="evenodd" clip-rule="evenodd" d="M328.567 81.8692C329.091 77.4982 330.262 68.5313 330.692 64.0565C333.571 34.0511 329.642 17.1794 295.32 17.1794C260.997 17.1794 257.068 34.0528 259.948 64.0565C260.373 68.5313 261.547 77.4982 262.073 81.8692C262.073 81.8692 266.898 77.1436 265.979 67.7322C269.28 62.8475 270.25 58.1876 270.009 50.6374C269.605 37.9482 286.348 34.769 295.32 34.769C304.29 34.769 327.717 35.4833 327.312 48.1708C327.074 55.7245 325.35 62.1556 328.657 67.0386C327.73 76.4552 328.569 81.8692 328.569 81.8692H328.567Z" fill="#352236"/>
<path fill-rule="evenodd" clip-rule="evenodd" d="M328.806 31.0829C336.555 35.1167 341.573 53.2441 323.731 54.8994C320.751 55.1727 320.74 52.464 320.74 52.464C321.085 44.0801 318.866 42.468 318.866 42.468C312.283 44.1441 302.545 47.6761 296.247 48.1224C289.947 47.6744 285.573 46.5951 279.059 44.6318C276.38 43.8241 274.14 45.9066 274.223 53.3289C274.223 53.3289 273.936 56.3195 271.903 56.3507C264.722 56.4752 252.177 57.6705 257.574 40.0775C247.64 22.8132 266.295 11.231 276.745 15.0727C283.804 1.66043 328.355 -4.60115 328.805 31.0829H328.806Z" fill="#735974"/>
<path fill-rule="evenodd" clip-rule="evenodd" d="M320.831 11.0476C325.542 15.2595 328.691 21.7303 328.808 31.0829C328.808 31.0829 322.103 27.6356 313.771 29.8808C313.771 29.8808 328.477 24.9667 320.831 11.0476Z" fill="#513B52"/>
<path fill-rule="evenodd" clip-rule="evenodd" d="M318.869 42.4663C312.412 44.113 302.916 47.5465 296.608 48.0931C298.542 38.6229 313.04 35.9297 318.869 42.4663Z" fill="#352236"/>
<path fill-rule="evenodd" clip-rule="evenodd" d="M270.408 14.4586C272.647 14.1888 274.84 14.3739 276.748 15.0727C276.748 15.0727 275.558 18.4768 278.762 20.7894C278.762 20.7894 271.891 20.632 270.408 14.4586Z" fill="#513B52"/>
<path fill-rule="evenodd" clip-rule="evenodd" d="M256.418 46.3096C256.425 44.5418 256.786 42.4731 257.576 40.0774C257.576 40.0774 259.754 43.3258 263.794 42.243C263.794 42.243 260.391 46.5587 256.418 46.3096Z" fill="#513B52"/>
<path fill-rule="evenodd" clip-rule="evenodd" d="M292.251 26.1654C292.282 26.1481 302.899 20.4314 308.157 23.3944C308.207 23.4238 308.222 23.5103 308.191 23.5846C308.162 23.6521 308.098 23.6867 308.046 23.6677C308.041 23.6625 305.879 22.8218 304.124 24.6C302.603 26.1273 301.491 25.8955 300.022 25.5894C299.672 25.5202 299.306 25.4423 298.922 25.3835C297.867 25.2296 296.732 25.2296 295.569 25.4129C294.491 25.5859 293.389 25.918 292.309 26.4266L292.303 26.43L292.296 26.4352C292.238 26.4646 292.176 26.4266 292.166 26.3522C292.16 26.2813 292.194 26.1982 292.252 26.1688L292.251 26.1654ZM258.445 20.8032C261.277 28.0162 269.14 33.662 287.85 27.6391L288.568 27.4108C289.092 27.2378 289.377 27.1409 289.328 27.3658L289.322 27.3727C289.3 27.4488 289.243 27.5042 289.186 27.4973V27.4955C289.02 27.5941 288.704 27.7273 288.211 27.9331L287.83 28.0975C285.645 29.0229 281.371 30.7214 276.712 32.0049C273.705 32.8282 270.532 33.4786 267.656 33.6395C264.136 33.8298 261.417 33.2122 259.323 32.2436C257.33 31.3251 255.892 30.0918 254.837 28.926C255.174 25.7762 256.519 23.0363 258.444 20.8015L258.445 20.8032Z" fill="#9E6D82"/>
<path fill-rule="evenodd" clip-rule="evenodd" d="M300.672 100.303C301.087 100.249 301.383 99.8513 301.33 99.4258C301.281 98.9985 300.89 98.6958 300.472 98.7477C300.464 98.7477 298.132 99.4119 295.315 98.8999C294.319 98.7183 294.159 99.8703 295.159 100.052C298.197 100.607 300.665 100.303 300.674 100.303H300.672Z" fill="#F68B85"/>
<path fill-rule="evenodd" clip-rule="evenodd" d="M305.941 96.1117C306.381 95.9629 306.602 95.5132 306.451 95.1032C306.299 94.6985 305.809 94.4857 305.376 94.6293C305.36 94.6362 298.674 96.9644 290.09 94.8144C289.025 94.548 288.851 95.5305 289.909 95.7969C297.74 98.3344 305.925 96.1186 305.943 96.1117H305.941Z" fill="#F68B85"/>
<path d="M271.65 81.4263C271.492 81.4263 271.354 81.3191 271.312 81.1565C271.26 80.9593 271.37 80.75 271.556 80.6981C271.942 80.5822 272.144 80.3695 272.144 80.3695C272.274 80.2224 272.502 80.2172 272.637 80.3608C272.774 80.5009 272.787 80.7344 272.65 80.8815C272.619 80.9161 272.318 81.243 271.745 81.4142C271.722 81.428 271.685 81.4281 271.652 81.4281L271.65 81.4263Z" fill="white"/>
<path d="M273.192 82.6994C273.09 82.6994 272.982 82.6493 272.917 82.5507C272.796 82.3898 272.836 82.1528 272.987 82.0335C273.226 81.8432 273.318 81.6357 273.318 81.6357C273.396 81.4523 273.599 81.3624 273.777 81.4437C273.949 81.5267 274.036 81.736 273.962 81.9262C273.946 81.966 273.803 82.3154 273.404 82.6285C273.345 82.6787 273.272 82.6994 273.192 82.6994Z" fill="white"/>
<path fill-rule="evenodd" clip-rule="evenodd" d="M281.231 68.6039C276.286 67.1302 273.182 71.5168 273.208 75.7702C273.239 82.9364 281.757 84.123 286.516 82.2168C292.871 79.6759 287.171 70.3682 281.231 68.6039Z" fill="white"/>
<path fill-rule="evenodd" clip-rule="evenodd" d="M282.06 81.9246C284.989 81.9246 287.376 79.2989 287.376 76.0798C287.376 72.8591 284.989 70.2334 282.06 70.2334C279.13 70.2334 276.745 72.8591 276.745 76.0798C276.745 79.2989 279.13 81.9246 282.06 81.9246Z" fill="#4C466A"/>
<path fill-rule="evenodd" clip-rule="evenodd" d="M281.257 75.1768C282.089 75.1768 282.766 74.4296 282.766 73.5146C282.766 72.5995 282.089 71.8523 281.257 71.8523C280.423 71.8523 279.743 72.5995 279.743 73.5146C279.743 74.4296 280.423 75.1768 281.257 75.1768Z" fill="white"/>
<path fill-rule="evenodd" clip-rule="evenodd" d="M288.874 79.1917C288.853 79.2816 288.853 79.3526 288.879 79.4114C288.879 79.4477 288.879 79.4736 288.874 79.5048C288.752 79.9822 289.392 80.0306 289.512 79.5584C289.602 78.9945 289.636 78.4514 289.633 77.9255C289.719 73.1065 285.966 69.8772 282.887 68.3948C277.773 65.9334 272.59 68.9379 272.686 74.71C272.668 75.6769 272.8 76.7234 273.109 77.8442C273.233 78.3165 273.936 78.121 273.813 77.6488C273.738 77.1402 273.681 76.3463 273.669 75.8343C273.778 66.4834 288.75 70.1193 288.893 78.8215C288.889 78.9443 288.885 79.0671 288.877 79.1917H288.874Z" fill="#4C466A"/>
<path d="M324.706 81.4265C324.677 81.4265 324.645 81.4265 324.612 81.4127C324.047 81.2431 323.744 80.9162 323.715 80.8799C323.58 80.7329 323.588 80.4942 323.723 80.3523C323.861 80.214 324.089 80.2209 324.22 80.3679C324.229 80.3766 324.426 80.5807 324.806 80.6966C324.991 80.7484 325.105 80.9577 325.048 81.1549C325.001 81.3175 324.863 81.4248 324.706 81.4248V81.4265Z" fill="white"/>
<path d="M323.163 82.6994C323.09 82.6994 323.019 82.6769 322.954 82.6285C322.564 82.3154 322.42 81.966 322.402 81.9262C322.324 81.736 322.407 81.5198 322.591 81.4385C322.764 81.3624 322.971 81.4471 323.044 81.6356C323.057 81.646 323.143 81.8449 323.373 82.0335C323.529 82.1563 323.563 82.3898 323.448 82.5507C323.378 82.651 323.275 82.6994 323.163 82.6994Z" fill="white"/>
<path fill-rule="evenodd" clip-rule="evenodd" d="M315.124 68.6039C320.082 67.1302 323.181 71.5168 323.155 75.7702C323.119 82.9364 314.606 84.123 309.847 82.2168C303.495 79.6759 309.194 70.3682 315.124 68.6039Z" fill="white"/>
<path fill-rule="evenodd" clip-rule="evenodd" d="M314.295 81.9246C317.233 81.9246 319.618 79.2989 319.618 76.0798C319.618 72.8591 317.233 70.2334 314.295 70.2334C311.373 70.2334 308.987 72.8591 308.987 76.0798C308.987 79.2989 311.373 81.9246 314.295 81.9246Z" fill="#4C466A"/>
<path fill-rule="evenodd" clip-rule="evenodd" d="M315.106 75.1768C315.938 75.1768 316.616 74.4296 316.616 73.5146C316.616 72.5995 315.938 71.8523 315.106 71.8523C314.273 71.8523 313.592 72.5995 313.592 73.5146C313.592 74.4296 314.271 75.1768 315.106 75.1768Z" fill="white"/>
<path fill-rule="evenodd" clip-rule="evenodd" d="M307.486 79.1917C307.512 79.2816 307.507 79.3526 307.486 79.4114C307.486 79.4477 307.486 79.4736 307.486 79.5048C307.607 79.9822 306.972 80.0306 306.853 79.5584C306.767 78.9945 306.727 78.4514 306.736 77.9255C306.649 73.1065 310.399 69.8772 313.475 68.3948C318.594 65.9334 323.775 68.9379 323.681 74.71C323.699 75.6769 323.567 76.7234 323.254 77.8442C323.129 78.3165 322.433 78.121 322.556 77.6488C322.629 77.1402 322.687 76.3463 322.7 75.8343C322.588 66.4834 307.62 70.1193 307.47 78.8215C307.478 78.9443 307.478 79.0671 307.486 79.1917Z" fill="#4C466A"/>
<path fill-rule="evenodd" clip-rule="evenodd" d="M299.431 76.8393C299.467 76.1578 298.571 76.1094 298.537 76.7961C298.361 80.1292 299.117 83.305 301.58 85.9221L301.605 85.9515C303.477 87.9943 299.2 89.7742 297.373 89.7499C297.036 89.7448 296.753 89.9765 296.753 90.2619C296.748 90.5456 297.472 91.8464 298.69 91.8464C301.151 91.8464 300.924 90.0302 301.364 89.7984C303.223 88.8211 304.682 87.19 303.005 85.3582L302.974 85.3219C300.691 82.8916 299.272 79.9269 299.433 76.8393H299.431ZM300.022 74.5734C300.097 74.3797 299.97 74.1669 299.739 74.1064C299.509 74.0389 299.259 74.1444 299.185 74.3364C299.185 74.3364 299.091 74.6357 299.005 75.1079C298.962 75.3085 299.13 75.4988 299.376 75.5282C299.614 75.5593 299.84 75.4209 299.881 75.2186C299.955 74.7844 300.024 74.5717 300.024 74.5717L300.022 74.5734Z" fill="#F68B85"/>
<path fill-rule="evenodd" clip-rule="evenodd" d="M299.366 87.8281C298.521 86.382 298.62 85.083 298.633 84.9308V84.9222C298.642 84.8824 298.658 84.846 298.695 84.8236C299.005 84.6229 299.347 84.7111 299.433 84.7388C299.469 84.7475 299.501 84.7717 299.514 84.808C300.024 85.9167 301.007 86.875 301.007 86.8819C301.048 86.9217 301.056 86.9892 301.029 87.0411C300.646 87.6793 299.485 87.8938 299.485 87.8938C299.441 87.9025 299.391 87.8782 299.368 87.8298L299.366 87.8281Z" fill="white"/>
<path fill-rule="evenodd" clip-rule="evenodd" d="M322.971 64.3056C324.377 65.7603 323.697 66.1339 321.72 64.9871C317.518 62.5464 311.739 63.1813 307.828 64.8383C305.135 65.2448 304.016 63.4805 305.283 62.8872C310.542 60.4777 318.765 60.4656 322.972 64.3056H322.971Z" fill="#4C466A"/>
<path fill-rule="evenodd" clip-rule="evenodd" d="M273.399 64.3056C271.989 65.7603 272.666 66.1339 274.643 64.9871C278.844 62.5464 284.626 63.1813 288.535 64.8383C291.228 65.2448 292.348 63.4805 291.082 62.8872C285.822 60.4777 277.601 60.4656 273.399 64.3056Z" fill="#4C466A"/>
<path fill-rule="evenodd" clip-rule="evenodd" d="M298.173 124.33C304.692 123.471 307.421 119.914 312.675 116.528C312.335 115.607 312.057 114.57 311.887 113.411C303.214 119.548 292.616 120.449 283.377 116.111C283.377 117.379 283.377 118.603 283.377 119.622C287.449 122.058 293.514 124.858 297.78 124.377C297.784 124.377 297.785 124.377 297.788 124.377C297.919 124.363 298.046 124.346 298.173 124.33Z" fill="#F68B85"/>
<path fill-rule="evenodd" clip-rule="evenodd" d="M223.582 232.099C224.355 225.315 225.119 219.385 225.68 216.358C227.356 207.34 234.681 170.858 239.058 156.24C243.428 141.622 252.89 137.18 252.89 137.18C261.277 132.559 267.671 129.948 272.039 128.485C272.499 128.331 272.935 128.191 273.349 128.061C273.23 127.767 273.111 127.473 272.989 127.181C274.119 125.802 275.578 124.773 277.297 124.021L279.984 126.088C281.249 125.192 283.377 123.293 283.377 120.655C283.377 120.343 283.377 119.997 283.377 119.622C283.377 118.602 283.377 117.377 283.377 116.111C274.195 111.8 266.355 102.316 263.086 87.6568C248.173 90.9883 248.269 60.8358 260.261 67.0317C260.168 66.2118 260.085 65.4455 260.017 64.7588C259.649 61.2181 259.37 57.7898 259.271 54.512C259.269 54.4653 259.268 54.4203 259.266 54.3736C258.564 53.865 257.955 53.232 257.473 52.4467C256.329 50.582 255.896 47.8577 256.627 43.888C256.812 42.7222 257.125 41.4543 257.577 40.0775C247.644 22.8131 266.298 11.2309 276.748 15.0726C283.063 3.07358 319.39 -3.20184 327.294 21.163C328.225 24.0309 328.761 27.3242 328.808 31.0829C335.109 34.3625 339.605 46.9617 331.47 52.4467C331.457 52.4553 331.444 52.464 331.431 52.4726C331.416 53.1714 331.394 53.8789 331.364 54.5967C331.262 57.8572 330.985 61.2648 330.619 64.7848C330.552 65.4317 330.475 66.1478 330.389 66.9123C335.36 70.2195 334.756 83.9362 327.649 87.2123C324.988 99.5711 319.104 108.304 311.886 113.412C312.053 114.571 312.333 115.609 312.674 116.529C313.058 117.567 313.519 118.456 313.988 119.198L314.079 119.107C316.202 119.707 318.06 120.674 319.582 122.101C319.553 122.21 319.522 122.319 319.493 122.428C319.95 122.488 320.406 122.552 320.856 122.62C340.935 125.643 353.715 135.888 353.715 135.888C353.715 135.888 361.754 140.598 364.579 153.032C366.772 162.67 371.984 187.922 374.933 202.725V196.266C373.547 189.39 372.134 182.518 370.709 175.651C369.12 168.004 367.54 160.328 365.81 152.715C364.644 147.59 362.411 142.8 359.046 138.903C357.82 137.483 356.026 135.727 354.405 134.757C353.65 134.157 352.824 133.593 352.028 133.062C349.871 131.623 347.614 130.322 345.323 129.144C337.719 125.233 329.472 122.569 321.111 121.302L320.535 121.213C320.499 121.17 320.46 121.13 320.419 121.091C318.77 119.544 316.811 118.529 314.709 117.894C314.377 117.302 314.09 116.682 313.853 116.038C313.61 115.379 313.421 114.718 313.279 114.025C321.474 107.907 326.418 98.3655 328.733 88.1481C332.47 86.0811 334.378 81.5267 334.803 77.2214C335.156 73.634 334.53 68.7666 331.731 66.2965C331.791 65.7448 331.849 65.1947 331.905 64.6464C331.905 64.6464 331.905 64.6464 331.905 64.6447C331.905 64.6395 331.905 64.636 331.906 64.6325C332.23 61.3807 332.506 58.1011 332.62 54.8337C332.638 54.2906 332.659 53.7474 332.675 53.2043C332.992 52.9639 333.292 52.7113 333.575 52.4484C336.741 49.501 337.729 45.1628 336.788 40.6673C335.946 36.6474 333.468 32.4027 330.052 30.2717C329.959 27.3865 329.586 24.5031 328.793 21.7355C327.476 17.1362 325.17 13.2063 321.714 10.0841C314.694 3.74644 304.524 2.29175 295.644 3.55963C291.479 4.15465 287.19 5.39486 283.419 7.3875C280.757 8.79376 277.927 10.8227 276.185 13.4917L275.633 13.3533C271.88 12.4919 267.731 13.2426 264.247 14.8616C260.401 16.6484 256.929 19.6754 255.018 23.697C252.473 29.0522 253.268 34.8831 256.187 40.2366C255.843 41.354 255.56 42.4973 255.374 43.6562C254.824 46.6573 254.759 49.859 256.01 52.4501C256.48 53.424 257.135 54.313 258.02 55.0707C258.141 58.4107 258.426 61.7301 258.769 65.0511C256.47 64.4976 254.238 65.0823 252.563 67.2634C250.7 69.6885 250.154 73.3071 250.317 76.3514C250.708 83.6058 254.946 90.0421 262.138 89.1824C265.03 100.964 271.528 111.655 282.107 116.969V120.658C282.107 122.173 281.086 123.485 279.977 124.429L278.035 122.934C277.668 122.653 277.227 122.597 276.809 122.781C274.983 123.58 273.331 124.713 272.028 126.3C271.818 126.558 271.711 126.868 271.712 127.186C271.693 127.193 271.673 127.2 271.652 127.205C265.028 129.424 258.489 132.579 252.335 135.97C251.757 136.245 251.154 136.629 250.623 136.987C249.221 137.931 247.904 139.057 246.704 140.271C242.5 144.521 239.597 149.986 237.847 155.835C236.436 160.549 235.259 165.411 234.126 170.208C232.719 176.154 231.4 182.125 230.119 188.103C228.917 193.706 227.753 199.319 226.62 204.937C225.871 208.652 225.127 212.373 224.435 216.101C224.036 218.254 223.739 220.461 223.453 222.635C223.044 225.732 222.675 228.836 222.321 231.94C222.315 231.993 222.312 232.049 222.312 232.1H223.578L223.582 232.099ZM348.124 217.718C348.124 217.718 347.088 213.065 345.833 207.087C345.833 207.087 345.833 207.087 345.831 207.087L345.724 207.101C345.501 207.101 345.3 206.937 345.251 206.693C345.25 206.682 345.247 206.672 345.245 206.66C345.224 213.705 345.994 221.471 345.994 221.471C345.994 221.471 346.574 225.811 347.427 232.095H349.954C348.931 224.023 348.124 217.714 348.124 217.714V217.718ZM347.113 219.806C347.494 222.784 347.873 225.765 348.251 228.743C347.915 226.266 347.581 223.787 347.251 221.309C347.202 220.809 347.157 220.307 347.114 219.804L347.113 219.806Z" fill="#B80E3C"/>
<path fill-rule="evenodd" clip-rule="evenodd" d="M256.013 52.4467C254.764 49.8556 254.829 46.6539 255.378 43.6528C255.562 42.4939 255.845 41.3506 256.19 40.2332C253.271 34.8797 252.475 29.0488 255.021 23.6936C256.933 19.672 260.404 16.645 264.25 14.8582C267.734 13.2392 271.883 12.4885 275.636 13.3499L276.188 13.4883C277.93 10.8176 280.76 8.79034 283.422 7.38408C287.193 5.39145 291.482 4.15124 295.647 3.55621C304.528 2.28833 314.699 3.74302 321.717 10.0807C327.46 15.2664 329.803 22.4724 330.055 30.2683C333.471 32.3993 335.949 36.644 336.791 40.6639C337.732 45.1577 336.742 49.4975 333.579 52.445C333.295 52.7079 332.996 52.9604 332.678 53.2009C332.662 53.744 332.641 54.2871 332.623 54.8303C332.493 58.5734 332.146 62.5362 331.734 66.2931C334.533 68.7632 335.16 73.6306 334.806 77.218C334.381 81.5233 332.473 86.0776 328.736 88.1447C326.421 98.3621 321.478 107.902 313.283 114.021C313.423 114.715 313.613 115.376 313.856 116.035C314.093 116.678 314.38 117.299 314.712 117.891C316.814 118.525 318.775 119.541 320.422 121.087C320.463 121.127 320.502 121.167 320.538 121.21L321.114 121.298C329.475 122.566 337.724 125.23 345.326 129.141C347.619 130.32 349.874 131.621 352.031 133.059C352.826 133.59 353.653 134.153 354.409 134.754C356.029 135.724 357.823 137.48 359.049 138.9C362.413 142.797 364.647 147.586 365.813 152.712C367.544 160.322 369.123 168.001 370.712 175.648C372.138 182.515 373.55 189.385 374.936 196.262V181.444C374.491 179.287 374.045 177.128 373.596 174.971C372.003 167.305 370.419 159.606 368.683 151.975C367.4 146.331 364.929 141.067 361.226 136.777C359.824 135.153 357.887 133.28 356.035 132.126C353.243 129.929 349.693 127.899 346.614 126.314C338.823 122.307 330.382 119.565 321.818 118.233C320.299 116.939 318.591 115.978 316.765 115.291C316.752 115.26 316.739 115.23 316.728 115.199C324.163 108.913 328.883 99.9016 331.304 90.1667C335.169 87.3853 337.262 82.4504 337.747 77.5449C338.156 73.3988 337.444 68.4501 334.829 65.1532C334.836 65.0927 334.842 65.0304 334.847 64.9699C334.847 64.9664 334.847 64.963 334.849 64.9578L334.85 64.9439C335.181 61.6211 335.461 58.2845 335.576 54.9462C335.578 54.8822 335.581 54.8182 335.583 54.7524C336.335 54.045 336.993 53.2701 337.556 52.4433C339.932 48.9527 340.624 44.509 339.676 39.9824C338.773 35.6615 336.34 31.2801 332.931 28.5437C332.905 28.177 332.874 27.8121 332.843 27.4471V27.4402C332.791 26.8469 332.721 26.2553 332.637 25.6672V25.6603C332.403 24.0257 332.081 22.4015 331.626 20.8171V20.8153C331.485 20.3241 331.333 19.8363 331.172 19.352L331.157 19.3088C330.998 18.8314 330.824 18.3591 330.638 17.8921L330.609 17.8195C330.433 17.3767 330.246 16.939 330.049 16.5066C330.032 16.4703 330.014 16.4322 329.998 16.3959C329.808 15.9808 329.607 15.5708 329.396 15.1661C329.373 15.1228 329.35 15.0813 329.327 15.0381C329.129 14.661 328.922 14.2908 328.707 13.9241C328.671 13.8619 328.634 13.7996 328.596 13.7391C328.391 13.3966 328.179 13.0576 327.96 12.7255C327.911 12.6511 327.86 12.575 327.81 12.5006C327.598 12.1875 327.382 11.8796 327.158 11.5769C327.095 11.4904 327.031 11.4057 326.966 11.3192C326.755 11.0407 326.538 10.7674 326.318 10.4976C326.234 10.3938 326.147 10.2917 326.061 10.1897C325.864 9.95617 325.662 9.72785 325.457 9.50299C325.338 9.37153 325.218 9.2418 325.097 9.1138C324.915 8.9218 324.731 8.73326 324.544 8.54645C324.39 8.39424 324.237 8.24548 324.081 8.09846C323.933 7.95835 323.783 7.8217 323.633 7.68505C315.951 0.748882 304.992 -0.947973 295.256 0.440992C288.644 1.38542 279.832 4.32421 274.995 10.0392C270.986 9.44245 266.738 10.2727 263.068 11.9782C258.771 13.9743 254.933 17.3075 252.663 21.7131L252.644 21.7511C252.554 21.9241 252.47 22.0988 252.385 22.2735C252.338 22.3738 252.291 22.4759 252.243 22.5779C252.19 22.6938 252.139 22.8114 252.089 22.9273C252.028 23.0657 251.971 23.2041 251.914 23.3442C251.877 23.4359 251.841 23.5293 251.805 23.6227C251.74 23.7922 251.677 23.9617 251.616 24.1329C251.59 24.2056 251.566 24.2782 251.542 24.3526C251.48 24.536 251.419 24.7211 251.364 24.9061C251.343 24.9736 251.323 25.0411 251.304 25.1085C251.247 25.3057 251.192 25.5029 251.141 25.7018C251.125 25.7623 251.11 25.8246 251.094 25.8852C251.043 26.0893 250.996 26.2951 250.952 26.5009C250.939 26.5649 250.926 26.6289 250.913 26.6929C250.874 26.8901 250.837 27.0873 250.804 27.2845C250.789 27.3744 250.775 27.4627 250.762 27.5526C250.736 27.7221 250.711 27.8916 250.69 28.0611C250.133 32.4546 251.128 36.7167 253.007 40.5808C252.79 41.4059 252.61 42.2431 252.475 43.0855C251.892 46.2924 251.849 49.5702 252.8 52.4415C253.292 53.9222 254.047 55.2956 255.13 56.4943C255.217 58.2897 255.347 60.0852 255.503 61.8754C253.549 62.2681 251.74 63.3699 250.28 65.2691C247.93 68.329 247.167 72.6619 247.375 76.5209C247.816 84.7146 252.491 91.8238 259.925 92.36C263.131 103.451 269.455 113.319 279.16 118.885V119.982C278.077 119.402 276.856 119.356 275.69 119.868C273.438 120.854 271.414 122.27 269.807 124.228C269.698 124.36 269.599 124.496 269.506 124.638C263.179 126.87 256.949 129.893 251.053 133.136C248.832 134.212 246.4 136.245 244.674 137.99C240.106 142.607 236.938 148.52 235.038 154.875C233.61 159.651 232.416 164.574 231.267 169.433C229.855 175.402 228.53 181.396 227.243 187.396C225.246 196.714 223.282 206.106 221.541 215.483C220.574 220.693 219.995 226.277 219.394 231.554C219.373 231.736 219.363 231.915 219.359 232.092H222.316C222.316 232.038 222.32 231.985 222.326 231.931C222.679 228.826 223.049 225.723 223.458 222.627C223.744 220.453 224.041 218.245 224.44 216.092C225.132 212.364 225.877 208.642 226.625 204.928C227.756 199.31 228.922 193.697 230.124 188.095C231.405 182.117 232.726 176.144 234.131 170.199C235.266 165.403 236.441 160.54 237.851 155.827C239.602 149.979 242.505 144.514 246.709 140.263C247.911 139.049 249.228 137.923 250.628 136.978C251.159 136.62 251.761 136.238 252.339 135.961C258.496 132.571 265.035 129.416 271.657 127.197C271.676 127.19 271.696 127.183 271.717 127.177C271.714 126.859 271.821 126.548 272.033 126.292C273.336 124.704 274.988 123.571 276.813 122.772C277.232 122.589 277.673 122.644 278.039 122.926L279.982 124.42C281.091 123.476 282.112 122.165 282.112 120.65V116.96C271.531 111.646 265.033 100.957 262.143 89.1738C254.951 90.0352 250.713 83.5972 250.322 76.3428C250.158 73.3002 250.705 69.6799 252.567 67.2548C254.243 65.0737 256.475 64.489 258.774 65.0425C258.431 61.7215 258.146 58.4021 258.025 55.062C257.139 54.3044 256.483 53.4154 256.014 52.4415L256.013 52.4467Z" fill="white"/>
<path fill-rule="evenodd" clip-rule="evenodd" d="M337.744 77.5467C337.26 82.4522 335.166 87.3871 331.301 90.1685C328.88 99.9033 324.159 108.915 316.725 115.201C316.738 115.232 316.749 115.262 316.762 115.293C318.588 115.979 320.297 116.939 321.815 118.235C330.379 119.565 338.82 122.308 346.611 126.316C349.69 127.901 353.24 129.931 356.032 132.128C357.883 133.282 359.821 135.155 361.223 136.779C364.925 141.069 367.397 146.332 368.68 151.977C370.416 159.608 372 167.305 373.593 174.973C374.04 177.13 374.486 179.287 374.933 181.446V143.397C373.161 138.751 370.663 134.449 367.444 130.72C365.562 128.541 363.172 126.273 360.72 124.663C357.554 122.229 353.733 120.02 350.289 118.249C344.338 115.187 338.045 112.798 331.6 111.134C334.678 106.322 337.026 100.972 338.682 95.3386C342.983 91.016 345.507 84.8807 346.137 78.4842C346.658 73.1896 345.877 67.5749 343.521 62.9081C343.651 61.4292 343.765 59.9468 343.854 58.4645C345.219 56.6258 346.29 54.6003 347.06 52.4502H337.553C336.99 53.277 336.332 54.0502 335.58 54.7594C335.578 54.8234 335.575 54.8874 335.573 54.9531C335.458 58.2932 335.178 61.6281 334.847 64.9509L334.845 64.9648C334.845 64.9682 334.845 64.9717 334.844 64.9769C334.837 65.0374 334.831 65.0997 334.826 65.1602C337.439 68.4553 338.152 73.4041 337.744 77.5519V77.5467ZM255.127 56.4995C254.044 55.3008 253.289 53.9274 252.797 52.4468H244.075C244.403 54.1973 244.915 55.8855 245.628 57.4837C244.964 58.1254 244.332 58.8329 243.738 59.6061C240.022 64.4441 238.613 70.896 238.944 77.0399C239.512 87.5929 245.099 96.6619 253.513 100.004C255.931 106.428 259.316 112.34 263.67 117.316C258.072 119.508 252.585 122.206 247.328 125.093C244.294 126.612 241.225 129.101 238.851 131.502C233.25 137.165 229.323 144.366 226.989 152.169C225.508 157.121 224.269 162.218 223.077 167.257C221.651 173.29 220.31 179.349 219.011 185.414C216.995 194.818 215.014 204.294 213.259 213.757C212.249 219.192 211.638 224.981 211.012 230.485C210.95 231.03 210.916 231.57 210.911 232.101H219.358C219.36 231.924 219.371 231.744 219.392 231.563C219.993 226.285 220.573 220.703 221.54 215.492C223.28 206.115 225.244 196.723 227.242 187.405C228.528 181.404 229.854 175.409 231.265 169.441C232.415 164.583 233.607 159.658 235.036 154.884C236.938 148.529 240.107 142.615 244.672 137.999C246.398 136.253 248.831 134.223 251.052 133.145C256.947 129.902 263.177 126.88 269.504 124.647C269.597 124.507 269.696 124.37 269.806 124.237C271.411 122.279 273.437 120.862 275.688 119.876C276.854 119.366 278.075 119.413 279.158 119.991V118.894C269.455 113.328 263.13 103.458 259.924 92.3687C252.488 91.8325 247.815 84.7216 247.373 76.5297C247.165 72.6707 247.929 68.3377 250.278 65.2778C251.739 63.3769 253.548 62.275 255.502 61.8841C255.345 60.0921 255.215 58.2984 255.129 56.503L255.127 56.4995Z" fill="#F0485E"/>
<path fill-rule="evenodd" clip-rule="evenodd" d="M238.944 77.0382C238.613 70.896 240.02 64.4424 243.738 59.6044C244.332 58.8312 244.964 58.1237 245.628 57.482C244.915 55.8855 244.403 54.1955 244.075 52.4451H235.52C235.658 53.4743 235.842 54.4948 236.072 55.5049C231.827 61.8617 230.098 69.7959 230.516 77.5502C231.164 89.5942 237.047 101.033 247.046 106.717C248.056 109.04 249.184 111.3 250.434 113.482C248.126 114.62 245.841 115.817 243.581 117.055C239.765 118.993 236.086 121.917 233.033 125.003C226.4 131.709 221.711 140.206 218.946 149.449C217.406 154.599 216.131 159.831 214.892 165.071C213.449 171.169 212.096 177.291 210.782 183.423C208.743 192.931 206.754 202.453 204.977 212.022C203.911 217.77 203.294 223.597 202.633 229.409C202.53 230.312 202.476 231.211 202.473 232.102H210.912C210.917 231.571 210.951 231.033 211.013 230.487C211.64 224.983 212.251 219.193 213.26 213.759C215.017 204.295 216.997 194.818 219.013 185.415C220.312 179.351 221.652 173.292 223.078 167.259C224.27 162.22 225.509 157.122 226.991 152.17C229.324 144.369 233.252 137.167 238.853 131.504C241.227 129.103 244.296 126.614 247.329 125.095C252.585 122.21 258.074 119.51 263.672 117.318C259.316 112.34 255.931 106.43 253.515 100.005C245.1 96.6636 239.514 87.5947 238.946 77.0417L238.944 77.0382ZM343.522 62.9047C345.877 67.5697 346.66 73.1861 346.139 78.4808C345.509 84.8773 342.985 91.0109 338.683 95.3352C337.027 100.969 334.679 106.319 331.602 111.131C338.047 112.795 344.34 115.184 350.291 118.245C353.735 120.017 357.556 122.225 360.721 124.659C363.173 126.269 365.564 128.537 367.446 130.717C370.665 134.446 373.163 138.748 374.934 143.394V126.185C374.522 125.666 374.101 125.157 373.667 124.656C371.269 121.878 368.441 119.233 365.43 117.211C361.871 114.506 357.901 112.196 353.971 110.174C350.731 108.507 347.404 107.026 344.014 105.734C344.781 103.89 345.475 102.01 346.093 100.104C350.944 94.4236 353.783 87.0394 354.536 79.4148C355.132 73.3729 354.414 67.075 352.204 61.4448C353.888 58.6409 355.122 55.6053 355.91 52.4468H347.064C346.294 54.5986 345.222 56.6241 343.858 58.461C343.768 59.9434 343.654 61.4258 343.524 62.9047H343.522Z" fill="#F54F65"/>
</g>
<defs>
<clipPath id="clip0_214_14735">
<rect width="380" height="237.48" fill="white"/>
</clipPath>
</defs>
</svg>
