<svg width="380" height="238" viewBox="0 0 380 238" fill="none" xmlns="http://www.w3.org/2000/svg">
<g clip-path="url(#clip0_214_14013)">
<path fill-rule="evenodd" clip-rule="evenodd" d="M14.9281 47.2361H365.074C373.293 47.2361 380.001 54.3562 380.001 63.08V221.638C380.001 230.362 373.295 237.482 365.074 237.482H14.9281C6.70876 237.482 0.000427246 230.362 0.000427246 221.638V63.08C0.000427246 54.3562 6.70713 47.2361 14.9281 47.2361Z" fill="white"/>
<path d="M353.367 52.6124H26.6351C14.7227 52.6124 5.06586 53.6825 5.06586 55.0025V229.715C5.06586 231.035 14.7227 232.105 26.6351 232.105H353.367C365.279 232.105 374.936 231.035 374.936 229.715V55.0025C374.936 53.6825 365.279 52.6124 353.367 52.6124Z" fill="#F35C6F"/>
<path fill-rule="evenodd" clip-rule="evenodd" d="M21.1039 111.118V74.3113C21.1039 71.7381 23.0855 69.6349 25.5099 69.6349H186.174C186.64 69.6349 187.018 70.0376 187.018 70.5318C187.018 71.0261 186.639 71.427 186.174 71.427H25.5099C24.0169 71.427 22.7924 72.7266 22.7924 74.3113V111.118C22.7924 111.612 22.413 112.013 21.949 112.013C21.4833 112.013 21.1056 111.61 21.1056 111.118H21.1039ZM201.656 69.6349H210.872C211.337 69.6349 211.715 70.0376 211.715 70.5318C211.715 71.0261 211.336 71.427 210.872 71.427H201.656C201.19 71.427 200.811 71.0243 200.811 70.5318C200.811 70.0376 201.19 69.6349 201.656 69.6349ZM186.106 215.083H25.5099C23.0855 215.083 21.1039 212.98 21.1039 210.406V200.998C21.1039 200.504 21.4833 200.101 21.9474 200.101C22.413 200.101 22.7908 200.504 22.7908 200.998V210.406C22.7908 211.991 24.0152 213.291 25.5083 213.291H186.104C186.57 213.291 186.948 213.693 186.948 214.186C186.948 214.68 186.568 215.083 186.104 215.083H186.106Z" fill="white"/>
<path d="M59.0044 183.317H21.1039V190.529H59.0044V183.317Z" fill="#F0485E"/>
<path d="M57.7377 181.527H19.8372V188.739H57.7377V181.527Z" fill="white"/>
<path d="M30.5575 138.558C30.5575 137.918 30.3426 137.424 29.9192 137.068C29.4926 136.712 28.7469 136.344 27.682 135.964C26.6139 135.584 25.7444 135.214 25.0655 134.86C22.8608 133.709 21.7585 132.129 21.7585 130.119C21.7585 129.12 22.0304 128.236 22.5808 127.47C23.1311 126.704 23.9094 126.112 24.914 125.683C25.9154 125.256 27.047 125.044 28.2991 125.044C29.5236 125.044 30.621 125.277 31.5898 125.738C32.5586 126.2 33.3125 126.86 33.8514 127.715C34.3904 128.571 34.6574 129.549 34.6574 130.645H30.5689C30.5689 129.908 30.354 129.336 29.9306 128.93C29.504 128.524 28.9293 128.32 28.208 128.32C27.4736 128.32 26.8956 128.493 26.4723 128.837C26.0457 129.179 25.834 129.62 25.834 130.149C25.834 130.613 26.0701 131.033 26.5358 131.41C27.0014 131.787 27.8237 132.176 29.0009 132.578C30.1781 132.981 31.142 133.417 31.8959 133.878C33.7342 135.005 34.6558 136.553 34.6558 138.534C34.6558 140.113 34.094 141.352 32.9722 142.254C31.852 143.157 30.3116 143.609 28.3578 143.609C26.977 143.609 25.7298 143.347 24.6128 142.821C23.4958 142.296 22.654 141.577 22.0874 140.663C21.5208 139.749 21.2424 138.694 21.2424 137.505H25.3537C25.3537 138.47 25.5898 139.187 26.0603 139.643C26.5309 140.105 27.2961 140.333 28.3578 140.333C29.0351 140.333 29.5692 140.175 29.9648 139.868C30.3556 139.558 30.5542 139.123 30.5542 138.56L30.5575 138.558Z" fill="#F0485E"/>
<path d="M42.1473 125.296L45.9443 137.86L49.7284 125.296H55.1292V143.353H51.0163V139.138L51.412 130.506L47.299 143.353H44.588L40.4637 130.494L40.8626 139.138V143.353H36.7595V125.296H42.1473Z" fill="#F0485E"/>
<path d="M61.8359 137.208V143.355H57.736V125.298H64.5241C65.825 125.298 66.9778 125.552 67.9776 126.06C68.9789 126.568 69.7523 127.287 70.3027 128.227C70.8498 129.162 71.1249 130.225 71.1249 131.414C71.1249 133.171 70.5306 134.576 69.342 135.63C68.1534 136.685 66.5268 137.21 64.4524 137.21H61.8359V137.208ZM61.8359 133.856H64.5241C65.3187 133.856 65.9244 133.645 66.3379 133.225C66.7564 132.801 66.9648 132.209 66.9648 131.438C66.9648 130.596 66.7499 129.922 66.3233 129.419C65.8967 128.911 65.3105 128.657 64.5729 128.649H61.8375V133.856H61.8359Z" fill="#F0485E"/>
<path d="M74.4759 144.904H71.6835L77.4898 125.296H80.2936L74.4759 144.904Z" fill="#F0485E"/>
<path d="M87.0947 125.296L90.8918 137.86L94.6758 125.296H100.077V143.353H95.9637V139.138L96.3594 130.506L92.2465 143.353H89.5355L85.4111 130.494L85.8101 139.138V143.353H81.7069V125.296H87.0947Z" fill="#F0485E"/>
<path d="M115.698 128.648H110.593V143.353H106.489V128.648H101.475V125.296H115.698V128.648Z" fill="#F0485E"/>
<path d="M122.976 139.586C122.976 139.23 122.8 138.947 122.45 138.731C122.098 138.52 121.433 138.295 120.452 138.062C119.471 137.829 118.661 137.528 118.023 137.151C117.385 136.774 116.895 136.316 116.559 135.779C116.224 135.241 116.056 134.623 116.056 133.93C116.056 132.698 116.538 131.681 117.495 130.886C118.453 130.086 119.708 129.689 121.257 129.689C122.924 129.689 124.264 130.086 125.277 130.886C126.29 131.687 126.796 132.741 126.796 134.044H122.847C122.847 132.969 122.313 132.431 121.244 132.431C120.833 132.431 120.487 132.554 120.206 132.8C119.923 133.045 119.785 133.349 119.785 133.714C119.785 134.087 119.956 134.391 120.299 134.619C120.643 134.853 121.188 135.043 121.942 135.195C122.691 135.343 123.354 135.521 123.92 135.729C125.822 136.424 126.772 137.668 126.772 139.462C126.772 140.685 126.26 141.684 125.236 142.45C124.21 143.22 122.883 143.606 121.255 143.606C120.174 143.606 119.21 143.398 118.36 142.984C117.51 142.572 116.849 142.011 116.374 141.299C115.895 140.587 115.66 139.838 115.66 139.05H119.342C119.358 139.672 119.549 140.125 119.925 140.409C120.299 140.692 120.778 140.836 121.364 140.836C121.898 140.836 122.302 140.721 122.572 140.488C122.839 140.255 122.974 139.954 122.974 139.583L122.976 139.586Z" fill="#F0485E"/>
<path d="M129.963 144.904H127.172L132.978 125.296H135.782L129.963 144.904Z" fill="#F0485E"/>
<path d="M30.5575 169.039C30.5575 168.4 30.3426 167.906 29.9192 167.55C29.4926 167.194 28.7469 166.826 27.682 166.445C26.6139 166.065 25.7444 165.695 25.0655 165.341C22.8608 164.19 21.7585 162.611 21.7585 160.601C21.7585 159.602 22.0304 158.717 22.5808 157.951C23.1311 157.186 23.9094 156.593 24.914 156.164C25.9154 155.738 27.047 155.525 28.2991 155.525C29.5236 155.525 30.621 155.758 31.5898 156.22C32.5586 156.681 33.3125 157.341 33.8514 158.197C34.3904 159.052 34.6574 160.03 34.6574 161.126H30.5689C30.5689 160.39 30.354 159.818 29.9306 159.412C29.504 159.006 28.9293 158.802 28.208 158.802C27.4736 158.802 26.8956 158.974 26.4723 159.318C26.0457 159.661 25.834 160.101 25.834 160.63C25.834 161.095 26.0701 161.515 26.5358 161.892C27.0014 162.268 27.8237 162.657 29.0009 163.06C30.1781 163.463 31.142 163.898 31.8959 164.359C33.7342 165.486 34.6558 167.035 34.6558 169.015C34.6558 170.595 34.094 171.834 32.9722 172.736C31.852 173.638 30.3116 174.091 28.3578 174.091C26.977 174.091 25.7298 173.828 24.6128 173.303C23.4958 172.777 22.654 172.058 22.0874 171.144C21.5208 170.23 21.2424 169.176 21.2424 167.987H25.3537C25.3537 168.951 25.5898 169.668 26.0603 170.125C26.5309 170.586 27.2961 170.814 28.3578 170.814C29.0351 170.814 29.5692 170.657 29.9648 170.349C30.3556 170.04 30.5542 169.604 30.5542 169.041L30.5575 169.039Z" fill="#F0485E"/>
<path d="M42.1473 155.777L45.9443 168.341L49.7284 155.777H55.1292V173.837H51.0163V169.62L51.412 160.99L47.299 173.837H44.588L40.4637 160.976L40.8626 169.62V173.837H36.7595V155.777H42.1473Z" fill="#F0485E"/>
<path d="M61.8359 167.69V173.837H57.736V155.779H64.5241C65.825 155.779 66.9778 156.033 67.9776 156.541C68.9789 157.049 69.7523 157.768 70.3027 158.708C70.8498 159.643 71.1249 160.706 71.1249 161.895C71.1249 163.653 70.5306 165.058 69.342 166.112C68.1534 167.166 66.5268 167.691 64.4524 167.691H61.8359V167.69ZM61.8359 164.337H64.5241C65.3187 164.337 65.9244 164.126 66.3379 163.706C66.7564 163.283 66.9648 162.69 66.9648 161.919C66.9648 161.078 66.7499 160.404 66.3233 159.901C65.8967 159.393 65.3105 159.139 64.5729 159.13H61.8375V164.337H61.8359Z" fill="#F0485E"/>
<path d="M77.41 170.484H84.5498V173.837H73.3068V155.777H77.41V170.484Z" fill="#F0485E"/>
<path d="M86.2773 173.837V155.779H92.3881C94.5781 155.779 96.2454 156.202 97.3852 157.053C98.5266 157.903 99.0964 159.14 99.0964 160.756C99.0964 161.688 98.8929 162.488 98.4907 163.148C98.0837 163.808 97.4894 164.295 96.7046 164.608C97.5903 164.854 98.2726 165.32 98.7464 165.996C99.2202 166.677 99.4612 167.503 99.4612 168.481C99.4612 170.254 98.9352 171.583 97.8769 172.477C96.8202 173.365 95.2571 173.819 93.1859 173.835H86.279L86.2773 173.837ZM90.3772 166.141V170.484H93.0655C93.8079 170.484 94.3729 170.303 94.7718 169.943C95.1708 169.584 95.3662 169.076 95.3662 168.419C95.3662 166.908 94.6644 166.15 93.2527 166.141H90.3772ZM90.3772 163.297H92.5184C93.4123 163.288 94.0505 163.115 94.4332 162.776C94.8158 162.438 95.0079 161.938 95.0079 161.278C95.0079 160.516 94.8012 159.97 94.386 159.636C93.9756 159.303 93.3097 159.133 92.3881 159.133H90.3772V163.298V163.297Z" fill="#F0485E"/>
<path d="M29.2907 136.766C29.2907 136.126 29.0758 135.632 28.6525 135.276C28.2259 134.92 27.4801 134.552 26.4153 134.172C25.3471 133.792 24.4777 133.422 23.7987 133.067C21.5941 131.917 20.4917 130.337 20.4917 128.327C20.4917 127.328 20.7637 126.443 21.314 125.678C21.8643 124.912 22.6426 124.319 23.6473 123.891C24.6486 123.464 25.7802 123.251 27.0324 123.251C28.2568 123.251 29.3542 123.485 30.323 123.946C31.2918 124.408 32.0457 125.068 32.5846 125.923C33.1236 126.779 33.3906 127.757 33.3906 128.852H29.3021C29.3021 128.116 29.0872 127.544 28.6638 127.138C28.2373 126.732 27.6625 126.528 26.9412 126.528C26.2068 126.528 25.6288 126.701 25.2055 127.045C24.7789 127.387 24.5672 127.828 24.5672 128.356C24.5672 128.821 24.8033 129.241 25.269 129.618C25.7347 129.995 26.5569 130.384 27.7341 130.786C28.9113 131.189 29.8753 131.624 30.6291 132.086C32.4674 133.213 33.389 134.761 33.389 136.742C33.389 138.321 32.8272 139.56 31.7054 140.462C30.5852 141.364 29.0449 141.817 27.091 141.817C25.7102 141.817 24.463 141.555 23.346 141.029C22.2291 140.504 21.3873 139.785 20.8206 138.871C20.254 137.956 19.9756 136.902 19.9756 135.713H24.0869C24.0869 136.678 24.323 137.395 24.7935 137.851C25.2641 138.312 26.0294 138.541 27.091 138.541C27.7683 138.541 28.3024 138.383 28.698 138.076C29.0888 137.766 29.2875 137.331 29.2875 136.767L29.2907 136.766Z" fill="white"/>
<path d="M40.8805 123.504L44.6776 136.067L48.4616 123.504H53.8624V141.561H49.7511V137.346L50.1452 128.716L46.0339 141.561H43.3212L39.1969 128.702L39.5958 137.346V141.561H35.4927V123.504H40.8805Z" fill="white"/>
<path d="M60.5708 135.416V141.563H56.4709V123.505H63.259C64.56 123.505 65.7127 123.76 66.7125 124.268C67.7139 124.776 68.4873 125.495 69.0376 126.435C69.5847 127.37 69.8599 128.433 69.8599 129.621C69.8599 131.379 69.2656 132.784 68.0769 133.838C66.8883 134.892 65.2617 135.418 63.1874 135.418H60.5708V135.416ZM60.5708 132.063H63.259C64.0536 132.063 64.6593 131.853 65.0729 131.433C65.4913 131.009 65.6997 130.416 65.6997 129.646C65.6997 128.804 65.4848 128.13 65.0582 127.627C64.6316 127.119 64.0454 126.865 63.3078 126.856H60.5724V132.063H60.5708Z" fill="white"/>
<path d="M73.2091 143.111H70.4167L76.2246 123.504H79.0284L73.2091 143.111Z" fill="white"/>
<path d="M85.828 123.504L89.625 136.067L93.409 123.504H98.8099V141.561H94.697V137.346L95.0926 128.716L90.9813 141.561H88.2687L84.1444 128.702L84.5433 137.346V141.561H80.4401V123.504H85.828Z" fill="white"/>
<path d="M114.431 126.856H109.327V141.561H105.222V126.856H100.21V123.504H114.431V126.856Z" fill="white"/>
<path d="M121.709 137.796C121.709 137.44 121.533 137.156 121.183 136.94C120.832 136.729 120.166 136.505 119.186 136.271C118.204 136.038 117.395 135.737 116.756 135.361C116.118 134.984 115.628 134.526 115.292 133.989C114.957 133.451 114.789 132.832 114.789 132.139C114.789 130.907 115.271 129.891 116.229 129.096C117.186 128.296 118.441 127.898 119.99 127.898C121.657 127.898 122.997 128.296 124.01 129.096C125.023 129.896 125.529 130.95 125.529 132.253H121.581C121.581 131.179 121.047 130.641 119.977 130.641C119.567 130.641 119.22 130.764 118.94 131.009C118.656 131.255 118.518 131.559 118.518 131.923C118.518 132.297 118.689 132.601 119.033 132.829C119.376 133.062 119.922 133.252 120.675 133.404C121.424 133.553 122.087 133.731 122.654 133.938C124.555 134.633 125.505 135.877 125.505 137.671C125.505 138.895 124.993 139.894 123.969 140.659C122.944 141.43 121.617 141.815 119.988 141.815C118.907 141.815 117.943 141.608 117.093 141.193C116.243 140.782 115.582 140.22 115.107 139.508C114.628 138.796 114.394 138.048 114.394 137.26H118.075C118.091 137.882 118.282 138.335 118.658 138.618C119.033 138.902 119.511 139.045 120.097 139.045C120.631 139.045 121.035 138.931 121.306 138.698C121.573 138.464 121.708 138.164 121.708 137.792L121.709 137.796Z" fill="white"/>
<path d="M128.698 143.111H125.905L131.712 123.504H134.515L128.698 143.111Z" fill="white"/>
<path d="M29.2907 167.247C29.2907 166.608 29.0758 166.114 28.6525 165.758C28.2259 165.402 27.4801 165.033 26.4153 164.653C25.3471 164.273 24.4777 163.903 23.7987 163.549C21.5941 162.398 20.4917 160.818 20.4917 158.809C20.4917 157.81 20.7637 156.925 21.314 156.159C21.8643 155.394 22.6426 154.801 23.6473 154.372C24.6486 153.945 25.7802 153.733 27.0324 153.733C28.2568 153.733 29.3542 153.966 30.323 154.428C31.2918 154.889 32.0457 155.549 32.5846 156.405C33.1236 157.26 33.3906 158.238 33.3906 159.334H29.3021C29.3021 158.598 29.0872 158.026 28.6638 157.62C28.2373 157.213 27.6625 157.01 26.9412 157.01C26.2068 157.01 25.6288 157.182 25.2055 157.526C24.7789 157.868 24.5672 158.309 24.5672 158.838C24.5672 159.303 24.8033 159.723 25.269 160.099C25.7347 160.476 26.5569 160.865 27.7341 161.268C28.9113 161.67 29.8753 162.106 30.6291 162.567C32.4674 163.694 33.389 165.243 33.389 167.223C33.389 168.803 32.8272 170.042 31.7054 170.944C30.5852 171.846 29.0449 172.299 27.091 172.299C25.7102 172.299 24.463 172.036 23.346 171.511C22.2291 170.985 21.3873 170.266 20.8206 169.352C20.254 168.438 19.9756 167.384 19.9756 166.195H24.0869C24.0869 167.159 24.323 167.876 24.7935 168.332C25.2641 168.794 26.0294 169.022 27.091 169.022C27.7683 169.022 28.3024 168.865 28.698 168.557C29.0888 168.248 29.2875 167.812 29.2875 167.249L29.2907 167.247Z" fill="white"/>
<path d="M40.8805 153.987L44.6776 166.549L48.4616 153.987H53.8624V172.045H49.7511V167.828L50.1452 159.197L46.0339 172.045H43.3212L39.1969 159.184L39.5958 167.828V172.045H35.4927V153.987H40.8805Z" fill="white"/>
<path d="M60.5708 165.897V172.045H56.4709V153.987H63.259C64.56 153.987 65.7127 154.241 66.7125 154.749C67.7139 155.257 68.4873 155.976 69.0376 156.916C69.5847 157.851 69.8599 158.914 69.8599 160.103C69.8599 161.86 69.2656 163.265 68.0769 164.32C66.8883 165.374 65.2617 165.899 63.1874 165.899H60.5708V165.897ZM60.5708 162.545H63.259C64.0536 162.545 64.6593 162.334 65.0729 161.914C65.4913 161.491 65.6997 160.898 65.6997 160.127C65.6997 159.286 65.4848 158.612 65.0582 158.109C64.6316 157.601 64.0454 157.347 63.3078 157.338H60.5724V162.545H60.5708Z" fill="white"/>
<path d="M76.1448 168.692H83.283V172.045H72.04V153.987H76.1448V168.692Z" fill="white"/>
<path d="M85.0106 172.045V153.987H91.1213C93.3113 153.987 94.9786 154.41 96.1184 155.261C97.2598 156.111 97.8297 157.348 97.8297 158.964C97.8297 159.896 97.6261 160.696 97.224 161.356C96.8169 162.016 96.2226 162.503 95.4378 162.816C96.3235 163.062 97.0058 163.528 97.4796 164.204C97.9534 164.885 98.1944 165.711 98.1944 166.689C98.1944 168.462 97.6685 169.791 96.6101 170.685C95.5534 171.573 93.9903 172.027 91.9192 172.043H85.0122L85.0106 172.045ZM89.1105 164.349V168.692H91.7987C92.5411 168.692 93.1062 168.51 93.5051 168.151C93.904 167.792 94.0994 167.283 94.0994 166.627C94.0994 165.116 93.3976 164.358 91.9859 164.349H89.1105ZM89.1105 161.504H91.2516C92.1455 161.496 92.7838 161.323 93.1664 160.984C93.549 160.646 93.7412 160.146 93.7412 159.486C93.7412 158.724 93.5344 158.178 93.1192 157.844C92.7089 157.511 92.0429 157.341 91.1213 157.341H89.1105V161.506V161.504Z" fill="white"/>
<path fill-rule="evenodd" clip-rule="evenodd" d="M267.331 132.741C271.295 131.415 274.967 129.746 278.508 127.167C279.792 126.232 281.309 116.356 282.553 110.909C290.557 110.909 298.56 110.909 306.565 110.909C307.81 116.358 309.326 126.234 310.609 127.167C314.151 129.746 317.822 131.415 321.787 132.741L294.74 145.075L267.331 132.741Z" fill="#FCD1C8"/>
<path d="M354.177 156.292C353.095 149.528 347.051 144.978 340.679 146.127C334.306 147.275 330.019 153.69 331.102 160.452C331.25 161.37 345.305 216.894 349.158 232.104H365.072C366.607 232.104 368.063 231.727 369.362 231.055L354.177 156.292Z" fill="#FCD1C8"/>
<path fill-rule="evenodd" clip-rule="evenodd" d="M373.733 219.215C374.096 221.923 344.423 230.687 343.674 228.412C340.039 217.39 334.481 200.038 330.692 189.076C326.96 178.278 321.973 146.43 333.794 139.634C337.731 137.371 344.641 142.446 352.606 145.928C360.233 149.262 371.461 202.272 373.733 219.215Z" fill="white"/>
<path d="M235.772 156.292C236.855 149.528 242.899 144.978 249.27 146.127C255.643 147.275 259.93 153.69 258.847 160.452C258.701 161.37 244.644 216.894 240.792 232.104H220.375L235.774 156.292H235.772Z" fill="#FCD1C8"/>
<path fill-rule="evenodd" clip-rule="evenodd" d="M216.217 219.215C215.854 221.923 245.527 230.687 246.276 228.412C249.91 217.39 255.469 200.038 259.258 189.076C262.99 178.278 267.977 146.43 256.156 139.634C252.219 137.371 245.309 142.446 237.343 145.928C229.717 149.262 218.49 202.272 216.217 219.215Z" fill="white"/>
<path fill-rule="evenodd" clip-rule="evenodd" d="M271.39 131.061C262.708 134.728 251.996 138.269 245.344 142.063C228.74 151.531 242.785 182.417 246.29 202.073L251.647 232.104H337.848L343.205 202.073C346.712 182.417 360.755 151.531 344.151 142.063C337.499 138.269 326.787 134.728 318.105 131.061L294.748 145.197L271.391 131.061H271.39Z" fill="white"/>
<path fill-rule="evenodd" clip-rule="evenodd" d="M284.894 232.104L291.796 157.922L288.065 149.895L294.748 145.198L301.053 149.895L297.321 157.922L304.223 232.104H284.894Z" fill="#499ADB"/>
<path fill-rule="evenodd" clip-rule="evenodd" d="M291.748 157.747C293.619 157.167 295.496 157.177 297.368 157.747C297.46 157.775 297.512 157.877 297.486 157.972C297.46 158.069 297.363 158.124 297.274 158.097C295.465 157.545 293.653 157.535 291.845 158.097C291.754 158.124 291.66 158.069 291.632 157.972C291.606 157.875 291.658 157.775 291.749 157.746L291.748 157.747Z" fill="#428CC8"/>
<path fill-rule="evenodd" clip-rule="evenodd" d="M271.39 131.061C273.057 129.499 275.089 128.443 277.413 127.786L294.747 145.197L278.391 157.307C277.841 157.715 276.773 156.965 276.628 156.268C274.912 147.945 273.689 139.415 271.388 131.061H271.39Z" fill="white"/>
<path fill-rule="evenodd" clip-rule="evenodd" d="M318.105 131.061C316.438 129.499 314.406 128.443 312.083 127.786L294.748 145.197L311.104 157.307C311.654 157.715 312.723 156.965 312.867 156.268C314.584 147.945 315.806 139.415 318.107 131.061H318.105Z" fill="white"/>
<path fill-rule="evenodd" clip-rule="evenodd" d="M276.629 156.268C274.913 147.945 273.691 139.415 271.39 131.061C271.124 131.173 270.857 131.286 270.589 131.396C272.849 139.626 274.068 148.101 275.791 156.463C276.053 157.735 277.771 158.879 278.883 158.055L287.822 151.436L290.911 158.078L284.03 232.105H284.893H304.225H305.088L298.207 158.078L301.392 151.227L300.68 150.7L310.614 158.055C311.726 158.879 313.444 157.735 313.706 156.463C315.43 148.103 316.648 139.628 318.908 131.396C318.64 131.284 318.373 131.173 318.107 131.061C315.806 139.415 314.584 147.945 312.867 156.268C312.724 156.965 311.656 157.716 311.104 157.307L295.455 145.719L295.454 145.721L294.748 145.196L294.043 145.718L288.152 150.08L278.394 157.305C277.844 157.713 276.776 156.963 276.631 156.266L276.629 156.268ZM319.486 202.509C316.684 202.656 312.464 201.6 311.251 199.272C311.464 199.846 311.703 200.378 311.967 200.857C314.297 205.066 322.515 204.475 326.991 203.349C329.528 202.709 332.134 200.649 333.427 198.112C333.82 197.342 334.092 196.526 334.202 195.695C334.647 192.37 335.124 188.739 335.383 185.804C334.984 189.49 334.6 193.655 332.994 196.832C332.579 197.654 332.081 198.411 331.48 199.075C328.972 201.849 323.101 202.32 319.485 202.511L319.486 202.509ZM328.985 175.625L313.602 174.018C318.088 175.152 324.75 176.114 329.099 176.351C331.136 176.462 332.975 176.432 334.445 176.222L328.985 175.627V175.625ZM342.524 205.889L340.329 218.19C340.622 219.091 340.912 219.981 341.197 220.852L343.311 209.002L344.501 202.333C345.471 196.892 347.572 189.38 347.726 183.627C345.996 190.178 344.187 196.566 343.205 202.072L342.524 205.887V205.889ZM249.326 219.091L247.158 206.942L246.291 202.073C244.343 191.153 239.143 176.768 237.752 164.515C237.552 169.973 239.511 180.316 241.059 186.117C242.482 191.445 244.024 196.894 244.995 202.334L246.372 210.056L248.458 221.752C248.741 220.881 249.031 219.993 249.326 219.091ZM284.891 232.104L291.772 158.102C291.707 158.093 291.65 158.043 291.63 157.972C291.606 157.886 291.647 157.796 291.718 157.758L288.534 150.907L294.747 146.307L300.679 150.698L297.396 157.758C297.469 157.796 297.508 157.886 297.486 157.972C297.466 158.045 297.409 158.093 297.342 158.102L304.223 232.104" fill="black" fill-opacity="0.090196"/>
<path fill-rule="evenodd" clip-rule="evenodd" d="M361.825 225.943C363.862 225.194 365.906 224.605 367.956 224.128L367.68 222.772C361.933 225.02 353.42 227.488 348.223 228.409L349.159 232.104H350.517C350.784 231.902 351.053 231.705 351.321 231.511C354.793 229.01 358.298 227.239 361.825 225.943Z" fill="#F8A8A0"/>
<path fill-rule="evenodd" clip-rule="evenodd" d="M228.124 225.943C226.087 225.194 224.044 224.605 221.994 224.126L222.269 222.77C228.017 225.018 236.529 227.486 241.727 228.407L240.79 232.102H239.432C239.165 231.9 238.897 231.703 238.628 231.509C235.157 229.008 231.651 227.237 228.124 225.941V225.943Z" fill="#F8A8A0"/>
<path fill-rule="evenodd" clip-rule="evenodd" d="M262.325 72.5227C262.325 72.5227 259.062 67.9742 256.591 67.9828C254.119 67.9897 250.602 73.4023 250.589 77.7556C250.574 82.1071 253.977 97.557 262.513 92.6455C271.046 87.7358 262.325 72.5227 262.325 72.5227Z" fill="#FCD1C8"/>
<path fill-rule="evenodd" clip-rule="evenodd" d="M264.999 77.6657C265.255 77.9906 265.294 78.5021 265.085 78.8132C264.9 79.0932 264.577 79.1139 264.328 78.8789V78.8806C264.328 78.8806 261.054 91.9559 259.414 89.7076C257.774 87.4575 256.037 85.2783 255.552 81.8341C255.068 78.3881 258.077 75.5642 257.156 74.5878C256.275 73.6546 255.15 74.8661 255.047 74.9836L255.044 74.9888L255.042 74.9922L255.041 74.994C254.145 76.0568 253.663 77.3598 253.663 77.365C253.518 77.7417 253.162 77.8489 252.867 77.6035C252.572 77.3615 252.447 76.8586 252.592 76.4819C252.597 76.4681 254.407 71.5584 257.797 72.0561C261.037 72.5348 264.988 77.6536 264.999 77.6692V77.6657Z" fill="#F8A8A0"/>
<path fill-rule="evenodd" clip-rule="evenodd" d="M327.668 79.0483C327.668 79.0483 331.638 75.2204 334.067 75.7181C336.495 76.2175 339.048 82.2333 338.333 86.5174C337.618 90.7998 331.69 105.318 324.119 98.7996C316.549 92.2792 327.666 79.05 327.666 79.05L327.668 79.0483Z" fill="#FCD1C8"/>
<path fill-rule="evenodd" clip-rule="evenodd" d="M324.179 83.5744C323.873 83.8423 323.751 84.34 323.9 84.6856C324.037 84.9967 324.35 85.0813 324.635 84.8999C324.635 84.8999 325.669 98.4073 327.657 96.5201C329.646 94.6312 331.719 92.8339 332.771 89.5418C333.821 86.2513 331.337 82.8762 332.408 82.0985C333.427 81.3554 334.331 82.7708 334.414 82.9039L334.417 82.9108L334.419 82.9125L334.42 82.9142C335.122 84.136 335.376 85.5134 335.378 85.5203C335.458 85.9178 335.787 86.0941 336.12 85.9126C336.451 85.7294 336.658 85.2593 336.578 84.8636C336.576 84.848 335.619 79.6618 332.201 79.4803C328.937 79.3075 324.192 83.5606 324.18 83.5727L324.179 83.5744Z" fill="#F8A8A0"/>
<path fill-rule="evenodd" clip-rule="evenodd" d="M299.405 23.4945C255.531 19.81 258.844 57.574 260.188 87.8896C260.751 100.649 266.525 108.728 266.525 108.728C266.525 108.728 277.877 121.76 281.936 124.658C284.351 126.386 287.477 127.39 290.619 127.698C293.76 128.018 297.002 127.651 299.666 126.43C304.14 124.383 317.483 113.816 317.483 113.816C317.483 113.816 324.513 107.017 327.201 94.5811C333.588 65.0397 343.162 28.5632 299.404 23.4945H299.405Z" fill="#FCD1C8"/>
<path fill-rule="evenodd" clip-rule="evenodd" d="M332.258 67.4229C332.812 62.3196 332.978 57.3459 332.489 52.6798C323.195 46.7678 309.072 40.9058 290.678 41.3119L284.658 45.6237C284.658 45.6237 310.866 46.2009 326.489 62.3006C328.614 64.4902 330.531 66.1648 332.258 67.4229Z" fill="#F8A8A0"/>
<path fill-rule="evenodd" clip-rule="evenodd" d="M324.218 56.1725C324.236 66.1233 328.202 71.3596 327.426 73.8776C327.336 75.0907 327.217 76.3437 327.08 77.6381C326.256 85.3803 329.318 85.4408 329.318 85.4408C329.318 85.4408 330.837 76.5338 332.061 76.0309C364.343 8.37645 251.323 -24.0769 258.506 68.6861C259.627 69.4189 259.632 78.4814 259.632 78.4814C259.632 78.4814 260.857 76.1086 261.342 68.337C261.526 65.3698 261.614 62.0275 263.833 59.8621C266.078 57.6725 266.541 53.8135 266.842 51.3993C267.062 49.6521 267.08 49.4741 267.192 48.4372C279.829 39.1033 313.374 44.4918 324.218 56.1742V56.1725Z" fill="#352236"/>
<path fill-rule="evenodd" clip-rule="evenodd" d="M267.195 48.4355C254.077 37.1937 257.327 16.67 262.407 25.437C262.407 25.437 270.424 4.22196 296.834 5.42477C319.434 6.45476 331.201 19.499 337.763 34.083C344.421 48.8848 343.82 63.0195 324.221 56.1725C324.221 56.1725 298.907 38.9789 267.197 48.4355H267.195Z" fill="#735974"/>
<path fill-rule="evenodd" clip-rule="evenodd" d="M320.107 12.3772C328.277 17.6429 333.741 25.3367 337.525 33.5646C308.282 51.2714 278.17 27.1669 278.17 27.1669C302.413 32.8612 315.435 18.9857 320.108 12.3772H320.107Z" fill="#9E6D82"/>
<path fill-rule="evenodd" clip-rule="evenodd" d="M295.372 73.9796C295.354 74.2975 295.255 74.6207 295.087 74.8298C293.929 76.316 288.892 82.6809 288.698 83.6349C288.527 84.8774 291.893 86.5434 293.788 87.0445C294.962 87.3539 292.63 90.9588 290.826 89.9807C288.9 88.9438 286.449 85.7622 286.782 83.3808C286.939 82.2368 290.272 77.7522 292.627 74.7538C293.229 73.9865 293.192 73.0533 293.182 72.4449C293.159 70.8619 295.431 72.934 295.374 73.9778L295.372 73.9796Z" fill="#F8A8A0"/>
<path fill-rule="evenodd" clip-rule="evenodd" d="M277.665 68.1469C280.133 68.4545 281.916 70.8463 281.627 73.4662L281.123 78.0355C280.834 80.6554 278.58 82.546 276.112 82.2419C273.645 81.9342 271.86 79.5407 272.15 76.9225L272.653 72.3515C272.943 69.7299 275.198 67.8376 277.665 68.1469Z" fill="#4C466A"/>
<path fill-rule="evenodd" clip-rule="evenodd" d="M283.154 60.944C283.154 60.944 284.171 61.2637 285.13 60.8368C286.089 60.4134 286.913 58.7682 286.878 58.3811C286.84 57.9957 286.311 58.5902 284.531 57.6708C282.781 56.767 276.281 54.5134 271.627 59.3074C270.826 60.1352 271.4 60.8143 272.391 60.4929C273.384 60.1732 277.628 58.032 283.154 60.9422V60.944Z" fill="#4C466A"/>
<path fill-rule="evenodd" clip-rule="evenodd" d="M310.892 71.1471C308.424 70.8585 306.179 72.7646 305.905 75.3863L305.426 79.959C305.154 82.5789 306.95 84.9621 309.42 85.2524C311.89 85.5427 314.134 83.6366 314.408 81.0149L314.886 76.4404C315.158 73.8205 313.362 71.4374 310.892 71.1453V71.1471Z" fill="#4C466A"/>
<path fill-rule="evenodd" clip-rule="evenodd" d="M306.179 65.7292C306.179 65.7292 305.14 65.9643 304.215 65.4596C303.292 64.9567 302.59 63.2476 302.655 62.8674C302.72 62.4855 303.204 63.1232 305.047 62.3541C306.858 61.5972 313.502 59.8915 317.79 65.057C318.526 65.9487 317.905 66.576 316.941 66.1768C315.977 65.7759 311.902 63.2891 306.179 65.731V65.7292Z" fill="#4C466A"/>
<path fill-rule="evenodd" clip-rule="evenodd" d="M281.329 90.5424C283.777 91.9474 287.833 92.8011 291.963 93.0206C296.095 93.2401 300.25 92.8236 302.882 91.6864C303.406 91.4635 304.002 91.7296 304.217 92.2844C304.311 92.5367 304.311 92.8028 304.236 93.0396V93.0413C302.251 99.2005 299.483 103.36 296.515 105.534C294.682 106.877 292.756 107.482 290.867 107.347C288.976 107.214 287.156 106.343 285.538 104.744C282.986 102.228 280.905 97.8629 279.837 91.6951C279.738 91.1058 280.102 90.5389 280.658 90.4318C280.895 90.3869 281.13 90.4301 281.329 90.5441V90.5424Z" fill="#4C466A"/>
<path fill-rule="evenodd" clip-rule="evenodd" d="M281.962 90.8776C284.443 92.0838 288.172 92.82 291.963 93.0205C296.095 93.24 300.25 92.8235 302.883 91.6863C303.407 91.4617 304.003 91.7296 304.217 92.2843C304.311 92.5366 304.311 92.8028 304.236 93.043C304.077 93.5407 303.911 94.0263 303.74 94.4998C295.898 98.1393 285.207 95.7164 283.348 94.3097C282.131 93.3886 281.936 91.8937 281.964 90.8793L281.962 90.8776Z" fill="white"/>
<path fill-rule="evenodd" clip-rule="evenodd" d="M300.348 101.392C299.146 103.177 297.85 104.558 296.515 105.536C294.682 106.879 292.755 107.48 290.867 107.349C288.976 107.216 287.156 106.345 285.538 104.746C285.129 104.342 284.733 103.892 284.351 103.395C285.713 102.527 288.294 101.618 292 103.393C292 103.393 296.048 100.161 300.35 101.394L300.348 101.392Z" fill="#FF808F"/>
<path fill-rule="evenodd" clip-rule="evenodd" d="M287.33 110.786C286.946 110.555 286.809 110.038 287.027 109.63C287.246 109.22 287.732 109.077 288.117 109.307C288.126 109.312 291.059 111.028 294.869 109.569C295.284 109.41 295.74 109.64 295.89 110.079C296.04 110.522 295.825 111.009 295.408 111.165C290.917 112.886 287.342 110.791 287.33 110.786Z" fill="#F8A8A0"/>
<path fill-rule="evenodd" clip-rule="evenodd" d="M279.515 124.973C283.844 128.083 287.74 133.119 292.827 132.879C298.951 132.589 304.329 128.885 309.788 125.555C309.383 124.34 308.965 122.574 308.549 120.614C305.125 123.117 301.584 125.555 299.669 126.43C297.004 127.65 293.762 128.018 290.622 127.698C287.478 127.39 284.354 126.386 281.939 124.658C281.41 124.281 280.759 123.732 280.023 123.061C279.853 123.766 279.684 124.411 279.516 124.973H279.515Z" fill="#F8A8A0"/>
<path fill-rule="evenodd" clip-rule="evenodd" d="M322.938 196.534C326.068 196.534 328.622 193.825 328.622 190.503C328.622 187.18 326.069 184.47 322.938 184.47C319.807 184.47 317.254 187.18 317.254 190.503C317.254 193.825 319.807 196.534 322.938 196.534Z" fill="#FFFF00"/>
<path fill-rule="evenodd" clip-rule="evenodd" d="M322.938 194.544C325.035 194.544 326.747 192.727 326.747 190.501C326.747 188.274 325.035 186.459 322.938 186.459C320.841 186.459 319.13 188.276 319.13 190.501C319.13 192.727 320.841 194.544 322.938 194.544Z" fill="#BC766D"/>
<path fill-rule="evenodd" clip-rule="evenodd" d="M322.938 192.544C323.998 192.544 324.863 191.626 324.863 190.501C324.863 189.376 323.998 188.459 322.938 188.459C321.878 188.459 321.014 189.376 321.014 190.501C321.014 191.626 321.878 192.544 322.938 192.544Z" fill="white"/>
<path fill-rule="evenodd" clip-rule="evenodd" d="M258.507 68.6741C258.056 62.8312 258.081 57.4842 258.517 52.6125C258.927 48.0346 259.699 43.8766 260.779 40.1178C255.589 29.6088 258.44 18.5917 262.407 25.4387C262.407 25.4387 270.424 4.22372 296.834 5.42653C319.434 6.45652 331.201 19.5007 337.763 34.0848C340.941 41.1495 342.466 48.0622 341.059 52.6142C340.469 54.5221 339.364 56.017 337.649 56.9329C337.057 62.8865 335.283 69.279 332.068 76.0223C332.773 75.7406 333.466 75.5989 334.067 75.7216C336.495 76.221 339.048 82.2368 338.333 86.5209C337.669 90.4992 332.506 103.31 325.706 99.8849C322.529 108.939 317.483 113.819 317.483 113.819C317.483 113.819 313.12 117.275 308.546 120.618C308.961 122.577 309.378 124.344 309.785 125.559C310.067 126.4 310.342 126.977 310.607 127.171C311.018 127.47 311.428 127.755 311.843 128.03L312.081 127.79C314.405 128.446 316.437 129.502 318.104 131.065C318.369 131.177 318.636 131.289 318.905 131.4C325.744 134.244 333.696 137.02 339.904 139.902C343.495 141.221 347.861 143.858 352.605 145.93C360.231 149.264 371.46 202.274 373.731 219.217C373.838 220.019 371.31 221.353 367.679 222.773L367.954 224.13L369.361 231.058C369.9 230.78 370.411 230.452 370.888 230.078L369.634 223.905C370.751 223.442 371.873 222.931 372.905 222.343C373.439 222.039 374 221.685 374.455 221.258C374.631 221.094 374.794 220.914 374.933 220.719V215.705C374.164 210.688 373.189 205.651 372.194 200.712C370.593 192.767 368.812 184.838 366.804 176.999C365.824 173.17 364.785 169.354 363.65 165.573C362.657 162.263 361.591 158.959 360.37 155.736C359.148 152.513 356.491 145.69 353.248 144.273C350.975 143.279 348.767 142.142 346.551 141.015C344.59 140.02 342.575 138.992 340.52 138.231C333.499 134.975 326.121 132.504 318.991 129.509C317.112 127.824 314.89 126.729 312.514 126.058C312.337 126.008 312.159 125.987 311.985 125.996C311.891 125.928 311.796 125.861 311.702 125.794C311.298 125.094 310.774 122.89 310.445 121.401C313.156 119.403 315.85 117.348 318.491 115.255C318.537 115.219 318.576 115.184 318.618 115.143C319.742 114.056 320.867 112.585 321.771 111.301C323.757 108.481 325.411 105.363 326.691 102.107C328.212 102.429 329.751 102.183 331.216 101.395C333.023 100.422 334.513 98.7512 335.687 97.0248C337.503 94.353 339.452 90.0741 339.992 86.832C340.417 84.2812 339.885 81.3572 338.926 78.993C338.164 77.1162 336.773 74.7504 334.813 74.0781C336.983 68.9817 338.548 63.6019 339.204 58.0441C341.116 56.7376 342.242 54.8073 342.807 52.6142C343.179 51.1747 343.307 49.621 343.257 48.057C343.099 43.1127 341.274 37.7399 339.282 33.3123C330.811 14.4821 316.66 4.53652 296.903 3.63614C291.056 3.37001 285.204 4.12522 279.717 6.34937C275.605 8.01533 271.849 10.4486 268.599 13.5973C266.324 15.8007 264.3 18.3515 262.664 21.1235C262.449 21.4881 262.229 21.8735 262.013 22.271C261.226 21.6523 260.297 21.324 259.263 21.6523C257.529 22.2002 256.791 24.2428 256.495 25.9537C255.703 30.5109 257.043 36.1309 258.973 40.3114C257.877 44.3104 257.188 48.4424 256.822 52.6177C256.425 57.1351 256.404 61.7009 256.649 66.1976C256.628 66.1976 256.607 66.1976 256.586 66.1976C254.354 66.2046 252.405 68.4287 251.262 70.2537C249.92 72.3949 248.909 75.1668 248.901 77.7556C248.891 81.0547 250.092 85.643 251.429 88.6224C252.294 90.5493 253.478 92.4831 255.088 93.7965C256.397 94.8628 257.867 95.4106 259.424 95.3916C260.137 98.8532 261.244 102.249 262.724 105.417C263.398 106.858 264.256 108.524 265.178 109.815C265.212 109.863 265.245 109.903 265.284 109.948C266.911 111.816 268.57 113.662 270.239 115.49C272.761 118.252 275.39 121.117 278.119 123.684C277.914 124.465 277.642 125.393 277.413 125.795C277.3 125.877 277.188 125.956 277.076 126.036C277.045 126.042 277.012 126.051 276.98 126.06C274.604 126.73 272.383 127.826 270.502 129.513C266.222 131.312 261.869 132.929 257.551 134.63C253.479 136.233 249.265 137.92 245.395 140.018C242.495 141.442 239.659 142.984 236.7 144.276C233.457 145.693 230.798 152.518 229.578 155.739C228.357 158.962 227.291 162.267 226.297 165.576C225.163 169.357 224.124 173.175 223.142 177.003C221.134 184.842 219.351 192.771 217.752 200.715C216.541 206.726 215.361 212.881 214.545 218.968C214.421 219.894 214.861 220.672 215.491 221.261C215.948 221.688 216.507 222.042 217.041 222.346C218.073 222.934 219.193 223.446 220.312 223.909L218.723 231.734C218.697 231.862 218.684 231.988 218.682 232.111H220.374L221.994 224.133L222.269 222.777C218.638 221.356 216.11 220.022 216.217 219.22C218.49 202.277 229.717 149.266 237.343 145.934C240.473 144.565 243.441 142.951 246.128 141.634C252.603 138.119 262.394 134.811 270.589 131.403C270.857 131.291 271.124 131.18 271.39 131.068C273.057 129.506 275.089 128.45 277.413 127.793L277.499 127.88C277.836 127.651 278.171 127.416 278.507 127.173C278.829 126.938 279.168 126.134 279.513 124.978C279.681 124.416 279.85 123.772 280.019 123.067C275.112 118.591 266.523 108.733 266.523 108.733C266.523 108.733 262.379 102.933 260.77 93.4008C253.512 95.4227 250.576 81.803 250.589 77.7608C250.602 73.4076 254.119 67.9949 256.591 67.988C257.201 67.9863 257.859 68.2611 258.506 68.6793L258.507 68.6741ZM348.684 230.225C348.54 229.655 348.386 229.05 348.225 228.411C345.623 228.872 343.851 228.946 343.675 228.412C342.921 226.128 342.086 223.57 341.199 220.853C340.914 219.981 340.626 219.092 340.331 218.192L337.849 232.105H339.567L340.81 225.136C341.231 226.427 341.655 227.716 342.08 229.005C342.527 230.365 343.887 230.592 345.058 230.578C345.688 230.571 346.337 230.509 346.984 230.421L347.41 232.105H349.159L348.698 230.284C348.694 230.265 348.689 230.244 348.684 230.225ZM251.649 232.105L249.327 219.092C249.032 219.994 248.743 220.883 248.459 221.754C247.683 224.135 246.947 226.382 246.278 228.412C246.102 228.946 244.33 228.872 241.728 228.411C241.373 229.814 241.057 231.055 240.792 232.105H242.541L242.967 230.421C243.614 230.507 244.263 230.569 244.894 230.578C246.064 230.592 247.422 230.367 247.872 229.005C248.199 228.015 248.524 227.025 248.848 226.033L249.931 232.105H251.649Z" fill="#B80E3C"/>
<path fill-rule="evenodd" clip-rule="evenodd" d="M220.314 223.902C219.197 223.439 218.075 222.927 217.043 222.34C216.508 222.035 215.948 221.681 215.492 221.254C214.862 220.667 214.423 219.889 214.546 218.961C215.362 212.874 216.543 206.719 217.754 200.708C219.355 192.764 221.136 184.835 223.144 176.996C224.125 173.166 225.164 169.35 226.299 165.569C227.292 162.26 228.359 158.955 229.58 155.732C230.801 152.509 233.458 145.687 236.702 144.269C239.66 142.977 242.497 141.435 245.397 140.011C249.267 137.913 253.481 136.227 257.553 134.623C261.869 132.922 266.222 131.305 270.504 129.506C272.383 127.819 274.606 126.725 276.981 126.053C277.012 126.044 277.045 126.035 277.077 126.029C277.19 125.949 277.302 125.87 277.414 125.788C277.645 125.384 277.916 124.458 278.121 123.677C275.394 121.11 272.762 118.247 270.24 115.483C268.573 113.657 266.914 111.811 265.286 109.941C265.246 109.896 265.216 109.856 265.18 109.808C264.258 108.517 263.398 106.851 262.726 105.41C261.244 102.242 260.139 98.8462 259.426 95.3847C257.869 95.4037 256.399 94.8558 255.09 93.7896C253.478 92.4761 252.294 90.5423 251.431 88.6154C250.094 85.636 248.892 81.046 248.902 77.7487C248.91 75.1599 249.921 72.3879 251.263 70.2467C252.406 68.4217 254.355 66.1976 256.587 66.1907C256.609 66.1907 256.63 66.1907 256.651 66.1907C256.405 61.694 256.426 57.1281 256.824 52.6107C257.19 48.4372 257.879 44.3034 258.974 40.3044C257.045 36.124 255.703 30.5022 256.496 25.9468C256.794 24.2359 257.532 22.1932 259.264 21.6453C260.3 21.3187 261.228 21.6453 262.014 22.264C262.229 21.8683 262.451 21.4812 262.666 21.1165C264.302 18.3445 266.326 15.7938 268.601 13.5903C271.851 10.4416 275.609 8.00836 279.718 6.3424C285.205 4.11997 291.057 3.36303 296.904 3.62917C316.661 4.52955 330.812 14.4752 339.284 33.3053C341.275 37.7329 343.1 43.1058 343.258 48.0501C343.309 49.6141 343.18 51.1677 342.809 52.6073C342.244 54.8003 341.119 56.7307 339.206 58.0372C338.55 63.595 336.985 68.9747 334.814 74.0711C336.776 74.7434 338.167 77.1075 338.927 78.986C339.886 81.3502 340.419 84.2742 339.994 86.825C339.453 90.0671 337.504 94.346 335.689 97.0178C334.515 98.7442 333.025 100.415 331.218 101.388C329.752 102.178 328.214 102.423 326.693 102.1C325.413 105.356 323.759 108.474 321.772 111.294C320.869 112.578 319.743 114.049 318.62 115.136C318.578 115.177 318.539 115.21 318.493 115.248C315.852 117.343 313.157 119.398 310.446 121.394C310.775 122.883 311.298 125.087 311.703 125.787C311.798 125.854 311.892 125.921 311.987 125.989C312.159 125.98 312.337 126.001 312.516 126.051C314.891 126.722 317.112 127.817 318.993 129.502C326.123 132.499 333.5 134.97 340.521 138.224C342.576 138.985 344.59 140.013 346.552 141.008C348.768 142.133 350.976 143.272 353.249 144.266C356.493 145.683 359.152 152.508 360.371 155.729C361.592 158.952 362.659 162.256 363.652 165.566C364.787 169.347 365.826 173.164 366.806 176.992C368.814 184.831 370.597 192.76 372.195 200.705C373.19 205.644 374.166 210.681 374.934 215.698V197.195C373.469 190.111 371.855 183.046 370.064 176.052C368.21 168.811 366.142 161.358 363.504 154.391C361.819 149.943 358.992 142.899 354.534 140.951C350.253 139.081 346.092 136.508 341.756 134.885C334.888 131.711 327.697 129.278 320.719 126.371C318.815 124.776 316.65 123.64 314.336 122.876C316.415 121.318 318.48 119.729 320.514 118.117C320.652 118.006 320.768 117.906 320.895 117.783C323.983 114.795 326.807 110.193 328.811 105.802C332.629 105.45 335.995 102.691 338.427 99.114C340.544 95.9999 342.689 91.2319 343.32 87.4506C344.069 82.9608 342.524 76.2763 339.025 72.7214C340.565 68.6222 341.718 64.3692 342.356 60.0038C344.455 58.0734 345.707 55.4812 346.276 52.6073C346.574 51.1055 346.684 49.5276 346.634 47.9291C346.46 42.4612 344.537 36.6614 342.332 31.7621C333.321 11.7343 318.057 1.00581 297.049 0.0484029C285.759 -0.466592 274.772 2.75817 266.324 10.9428C264.369 12.8386 262.28 15.3289 260.555 17.9747C257.232 17.6533 254.051 20.2611 253.176 25.2935C252.326 30.1808 253.461 35.9252 255.389 40.6103C254.402 44.5263 253.774 48.5495 253.434 52.609C253.129 56.2295 253.054 59.8777 253.158 63.5034C248.591 65.9418 245.54 72.832 245.525 77.7348C245.512 81.5783 246.825 86.685 248.381 90.1552C250.167 94.1404 253.009 97.5172 256.711 98.6094C257.945 103.331 259.953 108.424 262.49 111.973C262.594 112.119 262.688 112.239 262.806 112.374C264.45 114.263 266.127 116.13 267.814 117.977C269.542 119.869 271.317 121.803 273.139 123.663C271.582 124.361 270.115 125.254 268.776 126.376C264.675 128.085 260.51 129.635 256.379 131.263C252.199 132.908 247.896 134.64 243.92 136.788C241.085 138.181 238.307 139.693 235.416 140.956C230.957 142.904 228.131 149.948 226.446 154.396C223.808 161.361 221.74 168.816 219.885 176.057C217.862 183.96 216.066 191.953 214.452 199.961C213.224 206.053 212.031 212.29 211.204 218.458C210.917 220.601 211.772 222.556 213.263 223.947C213.921 224.56 214.677 225.06 215.447 225.497C215.768 225.68 216.097 225.856 216.429 226.026L215.424 230.972C215.346 231.354 215.305 231.732 215.302 232.104H218.684C218.685 231.979 218.698 231.853 218.724 231.727L220.314 223.902ZM247.87 229.003C247.422 230.363 246.063 230.59 244.892 230.576C244.262 230.569 243.612 230.507 242.966 230.419L242.539 232.104H249.93L248.847 226.031C248.523 227.021 248.197 228.013 247.87 229.003ZM340.81 225.134L339.567 232.104H347.412L346.985 230.419C346.339 230.505 345.689 230.567 345.059 230.576C343.889 230.59 342.531 230.365 342.081 229.003C341.656 227.714 341.233 226.425 340.811 225.134H340.81ZM369.636 223.9L370.89 230.073C372.023 229.19 372.974 228.055 373.669 226.748L373.522 226.022C373.737 225.912 373.951 225.799 374.162 225.685C374.659 224.438 374.936 223.069 374.936 221.634V220.713C374.797 220.907 374.635 221.087 374.459 221.252C374.001 221.679 373.443 222.034 372.909 222.338C371.876 222.925 370.756 223.437 369.637 223.9H369.636Z" fill="white"/>
<path fill-rule="evenodd" clip-rule="evenodd" d="M343.32 87.4541C342.689 91.2353 340.544 96.0051 338.428 99.1175C335.995 102.695 332.629 105.453 328.811 105.806C326.807 110.197 323.983 114.799 320.895 117.787C320.766 117.911 320.652 118.012 320.514 118.12C318.48 119.733 316.415 121.323 314.336 122.88C316.652 123.644 318.815 124.779 320.719 126.374C327.697 129.281 334.888 131.714 341.756 134.889C346.092 136.512 350.253 139.083 354.534 140.955C358.992 142.902 361.819 149.946 363.504 154.395C366.143 161.359 368.21 168.815 370.064 176.056C371.857 183.05 373.469 190.114 374.934 197.198V157.493C374.177 155.147 373.373 152.826 372.51 150.551C369.646 142.991 365.762 134.721 358.229 131.427C353.87 129.521 349.773 127.021 345.331 125.304C340.987 123.314 336.532 121.606 332.084 119.888C333.264 118.219 334.368 116.441 335.375 114.617C335.971 114.367 336.558 114.085 337.138 113.774C340.854 111.773 343.877 108.709 346.298 105.145C349.276 100.766 351.989 94.5724 352.876 89.2497C353.855 83.3843 352.73 76.6409 349.854 71.1056C350.459 69.0439 350.973 66.9528 351.388 64.8358C353.982 61.3691 355.544 57.1489 356.109 52.609H346.272C345.702 55.483 344.452 58.0752 342.353 60.0056C341.715 64.3709 340.562 68.624 339.022 72.7232C342.521 76.278 344.066 82.9626 343.317 87.4524L343.32 87.4541ZM235.818 77.702C235.8 83.1043 237.43 89.7111 239.615 94.5845C241.388 98.5386 243.829 102.125 247.123 104.807C247.653 105.239 248.197 105.641 248.756 106.011C250.278 110.451 252.309 114.778 254.756 118.202C255.06 118.629 255.337 118.978 255.679 119.37C255.931 119.66 256.187 119.952 256.443 120.246C250.734 122.436 245.004 124.658 239.678 127.52C237.032 128.827 234.419 130.251 231.721 131.429C224.187 134.721 220.306 142.992 217.441 150.553C214.659 157.896 212.477 165.719 210.52 173.353C208.449 181.437 206.61 189.613 204.961 197.806C203.688 204.132 202.454 210.6 201.596 217.005C200.925 222.003 202.514 226.867 205.677 230.469C205.619 231.018 205.586 231.563 205.58 232.104H215.304C215.307 231.732 215.348 231.354 215.426 230.972L216.43 226.026C216.097 225.856 215.769 225.68 215.449 225.497C214.68 225.058 213.923 224.559 213.265 223.947C211.774 222.556 210.919 220.599 211.205 218.458C212.033 212.29 213.226 206.053 214.454 199.961C216.067 191.953 217.863 183.96 219.887 176.057C221.742 168.816 223.81 161.363 226.447 154.397C228.132 149.948 230.959 142.904 235.417 140.957C238.309 139.693 241.087 138.181 243.921 136.788C247.896 134.64 252.201 132.91 256.381 131.263C260.512 129.637 264.677 128.085 268.778 126.376C270.115 125.254 271.582 124.361 273.14 123.663C271.318 121.803 269.543 119.869 267.816 117.977C266.129 116.13 264.452 114.263 262.807 112.374C262.69 112.24 262.596 112.12 262.492 111.973C259.955 108.424 257.947 103.331 256.713 98.6094C253.01 97.5172 250.169 94.1404 248.383 90.1552C246.826 86.6851 245.516 81.5801 245.527 77.7349C245.543 72.8303 248.593 65.9401 253.16 63.5034C253.056 59.8777 253.131 56.2313 253.435 52.609H243.695C243.547 54.5843 243.461 56.5648 243.427 58.5453C238.718 63.5898 235.842 70.938 235.821 77.6986L235.818 77.702Z" fill="#F0485E"/>
<path fill-rule="evenodd" clip-rule="evenodd" d="M352.88 89.2514C351.991 94.5742 349.278 100.768 346.302 105.147C343.88 108.709 340.857 111.775 337.141 113.776C336.562 114.089 335.974 114.369 335.378 114.619C334.372 116.442 333.268 118.221 332.087 119.89C336.535 121.608 340.99 123.315 345.334 125.306C349.776 127.022 353.873 129.523 358.232 131.429C365.766 134.721 369.647 142.992 372.513 150.553C373.374 152.827 374.179 155.148 374.937 157.495V135.687C371.679 130.302 367.434 125.762 361.447 123.144C357.035 121.216 352.982 118.77 348.482 116.99C348.273 116.895 348.063 116.8 347.855 116.707C349.82 114.823 351.582 112.694 353.148 110.39C356.872 104.912 360.083 97.4723 361.193 90.8154C362.32 84.0634 361.433 76.7705 358.855 70.2951C358.992 69.7386 359.122 69.1821 359.248 68.6222C362.253 63.9562 364.054 58.4588 364.609 52.6107H356.113C355.548 57.1523 353.987 61.3725 351.393 64.8375C350.976 66.9528 350.463 69.0439 349.859 71.1073C352.733 76.6409 353.86 83.3843 352.881 89.2514H352.88ZM239.615 94.5845C237.43 89.7111 235.8 83.1043 235.818 77.702C235.839 70.9414 238.714 63.5932 243.423 58.5487C243.457 56.5665 243.545 54.586 243.692 52.6124H235.227C235.171 53.4212 235.126 54.23 235.088 55.0388C230.264 61.4244 227.4 69.647 227.375 77.6744C227.354 84.4263 229.261 92.3465 231.991 98.4366C234.31 103.609 237.531 108.237 241.806 111.773C242.345 113.159 242.927 114.524 243.552 115.853C240.984 116.961 238.452 118.145 235.985 119.463C233.501 120.695 231.034 122.042 228.504 123.148C218.54 127.503 213.405 137.184 209.605 147.213C206.698 154.884 204.414 163.029 202.37 171.004C200.259 179.248 198.385 187.583 196.703 195.935C195.387 202.464 194.12 209.133 193.234 215.743C192.458 221.534 193.63 227.256 196.339 232.105H205.575C205.581 231.564 205.612 231.02 205.673 230.471C202.509 226.869 200.92 222.004 201.591 217.006C202.45 210.602 203.683 204.133 204.956 197.808C206.606 189.615 208.444 181.441 210.515 173.355C212.47 165.719 214.654 157.898 217.437 150.555C220.301 142.994 224.184 134.725 231.716 131.431C234.414 130.252 237.027 128.828 239.673 127.522C244.999 124.662 250.729 122.439 256.438 120.248C256.182 119.954 255.926 119.662 255.674 119.372C255.332 118.979 255.055 118.63 254.751 118.203C252.305 114.782 250.273 110.454 248.751 106.013C248.192 105.641 247.648 105.24 247.118 104.808C243.824 102.125 241.383 98.5386 239.61 94.5863L239.615 94.5845Z" fill="#F54F65"/>
</g>
<defs>
<clipPath id="clip0_214_14013">
<rect width="380" height="237.48" fill="white"/>
</clipPath>
</defs>
</svg>
