<svg width="380" height="238" viewBox="0 0 380 238" fill="none" xmlns="http://www.w3.org/2000/svg">
<path fill-rule="evenodd" clip-rule="evenodd" d="M14.9277 47.2405H365.073C373.292 47.2405 380.001 54.3605 380.001 63.0843V221.642C380.001 230.366 373.294 237.486 365.073 237.486H14.9277C6.70833 237.486 0 230.366 0 221.642V63.0843C0 54.3605 6.7067 47.2405 14.9277 47.2405Z" fill="white"/>
<path d="M353.366 52.6169H26.6346C14.7223 52.6169 5.06541 53.687 5.06541 55.007V229.72C5.06541 231.04 14.7223 232.11 26.6346 232.11H353.366C365.278 232.11 374.935 231.04 374.935 229.72V55.007C374.935 53.687 365.278 52.6169 353.366 52.6169Z" fill="#735974"/>
<path fill-rule="evenodd" clip-rule="evenodd" d="M21.1035 111.122V74.3158C21.1035 71.7426 23.0851 69.6394 25.5095 69.6394H186.174C186.64 69.6394 187.017 70.0421 187.017 70.5363C187.017 71.0306 186.638 71.4315 186.174 71.4315H25.5095C24.0164 71.4315 22.792 72.7311 22.792 74.3158V111.122C22.792 111.617 22.4126 112.018 21.9486 112.018C21.4829 112.018 21.1052 111.615 21.1052 111.122H21.1035ZM201.655 69.6394H210.871C211.337 69.6394 211.715 70.0421 211.715 70.5363C211.715 71.0306 211.335 71.4315 210.871 71.4315H201.655C201.19 71.4315 200.81 71.0289 200.81 70.5363C200.81 70.0421 201.19 69.6394 201.655 69.6394ZM186.106 215.087H25.5095C23.0851 215.087 21.1035 212.984 21.1035 210.411V201.003C21.1035 200.509 21.4829 200.106 21.947 200.106C22.4126 200.106 22.7904 200.509 22.7904 201.003V210.411C22.7904 211.996 24.0148 213.295 25.5079 213.295H186.104C186.57 213.295 186.947 213.698 186.947 214.191C186.947 214.685 186.568 215.087 186.104 215.087H186.106Z" fill="white"/>
<path d="M59.004 183.322H21.1035V190.533H59.004V183.322Z" fill="#4B4669"/>
<path d="M57.7372 181.531H19.8368V188.743H57.7372V181.531Z" fill="white"/>
<path d="M30.5571 138.562C30.5571 137.923 30.3421 137.428 29.9188 137.072C29.4922 136.716 28.7465 136.348 27.6816 135.968C26.6135 135.588 25.744 135.218 25.065 134.864C22.8604 133.713 21.7581 132.133 21.7581 130.123C21.7581 129.125 22.03 128.24 22.5803 127.474C23.1307 126.709 23.909 126.116 24.9136 125.687C25.915 125.26 27.0466 125.048 28.2987 125.048C29.5231 125.048 30.6206 125.281 31.5894 125.743C32.5582 126.204 33.312 126.864 33.851 127.72C34.3899 128.575 34.657 129.553 34.657 130.649H30.5685C30.5685 129.913 30.3535 129.341 29.9302 128.935C29.5036 128.528 28.9288 128.324 28.2075 128.324C27.4732 128.324 26.8952 128.497 26.4718 128.841C26.0452 129.183 25.8336 129.624 25.8336 130.153C25.8336 130.618 26.0697 131.038 26.5353 131.414C27.001 131.791 27.8233 132.18 29.0005 132.583C30.1777 132.985 31.1416 133.421 31.8955 133.882C33.7338 135.009 34.6553 136.557 34.6553 138.538C34.6553 140.117 34.0936 141.357 32.9717 142.259C31.8515 143.161 30.3112 143.614 28.3573 143.614C26.9766 143.614 25.7294 143.351 24.6124 142.826C23.4954 142.3 22.6536 141.581 22.087 140.667C21.5204 139.753 21.2419 138.699 21.2419 137.51H25.3532C25.3532 138.474 25.5893 139.191 26.0599 139.647C26.5304 140.109 27.2957 140.337 28.3573 140.337C29.0347 140.337 29.5687 140.18 29.9644 139.872C30.3552 139.563 30.5538 139.127 30.5538 138.564L30.5571 138.562Z" fill="#4B4669"/>
<path d="M42.1469 125.3L45.9439 137.864L49.7279 125.3H55.1288V143.358H51.0158V139.143L51.4115 130.511L47.2986 143.358H44.5876L40.4633 130.499L40.8622 139.143V143.358H36.759V125.3H42.1469Z" fill="#4B4669"/>
<path d="M61.8355 137.213V143.36H57.7356V125.302H64.5237C65.8246 125.302 66.9774 125.556 67.9772 126.064C68.9785 126.572 69.7519 127.291 70.3023 128.231C70.8494 129.166 71.1245 130.229 71.1245 131.418C71.1245 133.176 70.5302 134.581 69.3416 135.635C68.153 136.689 66.5264 137.214 64.452 137.214H61.8355V137.213ZM61.8355 133.86H64.5237C65.3183 133.86 65.924 133.649 66.3375 133.229C66.756 132.806 66.9644 132.213 66.9644 131.442C66.9644 130.601 66.7495 129.927 66.3229 129.424C65.8963 128.916 65.3101 128.662 64.5725 128.653H61.8371V133.86H61.8355Z" fill="#4B4669"/>
<path d="M74.4755 144.908H71.683L77.4893 125.3H80.2931L74.4755 144.908Z" fill="#4B4669"/>
<path d="M87.0943 125.3L90.8913 137.864L94.6754 125.3H100.076V143.358H95.9633V139.143L96.3589 130.511L92.246 143.358H89.535L85.4107 130.499L85.8096 139.143V143.358H81.7065V125.3H87.0943Z" fill="#4B4669"/>
<path d="M115.697 128.653H110.593V143.358H106.488V128.653H101.475V125.3H115.697V128.653Z" fill="#4B4669"/>
<path d="M122.976 139.591C122.976 139.235 122.8 138.951 122.45 138.735C122.098 138.524 121.432 138.3 120.452 138.066C119.47 137.833 118.661 137.532 118.023 137.156C117.384 136.779 116.894 136.321 116.559 135.783C116.223 135.246 116.056 134.627 116.056 133.934C116.056 132.702 116.538 131.686 117.495 130.891C118.452 130.091 119.708 129.693 121.256 129.693C122.924 129.693 124.264 130.091 125.276 130.891C126.289 131.691 126.796 132.745 126.796 134.048H122.847C122.847 132.973 122.313 132.436 121.243 132.436C120.833 132.436 120.486 132.559 120.206 132.804C119.923 133.049 119.784 133.354 119.784 133.718C119.784 134.092 119.955 134.396 120.299 134.624C120.642 134.857 121.188 135.047 121.942 135.199C122.691 135.348 123.353 135.526 123.92 135.733C125.822 136.428 126.771 137.672 126.771 139.466C126.771 140.69 126.26 141.689 125.236 142.454C124.21 143.225 122.883 143.61 121.255 143.61C120.174 143.61 119.21 143.403 118.36 142.988C117.51 142.577 116.849 142.015 116.373 141.303C115.895 140.591 115.66 139.843 115.66 139.055H119.341C119.358 139.677 119.548 140.13 119.924 140.413C120.299 140.697 120.778 140.84 121.364 140.84C121.898 140.84 122.302 140.726 122.572 140.493C122.839 140.259 122.974 139.959 122.974 139.587L122.976 139.591Z" fill="#4B4669"/>
<path d="M129.962 144.908H127.172L132.978 125.3H135.782L129.962 144.908Z" fill="#4B4669"/>
<path d="M30.5571 169.044C30.5571 168.404 30.3421 167.91 29.9188 167.554C29.4922 167.198 28.7465 166.83 27.6816 166.45C26.6135 166.069 25.744 165.7 25.065 165.345C22.8604 164.194 21.7581 162.615 21.7581 160.605C21.7581 159.606 22.03 158.721 22.5803 157.956C23.1307 157.19 23.909 156.597 24.9136 156.169C25.915 155.742 27.0466 155.529 28.2987 155.529C29.5231 155.529 30.6206 155.763 31.5894 156.224C32.5582 156.685 33.312 157.346 33.851 158.201C34.3899 159.056 34.657 160.035 34.657 161.13H30.5685C30.5685 160.394 30.3535 159.822 29.9302 159.416C29.5036 159.01 28.9288 158.806 28.2075 158.806C27.4732 158.806 26.8952 158.979 26.4718 159.323C26.0452 159.665 25.8336 160.105 25.8336 160.634C25.8336 161.099 26.0697 161.519 26.5353 161.896C27.001 162.273 27.8233 162.661 29.0005 163.064C30.1777 163.467 31.1416 163.902 31.8955 164.364C33.7338 165.49 34.6553 167.039 34.6553 169.019C34.6553 170.599 34.0936 171.838 32.9717 172.74C31.8515 173.642 30.3112 174.095 28.3573 174.095C26.9766 174.095 25.7294 173.832 24.6124 173.307C23.4954 172.782 22.6536 172.063 22.087 171.149C21.5204 170.234 21.2419 169.18 21.2419 167.991H25.3532C25.3532 168.955 25.5893 169.673 26.0599 170.129C26.5304 170.59 27.2957 170.818 28.3573 170.818C29.0347 170.818 29.5687 170.661 29.9644 170.354C30.3552 170.044 30.5538 169.609 30.5538 169.045L30.5571 169.044Z" fill="#4B4669"/>
<path d="M42.1469 155.782L45.9439 168.346L49.7279 155.782H55.1288V173.841H51.0158V169.624L51.4115 160.994L47.2986 173.841H44.5876L40.4633 160.98L40.8622 169.624V173.841H36.759V155.782H42.1469Z" fill="#4B4669"/>
<path d="M61.8355 167.694V173.841H57.7356V155.783H64.5237C65.8246 155.783 66.9774 156.037 67.9772 156.546C68.9785 157.054 69.7519 157.773 70.3023 158.713C70.8494 159.648 71.1245 160.71 71.1245 161.899C71.1245 163.657 70.5302 165.062 69.3416 166.116C68.153 167.17 66.5264 167.696 64.452 167.696H61.8355V167.694ZM61.8355 164.341H64.5237C65.3183 164.341 65.924 164.131 66.3375 163.711C66.756 163.287 66.9644 162.694 66.9644 161.924C66.9644 161.082 66.7495 160.408 66.3229 159.905C65.8963 159.397 65.3101 159.143 64.5725 159.134H61.8371V164.341H61.8355Z" fill="#4B4669"/>
<path d="M77.4095 170.488H84.5494V173.841H73.3064V155.782H77.4095V170.488Z" fill="#4B4669"/>
<path d="M86.2769 173.841V155.783H92.3877C94.5776 155.783 96.245 156.207 97.3847 157.057C98.5261 157.907 99.096 159.145 99.096 160.761C99.096 161.692 98.8925 162.492 98.4903 163.152C98.0832 163.813 97.4889 164.3 96.7041 164.613C97.5899 164.858 98.2721 165.325 98.7459 166C99.2197 166.681 99.4607 167.507 99.4607 168.486C99.4607 170.259 98.9348 171.588 97.8764 172.481C96.8197 173.369 95.2566 173.824 93.1855 173.839H86.2785L86.2769 173.841ZM90.3768 166.146V170.488H93.065C93.8075 170.488 94.3725 170.307 94.7714 169.948C95.1703 169.588 95.3657 169.08 95.3657 168.423C95.3657 166.913 94.6639 166.154 93.2523 166.146H90.3768ZM90.3768 163.301H92.5179C93.4118 163.292 94.0501 163.12 94.4327 162.781C94.8154 162.442 95.0075 161.943 95.0075 161.282C95.0075 160.52 94.8007 159.974 94.3855 159.641C93.9752 159.307 93.3092 159.138 92.3877 159.138H90.3768V163.303V163.301Z" fill="#4B4669"/>
<path d="M29.2903 136.77C29.2903 136.131 29.0754 135.636 28.652 135.28C28.2254 134.924 27.4797 134.556 26.4148 134.176C25.3467 133.796 24.4772 133.426 23.7983 133.072C21.5936 131.921 20.4913 130.341 20.4913 128.331C20.4913 127.333 20.7632 126.448 21.3136 125.682C21.8639 124.917 22.6422 124.324 23.6468 123.895C24.6482 123.468 25.7798 123.256 27.0319 123.256C28.2564 123.256 29.3538 123.489 30.3226 123.951C31.2914 124.412 32.0453 125.072 32.5842 125.928C33.1232 126.783 33.3902 127.761 33.3902 128.857H29.3017C29.3017 128.121 29.0868 127.549 28.6634 127.143C28.2368 126.736 27.6621 126.532 26.9408 126.532C26.2064 126.532 25.6284 126.705 25.2051 127.049C24.7785 127.391 24.5668 127.832 24.5668 128.361C24.5668 128.826 24.8029 129.246 25.2686 129.622C25.7342 129.999 26.5565 130.388 27.7337 130.791C28.9109 131.193 29.8748 131.629 30.6287 132.09C32.467 133.217 33.3886 134.765 33.3886 136.746C33.3886 138.326 32.8268 139.565 31.705 140.467C30.5847 141.369 29.0444 141.822 27.0906 141.822C25.7098 141.822 24.4626 141.559 23.3456 141.034C22.2286 140.508 21.3868 139.789 20.8202 138.875C20.2536 137.961 19.9752 136.907 19.9752 135.718H24.0865C24.0865 136.682 24.3226 137.399 24.7931 137.855C25.2637 138.317 26.0289 138.545 27.0906 138.545C27.7679 138.545 28.302 138.388 28.6976 138.08C29.0884 137.771 29.287 137.335 29.287 136.772L29.2903 136.77Z" fill="white"/>
<path d="M40.8801 123.508L44.6771 136.072L48.4611 123.508H53.862V141.566H49.7507V137.351L50.1447 128.72L46.0334 141.566H43.3208L39.1965 128.706L39.5954 137.351V141.566H35.4922V123.508H40.8801Z" fill="white"/>
<path d="M60.5703 135.42V141.567H56.4704V123.51H63.2585C64.5595 123.51 65.7123 123.764 66.712 124.272C67.7134 124.78 68.4868 125.499 69.0372 126.439C69.5842 127.374 69.8594 128.437 69.8594 129.626C69.8594 131.383 69.2651 132.788 68.0765 133.843C66.8879 134.897 65.2613 135.422 63.1869 135.422H60.5703V135.42ZM60.5703 132.068H63.2585C64.0531 132.068 64.6588 131.857 65.0724 131.437C65.4909 131.013 65.6993 130.421 65.6993 129.65C65.6993 128.808 65.4843 128.134 65.0577 127.631C64.6312 127.123 64.045 126.869 63.3074 126.861H60.572V132.068H60.5703Z" fill="white"/>
<path d="M73.2087 143.116H70.4163L76.2242 123.508H79.028L73.2087 143.116Z" fill="white"/>
<path d="M85.8275 123.508L89.6246 136.072L93.4086 123.508H98.8094V141.566H94.6965V137.351L95.0922 128.72L90.9809 141.566H88.2682L84.1439 128.706L84.5428 137.351V141.566H80.4397V123.508H85.8275Z" fill="white"/>
<path d="M114.431 126.861H109.326V141.566H105.221V126.861H100.21V123.508H114.431V126.861Z" fill="white"/>
<path d="M121.709 137.8C121.709 137.444 121.533 137.161 121.183 136.945C120.831 136.734 120.165 136.509 119.185 136.276C118.203 136.043 117.394 135.742 116.756 135.365C116.118 134.988 115.627 134.53 115.292 133.993C114.957 133.455 114.789 132.837 114.789 132.144C114.789 130.912 115.271 129.895 116.228 129.1C117.186 128.3 118.441 127.903 119.99 127.903C121.657 127.903 122.997 128.3 124.01 129.1C125.022 129.901 125.529 130.955 125.529 132.258H121.58C121.58 131.183 121.046 130.645 119.976 130.645C119.566 130.645 119.219 130.768 118.939 131.014C118.656 131.259 118.518 131.563 118.518 131.928C118.518 132.301 118.689 132.605 119.032 132.833C119.376 133.067 119.921 133.257 120.675 133.409C121.424 133.557 122.087 133.735 122.653 133.943C124.555 134.638 125.504 135.882 125.504 137.676C125.504 138.899 124.993 139.898 123.969 140.664C122.943 141.434 121.616 141.82 119.988 141.82C118.907 141.82 117.943 141.612 117.093 141.198C116.243 140.786 115.582 140.225 115.106 139.513C114.628 138.801 114.393 138.052 114.393 137.264H118.075C118.091 137.886 118.281 138.339 118.658 138.623C119.032 138.906 119.511 139.05 120.097 139.05C120.631 139.05 121.035 138.935 121.305 138.702C121.572 138.469 121.707 138.168 121.707 137.797L121.709 137.8Z" fill="white"/>
<path d="M128.697 143.116H125.905L131.711 123.508H134.515L128.697 143.116Z" fill="white"/>
<path d="M29.2903 167.252C29.2903 166.612 29.0754 166.118 28.652 165.762C28.2254 165.406 27.4797 165.038 26.4148 164.658C25.3467 164.277 24.4772 163.908 23.7983 163.553C21.5936 162.402 20.4913 160.823 20.4913 158.813C20.4913 157.814 20.7632 156.929 21.3136 156.164C21.8639 155.398 22.6422 154.805 23.6468 154.377C24.6482 153.95 25.7798 153.737 27.0319 153.737C28.2564 153.737 29.3538 153.971 30.3226 154.432C31.2914 154.893 32.0453 155.554 32.5842 156.409C33.1232 157.265 33.3902 158.243 33.3902 159.338H29.3017C29.3017 158.602 29.0868 158.03 28.6634 157.624C28.2368 157.218 27.6621 157.014 26.9408 157.014C26.2064 157.014 25.6284 157.187 25.2051 157.531C24.7785 157.873 24.5668 158.313 24.5668 158.842C24.5668 159.307 24.8029 159.727 25.2686 160.104C25.7342 160.481 26.5565 160.869 27.7337 161.272C28.9109 161.675 29.8748 162.11 30.6287 162.572C32.467 163.698 33.3886 165.247 33.3886 167.227C33.3886 168.807 32.8268 170.046 31.705 170.948C30.5847 171.85 29.0444 172.303 27.0906 172.303C25.7098 172.303 24.4626 172.04 23.3456 171.515C22.2286 170.99 21.3868 170.271 20.8202 169.357C20.2536 168.442 19.9752 167.388 19.9752 166.199H24.0865C24.0865 167.163 24.3226 167.881 24.7931 168.337C25.2637 168.798 26.0289 169.026 27.0906 169.026C27.7679 169.026 28.302 168.869 28.6976 168.562C29.0884 168.252 29.287 167.817 29.287 167.253L29.2903 167.252Z" fill="white"/>
<path d="M40.8801 153.991L44.6771 166.553L48.4611 153.991H53.862V172.049H49.7507V167.832L50.1447 159.202L46.0334 172.049H43.3208L39.1965 159.188L39.5954 167.832V172.049H35.4922V153.991H40.8801Z" fill="white"/>
<path d="M60.5703 165.902V172.049H56.4704V153.991H63.2585C64.5595 153.991 65.7123 154.245 66.712 154.753C67.7134 155.261 68.4868 155.98 69.0372 156.92C69.5842 157.855 69.8594 158.918 69.8594 160.107C69.8594 161.865 69.2651 163.27 68.0765 164.324C66.8879 165.378 65.2613 165.903 63.1869 165.903H60.5703V165.902ZM60.5703 162.549H63.2585C64.0531 162.549 64.6588 162.338 65.0724 161.918C65.4909 161.495 65.6993 160.902 65.6993 160.131C65.6993 159.29 65.4843 158.616 65.0577 158.113C64.6312 157.605 64.045 157.351 63.3074 157.342H60.572V162.549H60.5703Z" fill="white"/>
<path d="M76.1444 168.696H83.2826V172.049H72.0396V153.991H76.1444V168.696Z" fill="white"/>
<path d="M85.0101 172.049V153.991H91.1209C93.3109 153.991 94.9782 154.415 96.118 155.265C97.2594 156.115 97.8292 157.353 97.8292 158.968C97.8292 159.9 97.6257 160.7 97.2235 161.36C96.8165 162.02 96.2222 162.508 95.4374 162.82C96.3231 163.066 97.0053 163.532 97.4792 164.208C97.953 164.889 98.194 165.715 98.194 166.693C98.194 168.466 97.668 169.795 96.6097 170.689C95.553 171.577 93.9899 172.032 91.9187 172.047H85.0118L85.0101 172.049ZM89.11 164.353V168.696H91.7982C92.5407 168.696 93.1057 168.515 93.5046 168.155C93.9036 167.796 94.0989 167.288 94.0989 166.631C94.0989 165.121 93.3972 164.362 91.9855 164.353H89.11ZM89.11 161.509H91.2512C92.1451 161.5 92.7833 161.327 93.166 160.989C93.5486 160.65 93.7407 160.15 93.7407 159.49C93.7407 158.728 93.534 158.182 93.1188 157.848C92.7084 157.515 92.0425 157.346 91.1209 157.346H89.11V161.51V161.509Z" fill="white"/>
<path fill-rule="evenodd" clip-rule="evenodd" d="M267.33 132.745C271.295 131.42 274.967 129.75 278.508 127.172C279.791 126.237 281.309 116.361 282.553 110.913C290.557 110.913 298.56 110.913 306.564 110.913C307.81 116.362 309.326 126.239 310.609 127.172C314.15 129.75 317.822 131.42 321.787 132.745L294.74 145.079L267.33 132.745Z" fill="#FCD1C8"/>
<path d="M354.177 156.297C353.094 149.533 347.05 144.982 340.679 146.132C334.306 147.279 330.019 153.694 331.102 160.456C331.25 161.374 345.305 216.899 349.157 232.108H365.071C366.607 232.108 368.063 231.731 369.362 231.059L354.177 156.297Z" fill="#FCD1C8"/>
<path fill-rule="evenodd" clip-rule="evenodd" d="M373.732 219.219C374.095 221.927 344.422 230.691 343.673 228.417C340.039 217.394 334.48 200.042 330.691 189.08C326.959 178.283 321.972 146.434 333.793 139.639C337.73 137.375 344.64 142.451 352.606 145.933C360.232 149.267 371.461 202.276 373.732 219.219Z" fill="white"/>
<path d="M235.772 156.297C236.854 149.533 242.898 144.982 249.27 146.132C255.643 147.279 259.93 153.694 258.847 160.456C258.7 161.374 244.644 216.899 240.792 232.108H220.375L235.773 156.297H235.772Z" fill="#FCD1C8"/>
<path fill-rule="evenodd" clip-rule="evenodd" d="M216.217 219.219C215.854 221.927 245.526 230.691 246.275 228.417C249.91 217.394 255.468 200.042 259.257 189.08C262.989 178.283 267.977 146.434 256.156 139.639C252.219 137.375 245.308 142.451 237.343 145.933C229.716 149.267 218.49 202.276 216.217 219.219Z" fill="white"/>
<path fill-rule="evenodd" clip-rule="evenodd" d="M271.389 131.065C262.708 134.733 251.995 138.274 245.344 142.067C228.739 151.536 242.784 182.421 246.29 202.078L251.647 232.108H337.847L343.204 202.078C346.712 182.421 360.755 151.536 344.15 142.067C337.499 138.274 326.787 134.733 318.105 131.065L294.748 145.202L271.391 131.065H271.389Z" fill="white"/>
<path fill-rule="evenodd" clip-rule="evenodd" d="M284.894 232.108L291.796 157.926L288.064 149.899L294.748 145.202L301.053 149.899L297.321 157.926L304.223 232.108H284.894Z" fill="#499ADB"/>
<path fill-rule="evenodd" clip-rule="evenodd" d="M291.747 157.752C293.618 157.171 295.495 157.182 297.368 157.752C297.459 157.78 297.511 157.882 297.485 157.977C297.459 158.073 297.363 158.129 297.273 158.101C295.464 157.55 293.652 157.539 291.845 158.101C291.754 158.129 291.659 158.073 291.632 157.977C291.606 157.88 291.658 157.78 291.749 157.75L291.747 157.752Z" fill="#428CC8"/>
<path fill-rule="evenodd" clip-rule="evenodd" d="M271.389 131.065C273.057 129.503 275.089 128.447 277.412 127.791L294.746 145.202L278.391 157.311C277.84 157.719 276.772 156.969 276.627 156.273C274.911 147.95 273.688 139.419 271.388 131.065H271.389Z" fill="white"/>
<path fill-rule="evenodd" clip-rule="evenodd" d="M318.105 131.065C316.438 129.503 314.406 128.447 312.082 127.791L294.748 145.202L311.104 157.311C311.654 157.719 312.722 156.969 312.867 156.273C314.583 147.95 315.806 139.419 318.107 131.065H318.105Z" fill="white"/>
<path fill-rule="evenodd" clip-rule="evenodd" d="M276.629 156.273C274.913 147.95 273.69 139.419 271.389 131.065C271.124 131.178 270.857 131.29 270.588 131.401C272.848 139.63 274.068 148.105 275.791 156.468C276.053 157.74 277.77 158.884 278.883 158.059L287.822 151.441L290.91 158.082L284.029 232.11H284.892H304.224H305.087L298.206 158.082L301.391 151.231L300.68 150.704L310.614 158.059C311.726 158.884 313.443 157.74 313.706 156.468C315.43 148.107 316.648 139.632 318.908 131.401C318.639 131.288 318.372 131.178 318.107 131.065C315.806 139.419 314.583 147.95 312.867 156.273C312.724 156.969 311.656 157.721 311.104 157.311L295.455 145.724L295.453 145.726L294.748 145.2L294.043 145.722L288.152 150.084L278.394 157.309C277.844 157.717 276.776 156.967 276.631 156.271L276.629 156.273ZM319.486 202.513C316.684 202.66 312.463 201.604 311.25 199.276C311.463 199.85 311.703 200.382 311.967 200.861C314.297 205.071 322.514 204.48 326.99 203.353C329.527 202.714 332.134 200.654 333.427 198.117C333.819 197.346 334.091 196.53 334.202 195.699C334.646 192.374 335.123 188.743 335.382 185.809C334.983 189.495 334.599 193.66 332.994 196.836C332.578 197.659 332.08 198.416 331.479 199.079C328.972 201.853 323.101 202.325 319.484 202.515L319.486 202.513ZM328.985 175.63L313.601 174.023C318.087 175.156 324.75 176.119 329.099 176.356C331.136 176.466 332.974 176.437 334.444 176.226L328.985 175.631V175.63ZM342.524 205.893L340.329 218.195C340.622 219.095 340.912 219.985 341.197 220.856L343.31 209.006L344.5 202.337C345.471 196.897 347.571 189.384 347.726 183.631C345.995 190.183 344.186 196.57 343.204 202.076L342.524 205.892V205.893ZM249.325 219.095L247.158 206.946L246.29 202.078C244.343 191.157 239.142 176.772 237.752 164.519C237.551 169.977 239.51 180.32 241.059 186.121C242.482 191.449 244.024 196.898 244.994 202.339L246.372 210.06L248.457 221.756C248.741 220.885 249.03 219.997 249.325 219.095ZM284.891 232.108L291.772 158.106C291.706 158.097 291.65 158.047 291.63 157.976C291.606 157.89 291.646 157.8 291.718 157.762L288.533 150.912L294.746 146.311L300.678 150.703L297.396 157.762C297.469 157.8 297.508 157.89 297.485 157.976C297.466 158.049 297.409 158.097 297.342 158.106L304.223 232.108" fill="black" fill-opacity="0.090196"/>
<path fill-rule="evenodd" clip-rule="evenodd" d="M361.825 225.947C363.862 225.199 365.905 224.609 367.955 224.132L367.68 222.776C361.932 225.024 353.42 227.492 348.222 228.413L349.159 232.108H350.517C350.784 231.906 351.052 231.709 351.321 231.515C354.792 229.015 358.298 227.243 361.825 225.947Z" fill="#F8A8A0"/>
<path fill-rule="evenodd" clip-rule="evenodd" d="M228.124 225.947C226.087 225.199 224.044 224.609 221.994 224.131L222.269 222.774C228.016 225.023 236.529 227.49 241.726 228.411L240.79 232.106H239.432C239.165 231.904 238.896 231.707 238.628 231.514C235.156 229.013 231.651 227.241 228.124 225.945V225.947Z" fill="#F8A8A0"/>
<path fill-rule="evenodd" clip-rule="evenodd" d="M262.325 72.527C262.325 72.527 259.062 67.9784 256.59 67.9871C254.119 67.994 250.602 73.4066 250.589 77.7599C250.574 82.1114 253.977 97.5613 262.512 92.6498C271.046 87.7401 262.325 72.527 262.325 72.527Z" fill="#FCD1C8"/>
<path fill-rule="evenodd" clip-rule="evenodd" d="M264.999 77.6702C265.254 77.9951 265.293 78.5067 265.085 78.8177C264.899 79.0977 264.577 79.1184 264.328 78.8834V78.8851C264.328 78.8851 261.053 91.9605 259.414 89.7121C257.774 87.462 256.037 85.2828 255.552 81.8386C255.068 78.3926 258.077 75.5688 257.155 74.5923C256.274 73.6591 255.149 74.8706 255.047 74.9881L255.043 74.9933L255.042 74.9967L255.04 74.9985C254.145 76.0613 253.663 77.3643 253.663 77.3695C253.518 77.7463 253.161 77.8534 252.867 77.608C252.572 77.3661 252.446 76.8632 252.591 76.4864C252.596 76.4726 254.407 71.5629 257.797 72.0606C261.037 72.5393 264.987 77.6581 264.999 77.6737V77.6702Z" fill="#F8A8A0"/>
<path fill-rule="evenodd" clip-rule="evenodd" d="M327.668 79.0526C327.668 79.0526 331.637 75.2247 334.067 75.7224C336.494 76.2218 339.047 82.2376 338.333 86.5217C337.618 90.8041 331.689 105.322 324.118 98.8038C316.548 92.2834 327.666 79.0543 327.666 79.0543L327.668 79.0526Z" fill="#FCD1C8"/>
<path fill-rule="evenodd" clip-rule="evenodd" d="M324.178 83.5787C323.872 83.8465 323.75 84.3442 323.9 84.6899C324.037 85.0009 324.349 85.0856 324.634 84.9042C324.634 84.9042 325.668 98.4115 327.656 96.5244C329.646 94.6355 331.719 92.8382 332.771 89.546C333.821 86.2556 331.336 82.8805 332.407 82.1028C333.427 81.3597 334.33 82.7751 334.413 82.9081L334.417 82.915L334.418 82.9168L334.42 82.9185C335.122 84.1403 335.376 85.5177 335.377 85.5246C335.457 85.9221 335.786 86.0983 336.12 85.9169C336.45 85.7337 336.657 85.2636 336.577 84.8679C336.576 84.8523 335.618 79.6661 332.201 79.4846C328.936 79.3118 324.191 83.5648 324.18 83.5769L324.178 83.5787Z" fill="#F8A8A0"/>
<path fill-rule="evenodd" clip-rule="evenodd" d="M299.405 23.4989C255.53 19.8144 258.844 57.5784 260.187 87.894C260.75 100.653 266.524 108.732 266.524 108.732C266.524 108.732 277.876 121.764 281.935 124.663C284.35 126.391 287.476 127.395 290.619 127.702C293.76 128.022 297.001 127.656 299.665 126.434C304.14 124.388 317.483 113.82 317.483 113.82C317.483 113.82 324.512 107.021 327.2 94.5855C333.588 65.0441 343.162 28.5676 299.403 23.4989H299.405Z" fill="#FCD1C8"/>
<path fill-rule="evenodd" clip-rule="evenodd" d="M332.258 67.4273C332.811 62.324 332.977 57.3503 332.489 52.6842C323.195 46.7722 309.072 40.9102 290.677 41.3163L284.658 45.6281C284.658 45.6281 310.866 46.2053 326.489 62.305C328.614 64.4946 330.53 66.1692 332.258 67.4273Z" fill="#F8A8A0"/>
<path fill-rule="evenodd" clip-rule="evenodd" d="M324.217 56.177C324.235 66.1278 328.202 71.3641 327.425 73.8821C327.336 75.0953 327.217 76.3482 327.08 77.6426C326.256 85.3848 329.317 85.4453 329.317 85.4453C329.317 85.4453 330.836 76.5383 332.061 76.0354C364.342 8.38096 251.323 -24.0724 258.505 68.6907C259.627 69.4234 259.632 78.4859 259.632 78.4859C259.632 78.4859 260.856 76.1131 261.342 68.3416C261.526 65.3743 261.613 62.032 263.833 59.8666C266.078 57.677 266.54 53.818 266.842 51.4038C267.061 49.6566 267.079 49.4786 267.192 48.4417C279.828 39.1078 313.373 44.4963 324.217 56.1787V56.177Z" fill="#352236"/>
<path fill-rule="evenodd" clip-rule="evenodd" d="M267.195 48.4399C254.076 37.1981 257.326 16.6744 262.406 25.4414C262.406 25.4414 270.424 4.22635 296.834 5.42916C319.434 6.45915 331.201 19.5034 337.763 34.0874C344.421 48.8892 343.82 63.0239 324.221 56.1769C324.221 56.1769 298.906 38.9833 267.197 48.4399H267.195Z" fill="#735974"/>
<path fill-rule="evenodd" clip-rule="evenodd" d="M320.106 12.3816C328.277 17.6473 333.741 25.3411 337.525 33.569C308.282 51.2758 278.169 27.1713 278.169 27.1713C302.412 32.8656 315.435 18.9901 320.108 12.3816H320.106Z" fill="#9E6D82"/>
<path fill-rule="evenodd" clip-rule="evenodd" d="M295.372 73.984C295.354 74.3019 295.254 74.6251 295.087 74.8342C293.929 76.3204 288.891 82.6853 288.698 83.6392C288.527 84.8818 291.892 86.5478 293.787 87.0489C294.961 87.3583 292.63 90.9632 290.826 89.9851C288.899 88.9482 286.449 85.7666 286.781 83.3852C286.939 82.2412 290.272 77.7566 292.626 74.7582C293.229 73.9909 293.191 73.0577 293.182 72.4493C293.159 70.8663 295.43 72.9384 295.373 73.9822L295.372 73.984Z" fill="#F8A8A0"/>
<path fill-rule="evenodd" clip-rule="evenodd" d="M277.665 68.1513C280.133 68.4589 281.916 70.8507 281.626 73.4706L281.123 78.0399C280.833 80.6598 278.58 82.5504 276.111 82.2463C273.644 81.9386 271.86 79.5451 272.15 76.9269L272.653 72.3559C272.943 69.7343 275.198 67.8419 277.665 68.1513Z" fill="#4C466A"/>
<path fill-rule="evenodd" clip-rule="evenodd" d="M283.153 60.9482C283.153 60.9482 284.171 61.2679 285.13 60.8411C286.089 60.4177 286.913 58.7725 286.877 58.3854C286.84 58 286.31 58.5945 284.531 57.6751C282.78 56.7712 276.281 54.5177 271.627 59.3116C270.826 60.1394 271.399 60.8186 272.391 60.4972C273.384 60.1775 277.627 58.0363 283.153 60.9465V60.9482Z" fill="#4C466A"/>
<path fill-rule="evenodd" clip-rule="evenodd" d="M310.892 71.1515C308.424 70.8629 306.178 72.769 305.905 75.3907L305.426 79.9634C305.154 82.5833 306.95 84.9665 309.42 85.2568C311.89 85.5471 314.134 83.6409 314.407 81.0193L314.886 76.4448C315.158 73.8249 313.362 71.4418 310.892 71.1497V71.1515Z" fill="#4C466A"/>
<path fill-rule="evenodd" clip-rule="evenodd" d="M306.178 65.7336C306.178 65.7336 305.139 65.9687 304.215 65.464C303.291 64.9611 302.59 63.252 302.655 62.8718C302.72 62.4899 303.203 63.1276 305.047 62.3585C306.857 61.6016 313.502 59.8959 317.789 65.0614C318.525 65.9531 317.905 66.5804 316.941 66.1812C315.977 65.7803 311.901 63.2935 306.178 65.7354V65.7336Z" fill="#4C466A"/>
<path fill-rule="evenodd" clip-rule="evenodd" d="M281.328 90.5468C283.777 91.9518 287.833 92.8055 291.962 93.025C296.095 93.2445 300.25 92.828 302.881 91.6908C303.405 91.4679 304.001 91.734 304.216 92.2888C304.311 92.5411 304.311 92.8072 304.236 93.044V93.0457C302.251 99.2049 299.483 103.365 296.515 105.539C294.681 106.881 292.755 107.486 290.866 107.352C288.976 107.218 287.156 106.347 285.537 104.749C282.986 102.233 280.905 97.8673 279.837 91.6995C279.737 91.1102 280.102 90.5433 280.657 90.4362C280.895 90.3912 281.129 90.4344 281.328 90.5485V90.5468Z" fill="#4C466A"/>
<path fill-rule="evenodd" clip-rule="evenodd" d="M281.961 90.8821C284.443 92.0883 288.172 92.8245 291.962 93.025C296.095 93.2445 300.25 92.828 302.883 91.6909C303.407 91.4662 304.003 91.7341 304.216 92.2888C304.311 92.5411 304.311 92.8073 304.236 93.0475C304.076 93.5452 303.91 94.0308 303.739 94.5043C295.898 98.1439 285.207 95.721 283.347 94.3142C282.131 93.3931 281.935 91.8982 281.963 90.8838L281.961 90.8821Z" fill="white"/>
<path fill-rule="evenodd" clip-rule="evenodd" d="M300.348 101.396C299.146 103.181 297.85 104.562 296.515 105.54C294.681 106.883 292.755 107.484 290.866 107.353C288.976 107.22 287.156 106.349 285.537 104.75C285.128 104.346 284.733 103.897 284.35 103.399C285.713 102.531 288.294 101.622 292 103.397C292 103.397 296.047 100.166 300.349 101.398L300.348 101.396Z" fill="#FF808F"/>
<path fill-rule="evenodd" clip-rule="evenodd" d="M287.33 110.79C286.946 110.559 286.809 110.042 287.027 109.634C287.245 109.225 287.732 109.081 288.116 109.311C288.126 109.316 291.058 111.032 294.868 109.574C295.284 109.415 295.74 109.645 295.889 110.084C296.039 110.526 295.824 111.013 295.407 111.169C290.917 112.89 287.341 110.796 287.33 110.79Z" fill="#F8A8A0"/>
<path fill-rule="evenodd" clip-rule="evenodd" d="M279.514 124.977C283.844 128.088 287.74 133.124 292.827 132.883C298.95 132.593 304.329 128.89 309.788 125.559C309.383 124.345 308.964 122.578 308.549 120.619C305.125 123.121 301.583 125.559 299.669 126.434C297.003 127.654 293.761 128.022 290.622 127.702C287.478 127.395 284.353 126.391 281.939 124.663C281.409 124.286 280.758 123.736 280.022 123.066C279.853 123.771 279.684 124.415 279.516 124.977H279.514Z" fill="#F8A8A0"/>
<path fill-rule="evenodd" clip-rule="evenodd" d="M322.938 196.539C326.067 196.539 328.622 193.829 328.622 190.508C328.622 187.184 326.069 184.475 322.938 184.475C319.807 184.475 317.253 187.184 317.253 190.508C317.253 193.829 319.807 196.539 322.938 196.539Z" fill="#FFFF00"/>
<path fill-rule="evenodd" clip-rule="evenodd" d="M322.938 194.548C325.035 194.548 326.746 192.732 326.746 190.506C326.746 188.278 325.035 186.464 322.938 186.464C320.84 186.464 319.129 188.28 319.129 190.506C319.129 192.732 320.84 194.548 322.938 194.548Z" fill="#BC766D"/>
<path fill-rule="evenodd" clip-rule="evenodd" d="M322.938 192.549C323.998 192.549 324.862 191.631 324.862 190.506C324.862 189.381 323.998 188.463 322.938 188.463C321.878 188.463 321.013 189.381 321.013 190.506C321.013 191.631 321.878 192.549 322.938 192.549Z" fill="white"/>
<path fill-rule="evenodd" clip-rule="evenodd" d="M258.507 68.6784C258.056 62.8354 258.08 57.4885 258.517 52.6168C258.927 48.0388 259.699 43.8809 260.778 40.1221C255.589 29.6131 258.44 18.596 262.406 25.443C262.406 25.443 270.424 4.228 296.834 5.4308C319.434 6.46079 331.201 19.505 337.763 34.0891C340.941 41.1538 342.465 48.0665 341.058 52.6185C340.469 54.5264 339.363 56.0213 337.649 56.9372C337.056 62.8907 335.283 69.2832 332.067 76.0266C332.772 75.7449 333.466 75.6032 334.067 75.7259C336.494 76.2253 339.047 82.2411 338.333 86.5252C337.668 90.5035 332.505 103.314 325.706 99.8891C322.529 108.943 317.483 113.823 317.483 113.823C317.483 113.823 313.119 117.28 308.546 120.622C308.961 122.582 309.378 124.348 309.785 125.563C310.066 126.404 310.342 126.982 310.607 127.175C311.017 127.474 311.428 127.759 311.843 128.034L312.081 127.794C314.404 128.451 316.436 129.507 318.103 131.069C318.369 131.181 318.636 131.293 318.905 131.404C325.743 134.249 333.695 137.024 339.904 139.907C343.494 141.225 347.861 143.862 352.604 145.935C360.231 149.268 371.459 202.278 373.73 219.221C373.838 220.023 371.309 221.357 367.678 222.778L367.954 224.134L369.36 231.062C369.899 230.784 370.411 230.456 370.888 230.083L369.634 223.91C370.751 223.446 371.873 222.935 372.905 222.347C373.439 222.043 373.999 221.689 374.455 221.262C374.631 221.098 374.794 220.918 374.932 220.723V215.709C374.164 210.693 373.188 205.655 372.193 200.716C370.593 192.771 368.812 184.843 366.804 177.004C365.824 173.174 364.785 169.358 363.65 165.577C362.657 162.267 361.59 158.963 360.369 155.74C359.148 152.517 356.491 145.694 353.247 144.277C350.974 143.284 348.766 142.146 346.55 141.02C344.59 140.024 342.574 138.996 340.519 138.236C333.498 134.98 326.121 132.508 318.991 129.513C317.112 127.828 314.889 126.733 312.514 126.062C312.336 126.012 312.159 125.991 311.985 126C311.89 125.933 311.796 125.865 311.701 125.798C311.297 125.098 310.773 122.895 310.444 121.405C313.155 119.407 315.85 117.352 318.491 115.259C318.537 115.223 318.576 115.189 318.618 115.147C319.741 114.06 320.867 112.589 321.77 111.305C323.757 108.485 325.411 105.367 326.691 102.112C328.212 102.433 329.75 102.188 331.216 101.4C333.023 100.427 334.513 98.7555 335.687 97.029C337.502 94.3573 339.451 90.0783 339.992 86.8363C340.417 84.2855 339.884 81.3614 338.925 78.9973C338.163 77.1205 336.773 74.7546 334.812 74.0824C336.983 68.986 338.548 63.6062 339.204 58.0484C341.115 56.7419 342.242 54.8115 342.807 52.6185C343.178 51.1789 343.307 49.6253 343.256 48.0613C343.098 43.117 341.273 37.7441 339.282 33.3166C330.81 14.4864 316.659 4.54079 296.902 3.64042C291.055 3.37428 285.203 4.12949 279.716 6.35365C275.605 8.0196 271.849 10.4529 268.599 13.6016C266.324 15.805 264.3 18.3558 262.664 21.1278C262.449 21.4924 262.229 21.8778 262.012 22.2753C261.226 21.6566 260.296 21.3282 259.262 21.6566C257.528 22.2044 256.791 24.2471 256.494 25.958C255.703 30.5152 257.043 36.1352 258.972 40.3157C257.877 44.3146 257.188 48.4467 256.822 52.622C256.424 57.1394 256.403 61.7052 256.649 66.2019C256.628 66.2019 256.607 66.2019 256.585 66.2019C254.353 66.2088 252.404 68.433 251.261 70.2579C249.919 72.3991 248.908 75.1711 248.9 77.7599C248.89 81.059 250.092 85.6473 251.429 88.6267C252.293 90.5536 253.477 92.4874 255.087 93.8008C256.397 94.8671 257.867 95.4149 259.423 95.3959C260.137 98.8574 261.244 102.253 262.724 105.421C263.398 106.862 264.256 108.528 265.178 109.819C265.212 109.868 265.244 109.907 265.283 109.952C266.91 111.82 268.569 113.666 270.238 115.495C272.76 118.256 275.39 121.121 278.119 123.688C277.914 124.469 277.642 125.397 277.412 125.8C277.3 125.881 277.188 125.96 277.075 126.04C277.044 126.047 277.012 126.055 276.979 126.064C274.604 126.735 272.383 127.83 270.502 129.517C266.221 131.316 261.869 132.934 257.551 134.634C253.479 136.238 249.265 137.924 245.395 140.022C242.495 141.446 239.658 142.988 236.7 144.281C233.456 145.698 230.797 152.522 229.578 155.744C228.357 158.967 227.29 162.271 226.297 165.58C225.162 169.362 224.123 173.179 223.141 177.007C221.134 184.846 219.351 192.775 217.752 200.719C216.541 206.73 215.36 212.886 214.544 218.972C214.421 219.899 214.86 220.676 215.49 221.265C215.948 221.692 216.506 222.047 217.041 222.351C218.073 222.938 219.193 223.45 220.312 223.913L218.722 231.738C218.696 231.866 218.683 231.992 218.682 232.115H220.373L221.994 224.138L222.269 222.781C218.638 221.361 216.109 220.026 216.217 219.225C218.49 202.282 229.716 149.27 237.343 145.938C240.472 144.569 243.441 142.955 246.127 141.638C252.603 138.123 262.393 134.815 270.588 131.408C270.857 131.295 271.124 131.185 271.389 131.072C273.057 129.51 275.089 128.454 277.412 127.797L277.499 127.884C277.836 127.656 278.171 127.421 278.506 127.177C278.829 126.942 279.167 126.138 279.513 124.982C279.68 124.421 279.85 123.776 280.019 123.071C275.112 118.595 266.523 108.737 266.523 108.737C266.523 108.737 262.379 102.938 260.77 93.4051C253.511 95.427 250.576 81.8073 250.589 77.7651C250.602 73.4118 254.119 67.9992 256.59 67.9923C257.201 67.9906 257.859 68.2654 258.505 68.6836L258.507 68.6784ZM348.683 230.229C348.54 229.659 348.385 229.054 348.224 228.415C345.622 228.876 343.851 228.951 343.675 228.417C342.921 226.132 342.086 223.574 341.198 220.858C340.913 219.985 340.625 219.097 340.33 218.196L337.849 232.11H339.567L340.809 225.14C341.231 226.431 341.654 227.72 342.079 229.009C342.527 230.369 343.887 230.596 345.057 230.582C345.687 230.575 346.337 230.513 346.983 230.425L347.41 232.11H349.159L348.698 230.288C348.693 230.269 348.688 230.248 348.683 230.229ZM251.649 232.11L249.327 219.097C249.032 219.999 248.742 220.887 248.459 221.758C247.682 224.139 246.946 226.386 246.277 228.417C246.101 228.951 244.33 228.876 241.728 228.415C241.373 229.818 241.057 231.059 240.792 232.11H242.54L242.967 230.425C243.613 230.511 244.263 230.573 244.893 230.582C246.064 230.596 247.422 230.371 247.871 229.009C248.198 228.019 248.524 227.029 248.848 226.037L249.931 232.11H251.649Z" fill="#4B4669"/>
<path fill-rule="evenodd" clip-rule="evenodd" d="M220.313 223.906C219.196 223.443 218.074 222.931 217.042 222.344C216.508 222.04 215.948 221.685 215.492 221.259C214.862 220.671 214.422 219.893 214.546 218.965C215.362 212.879 216.542 206.723 217.754 200.712C219.354 192.768 221.135 184.839 223.143 177C224.125 173.171 225.164 169.355 226.299 165.573C227.292 162.264 228.358 158.96 229.58 155.737C230.801 152.514 233.458 145.691 236.701 144.274C239.66 142.981 242.496 141.44 245.396 140.016C249.267 137.918 253.48 136.231 257.553 134.627C261.869 132.927 266.221 131.309 270.504 129.51C272.383 127.823 274.605 126.729 276.981 126.057C277.012 126.049 277.044 126.04 277.077 126.033C277.189 125.953 277.301 125.874 277.414 125.793C277.645 125.388 277.915 124.462 278.12 123.681C275.393 121.115 272.762 118.251 270.24 115.488C268.572 113.661 266.913 111.815 265.285 109.945C265.246 109.9 265.215 109.861 265.179 109.812C264.258 108.521 263.398 106.855 262.726 105.414C261.244 102.246 260.138 98.8506 259.425 95.389C257.868 95.4081 256.398 94.8602 255.089 93.7939C253.477 92.4805 252.293 90.5467 251.43 88.6198C250.094 85.6404 248.892 81.0504 248.902 77.7531C248.91 75.1643 249.921 72.3923 251.263 70.2511C252.406 68.4261 254.355 66.202 256.587 66.1951C256.608 66.1951 256.629 66.1951 256.651 66.1951C256.405 61.6984 256.426 57.1325 256.823 52.6151C257.19 48.4416 257.878 44.3078 258.974 40.3088C257.045 36.1284 255.703 30.5066 256.496 25.9512C256.794 24.2403 257.531 22.1976 259.264 21.6497C260.299 21.3231 261.228 21.6497 262.014 22.2684C262.229 21.8727 262.45 21.4856 262.665 21.1209C264.302 18.3489 266.326 15.7982 268.6 13.5947C271.85 10.446 275.608 8.01275 279.718 6.34679C285.205 4.12437 291.057 3.36743 296.904 3.63357C316.661 4.53394 330.812 14.4796 339.284 33.3097C341.275 37.7373 343.1 43.1102 343.258 48.0545C343.308 49.6185 343.18 51.1721 342.809 52.6116C342.244 54.8047 341.119 56.7351 339.205 58.0416C338.549 63.5993 336.984 68.9791 334.814 74.0755C336.776 74.7478 338.167 77.1119 338.927 78.9904C339.886 81.3546 340.418 84.2786 339.993 86.8294C339.453 90.0715 337.504 94.3504 335.688 97.0222C334.514 98.7486 333.025 100.42 331.217 101.393C329.752 102.182 328.213 102.428 326.692 102.105C325.413 105.361 323.758 108.478 321.772 111.299C320.868 112.583 319.743 114.053 318.62 115.14C318.577 115.182 318.538 115.215 318.493 115.253C315.852 117.347 313.157 119.402 310.446 121.398C310.775 122.888 311.297 125.091 311.703 125.791C311.797 125.858 311.892 125.926 311.986 125.993C312.159 125.985 312.336 126.005 312.515 126.055C314.891 126.726 317.112 127.822 318.992 129.507C326.122 132.503 333.5 134.975 340.521 138.229C342.576 138.989 344.59 140.017 346.552 141.013C348.768 142.138 350.976 143.277 353.249 144.27C356.492 145.687 359.151 152.512 360.371 155.733C361.592 158.956 362.658 162.261 363.652 165.57C364.787 169.351 365.825 173.169 366.806 176.997C368.813 184.836 370.596 192.765 372.195 200.709C373.19 205.648 374.165 210.686 374.934 215.703V197.199C373.468 190.115 371.855 183.05 370.064 176.057C368.209 168.816 366.141 161.362 363.504 154.396C361.818 149.947 358.992 142.903 354.534 140.956C350.253 139.086 346.091 136.513 341.755 134.89C334.887 131.715 327.697 129.282 320.718 126.375C318.815 124.78 316.649 123.645 314.336 122.881C316.415 121.322 318.48 119.734 320.513 118.121C320.652 118.011 320.767 117.911 320.894 117.788C323.983 114.8 326.806 110.198 328.811 105.806C332.629 105.454 335.994 102.696 338.427 99.1184C340.544 96.0043 342.688 91.2363 343.32 87.455C344.069 82.9652 342.524 76.2807 339.025 72.7258C340.565 68.6266 341.718 64.3736 342.356 60.0082C344.455 58.0778 345.707 55.4856 346.275 52.6116C346.573 51.1099 346.684 49.532 346.633 47.9335C346.459 42.4656 344.536 36.6658 342.332 31.7665C333.321 11.7387 318.056 1.0102 297.049 0.0527974C285.759 -0.462197 274.771 2.76257 266.324 10.9472C264.368 12.843 262.279 15.3333 260.555 17.9791C257.232 17.6577 254.05 20.2655 253.176 25.2979C252.326 30.1852 253.461 35.9296 255.389 40.6147C254.402 44.5307 253.773 48.5539 253.433 52.6134C253.129 56.2339 253.054 59.8821 253.158 63.5078C248.591 65.9462 245.539 72.8364 245.525 77.7392C245.512 81.5827 246.824 86.6894 248.381 90.1596C250.167 94.1448 253.008 97.5216 256.711 98.6138C257.945 103.335 259.953 108.428 262.489 111.978C262.594 112.123 262.688 112.244 262.805 112.379C264.45 114.268 266.127 116.134 267.814 117.981C269.541 119.874 271.316 121.808 273.138 123.667C271.581 124.365 270.114 125.259 268.776 126.38C264.675 128.089 260.509 129.64 256.379 131.268C252.199 132.913 247.896 134.644 243.919 136.793C241.085 138.185 238.307 139.698 235.415 140.961C230.957 142.909 228.13 149.953 226.445 154.401C223.807 161.365 221.74 168.821 219.885 176.062C217.861 183.965 216.065 191.957 214.452 199.966C213.224 206.058 212.03 212.295 211.203 218.462C210.917 220.605 211.772 222.56 213.263 223.951C213.921 224.565 214.676 225.064 215.446 225.501C215.767 225.684 216.096 225.861 216.428 226.03L215.424 230.976C215.345 231.358 215.305 231.737 215.302 232.108H218.683C218.685 231.984 218.698 231.857 218.724 231.731L220.313 223.906ZM247.869 229.008C247.422 230.368 246.062 230.594 244.891 230.58C244.261 230.573 243.612 230.511 242.965 230.423L242.539 232.108H249.929L248.846 226.035C248.522 227.026 248.197 228.017 247.869 229.008ZM340.809 225.138L339.567 232.108H347.412L346.985 230.423C346.339 230.51 345.689 230.572 345.059 230.58C343.888 230.594 342.53 230.37 342.081 229.008C341.656 227.719 341.232 226.429 340.811 225.138H340.809ZM369.635 223.904L370.889 230.077C372.022 229.194 372.973 228.059 373.669 226.752L373.522 226.027C373.737 225.916 373.95 225.804 374.162 225.69C374.659 224.442 374.935 223.073 374.935 221.639V220.718C374.797 220.911 374.634 221.091 374.458 221.257C374.001 221.684 373.442 222.038 372.908 222.342C371.876 222.93 370.756 223.441 369.637 223.904H369.635Z" fill="white"/>
<path fill-rule="evenodd" clip-rule="evenodd" d="M343.32 87.4584C342.688 91.2396 340.544 96.0094 338.427 99.1218C335.994 102.699 332.629 105.457 328.811 105.81C326.806 110.201 323.983 114.803 320.894 117.791C320.766 117.916 320.652 118.016 320.513 118.125C318.48 119.737 316.415 121.327 314.336 122.884C316.651 123.648 318.815 124.783 320.718 126.379C327.697 129.285 334.887 131.719 341.755 134.893C346.091 136.516 350.253 139.087 354.534 140.959C358.992 142.907 361.818 149.951 363.504 154.399C366.143 161.364 368.209 168.819 370.064 176.06C371.856 183.054 373.468 190.119 374.934 197.202V157.498C374.177 155.151 373.372 152.83 372.509 150.556C369.645 142.995 365.762 134.726 358.228 131.432C353.869 129.526 349.773 127.025 345.331 125.309C340.987 123.318 336.532 121.61 332.083 119.893C333.264 118.223 334.368 116.445 335.374 114.622C335.97 114.371 336.558 114.089 337.138 113.778C340.853 111.777 343.877 108.713 346.298 105.15C349.276 100.77 351.989 94.5767 352.876 89.254C353.855 83.3885 352.729 76.6452 349.854 71.1099C350.458 69.0482 350.973 66.9571 351.388 64.8401C353.982 61.3734 355.543 57.1532 356.108 52.6133H346.272C345.702 55.4872 344.452 58.0795 342.353 60.0098C341.714 64.3752 340.562 68.6282 339.021 72.7275C342.52 76.2823 344.066 82.9669 343.317 87.4567L343.32 87.4584ZM235.817 77.7063C235.799 83.1086 237.429 89.7154 239.614 94.5888C241.387 98.5429 243.828 102.129 247.122 104.811C247.653 105.243 248.197 105.646 248.755 106.015C250.278 110.455 252.308 114.782 254.755 118.206C255.06 118.633 255.337 118.982 255.679 119.374C255.931 119.665 256.187 119.957 256.442 120.25C250.734 122.44 245.004 124.662 239.678 127.524C237.032 128.831 234.419 130.255 231.721 131.433C224.187 134.726 220.305 142.997 217.441 150.557C214.658 157.9 212.477 165.724 210.519 173.357C208.448 181.441 206.61 189.617 204.961 197.811C203.687 204.136 202.453 210.604 201.595 217.009C200.924 222.007 202.513 226.872 205.677 230.473C205.618 231.023 205.586 231.567 205.579 232.108H215.303C215.306 231.736 215.347 231.358 215.425 230.976L216.43 226.03C216.096 225.861 215.769 225.684 215.448 225.501C214.68 225.062 213.922 224.563 213.265 223.951C211.773 222.56 210.918 220.604 211.205 218.462C212.032 212.294 213.226 206.058 214.453 199.966C216.067 191.957 217.863 183.965 219.887 176.062C221.741 168.821 223.809 161.367 226.447 154.401C228.132 149.952 230.959 142.908 235.417 140.961C238.308 139.698 241.086 138.185 243.921 136.792C247.896 134.644 252.201 132.914 256.38 131.268C260.511 129.641 264.676 128.089 268.778 126.38C270.114 125.259 271.581 124.365 273.14 123.667C271.318 121.807 269.543 119.874 267.815 117.981C266.129 116.134 264.451 114.267 262.807 112.379C262.69 112.244 262.595 112.125 262.491 111.978C259.954 108.428 257.947 103.335 256.712 98.6137C253.01 97.5215 250.169 94.1447 248.382 90.1595C246.826 86.6893 245.515 81.5843 245.526 77.7391C245.543 72.8346 248.592 65.9444 253.16 63.5077C253.055 59.882 253.13 56.2355 253.435 52.6133H243.695C243.547 54.5886 243.46 56.5691 243.426 58.5495C238.717 63.5941 235.842 70.9423 235.821 77.7029L235.817 77.7063Z" fill="#6F4F70"/>
<path fill-rule="evenodd" clip-rule="evenodd" d="M352.879 89.2557C351.99 94.5784 349.278 100.772 346.301 105.151C343.88 108.713 340.856 111.779 337.141 113.78C336.561 114.093 335.973 114.373 335.377 114.623C334.371 116.447 333.267 118.225 332.087 119.894C336.535 121.612 340.99 123.32 345.334 125.31C349.776 127.027 353.872 129.527 358.231 131.433C365.765 134.726 369.647 142.997 372.513 150.557C373.374 152.832 374.178 155.153 374.937 157.499V135.692C371.679 130.307 367.434 125.767 361.447 123.149C357.035 121.22 352.982 118.775 348.481 116.995C348.273 116.899 348.063 116.804 347.854 116.711C349.82 114.827 351.582 112.698 353.148 110.395C356.872 104.916 360.083 97.4766 361.193 90.8197C362.32 84.0677 361.432 76.7748 358.855 70.2994C358.992 69.7429 359.122 69.1864 359.247 68.6265C362.253 63.9604 364.054 58.4631 364.609 52.615H356.113C355.548 57.1566 353.986 61.3768 351.393 64.8418C350.976 66.9571 350.463 69.0482 349.859 71.1116C352.733 76.6452 353.859 83.3885 352.881 89.2557H352.879ZM239.614 94.5888C237.429 89.7154 235.799 83.1086 235.817 77.7063C235.838 70.9457 238.714 63.5975 243.423 58.553C243.457 56.5708 243.545 54.5903 243.691 52.6167H235.226C235.171 53.4255 235.125 54.2343 235.088 55.0431C230.263 61.4287 227.399 69.6513 227.375 77.6786C227.354 84.4306 229.26 92.3508 231.991 98.4409C234.31 103.613 237.53 108.241 241.806 111.777C242.345 113.163 242.926 114.528 243.551 115.857C240.984 116.965 238.452 118.149 235.985 119.468C233.5 120.7 231.034 122.046 228.503 123.152C218.54 127.507 213.405 137.188 209.604 147.217C206.698 154.888 204.414 163.033 202.37 171.008C200.258 179.252 198.384 187.587 196.702 195.939C195.387 202.468 194.12 209.137 193.234 215.747C192.457 221.538 193.63 227.26 196.339 232.11H205.574C205.581 231.569 205.612 231.024 205.672 230.475C202.508 226.873 200.919 222.009 201.59 217.011C202.45 210.606 203.682 204.138 204.956 197.812C206.605 189.619 208.443 181.445 210.515 173.359C212.47 165.724 214.653 157.902 217.436 150.559C220.3 142.998 224.184 134.729 231.716 131.435C234.414 130.257 237.027 128.832 239.673 127.526C244.999 124.666 250.729 122.443 256.437 120.252C256.182 119.958 255.926 119.666 255.674 119.376C255.332 118.984 255.055 118.635 254.75 118.208C252.305 114.786 250.273 110.459 248.75 106.017C248.192 105.646 247.648 105.245 247.117 104.813C243.823 102.129 241.383 98.5429 239.609 94.5905L239.614 94.5888Z" fill="#725673"/>
</svg>
