<svg width="41" height="40" viewBox="0 0 41 40" fill="none" xmlns="http://www.w3.org/2000/svg">
<rect x="0.908752" width="40" height="40" rx="20" fill="url(#paint0_linear_1_9332)"/>
<path d="M30.1459 13.2884L21.1459 10.2884C20.992 10.2371 20.8255 10.2371 20.6716 10.2884L11.6716 13.2884C11.5222 13.3382 11.3923 13.4337 11.3003 13.5614C11.2083 13.6891 11.1587 13.8426 11.1588 14V21.5C11.1588 21.6989 11.2378 21.8897 11.3784 22.0303C11.5191 22.171 11.7098 22.25 11.9088 22.25C12.1077 22.25 12.2984 22.171 12.4391 22.0303C12.5797 21.8897 12.6588 21.6989 12.6588 21.5V15.0406L15.8078 16.0897C14.9712 17.4414 14.7051 19.0698 15.0681 20.6175C15.431 22.1652 16.3934 23.5056 17.7438 24.3444C16.0563 25.0062 14.5975 26.2034 13.5306 27.8403C13.4751 27.9228 13.4366 28.0154 13.4172 28.1129C13.3979 28.2104 13.3981 28.3108 13.4179 28.4082C13.4377 28.5056 13.4766 28.5981 13.5324 28.6803C13.5883 28.7626 13.6599 28.8329 13.7432 28.8872C13.8264 28.9415 13.9196 28.9787 14.0174 28.9966C14.1151 29.0146 14.2155 29.0129 14.3126 28.9918C14.4097 28.9706 14.5017 28.9304 14.5831 28.8733C14.6645 28.8163 14.7338 28.7437 14.7869 28.6597C16.1997 26.4922 18.4309 25.25 20.9088 25.25C23.3866 25.25 25.6178 26.4922 27.0306 28.6597C27.1406 28.8232 27.3106 28.9368 27.5037 28.976C27.6968 29.0152 27.8976 28.9768 28.0626 28.8692C28.2277 28.7615 28.3437 28.5933 28.3857 28.4007C28.4277 28.2082 28.3922 28.0069 28.2869 27.8403C27.22 26.2034 25.7556 25.0062 24.0738 24.3444C25.4228 23.5056 26.3843 22.1661 26.7472 20.6196C27.1101 19.073 26.8449 17.4457 26.0097 16.0944L30.1459 14.7162C30.2953 14.6665 30.4252 14.571 30.5173 14.4433C30.6094 14.3156 30.6589 14.1621 30.6589 14.0047C30.6589 13.8472 30.6094 13.6938 30.5173 13.5661C30.4252 13.4384 30.2953 13.3429 30.1459 13.2931V13.2884ZM25.4088 19.25C25.409 19.9614 25.2405 20.6628 24.9171 21.2965C24.5938 21.9302 24.1248 22.4782 23.5487 22.8955C22.9725 23.3129 22.3057 23.5877 21.6027 23.6974C20.8998 23.8072 20.1809 23.7486 19.505 23.5267C18.8291 23.3048 18.2154 22.9258 17.7143 22.4207C17.2132 21.9157 16.839 21.2991 16.6224 20.6214C16.4058 19.9438 16.3529 19.2244 16.4682 18.5224C16.5834 17.8204 16.8634 17.1557 17.2853 16.5828L20.6716 17.7078C20.8255 17.7591 20.992 17.7591 21.1459 17.7078L24.5322 16.5828C25.102 17.3553 25.4092 18.2901 25.4088 19.25Z" fill="white"/>
<defs>
<linearGradient id="paint0_linear_1_9332" x1="5.95548" y1="2.85715" x2="43.8311" y2="13.6482" gradientUnits="userSpaceOnUse">
<stop stop-color="#EE269D"/>
<stop offset="1" stop-color="#9743A6"/>
</linearGradient>
</defs>
</svg>
