<svg width="140" height="160" viewBox="0 0 140 160" fill="none" xmlns="http://www.w3.org/2000/svg">
<g clip-path="url(#clip0_71_11188)">
<path d="M57.6981 140.17C89.5638 140.17 115.396 114.338 115.396 82.4723C115.396 50.6066 89.5638 24.7743 57.6981 24.7743C25.8323 24.7743 -1.90735e-06 50.6066 -1.90735e-06 82.4723C-1.90735e-06 114.338 25.8323 140.17 57.6981 140.17Z" fill="url(#paint0_radial_71_11188)"/>
<path d="M57.6981 133.593C85.9311 133.593 108.819 110.705 108.819 82.4724C108.819 54.2393 85.9311 31.3518 57.6981 31.3518C29.465 31.3518 6.5775 54.2393 6.5775 82.4724C6.5775 110.705 29.465 133.593 57.6981 133.593Z" fill="url(#paint1_linear_71_11188)"/>
<path d="M99.9781 69.3265L78.5207 121.546C78.4287 121.827 78.3321 122.112 78.2171 122.393C75.9817 127.995 70.2321 131.017 64.5837 130.299C63.0658 130.106 61.5526 129.642 60.1175 128.887L38.7337 118.083L29.7782 113.557L18.0352 107.623C17.7271 107.462 17.4373 107.274 17.1705 107.071C15.0823 105.475 14.2221 102.669 15.1605 100.13L22.8097 79.3675L29.01 62.542L33.927 49.1984C35.2011 45.7394 39.2258 44.194 42.4916 45.9142L44.0877 46.756L44.9754 47.2251L46.7279 48.1451L83.8517 67.7258C83.9897 67.7994 84.1323 67.8684 84.2794 67.9328C86.4367 68.8941 88.9343 68.7653 90.9903 67.5602L91.6389 67.1784C94.4171 65.5456 94.3435 61.4979 91.5009 59.9708L59.0733 42.5519C56.9437 41.4066 54.3633 41.4802 52.298 42.7405L50.1178 44.0744L49.5337 44.4331L47.68 45.5693L48.0342 44.6033L49.5797 40.4038C50.8538 36.9449 54.8831 35.3994 58.1442 37.1197L58.273 37.1887L95.1116 56.613C95.6406 56.8936 96.1374 57.2156 96.6019 57.5698C100.125 60.279 101.57 65.0258 99.9873 69.3265H99.9781Z" fill="#1AA3FF"/>
<path d="M49.1519 43.7616L50.2926 40.6706C50.8216 39.2309 51.9485 38.0902 53.3836 37.5383C53.9999 37.3037 54.6485 37.1841 55.2924 37.1841C55.4212 37.1841 55.55 37.1887 55.6834 37.1979C53.7377 37.6257 52.0267 39.0009 51.2723 41.0432L50.5594 42.9015L49.1519 43.7616Z" fill="#98D6FF"/>
<path d="M89.2379 69.5887C88.5985 69.5887 87.9592 69.5059 87.3382 69.3403C87.5084 69.3403 87.6786 69.3311 87.8442 69.3219C89.0631 69.2345 90.2682 68.8665 91.3675 68.218L92.0207 67.8362C93.5432 66.9439 94.4401 65.3662 94.4401 63.6091C94.4401 63.5769 94.4401 63.5447 94.4401 63.5171C94.4217 62.68 94.2055 61.8934 93.8191 61.2035C96.3121 62.864 96.2661 66.6357 93.6075 68.1996L92.9544 68.5813C91.8091 69.2529 90.5258 69.5933 89.2379 69.5933V69.5887Z" fill="#98D6FF"/>
<path d="M17.6903 106.505C15.832 105.116 15.0547 102.628 15.878 100.397L19.3139 91.069L19.8613 93.746L17.1337 101.156C16.4622 102.987 16.7197 104.955 17.6949 106.505H17.6903ZM30.8545 63.9081C30.5141 63.5217 30.1231 63.1859 29.6908 62.91L34.6446 49.4652C35.1735 48.0255 36.3005 46.8848 37.7356 46.3328C38.3519 46.0982 39.0005 45.9786 39.6444 45.9786C40.2056 45.9786 40.7621 46.066 41.3003 46.2408C38.9591 46.365 36.7788 47.8415 35.9003 50.2195L30.8591 63.9081H30.8545Z" fill="#98D6FF"/>
<path d="M58.2132 120.024C57.8682 120.024 57.5233 119.946 57.1921 119.785L41.2635 111.91C41.2727 111.666 41.2543 111.422 41.2037 111.183L33.2969 72.3944C33.6419 72.0264 33.8167 71.4975 33.7063 70.9501L33.5361 70.1222C33.4763 69.8232 33.3337 69.5564 33.1405 69.3448L38.6831 54.4052C39.0327 53.4622 39.9204 52.8965 40.8541 52.8965C41.2129 52.8965 41.5763 52.9793 41.9166 53.1587L75.9081 70.8397C76.943 71.3779 77.4168 72.6014 77.0074 73.6961L60.3797 118.52C60.0301 119.458 59.1423 120.028 58.2086 120.028L58.2132 120.024Z" fill="#5FBFFF"/>
<path d="M44.9708 47.2206L46.7233 48.1451L83.8471 67.7212C86.0963 68.9033 88.7917 68.8435 90.9857 67.5556L91.6343 67.1739C94.4125 65.541 94.3389 61.4933 91.4963 59.9662L59.0641 42.5473C56.9345 41.402 54.3541 41.4756 52.2889 42.7359L47.6662 45.5647L44.9662 47.216L44.9708 47.2206Z" fill="white"/>
<path d="M87.2646 67.804C86.2159 67.804 85.1672 67.551 84.2013 67.0404L80.6963 65.1914C80.8389 65.2006 80.9815 65.2052 81.1241 65.2052C82.412 65.2052 83.6953 64.8694 84.8406 64.1932L85.4892 63.8115C87.444 62.6615 87.9868 60.3249 87.1496 58.5081L91.1283 60.6423C92.2138 61.2265 92.8762 62.312 92.8992 63.5447C92.9222 64.7774 92.3012 65.8859 91.2387 66.5115L90.5856 66.8932C89.5507 67.5004 88.4053 67.804 87.26 67.804H87.2646Z" fill="#B2B2D4"/>
<path d="M67.0813 128.046C66.534 128.046 65.982 128.009 65.4301 127.94C65.4255 127.94 65.4209 127.94 65.4163 127.94C64.8091 127.862 64.4411 127.232 64.6481 126.661L83.3503 75.2646C83.7781 74.0871 84.8728 73.2868 86.1239 73.2178C96.5375 72.6244 100.286 66.5391 98.727 61.2771C99.9597 63.6091 100.226 66.4287 99.2651 69.0459L77.8123 121.252C77.8031 121.27 77.7985 121.289 77.7893 121.312C77.7019 121.579 77.61 121.845 77.5042 122.108C77.242 122.761 76.9292 123.386 76.5658 123.97C74.1188 126.588 70.6461 128.046 67.0767 128.046H67.0813ZM77.8261 111.639C77.0902 111.639 76.2209 112.37 75.7241 113.483C75.1307 114.808 75.2917 116.169 76.0829 116.528C76.2117 116.583 76.3496 116.611 76.4922 116.611C77.2282 116.611 78.0975 115.88 78.5943 114.766C79.1876 113.442 79.0266 112.08 78.2355 111.722C78.1067 111.662 77.9687 111.634 77.8261 111.634V111.639ZM89.7208 83.4244C88.9849 83.4244 88.1156 84.1558 87.6188 85.2689C87.0254 86.5936 87.1864 87.9551 87.9776 88.3093C88.1064 88.3691 88.2444 88.3921 88.3869 88.3921C89.1229 88.3921 89.9922 87.6607 90.489 86.5476C91.0823 85.2229 90.9213 83.8614 90.1302 83.5026C90.0014 83.4474 89.8634 83.4198 89.7208 83.4198V83.4244Z" fill="#1272D4"/>
<path d="M88.3823 88.3921C88.2397 88.3921 88.1018 88.3645 87.973 88.3093C87.1818 87.9551 87.0208 86.5936 87.6142 85.2689C88.111 84.1558 88.9803 83.4244 89.7162 83.4244C89.8588 83.4244 89.9968 83.452 90.1256 83.5072C90.9167 83.8614 91.0777 85.2229 90.4844 86.5522C89.9876 87.6653 89.1183 88.3967 88.3823 88.3967V88.3921Z" fill="#6A95D4"/>
<path d="M76.4876 116.611C76.345 116.611 76.207 116.583 76.0783 116.528C75.2871 116.174 75.1261 114.812 75.7195 113.483C76.2162 112.37 77.0856 111.639 77.8215 111.639C77.9641 111.639 78.1021 111.666 78.2309 111.726C79.022 112.08 79.183 113.442 78.5897 114.771C78.0929 115.884 77.2236 116.615 76.4876 116.615V116.611Z" fill="#6A95D4"/>
<path d="M87.2002 84.8504C86.6069 86.1751 86.7679 87.5366 87.559 87.8953C88.3501 88.2495 89.4771 87.463 90.0658 86.1383C90.6592 84.8136 90.4982 83.4521 89.707 83.0933C88.9159 82.7391 87.7936 83.5257 87.1956 84.8504H87.2002Z" fill="#000072"/>
<path d="M75.3055 113.069C74.7122 114.394 74.8732 115.755 75.6643 116.114C76.4554 116.468 77.5778 115.682 78.1711 114.357C78.7645 113.032 78.6035 111.671 77.8123 111.312C77.0212 110.958 75.8989 111.745 75.3055 113.069Z" fill="#000072"/>
<path d="M60.3336 49.272L71.52 55.155L76.8878 40.6017C77.173 39.8243 76.5428 39.0194 75.7195 39.1114L70.3103 39.7231L67.4907 35.0821C67.0077 34.2864 65.8164 34.4013 65.4945 35.2753L60.3612 49.2122L60.3382 49.2766L60.3336 49.272Z" fill="#FF4229"/>
<path d="M62.3667 48.8903C62.0493 48.8075 61.7273 48.7109 61.4008 48.5913L66.4328 34.9257C66.4374 34.9119 66.442 34.9073 66.4604 34.9027H66.465C66.4834 34.9027 66.4834 34.9073 66.4926 34.9165L67.1181 35.9468L62.3667 48.8903Z" fill="#FFAA9E"/>
<path d="M56.8195 47.2205C57.8866 47.1377 58.7054 47.5241 59.5195 47.9197C60.3383 48.306 61.1386 48.72 61.9389 49.1432C63.5258 50.0033 65.0851 50.9186 66.6858 51.765L69.0776 53.0345C69.8779 53.4531 70.6691 53.89 71.4786 54.2902C72.2974 54.6766 73.0931 55.1043 73.829 55.6379C74.5696 56.1714 75.2825 56.7464 75.9127 57.4732C75.9541 57.5237 75.9495 57.5973 75.8989 57.6387C75.8713 57.6617 75.8345 57.6709 75.8023 57.6663C74.8548 57.5145 73.99 57.211 73.1529 56.866C72.7343 56.6958 72.325 56.498 71.9294 56.2818C71.5338 56.0657 71.152 55.8219 70.7611 55.6011C69.9791 55.1503 69.1742 54.741 68.3784 54.3132L65.9866 53.0437C64.3952 52.1927 62.7623 51.4154 61.1616 50.5783C60.3659 50.1551 59.5747 49.7227 58.7974 49.2628C58.0154 48.8074 57.2381 48.3474 56.7091 47.4183C56.6723 47.3539 56.6953 47.2757 56.7597 47.2389C56.7781 47.2297 56.7965 47.2251 56.8149 47.2205H56.8195Z" fill="#B2B2D4"/>
<path d="M39.0373 117.379L36.3465 116.022L36.8524 114.918C37.2112 114.136 37.3124 113.295 37.1468 112.485L36.558 109.592L41.2589 111.915C41.2451 112.315 41.1485 112.715 40.9829 113.097C40.9829 113.115 40.9829 113.129 40.9829 113.143L39.1339 117.172L39.0373 117.379ZM30.0587 77.6519L29.0376 72.6337C29.033 72.5509 29.0238 72.4635 29.0054 72.3807L28.8398 71.5574V71.5482C28.8352 71.5344 28.8352 71.516 28.8306 71.5022C28.8122 71.4332 28.7938 71.3642 28.7662 71.2952L28.5408 70.1821L30.8545 63.9036C31.457 64.5889 31.8894 65.4307 32.0826 66.3874L32.6023 68.954C32.8093 69.046 32.9933 69.1794 33.1451 69.3404L30.0633 77.6473L30.0587 77.6519Z" fill="#1272D4"/>
<path d="M28.5409 70.182L28.0349 67.6844C28.0211 67.6246 28.0119 67.5648 27.9935 67.505L29.6908 62.9008C30.1231 63.1767 30.5141 63.5125 30.8545 63.8989L28.5409 70.1774V70.182Z" fill="#6A95D4"/>
<path d="M41.2635 111.91L36.5626 109.587L30.0587 77.6518L33.1405 69.3448C33.3383 69.5564 33.4763 69.8232 33.5361 70.1222L33.7063 70.9501C33.8166 71.4975 33.6419 72.0264 33.2969 72.3944L41.2037 111.183C41.2497 111.422 41.2727 111.666 41.2635 111.91Z" fill="#4285D4"/>
<path d="M71.1014 54.0648L65.3611 51.0474C64.3124 50.4679 63.2682 49.8699 62.2195 49.295L62.3667 48.8902C63.1302 49.0834 63.8616 49.1754 64.5699 49.1754C71.129 49.1754 75.2181 41.4985 76.0231 39.8473L76.3082 39.8151H76.3129C76.3175 39.8151 76.3267 39.8151 76.3359 39.8289C76.3451 39.8427 76.345 39.8519 76.3404 39.8611L71.1014 54.0694V54.0648Z" fill="#B22E3F"/>
<path d="M62.2195 49.295C62.1229 49.2444 62.0309 49.1892 61.9343 49.1386C61.7273 49.0282 61.525 48.9224 61.318 48.8121L61.4008 48.5867C61.7274 48.7063 62.0493 48.8029 62.3667 48.8856L62.2195 49.2904V49.295Z" fill="#B27791"/>
<path d="M16.3564 72.721C16.5036 72.5646 16.6829 72.4358 16.8899 72.3439C18.4584 71.6493 20.1419 71.1065 21.9127 70.7478C23.6836 70.389 25.4453 70.2326 27.1609 70.2648C27.3863 70.2694 27.6025 70.3154 27.7957 70.4074L27.2759 67.8454C26.6872 64.9246 23.84 63.0388 20.9192 63.6275L20.0545 63.8023C17.1337 64.3911 15.2478 67.2382 15.8366 70.159L16.3564 72.7256V72.721Z" fill="#FF4229"/>
<path d="M17.0279 72.1599L16.5864 70.0026C16.3426 68.7929 16.5818 67.5556 17.2671 66.5253C17.6627 65.9274 18.1824 65.4398 18.7804 65.0902C17.6765 66.3183 17.1475 68.0294 17.5017 69.7727L17.911 71.7965C17.6121 71.9115 17.3177 72.0311 17.0233 72.1599H17.0279Z" fill="#FFAA9E"/>
<path d="M24.9163 70.2188L24.5484 68.3927C24.1574 66.4655 22.7867 64.989 21.0618 64.3772L21.0756 64.3726C21.3838 64.3082 21.6966 64.2806 22.0047 64.2806C22.9063 64.2806 23.7848 64.5428 24.553 65.0534C25.5833 65.7387 26.287 66.7783 26.5308 67.9926L26.9724 70.1498C26.8942 70.1498 26.816 70.1498 26.7332 70.1498C26.1306 70.1498 25.5281 70.1728 24.9209 70.2188H24.9163Z" fill="#B22E3F"/>
<path d="M29.792 120.185L31.3006 121.776C31.8434 122.351 32.9335 122.131 33.2141 121.39L33.9868 119.339L36.1625 114.596C36.4523 113.966 36.535 113.285 36.4017 112.632L28.4949 73.8433L27.8003 70.4028C27.6025 70.3154 27.3863 70.2648 27.1656 70.2602C25.4499 70.228 23.6882 70.3844 21.9173 70.7432C20.1465 71.102 18.463 71.6447 16.8945 72.3393C16.6875 72.4313 16.5082 72.56 16.361 72.7164L17.0555 76.1524L24.9623 114.941C25.0911 115.594 25.4361 116.188 25.9466 116.657L29.792 120.18V120.185Z" fill="#1D9CD7"/>
<path d="M29.792 120.185L31.3006 121.776C31.8434 122.351 32.9335 122.131 33.2141 121.39L33.9868 119.339L36.1625 114.596C36.4523 113.966 36.535 113.285 36.4017 112.632L28.4949 73.8433L27.8003 70.4028C27.6025 70.3154 27.3863 70.2648 27.1656 70.2602C25.4499 70.228 23.6882 70.3844 21.9173 70.7432C20.1465 71.102 18.463 71.6447 16.8945 72.3393C16.6875 72.4313 16.5082 72.56 16.361 72.7164L17.0555 76.1524L24.9623 114.941C25.0911 115.594 25.4361 116.188 25.9466 116.657L29.792 120.18V120.185Z" fill="#FFC306"/>
<path d="M25.7259 114.868C25.7213 114.845 25.7167 114.817 25.7075 114.794L17.8881 76.3915C18.0674 76.3731 18.2468 76.3225 18.417 76.249C18.5228 76.203 18.624 76.157 18.7298 76.111L26.5078 114.274C26.5078 114.279 26.5078 114.279 26.5078 114.283C26.425 114.316 26.3468 114.352 26.2686 114.398L26.264 114.389L26.1628 114.44C26.057 114.49 25.9604 114.55 25.8684 114.619L25.8454 114.642C25.7949 114.716 25.7535 114.794 25.7213 114.872L25.7259 114.868Z" fill="#FFE48F"/>
<path d="M36.1809 114.592L34.3318 118.621L34.0052 119.329L33.2325 121.381C33.1543 121.583 33.0209 121.744 32.8507 121.864C32.4 122.177 31.7146 122.181 31.319 121.767L29.8103 120.176L29.1756 119.592L25.965 116.652C25.4867 115.903 25.5281 115.254 25.8224 114.813C26.1306 114.348 26.7102 114.109 27.2529 114.196C27.7175 114.274 28.1729 114.017 28.3845 113.598C28.7616 112.848 29.47 112.273 30.3577 112.094C31.2316 111.919 32.0964 112.163 32.7357 112.692C33.0807 112.977 33.5775 113.009 33.9684 112.784C34.8516 112.269 36.3557 112.646 36.1809 114.583V114.592Z" fill="#FFC76C"/>
<path d="M36.1809 114.592C36.2729 114.394 36.2683 114.495 36.2453 114.596C36.2223 114.697 36.1717 114.803 36.1809 114.592Z" fill="#FCBC41"/>
<path d="M33.4165 112.94C33.3797 112.94 33.3429 112.94 33.3061 112.936L25.4867 74.5701L25.4683 74.4919C25.8868 74.4643 26.3008 74.4505 26.7194 74.4505C26.9034 74.4505 27.0874 74.4551 27.2713 74.4597C27.2851 74.4597 27.3035 74.4597 27.3173 74.4597C27.4921 74.4597 27.6669 74.4321 27.8279 74.3815L35.6473 112.789C35.6565 112.83 35.6657 112.876 35.6703 112.917C35.4081 112.687 35.0816 112.586 34.7504 112.586C34.4744 112.586 34.1984 112.66 33.9684 112.793C33.7983 112.894 33.6051 112.94 33.4165 112.94Z" fill="#B28827"/>
<path d="M32.5701 120.912C32.5471 120.893 32.5287 120.875 32.5057 120.852L31.227 119.504L33.1497 115.318C33.4395 114.688 33.5223 114.008 33.3935 113.354L33.3061 112.931C33.3429 112.936 33.3797 112.936 33.4165 112.936C33.6051 112.936 33.7982 112.885 33.9684 112.789C34.203 112.655 34.4744 112.582 34.7504 112.582C35.077 112.582 35.4081 112.687 35.6703 112.913C35.7347 113.364 35.6611 113.833 35.4633 114.274L33.2877 119.017C33.2785 119.035 33.2739 119.049 33.2693 119.067L32.5747 120.916L32.5701 120.912Z" fill="#B28B6E"/>
<path d="M30.9051 120.245L30.3485 119.656C30.3347 119.642 30.3255 119.628 30.3117 119.619L26.4664 116.096C26.1904 115.843 25.9788 115.544 25.8409 115.213C25.8684 115.056 25.9282 114.905 26.0156 114.767C26.0616 114.73 26.1076 114.702 26.1582 114.67C26.3422 115.13 26.6274 115.539 27.0092 115.889L30.8499 119.408L31.1397 119.711L30.9787 120.061L30.9097 120.245H30.9051Z" fill="#FFE6BD"/>
<path d="M32.101 121.33C32.0136 121.33 31.917 121.307 31.8572 121.243L30.9097 120.24L30.9787 120.056L31.1397 119.707L32.3586 120.994C32.4 121.04 32.446 121.082 32.4966 121.114C32.4506 121.229 32.3126 121.293 32.2068 121.316C32.1746 121.321 32.1378 121.326 32.101 121.326V121.33Z" fill="#DCCBBE"/>
<path d="M32.4965 121.119C32.446 121.082 32.4 121.04 32.3586 120.999L31.1396 119.711L31.2316 119.509L32.5103 120.856C32.5287 120.875 32.5517 120.898 32.5747 120.916L32.4965 121.119Z" fill="#503F70"/>
<path d="M29.1894 119.743L31.0523 121.703C31.7238 122.411 33.0715 122.14 33.4119 121.224L34.364 118.695C33.5223 118.488 32.5977 118.465 31.664 118.653C30.7257 118.842 29.8885 119.224 29.1894 119.743Z" fill="#000072"/>
<path d="M17.0555 76.157C17.4603 76.3364 17.934 76.3548 18.3802 76.1524C19.7325 75.536 21.186 75.0577 22.7269 74.7495C24.2632 74.4413 25.7903 74.3125 27.2759 74.3539C27.7635 74.3677 28.1959 74.1653 28.4949 73.8433C28.8398 73.4754 29.0146 72.9464 28.9042 72.3991L28.734 71.5711C28.6282 71.0422 28.2695 70.6144 27.7957 70.4028C27.5979 70.3154 27.3817 70.2648 27.161 70.2602C25.4453 70.228 23.6836 70.3844 21.9127 70.7432C20.1419 71.102 18.4584 71.6447 16.8899 72.3393C16.6829 72.4313 16.5036 72.56 16.3564 72.7164C16.0022 73.0936 15.8366 73.6226 15.947 74.1561L16.1172 74.9887C16.2276 75.536 16.5955 75.95 17.0555 76.157Z" fill="#CAD0D7"/>
<path d="M17.7133 76.1983C17.5063 76.1983 17.2947 76.1523 17.0969 76.0649C16.6461 75.8626 16.315 75.4532 16.2184 74.9702L16.0482 74.1377C15.9516 73.6547 16.0942 73.1488 16.4346 72.79C16.5725 72.6382 16.7427 72.5232 16.9313 72.4358C17.3315 72.2564 17.7409 72.0908 18.1502 71.9344C18.0766 71.9896 18.0122 72.0494 17.9478 72.1184C17.5937 72.4956 17.4327 73.0246 17.5385 73.5581L17.7087 74.3907C17.8191 74.938 18.1824 75.352 18.647 75.559C18.8172 75.6372 19.0058 75.6832 19.1944 75.697C18.9046 75.812 18.6194 75.9361 18.3388 76.0649C18.1364 76.1569 17.9248 76.2029 17.7179 76.2029L17.7133 76.1983Z" fill="#E7EAED"/>
<path d="M25.3441 74.2895C25.4867 74.1791 25.6109 74.0641 25.6983 73.9675C26.0846 73.5581 26.2456 72.9832 26.1352 72.4312L25.965 71.6033C25.8639 71.0927 25.5327 70.6603 25.0819 70.4212C25.6247 70.3844 26.1674 70.366 26.7102 70.366C26.862 70.366 27.0092 70.366 27.1564 70.3706C27.3679 70.3752 27.5657 70.4166 27.7543 70.504C28.1959 70.6971 28.5179 71.0881 28.6236 71.5573C28.6282 71.5711 28.6282 71.5849 28.6328 71.5941L28.642 71.6355L28.803 72.4266C28.8168 72.4956 28.826 72.5646 28.8306 72.6336C28.8536 72.9878 28.7478 73.3419 28.5408 73.6317C28.5041 73.6823 28.4627 73.7329 28.4213 73.7789C28.1361 74.0825 27.7405 74.2573 27.3265 74.2573C27.3127 74.2573 27.2943 74.2573 27.2805 74.2573C27.0966 74.2527 26.9126 74.2481 26.7286 74.2481C26.3652 74.2481 26.0018 74.2573 25.6431 74.2757C25.5465 74.2803 25.4453 74.2849 25.3487 74.2941L25.3441 74.2895Z" fill="#B29EA7"/>
<path d="M26.724 74.2436C26.908 74.2436 27.092 74.2482 27.2759 74.2528C27.2897 74.2528 27.3081 74.2528 27.3219 74.2528C27.3081 74.2528 27.2943 74.2528 27.2759 74.2528C27.092 74.2482 26.908 74.2436 26.724 74.2436ZM28.5408 73.6272C28.7524 73.3374 28.8536 72.9833 28.8306 72.6291C28.8536 72.9879 28.7524 73.3374 28.5408 73.6272ZM28.6466 71.6356L28.6374 71.5942C28.6328 71.5804 28.6328 71.5666 28.6282 71.5574C28.6328 71.5712 28.6328 71.585 28.6374 71.5988L28.6466 71.6402V71.6356Z" fill="#250C60"/>
<path d="M24.8657 74.5379C25.0681 74.5195 25.2659 74.5057 25.4683 74.4919C25.2843 74.5057 25.1003 74.5195 24.9163 74.5333L24.8657 74.5379Z" fill="#B28827"/>
<path d="M25.4683 74.4873C25.8868 74.4597 26.3008 74.446 26.7148 74.446C26.8988 74.446 27.0828 74.4505 27.2667 74.4551C27.2805 74.4551 27.2943 74.4551 27.3081 74.4551C27.4829 74.4551 27.6577 74.4275 27.8233 74.377C27.6577 74.4275 27.4875 74.4551 27.3127 74.4551C27.2989 74.4551 27.2805 74.4551 27.2667 74.4551C27.0828 74.4505 26.8988 74.446 26.7148 74.446C26.3008 74.446 25.8822 74.4597 25.4637 74.4873H25.4683Z" fill="#7C5F3E"/>
<path d="M27.8279 74.3815C27.9935 74.3309 28.1499 74.2527 28.2925 74.1515C28.1499 74.2527 27.9935 74.3263 27.8279 74.3815Z" fill="#000072"/>
<path d="M28.8398 71.5481C28.8352 71.5343 28.8352 71.5159 28.8306 71.5021C28.8352 71.5159 28.8398 71.5343 28.8398 71.5481Z" fill="#0D50B6"/>
<path d="M23.909 70.3155H23.8998L23.9964 70.3063C23.9688 70.3109 23.9366 70.3109 23.909 70.3155Z" fill="#B22E3F"/>
<path d="M23.9274 70.32L23.909 70.3154C23.9366 70.3108 23.9688 70.3108 23.9964 70.3062L24.3322 70.2786C24.1988 70.2924 24.0608 70.3062 23.9274 70.32Z" fill="#000072"/>
<path d="M21.2182 74.9243C19.3875 73.3512 20.1649 71.4331 20.2431 71.2538C20.7996 71.0974 21.3654 70.964 21.9357 70.849C22.0599 70.826 22.1841 70.7984 22.3083 70.7754C23.3156 72.3255 23.2282 74.4045 23.2282 74.4045L21.2182 74.9243Z" fill="#E7EAED"/>
<path d="M24.185 74.5104C24.3 74.5104 24.4104 74.515 24.5253 74.515C24.7461 74.5196 24.9577 74.4828 25.1463 74.4092C24.8289 74.4322 24.507 74.469 24.185 74.5104Z" fill="#F8BF71"/>
<path fill-rule="evenodd" clip-rule="evenodd" d="M22.2623 45.6245C31.0063 38.6376 42.0914 34.4611 54.1517 34.4611C82.3844 34.4611 105.272 57.349 105.272 85.5817C105.272 100.057 99.2559 113.129 89.5828 122.43C101.307 113.06 108.814 98.6447 108.814 82.4677C108.814 54.235 85.9261 31.3472 57.6935 31.3472C43.9359 31.3472 31.4478 36.7794 22.2577 45.6199L22.2623 45.6245Z" fill="#EC239B" fill-opacity="0.2"/>
<path fill-rule="evenodd" clip-rule="evenodd" d="M63.2544 127.549C36.9076 127.549 15.5514 106.193 15.5514 79.846C15.5514 60.5044 27.0644 43.8491 43.6139 36.3608C23.863 42.3864 9.49828 60.7482 9.49828 82.4724C9.49828 109.091 31.0799 130.672 57.6981 130.672C67.5413 130.672 76.69 127.724 84.3209 122.66C77.9687 125.792 70.8209 127.549 63.259 127.549H63.2544Z" fill="#EC239B" fill-opacity="0.2"/>
<path fill-rule="evenodd" clip-rule="evenodd" d="M45.44 39.5989C44.0049 40.2567 41.4245 43.2787 41.2543 44.8472C40.8541 48.5499 41.6039 53.6325 44.612 56.1669C51.4839 61.9533 62.0677 62.335 68.8108 68.0478C78.5805 76.3226 73.1805 93.8887 75.4665 105.871C76.6072 111.86 81.883 120.562 88.7181 115.7C101.34 106.722 105.185 82.5275 98.4234 67.3027C87.6694 43.1039 57.7026 33.9782 45.44 39.5989Z" fill="url(#paint2_radial_71_11188)" fill-opacity="0.34902"/>
<path fill-rule="evenodd" clip-rule="evenodd" d="M92.959 65.1592C95.406 65.2834 98.1934 68.2547 99.1869 71.7965C100.18 75.3382 99.0029 78.1072 96.5605 77.983C94.1135 77.8588 91.3261 74.8874 90.3326 71.3457C89.3391 67.804 90.5166 65.035 92.959 65.1592Z" fill="url(#paint3_radial_71_11188)" fill-opacity="0.2"/>
<path d="M78.9301 16.0395C79.9182 16.0395 80.7193 15.2384 80.7193 14.2502C80.7193 13.262 79.9182 12.4609 78.9301 12.4609C77.9419 12.4609 77.1408 13.262 77.1408 14.2502C77.1408 15.2384 77.9419 16.0395 78.9301 16.0395Z" fill="#232851"/>
<path d="M91.2847 32.9754C91.7979 32.9754 92.2138 32.5595 92.2138 32.0463C92.2138 31.5332 91.7979 31.1172 91.2847 31.1172C90.7716 31.1172 90.3556 31.5332 90.3556 32.0463C90.3556 32.5595 90.7716 32.9754 91.2847 32.9754Z" fill="#232851"/>
<path d="M106.165 40.3533C107.153 40.3533 107.954 39.5522 107.954 38.564C107.954 37.5759 107.153 36.7748 106.165 36.7748C105.176 36.7748 104.375 37.5759 104.375 38.564C104.375 39.5522 105.176 40.3533 106.165 40.3533Z" fill="#232851"/>
<path d="M31.48 29.3509C32.11 29.3509 32.6207 28.8402 32.6207 28.2102C32.6207 27.5802 32.11 27.0695 31.48 27.0695C30.85 27.0695 30.3393 27.5802 30.3393 28.2102C30.3393 28.8402 30.85 29.3509 31.48 29.3509Z" fill="#2C1538"/>
<path d="M19.6267 35.2752C19.9544 35.2752 20.2201 35.0096 20.2201 34.6819C20.2201 34.3542 19.9544 34.0885 19.6267 34.0885C19.299 34.0885 19.0334 34.3542 19.0334 34.6819C19.0334 35.0096 19.299 35.2752 19.6267 35.2752Z" fill="#2C1538"/>
<path d="M9.54428 35.3121C10.1184 35.3121 10.5838 34.8467 10.5838 34.2726C10.5838 33.6984 10.1184 33.233 9.54428 33.233C8.97017 33.233 8.50476 33.6984 8.50476 34.2726C8.50476 34.8467 8.97017 35.3121 9.54428 35.3121Z" fill="#2C1538"/>
<path fill-rule="evenodd" clip-rule="evenodd" d="M20.3489 41.0018C21.6552 41.0018 22.7177 42.0644 22.7177 43.3707C22.7177 44.677 21.6552 45.7395 20.3489 45.7395C19.0426 45.7395 17.98 44.677 17.98 43.3707C17.98 42.0644 19.0426 41.0018 20.3489 41.0018Z" fill="#431D53" fill-opacity="0.501961"/>
<path fill-rule="evenodd" clip-rule="evenodd" d="M27.2207 43.2557C28.4213 43.2557 29.3918 42.2852 29.3918 41.0847C29.3918 40.8777 29.562 40.7029 29.7736 40.7029C29.9805 40.7029 30.1553 40.8731 30.1553 41.0847C30.1553 42.2852 31.1305 43.2557 32.3264 43.2557C32.5333 43.2557 32.7081 43.4259 32.7081 43.6375C32.7081 43.8444 32.5379 44.0192 32.3264 44.0192C31.1259 44.0192 30.1553 44.9944 30.1553 46.1903C30.1553 46.3973 29.9851 46.572 29.7736 46.572C29.5666 46.572 29.3918 46.4019 29.3918 46.1903C29.3918 44.9898 28.4213 44.0192 27.2207 44.0192C27.0138 44.0192 26.839 43.849 26.839 43.6375C26.839 43.4305 27.0092 43.2557 27.2207 43.2557ZM93.2442 112.936C94.6517 112.936 95.7878 111.795 95.7878 110.392C95.7878 110.148 95.9902 109.946 96.2339 109.946C96.4777 109.946 96.6801 110.148 96.6801 110.392C96.6801 111.795 97.8208 112.936 99.2237 112.936C99.4675 112.936 99.6699 113.134 99.6699 113.382C99.6699 113.626 99.4675 113.828 99.2237 113.828C97.8162 113.828 96.6801 114.969 96.6801 116.372C96.6801 116.616 96.4823 116.818 96.2339 116.818C95.9902 116.818 95.7878 116.616 95.7878 116.372C95.7878 114.964 94.6471 113.828 93.2442 113.828C93.0004 113.828 92.798 113.626 92.798 113.382C92.798 113.138 93.0004 112.936 93.2442 112.936ZM29.6034 111.142C30.7165 111.142 31.618 110.24 31.618 109.127C31.618 108.934 31.7744 108.773 31.9722 108.773C32.1654 108.773 32.3264 108.93 32.3264 109.127C32.3264 110.24 33.2279 111.142 34.341 111.142C34.5342 111.142 34.6952 111.298 34.6952 111.496C34.6952 111.689 34.5388 111.85 34.341 111.85C33.2279 111.85 32.3264 112.752 32.3264 113.865C32.3264 114.058 32.17 114.219 31.9722 114.219C31.779 114.219 31.618 114.063 31.618 113.865C31.618 112.752 30.7165 111.85 29.6034 111.85C29.4102 111.85 29.2492 111.694 29.2492 111.496C29.2492 111.303 29.4056 111.142 29.6034 111.142ZM64.5883 51.6547C65.0713 51.6547 65.4623 52.0456 65.4623 52.5286C65.4623 53.0116 65.0713 53.4025 64.5883 53.4025C64.1054 53.4025 63.7144 53.0116 63.7144 52.5286C63.7144 52.0456 64.1054 51.6547 64.5883 51.6547ZM29.286 86.4602C30.5923 86.4602 31.6548 87.5228 31.6548 88.8291C31.6548 90.1354 30.5923 91.1979 29.286 91.1979C27.9797 91.1979 26.9172 90.1354 26.9172 88.8291C26.9172 87.5228 27.9797 86.4602 29.286 86.4602ZM30.5555 74.7587C31.0569 74.7587 31.4662 74.3493 31.4662 73.848C31.4662 73.7606 31.5398 73.687 31.6272 73.687C31.7146 73.687 31.7882 73.7606 31.7882 73.848C31.7882 74.354 32.1976 74.7587 32.6989 74.7587C32.7863 74.7587 32.8599 74.8323 32.8599 74.9197C32.8599 75.0071 32.7863 75.0807 32.6989 75.0807C32.1976 75.0807 31.7882 75.4901 31.7882 75.9914C31.7882 76.0788 31.7146 76.1524 31.6272 76.1524C31.5398 76.1524 31.4662 76.0788 31.4662 75.9914C31.4662 75.4855 31.0569 75.0807 30.5555 75.0807C30.4681 75.0807 30.3945 75.0071 30.3945 74.9197C30.3945 74.8323 30.4681 74.7587 30.5555 74.7587ZM31.1626 58.6415C31.7744 58.6415 32.2712 58.1448 32.2712 57.533C32.2712 57.4272 32.3586 57.3398 32.4644 57.3398C32.5701 57.3398 32.6575 57.4272 32.6575 57.533C32.6575 58.1448 33.1543 58.6415 33.7661 58.6415C33.8718 58.6415 33.9592 58.7289 33.9592 58.8347C33.9592 58.9405 33.8718 59.0279 33.7661 59.0279C33.1543 59.0279 32.6575 59.5247 32.6575 60.1364C32.6575 60.2422 32.5701 60.3296 32.4644 60.3296C32.3586 60.3296 32.2712 60.2422 32.2712 60.1364C32.2712 59.5247 31.7744 59.0279 31.1626 59.0279C31.0569 59.0279 30.9695 58.9405 30.9695 58.8347C30.9695 58.7289 31.0569 58.6415 31.1626 58.6415Z" fill="white" fill-opacity="0.25098"/>
<path fill-rule="evenodd" clip-rule="evenodd" d="M92.752 40.344C93.6581 40.344 94.3895 39.6127 94.3895 38.7066C94.3895 38.5502 94.5183 38.4214 94.6747 38.4214C94.8311 38.4214 94.9598 38.5502 94.9598 38.7066C94.9598 39.6127 95.6912 40.344 96.5973 40.344C96.7537 40.344 96.8825 40.4728 96.8825 40.6292C96.8825 40.7856 96.7537 40.9144 96.5973 40.9144C95.6912 40.9144 94.9598 41.6457 94.9598 42.5519C94.9598 42.7083 94.8311 42.8371 94.6747 42.8371C94.5183 42.8371 94.3895 42.7083 94.3895 42.5519C94.3895 41.6457 93.6581 40.9144 92.752 40.9144C92.5956 40.9144 92.4668 40.7856 92.4668 40.6292C92.4668 40.4728 92.5956 40.344 92.752 40.344Z" fill="#292E6B"/>
<path fill-rule="evenodd" clip-rule="evenodd" d="M87.6326 19.1075C89.2241 19.1075 90.512 17.8196 90.512 16.2281C90.512 15.9521 90.7374 15.7222 91.0179 15.7222C91.2939 15.7222 91.5193 15.9476 91.5193 16.2281C91.5193 17.8196 92.8072 19.1075 94.3987 19.1075C94.6747 19.1075 94.9047 19.3329 94.9047 19.6135C94.9047 19.8895 94.6793 20.1148 94.3987 20.1148C92.8072 20.1148 91.5193 21.4027 91.5193 22.9942C91.5193 23.2702 91.2939 23.5002 91.0179 23.5002C90.742 23.5002 90.512 23.2748 90.512 22.9942C90.512 21.4027 89.2241 20.1148 87.6326 20.1148C87.3566 20.1148 87.1312 19.8895 87.1312 19.6135C87.1312 19.3375 87.3566 19.1075 87.6326 19.1075Z" fill="#3A3E61"/>
<path fill-rule="evenodd" clip-rule="evenodd" d="M124.871 11.863C128.059 11.863 130.644 9.27798 130.644 6.09042C130.644 5.53386 131.099 5.07849 131.656 5.07849C132.212 5.07849 132.668 5.53386 132.668 6.09042C132.668 9.27798 135.253 11.863 138.44 11.863C138.997 11.863 139.452 12.3183 139.452 12.8749C139.452 13.4315 138.997 13.8868 138.44 13.8868C135.253 13.8868 132.668 16.4718 132.668 19.6594C132.668 20.216 132.212 20.6713 131.656 20.6713C131.099 20.6713 130.644 20.216 130.644 19.6594C130.644 16.4718 128.059 13.8868 124.871 13.8868C124.315 13.8868 123.859 13.4315 123.859 12.8749C123.859 12.3183 124.315 11.863 124.871 11.863Z" fill="#3A3E61"/>
<path fill-rule="evenodd" clip-rule="evenodd" d="M38.1357 22.0834C39.0051 21.8028 39.4834 20.8737 39.2074 20.0044C39.1568 19.8526 39.2442 19.687 39.396 19.641C39.5478 19.5904 39.7134 19.6778 39.7594 19.8296C40.04 20.6989 40.9691 21.1773 41.8384 20.9013C41.9902 20.8507 42.1558 20.9381 42.2018 21.0899C42.2524 21.2417 42.165 21.4073 42.0132 21.4533C41.1439 21.7338 40.6655 22.663 40.9415 23.5323C40.9921 23.6841 40.9047 23.8497 40.7529 23.8957C40.6011 23.9463 40.4355 23.8589 40.3896 23.7071C40.109 22.8378 39.1798 22.3594 38.3105 22.6354C38.1587 22.686 37.9931 22.5986 37.9471 22.4468C37.8965 22.295 37.9839 22.1294 38.1357 22.0834Z" fill="#2C1538"/>
<path fill-rule="evenodd" clip-rule="evenodd" d="M80.6135 3.16968C81.9428 3.01329 82.895 1.80818 82.7386 0.478882C82.711 0.2489 82.8766 0.0373156 83.1111 0.00971768C83.3411 -0.0178802 83.5527 0.147707 83.5803 0.38229C83.7367 1.71159 84.9418 2.66372 86.2711 2.50733C86.5011 2.47973 86.7127 2.64532 86.7403 2.8799C86.7679 3.10988 86.6023 3.32147 86.3677 3.34907C85.0384 3.50545 84.0863 4.71056 84.2427 6.03986C84.2702 6.26985 84.1047 6.48143 83.8701 6.50903C83.6401 6.53663 83.4285 6.37104 83.4009 6.13646C83.2445 4.80716 82.0394 3.85503 80.7055 4.01142C80.4755 4.03901 80.264 3.87343 80.2364 3.63884C80.2088 3.40886 80.3743 3.19728 80.6089 3.16968H80.6135Z" fill="#3A3E61"/>
<path fill-rule="evenodd" clip-rule="evenodd" d="M40.1412 137.047C40.7897 137.42 41.6177 137.199 41.9948 136.55C42.0592 136.435 42.2064 136.399 42.3168 136.463C42.4318 136.527 42.4686 136.675 42.4042 136.785C42.0316 137.434 42.2524 138.262 42.901 138.639C43.016 138.703 43.0528 138.85 42.9884 138.961C42.924 139.076 42.7768 139.112 42.6664 139.048C42.0178 138.675 41.1899 138.896 40.8127 139.545C40.7483 139.66 40.6011 139.697 40.4907 139.632C40.3758 139.568 40.339 139.421 40.4034 139.31C40.7759 138.662 40.5551 137.834 39.9066 137.457C39.7916 137.392 39.7548 137.245 39.8192 137.135C39.8836 137.02 40.0308 136.983 40.1412 137.047Z" fill="#462262"/>
<path d="M64.9195 145.52C65.7832 145.52 66.4834 144.82 66.4834 143.956C66.4834 143.092 65.7832 142.392 64.9195 142.392C64.0558 142.392 63.3556 143.092 63.3556 143.956C63.3556 144.82 64.0558 145.52 64.9195 145.52Z" fill="#4E236C"/>
<path d="M78.8703 145.313C79.264 145.313 79.5832 144.994 79.5832 144.6C79.5832 144.206 79.264 143.887 78.8703 143.887C78.4765 143.887 78.1573 144.206 78.1573 144.6C78.1573 144.994 78.4765 145.313 78.8703 145.313Z" fill="#4E236C"/>
<path d="M95.1668 137.351C96.089 137.351 96.8365 136.603 96.8365 135.681C96.8365 134.759 96.089 134.011 95.1668 134.011C94.2447 134.011 93.4972 134.759 93.4972 135.681C93.4972 136.603 94.2447 137.351 95.1668 137.351Z" fill="#4E236C"/>
<path d="M79.9926 160.004C81.6158 160.004 82.9318 158.688 82.9318 157.065C82.9318 155.442 81.6158 154.126 79.9926 154.126C78.3693 154.126 77.0534 155.442 77.0534 157.065C77.0534 158.688 78.3693 160.004 79.9926 160.004Z" fill="#4E236C"/>
</g>
<defs>
<radialGradient id="paint0_radial_71_11188" cx="0" cy="0" r="1" gradientUnits="userSpaceOnUse" gradientTransform="translate(57.6981 82.4723) scale(56.8885 56.8885)">
<stop stop-color="#EE249C"/>
<stop offset="0.890196" stop-color="#852172"/>
<stop offset="1" stop-color="#1C1E48"/>
</radialGradient>
<linearGradient id="paint1_linear_71_11188" x1="11.2921" y1="103.916" x2="104.109" y2="61.0288" gradientUnits="userSpaceOnUse">
<stop stop-color="#783CA1"/>
<stop offset="1" stop-color="#EE229B"/>
</linearGradient>
<radialGradient id="paint2_radial_71_11188" cx="0" cy="0" r="1" gradientUnits="userSpaceOnUse" gradientTransform="translate(71.2379 77.5598) scale(30.2811 39.5616)">
<stop stop-color="#EE249C"/>
<stop offset="1" stop-color="#FFE500"/>
</radialGradient>
<radialGradient id="paint3_radial_71_11188" cx="0" cy="0" r="1" gradientUnits="userSpaceOnUse" gradientTransform="translate(94.6721 71.6183) rotate(2.89882) scale(4.43411 6.31329)">
<stop stop-color="#FCC15B"/>
<stop offset="1" stop-color="white"/>
</radialGradient>
<clipPath id="clip0_71_11188">
<rect width="139.448" height="160" fill="white"/>
</clipPath>
</defs>
</svg>
