<svg width="217" height="249" viewBox="0 0 217 249" fill="none" xmlns="http://www.w3.org/2000/svg">
<g clip-path="url(#clip0_71_11608)">
<path d="M122.823 24.9538C124.36 24.9538 125.606 23.7079 125.606 22.171C125.606 20.6341 124.36 19.3882 122.823 19.3882C121.286 19.3882 120.04 20.6341 120.04 22.171C120.04 23.7079 121.286 24.9538 122.823 24.9538Z" fill="#232851"/>
<path d="M142.05 51.3168C142.849 51.3168 143.497 50.6687 143.497 49.8691C143.497 49.0696 142.849 48.4214 142.05 48.4214C141.25 48.4214 140.602 49.0696 140.602 49.8691C140.602 50.6687 141.25 51.3168 142.05 51.3168Z" fill="#232851"/>
<path d="M165.207 62.7924C166.744 62.7924 167.99 61.5465 167.99 60.0096C167.99 58.4727 166.744 57.2268 165.207 57.2268C163.67 57.2268 162.424 58.4727 162.424 60.0096C162.424 61.5465 163.67 62.7924 165.207 62.7924Z" fill="#232851"/>
<path fill-rule="evenodd" clip-rule="evenodd" d="M144.333 62.7838C145.74 62.7838 146.88 61.6444 146.88 60.237C146.88 59.9926 147.079 59.7927 147.324 59.7927C147.568 59.7927 147.77 59.9926 147.77 60.237C147.77 61.6444 148.91 62.7838 150.317 62.7838C150.562 62.7838 150.762 62.9837 150.762 63.2303C150.762 63.4748 150.562 63.6746 150.317 63.6746C148.91 63.6746 147.77 64.8162 147.77 66.2214C147.77 66.4659 147.571 66.6657 147.324 66.6657C147.079 66.6657 146.88 66.4659 146.88 66.2214C146.88 64.8141 145.74 63.6746 144.333 63.6746C144.088 63.6746 143.889 63.4748 143.889 63.2303C143.889 62.9858 144.088 62.7838 144.333 62.7838Z" fill="#292E6B"/>
<path fill-rule="evenodd" clip-rule="evenodd" d="M136.369 29.7327C138.846 29.7327 140.853 27.7258 140.853 25.2492C140.853 24.8176 141.206 24.4647 141.637 24.4647C142.069 24.4647 142.422 24.8176 142.422 25.2492C142.422 27.7258 144.429 29.7327 146.905 29.7327C147.337 29.7327 147.69 30.0856 147.69 30.5171C147.69 30.9487 147.337 31.3016 146.905 31.3016C144.429 31.3016 142.422 33.3084 142.422 35.7851C142.422 36.2166 142.069 36.5695 141.637 36.5695C141.206 36.5695 140.853 36.2166 140.853 35.7851C140.853 33.3084 138.846 31.3016 136.369 31.3016C135.938 31.3016 135.585 30.9487 135.585 30.5171C135.585 30.0856 135.938 29.7327 136.369 29.7327Z" fill="#3A3E61"/>
<path fill-rule="evenodd" clip-rule="evenodd" d="M194.317 18.4549C199.279 18.4549 203.301 14.4327 203.301 9.47093C203.301 8.6057 204.006 7.8999 204.872 7.8999C205.737 7.8999 206.443 8.6057 206.443 9.47093C206.443 14.4327 210.465 18.4549 215.427 18.4549C216.292 18.4549 216.998 19.1607 216.998 20.026C216.998 20.8912 216.292 21.597 215.427 21.597C210.465 21.597 206.443 25.6192 206.443 30.581C206.443 31.4462 205.737 32.152 204.872 32.152C204.006 32.152 203.301 31.4462 203.301 30.581C203.301 25.6192 199.279 21.597 194.317 21.597C193.451 21.597 192.746 20.8912 192.746 20.026C192.746 19.1607 193.451 18.4549 194.317 18.4549Z" fill="#3A3E61"/>
<path fill-rule="evenodd" clip-rule="evenodd" d="M125.444 4.92787C127.515 4.68339 128.997 2.80836 128.754 0.73775C128.712 0.376349 128.971 0.0468372 129.333 0.00431952C129.694 -0.0381982 130.024 0.22116 130.066 0.58256C130.311 2.65317 132.186 4.13491 134.256 3.89256C134.618 3.85005 134.947 4.1094 134.99 4.4708C135.032 4.8322 134.773 5.16172 134.411 5.20423C132.341 5.44871 130.859 7.32374 131.101 9.39435C131.144 9.75575 130.885 10.0853 130.523 10.1278C130.162 10.1703 129.832 9.91094 129.79 9.54954C129.545 7.47893 127.67 5.99719 125.6 6.23954C125.238 6.28206 124.909 6.0227 124.866 5.6613C124.824 5.2999 125.083 4.97039 125.444 4.92787Z" fill="#3A3E61"/>
<path d="M89.9442 218.103C139.619 218.103 179.888 177.834 179.888 128.159C179.888 78.4843 139.619 38.215 89.9442 38.215C40.2695 38.215 0.000152588 78.4843 0.000152588 128.159C0.000152588 177.834 40.2695 218.103 89.9442 218.103Z" fill="url(#paint0_radial_71_11608)"/>
<path d="M89.9442 207.85C133.956 207.85 169.635 172.171 169.635 128.159C169.635 84.147 133.956 48.4681 89.9442 48.4681C45.9321 48.4681 10.2533 84.147 10.2533 128.159C10.2533 172.171 45.9321 207.85 89.9442 207.85Z" fill="url(#paint1_linear_71_11608)"/>
<path d="M28.4891 178.912L28.3786 178.375L40.5004 184.497L59.5993 194.144L105.197 217.18L86.5959 207.784C87.7035 207.829 88.8154 207.852 89.9336 207.852C99.9805 207.852 109.594 205.992 118.446 202.599C125.98 199.712 132.964 195.713 139.197 190.805C139.588 190.496 139.977 190.184 140.364 189.869C141.172 189.208 141.967 188.532 142.749 187.839C143.54 187.137 144.318 186.421 145.081 185.69C145.06 185.768 145.039 185.847 145.015 185.926C145.039 185.847 145.062 185.768 145.081 185.69C147.768 183.113 150.277 180.35 152.583 177.418C154.042 175.566 155.419 173.649 156.71 171.672L190.197 90.178C193.57 81.0154 190.486 70.892 182.975 65.1138C181.989 64.3506 180.93 63.6682 179.797 63.0708L101.245 21.648L100.969 21.5034C94.0174 17.8384 85.4267 21.1314 82.7098 28.5061L79.4105 37.4582L78.6536 39.5182L82.6078 37.0989L83.8557 36.3357L88.5071 33.4891C92.9098 30.7957 98.4074 30.6426 102.95 33.0852L172.097 70.2287H172.101C178.16 73.4834 178.322 82.1103 172.397 85.5946L171.008 86.4088C166.627 88.979 161.3 89.2554 156.701 87.2039C156.393 87.0678 156.089 86.919 155.789 86.7596L76.6298 45.0114L72.8946 43.045L71.0026 42.048L67.599 40.2516C60.6453 36.5866 52.0567 39.8838 49.3419 47.2543L38.8571 75.7071L25.6383 111.588L9.32428 155.861L12.5259 147.175C12.7533 148.102 12.9957 149.022 13.255 149.934C13.71 151.544 14.2159 153.13 14.7687 154.696C17.7917 163.26 22.2369 171.153 27.8216 178.092C28.0427 178.366 28.2659 178.64 28.4913 178.912H28.4891Z" fill="#1AA3FF"/>
<path d="M81.8191 35.6639L84.249 29.0694C85.3799 25.9975 87.7822 23.5655 90.8413 22.3941C92.1551 21.8903 93.5348 21.6394 94.9103 21.6394C95.1867 21.6394 95.4651 21.65 95.7394 21.6713C91.5875 22.5875 87.9374 25.5191 86.3366 29.8708L84.8187 33.8292L81.8191 35.666V35.6639Z" fill="#98D6FF"/>
<path d="M167.29 90.7435C165.93 90.7435 164.569 90.567 163.245 90.2099C163.606 90.2077 163.965 90.1929 164.329 90.1652C166.927 89.976 169.495 89.1916 171.838 87.8161L173.228 87.0019C176.47 85.0971 178.39 81.7403 178.383 77.9924C178.383 77.9265 178.383 77.8585 178.383 77.7926C178.347 76.0111 177.884 74.3295 177.059 72.8584C182.371 76.3937 182.28 84.4423 176.608 87.7757L175.218 88.5899C172.773 90.0249 170.035 90.7456 167.292 90.7456L167.29 90.7435Z" fill="#98D6FF"/>
<path d="M10.8613 156.427L18.1913 136.533L19.3542 142.245L13.5335 158.045L14.7665 154.696C14.2138 153.132 13.71 151.544 13.2529 149.934L10.8613 156.427ZM42.7963 78.6196C42.0714 77.7926 41.2338 77.0762 40.3133 76.4915L50.8768 47.8197C52.0078 44.7478 54.41 42.3158 57.4649 41.1445C58.7787 40.6406 60.1584 40.3898 61.536 40.3898C62.7286 40.3898 63.9191 40.579 65.0629 40.9489C60.0734 41.2167 55.4177 44.3609 53.5469 49.4354L42.7942 78.6196H42.7963Z" fill="#98D6FF"/>
<path d="M101.141 198.283C100.41 198.283 99.6659 198.12 98.9601 197.771L64.9906 180.981C65.0118 180.462 64.9693 179.946 64.8673 179.435L48.0069 96.7235C48.7467 95.9348 49.1145 94.8124 48.8806 93.6431L48.5213 91.8765C48.3917 91.2388 48.094 90.6711 47.6752 90.2162L59.4909 58.3598C60.2371 56.3509 62.1312 55.1412 64.1189 55.1412C64.8821 55.1412 65.6581 55.3198 66.3894 55.7003L138.871 93.3965C141.078 94.5445 142.084 97.1551 141.221 99.4872L105.767 195.067C105.023 197.072 103.129 198.286 101.141 198.286V198.283Z" fill="#5FBFFF"/>
<path d="M72.8967 43.0428L76.6319 45.0113L155.791 86.7574C160.583 89.2829 166.338 89.1511 171.013 86.4066L172.401 85.5945C178.328 82.1123 178.164 73.4833 172.108 70.2307L102.955 33.0873C98.4116 30.6425 92.9141 30.7977 88.5114 33.4891L78.6579 39.5181L72.8989 43.0428H72.8967Z" fill="white"/>
<path d="M118.446 202.599L154.743 102.842C155.655 100.327 157.987 98.6262 160.655 98.4752C182.86 97.2146 190.854 84.2318 187.527 73.0156C190.156 77.9902 190.724 83.9958 188.672 89.5848L142.93 200.907L152.581 177.418C150.275 180.347 147.766 183.111 145.079 185.69L145.066 185.736V185.732L145.068 185.728V185.724L145.071 185.719L145.073 185.715V185.711L145.075 185.707V185.702V185.698L145.077 185.694L145.079 185.69V185.685L145.081 185.681C145.706 183.345 145.236 181.208 143.823 180.577C143.548 180.454 143.257 180.396 142.953 180.396C141.386 180.396 139.533 181.959 138.472 184.327C137.215 187.131 137.543 190.012 139.197 190.796C132.964 195.705 125.98 199.701 118.446 202.59V202.599ZM145.022 185.896L145.024 185.892L145.026 185.887V185.883L145.028 185.881L145.024 185.896H145.022ZM145.024 185.892L145.026 185.887V185.883L145.024 185.892ZM145.037 185.853L145.039 185.849L145.064 185.76V185.756L145.062 185.76L145.037 185.851V185.853ZM145.064 185.756V185.751L145.062 185.756H145.064ZM145.066 185.741V185.736L145.064 185.741H145.066ZM168.315 120.238C166.748 120.238 164.897 121.8 163.834 124.169C162.567 126.996 162.909 129.9 164.599 130.657C164.871 130.78 165.167 130.838 165.468 130.838C167.035 130.838 168.889 129.275 169.95 126.907C171.217 124.079 170.875 121.175 169.184 120.419C168.912 120.295 168.619 120.238 168.317 120.238H168.315Z" fill="#1272D4"/>
<path d="M165.466 130.838C165.164 130.838 164.871 130.78 164.597 130.657C162.907 129.902 162.564 126.996 163.831 124.169C164.892 121.8 166.746 120.238 168.313 120.238C168.617 120.238 168.908 120.295 169.182 120.419C170.87 121.175 171.215 124.079 169.948 126.907C168.889 129.275 167.033 130.838 165.466 130.838Z" fill="#6A95D4"/>
<path d="M139.197 190.805C137.543 190.02 137.215 187.14 138.472 184.336C139.533 181.967 141.386 180.405 142.953 180.405C143.257 180.405 143.548 180.464 143.823 180.585C145.234 181.219 145.704 183.353 145.081 185.69C144.318 186.421 143.54 187.137 142.749 187.839C142.649 187.975 142.547 188.107 142.443 188.232C142.547 188.107 142.649 187.975 142.749 187.841C141.969 188.532 141.174 189.21 140.366 189.871C139.981 190.186 139.592 190.498 139.201 190.807L139.197 190.805ZM142.441 188.232C142.407 188.275 142.371 188.315 142.337 188.356C142.373 188.315 142.407 188.275 142.441 188.232Z" fill="#6A95D4"/>
<path d="M162.947 123.284C161.68 126.112 162.022 129.016 163.712 129.773C165.4 130.529 167.796 128.85 169.061 126.022C170.328 123.195 169.986 120.291 168.298 119.534C166.606 118.777 164.214 120.457 162.947 123.284Z" fill="#000072"/>
<path d="M137.587 183.449C136.32 186.276 136.665 189.18 138.353 189.937C138.961 190.209 139.66 190.167 140.364 189.867C141.172 189.206 141.967 188.53 142.747 187.837C143.106 187.348 143.429 186.793 143.701 186.185C144.966 183.358 144.624 180.454 142.936 179.695C141.248 178.94 138.852 180.617 137.587 183.445V183.449Z" fill="#000072"/>
<path d="M129.509 61.5933C129.248 61.5933 128.984 61.5316 128.748 61.4062L104.9 48.8656C104.173 48.4808 103.843 47.6199 104.126 46.8503L115.599 15.6997C116.048 14.4858 117.126 13.6546 118.414 13.5292C119.702 13.4059 120.92 14.0139 121.592 15.1214L127.783 25.3087L139.352 24.0055C140.511 23.8737 141.635 24.3457 142.356 25.264C143.076 26.1846 143.266 27.3857 142.862 28.4805L131.046 60.5261C130.882 60.9683 130.538 61.3169 130.098 61.487C129.909 61.5593 129.709 61.5954 129.511 61.5954L129.509 61.5933Z" fill="#FF4229"/>
<path d="M109.996 46.6058C109.32 46.4315 108.633 46.221 107.938 45.968L118.669 16.8285C118.68 16.8009 118.684 16.7881 118.729 16.7817C118.733 16.7817 118.737 16.7817 118.739 16.7817C118.775 16.7817 118.782 16.7945 118.795 16.8158L120.128 19.0097L109.996 46.6037V46.6058Z" fill="#FFAA9E"/>
<path d="M98.1629 43.0428C100.435 42.8685 102.181 43.6912 103.916 44.5331C105.657 45.3579 107.372 46.2359 109.073 47.1416C112.459 48.9783 115.784 50.9278 119.192 52.7263L124.296 55.4368C126.001 56.3317 127.687 57.265 129.42 58.109C131.163 58.936 132.866 59.8437 134.437 60.9874C136.014 62.1205 137.539 63.3514 138.882 64.8969C138.973 65.0011 138.963 65.1606 138.857 65.252C138.799 65.303 138.721 65.3221 138.65 65.3094C136.629 64.982 134.788 64.3421 132.998 63.6044C132.103 63.2388 131.233 62.82 130.393 62.3586C129.547 61.8994 128.739 61.3743 127.9 60.9045C126.231 59.9415 124.515 59.0678 122.819 58.1579L117.719 55.4516C114.324 53.634 110.846 51.9758 107.432 50.1986C105.731 49.2972 104.045 48.3703 102.387 47.3903C100.72 46.423 99.0642 45.4408 97.9354 43.4595C97.8589 43.3235 97.9056 43.1534 98.0417 43.0769C98.08 43.0577 98.1204 43.045 98.1586 43.0407L98.1629 43.0428Z" fill="#B2B2D4"/>
<path d="M60.252 192.641L54.5163 189.744L53.8339 191.232L52.4032 190.509L54.1507 186.697C54.1549 186.663 54.1571 186.627 54.1592 186.593C54.7332 185.279 54.8947 183.874 54.6226 182.524L54.5844 182.337L53.1111 175.109L54.9692 176.028L64.9884 180.981C64.9544 181.833 64.7567 182.684 64.3975 183.5C64.3932 183.538 64.3974 183.57 64.3932 183.602L60.4518 192.199L60.2477 192.641H60.252ZM38.4999 94.923V94.9208L38.4808 94.8358L38.4999 94.923ZM37.8622 92.0084L37.3987 93.2669C37.8345 93.7261 38.1492 94.3086 38.281 94.9655L38.6402 96.7342C38.8741 97.9013 38.502 99.0259 37.7644 99.8125L40.0157 110.861L41.102 107.929L47.6752 90.212C47.3521 89.8612 46.9609 89.5806 46.5209 89.385L45.4176 83.9173C45.003 81.8785 44.0761 80.0758 42.7963 78.6174L37.8643 92.0063L37.8622 92.0084Z" fill="#1272D4"/>
<path d="M36.6972 86.3067L40.3133 76.4915C41.2338 77.0782 42.0714 77.7925 42.7963 78.6195L37.8643 92.0083L37.4008 93.2668C37.0862 92.9352 36.7057 92.6652 36.2826 92.4802L35.6236 89.2213L36.6972 86.3067Z" fill="#6A95D4"/>
<path d="M59.6015 194.144L53.8361 191.232L54.5185 189.744L60.2541 192.641L59.7609 193.713L59.6015 194.142V194.144ZM36.0382 84.2467C35.9808 84.1085 35.9212 83.9725 35.8617 83.8385L34.9858 86.2132C35.0581 86.4746 35.1219 86.7404 35.1772 87.0104L35.6236 89.2192L36.6972 86.3067L40.3133 76.4915C39.8477 76.196 39.3609 75.9324 38.8549 75.707L35.8596 83.8385C35.9212 83.9725 35.9786 84.1085 36.036 84.2467H36.0382Z" fill="#1272D4"/>
<path d="M64.9906 180.981L54.9713 176.028L53.1133 175.109L40.0157 110.861L41.102 107.929L47.6752 90.2119C48.0919 90.6647 48.3917 91.2345 48.5214 91.8722L48.8806 93.6388C49.1145 94.8081 48.7446 95.9305 48.0069 96.7192L64.8673 179.431C64.9693 179.941 65.0097 180.46 64.9906 180.977V180.981Z" fill="#4285D4"/>
<path d="M128.62 57.6413L116.38 51.2042C114.141 49.969 111.922 48.6977 109.679 47.4711L109.996 46.6037C111.62 47.0183 113.187 47.2096 114.69 47.2096C128.04 47.2096 136.595 32.2859 138.831 27.8747L139.626 27.7854L128.618 57.6392L128.62 57.6413Z" fill="#B22E3F"/>
<path d="M109.679 47.4732C109.477 47.3627 109.275 47.2521 109.073 47.1437C108.635 46.912 108.199 46.6803 107.759 46.4507L107.938 45.9702C108.635 46.2232 109.32 46.4337 109.996 46.608L109.679 47.4732Z" fill="#B27791"/>
<path d="M129.507 58.1514C129.477 58.1366 129.45 58.1238 129.42 58.111C127.685 57.2671 125.999 56.3338 124.294 55.4388L119.19 52.7283C118.248 52.2287 117.311 51.7206 116.377 51.2062L128.618 57.6433L139.626 27.7895L141.622 27.5642L141.629 27.5493L129.505 58.1536L129.507 58.1514ZM107.759 46.4506C107.44 46.2869 107.119 46.1189 106.798 45.9552V45.5215C107.181 45.6831 107.559 45.8319 107.936 45.9701L107.757 46.4506H107.759Z" fill="#B22E3F"/>
<path d="M11.8881 97.4187C12.2006 97.0828 12.5833 96.8086 13.0212 96.613C16.3695 95.127 19.9558 93.9705 23.7314 93.2052C27.5091 92.442 31.2613 92.1104 34.9242 92.1784C35.4025 92.1848 35.8638 92.2911 36.2805 92.4803L35.1729 87.0125C33.9144 80.7858 27.8471 76.7615 21.6183 78.02L19.7709 78.3963C13.5442 79.6548 9.51987 85.7221 10.7784 91.951L11.886 97.4187H11.8881Z" fill="#FF4229"/>
<path d="M13.3231 96.2261L12.3856 91.6257C11.8626 89.0428 12.3771 86.4109 13.8333 84.2149C14.6773 82.9415 15.7827 81.9019 17.0646 81.1515C14.7134 83.7663 13.5867 87.4207 14.3371 91.1325L15.2109 95.4502C14.5752 95.6968 13.9438 95.954 13.3209 96.2261H13.3231Z" fill="#FFAA9E"/>
<path d="M30.1388 92.0827L29.3501 88.1944C28.521 84.0851 25.5937 80.9367 21.9117 79.6314L21.9435 79.625C22.6026 79.4911 23.2637 79.4252 23.9206 79.4252C25.8403 79.4252 27.7174 79.9864 29.3544 81.0727C31.5504 82.529 33.047 84.7548 33.57 87.3377L34.5075 91.9381C34.3375 91.936 34.1695 91.936 33.9994 91.936C32.7154 91.936 31.4271 91.9849 30.1367 92.0827H30.1388Z" fill="#B22E3F"/>
<path d="M49.4695 196.827L49.4737 196.814L54.1124 186.708C54.7289 185.36 54.9075 183.915 54.6269 182.524L37.7665 99.8145L36.2826 92.4802C35.8638 92.291 35.4046 92.1847 34.9263 92.1783C31.2634 92.1103 27.5112 92.4419 23.7335 93.2051C19.958 93.9705 16.3716 95.1269 13.0233 96.6129C12.5854 96.8085 12.2006 97.0849 11.8902 97.4186L13.3741 104.751L28.4913 178.912C29.2013 179.771 29.9305 180.617 30.6767 181.446C31.4803 182.339 32.303 183.213 33.1448 184.07C33.2405 184.165 33.334 184.263 33.4297 184.359C33.9314 184.863 34.4395 185.36 34.954 185.851C38.0875 188.838 41.4655 191.574 45.054 194.023C45.5898 194.389 46.1319 194.75 46.6782 195.103C47.1353 195.401 47.5966 195.692 48.0622 195.979C48.5277 196.268 48.9975 196.551 49.4716 196.831L49.4695 196.827Z" fill="#FFC306"/>
<path d="M30.6745 181.444L15.1598 105.25C15.5467 105.21 15.9273 105.108 16.2887 104.942C16.5098 104.842 16.733 104.742 16.9562 104.645L33.1448 184.068C32.303 183.213 31.4781 182.337 30.6767 181.444H30.6745Z" fill="#FFE48F"/>
<path d="M54.1549 186.697L50.2135 195.29L49.5184 196.806L49.5035 196.848C49.4929 196.842 49.4801 196.836 49.4695 196.829C48.9975 196.551 48.5277 196.266 48.06 195.977C47.5966 195.69 47.1353 195.399 46.6761 195.101C46.1297 194.748 45.5897 194.387 45.0519 194.021C41.4634 191.572 38.0875 188.836 34.9518 185.849C35.0092 185.855 35.0645 185.862 35.1219 185.872C36.1083 186.036 37.0798 185.494 37.5326 184.601C38.3405 183.005 39.8499 181.78 41.7419 181.395C43.6105 181.019 45.4494 181.54 46.8121 182.667C47.5519 183.277 48.6085 183.347 49.4355 182.864C51.3211 181.77 54.5227 182.567 54.1507 186.699L54.1549 186.697Z" fill="#FFC76C"/>
<path d="M48.2641 183.179C48.1855 183.179 48.1068 183.175 48.0281 183.168L31.3527 101.36L31.3187 101.19C32.2073 101.135 33.0981 101.105 33.9846 101.105C34.3778 101.105 34.769 101.111 35.158 101.122C35.1899 101.122 35.2218 101.124 35.2558 101.124C35.63 101.124 35.9978 101.067 36.3464 100.958L53.0219 182.852C53.041 182.943 53.0559 183.037 53.0686 183.128C52.5138 182.641 51.8101 182.42 51.1107 182.42C50.5218 182.42 49.9351 182.577 49.4397 182.864C49.0762 183.075 48.668 183.181 48.2641 183.181V183.179Z" fill="#B28827"/>
<path d="M45.054 194.021L47.6986 188.258C48.3172 186.912 48.4958 185.462 48.2131 184.072L48.0281 183.168C48.1068 183.177 48.1854 183.179 48.2641 183.179C48.6701 183.179 49.0783 183.075 49.4397 182.862C49.935 182.573 50.5218 182.418 51.1107 182.418C51.8101 182.418 52.5137 182.639 53.0686 183.126C53.2068 184.089 53.0537 185.086 52.6222 186.026L48.06 195.975C47.5966 195.688 47.1352 195.396 46.6761 195.099C46.1297 194.746 45.5897 194.385 45.0519 194.019L45.054 194.021Z" fill="#B28B6E"/>
<path d="M49.7161 196.972L50.2901 195.45C49.1442 195.171 47.9261 195.048 46.6782 195.101C47.1353 195.399 47.5966 195.69 48.0621 195.977C48.5277 196.266 48.9975 196.549 49.4716 196.829C49.4822 196.836 49.495 196.842 49.5056 196.848C49.5758 196.891 49.6481 196.931 49.7182 196.974L49.7161 196.972Z" fill="#000072"/>
<path d="M13.372 104.749C14.233 105.133 15.2491 105.17 16.1952 104.74C19.08 103.426 22.1816 102.408 25.4619 101.745C28.74 101.084 31.9947 100.812 35.1623 100.901C36.1997 100.931 37.1224 100.499 37.7644 99.8145C38.5021 99.0279 38.8762 97.9034 38.6402 96.7362L38.281 94.9675C38.0514 93.8365 37.2882 92.9267 36.2805 92.4802C35.8638 92.291 35.4025 92.1847 34.9242 92.1783C31.2613 92.1103 27.507 92.4419 23.7314 93.2051C19.9558 93.9705 16.3695 95.1269 13.0212 96.6129C12.5833 96.8085 12.1985 97.0828 11.8881 97.4186C11.1355 98.2201 10.7826 99.3553 11.0122 100.484L11.3715 102.255C11.6075 103.418 12.3877 104.309 13.372 104.749Z" fill="#CAD0D7"/>
<path d="M14.775 104.832C14.3307 104.832 13.8864 104.736 13.4634 104.549C12.4982 104.117 11.7967 103.244 11.5883 102.213L11.2291 100.442C11.0207 99.4106 11.329 98.3371 12.0496 97.5696C12.3451 97.2507 12.7044 96.9956 13.1126 96.8149C13.9672 96.4365 14.8346 96.0794 15.7147 95.7456C15.5616 95.8625 15.4171 95.9922 15.2852 96.1325C14.5327 96.934 14.1819 98.0692 14.4136 99.2023L14.7729 100.973C15.0089 102.136 15.787 103.027 16.7712 103.467C17.139 103.631 17.5323 103.73 17.9341 103.758C17.3176 104.005 16.7075 104.266 16.1058 104.54C15.6785 104.736 15.2278 104.832 14.7772 104.832H14.775Z" fill="#E7EAED"/>
<path d="M31.0487 100.765C31.357 100.533 31.6142 100.287 31.8076 100.082C32.6261 99.2087 32.9748 97.9863 32.7388 96.8107L32.3795 95.042C32.1584 93.9557 31.4611 93.0288 30.496 92.5164C31.6525 92.4357 32.8132 92.3953 33.9654 92.3953C34.2843 92.3953 34.6032 92.3974 34.9199 92.4059C35.3664 92.4123 35.7937 92.5058 36.1912 92.6886C37.1287 93.1011 37.8175 93.9365 38.0471 94.9336C38.0535 94.9612 38.0599 94.9888 38.0662 95.0165L38.0833 95.1036L38.4213 96.7852C38.451 96.9319 38.4702 97.0786 38.4808 97.2231C38.5276 97.9821 38.3086 98.7389 37.8622 99.3533C37.7835 99.4617 37.6963 99.5659 37.6028 99.6658C36.9948 100.314 36.1487 100.684 35.2665 100.684C35.2346 100.684 35.2006 100.684 35.1687 100.682C34.7775 100.671 34.3863 100.665 33.9931 100.665C33.2214 100.665 32.4475 100.686 31.6758 100.729C31.4675 100.739 31.2592 100.752 31.0508 100.767L31.0487 100.765Z" fill="#B29EA7"/>
<path d="M31.6758 100.727C32.4497 100.684 33.2235 100.663 33.9931 100.663C34.3863 100.663 34.7775 100.669 35.1687 100.68C35.2006 100.68 35.2346 100.682 35.2665 100.682H35.2643C35.2324 100.682 35.2006 100.682 35.1708 100.682C34.7796 100.671 34.3842 100.665 33.9909 100.665C33.2214 100.665 32.4475 100.686 31.6758 100.727ZM37.8643 99.349C38.3129 98.7346 38.5318 97.9778 38.4829 97.2188C38.5361 97.9841 38.3192 98.7282 37.8643 99.349ZM38.0854 95.0972L38.0684 95.01C38.062 94.9824 38.0577 94.9548 38.0492 94.9271C38.0556 94.9548 38.062 94.9845 38.0684 95.0122L38.0854 95.0972Z" fill="#250C60"/>
<path d="M30.0325 101.29C30.462 101.25 30.8893 101.218 31.3187 101.19C30.9254 101.216 30.5321 101.245 30.1388 101.281L30.0325 101.29Z" fill="#B28827"/>
<path d="M31.3187 101.19C32.2073 101.133 33.0938 101.105 33.9761 101.105C34.3693 101.105 34.7626 101.109 35.1559 101.122C35.1836 101.122 35.2133 101.122 35.2431 101.122C35.6194 101.122 35.9914 101.065 36.3464 100.954V100.956C35.9978 101.067 35.63 101.122 35.2558 101.122C35.2239 101.122 35.1899 101.12 35.158 101.12C34.7669 101.109 34.3757 101.103 33.9846 101.103C33.0981 101.103 32.2073 101.131 31.3187 101.188V101.19Z" fill="#7C5F3E"/>
<path d="M38.5042 94.9399L38.4999 94.9208C38.4936 94.8889 38.485 94.8549 38.4787 94.823C38.4872 94.8549 38.4936 94.8889 38.4999 94.9229L38.5021 94.9399H38.5042Z" fill="#0D50B6"/>
<path d="M22.2518 102.113C18.3487 98.7623 20.0026 94.6699 20.1705 94.2873C21.3589 93.9578 22.5622 93.6686 23.776 93.422C24.0418 93.3689 24.3075 93.3157 24.5733 93.2668C26.7246 96.5747 26.5376 101.009 26.5376 101.009L22.2518 102.113Z" fill="#E7EAED"/>
<path d="M28.5763 101.23C28.8186 101.232 29.0589 101.237 29.2991 101.245C29.7732 101.258 30.2196 101.177 30.6256 101.02C29.9454 101.073 29.2608 101.145 28.5763 101.232V101.23Z" fill="#F8BF71"/>
<path fill-rule="evenodd" clip-rule="evenodd" d="M157.955 87.697C162.248 89.1872 167.022 88.7472 171.013 86.4066L172.399 85.5924C178.326 82.1102 178.162 73.4812 172.103 70.2286L172.101 70.2265L163.13 65.4071C163.13 65.4092 163.132 65.4092 163.132 65.4114C163.434 66.1235 163.655 66.8655 163.793 67.6223C164.556 71.7486 162.89 76.2746 158.748 78.7109L157.082 79.6888C154.99 80.9154 152.719 81.7084 150.396 82.0634C149.456 82.2058 148.508 82.2781 147.558 82.2781C147.469 82.2781 147.379 82.2781 147.292 82.276L155.791 86.7595C156.091 86.9168 156.395 87.0656 156.703 87.2038C157.116 87.3888 157.535 87.5546 157.958 87.6991L157.955 87.697Z" fill="#B2B2D4"/>
<path fill-rule="evenodd" clip-rule="evenodd" d="M34.954 185.847C35.0114 185.853 35.0666 185.862 35.124 185.87C36.1104 186.034 37.082 185.492 37.5348 184.599C37.7516 184.17 38.0216 183.766 38.3341 183.4C39.1845 182.405 40.3622 181.674 41.744 181.393C43.6127 181.017 45.4516 181.538 46.8143 182.665C47.1672 182.956 47.5902 183.124 48.026 183.166L47.6285 181.221C45.8597 179.869 43.6127 179.348 41.4188 179.79C39.5714 180.165 37.96 181.181 36.8354 182.645C36.5462 183.022 36.2911 183.428 36.07 183.861C35.9319 184.134 35.6427 184.302 35.3876 184.257C34.7286 184.146 34.059 184.187 33.4254 184.355C33.9272 184.858 34.4352 185.356 34.9497 185.847H34.954ZM53.0601 183.064L53.0686 183.124C53.8106 183.772 54.2931 184.895 54.1613 186.591C54.7353 185.277 54.8969 183.872 54.6248 182.522L54.5865 182.335C54.2527 181.95 53.9041 181.678 53.6129 181.491C53.311 181.298 52.9878 181.145 52.6519 181.03C51.353 180.585 49.8585 180.722 48.617 181.442C48.3725 181.585 48.06 181.566 47.8581 181.398C47.7837 181.336 47.7071 181.276 47.6327 181.217L48.0303 183.164C48.1089 183.173 48.1876 183.177 48.2662 183.175C48.6723 183.175 49.0805 183.071 49.4419 182.858C49.9372 182.569 50.5239 182.414 51.1128 182.414C51.8122 182.414 52.5138 182.635 53.0707 183.124L53.0622 183.064H53.0601Z" fill="#916747"/>
<path fill-rule="evenodd" clip-rule="evenodd" d="M98.6072 198.428C57.5394 198.428 24.2459 165.135 24.2459 124.067C24.2459 93.9132 42.1926 67.9519 67.9902 56.2808C37.2053 65.6729 14.8091 94.3001 14.8091 128.159C14.8091 169.656 48.4491 203.294 89.9442 203.294C105.285 203.294 119.551 198.698 131.442 190.805C121.539 195.686 110.393 198.428 98.6072 198.428Z" fill="#EC239B" fill-opacity="0.2"/>
<path d="M48.9912 45.6705C49.9704 45.6705 50.7642 44.8767 50.7642 43.8975C50.7642 42.9183 49.9704 42.1245 48.9912 42.1245C48.012 42.1245 47.2182 42.9183 47.2182 43.8975C47.2182 44.8767 48.012 45.6705 48.9912 45.6705Z" fill="#2C1538"/>
<path d="M30.5449 54.8905C31.0532 54.8905 31.4654 54.4783 31.4654 53.9699C31.4654 53.4616 31.0532 53.0494 30.5449 53.0494C30.0365 53.0494 29.6244 53.4616 29.6244 53.9699C29.6244 54.4783 30.0365 54.8905 30.5449 54.8905Z" fill="#2C1538"/>
<path d="M14.8537 54.9478C15.7472 54.9478 16.4715 54.2234 16.4715 53.33C16.4715 52.4365 15.7472 51.7122 14.8537 51.7122C13.9602 51.7122 13.2359 52.4365 13.2359 53.33C13.2359 54.2234 13.9602 54.9478 14.8537 54.9478Z" fill="#2C1538"/>
<path d="M31.6652 71.1768C33.7011 71.1768 35.3515 69.5264 35.3515 67.4905C35.3515 65.4546 33.7011 63.8042 31.6652 63.8042C29.6293 63.8042 27.9789 65.4546 27.9789 67.4905C27.9789 69.5264 29.6293 71.1768 31.6652 71.1768Z" fill="#431D53"/>
<path fill-rule="evenodd" clip-rule="evenodd" d="M42.3606 67.3098C44.2271 67.3098 45.7407 65.7961 45.7407 63.9296C45.7407 63.6044 46.0065 63.3386 46.3317 63.3386C46.657 63.3386 46.9227 63.6044 46.9227 63.9296C46.9227 65.7961 48.4363 67.3098 50.3029 67.3098C50.6281 67.3098 50.8939 67.5755 50.8939 67.9008C50.8939 68.226 50.6281 68.4918 50.3029 68.4918C48.4363 68.4918 46.9227 70.0054 46.9227 71.8719C46.9227 72.1972 46.657 72.4629 46.3317 72.4629C46.0065 72.4629 45.7407 72.1972 45.7407 71.8719C45.7407 70.0054 44.2271 68.4918 42.3606 68.4918C42.0353 68.4918 41.7696 68.226 41.7696 67.9008C41.7696 67.5755 42.0353 67.3098 42.3606 67.3098ZM145.1 175.743C147.288 175.743 149.061 173.97 149.061 171.784C149.061 171.404 149.371 171.091 149.754 171.091C150.134 171.091 150.447 171.402 150.447 171.784C150.447 173.972 152.22 175.743 154.405 175.743C154.786 175.743 155.098 176.053 155.098 176.436C155.098 176.816 154.788 177.129 154.405 177.129C152.218 177.129 150.447 178.902 150.447 181.089C150.447 181.47 150.137 181.782 149.754 181.782C149.373 181.782 149.061 181.472 149.061 181.089C149.061 178.902 147.288 177.129 145.1 177.129C144.72 177.129 144.407 176.818 144.407 176.436C144.407 176.055 144.718 175.743 145.1 175.743ZM46.0638 172.953C47.7943 172.953 49.1953 171.553 49.1953 169.822C49.1953 169.52 49.4419 169.274 49.7438 169.274C50.0456 169.274 50.2922 169.52 50.2922 169.822C50.2922 171.553 51.6953 172.953 53.4237 172.953C53.7255 172.953 53.9721 173.2 53.9721 173.502C53.9721 173.804 53.7255 174.05 53.4237 174.05C51.6932 174.05 50.2922 175.454 50.2922 177.182C50.2922 177.484 50.0456 177.73 49.7438 177.73C49.4419 177.73 49.1953 177.484 49.1953 177.182C49.1953 175.451 47.7922 174.05 46.0638 174.05C45.762 174.05 45.5154 173.804 45.5154 173.502C45.5154 173.2 45.762 172.953 46.0638 172.953ZM100.508 80.3818C101.256 80.3818 101.864 80.9898 101.864 81.7382C101.864 82.4865 101.256 83.0945 100.508 83.0945C99.7594 83.0945 99.1514 82.4865 99.1514 81.7382C99.1514 80.9898 99.7594 80.3818 100.508 80.3818ZM45.5749 134.547C47.6094 134.547 49.2612 136.197 49.2612 138.234C49.2612 140.268 47.6115 141.92 45.5749 141.92C43.5404 141.92 41.8886 140.27 41.8886 138.234C41.8886 136.199 43.5383 134.547 45.5749 134.547ZM47.5477 116.341C48.3322 116.341 48.9678 115.706 48.9678 114.921C48.9678 114.785 49.0784 114.672 49.2165 114.672C49.3526 114.672 49.4653 114.783 49.4653 114.921C49.4653 115.706 50.1009 116.341 50.8854 116.341C51.0214 116.341 51.1341 116.452 51.1341 116.59C51.1341 116.726 51.0235 116.839 50.8854 116.839C50.1009 116.839 49.4653 117.474 49.4653 118.259C49.4653 118.395 49.3547 118.507 49.2165 118.507C49.0805 118.507 48.9678 118.397 48.9678 118.259C48.9678 117.474 48.3322 116.839 47.5477 116.839C47.4117 116.839 47.299 116.728 47.299 116.59C47.299 116.454 47.4095 116.341 47.5477 116.341ZM48.4937 91.2579C49.4461 91.2579 50.22 90.4862 50.22 89.5316C50.22 89.3658 50.356 89.2298 50.5218 89.2298C50.6876 89.2298 50.8237 89.3658 50.8237 89.5316C50.8237 90.484 51.5954 91.2579 52.5499 91.2579C52.7157 91.2579 52.8518 91.3939 52.8518 91.5597C52.8518 91.7256 52.7157 91.8616 52.5499 91.8616C51.5975 91.8616 50.8237 92.6333 50.8237 93.5878C50.8237 93.7537 50.6876 93.8897 50.5218 93.8897C50.356 93.8897 50.22 93.7537 50.22 93.5878C50.22 92.6354 49.4483 91.8616 48.4937 91.8616C48.3279 91.8616 48.1919 91.7256 48.1919 91.5597C48.1919 91.3939 48.3279 91.2579 48.4937 91.2579Z" fill="white" fill-opacity="0.25098"/>
<path fill-rule="evenodd" clip-rule="evenodd" d="M59.3464 34.3608C60.7006 33.9271 61.4467 32.4794 61.0131 31.1252C60.9387 30.8892 61.0683 30.6341 61.3043 30.5597C61.5403 30.4853 61.7954 30.6149 61.8698 30.8509C62.3035 32.2051 63.7512 32.9513 65.1054 32.5176C65.3414 32.4432 65.5965 32.5729 65.6709 32.8089C65.7474 33.0448 65.6156 33.2999 65.3796 33.3743C64.0254 33.808 63.2793 35.2558 63.7129 36.6099C63.7895 36.8459 63.6577 37.101 63.4217 37.1754C63.1857 37.2498 62.9306 37.1202 62.8562 36.8842C62.4225 35.53 60.9748 34.7838 59.6206 35.2175C59.3846 35.294 59.1295 35.1622 59.0551 34.9262C58.9807 34.6903 59.1104 34.4352 59.3464 34.3608Z" fill="#2C1538"/>
<path fill-rule="evenodd" clip-rule="evenodd" d="M62.4608 213.26C63.4706 213.843 64.761 213.498 65.3435 212.489C65.4455 212.312 65.6709 212.253 65.8473 212.353C66.0238 212.455 66.0833 212.68 65.9834 212.856C65.4009 213.866 65.7474 215.157 66.7551 215.739C66.9315 215.841 66.9911 216.066 66.8911 216.243C66.7891 216.419 66.5638 216.479 66.3873 216.379C65.3775 215.796 64.0871 216.143 63.5046 217.151C63.4026 217.327 63.1772 217.387 63.0008 217.287C62.8243 217.185 62.7648 216.959 62.8647 216.783C63.4472 215.773 63.1007 214.483 62.093 213.9C61.9166 213.798 61.857 213.573 61.957 213.396C62.059 213.22 62.2843 213.16 62.4608 213.26Z" fill="#462262"/>
<path d="M101.024 226.447C102.37 226.447 103.461 225.356 103.461 224.011C103.461 222.665 102.37 221.575 101.024 221.575C99.6788 221.575 98.5881 222.665 98.5881 224.011C98.5881 225.356 99.6788 226.447 101.024 226.447Z" fill="#4E236C"/>
<path d="M122.736 226.124C123.348 226.124 123.844 225.628 123.844 225.017C123.844 224.405 123.348 223.909 122.736 223.909C122.124 223.909 121.628 224.405 121.628 225.017C121.628 225.628 122.124 226.124 122.736 226.124Z" fill="#4E236C"/>
<path d="M148.089 213.732C149.524 213.732 150.687 212.569 150.687 211.134C150.687 209.7 149.524 208.537 148.089 208.537C146.655 208.537 145.491 209.7 145.491 211.134C145.491 212.569 146.655 213.732 148.089 213.732Z" fill="#4E236C"/>
<path d="M124.477 248.981C127.003 248.981 129.05 246.934 129.05 244.409C129.05 241.883 127.003 239.836 124.477 239.836C121.952 239.836 119.904 241.883 119.904 244.409C119.904 246.934 121.952 248.981 124.477 248.981Z" fill="#4E236C"/>
</g>
<defs>
<radialGradient id="paint0_radial_71_11608" cx="0" cy="0" r="1" gradientUnits="userSpaceOnUse" gradientTransform="translate(89.9442 128.159) scale(51.1339 51.1339)">
<stop stop-color="#EE249C"/>
<stop offset="0.890196" stop-color="#852172"/>
<stop offset="1" stop-color="#1C1E48"/>
</radialGradient>
<linearGradient id="paint1_linear_71_11608" x1="17.6004" y1="161.584" x2="162.286" y2="94.7338" gradientUnits="userSpaceOnUse">
<stop stop-color="#783CA1"/>
<stop offset="1" stop-color="#EE229B"/>
</linearGradient>
<clipPath id="clip0_71_11608">
<rect width="217" height="248.982" fill="white"/>
</clipPath>
</defs>
</svg>
