<svg width="24" height="24" viewBox="0 0 24 24" fill="none" xmlns="http://www.w3.org/2000/svg">
<path d="M23.0308 7.28062L20.2277 10.0837C19.6614 16.6481 14.1255 21.75 7.50017 21.75C6.13892 21.75 5.01673 21.5344 4.16454 21.1087C3.47736 20.7647 3.19611 20.3962 3.12579 20.2912C3.0631 20.1972 3.02246 20.0902 3.00692 19.9783C2.99138 19.8664 3.00133 19.7524 3.03604 19.6448C3.07075 19.5373 3.12931 19.439 3.20735 19.3572C3.2854 19.2755 3.3809 19.2124 3.48673 19.1728C3.51111 19.1634 5.75923 18.3 7.18704 16.6566C6.39522 16.0055 5.70399 15.241 5.13579 14.3878C3.97329 12.6619 2.67204 9.66375 3.07329 5.18343C3.08601 5.04107 3.13915 4.90531 3.22644 4.79213C3.31373 4.67895 3.43154 4.59307 3.566 4.54461C3.70047 4.49614 3.84598 4.48711 3.9854 4.51857C4.12483 4.55003 4.25236 4.62067 4.35298 4.72218C4.38579 4.755 7.47298 7.82531 11.2474 8.82093V8.25C11.2459 7.6513 11.3643 7.05838 11.5955 6.50613C11.8267 5.95388 12.1661 5.45347 12.5936 5.03437C13.0088 4.61974 13.5029 4.29247 14.0466 4.07188C14.5904 3.85129 15.1728 3.74184 15.7595 3.75C16.5466 3.75776 17.3183 3.96905 17.9996 4.36331C18.6808 4.75758 19.2485 5.32142 19.6474 6H22.5002C22.6486 5.99988 22.7937 6.0438 22.9172 6.12621C23.0406 6.20861 23.1368 6.32579 23.1936 6.4629C23.2504 6.60002 23.2653 6.75091 23.2363 6.89648C23.2073 7.04204 23.1358 7.17573 23.0308 7.28062Z" fill="#D0D5DD"/>
</svg>
